<svg xmlns="http://www.w3.org/2000/svg" xml:space="preserve" viewBox="-1 -.1 661 443"><path fill="#C20634" d="M10.2 433h638.6V240.4H10.2z"/><path fill="#FFF" d="M10.2 433h638.6V240.4H10.2V433zM0 231.2h659v211H0v-211z"/><path fill="#FFF" d="m307.1 383 .3-74.9h-29.8l7.7-19.1h96.2l-7.7 19.1h-22.1l.3 74.9zm210.3-29.8h28.5L531.6 315l-14.2 38zm34.3 15.6h-40.2l-5.3 14.2h-25.7l38-94h47.4l38 94H557l-5.3-14.2z"/><path fill="#FFF" d="M426.1 308v75h-42v-94h73.6c21.9 0 29.2 14 29.2 25 0 14.3-10.5 21.4-16.4 25l20.2 44h-45.9l-15-44.2c6.5 0 15.5-3.7 15.5-16.7 0-8.7-6.3-14-12.6-14h-6.6zm-254.3 75c11.9 0 36.4 2 56.3 2 46.3 0 54.3-23.4 54.3-34.9 0-9.2-4-19.6-19.9-27.3-18.1-8.7-46.9-2.4-46.9-11.7 0-7.8 36.8-5.3 53.7-3l7.9-19s-16-2.3-41.4-2.3c-40.7 0-61.2 9.2-61.2 33.4 0 4.9 1.5 14.7 11.6 22.2 22.8 17 54.1 6.8 54.1 16.9 0 3-1.6 5.9-20.3 5.9-8.7 0-25.3-1-39.8-2.9l-8.4 20.7z"/><path fill="#FFF" d="M92 353.2h28.6L106.3 315l-14.2 38zm34.4 15.6H86.3L81 383H55.2l38-94h47.4l38 94h-46.9l-5.3-14.2zm203.1-111.1c-52.5-32.7-100.4-66-100.4-111.9A56.6 56.6 0 0 1 316 98.1V82.4h-36.5V60.2s14.3-3.8 29.3-6a32.2 32.2 0 0 1-10.1-23.4 30.8 30.8 0 1 1 61.7 0c0 9-4 17.6-10.1 23.4 15 2.2 29.2 6 29.2 6v22.2H343V98a56.6 56.6 0 0 1 87 47.7c0 45.9-48 79.2-100.5 111.9z"/><path d="M391.9 147.4a71.2 71.2 0 0 1-124.7 0h18.5a53.6 53.6 0 0 0 36.7 23v-24.6a36.8 36.8 0 0 0-36.7-36.7 36.4 36.4 0 0 0-36.4 36.7c0 36.4 48.4 68.2 80.2 88.2 31.8-20 80.2-51.8 80.2-88.2 0-20.3-16-36.7-36.4-36.7a36.8 36.8 0 0 0-36.7 36.7v24.6a53.6 53.6 0 0 0 36.7-23H392zM318.6 30.8a11 11 0 1 0 21.9 0 11 11 0 0 0-22 0zm-13.3 0a24.3 24.3 0 1 1 31.1 23.3v5.1c17.9 1.2 36.5 6 36.5 6v10.6h-36.5l.1 36.7c9-10.3 22-16.7 36.8-16.7a50 50 0 0 1 50.1 50c0 46.5-58.2 81.3-93.9 104-35.6-22.7-93.9-57.5-93.9-104a50 50 0 0 1 50.1-50 48 48 0 0 1 36.8 16.7l.1-36.7h-36.5V65.3s18.7-5 36.5-6V54c-10-3-17.3-12.3-17.3-23.3z"/><path fill="#C20634" d="M391.9 147.4a71.2 71.2 0 0 1-124.7 0h18.5a53.6 53.6 0 0 0 36.7 23v-24.6a36.8 36.8 0 0 0-36.7-36.7 36.4 36.4 0 0 0-36.4 36.7c0 36.4 48.4 68.2 80.2 88.2 31.8-20 80.2-51.8 80.2-88.2 0-20.3-16-36.7-36.4-36.7a36.8 36.8 0 0 0-36.7 36.7v24.6a53.6 53.6 0 0 0 36.7-23H392z"/></svg>