<svg xmlns="http://www.w3.org/2000/svg" xmlns:xlink="http://www.w3.org/1999/xlink" xml:space="preserve" viewBox="0 0 1024 708"><symbol id="a" viewBox="-70 -107 139 213"><path d="M-15 83a20 20 0 0 1-1 6v4l-1 1-1 4-1 2-5 5c-5 3-12 1-13-4v-2l1 1 6 2c4-1 7-10 8-19h-1l-2 4-4 5c-2 3-3 5-6 6a10 10 0 0 1-14 0 17 17 0 0 1-4-11h1c1 4 4 8 8 7 3 0 8-3 13-11l2-4c-4 3-8 1-11 0s-4 1-5-1v-1l1-2 4-2c2-1 3-3 7-3-2-1-3-5-3-5l-2-3c1-1 2 1 3 1l-1-2v-2l-3-6s4 0 5 2l1-6 1-5c1-7-2-8-1-9l3 2 1-5a8 8 0 0 0-4-6c-1-1 1-1 1-1h1l1 1s-7-8-10-15l-7-14c-1-4-3-7-8-7S-66-6-65 1c0 2-1 0-1 0-1 0-4-5-2-11l1-6c0-2 0-5 2-6l3-2h2c-1-4 0-7 1-11 0-2 0-6-2-7-3-2-5-1-5-1 0-1 2-3 5-3l-4-5c-1-4 1-6 2-10a95 95 0 0 0 1-12l-1-10c-2-6-6-4-6-4h-1c2-1 5-2 6-1l1 1v-1l-2-1-2-2 3 1 1-1h2v-4l1-6 12 1a24 24 0 0 0-5 9c4-1 7 4 6 4l-4-1c-3 2-3 6-4 13 0 7 2 13 3 16l3 6 3 1-1-3-1-2v-1l4-6a56 56 0 0 0 10-17l1-4c0-2-3-2-3-3h3a3 3 0 0 1 1 2h2l-2-4 1-1 2 3v-3l1-7 16-3a30 30 0 0 0-6 6 27 27 0 0 0-2 4 5 5 0 0 0-1 2s4-1 4 0l-6 6c-3 3-8 16-9 21 0 3 1 6 4 9l3 4v1-5l1 3 3 5 2 5h2l-2 3v1l-1 2c0 2 0 3-2 5l2 1v1h-3l2 2v1l-2 1 8 6 6 2-2 1 2 1 5 3-1-3h1l2 3 3 3c0-1 1-2 3-2 0-1 0-1 0 0L3-7h2L4-3l1 3a8 8 0 0 1 3-1c1 0 2-1 3 1l3 12 6 10 6 3c5-1 13-4 15-11l1 3h2v1l3-3c2-1 7-1 8 4l4 4-1 1h-6l-3 1 1 2-1 1c-7-2-10 0-14 1l-5 3-6 2h-2a39 39 0 0 0 4 7l2 1 2 1 1 1 8-1c3 0 5-2 5-5-1-2 0-1 1-1v2l-1 3 1 1s2-1 2-4v-1l1 3 1 1v-2h1v1h1c2-1 4-2 5-1 3 1 3 1 5 4 2 2 3 4 3 7h-1a35 35 0 0 0-9-3l2 5c0 1 0 2-1 0-2-2-3-2-6-2H34l-7 2a8 8 0 0 1-7-3l-3-4-3-4-3-4-3-4a31 31 0 0 1-1 2l-1 2-4 4a67 67 0 0 0-7 5v1a7 7 0 0 1 2-1l5-3 3-2c0-1 1 0 0 0l-7 6c2 1 5 3 4 4 0 0-2-2-4-1-3 1-3 3-5 8l3 1h2l2-1c2 0 4 3 4 5 1 2 2 4 0 6 1 1 0 3-1 4l-3 1-2 1-5 2-3 3-4 2h-1z"/><path fill="#CFAB66" d="M-32-87v2a47 47 0 0 1-5 13c-2 5-5 8-9 14v2l3 5 1 1-2-1-1 1-3-1a9 9 0 0 0-2-1h-1a8 8 0 0 0-1-3 9 9 0 0 0-2-3l-1-1c0-1-1-2 1 0l-1-4a58 58 0 0 1-1-9v-9c1-3 2-7 5-8h2a4 4 0 0 0-5 0c-1 1-1-1-1-1a19 19 0 0 1 3-6l2-3-3-1-2 5h-1v-4l1-1h-4l-1 5v4l2 2v2l1 1-1 1-1-1-1-2v-1l-1-1h-2l1 2v2l-1-2-1 1 2 3 1 8v10l-2 9v5c0 2 1 3 4 6h1a10 10 0 0 1 3 3c0 1 0 2-1 1l-3-2a5 5 0 0 0-4 0h2c3 2 3 5 4 7 0 3-3 11-2 13l3 2a5 5 0 0 1 1 3h-1a7 7 0 0 0-1-2l-1-1-2-1a5 5 0 0 0-4 1 5 5 0 0 0-1 3 7 7 0 0 1 2-1h4c1 0 2 0 0 1h-3l-3 2-1 1-1 4 3-3 4-2h4c1 0 1 1-1 1h-3a10 10 0 0 0-3 2 16 16 0 0 0-3 4v8c1-6 7-10 12-9 4 0 7 1 9 8a73 73 0 0 0 6 15l9 11 4 5 2 3 1 8h-1l-1-5-1-2v-1a12 12 0 0 0-4-3h1l1 4v8l1 2v9c0 1-1 2-1 0v-5a21 21 0 0 0 0-2l-1-3-1-2-1-1v6l-1 3v11c1 2 0 1-1 0l-1-2-2-1 1 2v2l1 1a9 9 0 0 0 2 6v1l-3-2 1 2v1l1 1 1 1h4c2 0 2 1 0 1h-3a10 10 0 0 0-2 0l-4 1-1 1-2 1-1 1a32 32 0 0 0-3 2v1h5l3 1a11 11 0 0 0 7-1h1l1-1h1v1h-1l-2 4-3 5c-4 5-7 8-12 8-3 1-5-1-7-3l4 6a8 8 0 0 0 7 1l3-2v-1l-1-1 1-1 2 2 3-1 1-3h-1a5 5 0 0 1-1-2l1-1 2 2 2-2 1-2h-1l-1-2 1-1 1 2h1l2-2v-1c1-1 0-2-1-3l1-1 1 2 1 1h5c2 0 4 0 6-2a7 7 0 0 0 1-1l2-2 5-3 5-1 1-2-2-1-3 1h-1v-2h7v-2l-1-2h-6v1h-1l-1-1-1-1 1-1 1 1a25 25 0 0 0 7 0l-2-3h-4l-6-1-5 2-1 2c-1 2-1 1-1 0l1-2c1-2 3-3 7-3a28 28 0 0 1 2-6c1-2 3-3 5-3a3 3 0 0 0-1-1l-4 2h-1l1-2 2-2c-2 1-4 2-2-1l7-4c4-3 5-7 6-9l-4 4-7 5c-2 1-1-1 0-2l2-2 3-1 3-3 3-3a36 36 0 0 0 1-8v-2a12 12 0 0 0-2-4l-2-2c-2-2-1-2 1-1l2 2a50 50 0 0 1 4 5l3 6 2 3a8 8 0 0 0 8 3l3-1 1-1 2-1 6-3a20 20 0 0 1 7-1h5l-1-1a10 10 0 0 0-4 0v-1h5a24 24 0 0 1 4-1h5l-2-3h-2c-1-1-5 1-5 1-2 0-2 0 0-1l6-2-5-2-1 1h-1l-1 1-6 3c1 0-1 1 0 0 2-3 1-4 1-4a13 13 0 0 1-3 3 12 12 0 0 1-5 4l-3 1a18 18 0 0 1-4 1h1c0 1 0 2-1 1a10 10 0 0 0-3-3 10 10 0 0 0-5-1v-1a57 57 0 0 1-7-15L9 1H7L5 2S4 3 4 1a4 4 0 0 1 0-1v-1L2-4l1-3v-1L2-5a17 17 0 0 0-1 3c0 1 0 2-1 1v-2a85 85 0 0 0-2-4h-1l1 2v4h-1l-1-2v-3a3 3 0 0 0 0-1 9 9 0 0 0-3-2l-4-2-5-3-2-1a37 37 0 0 1-7-7l-1 2 2 6c2 2 0 2-1 1l-2-6a5 5 0 0 1 4-5h-1c-2-1-3 0-4 2-2 2-2 2-1 0 0-2 3-4 5-5h-1l-1 1c-2 1-2 0-1-1l4-2a11 11 0 0 0 2-6l-2 3c-1 1-3 1-1-1l3-4-1-6-1-2-1-1a7 7 0 0 1-1 8c-1 0-2 1-1-1l1-4-1-3-3-4-3-4-2-6a38 38 0 0 1 2-8l2-5c2-4 4-9 6-10l2-3 1-1a8 8 0 0 0-4 2c-1 1-2 2-1 0l3-2 1-1v-2a17 17 0 0 1 2-4l2-3 2-2-3 1h-2l-1 2a19 19 0 0 0-1 2c-1 2-2 1-1 0v-3h-3l-1 4v5l-1 2v-1h-1l1 2v2c0 2-1 2-1 0l-1-2v-1h-1"/><path fill="#CFAB66" d="m-21 84-1 7c-1 5-3 9-7 11-3 2-5 1-7 0a7 7 0 0 0 5 4 8 8 0 0 0 7-2 7 7 0 0 0 2-3 4 4 0 0 1-2-2h1l2 1c1 0 2-1 2-3v-2a1 1 0 0 1 0-1 5 5 0 0 1-2-1h3l1-2v-2h-1a4 4 0 0 1-2-1l1-1a5 5 0 0 0 2 0l1-2v-1h-5zm70-43h-1s0 2-2 3c-1 0-2 0-1-1v-1h-1l-5 3a21 21 0 0 1-8 0h-1l-1-1-1-1a14 14 0 0 0-4-1v-1l-1-2-3-5-1-1a9 9 0 0 1-3-2l-2-4-5-6v10h4c1 0 1 1 0 0-3 0-5 2-5 2l4 4 3 4a59 59 0 0 1 3 5l3 3a7 7 0 0 0 6 2l7-1 15-1 5 2c-1-3-3-3-5-3-1-1-2-1 0-1s5-1 13 3a5 5 0 0 0-2-5l-5-1c-2 1-2 0 0-1h4l-1-1a8 8 0 0 0-2-1c-1-1-2 0-4 1l-3 2h-1l1-3"/><path d="m-48-20-1-3v3l2 3-1-3m1-6v3l-1-3 1-2v2m2-6v3l-1-3 2-3-1 3m6-12h-2c1-3 0-6-3-7v3c0 4-2 6-3 9l-2 3a20 20 0 0 0-3 8h-1l1-5 4-7 2-4v-8h1c4 0 7 4 6 8m-12-3c-2-1-1-2 0-1 3 2 5 5 4 9l-2-1c1-3 0-6-2-7m1-1c-1-1-1-2 1-1a6 6 0 0 1 3 7h-1c1-3-1-5-3-6m6 11 1-1h1l-1 2-1-1m31 71a6 6 0 0 1-2 3 33 33 0 0 0-4 4c0 1-1 1-1-1 2-4 1-9-1-12l-1 5-1 6c0 2 0 2-1 1l1-8c1-2 1-5-1-7-1-2 0-2 1-1 3 3 5 5 5 9v5l2-2c2-2 2-5 1-7h1c2 3 3 8 1 12l2-1c3-1 4-4 3-7-1-2-1-3 1-1v9c-1 4-3 3-4 8-1 2-1 2-1 0a9 9 0 0 1 2-5 8 8 0 0 0 3-6c-1 1-2 3-4 3l-5 2s-2 1 0-1c3-2 4-5 3-8m5-3c-2-1 0-1 1-1 4 2 6 8 3 11-1 1-2 2-1 0a7 7 0 0 0-2-10m10 4v-6a6 6 0 0 0-2-2c2 5-1 11-4 14l-1-1c1-2 4-4 4-8 1-3 0-4-2-6-1-1 0-1 1-1 5 2 7 6 5 10 0 2-1 1-1 1zM-14 4h-1l1-3h1l-1 3m4-1-1-1-1-4c-1 0-1 0 0 0 2 0 3 2 2 5M3 3c1 1 0 2-1 0a8 8 0 0 0-5-5c-1 0-2-1 0-1a8 8 0 0 1 6 6m-27-94 1 1-2 2-2 4h-1c0-2 0-3 2-4a9 9 0 0 1 2-3m-33 2h-1l-1-3v-1c2 1 2 4 2 4m21 40c-1-1 0-2 1-1a7 7 0 0 1 4 8h-1c0-3-1-6-4-7m6 6c0-1 0-2 1-1a4 4 0 0 1 3 4l-1-1c-1-1-1-2-3-2m-6-3 1-1a4 4 0 0 1 1 6l-1-1c1-1 1-3-1-4m-4-4h1c3 2 3 5 2 8 0 0-1 1-1-1 1-2 0-5-2-7m-19 3v-1l4 1 3 4-1-1a5 5 0 0 0-2-2l-4-1m-1-4v1c-2-1-2-4-1-7l1-7h1l-1 5v8m7 38h-4l4-1c2 0 4 2 4 3l-4-2m2-2-2-1h3l1 2-2-1m-3-8v2l-1-2-1-2 2 2m39 101c1 0 2 0 1 1-4 2-8 2-10-2-1-2 1-2 1-1 2 3 5 3 8 2m-13-3v1l-5 1h-4l-1-1c1-1 2-2 5-2l5 1m9-20h-1a16 16 0 0 0 0-7h1a9 9 0 0 1 0 7m-5-1-1-1a9 9 0 0 0 2-5l-2-5h1l1 2c2 3 1 6-1 9m4 21 1 1 1-2a3 3 0 0 1 2-1l2 1 3-1h3v1h-2l-2 1-5 2a5 5 0 0 1-2 0l-2-1v-1h1M-7-7c2 2 2 7 1 9h-2c0-3-2-5-6-5l-1-1c3-1 7 0 8 4l-1-5c-1-2-2-2-4-2 0 0-1 0 0 0 3-2 8-1 8 2v1c-1-2-2-2-3-2m38 53h-1a46 46 0 0 0-2-2s-1-1 0-1l3 3m-6-19h-1a9 9 0 0 0-3-3c-1-1-2-1 0-1l4 4m0 0-4-4 4 4zm6 19-3-3 3 3z"/><path fill="#C5A154" d="M-18 76h2l1-1-2-1-1 2"/><path d="M70-102a70 70 0 0 0-11 33v1a19 19 0 0 1-3 4l-3 4c-1 2-2 4-1 7 1 2 0 1-1 1-6-5-6-11-4-15h-1a38 38 0 0 0-6 12l-2 5a32 32 0 0 0-1 5l-4 9a7 7 0 0 0 3 0c1 0 2 0 1 1a9 9 0 0 0-2 3v2l-2 2a12 12 0 0 1-3 2v5l2 2v5l-1 2-1 2h-5c-2 0-5 0-7-3l-1 1h-2a3 3 0 0 1-3-2 9 9 0 0 1-6 2H0l-1-2-1-3v-7l-3-1a3 3 0 0 1 0-3 7 7 0 0 1-4-4 6 6 0 0 1-1-2v-1c0-1 0-2-2-3l1-1 1-1 1-1a7 7 0 0 1 3-3c2 0 4 0 5 2l1-2a3 3 0 0 1 3 0v-2a7 7 0 0 1 1-2 12 12 0 0 1 3-3l1-2a7 7 0 0 0 1-1h1c0 2 1 2 2 3l8-7c7-4 14-9 17-16v-1l-1 1c-4 2-7 3-10 2a20 20 0 0 1-5-2v-1c3 1 4 0 5-1l2-2a16 16 0 0 1-18-5c-5-6-4-13-4-13h1a13 13 0 0 0 7 6c-4-4-4-8-3-11 2-5 6-6 11-5 1 0 1 1-1 1-3 1-6 4-6 7 0 4 4 8 11 8 5 0 13-4 13-4h7a55 55 0 0 0 7-1 27 27 0 0 0 15-10l2-2v5z"/><path fill="#0097D7" d="M3-43H1l-1 2v1l3 2c1 2 1 2-1 1l-3-3-1-1c-1-1-2-2-3-1a6 6 0 0 0-3 2l-2 1a4 4 0 0 1 0 1l1 3v1l1 1 3 3h5c2 0 2 1 0 1l-3 1h-1v2l2 1 4-2h1l-1 1-1 1-1 1c-1 0-2 4-1 7l2 2v2h5c4 0 6-2 6-3v-1l1-3c1-1 2-1 1 1v4l1 2h1l1-1v-2a7 7 0 0 1 0-4v1a12 12 0 0 0 2 5c2 3 4 3 5 3l3-1 2 1 1-2 1-2v-4l-3-2h-1l-5-2 1-1a24 24 0 0 0 4 2h1l1-2v-1l-2-1h-3v-1h2a8 8 0 0 0 3 0l3-2 1-2h1v-1l1-3-4-1-2-1a11 11 0 0 0-2-1 9 9 0 0 0-5 1l-1 1-1 1c-1 0-2 0-1-1l1-1 1-1c1-1 1-2-1-3h-2l-1 2-1 2-1-1 1-2v-1c0-2 0-4-2-6l-3-3a7 7 0 0 1-2-2l-2 2c-1 0-2 1-2 3l-1 3 1 3 1 2c1 1 2 2 0 1l-2-2-1-3m36-20 4-2a41 41 0 0 0-6 15l-1 4-4 9-2-1-3-1h-4c0-1 0-2-2-3h-4a10 10 0 0 0-2-6 18 18 0 0 0-2-2c2-3 4-6 7-7 6-3 11-7 15-12v1a39 39 0 0 1-3 9v2l2-2 5-4"/><path d="m17-35-3-2-1-1v-1l-1-1h-1v2l-1-1-1-2v-1H8v3l1 1 1 1v1H7l-1-1H5v1l1 1h1v1H4l-3-1H0v1h1l2 1h1l2 1-2 1H3v1h2l2-1 2-1 1-1 2-1-1 2-3 2-2 2-1 1h1l1-1a8 8 0 0 0 2-1l2-2 2-1-1 1v2l-3 4-1 2-1 1 1 1 1-2 3-4 2-3 1-1-1 4-1 2v3l1-1v-2l1-2 1-2 1-1v2l-1 2v2l1 3 1-1v-2 1l1 2 2 1h1l-1-2-1-1-1-2v-1l2 1h1v-1l-1-1a6 6 0 0 1-1-1v-2l2 1a5 5 0 0 0 2 0 3 3 0 0 0 1 0l1-1-1-1-1 1a4 4 0 0 1-2-1h-1l1-1h1v-1h-4l-1-1-1-1m8-23 10-11v2l-9 9h-1m-6 9c6-4 12-11 16-17v2a54 54 0 0 1-15 15h-1m16-10L23-42c-1 1-2 0-1-1l11-17m-5 18a81 81 0 0 1 9-20h2a95 95 0 0 0-10 20c-1 2-2 1-1 0m6-10a54 54 0 0 1 6-12l2-1a66 66 0 0 0-7 13c-1 2-1 2-1 0"/><path fill="#007F3F" d="M15-96c0 6 1 9 4 11s7 3 11 2a20 20 0 0 1 11-10 13 13 0 0 1-2 0c-6 3-9 4-13 4-3 0-9-1-11-7zm21 20c-5 3-8 3-10 3l-2-1 3-2 2-2 2-3c2-5 6-10 14-11l9-2a31 31 0 0 0 14-8 70 70 0 0 0-10 33l-3 5-3 3-2 6c-4-5-3-12-1-15a33 33 0 0 0 6-11l1-3v-2c2-3 1-3-1-1l-1 3-1 3-3 7-2 3-1 2a29 29 0 0 1-7 4 55 55 0 0 0-6 4l1-2 1-5a32 32 0 0 1 3-9v-1l3-3 3-3 3-2a21 21 0 0 0 4-4c1-1 0-2-1 0l-4 3-4 3-5 5a13 13 0 0 1-2 3"/><path fill="#00A854" d="M8-93v1a15 15 0 0 0 3 8c4 4 11 7 18 4l1-2a13 13 0 0 1-9-1 15 15 0 0 1-4-3l-1-1a15 15 0 0 1-8-6m4-8c1-3 4-4 7-4a10 10 0 0 0-4 3c-2 3-2 5-1 8v3c-2-4-3-7-2-10m37 9-3 2c-8 4-17 15-19 16h-3a6 6 0 0 0 3-2l2-2 2-4c2-4 6-9 14-10l4-1m6 4-1 1-20 27a265 265 0 0 0 2-7 32 32 0 0 1 3-9v-1l3-3 3-3 3-3a21 21 0 0 0 4-4m7 5s0 5-3 13a40 40 0 0 1-5 10c-2 2-1 6-1 8-5-5-3-12-1-15a33 33 0 0 0 6-11l1-3v-2a3 3 0 0 0 1-2"/><path d="m29-75 8-8a29 29 0 0 1 12-8c1-1 1-2-1-1a26 26 0 0 0-12 8l-7 8v1m8 11h-1a421 421 0 0 1 19-25L37-64m13 4c0 2-1 2-1 0 1-4 3-6 5-9a41 41 0 0 0 4-17h1a49 49 0 0 1-2 13c-2 5-5 7-6 13"/></symbol><path d="M620 45c-1 0-9 0-14 8l1-4-1-1a26 26 0 0 0-6 5c-1 2-3 5-3 8l-1-4c0-2-1-2-1-1-2 4-4 7-3 11a15 15 0 0 0 4 10 16 16 0 0 1-15 13c-8 1-14-4-16-11 4 3 11 0 13-1 0 0 1-1-1-1l-4-1c4 1 8-4 8-5h-1a15 15 0 0 1-3 0 8 8 0 0 0 5-6l1-2-1-1-2 1c2-2 3-6 2-6v-1a11 11 0 0 0-7 2v-7h-1l-2 3 1-5v-3l-1-1h-1a11 11 0 0 1-1 2 9 9 0 0 0-1-6l-1-2-2-1a9 9 0 0 0-5 7 10 10 0 0 1-1-2v-1a9 9 0 0 0-3 3 10 10 0 0 0-1 5 15 15 0 0 1-1-3h-1a10 10 0 0 0-3 6 11 11 0 0 0-5-5v1c-1 0-2 4-1 7l-1-2c-1-1-1 0-1 1l-1 1v2c0 2 1 4 3 5l-3-1-1 1s1 7 5 7a9 9 0 0 1-4-1l-1 1c1 2 6 7 12 6-2 4-8 8-15 6a16 16 0 0 1-12-17c3 0 5-2 6-5l1-3 1-3a10 10 0 0 1 3-6v-1a10 10 0 0 0-3 0v-5l-1-4v-4h-1a10 10 0 0 0-4 3c0-3-1-5-3-8l-3-3a17 17 0 0 1-2-5l-1-1v1l-2 5-3 3c-2 3-2 5-2 8a10 10 0 0 0-5-3h-1v4l-1 4v5a9 9 0 0 0-3 0v1l3 6 1 3 1 3c1 3 3 5 6 5 1 8-5 16-12 17-7 2-13-2-15-6 6 1 12-4 12-6l-1-1a9 9 0 0 1-4 1c4 0 5-7 5-7l-1-1a9 9 0 0 1-2 1 9 9 0 0 0 2-5v-2l-1-1c0-1 0-2-1-1l-1 2c1-3 0-7-1-7v-1a11 11 0 0 0-5 5l-3-6h-1l-1 3a9 9 0 0 0-1-5l-2-2v-1l-1 1-1 2a9 9 0 0 0-3-5l-2-2-2 1-1 2a9 9 0 0 0-1 6l-1-2h-1l-1 1a9 9 0 0 0 1 8 10 10 0 0 1-2-3h-1a10 10 0 0 0 0 7 11 11 0 0 0-7-2v1c-1 1 0 4 2 6l-2-1v3l1 2 4 4h-4c1 1 4 6 8 5a10 10 0 0 1-4 1v1c1 1 8 4 13 1-2 7-9 12-17 11a16 16 0 0 1-15-13 15 15 0 0 0 5-10c0-4-1-7-4-11 0-1-1-1-1 1a8 8 0 0 1 0 4 15 15 0 0 0-4-8 25 25 0 0 0-6-5l-1 1a9 9 0 0 1 1 4c-5-8-13-8-14-8v1l2 3a46 46 0 0 1 4 7h-3v1c3 2 4 4 5 7l1 3 1 3 3 13a37 37 0 0 0 2 8 32 32 0 0 0 11 13 4 4 0 0 0-1 5c1 2 2 3 4 3a9 9 0 0 0-1 8c1 3 4 6 6 6l-1 4c1 2 3 4 6 2l6-2a162 162 0 0 1 111 0l6 2c3 2 5 0 6-2a4 4 0 0 0-1-4c3 0 5-3 6-6s1-6-1-8c2 0 4-1 4-3 1-2 1-4-1-5a32 32 0 0 0 11-13l3-8 2-13 1-3 1-3c1-3 2-5 5-7v-1l-2-1a55 55 0 0 1 6-9c0-1 0-2-1-1z"/><path fill="#CFAB66" d="M519 38v-1l3 5 1 2 1 2c1 2 2 5 1 8h1s3-4 7-5l2-1a11 11 0 0 0-2 6l-1 3-1 3c-1 2-3 4-6 4v1a18 18 0 0 0 13 18c8 2 16-3 17-8 0-1 0-2-1-1-4 2-9-1-11-3h5l1-1v-1c1 0 2-2 0-1-5 2-6-2-7-4l4 1 1-1a8 8 0 0 1-3-6v-2l2 2 2 1v-1c-3-3-2-7-2-8 3 1 5 5 6 7v1c1 2 2 2 1 0v-2c-1-2-1-5 1-7l3 4c1 1 2 2 1 0a8 8 0 0 1 1-9 7 7 0 0 0 2 4s1 1 1-1a8 8 0 0 1 3-6 9 9 0 0 1 1-1h1l1 2v6c-1 1 0 1 1 1l3-2v2a8 8 0 0 1-3 6c-1 1 0 1 1 1 0 0 2 0 4-3 1 3 0 5-2 7l-1 2c-1 1 0 2 1 0l1-1 8-4c0 2-1 6-5 7-2 0-2 1 0 1h2l3-1-1 2a8 8 0 0 1-5 4v1l4 1c-1 2-4 4-8 1l-1 1 1 2 4 2c-2 1-8 2-11-2-1-1-1 0-1 1 1 9 9 15 18 15 8-1 14-6 16-14l1 1c1 1 2 0 1-1l-2-2a14 14 0 0 1-4-9 14 14 0 0 1 2-8l1 3 1 2 2 3 2 3v7c0 1 1 2 1 0v-8c0-3 5-12 13-12a17 17 0 0 0-5 6l-1 4v3l-3 13-3 8a32 32 0 0 1-10 12l-8-4a191 191 0 0 0-66-11c-23 0-45 4-65 11l-9 4a32 32 0 0 1-13-20l-2-13-1-3-1-4a17 17 0 0 0-4-6c8 0 12 9 13 12a11 11 0 0 0-1 3v5c1 2 1 1 1 0v-5a11 11 0 0 1 2-5l2-2 2-3 1-3a14 14 0 0 1 2 8c0 3-1 7-4 9l-2 2c-1 1-1 2 1 1l1-1a17 17 0 0 0 16 14c9 0 17-6 18-15l-1-1c-3 4-9 3-12 2a8 8 0 0 0 4-2 6 6 0 0 0 1-2l-1-1c-3 3-6 1-7-1l4-1-1-1a8 8 0 0 1-5-4 8 8 0 0 1 0-2 17 17 0 0 0 5 1v-1a8 8 0 0 1-6-6c4 0 6 2 8 3l1 1c2 2 2 1 1 0l-1-1a8 8 0 0 1-2-8c2 3 4 3 5 3v-1a8 8 0 0 1-2-8 8 8 0 0 0 3 2c1 0 1 1 1-1a8 8 0 0 1 0-6l1-2 2 1a8 8 0 0 1 2 6c0 2 1 1 1 0 1 0 2-1 2-3l1 2a8 8 0 0 1 1 7c-1 2 0 1 1 0l2-4a8 8 0 0 1 2 7l-1 2c0 2 0 2 1 0l1-1c1-2 2-6 5-7 1 1 1 5-2 8-1 1-1 1 1 1l2-1 2-2v2l-3 6v1l4-1c0 2-2 6-6 4-2-1-1 1-1 1l1 1 1 1h5c-2 2-7 5-11 3-1 0-2 0-1 1 1 5 9 10 17 8a18 18 0 0 0 13-18v-1c-3 0-5-2-6-4l-1-3-1-3a12 12 0 0 0-2-5h2c4 1 6 5 7 5h1a13 13 0 0 1 1-10l2-2 2-5v1m-99 8 2 2 4 8 6 3v-4a18 18 0 0 0-12-9m18 20 3-3a13 13 0 0 0-3-9l-3-3-1-1v10l4 7v-1zm73-27a13 13 0 0 0-3-4l-1 4-1 3 1 6c2 0 4 2 6 4-1-3 0-5 1-7v-2l-2-2-1-2m8-16-1 3-3 4a11 11 0 0 0-2 7l1 3 1 2v1l1-2 3-6v-1l1 1 3 6 1 2v-1l1-2 1-3c0-3 0-5-2-7l-3-4-2-3m9 16a19 19 0 0 0-3 5l1 1 1 7c1-2 3-4 5-4l1-6-1-3-1-4a11 11 0 0 0-3 4m73 28 4-6v-7a17 17 0 0 1 0-4l-1 1-3 3a13 13 0 0 0-3 9l2 3 1 1zm18-21a18 18 0 0 0-12 9v4l6-3 4-8 2-2m-99 51c21 0 42 3 61 10l8 3c3 1 4 0 5-2s-1-4-4-5l-6-3a196 196 0 0 0-65-11c-22 0-44 4-64 11l-6 3c-3 1-5 3-4 5s2 3 5 2l7-3a186 186 0 0 1 63-10m0 22a162 162 0 0 1 61 12c3 1 4 0 5-1 1-2-1-4-3-5a170 170 0 0 0-114-4l-13 4c-2 1-4 3-3 5 1 1 2 2 5 1l5-2c18-6 37-10 57-10"/><path d="M477 60c4-1 7 2 8 6 0 5-2 9-6 9-3 1-7-2-7-6-1-5 1-9 5-9zm85 0c-4-1-7 2-8 6 0 5 2 9 6 9 3 1 7-2 8-6 0-5-2-9-6-9z"/><path fill="#FFF" d="M477 61c3-1 6 2 7 5 0 4-2 8-5 8-3 1-6-2-6-6-1-3 1-7 4-7zm85 0c-3-1-6 2-7 5 0 4 2 8 5 8 3 1 6-2 6-6 1-3-1-7-4-7zm-111 50c-3 1-4 5-3 8 1 4 4 6 7 5 2-1 4-4 3-8-2-4-5-6-7-5zm69-13c-4 0-7 3-7 7s3 7 6 7c4 0 7-4 7-7 0-4-3-7-7-7zm61 18c-1 4 1 8 3 8 3 1 6-1 7-5 1-3 0-7-3-8-2 0-5 2-7 5zm-109-12c-7 2-9 3-10 10l-2 8h1c5-2 7-3 8-10 0-4 1-6 3-8zm6 6-3 8 3-1c4-1 5-3 7-9 0-4 2-6 3-8-7 2-9 3-10 10zm27-12c-7 1-9 2-11 9-1 4-2 6-4 7h2c5-1 7-2 9-8l4-8zm9 1-3 2-2 6-3 5a121 121 0 0 1 10 0 9 9 0 0 1-4-6c0-3 0-5 2-7zm11 0c2 2 2 4 2 7a8 8 0 0 1-3 6h10l-3-3c-2-2-1-4-3-7l-3-3zm9-1a13 13 0 0 1 5 7c2 7 4 8 9 9h1a15 15 0 0 1-4-7c-1-7-4-8-11-9zm17 2 4 8c1 7 3 8 8 9l2 1a13 13 0 0 1-4-8c-1-7-3-9-10-10zm16 4c2 2 3 4 3 8 1 7 2 8 7 10h2l-2-8c-1-7-3-8-10-10z"/><path fill="#0097D7" d="M459 122v-6a9 9 0 0 0-5-6 204 204 0 0 1 10-3c-2 1-3 4-3 7l-2 8m21-20c-7 2-9 3-10 10 0 4-1 6-3 8l2-1c5-1 6-2 8-9 0-4 1-6 3-8m16-3c-6 1-9 2-10 9l-3 8h1c5-2 7-3 9-9l3-8m17-1c-7 0-9 1-11 8-1 4-3 6-4 7h1c6-1 7-2 10-8 1-4 2-6 4-7m13 0c2 1 3 3 4 7 3 6 4 7 10 8h1c-1-1-3-3-4-7-2-7-4-8-11-8m17 1c1 2 3 4 3 8 2 6 4 7 9 9h1l-3-8c-1-7-4-8-10-9m16 3c2 2 3 4 3 8 2 7 3 8 8 9l1 1-2-8c-1-7-3-8-10-10m21 20v-6a9 9 0 0 1 5-6 204 204 0 0 0-10-3c2 1 3 4 3 7l2 8"/><path fill="#EB1923" d="M464 142a8 8 0 0 1-4 0l-2-3a3 3 0 0 1 1-3l4-2a153 153 0 0 1 57-10c20 0 40 3 57 10l3 2 1 3-2 3h-4l-8-1a188 188 0 0 0-95 0l-8 1z"/><path fill="#1D1D1B" d="M520 124c20 0 40 4 56 11l3 2 1 2-2 2-3 1-8-1a191 191 0 0 0-47-6 194 194 0 0 0-56 7l-3-1-2-2 1-2 3-2a152 152 0 0 1 56-11m0-1c-18 0-39 3-57 11a12 12 0 0 0-3 2c-1 1-2 2-1 4l2 2 4 1a34 34 0 0 0 8-1 194 194 0 0 1 95 0 35 35 0 0 0 8 1l4-1 2-2c1-2 0-3-1-4l-3-2a150 150 0 0 0-58-11z"/><path d="M441 151a199 199 0 0 1 79-16c28 0 54 6 78 16h1l-5 89a74 74 0 0 1-74 70c-40 0-73-31-75-70l-4-89z"/><path fill="#CFAB66" d="M442 152a199 199 0 0 1 155 0l-4 88a73 73 0 0 1-73 68 73 73 0 0 1-74-68l-4-88z"/><path fill="#FFF" stroke="#000" stroke-miterlimit="3.9" stroke-width="1.5" d="M450 156a191 191 0 0 1 70-13c25 0 48 5 70 13v1l-4 83a66 66 0 0 1-66 61 66 66 0 0 1-67-61l-4-83h1m134 3c-20-7-42-11-64-11a186 186 0 0 0-65 11l4 79a61 61 0 0 0 61 57c33 0 59-26 61-56l3-80"/><path fill="#004582" d="M508 266v-12a7 7 0 1 0-14 0v12h-16v-87h7v6h6v6h6v-6h6v-6h7v-7h6v-6h7v6h6v7h7v6h6v6h6v-6h6v-6h7v87h-16v-12a7 7 0 1 0-14 0v12h-23zm16-79h-9v8h9v-8zm0 20h-9v9h9v-9zm0 21h-9v9h9v-9zm-30-12h9v-9h-9v9zm1 21h8v-9h-9v9zm41-21h9v-9h-9v9zm0 21h9v-9h-9v9z"/><path d="M724 277a57 57 0 0 0 4-11c1-7 6-8 5-9l-7 5-3 3a22 22 0 0 1-4 3c-4 3-9 4-16 3a88 88 0 0 0-24-2 91 91 0 0 0-37 13 58 58 0 0 1-10 4 49 49 0 0 1-11-17c-1-5-11-8-22-4-10 2-18 9-16 13v1c1 1 3 2 7 10a95 95 0 0 1-141 0l7-10c2-5-6-12-16-14-11-4-21-1-22 4-2 7-8 14-11 17l-10-4a91 91 0 0 0-37-13c-10-1-15 0-24 1-7 1-12 1-16-2l-4-3-3-3-7-5c-1 1 4 2 5 9l2 5 2 6c2 3 5 6 9 7-8 6-11 3-13 0l-2-3-1-1 1 6c0 2 1 2 3 4 2 3 8 6 12 6h9l8-2a43 43 0 0 1 17-1l13 3 10 5 9 4 9 2c4-1 6-2 8-5l3-4 3-4a28 28 0 0 1 8-6c1-1 6-1 11 1l8 5h-1l-4 7-1 5c2 6 15 19 40 30 15 7 29 9 45 9 17 0 30-2 45-9 26-10 39-24 41-30l-1-5-4-7h-1l8-5c5-2 10-2 11-1a29 29 0 0 1 11 10l3 4c2 3 4 4 8 5l9-2a91 91 0 0 0 9-4l10-5 13-3c6-1 12 0 17 1l8 2h9c4 0 10-3 12-6l3-4 1-6-1 1-2 3c-2 3-5 6-13 0 4-1 7-4 9-7z"/><path fill="#CFAB66" d="M416 289a30 30 0 0 0-7 8l-3 4a9 9 0 0 1-7 5c-6 0-11-3-17-6l-11-5-12-3a44 44 0 0 0-18 1l-8 2h-8c-5-1-10-3-12-6l-2-3c2 3 7 5 15-2l2-2h-3c-2 1-6-2-9-6l-2-6-1-5a19 19 0 0 0-1-3v1l3 3a32 32 0 0 0 4 3c5 3 11 4 17 3a86 86 0 0 1 24-2c11 0 24 6 37 13 8 5 15 6 19 6m3-20c0 3 2 4 4 7a8 8 0 0 1 0 10c6 0 14 2 17 7l4-11c-1-1 0-4 3-3h7l1-3c-4-7-20-13-30-11-2 1-5 2-6 4zm101 75c16 0 29-2 44-9 26-10 38-24 39-29v-4l-5-7a39 39 0 0 1-3-11 69 69 0 0 1-18 18 96 96 0 0 1-115 0 69 69 0 0 1-18-18l-3 11-5 7v4c1 5 13 19 39 29a107 107 0 0 0 45 9m94-79c-10-2-26 4-30 11l1 3h7c3 0 4 2 3 3a34 34 0 0 0 4 11c3-5 11-7 17-7a8 8 0 0 1 0-10c2-2 4-4 4-6s-4-4-6-5zm9 24a30 30 0 0 1 7 9l3 3c2 3 3 4 7 5 6 0 11-2 17-6l11-4a46 46 0 0 1 30-3l8 2h9c4 0 9-3 11-6a12 12 0 0 0 2-3c-2 3-7 5-15-2l-2-2 3 1c3 0 7-3 9-7l2-5 1-6 1-3v1l-3 3-4 3c-5 3-11 4-17 3a86 86 0 0 0-24-2 90 90 0 0 0-37 13c-8 5-15 7-19 6"/><path fill="#FFF" d="M422 277a7 7 0 0 1 0 8c-2 3-6 4-14 2 3-3 8-9 11-15l3 5zm26 3h-1l-2 1c-1 1 0 3 3 7l5-7-5-1zm138 0 5 8c3-4 4-6 3-7l-1-1h-2l-5 1zm31-3a7 7 0 0 0 0 8c2 3 6 4 14 2a52 52 0 0 1-10-15l-4 5z"/><path fill="#004582" d="m459 306-7 11h-1l4 3v-2l3-5 1 8-1 1 4 3v-5l-1-6 7-2 2-1-4-2-1 1-5 2h-1v-1l3-3 1-1h1l-5-3v2m16 8v2l-5 10a2 2 0 0 1-2 2l10 4 2-3h-4l-2-1-1-1 2-4 3 2 1 1h1l1-3v-1h-2l-3-1 2-4 3 2 1 2h1l1-3-1-1-8-3m16 7 1 2-3 11-1 1v1l4 1v-3l2-8 2 11c0 1 0 1 0 0l7-9-2 8-1 2 5 1-1-2 2-11 2-2-4-1-6 8-2-10-4-1-1 1m25 3v1l1 1-1 12-1 2h5s1 0 0 0a2 2 0 0 1-1-2l1-5h4c1 0 3-2 3-4 0-1 0-4-5-4l-6-1zm7 3 1 2c0 2-1 2-2 3h-2v-5h3m22-6-1 1-11 2-1-1-1 1 1 3c0 1 0 1 0 0l2-1 3-1 2 11v3l5-1v-1l-2-1-2-12h3l2 1h1l-1-4m5-1 2 1 4 11-1 2 1 1 9-4-1-4-2 3-3 1-1-1-1-4 3-1 2 1v-1l-1-3-1-1-1 2-3 1-1-4 3-1 3 1-2-4-1 1-8 3m30-15v-1l-4 2v1l2 1 4 7-15-3 7 12v2h1l3-2-2-1-4-7 15 2s1 0 0 0l-7-12v-1"/><use xlink:href="#a" width="139.3" height="213.4" x="-70" y="-107" overflow="visible" transform="matrix(1 0 0 -1 386 171)"/><use xlink:href="#a" width="139.3" height="213.4" x="-70" y="-107" overflow="visible" transform="rotate(180 326 85)"/><path fill="none" stroke="#FFF" stroke-miterlimit="3.9" stroke-width=".5" d="M233 201a13 13 0 0 0-8-6 31 31 0 0 0-10-2 51 51 0 0 0-22 6 109 109 0 0 0-26 18c-9 8-19 19-30 33a253 253 0 0 1-42 41 53 53 0 0 1-38 12c-6-1-10-3-14-7a23 23 0 0 1-4-17c1-6 4-13 9-21 6-8 13-17 23-26a152 152 0 0 1 33-23c11-6 19-7 26-6 4 2 6 4 7 6 2 3 2 6 2 9a32 32 0 0 1-3 8l-7 12a159 159 0 0 1-23 24 184 184 0 0 1-21 17 41 41 0 0 1-22 8l-4-1-3-2v-2l-1-1-1 1v2a7 7 0 0 0 3 3l6 1c7 0 15-2 23-6 7-3 15-9 23-16a123 123 0 0 0 30-39 27 27 0 0 0 2-9 17 17 0 0 0-2-10c-1-3-4-5-9-6a35 35 0 0 0-17 0 95 95 0 0 0-22 9 129 129 0 0 0-42 36l-9 17-3 14c-1 8 1 14 4 19 4 4 9 7 16 8 13 2 26-1 41-10a188 188 0 0 0 46-42 394 394 0 0 1 38-43c11-10 22-15 32-15a19 19 0 0 1 8 1c3 1 5 4 7 7l1 2 1 1 2-2v-3z"/><path fill="#EB1923" d="M233 201a13 13 0 0 0-8-6 31 31 0 0 0-10-2 50 50 0 0 0-22 6 109 109 0 0 0-26 18c-9 8-19 19-30 33a253 253 0 0 1-42 41 53 53 0 0 1-38 12c-6-1-10-3-14-7a23 23 0 0 1-4-17c1-6 4-13 9-21 6-8 13-17 23-26a152 152 0 0 1 33-23c11-6 19-7 26-6 4 2 6 4 7 6 2 3 2 6 2 9a32 32 0 0 1-3 8l-7 12a157 157 0 0 1-23 24l-21 17a41 41 0 0 1-22 7h-4l-3-2a7 7 0 0 1 0-2l-1-1-1 1v2a7 7 0 0 0 3 3l6 1c8 0 15-2 23-6 7-4 15-9 23-16a123 123 0 0 0 30-39l2-9a17 17 0 0 0-2-10c-1-3-4-5-8-6a35 35 0 0 0-17 0l-23 9c-8 4-16 10-24 17a124 124 0 0 0-18 19l-9 17-3 14c-1 8 1 14 4 19 4 4 10 7 17 8 12 2 26-1 40-10a188 188 0 0 0 46-42 394 394 0 0 1 38-43c11-10 22-15 32-15l8 1c3 1 5 3 7 7l1 2 1 1 2-2a5 5 0 0 0 0-3"/><path fill="none" stroke="#FFF" stroke-miterlimit="3.9" stroke-width=".5" d="M178 248c1 0 1 1-1 3a37 37 0 0 1-15 11l-6 2a120 120 0 0 1 17-15l5-1zm1-2c-2-1-4-1-8 1a85 85 0 0 0-26 16 46 46 0 0 0-9 12 21 21 0 0 0-2 7c0 3 0 5 2 6l5 2c3 0 6 0 9-2l9-4a145 145 0 0 0 18-15v-1a1 1 0 0 0-1 0 39 39 0 0 1-29 19l-6 1c-2-1-2-3-1-5l6-9a89 89 0 0 1 9-10h5a37 37 0 0 0 13-5 23 23 0 0 0 7-7c2-2 1-4-1-6z"/><path fill="#EB1923" d="M178 248c1 0 1 1-1 3a37 37 0 0 1-15 11l-6 2a121 121 0 0 1 17-15l5-1zm1-2c-2-1-4-1-8 1a81 81 0 0 0-26 16 46 46 0 0 0-9 12 21 21 0 0 0-2 7c0 3 0 5 2 6l5 2c3 0 6 0 9-2l9-4a143 143 0 0 0 18-15l-1-1a1 1 0 0 0-1 0 39 39 0 0 1-28 19l-6 1c-2-1-2-3-1-5l6-9a101 101 0 0 1 9-10h5a38 38 0 0 0 13-5c3-2 6-4 7-7 2-2 1-4-1-6"/><path fill="none" stroke="#FFF" stroke-miterlimit="3.9" stroke-width=".5" d="M206 246a20 20 0 0 0-8 2l-12 9-11 11c-6 6-9 11-10 15-2 5 0 7 5 7l7-2a68 68 0 0 0 16-11 169 169 0 0 0 9-8v-1h-1a414 414 0 0 1-17 13 65 65 0 0 1-8 5l-6 2v-4l5-7a432 432 0 0 1 31-31zm11-12-1-3a4 4 0 0 0-3-1 4 4 0 0 0-4 4 4 4 0 0 0 1 3 4 4 0 0 0 6 0 4 4 0 0 0 1-3z"/><path fill="#EB1923" d="M206 246a18 18 0 0 0-8 2l-12 9-11 11c-6 6-9 11-10 15-2 5 0 7 5 7l7-2a69 69 0 0 0 16-11 167 167 0 0 0 9-8v-1h-1a412 412 0 0 1-17 13 64 64 0 0 1-8 5l-6 2v-4l5-7a431 431 0 0 1 31-31zm11-12a4 4 0 0 0-1-3 4 4 0 0 0-3-1 4 4 0 0 0-3 1l-1 3 1 3 3 1a4 4 0 0 0 4-4"/><path fill="none" stroke="#FFF" stroke-miterlimit="3.9" stroke-width=".5" d="M276 217v-2l-4-1c-2 0-6 0-9 2a56 56 0 0 0-13 6 183 183 0 0 0-16 13l-16 15h-6l-5 1h-1l-1 1h11l-14 15a86 86 0 0 0-8 10 14 14 0 0 0-3 8 5 5 0 0 0 4 5h7l10-6a233 233 0 0 0 17-15v-1a1 1 0 0 0-1 0 224 224 0 0 1-17 14l-8 5c-2 1-4 2-6 1s-1-4 3-9a215 215 0 0 1 17-19l8-8h13l1-1a1 1 0 0 0 0-1h-1a46 46 0 0 0-11 0 378 378 0 0 1 33-30l7-3a20 20 0 0 1 6-1h3v1z"/><path fill="#EB1923" d="M276 217v-2l-4-1c-2 0-6 0-9 2a56 56 0 0 0-13 6 268 268 0 0 0-32 28h-6a45 45 0 0 0-6 1l-1 1h11a317 317 0 0 0-14 15 86 86 0 0 0-8 10 14 14 0 0 0-3 8c0 3 1 4 4 5h7l9-6a223 223 0 0 0 18-15v-1a1 1 0 0 0-1 0h-1a236 236 0 0 1-16 14 54 54 0 0 1-8 5c-2 1-4 2-6 1s-1-4 3-9c3-5 9-11 17-19l8-8a106 106 0 0 1 12 0h1l1-1v-1h-1a69 69 0 0 0-11 0 378 378 0 0 1 33-30l7-3a20 20 0 0 1 6-1h3c0 1 0 1 0 0"/><path fill="none" stroke="#FFF" stroke-miterlimit="3.9" stroke-width=".5" d="M847 216h-2a12 12 0 0 0-5 2l-20 10a180 180 0 0 0-17 10v2h1l13-8a42 42 0 0 1 10-4 345 345 0 0 0-23 21l-10 10a34 34 0 0 0-5 9l-1 4 2 2 2-1 2-4a750 750 0 0 1 23-24 353 353 0 0 1 16-16l14-13z"/><path fill="#EB1923" d="M847 216h-2l-3 1-2 1-20 10a192 192 0 0 0-17 10v2h1a133 133 0 0 1 24-12 354 354 0 0 0-24 21 118 118 0 0 0-9 10 34 34 0 0 0-6 9 8 8 0 0 0 0 4l1 2 2-1 2-3a743 743 0 0 1 23-25 364 364 0 0 1 16-16l14-13"/><path fill="none" stroke="#FFF" stroke-miterlimit="3.9" stroke-width=".5" d="M873 224a8 8 0 0 0-2-6l-6-2-7 1-8 5a41 41 0 0 0-9 8l-1 3v2l4-1a65 65 0 0 0 7-9 22 22 0 0 1 4-3l5-3 4-1 3 1 1 3-1 5-6 7a89 89 0 0 1-15 11 40 40 0 0 1-9 5 21 21 0 0 0-6 0h-2a3 3 0 0 0-2 1l1 2h5l4-1v3a26 26 0 0 1-4 10 62 62 0 0 1-15 16l-13 8a33 33 0 0 1-14 4l-7-1a5 5 0 0 1-3-4 11 11 0 0 1 2-7l1-1v-1h-1l-1 1a10 10 0 0 0-4 7 7 7 0 0 0 4 6 17 17 0 0 0 8 3 55 55 0 0 0 36-12 42 42 0 0 0 13-15l2-11a10 10 0 0 0-2-7 50 50 0 0 0 27-13l5-7 2-7z"/><path fill="#EB1923" d="M873 224a8 8 0 0 0-2-6l-6-2-7 1-8 5a42 42 0 0 0-9 8l-1 3v2l4-1a64 64 0 0 0 7-9l4-3 5-3 4-1 3 1 1 3-1 5-6 7a89 89 0 0 1-15 11 40 40 0 0 1-9 5 18 18 0 0 0-8 0 3 3 0 0 0-2 1l1 2a5 5 0 0 0 2 0 47 47 0 0 0 7-1v3a26 26 0 0 1-4 10 62 62 0 0 1-15 16l-13 8a33 33 0 0 1-14 4l-7-1a5 5 0 0 1-3-4 11 11 0 0 1 2-7l1-1v-1h-1l-1 1a10 10 0 0 0-4 7 7 7 0 0 0 4 6 17 17 0 0 0 8 3 55 55 0 0 0 36-12 42 42 0 0 0 13-15l2-11a10 10 0 0 0-2-7 50 50 0 0 0 27-13l5-7a18 18 0 0 0 2-7"/><path fill="none" stroke="#FFF" stroke-miterlimit="3.9" stroke-width=".5" d="M915 222a15 15 0 0 1-4 7 104 104 0 0 1-34 27c-4 2-7 2-8 1s0-3 3-6a273 273 0 0 1 23-23l10-7 7-3 2 2v2zm3 4v-6a6 6 0 0 0-4-4l-10 2a76 76 0 0 0-25 14 57 57 0 0 0-10 11 28 28 0 0 0-4 10 8 8 0 0 0 0 3c0 2 1 3 3 4 3 1 8-1 14-4s13-8 20-15a427 427 0 0 1-17 18l-14 14a135 135 0 0 1-20 14 52 52 0 0 1-17 6c-5 1-9 0-11-1s-3-3-3-5a10 10 0 0 1 2-6l1-1v-1h-2l-1 1-2 3a8 8 0 0 0 4 11 23 23 0 0 0 13 1 73 73 0 0 0 23-7c9-4 18-10 27-18a185 185 0 0 0 13-14 140 140 0 0 0 12-15c4-5 6-10 8-15z"/><path fill="#EB1923" d="m886 268 12-12a141 141 0 0 0 12-15 50 50 0 0 0 8-15 11 11 0 0 0 0-6 6 6 0 0 0-4-4l-10 2a76 76 0 0 0-25 14 57 57 0 0 0-10 11 28 28 0 0 0-4 10v3c0 2 1 3 3 4 3 1 8-1 14-4s13-8 20-15a424 424 0 0 1-26 27l-5 5a136 136 0 0 1-20 14l-17 6c-5 1-9 0-11-1s-3-3-3-5a10 10 0 0 1 2-6l1-1v-1h-2a20 20 0 0 0-3 4l-1 4c0 3 1 5 4 7s8 2 13 1a70 70 0 0 0 23-7c9-4 18-10 27-18l2-2zm29-46a15 15 0 0 1-4 7 104 104 0 0 1-34 27c-4 2-7 2-8 1s0-3 3-6a277 277 0 0 1 23-23l10-7 7-3 2 2v2z"/><path fill="none" stroke="#FFF" stroke-miterlimit="3.9" stroke-width=".5" d="m978 220-2-3a6 6 0 0 0-3-1c-5 0-10 1-15 4l-16 10-21 15-20 15-1 1h1l10-1h11l-10 12a92 92 0 0 0-9 12 14 14 0 0 0-2 6l2 4 2-2 3-4 12-15a211 211 0 0 1 11-13c4 0 8 0 11-2l8-4-1-1v-1a16 16 0 0 1-6 4 32 32 0 0 1-8 1 591 591 0 0 1 36-32v-1h-1l-8 4a185 185 0 0 0-25 18l-11 11h-11l-8 1 15-11 22-15 15-9c5-3 10-4 14-4a6 6 0 0 1 5 2v-1z"/><path fill="#EB1923" d="m978 220-2-3a6 6 0 0 0-3-1c-5 0-10 1-15 4l-16 10-21 15-20 15-1 1h1l10-1h11l-10 12a92 92 0 0 0-9 12 14 14 0 0 0-2 6l2 4 2-2 3-4 12-15a211 211 0 0 1 11-13c4 0 8 0 11-2l8-4-1-1a16 16 0 0 1-6 3l-8 1a591 591 0 0 1 36-32v-1h-1a51 51 0 0 0-8 4 184 184 0 0 0-25 18l-11 11h-11l-8 1 15-11a1131 1131 0 0 1 37-24c5-3 10-4 14-4h3a6 6 0 0 1 2 2"/><path fill="#C5A154" d="M417 391v10h-2a1 1 0 0 0-1 0v1h18l1-1v-5 1l-1 2a4 4 0 0 1-1 1h-4l-4-1-1-2v-10h6l2 1v1l1 1v1-2l1-2v-3h-1l-1 1h-8v-11h6a5 5 0 0 1 2 1l1 1v2h1v-6h-18v1h2l1 1v1l1 2v7m32 1v-11l1-1h2v-1h-12v1h2l1 1 1 1v24l-1 2h-3v1h13l-1-1h-3v-14h15v13a1 1 0 0 1-1 1h-2v1h13l-1-1h-2l-1-1a27 27 0 0 1-1-5v-20l1-1 1-1h2l-1-1h-11l-1 1h3l1 1v11m21 6v5a27 27 0 0 1-1 5h-1l-1 1a1 1 0 0 0-1 0h19v-2l1-2v-2h-1v1l-1 2a4 4 0 0 1-1 1h-7l-1-3v-10h5l2 1 1 1v2l1-1v-6h-1l-1 1h-7v-11h6l2 1v3h1v-5l1-1h-19v1h2l1 1 1 1v9m25 14a10 10 0 0 1-1 2l-1 1h-1l-1 1h10v-1h-3v-3l2-16 1 4 2 3 1 2 1 3 2 3 2 3v2h1l1-2 9-18 3 17v2h-1v1h10v-1h-1a8 8 0 0 1-2 0 2 2 0 0 1-1-1l-1-3-3-25-1-1-1 1-11 23-11-23-1-1-1 1m45 18 4-10 4 10h-7zm9 2 3 9a1 1 0 0 0-1 1h11-1l-1-1-2-1a10 10 0 0 1-2-3l-2-6-3-8-3-6-2-4v-1a1 1 0 0 0-1-1v1l-1 1-10 25-1 2-2 1h-1l-1 1h4a28 28 0 0 1 4 0h3-2l-1-1v-3l2-6h10m24-8v-9l1-1 1-1h2v-1h-12v1h2l1 1v27a1 1 0 0 1-1 0h-2v1h19l1-1v-5 1l-1 1v1l-2 1h-6a3 3 0 0 1-2-1v-8m24 12 4-1a12 12 0 0 0 3-1l3-3a9 9 0 0 0-1-9 22 22 0 0 0-5-5l-1-1a17 17 0 0 1-4-3 4 4 0 0 1 0-2l1-3a5 5 0 0 1 3-1 5 5 0 0 1 5 2v1l1 1v1-1l1-4v-1a21 21 0 0 0-6-1c-3 0-5 0-7 2a7 7 0 0 0-2 5 9 9 0 0 0 1 5l5 5 1 1a12 12 0 0 1 4 3v3l-1 3-4 2a7 7 0 0 1-3-1l-3-3v-3h-1v3a52 52 0 0 0 0 4l1 1 2 1h3M50 442h6l1 1 1 1v1h1v-6l-1 1h-8v-11h6a4 4 0 0 1 2 1h1v3h1v-6H41v1h2l1 1 1 1v21a31 31 0 0 1-1 5 1 1 0 0 1-1 0h-1l-1 1h4a38 38 0 0 1 5 0h4l-1-1h-3v-10m20-2 1 7a9 9 0 0 0 3 4l4 2a19 19 0 0 0 8 0 10 10 0 0 0 8-8v-17l1-2v-1l1-1h2v-1H87v1h2l1 1 1 1v19a7 7 0 0 1-5 6 8 8 0 0 1-3 1l-2-1a7 7 0 0 1-5-4l-1-7v-14l1-1 1-1h1v-1h-8a58 58 0 0 0-4 0v1h2l2 1v15zm9-20h1l1-2-1-1a2 2 0 0 0-1-1l-1 1a2 2 0 0 0-1 1l1 2h1zm8 0h2v-3a2 2 0 0 0-2-1l-1 1a2 2 0 0 0 0 1v2h1m26 6v-1h2a6 6 0 0 1 5 3l1 4a9 9 0 0 1-1 4 5 5 0 0 1-1 2 3 3 0 0 1-1 1h-5v-13zm-5 16v5a27 27 0 0 1 0 5h-1a3 3 0 0 1-1 0l-1 1h12-2l-1-1h-1a32 32 0 0 1 0-5v-6h4l2 2a244 244 0 0 0 5 7 9 9 0 0 0 3 2l1 1h7v-1h-1a10 10 0 0 1-5-2 81 81 0 0 1-4-5l-4-6 4-4a9 9 0 0 0 1-5 6 6 0 0 0-1-3 5 5 0 0 0-2-2 10 10 0 0 0-3-1l-4-1h-12v1h2l2 1v17m35 12 4-1 3-1a8 8 0 0 0 3-7 9 9 0 0 0-1-5l-5-5-1-1a16 16 0 0 1-3-3l-1-2 1-3a5 5 0 0 1 3-1h3l2 1 1 2v2-1l1-4v-2h-1a27 27 0 0 0-5 0c-3 0-5 0-7 2a7 7 0 0 0-2 5 9 9 0 0 0 1 5 19 19 0 0 0 5 5l1 1 4 3v3l-1 3-4 2-3-1a5 5 0 0 1-3-3v-3h-1v3a45 45 0 0 0 0 4l1 1h2l3 1m28-12v5a34 34 0 0 1-1 5h-2l-1 1h13l-1-1h-3v-2l-1-3v-22h5l4 1 1 2v1h1v-6h-26v2l-1 2v1l1 1v-1l1-1a2 2 0 0 1 1-1h3l6-1m27 16 4-10 4 10h-8zm8 2h1l3 8v1h-1v1h10v-1h-2l-1-1a9 9 0 0 1-2-3l-3-6-3-8-3-7-1-3-1-1v-1l-1 1v1l-10 25a9 9 0 0 1-1 2 3 3 0 0 1-2 1h-2v1h3a28 28 0 0 1 4 0h3l-1-1h-1a1 1 0 0 1-1-1v-1l1-1 2-6h9zm-7-23a2 2 0 0 0 2-2l-1-1a2 2 0 0 0-1-1l-1 1-1 1 1 2h1zm8 0h2v-3l-2-1-1 1a2 2 0 0 0 0 1v2h1m33 26-1 4a3 3 0 0 1-2 1h-5l-1-1v-12h2a7 7 0 0 1 2 0l1 1 3 3 1 4zm-9-20v-1h1a4 4 0 0 1 3 1l2 2v6l-1 1-1 1h-4v-10zm-5 16v8l-1 2a3 3 0 0 1-1 0h-1v1h11l6-1a9 9 0 0 0 3-3 8 8 0 0 0 2-4l-2-4a10 10 0 0 0-2-3l-3-2 2-3a6 6 0 0 0 1-6 6 6 0 0 0-3-3l-5-1h-11v1h2l2 1v17m36 0v5a33 33 0 0 1-1 5h-2l-1 1h13l-1-1h-3v-27h5a8 8 0 0 1 3 1l1 2v1h1v-6h-26v2a39 39 0 0 0 0 2v2-1h1v-1l1-1a11 11 0 0 1 3 0h6m30 9v-10l1-1h3v-1h-13v1h2l2 1v25l-1 2a3 3 0 0 1-1 0h-1v1h19v-1l1-1a30 30 0 0 0 0-3v-1h-1v2l-1 1-2 1a20 20 0 0 1-6 0 3 3 0 0 1-1-1l-1-2v-6m21 0v5a28 28 0 0 1 0 5 1 1 0 0 1-1 0 3 3 0 0 1-1 0l-1 1h13l-1-1h-3l-1-2v-24l1-1 1-1h2l-1-1h-11v1h2l1 1v10m34 19h4l3-1 1-1 1-2v-4l-1 1v1a6 6 0 0 1-4 3h-4a13 13 0 0 1-11-6 15 15 0 0 1-2-8l1-5 3-5 3-2a16 16 0 0 1 9 0 8 8 0 0 1 3 2l2 2v3l1-1v-7l-2-1a24 24 0 0 0-5 0h-3l-7 1-5 3a14 14 0 0 0-4 6l-1 5 1 6 4 5 6 4 7 1m26-18h-1v-10l1-1 1-1h2v-1h-12v1h2l1 1v27h-2a1 1 0 0 0-1 1h13l-1-1h-3v-2l-1-3v-9h16v12l-1 2h-2a1 1 0 0 0 0 1h3a37 37 0 0 1 5 0h4v-1h-3l-1-2v-25l1-1h2v-1h-12v1h2l2 1v11m20 6v10a1 1 0 0 1-1 0h-1a1 1 0 0 0-1 1h18l1-1v-5 1a6 6 0 0 1-1 2l-1 1h-4l-4-1-1-2v-10h6a3 3 0 0 1 2 1v2h1v1-4l1-2v-1h-1v1h-9v-11h6l2 1 1 1v2h1v-6h-19l1 1h2l1 1v10m56 11-1 3-2 2h-5l-1-1a8 8 0 0 1 0-3v-9h2a7 7 0 0 1 2 0l1 1 3 3 1 4zm-9-21h1a4 4 0 0 1 3 1l2 2a8 8 0 0 1 0 5l-1 2-1 1h-4v-10zm-5 17v8l-1 2h-2a1 1 0 0 0 0 1h11l6-1a8 8 0 0 0 5-7l-1-4a10 10 0 0 0-3-3l-4-2 3-3a7 7 0 0 0 1-4 6 6 0 0 0 0-2 6 6 0 0 0-3-3l-5-1h-11v1h2l2 1v17m35-16v-1h2a6 6 0 0 1 6 3l1 4-1 4-2 2-1 1h-3l-1-1h-1v-12zm-5 16v9l-1 1h-1a1 1 0 0 0-1 0v1h12v-1h-2l-1-1-1-1v-9h5a47 47 0 0 1 4 6l3 3 2 2 2 1h7l-1-1h-3a10 10 0 0 1-2-2 624 624 0 0 1-9-11l4-4a8 8 0 0 0 1-5 6 6 0 0 0-1-3l-1-2a9 9 0 0 0-4-2h-16l1 1h2l1 1v17m35-1v-1l4-9v-1 1l3 9v1h-7zm8 2h1l3 8v1h-1v1h10v-1h-2a4 4 0 0 1-1-1 9 9 0 0 1-2-3l-3-6-3-8-3-7-1-3-1-1a1 1 0 0 0 0-1l-1 1v1l-10 25-2 2a3 3 0 0 1-2 1h-1v1h3a27 27 0 0 1 4 0h3v-1h-3a1 1 0 0 1 0-1v-1l1-1 2-6h9m18-3 1 7a10 10 0 0 0 7 6 19 19 0 0 0 8 0l5-2a10 10 0 0 0 3-6v-19l1-1 1-1h2l-1-1h-10v1h2l2 1v20l-2 4a7 7 0 0 1-3 2l-3 1-2-1-3-1a7 7 0 0 1-2-3l-1-7v-15l2-1h1v-1h-12v1h2l1 1 1 1v9m38 7v8l-1 2a1 1 0 0 1-1 0h-1a1 1 0 0 0 0 1h18v-1l1-1v-4h-1v3l-2 1h-3l-4-1-1-2v-10h6l1 1 1 1v1l1 1v-7l-1 1h-8v-11h6a5 5 0 0 1 2 1v1l1 1v1-3l1-2v-1h-19v1h2l1 1 1 1v9m32-9v-1h2a6 6 0 0 1 5 3l1 4v4a5 5 0 0 1-2 2l-1 1h-3l-2-1v-12zm-5 16v9l-1 1h-1a1 1 0 0 0-1 0v1h12v-1h-2l-1-1-1-1v-9h5a47 47 0 0 1 3 6l3 3 3 2 2 1h7l-1-1h-3a10 10 0 0 1-2-2 81 81 0 0 1-4-5l-5-6 4-4a9 9 0 0 0 1-5 6 6 0 0 0-1-3 5 5 0 0 0-1-2 10 10 0 0 0-4-2h-11a56 56 0 0 0-4 0h-1l1 1h2l1 1v17m33 0v8l-1 1-1 1h-1l-1 1h19v-2l1-2v-2h-1v1l-1 2-1 1h-4l-3-1-1-2v-10h6a3 3 0 0 1 1 1l1 1v2l1-1v-6h-1v1h-8v-11h5a5 5 0 0 1 2 1l1 1v2h1v-6h-18v1h2l1 1v10m28 7v10a1 1 0 0 1-1 0h-2v1h12v-1h-3a52 52 0 0 1-1-5v-21l1-1 1-1h1v-1h-11v1h2l1 1v10m37 16 9-13 8-14v-1h-21l-1 1v4a12 12 0 0 0 0 1v1-1l1-1 2-2 2-1h11a2352 2352 0 0 1-17 26v2h11a501 501 0 0 0 11 0l1-1a19 19 0 0 0 1-5v-1h-1v2l-1 1-2 1-4 1m17-11 1 7a9 9 0 0 0 2 4l5 2a19 19 0 0 0 8 0 10 10 0 0 0 4-2 10 10 0 0 0 3-6l1-6v-14l1-1h2v-1h-10v1h2l1 1v20a7 7 0 0 1-2 4 8 8 0 0 1-5 2h-3l-2-1-2-3-1-7v-15l1-1h2v-1h-12v1h2l1 1 1 1v9m57 0v-10l1-1h2v-1h-12v1h2l1 1 1 1v21a27 27 0 0 1-1 5h-2a1 1 0 0 0 0 1h-1 13l-1-1h-3v-14 1a57 57 0 0 0 5 5 129 129 0 0 0 6 6 13 13 0 0 0 2 2l3 1h7l-1-1h-1a10 10 0 0 1-4-2 45 45 0 0 1-5-5 214 214 0 0 1-9-9l3-3 3-3 3-3 2-2 2-1a8 8 0 0 1 2 0h1v-1h-9a1 1 0 0 0-1 0v1h1v1l-1 1a164 164 0 0 1-3 4l-4 4-2 2m28 6v5l-1 3v2h-2l-1 1h18l1-1v-3l1-1v-1h-1v1a6 6 0 0 1-1 2l-1 1a6 6 0 0 1-2 0h-2l-3-1-1-2v-10h5l2 1 1 1v2-4l1-2v-1h-1l-1 1h-8v-11h6a5 5 0 0 1 2 1l1 1v2h1v-6h-19v1h3l1 1v10m26 14-1 2-1 1h-2v1c0 1 0 0 0 0h10v-1h-3a1 1 0 0 1-1-1v-2l2-16h1l1 4 2 3 1 2 1 3 2 3 1 3 1 2h1l1-2 9-18 2 17v3h10a1 1 0 0 0-1-1h-2l-1-1-1-3-4-24v-2l-1 1-11 23-11-22v-1l-1-1-1 1m43 19v8l-1 2h-2a1 1 0 0 0 0 1h-1 13l-1-1h-3a28 28 0 0 1 0-5v-22h3l3 2 2 3v3a7 7 0 0 1-3 5l-2 1h-1v1h1c3 0 5-1 7-3s3-4 3-7a6 6 0 0 0-4-6l-6-1h-12v1h2l2 1v10m33 7v5a27 27 0 0 1 0 5h-2a1 1 0 0 0-1 1h13l-1-1h-3v-2l-1-3v-22h5l4 1 1 2v1h1v-6h-25a2 2 0 0 0-1 0v2l-1 2a10 10 0 0 0 0 1v1h1v-2l2-1h2l6-1m25 17v10h-2a1 1 0 0 0-1 1h18l1-1v-5c1 0 1 0 0 0v1l-1 2-1 1h-4l-4-1v-12h5l2 1 1 1v2l1-1v-6h-1v1h-8v-11h5a5 5 0 0 1 3 1v3h1v-3l1-2v-1h-19v1h2l1 1 1 1v9m29-4 2 2a163 163 0 0 0 7 8l5 4 4 4a195 195 0 0 0 3 4h1l1 1v-27l1-2 1-1h1l1-1h-11v1h3l1 1v3l1 18-2-2-4-4-3-4a270 270 0 0 1-12-12l-1-1a1 1 0 0 0-1 0v1l-1 23v4l-1 1a9 9 0 0 1-1 0h-1l-1 1h11v-1h-2l-1-1a10 10 0 0 1-1-3M862 688h-1l1-1a16 16 0 0 0 5-13V496c0-5-2-10-5-13l-1-1h73a52 52 0 0 1 38 14 60 60 0 0 1 16 44 51 51 0 0 1-21 43c3 2 12 8 16 30l10 58a28 28 0 0 0 10 15v2h-49l1-1c1-1 4-5 2-14l-10-56c0-1-3-20-19-20h-25v77c0 7 4 11 6 13v1h-47zm69-122c6 0 12-3 16-7a27 27 0 0 0 8-19c0-16-10-26-24-26h-28v52h28zM144 688l1-1c1 0 5-5 2-16l-7-27H78l-8 27c-3 11 1 16 2 16l1 1H19l2-1s8-5 13-20l50-168c2-7 1-13-1-16v-1h52l-1 1c-1 2-3 6 0 16l50 168c4 15 12 20 12 20l2 1h-54zm-14-75-22-74-21 74h43zm549 22c-14 0-27-4-36-10a37 37 0 0 1-15-31v-99c0-7-3-10-5-12v-1h42v1a14 14 0 0 0-5 12v97c0 6 6 13 19 13s19-6 19-13v-97c0-7-3-10-5-12v-1h42v1c-3 3-5 7-5 12v99a37 37 0 0 1-15 31 61 61 0 0 1-36 10zm-262-1a50 50 0 0 1-37-16 86 86 0 0 1-21-62c2-43 30-76 64-77h1l14 2 11 1c5 0 8 0 12-2h2v54l-1 1v-1c-1-1-9-26-33-26-20 0-33 18-35 48-1 19 3 35 11 43 3 4 8 6 13 6 10 0 15-6 15-16v-25c0-6-3-10-5-11v-1h42v1c-3 3-5 7-5 12v67h-1l-1-1a29 29 0 0 0-13-2l-12 2c-5 1-10 3-21 3zm403-4h-61l1-1a14 14 0 0 0 4-12V495c0-7-3-10-4-12l-1-1h1a103901 103901 0 0 1 74 0l7 1 9 31v1h-2a18 18 0 0 0-13-5h-39v31h32c6 0 10-3 11-5h2v38h-2c-1-2-5-5-11-5h-32v33h44a19 19 0 0 0 13-5h1v1l-12 32h-22zm-494 0h-52v-1c2-2 5-5 5-12V495c0-7-3-10-5-12v-1h42v1c-2 2-5 5-5 12v107h32a19 19 0 0 0 13-5h1v1l-12 31-6 1h-13zm-88 0h-53v-1c2-2 5-5 5-12V495c0-7-3-10-5-12v-1h42v1c-2 2-5 5-5 12v107h32a19 19 0 0 0 13-5h1v1l-12 31-6 1h-13zm330 0 2-1c0-1 4-5 1-14l-4-15h-39l-5 15c-3 9 2 13 2 14l1 1h-48l2-2s7-3 11-16l34-115c2-6 1-11-1-14v-1h46v1c-1 2-3 5-1 14l34 115c4 13 11 17 11 17l3 1h-49zm-9-58-12-40-11 40h23zm22-60v-30h27v30h-27zm-93 0v-30h26v30h-26z"/><path d="M424 480c14 0 14 3 26 3l12-2v52s-8-26-33-26c-23 0-34 22-35 49-2 27 6 50 24 50 9 0 16-5 16-18v-24c0-9-6-12-5-12h40c1 0-5 4-5 13v66s-6-3-13-3h-1c-13 0-14 5-33 5-38 0-58-36-57-77 1-42 29-76 63-76h1m396 3h21l8 32s-5-6-14-6h-40v33h33c9 0 12-6 12-6v37s-3-5-12-5h-33v35h45c8 0 13-6 13-6l-12 32h-81s5-3 5-12V495c0-9-5-12-5-12h59m115 0c35 0 53 25 53 56 0 25-15 40-22 44 0 0 13 3 17 29l11 59c1 10 10 16 9 16h-47s5-3 3-14l-11-56s-2-21-19-21h-25v78c0 10 6 13 5 13h-46s6-3 6-13V496c0-10-6-13-6-13h72m-31 83h28c14 1 25-12 25-26-1-16-10-27-25-27h-28v54m-169-84s-5 3-5 12v99c0 27-23 40-50 40s-50-13-50-40v-99c0-9-6-12-5-12h41s-6 3-6 12v97c0 6 6 14 20 14s20-8 20-14v-97c0-9-6-12-5-12h40m-127 0v28h-25v-28h25m-38 0s-4 3 0 14l34 115c4 13 11 17 11 17h-44s5-4 2-14l-5-16h-40l-5 16c-3 10 2 14 2 14h-44s7-4 11-17l34-115c4-11 0-14 0-14h44m-34 90h24l-12-44-12 44m-22-90v28h-25v-28h25m-198 0c1 0-5 3-5 12v108h33c9 0 13-6 14-6l-12 32h-71s6-3 6-12V495c0-9-6-12-6-12h41m-88 0s-6 3-6 12v108h33c9 0 14-6 14-6l-12 32h-70s5-3 5-12V495c0-9-5-12-5-12h41m-93 0s-5 3-1 16l50 169c5 15 13 19 13 19h-50s5-5 2-16l-8-27H77l-8 27c-3 11 2 16 2 16H22s8-4 12-19l50-169c4-13-1-16-1-16h51M86 614h45l-22-78-23 78m338-135h-1c-35 0-63 34-64 77-1 26 7 49 20 63 10 10 23 15 38 15 11 1 16-1 21-2a45 45 0 0 1 13-3c5 0 10 2 12 3l1 1h1v-1l1-1v-66c0-5 1-9 4-11l1-2-1-1h-43v1l1 2c1 1 4 4 4 10v25c0 10-5 16-14 16-5 0-9-2-13-6-7-8-11-24-10-43a71 71 0 0 1 9-34 28 28 0 0 1 25-14c23 0 31 23 32 26v4l3-4v-55h-2l-1 1-11 2-12-2a59 59 0 0 0-14-1zm396 2h-61l-1 1 1 2c2 1 5 5 5 11v122c0 5-2 9-5 11l-1 2 1 1h61a7641 7641 0 0 0 21 0l2-1 12-32v-2h-3c-4 4-9 5-12 5h-43v-31h31c6 0 9 2 11 4l1 1h1v-40h-1l-1 1c-2 1-5 4-11 4h-31v-29h38c5 0 9 2 12 5h3v-2l-8-32-2-1a224 224 0 0 0-6 0h-15zm114 0h-73v3c4 3 5 7 5 12v178c0 5-1 9-5 12v3h48l1-1-1-2c-2-1-5-5-5-12v-76h25c14 1 17 18 17 19l10 56c2 9 0 12-2 13v3h49l1-1-1-2c-5-5-8-10-9-15l-10-59c-4-20-12-27-16-29 9-6 20-21 20-43 0-18-5-34-16-44a53 53 0 0 0-38-15zm-30 33h27c14 0 23 11 23 26 0 7-3 14-7 19a22 22 0 0 1-16 6h-27v-51zm-170-33h-41l-1 1 1 2c1 1 4 5 4 11v97c0 6-5 13-18 13s-18-7-18-13v-97c0-5 1-9 4-11l1-2v-1h-43l-1 1 1 2c1 1 4 5 4 11v99a38 38 0 0 0 16 31c9 7 22 11 36 11s27-4 36-11a38 38 0 0 0 16-31v-99c0-5 1-9 4-11l1-2-1-1zm-126 0h-27v32h27v-32zm-39 0h-45l-1 1 1 2c1 1 2 4 0 13l-34 114c-4 13-10 17-10 17l-5 3h53l-3-3s-4-4-1-13l4-14h38l4 14c3 9-1 13-1 13l-3 3h54l-5-3s-7-4-11-17l-34-114c-2-9 0-12 1-13v-2l-1-1h-1zm-32 90 10-36 10 36h-20zm-23-90h-27v32h27v-32zm-199 0h-42v1l1 2c1 1 4 4 4 11v122c0 7-3 10-4 11l-1 2v1h1a37935 37935 0 0 0 69 0l3-1 12-32v-2h-3c-4 4-9 5-12 5h-31V495c0-7 2-10 4-11l1-2-1-1h-1zm-88 0h-42l-1 1 1 2c1 1 4 4 4 11v122c0 7-3 10-4 11l-1 2 1 1h1a37935 37935 0 0 0 68 0l3-1 12-32v-2h-1l-1 1c-5 3-9 4-13 4h-31V495c0-7 3-10 5-11v-3h-1zm-93 0H82v3c1 1 4 5 1 15L33 667c-4 15-12 19-12 19l-5 3h59l-3-3s-4-4-2-14l8-27h61l8 27c3 10-2 14-2 14l-3 3h59l-5-3s-7-4-12-19l-50-168c-2-10 0-14 1-15v-3h-1zM88 612l21-70 20 70H88z"/><path fill="#004582" d="m77 621 32-109 31 109H78zm104 60a56 56 0 0 1-5-11l-50-169a37 37 0 0 1-1-11H93l-2 11-50 169a54 54 0 0 1-5 11h25a29 29 0 0 1 1-12l10-32h73l10 32a30 30 0 0 1 1 11h25zm34-191v119h41l-5 14h-54l1-6V495l-1-5h18zm89 0-1 5v114h42l-5 14h-54V490h18zm154 69a25 25 0 0 0-1 6v57a46 46 0 0 0-7-1c-14 0-17 5-33 5-33 0-51-30-50-70s27-68 56-69c13 0 17 3 26 3a42 42 0 0 0 6-1v22a38 38 0 0 0-26-11c-30 0-41 29-42 56-2 25 6 57 31 57 12 0 23-8 23-24v-25l-1-5h18zm68 21 21-75 22 75h-43zm74 42a52 52 0 0 1-4-8l-34-115-1-10h-27l-2 10-34 115a51 51 0 0 1-3 8h20a27 27 0 0 1 1-9l6-21h50l6 21a28 28 0 0 1 2 9h20zM495 504h11v-15h-11v15zm94 0h11v-15h-11v15zm134-15-1 6v99c0 21-18 33-43 34-25-1-44-13-44-34V489h18l-1 6v97c0 11 10 21 27 21s26-10 26-21V489h18zm115 14h-50v45h45v14l-5-1h-40v48h53l-5 13h-65l1-5V495l-1-5h64l4 13zm93 70h-35v-67h35c20 0 31 15 31 34 0 17-12 33-31 33zm58 107a31 31 0 0 1-3-8l-11-59c-4-25-18-28-24-30 12-3 29-19 29-43 0-29-16-50-46-50h-60l1 6v178l-1 7h22l-1-7v-84h33c10 0 22 4 26 24l10 58 1 9h23z"/><path d="M237 665h19l7 1 4 3a10 10 0 0 1 2 5c0 4-2 6-4 7-3 2-5 2-11 2h-17v-18zm0-19h21c2 0 4 0 6 2l1 1c2 2 2 4 2 5v3a7 7 0 0 1-5 4h-25v-15zm20 41c4 0 8-1 11-3 4-3 5-7 5-10 1-5-2-7-4-9l-3-2 2-1 2-2c2-2 2-6 2-6a11 11 0 0 0-3-8c-2-2-5-3-9-4h-30l1 1 1 1v41l-1 1h-1l1 1h26zm60-41h17c5 0 9 1 11 3 3 2 3 4 3 5 0 4-2 6-3 7l-9 1h-19v-16zm23 20 7-2 3-2c3-3 3-7 3-8l-2-7c-4-4-10-5-10-5h-30l1 1v43h-1v1h7l1-1h-1l-1-1v-19h18l11 18v2h-1l1 1h8l1-1h-1l-2-1-12-19zm66-19 11 23h-21l10-23zm4-3 1-1v-1h-9l1 1v1l-19 41-1 1h-1l1 1h7l1-1h-1l-1-1 5-11h24l5 11v1h-1v1h8l1-1h-1l-1-1-19-41zm58 0 1-1 1-1h-9l1 1 1 1v29c0 3 0 7 3 10 3 2 6 4 13 4h4c5 1 11 0 15-3a6 6 0 0 0 2-2c3-3 3-5 3-10v-28l1-1 1-1h-9l1 1 1 1v26l-1 8c-1 4-6 5-13 5l-9-1c-7-2-7-6-7-11v-27zm82 0v-1h1l1-1h-9l1 1 1 1v42h-2l1 1h7l1-1h-1l-1-2v-18h31v19l-1 1h-1l1 1h7v-1l-1-1v-42h1l1-1h-1a66 66 0 0 1-7 0h-1l1 1 1 1v18h-31v-18zm92 3 10 23h-20l10-23zm4-3 1-1v-1h-10l1 1v1l-18 41-1 1h-1l1 1h7v-1h-1v-1l5-11h24l5 11v1h-1v1h8v-1h-1v-1l-19-41zm58 0v-1l1-1h-8v1l1 1v29c0 3 1 7 4 10 2 2 6 4 12 4h5c4 1 11 0 15-3l2-2c2-3 3-5 3-10v-29l1-1h-8l1 1 1 1v26l-1 8c-2 4-7 5-14 5l-9-1c-7-2-7-6-7-11v-27zm116 2-1-1-1 1h-1a38 38 0 0 0-17-5c-8 0-14 3-16 5l-4 3a13 13 0 0 0-2 6 9 9 0 0 0 2 6l1 1a14 14 0 0 0 7 3l15 2 10 1 3 3v4l-4 5-6 2-6 1a28 28 0 0 1-18-6l-1-1v-1a76 76 0 0 1-2 3l-2 3v1h1l1-1 5 3a36 36 0 0 0 30 0l4-3a12 12 0 0 0 2-12c-1-3-3-5-7-6l-8-1h-7l-10-1c-2-1-4-3-4-6 0-4 3-6 5-7a22 22 0 0 1 7-2h3a40 40 0 0 1 12 2 16 16 0 0 1 4 2l1 1-1 1h1l4-6z"/><path fill="#EB1923" d="M207 664c3-4 4-11 4-11s1 7 5 11c-4 4-5 11-5 11s-1-7-4-11zm80 0c4-4 4-11 5-11 0 0 0 7 4 11-4 4-4 11-4 11s-1-7-5-11zm79 0c4-4 5-11 5-11s1 7 5 11c-4 4-5 11-5 11s-1-7-5-11zm71 0c4-4 5-11 5-11s1 7 4 11c-3 4-4 11-4 11s-1-7-5-11zm82 0c4-4 5-11 5-11s1 7 5 11c-4 4-5 11-5 11s-1-7-4-11zm83 0c4-4 5-11 5-11s1 7 4 11c-3 4-4 11-4 11s-1-7-5-11zm71 0c4-4 4-11 4-11s1 7 5 11c-4 4-4 11-5 11 0 0-1-7-4-11zm82 0c4-4 5-11 5-11s1 7 4 11c-3 4-4 11-4 11s-1-7-5-11zm79 0c4-4 5-11 5-11s1 7 4 11c-3 4-4 11-4 11s-1-7-5-11z"/></svg>