<svg xmlns="http://www.w3.org/2000/svg" viewBox="0 0 343.3 138.6"><g fill="#005a9c"><path d="M101 13.7S86.1 13.3 80.2 0c0 0-13.7 15.4-35 20.9l1.4 3.7v49l-4 4.1S26.5 66 25 51.7c-1.4-14.3 1.5-25.2 17.3-38.9 0 0 4.8-4.5 12.8-7.4V3.8C29.6 3.8 0 27 0 54c0 26.8 20.3 42.6 47.2 42.6 0 0 17 .2 29.7-6.7v6.6c0 .6-1 .5-1 .5-3.7 0-6.7 2.4-6.7 5.4 0 3 3 5.4 6.6 5.4 3.7 0 6.6-2.4 6.6-5.4V87.3l4.8-3.7c1.2-1 .2-2.8-1.2-2.3-1.4.4-3.6 1.4-3.6 1.4V19.9s12.4 1.2 18.5-6.2zM76.7 84.1c-21.4 2.4-27-2.4-27-2.4l17.5-14.9V15.6c0-2.3 9.5 3.6 9.5 3.6V84z"/><path d="M128.2 68.7V37.4c0-1.2 2.3-3.8 2.3-3.8-8.7-.9-22.7-7.8-22.7-7.8-7.8 6.6-20.4 7.4-20.4 7.4-.2 1.4 2 4 2 4V68s-1 1-3.2 3.8c-2 2.8-1 2.8-1 2.8 17.6 1.9 24.7 9.2 24.7 9.2A39.6 39.6 0 0 1 131 73.2c-2.1-1-2.8-4.5-2.8-4.5zM114 71c-9.5-2-11.4-4-11.4-4V35c0-.8 11.4 4 11.4 4v32zm105.1-2.3V37.4c0-1.2 2.4-3.8 2.4-3.8a89.1 89.1 0 0 1-22.7-7.8c-7.8 6.6-20.4 7.4-20.4 7.4-.2 1.4 1.9 4 1.9 4V68s-1 1-3 3.8c-2.2 2.8-1 2.8-1 2.8 17.5 1.9 24.6 9.2 24.6 9.2 7.8-8.7 21-10.6 21-10.6-2-1-2.8-4.5-2.8-4.5zM205 71c-9.4-2-11.3-4-11.3-4V35c0-.8 11.3 4 11.3 4v32zm71 .6s-.5.7 0 0zm45.2-.8c-3.3-.4-4.7-4.5-4.7-4.5V30.1c-10.2-3.3-20.1-6.9-20.1-6.9-9.5 5.7-19.7 8.8-19.7 8.8-.2 1.4 1.9 4 1.9 4v32.2l-1.4 2c-.6.6-1 1-1.1 1.4 10.1 1.2 21.3 12.2 21.3 12.2l8.2-8.7 9.2 8.7 11-12.3-4.6-.7zm-18.9-1a68.2 68.2 0 0 0-10.2-6.1v-31a65 65 0 0 1 10.2 4v33.2zM133.5 34.1l12-9.2s7.6 4.5 8.7 6.4c0 0 1.2 1 11-5.5l1.6-1.2s6.1 5.7 11.4 7.1c0 0-1.2 10.5-19.7 5.5 0 0-4-.7-4 1.2v33.4h5.2s-8 4.7-11 9c-2.7 4.2-2.5 3-2.5 3s-1-5.2-11.2-11l-.2-.8h4.8V40.3s-2-6-6-6.2zm136.3-1.4c-5-2-13.2-8.5-13.2-8.5l-1.7 1.1c-9.7 6.4-12.6 6.7-12.6 6.7-1.1-2-9-6.4-9-6.4l-10.6 8c4 .3 5.7 7 5.7 7v31.6h-4.8l.3.8c10.2 5.9 11.3 10.8 11.3 10.8s-.4 1.5 2.4-2.8c2.9-4.2 11-9 11-9h-5.3V38.6l6.2-4.7 4.7 4v33.9h-2.8s10.5 10 11 12c0 0 9.8-11.3 11-11.3h-4.7V37.2s2.3-4 1.1-4.5zm-31 101.1c-1.2.3-2.5.7-3.5-.1-1.2-1-.6-12.2-.8-15 0-1 .4-1.5 0-3.1 0 0-7-2-11.6-6.5a30 30 0 0 1-13.4 8c1 .4 1.4 1.2 1.5 1.7v13c-.1.9-.5 1.3-1.3 1.8 1.7.4 6.4 1.7 11.2 4.6.5.3 4.4-3 6.2-3.4 1 1.4 4.2 4.7 7.3 3.3 1.1-.5 3.3-3 4.4-3.8v-.5zm-19.7-4.4V116l7 3.7v12.4l-7-2.7zm-17.4-19.2c3.1 3 4.7 3.5 8 5-.8 3.7-7.6 4.7-12 2.5-.7-.3-2.3.7-2.3.7V133h2l-6.6 5-5.9-5h2.4v-15.9c-1.2-1.6-3.2-1.1-5.5-.2l6.3-6c2.3-1.9 5.8 4 7.4 4 .7-.2 3.7-3 4.4-3.6.4-.3 1.7-1.2 1.8-1.1zm-63.7-.3c5.2-.8 7.3 5.4 10.2 7.5 2.7-2.2 3.7-6.5 7.8-7.2 1.4-.2 3 .5 3.6 1.3 1.2 1.9 0 4.2-2 2.4-.4-.4-.8-.7-1.6-.5-.8.3-5.7 6.2-5.6 7l.1.1a161.9 161.9 0 0 0 9.5 11.6c2 .4 2.2-2 4.4-1.8.3 2.5-4 7-5.8 7.8-7.6 3-10.3-7.5-14.4-10-.8.5-4.3 4.7-5.3 6.2-.8 1.1-1.5 2.5-2.8 3.2-1.5.8-3.3-.6-4-1.6-.9-1.1-2.8-6 1-4 .7.3 1.8 1 2.7.7.6-.3 6.3-6.7 6.4-7.2l-.1-.8c-.5-1.2-4.8-6.7-6.3-8h-.1c-1.8-.5-2.4 1.9-4.6 1.2 0-1.4.5-2.1 1-3l2.3-3.4c.7-.7 2.3-1.4 3.5-1.5z"/><path d="M175.5 103.3c.2.2.5.1.5.4v6.7h5.5v2.6s-4.1-.3-5.1.3l-.6.4v16.5s1.4 1.2 2 1.2h.4c.8-.1 4-2.2 4.4-.5.1.6-.2 1-.4 1.3-.7 1-10.2 6-10.2 6l-6-5.2c-.5-.4 1.5-2.1 1.5-2.1.3-1.2 0-10.5 0-13.8 0-1 .3-2.4 0-3.3.1-1.2-3.7-1-3.7-1v-2.4c.6-.3 2.7-.1 3.5-.2 0-.5 0-1.9.3-2.4s6.9-4 7.9-4.5zm-74.7-12.7c1-.2 2.6.5 3.5.7 2.6.5 5.5.7 8.2.9 4.6.3 8.8 0 12.8-.6 1.4-.2 3-.7 4.3-.4-.7 1.3-1.4 2-2.3 3.1-.8 1-3.2 4.5-4.4 4.9-.5.1-1 0-1.6 0h-7.8c-1.9 0-4.2-.4-6 0a29 29 0 0 0 0 9.9c1.3-.4 2.2-1 3.3-1.4 3.5-1 8.8 2.2 11.4.3.3-.2.6-.9 1-1 3.3-.6-1.2 6.9-2.5 7.5-2.3 1-6 .6-8.6.2-.9-.2-2.6-.7-3.7-.2-2 .7-1.2 7.2-1.2 10v.3c-.2 1.7 0 2.3-.7 3.3-.4.6-.5 1-.8 1.8 2 0 3.3-.6 5-.7 3-.3 5.8.6 8.2 1 1.8.3 5 .7 6.3-.3 1-.8 1.5-3.5 2.6-4h1.3c.6.2 1.1.7 1 1.5 0 .8-5.6 10.5-6 10.7v.1l-.4.1-1.5.1c-5-.3-10.4-1.9-15.2-2.3-1.7-.2-3.6-.2-5.3 0-1.3 0-6.1 1.6-7 1-1.4-.8.8-2.4 1.2-2.7a5 5 0 0 0 1.6-2c.5-1.6.1-5.2 0-6.6-.4-6.2 0-13.2.1-19.8 0-1.5-.3-3.3.3-4.6.5-1.4 2.5-2.3 3.3-3.6-3.4-1.3-6 3.5-7.7 2-.7-.6-.7-1.1-.1-1.8 1.9-2.2 4-4.1 6-6.3.3-.3.9-1 1.4-1zm236.8-18c.3.1.4.4.4.7 0 .3-.1.6-.4.7h-2v-1.5h2zm-3.2-1.2v6h1.2v-2.3h1.3c.3 0 .6 0 .7.2.1 0 .2.3.2.7v1.1l.2.3h1.3v-.1a.4.4 0 0 1-.2-.4V76c0-.4 0-.8-.2-1a1 1 0 0 0-.6-.4c.3-.1.6-.3.7-.6.2-.3.2-.6.2-.9v-.6l-.4-.5-.6-.4-1-.1h-2.8z"/><path d="M336.4 81.6a6.8 6.8 0 1 0 0-13.6 6.8 6.8 0 0 0 0 13.6zm0-1a5.8 5.8 0 1 0 0-11.6 5.8 5.8 0 0 0 0 11.6z"/></g></svg>