<svg xmlns="http://www.w3.org/2000/svg" xmlns:xlink="http://www.w3.org/1999/xlink" xml:space="preserve" overflow="visible" viewBox="0 0 385.5 385.5"><defs><path id="a" fill="#FFF" fill-rule="evenodd" d="M291.1 147.4v-6c.4-2.5 0-3.8-1-5.5-1.3-1.7-3.7-2-5.8-1.4-1.3 1-3 1.4-3.7 3.7v9.9l10.5-.7zm-10.5 18.4c.3 1.3 1.4 3.4 3.7 3.7a6 6 0 0 0 5.1-1.7c2-1.7 1.7-6.8 1.7-6.8l6.2-.3c-.4 6.8-1 9.1-4.8 12.2-3 1.7-7.5 2.7-10.9 1.3-4.7-1.3-6.8-4.7-7.1-9.5v-25c.3-4.2 2.7-7.2 5.8-9.3 5.7-3 12.9-2 16 3.4 1.3 2 1 4.1.6 7.2v11.9l-16.3 1.3v11.6z" clip-rule="evenodd"/><path id="b" fill="#FFF" fill-rule="evenodd" d="M242.5 153.5c.7 1.4 1.4 3.4 1.4 5.5l-6.1.3c0-2-.7-3.7-2.4-4.8-1-1.3-3.4-1-5.1-.6a6.3 6.3 0 0 0-3.7 5.7c-.4 4.1-.4 7.9 3.4 9.2 4.4-.3 10.2-.7 12.9 3.7 1.7 3.4.6 8.2 1 12.3a16 16 0 0 1-5.4 7.8c-2.8 1.3-6.2 2.7-9.6 2-3.7-.7-7.8-3.7-8.5-10.5l5.5-.3c.3 2 1.3 4.4 3.7 5.4 1 .7 3.4.3 4.8-.3 4.7-2.4 3-7.9 3-12-2.3-5.4-9.8-1.6-12.5-4-4.8-3.4-5.1-9.5-4.5-14.6 1-3 3.4-7.1 6.5-8.5 5.4-2.7 13-1 15.6 3.7z" clip-rule="evenodd"/></defs><path fill="#FFF" fill-rule="evenodd" d="M0 0h385.5v385.5H0V0z" clip-rule="evenodd"/><path fill="#FFF" fill-rule="evenodd" d="M113.4 119.2c0-58 40.4-102.2 91.7-102.2 51.4 0 91.8 44.2 91.8 102.2v235.4c0 6.4-4.7 13.9-12.9 13.9H126.3c-8.2 0-13-7.5-13-14V119.3z" clip-rule="evenodd"/><path fill="#F9CE8F" fill-rule="evenodd" d="M251.2 30.3h-92a86 86 0 0 1 92 0z" clip-rule="evenodd"/><path fill="#F9CE8F" fill-rule="evenodd" d="M160.2 29.6h89.9c6.5 4 12.4 8.7 17.8 14.2H142.4a90.4 90.4 0 0 1 17.8-14.2z" clip-rule="evenodd"/><path fill="#FACD8D" fill-rule="evenodd" d="M143 43.2h124.3c4.2 4.3 8.1 9 11.6 14.2H131.4c3.5-5.2 7.4-10 11.6-14.2z" clip-rule="evenodd"/><path fill="#F9CC8C" fill-rule="evenodd" d="M131.9 56.7h146.5c3 4.5 5.8 9.3 8.1 14.3H123.8c2.3-5 5-9.8 8-14.3z" clip-rule="evenodd"/><path fill="#F9CC8F" fill-rule="evenodd" d="M124 70.3h162.2c2.2 4.6 4 9.3 5.6 14.3H118.5c1.6-5 3.4-9.7 5.6-14.3z" clip-rule="evenodd"/><path fill="#F9CC8F" fill-rule="evenodd" d="M118.7 84h172.9c1.4 4.4 2.5 9 3.4 13.8H115.3c.8-4.8 2-9.4 3.4-13.9z" clip-rule="evenodd"/><path fill="#F9CC8C" fill-rule="evenodd" d="M115.3 97.5H295a119 119 0 0 1 1.8 14h-183c.2-4.8.8-9.5 1.6-14z" clip-rule="evenodd"/><path fill="#F9CA8B" fill-rule="evenodd" d="M113.6 111h183l.3 8.2v5.8H113.4v-5.8c0-2.7 0-5.4.2-8.1z" clip-rule="evenodd"/><path fill="#F9CA8B" fill-rule="evenodd" d="M113.4 124.3h183.5v14.3H113.4v-14.3z" clip-rule="evenodd"/><path fill="#F9CA8B" fill-rule="evenodd" d="M113.4 137.9h183.5v14.3H113.4v-14.3z" clip-rule="evenodd"/><path fill="#F9CA8B" fill-rule="evenodd" d="M113.4 151.5h183.5v14.3H113.4v-14.3z" clip-rule="evenodd"/><path fill="#F9C88B" fill-rule="evenodd" d="M113.4 165.1h183.5v14.2H113.4v-14.2z" clip-rule="evenodd"/><path fill="#F9C88B" fill-rule="evenodd" d="M113.4 178.7h183.5v14.2H113.4v-14.2z" clip-rule="evenodd"/><path fill="#FAC78A" fill-rule="evenodd" d="M113.4 192.2h183.5v14.3H113.4v-14.3z" clip-rule="evenodd"/><path fill="#FAC78A" fill-rule="evenodd" d="M113.4 205.8h183.5v14H113.4v-14z" clip-rule="evenodd"/><path fill="#FAC689" fill-rule="evenodd" d="M113.4 219.4h183.5v13.9H113.4v-13.9z" clip-rule="evenodd"/><path fill="#FAC689" fill-rule="evenodd" d="M113.4 233h183.5v13.9H113.4V233z" clip-rule="evenodd"/><path fill="#F9C48B" fill-rule="evenodd" d="M113.4 246.2h183.5v14.3H113.4v-14.3z" clip-rule="evenodd"/><path fill="#F9C28B" fill-rule="evenodd" d="M113.4 259.8h183.5v14.3H113.4v-14.3z" clip-rule="evenodd"/><path fill="#F9C28B" fill-rule="evenodd" d="M113.4 273.4h183.5v14.3H113.4v-14.3z" clip-rule="evenodd"/><path fill="#F9C28B" fill-rule="evenodd" d="M113.4 287h183.5v14.3H113.4V287z" clip-rule="evenodd"/><path fill="#F9C08A" fill-rule="evenodd" d="M113.4 300.6h183.5v14.2H113.4v-14.2z" clip-rule="evenodd"/><path fill="#F9C08A" fill-rule="evenodd" d="M113.4 314.2h183.5v13.9H113.4v-13.9z" clip-rule="evenodd"/><path fill="#F8BE89" fill-rule="evenodd" d="M113.4 327.8h183.5v13.9H113.4v-13.9z" clip-rule="evenodd"/><path fill="#F8BE89" fill-rule="evenodd" d="M113.4 341.3h183.5v14H113.4v-14z" clip-rule="evenodd"/><path fill="#F8BC88" fill-rule="evenodd" d="M113.4 354.6h183.5c0 6.4-4.7 13.9-12.9 13.9H126.3c-8.2 0-13-7.5-13-14z" clip-rule="evenodd"/><path fill="#2C2B2C" fill-rule="evenodd" d="M185 340.7v-.4h-.2v.4c-.4 0-.4 0-.4.3s.3.7 1 1c.7 0 1.4 0 2-.3 1.4-.4 2.1-1.4 2.8-2 .7-1 1-2.4 1-3.8v-2c0-1 0-1.7-.3-2v-1.4c0-.7 0-1.4.3-2v-2.1h.3v-.3l-.3-.4h-.7l-.7.7v.7h-1.3l-.4-.4h-.3c-.3 0-.3 0-.7.4-.3 0-.3.3-.3.3l-.7 1s-.3.4-.3.7l-1 2c0 .7-.4 1.4-.4 2.4s.3 2 1 2.4c.4.7 1 .7 1.7.3.4 0 .7 0 1-.3.4-.3.4-.7.7-1 .4-.4.4-.4.4-.7.3-.3.3-.7.6-1.4v3.8c0 1 0 2-.6 2.7-.7.7-1.4 1.4-2.4 1.7 0 0-.4.3-.7.3-.3 0-.7 0-.7-.3h-.3v-.3zm3.5-13c.3 0 .7 0 1 .4 0 .3.3.7.3 1.7 0 .3-.3 1-.3 1.7-.3 1-.3 1.7-.7 2.4 0 .6-.3 1-.7 1.3 0 .4-.3.4-.6.7-.7 0-1 0-1.4-.3 0-.4-.3-1-.3-1.7s0-1.4.3-2c0-.8.3-1.4.7-2.1 0-.7.3-1 .7-1.4.3-.3.6-.6 1-.6zm6.1 3.1h1a6 6 0 0 0 2.4-2l1-3c0-.8-.3-1.1-.3-1.4-.4 0-.7-.4-1-.4H196c-.4 0-.7.4-1 .7-.4.3-.7 1-1 2-.4.7-.8 1.4-.8 2-.3.7-.3 1-.3 1.8 0 1.3.3 2.3 1 3 .7.4 1.4.7 2.4.4.7-.4 1.4-1 2-1.7.4-.7.7-1.4.7-2 0-.4-.3-.4-.3 0 0 0-.4 0-.4.3v1c0 .3-.3.3-.3.7-.3.3-.7.3-1 .6 0 .4-.4.4-.7.4-.7.3-1 .3-1.4 0-.3-.7-.3-1.4-.3-2.4zm0-1v-1.4c.3-.3.3-.6.3-1.3.4-.7.7-1.4 1-1.7.4-.4.7-.7 1-.7h.8c.3.3.3.7.3 1.4s-.3 1.7-.7 2.3c-.3 1-1 1.4-1.7 1.7h-.7c0-.3-.3-.3-.3-.3zm5.4.7v.6c0 .3-.3.4-.3.7l.3.4c0 .3 0 .3.4.3 0-.3.3-.3.3-.3V330c0-.3 0-.7.4-1.3V327c.3-.4.3-.7.3-1l.3-1.4c.4 0 .4-.3.4-.3.3 0 .3 0 .7-.4h.3c-.3.7-.3 1.4-.7 2v2.8l.7 1c0 .3.3.3.3.7h1v-.4c.4 0 .4 0 .4-.3.3 0 .3-.3.3-.3v-.4h-.3c0 .4-.3.4-.3.7-.4 0-.4-.3-.4-.7-.3-.3-.3-.7-.3-1v-1.4c0-.6.3-1 .3-1.3s0-.7.4-1c0-.4 0-.7.3-1v-.7s-.3 0-.3-.4h-.7l-.4.4c-.3.3-.3.6-.6.6 0 .4 0 .4-.4.4h-.3v-1.4c0-.3.3-.7.3-.7v-.3s-.3 0-.3-.3h-.4c-.3.3-.3.3-.6.3v1c0 .3-.4 1-.4 1.4 0 0 0 .3.4.3v1.4c0 .4-.4.7-.4 1.3v.7s-.3.4-.3.7v.3c0 .4 0 .7-.4 1.4v.7zm7.5-4.5h1.4l2-2c.7-1 1-2 1-3.4 0-.3 0-.7-.3-1 0-.3-.3-.3-.7-.3h-1.3c0-.4 0-.4-.4-.4v.4c-.7 0-1 .3-1 .6a6 6 0 0 0-1 2c-.4.8-.7 1.1-.7 1.8-.3.7-.3 1.3-.3 2 0 1.4.3 2.4 1 2.7.7.7 1.3.7 2.4.4.6 0 1.3-.7 1.7-1.4.6-.7 1-1.3 1-2v-.4h-.4c-.3 0-.3.4-.3.7s0 .7-.3 1c0 0 0 .4-.4.7l-.7.7c-.3 0-.3.3-.6.3-.7.4-1 0-1.4-.3-.3-.3-.7-1-.7-2zm0-1.3c.4-.3.4-.7.4-1 0-.7.3-1 .3-1.4l1-1.7c0-.3.4-.7.7-.7.3-.3.7-.3 1 0s.4.7.4 1c0 1-.4 2.1-.7 2.8s-1 1.3-1.7 1.7h-.4c-.3 0-.3 0-.6-.4h-.4v-.3zm7.8-4.4v-1c.4-.4.4-.4.4-.7v-.4c0-.3 0-.3-.4-.3h-.6s-.4 0-.4.3c-.3 0-.3.4-.3.4v2c-.4.4-.4.7-.4 1.4v2.7c0 .3.4.7.4.7.3.3.3.7.7.7h1c.4 0 .7-.4.7-.7.3 0 .3-.4.3-.7h-.3l-.4.3v.4h-1v-4.1l.3-.3v-.7zm-.3-5.5-.7.7c-.4.3-.3.7-.3.7 0 .3 0 .7.3.7h.7c.3-.4.3-.4.7-.4 0-.3 0-.3.3-.6v-.4c.4 0 .4 0 .4-.3 0 0-.4 0-.4-.4h-1zm5.1 2.1v-.4s.3-.3.3-1c0-.3 0-.7.4-1.3 0-.7 0-1.4.3-1.7v-2.7h.4v-1.1h-.4s0-.3-.3-.3h-.4c-.3 0-.3.3-.6.3v3.1c-.4 1-.4 1.7-.4 2v1c-.3.7-.3 1-.3 1.4v.3h-.4c-.3 0-.6.4-1 .7 0 .4-.3.7-.3 1l.3 1c0 .4.4.7.7 1v1.4c-.3.4-.3.7-.3 1 0 .7 0 1.4-.4 2.1v1.4c0 .6 0 1.3.4 2l.3 1 .7.7h1c.7-.3 1-1 1.7-2 .3-1 .3-2 .3-3.4V321c0-.4.4-.4.4-.4.3-.3.3-.3.3-.7-.3-.3-.3-.3-.3 0h-.4v.4h-.3v-.4s0-.3-.3-.6c0-.4 0-.7-.4-1 0-.4-.3-1-1-1.4zm-.3 3.4v-1.4c0-.3 0-.7.3-1l.3.3.4.4.3 1c0 .3.4.7.4 1h-1c-.4 0-.4 0-.7-.3zm-.7-3-.4.3v1.3c0 .4 0 .4-.3.4 0 0 0-.4-.3-.7v-1c.3-.4.3-.4.6-.4h.4zm2.4 3.7c0 .6 0 1 .3 1.3v.7l-.3 3c0 .7-.4 1.4-.7 2 0 .4 0 .4-.4.4v.4c-.3 0-.6 0-1-.7 0-.7-.3-1.4-.3-2.4 0-.7 0-1.3.3-2V321c.4 0 .7.3 1 .3s.7 0 1-.3zm4.4-6.5c0-.3.3-.3.3-.7v-2c.4-.4.4-.4.4-.7v-.7s0-.3.3-.3v-.3c0-.4 0-.4-.3-.4h-.7c-.4 0-.4 0-.7.4v1.6l-.3.4v1.7c-.4.3-.4.7-.4 1v.7c-.3 0-.3 0-.3.3h-.4l-.3.4c0 .3.3.3 1 .3-.3.3-.3.7-.3 1v4.1c0 .4.3.7.3.7.4.3.7.3 1 .7.4 0 .7 0 1-.4.4 0 .7-.3 1-.7.4-.3.8-.6.8-1 0-.3-.4-.3-.4-.3s0 .3-.3.3c0 .4 0 .7-.4.7l-.3.3c-.7 0-.7 0-1-.3-.4-.3-.4-.7-.4-1.7v-1.4c0-.7 0-1 .4-1.7v-1l1.3-.7c.4 0 .7-.3 1-.3v-.7h-.3l-2 .7zm-56.1 7.8v.7s0 .3.3.3.4 0 1-.3h.4c.3.3.7.3 1 .3.7 0 1 0 1.7-.3 1.7-.7 3-1.4 4-2.4s1.8-2 1.8-3c0-.4-.3-1-.3-1-.4-.4-1-.7-1.4-.7h-1.7c-.3 0-1 .3-1.7.3.7-.3 1.4-.7 1.7-1 .7 0 1-.4 1.4-1 1-.7 1.7-1.4 2-2 .3-1 .7-1.8.7-2.5 0-1-.4-1.6-1.4-2.3-.7-.7-1.7-1-3-1s-2.8.3-4.5 1a37 37 0 0 0-5 2.7c-1.4 1-2.8 2.4-3.5 3.7a6.3 6.3 0 0 0-1.3 3.8c0 1.3.3 2.3 1.3 2.7 1 .7 2 .7 3.4 0 .7-.4 1-.4 1.7-.7.4-.3.4-.7.4-1h-.4l-.6.7s-.4 0-.7.3c-1.4.3-2.4.3-3 0-1.1-.3-1.4-1.4-1.4-2.4s.3-2 1-3 1.7-2 3-3c1-1.1 2.8-1.8 4.1-2.5 1-.3 2-.7 3-.7h2.8l1.7 1c.3.7.3 1 .3 1.8 0 .6 0 1.3-.3 2-.7.7-1 1.4-1.7 2l-1.4 1c-.3 0-1 .4-1.7.7-.6 0-1 .4-1 .4l-1 .3v-1.7c0-.7.3-1 .3-1.7v-1.7c0-.4.4-.7.4-1v-1l.3-.4c-.3-.3-.3-.3-.3-.6h-.7c-.3.3-.7.3-.7.3v1c-.3 0-.3 0-.3.4v.6c0 .7 0 1.4-.4 2v1.8c0 .3-.3 1-.3 1.7v5.4zm1.7-4h.3v-.4h.7c.4-.3.4-.3.7-.3 0 0 .3 0 .3-.4.4 0 .7 0 .7-.3h.4c1-.4 2-.4 2.7 0 .7 0 1 .7 1 1.3s-.7 1.7-1.4 2.4c-.6 1-1.3 1.4-2.3 2-.7 0-1.4.4-1.7 0-.7 0-1 0-1-.3v-.3c0-.4-.4-.4-.4-.4v-3.3zm15.6-2.8v.7l.4.3c.3.4.6.4 1 .4.3-.4.7-.4.7-.4 0-.3.3-.3.3-.6h-.7v.3h-.7v-4.8c0-.7.4-1 .4-1v-1.3h-1c-.4 0-.7.3-.7.7v2.3c0 .7 0 1-.4 1.7v1l-.6 2c-.4.8-.7 1.1-1 1.1s-.7 0-.7-.3c-.4-.4-.4-1-.4-2v-2.1c0-.7.4-1.4.4-2v-.4s0-.3-.4-.3h-.3c-.4 0-.7.3-.7.3v1s-.3.4-.3.7v3.2c0 1 0 2 .6 2.3.4.4.7.7 1.7.4 0 0 .4-.4.7-.4.4-.3.4-.6.7-1 0 0 .3-.3.3-.7 0-.3.4-.6.4-1h.3zm6.1-10.2c-.3 0-.3 0-.6.4 0 0-.4.3-.4.7-.3.3-.3.6-.3.6-.4.4-.4.4-.4.7 0 0-.3 0-.3.4-.3 1-.7 1.7-.7 2.3-.3.7-.3 1.4-.3 1.7 0 1.4.3 2.4 1 3 .7.4 1.4.8 2.4.4.7-.3 1.3-1 2-1.7a4 4 0 0 0 .7-2v-.3h-.3v.3h-.4v1c0 .3-.3.3-.3.7-.4.3-.7.7-.7 1-.3 0-.7.3-.7.3-.7.4-1.3 0-1.7-.3-.3-.3-.3-1-.3-2V310l1-2.4c0-.3.3-.7.7-1 0-.3.3-.7.7-.7 0-.3.3 0 .3 0 .3 0 .3.4.3.7v1.7c-.3.3-.3.3-.3.7s.3.3.3.7h.7c.4-.4.4-.4.4-.7s0-.4.3-.7v-1c0-.3 0-.7-.3-1 0-.4-.4-.7-.4-.7-.3 0-.3 0-.7-.4h-1v-.3h-.3s-.4 0-.4.3zm6.8 3.7c0-.3.4-.6.4-1 0-.3 0-.6.3-1 0-.6.4-1.3.4-1.3 0-.4.3-.7.3-.7.3 0 .3 0 .3.3v4.8c.4.3.4.7.4 1 .3.3.7.3.7.3.3.4.6 0 1 0 0 0 .3 0 .3-.3h.4c0-.3-.4-.3-.4-.3h-.7v-1c0-.3-.3-.7-.3-1.7V305c0-.7 0-1-.3-1-.4-.4-.4-.4-.7-.4-.4.4-.7.4-.7.4l-.7.7c0 .3-.3.6-.3 1.3-.4.4-.4 1.4-.7 2.4v1s0 .4-.3.7v1.3c0 .4-.4.4-.4.4V308c.4-.7.4-1.7.4-2.4.3-1 .3-1.7.3-2.7.3-1 .3-1.4.3-2 .4-.4.4-.8.4-1.1v-1c0-.3 0-.7.3-.7v-.3c0-.4-.3-.4-.3-.7-.4 0-.7 0-.7.3-.3 0-.7 0-.7.4 0 0-.3.3 0 .3v1c-.3.4-.3 1-.3 1.7 0 1-.4 2-.4 3-.3 1.1-.3 1.8-.3 2.1v1c0 .7-.3 1.4-.3 2v2.1c0 1 0 1.7.3 2.4.3.3.3.3 1 .3 0-.3.4-.3.4-.7.3-.3.3-.6.3-1.3l.3-1V309zm6.8-1.6h.7s0-.4.4-.4c1-.3 1.7-1 2.3-2 .7-1 1-2 1-3 0-.4-.3-.7-.3-1-.3-.4-.3-.4-1-.8h-1.7c-.3.4-.7.4-1 1-.4.4-.7 1-1 1.8s-.7 1.3-.7 2-.4 1.4-.4 2c0 1.4.4 2 1 2.8s1.4.6 2.4.3c.7-.3 1.4-.7 2-1.4.4-.6.8-1.3.8-2v-.3h-.4s-.3.3-.3.6v1l-.4.4-.6.7c-.4.3-.7.3-1 .7-.7 0-1 0-1.4-.4s-.4-1-.4-2zm0-1.4c0-.3 0-.7.4-1.3 0-.4 0-.7.3-1 0-.7.4-1.4.7-1.8.3-.6.7-.6 1-1 .4 0 .7 0 .7.4.3 0 .3.3.3 1 0 1 0 1.7-.6 2.7-.4.7-1 1.4-1.4 1.4-.3.3-.7.3-.7.3-.3 0-.3-.3-.3-.3v-.4h-.4zm11.6-4.4v-1c0-.4-.3-.7-.3-1v-.7c0-.3 0-.7-.4-.7s-.3-.3-.7 0c-.3 0-.3 0-.6.3l-.4.4c-.3.3-.3.7-.7 1 0 .7-.3 1-.3 2 0 .4-.3.7-.3 1v.4c-.4.7-.4 1-.4 1.4v.3s0 .3-.3.7v.7-1.7c0-1 0-1.7.3-2.4v-1.7c0-.4.4-.7.4-1.4v-.3c0-.4 0-.4-.4-.4h-.7l-.3.4v1h-.3v2.4c0 .3 0 1-.4 1.7v2.7c0 .7 0 1 .4 1.4 0 .3.3.3.6 0 .4 0 .7-.4.7-.7.4-.7.4-1.4.7-2.4 0-1 0-2 .3-2.7 0-.7.4-1.4.4-2 .3-.4.3-.4.3-.7.4 0 .4-.4.4-.4.3 0 .3 0 .3.4v4.7c.3.4.3.7.3 1l.7.7h1c.4-.3.7-.3.7-.7h-1v-3.7zm4.4-1c0-.4.4-.7.4-1 0-.4 0-.7.3-1 0-.7.3-1 .3-1.4s.4-.4.4-.7c.3 0 .3 0 .3.3v4.8c.4.3.4.7.4 1 .3.4.6.4.6.4.4.3.7.3 1 0h.4c0-.4.3-.4.3-.4 0-.3-.3-.3-.3-.3l-.3.3c0-.3-.4-.3-.4-.3v-.7c0-.7-.3-1-.3-1.7v-3.4c0-.3 0-.7-.4-1-.3-.4-.3-.4-.6 0-.4 0-.7 0-.7.3-.4 0-.4.4-.7.4l-.3 1.3c-.4.7-.4 1.4-.7 2.4v1c0 .3 0 .7-.4.7v1.7h-.3c0 .3 0 0 0 0v-3.7c.3-.7.3-1.4.3-2.4.4-.7.4-1.7.4-2.7.3-.7.3-1.4.3-2 .4-.4.4-.7.4-1v-1.1c0-.3.3-.7.3-.7v-.3c0-.4 0-.4-.3-.4h-.7c-.4 0-.7.4-.7.4 0 .3-.3.3 0 .7v.6c-.3.4-.3 1-.3 1.7 0 1-.4 2-.4 3.4-.3.7-.3 1.4-.3 1.7v1c0 1-.4 1.7-.4 2.4v1.7c0 1 0 2 .4 2.4s.3.3 1 .3c0 0 .3-.3.3-.6.4-.4.4-.7.4-1.4l.3-1v-1.7zm7.8-8.6c-.3 0-.6.8-1 1.5a3 3 0 0 0-1 2.3c-.3.7-.7 1.7-.7 2.7 0 1.4.4 2.4 1 2.8.7.6 1.4.6 2.4.3s1.7-1 2.4-2a8 8 0 0 0 1-4.1c0-.7 0-1.7-.3-2.4 0-.7-.4-1-.7-1l-.3-.3h-.7c0 .3-.4.3-.4.3h-.3c0-.3-.3-.3-.3-.3s-.4 0-1 .3zm1 .8h1.4c0 .3.4 1 .7 1.7v2c0 1 0 2-.7 3-.3.7-1 1.4-1.7 1.8-.7 0-1 0-1.3-.4s-.4-1-.4-2v-2c0-.4.4-1 .4-1.4.3-.7.3-1.4.6-2 .4-.4.7-.7 1-.7zm5.4 3.7h-.8c-.4 0-.4 0-.4.3 0 .4 0 .4.4.4h1l.3-.4c.4.7.7 1.4 1.4 1.4.3.3.7.3 1.4 0 .3 0 .6-.3 1-.7l.7-.7c0-.3 0-.3-.4-.3h-.3v.3s-.4.4-.4.7c-.3 0-.3 0-.6.4-.4 0-.7 0-1-.4s-.7-.7-.7-1.3l1.3-2.4c.4-.3.7-1.4 1-2 .4-1 .7-2.4.7-3.4.4-1 .4-2.4.4-3.4s0-2-.4-2.4-.7-.7-1.3-.4c-.4 0-1 .4-1.4 1s-.7 1.4-1 2.4a12 12 0 0 0-.7 3.4c-.3 1.4-.3 2.8-.3 4.1v1.4c0 .6.3 1.3.3 2zm1.5-1.4-.4-.3v-1.7c0-1.7 0-3 .4-4.4.3-1.7.6-3 1-4 0-.4.3-.8.3-1.1l.4-.3h.3c0 .3.3.6.3 1.3 0 .4.4 1 .4 1.7 0 1-.4 1.7-.4 2.7a7 7 0 0 1-.6 2.4c0 1-.4 1.7-.7 2 0 .7-.7 1.4-1 2v-.3zm10.1-2.7c0-.3.4-.3.4-.3.3 0 .3-.3.7-.3.3 0 .3 0 .3-.4h-.7c-.3 0-.3 0-.7.4-.3 0-.3.3-.6.3l-.4-.3c-.3 0-.7 0-1 .3.3-.7.7-1 1-1.4 0-.3.4-.6.4-1 .3-.3.6-.7.6-1.3.4-.4.4-.7.4-1s-.4-.7-.7-1c-.3 0-.7 0-1.4.3-.6 0-1 .6-1.7 1-.6.7-1.3 1.3-1.6 2s-.7 1-.7 1.4c-.4.7-.4 1-.4 1.3v.4l.4.3.3-.3v-1.4c0-.4.4-.7.4-.7.6-.6 1-1.3 1.6-1.7.7-.6 1-1 1.7-1 .4-.3.4-.3.7 0 0 0 .4 0 .4.4 0 .3-.4 1-.7 1.7l-1.4 2.3c-.3 0-.7.4-1 .7-.3 0-.3.4-.7.7l-.7.7c0 .3-.3.6-.3.6h.7c0-.3.3-.6.7-1l.6-.6c.4 0 .4-.4.7-.7h.4v-.4h.6s.4 0 .4.4c-.7.3-1 1-1.7 1.3l-1 1.7c-.7 1-1.4 2-1.7 2.7-.4 1-.4 1.7-.4 2.4s0 1 .4 1.4c.3 0 1 .3 1.7 0 .3-.4 1-.7 1.7-1.4.6-.3 1-1.3 1.7-2l1-2.4c0-1 .3-1.7.3-2.4 0-.3 0-.7-.3-1 0-.3 0-.7-.4-.7zm-1 .4c0 .3.4.7.4.7v1c0 .6 0 1.3-.4 2l-1 2.4c-.3.7-1 1-1.4 1.7-.3.3-.6.7-1 .7h-.7v-2.4l1-2c.4-.7.7-1.4 1.4-2a9 9 0 0 1 1.7-2.1zm-43.8-5.8c.3 1 .7 1.7 1 2.4 0 .7.3 1 1 1.3.4.4.7.4.7.4.3.3.7 0 1 0s.4 0 .7-.4v-.3s0-.3 0 0h-.3l-.4.3c-.3 0-.3 0-.7-.3-.3-.3-.3-.7-.6-1 0-.7-.4-1-.4-1.7l-.3-1.4c.3-.3.7-.3 1-.7l1-.3.4-.3.3-.4h-.7l-2 .7v-4.7c0-.7.3-1.4.3-2.4v-1c0-.4 0-.4.4-.4v-.3c0-.4 0-.4-.4-.4 0-.3 0-.3-.3-.3h-1c0 .3-.4.3-.7.3 0 .4-.4.4-.4.7 0 0-.3 0-.3.3v.7c0 .3 0 .7-.3 1v1c-.4.7-.4 1.4-.7 2.1 0 .7-.4 1.4-.7 2.4 0 .7-.3 1-.3 1.7l-.4 1.3-2.7 1c-.3 0-.3 0-.3.4h-.4.4c0 .3.3.3.3 0h.7c.3 0 .3 0 .7-.3h1c-.4.6-.7 1.7-1 2-.4.7-.7 1.4-1 1.7-.7 1-1.4 2-2.4 2.7-.7.7-1.7 1-2.4 1.4-1.4.6-2 .6-2.7.3-.7-.3-1-1-1-2v-1.7c.3-.7.6-1 .6-1.4l.4-.3v-.4h-.4c-.4 0-.7.7-1 1.4s-.3 1.3-.3 2.4c0 1.3.3 2 1.3 2.7 1 .3 2 .3 3.8 0l2.7-2c1-1 1.7-2 2.7-3.4.3-.7.3-1 .7-1.7.3-.4.3-1.4.7-2l.3-.4 1-.4 1-.3h.4zm-2.4 0c0-.3 0-.3.3-.7v-1l1-3.4c.4-.7.4-1.4.4-1.7l.3-1c0-.4.4-1 .4-1.4h.3v1l-.3 1v6.1l-2.4 1.1zm12.9-.3v.3c.4.3.4.3.7.3 0 .4.3.4.7.4.3-.4.7-.4.7-.4.3-.3.3-.3.3-.6h-.7v.3h-.7v-4.8c.4-.6.4-1 .4-1V280h-1c-.3 0-.7.3-.7.6v2.4c0 .7 0 1-.4 1.7v1c-.3 1-.3 1.7-.6 2-.4.8-.7 1.1-1 1.1s-.7 0-.7-.3c-.4-.4-.4-1-.4-2v-2.1c.4-.7.4-1.4.4-1.7v-.4l.3-.3-.3-.3h-.7c-.4 0-.7.3-.7.3v1s0 .4-.3.7v3c0 1.3.3 2 .6 2.3s1 .7 1.7.4c0 0 .4-.4.7-.4.4-.3.4-.6.7-.6 0-.4.3-.7.3-1 .4-.4.4-.7.4-1l.3.3zm5.8-8.2c0-.3 0-.7.3-1v-1.7c.4-.7.4-1.4.4-1.7.3-.3.3-.7.3-1v-1.7h.4v-.7h-.4c0-.3-.3-.3-.3-.3h-.4c-.3 0-.3 0-.6.3v2.7c-.4 1-.4 2-.4 2v.7s-.3.4-.3.7v1.4h-.7l-.7.6c-.4.3-.3.7-.3 1s0 .7.3 1c0 .4.4.8.7 1.1 0 .7-.3 1-.3 1.7v1c0 .7-.4 1.4-.4 1.7v1.7c0 .7 0 1.4.4 1.7 0 .7 0 1 .3 1.4s.3.3.7.3c.3.4.7.4 1 0 .7 0 1-.7 1.4-1.7.3-1 .6-2.4.6-3.7v-1.4c0-.3 0-1-.3-1.7.3-.3.7-.3.7-.7.3 0 .3-.3.3-.3s0-.3-.3-.3c0 0-.4 0-.4.3 0 0-.3 0-.3.3v-.3s-.3-.3-.3-.7 0-.7-.4-1l-1-1.7zm-.7 3.7c.4-.6.4-1 .4-1.3s0-.7.3-1.4v.4c.3 0 .3.3.7.6 0 .4 0 .4.3.7 0 .4 0 .7.4 1-.4.4-.7.4-1 .4s-.7-.4-1-.4zm-.7-3.4v1.7s0 .4-.3.4v.3c0-.3-.3-.3-.3-.7v-1.3h.3c0-.4.3-.4.3-.4zm2.8 4.1v4.8c-.4 1-.4 1.7-.7 2.4 0 0 0 .3-.4.3 0 0 0 .3-.3.3s-.3-.3-.7-.6c-.3-.7-.3-1.7-.3-2.8v-2c.3-.7.3-1.7.3-2.7.4.3.7.3 1 .3h1zM179 260.5h-.7c-.3 0-.3 0-.3.3-.4 0-.7.4-1 .7l-1 1.4c-1.4 1.3-2.1 3-2.8 4.7-.7 2-1 3.4-1 5.1 0 2.4.7 4.1 1.7 5.1 1.3 1 2.7 1 4.7.4a8.8 8.8 0 0 0 3.8-2.4c1-1 1.7-2.4 2.3-4 .4-1.4.7-3.1.7-5.2 0-1 0-2.4-.7-3-.3-1-.6-1.7-1.3-2s-1.7-.4-2.4 0c-1 .3-1.7 1-2.4 1.6-.7 1-1.3 2-1.7 3-.6 1.1-.6 2.5-.6 3.5s.3 2 .6 2.7c.7.3 1.4.7 2.4.3.3-.3.7-.3.7-.6.3 0 .3-.4.3-.7h-.3c0 .3-.4.3-.4.3 0 .4-.3.4-.3.4-1 .3-1.3 0-1.7-.4-.7-.3-.7-1-.7-1.7 0-1 0-2 .4-3l1.3-2.8a7 7 0 0 1 2-1.3c1-.4 2.1 0 2.8 1s1 2.7 1 4.8c0 2-.7 4-1.7 5.4-1 1.7-2.4 3-4 3.7-.7 0-1.4.4-2.1 0-.7 0-1.4-.3-1.7-.7-.7-1-1-2.3-1-4 0-1.7.3-3 .7-4.8.6-1.3 1.3-3 2.3-4.4.4-.7 1-1.4 1.4-1.7.7-.3 1-.7 1.3-1h1.4l.4-.4c0-.3 0-.3-.4-.3h-2zm10.5 11.2V269c0-.4.3-.7.3-1 0-1 .4-1.7.7-2.4l1-1.4c.7 0 1 .4 1.4.7.3.7.3 1.4.3 2.7v1.7c-.3.7-.3 1-.6 1.4-.4.3-.4.7-.7 1 0 .4-.4.4-.7.4-.3.3-.3.3-.7 0 0 0-.3 0-.3-.4h-.4v.4h-.3c0 .3.3.6.7.6h1a8 8 0 0 0 2.4-2.3c.7-1.4 1.3-2.4 1.3-3.8 0-1.3-.3-2.4-1-2.7-.3-.7-1-1-1.7-.7-.7.4-1 .4-1.3 1l-1 1.4c0 .7 0 1-.4 1.4 0 .3 0 1-.3 1.7v1.3l-.4.4v.6-4c0-.7.4-1.7.4-2.8.3-1 .3-2 .3-3 .3-.4.3-1 .3-1.4 0-.3.4-.6.4-.6v-1.7h-1c0 .3-.4.3-.4.3-.3.3-.3.7-.3.7v1.7s0 .3-.4.6v1.1c0 .6 0 1-.3 1.7v1.7c0 .6-.3 1-.3 1.7v4.7c0 .7 0 1 .3 1.4l.3.3h.4l.7-.7c0-.3.3-.6.3-1zm8.2-4.4c.3-.3.6-.3.6-.3h.4c1-.4 1.7-1 2.4-2 .6-1.1 1-2.1 1-3.1 0-.7 0-1-.4-1.4 0 0-.3-.3-.6-.3H199c-.4 0-.7.3-1 .6 0 .4-.3 1-1 2-.4.8-.4 1.4-.7 2.1v1.7c0 1.4.3 2.4 1 3 .4.8 1.4.8 2.4.4.7-.3 1.4-.7 1.7-1.3.7-.7 1-1.4 1-2 0-.4 0-.4-.3-.4-.4 0-.4 0-.4.3 0 .7-.3 1-.3 1 0 .4 0 .4-.3.7-.4.4-.4.7-.7.7-.4.3-.7.3-.7.7-.7 0-1.4 0-1.4-.4-.3-.6-.6-1.3-.6-2zm0-1.4.3-1.3c0-.3.3-.7.3-1.4.4-.7.4-1 .7-1.7.4-.3.7-.7 1-.7h1c0 .4.4.7.4 1.4s-.3 1.7-.7 2.4c-.7 1-1 1.3-1.7 1.7h-1v-.4h-.3zm5.4.7v1.7l.3.4.4-.4c.3 0 .3-.3.3-.3v-.4h-.3v-.3l.3-1v-1.4c.4-.7.4-1.3.4-1.7s0-.7.3-1c0-.3 0-.7.3-1.4l.4-.3s.3 0 .7-.3c0 .6-.4 1.3-.4 2v3.1c0 .3.4.6.4.6l.6.7h.7s.4 0 .4-.3c0 0 .3 0 .3-.4l.3-.3v-.3h-.3c-.3.3-.3.6-.3.6-.4 0-.4-.3-.7-.6v-3.8c.3-.3.3-.7.3-1s.4-.7.4-1c.3 0 .3 0 .3-.4l-.3-.3c-.4-.3-.4-.3-.7-.3h-.4v.3h-.3c0 .3-.3.7-.3.7 0 .3-.4.3-.4.3h-.3c-.4 0-.4-.3-.4-.3v-.4l.4-.3v-1.7h-.7c0 .3-.3.3-.3.3 0 .4 0 .7-.4 1v2.4h.4v.4l-.4.3v1.4c-.3 0-.3.3-.3.7v.6s0 .4-.4.4v1.3l-.3.7zm8.5-3v-1.4c0-.7.3-1 .3-1.4v-1c.4-1 .4-2 .7-2.3.4-.7.7-1 1.4-1.4.3 0 .7 0 1 .7.3.7.7 1.3.7 2.7 0 .7-.4 1-.4 1.7 0 .3-.3 1-.6 1.3 0 .4-.4.7-.4 1-.3 0-.7.4-.7.4h-.6c-.4 0-.4 0-.7-.3h-.4v.3c0 .3 0 .3.4.7h1c1-.7 2-1.4 2.7-2.7a7.2 7.2 0 0 0 .4-6.5c-.7-.3-1.4-.7-2-.3-.4 0-.8.3-1.1.7-.7.6-.7 1-1 1.7-.4.3-.4.6-.4 1.3-.3.3-.3.7-.3 1.7 0 0 0 .3-.3.7v1.3h-.4v-3c0-.4 0-.4.4-.7 0-1 0-1.7.3-2.7 0-1 0-2 .3-3 0-.7.4-1 .4-1.4v-1.4s.3 0 .3-.3v-.4s0-.3-.3-.3h-.7c-.3 0-.3.3-.7.3 0 .4-.3.4-.3.7 0 .4 0 .4.3.4v.3l-.3.3v2.4c-.4.4-.4 1-.4 1.7 0 .4-.3 1-.3 1.7v1.4c0 .6 0 1.3-.3 2v1.4c0 .6 0 1.3.3 1.7v1c0 .3.3.3.3.3.4.4.4.4.7 0 0 0 .4 0 .4-.3.3-.4.3-.7.3-1zm6.8-2.8v2.2h.3s.4 0 .4-.4v-1.7c0-.4.3-1 .3-1.6 0-.7 0-1 .4-1.4v-1c0-.7.3-1 .3-1.7h.7l.3-.4h.4c-.4.7-.4 1-.4 1.7-.3.7-.3 1.4-.3 1.7 0 .7 0 1 .3 1.4 0 .3 0 .7.4 1 0 0 .3.3.6.3 0 .4.4.4.7 0h.4s0-.3.3-.3v-.3l.3-.4c0-.3 0-.3-.3-.3 0 .3 0 .3-.3.3 0 .4 0 .4-.4.4 0 0-.3 0-.3-.4-.4-.3-.4-.6-.4-1.3V257c.4-.3.4-.7.4-1.3 0-.4.3-.7.3-1 0 0 .4-.4.4-1v-.4c0-.4-.4-.4-.4-.4h-1v.4c-.3.3-.3.3-.3.7-.4 0-.4 0-.7.3l-.4-.3v-1.3c.4 0 .4-.3.4-.3v-.4c0-.3 0-.3-.4-.3h-.3c-.3 0-.3 0-.3.3-.4.4-.4.4-.4 1v3.1c0 .3 0 .7-.3 1v.7c0 .3 0 .3-.4.7v.7s0 .6-.3 1.3v.3zm10.6-11.2c-.4 0-.7-.3-.7-.3h-.4l-.7.7c-.3 0-.3.3-.6 1-1.4 2-2 3.7-2 5.4 0 1 .3 2 .6 2.8.7.3 1.4.6 2 .3.7 0 1-.3 1.4-1l1.4-2.4c0 .7.3 1 .6 1.4.4 0 .7.3 1 0h.4c0-.4.3-.4.3-.4v-.3s.4 0 .4-.4h-.7v.4h-.3c0 .3-.4 0-.4-.4-.3-.3-.3-1-.3-1.7 0-.6 0-1.7.3-2.3 0-1 0-1.7.4-2.4v-.4s0-.3-.4-.3h-1c0 .3 0 .3-.3.7l-1-.4zm-.4.7c.3 0 .7 0 1 .4.4 0 .4.3.4 1 0 0 0 .7-.4 1v1.7c0 .7-.3.7-.3 1v.7c-.4.7-.7 1.4-.7 2l-1 1c-.7 0-1 0-1-.6-.4-.4-.7-.7-.7-1.4 0-1 .3-2 .7-3a3 3 0 0 1 1-2.4c.3-.7.7-1 1-1.4zm-1.4-4c-.3 0-.6.3-1 .6 0 .4-.3.7-.3 1s.3.7.3.7c.4.4.7.4 1 .4 0-.4.4-.4.7-.7 0-.4.4-.7.4-1.4 0-.3-.4-.3-.4-.7h-.7zm3.1-1.4c-.3.3-.7.3-.7 1-.3.3-.3.7-.3 1s0 .7.3.7h.7c.3 0 .7-.3.7-.7.3-.3.3-.7.3-1 0-.3 0-.7-.3-.7 0-.3-.4-.3-.7-.3zm7.8 8.5.4.3c0 .4 0 .4.3.7h1l.4-.3c.3-.4.3-.4.3-.7h-.3l-.4.3c-.3.4-.3 0-.3 0-.4-.3-.4-.7-.4-1.3v-2.1c0-.4 0-.7.4-1.3v-2.1h.3l-.3-.3h-.7c-.7 0-.7.3-.7.7v1.3c-.3.4-.3.7-.3 1v1.7c0 .4-.4.7-.4 1.4s-.3 1.4-.6 2c0 .4-.4.7-.7.7-.4.4-.7 0-1-.3 0-.4-.4-1-.4-2 0-.7 0-1.4.4-2.1 0-.7 0-1.4.3-1.7v-.7s0-.3-.3-.3h-.7l-.4.3c-.3.4-.3.4-.3.7v2.4c0 .7-.3 1-.3 1v.7c0 1.3.3 2 .6 2.4.4.6 1 .6 1.7.3.4 0 .7-.3.7-.3l.7-.7c.3-.4.3-.7.7-1 0 0 0-.7.3-1v.3zm-66.6 1.6c.7 1 1 1.4 1.7 1.8.3.7 1 .7 1.4 1 .6.3 1.3.3 2 .3s1.4 0 2-.3c.7 0 1-.3 1.7-1 .4-.4.7-.7.7-1v-.4h-.3l-.4.4c0 .3 0 .3-.3.6l-.7.7h-1.7c-.7 0-1-.3-1.7-.7-.3-.3-.7-.3-1-.6-.3 0-.7-.4-.7-.7h.7s.3 0 .3-.4c.7 0 1.4-.6 2-1.3s1.4-1.4 2.1-2.4c.3-.7 1-1.4 1-2 .4-.7.4-1 .4-1.7 0-1.4-.4-2.4-1-3-1-.8-2-1.1-3.1-1.1-1.4 0-3 0-4.8.7a21.8 21.8 0 0 0-8.5 6.4 9.6 9.6 0 0 0-1.3 4c0 1.1.7 1.8 1.3 2.1 1 .4 2 .4 3.4 0 .7-.3 1.4-.6 1.7-1 .4 0 .7-.3.7-.7h-.3c-.4.4-.7.4-.7.4-.3.3-.7.3-1 .7-1.4.3-2.4.3-3 0-1.1-.4-1.4-.7-1.4-1.7s.3-2 1-3.1a6.7 6.7 0 0 1 3-3 17.6 17.6 0 0 1 7.5-3.1c1-.4 2 0 2.7 0 .7.3 1.4 1 1.7 1.3.4.7.4 1.4.4 2.4s-.4 2.4-1 3.4-1.7 2-3.1 2.4c-.3 0-.7.3-1 0-.4 0-.4-.3-.7-.7v-.3h-.7s0 .3-.3.3c0 0-.4.4-.4.7h-.3c.3-.7.3-1.4.3-1.7V251c0-.7 0-1 .4-1.7v-1c.3-.4.3-1 .6-1.7v-.4s-.3 0-.3-.3c-.3 0-.7 0-1 .3 0 0-.4 0-.4.4-.3 0-.3.3-.3.3v.7c0 1-.3 2.4-.3 3.7-.4 1.4-.4 2.8-.7 4.1v5.8h1c.3 0 .7-.4.7-.4.3-.3.3-.3.3-.6 0-.4-.3-.4-.3-.7V255zm13.5-8.8c-.2.4-1 .7-1.3 1.4l-1 2.4c-.3 1-.3 2-.3 2.7 0 1.4.3 2.4 1 3 .3.4 1.3.7 2.4.4.7-.3 1.7-1.4 2.3-2.4.7-1 1-2.4 1-3.7 0-1-.3-1.7-.3-2.4-.3-.7-.7-1.4-1-1.4h-1.4c-.3 0-.3-.3-.3-.3l-1 .3zm.8.7h1.2v.4c.4.3.7.6.7 1.3.4.7.4 1.4.4 2 0 1.4-.4 2.1-.7 3.1-.7 1-1 1.4-1.7 1.7-.7.4-1 0-1.4-.3s-.7-1-.7-2c0-.4 0-1 .4-1.8 0-.6 0-1.3.3-1.7 0-.6.4-1.3.7-1.7l.7-1zm7.4-2v-1c0-.7.4-1 .4-1.4v-1.7c.3 0 .3-.3.3-.3v-.4s0-.3-.3-.3h-.7l-.3.3-.4.4v1.3s0 .4-.3.7v2.3c-.4.4-.4.4-.4.8l-.3.3h-.3l-.4.3c0 .4.4.4 1 .4 0 .3 0 .7-.3 1v4.1c.3.3.3.7.7 1 0 0 .3.3.7.3s.6 0 1-.3c.7 0 1-.3 1.3-.7.4-.3.4-.7.4-1h-.4c-.3.3-.3.7-.6.7 0 .3 0 .3-.4.3-.3.4-.7 0-1-.3 0-.4-.3-.7-.3-1.7 0-.4 0-.7.3-1.4V246l1.4-.3c.3-.4.6-.7 1-.7l.3-.3s0-.4-.3-.4l-.4.4-1.7.3zm5.1 4.4v-2.7c.4-.4.4-.7.4-1 0-1 .3-1.7.7-2.4.3-.7.6-1 1-1.4.7 0 1 .4 1.3.7.4.7.4 1.4.4 2.7v1.7l-.7 1.4c0 .3-.3.7-.7 1 0 .3-.3.3-.7.3 0 .4-.3.4-.6 0 0 0-.4 0-.4-.3h-.3v.3h-.4c.4.4.4.7.7.7h1c1-.3 1.7-1.3 2.8-2.4.6-1.3 1-2.3 1-3.7s-.4-2-1-2.7c-.4-.7-1-1-1.7-.7s-1 .4-1.4 1l-1 1.7c0 .4 0 .7-.4 1v1.7c-.3.4-.3.4-.3.7v1l-.3.4v.3-4.1c.3-.6.3-1.7.3-2.7.3-1 .3-2 .7-3v-1.4c.3-.3.3-.7.3-.7v-1h.4v-.3l-.4-.4h-.7c-.3.4-.6.4-.6.7-.4 0-.4.4-.4.4v3c-.3 0-.3.4-.3.4v1.7c-.4.6-.4 1-.4 1.6v1.7c-.3.4-.3 1-.3 1.7v3.1c0 .7.3 1 .3 1.4 0 0 0 .3.4.3h.3c.4-.3.7-.3.7-.7 0 0 .3-.3.3-1zm7.9-4.1c-.4 0-.4 0-.4.4h-1.3v.3l.3.3c.3 0 .7 0 1-.3h.4c.3.7 1 1 1.3 1.4s1 .3 1.7 0l1-.7c.3-.3.4-.7.4-1v-.4h-.4v.4c-.3.3-.3.6-.6.6l-.4.4c-.7.3-1 0-1.3-.4-.4 0-.4-.6-.7-1.3a9 9 0 0 0 2.7-4.4c.3-1 .3-2 .7-3.4l.3-3c0-1.4-.3-2.1-.7-2.5 0-.6-.6-.6-1.3-.6l-1 1c-.4.7-.7 1.3-1 2.4-.7 1.3-.7 2.3-1 3.7-.4 1.4-.4 2.4-.4 3.7v1.7c.3.4.3 1 .7 1.7zm1-1v-1.7c-.4-.3-.4-.3-.4-.7 0-1.3.4-3 .4-4.4l1-4c.3-.4.3-.4.3-.7l.4-.4h.3l.7 1v2c0 .7 0 1.8-.3 2.5 0 1 0 1.7-.4 2.7-.3.7-.3 1.3-.7 2-.3.7-.6 1-1.3 2v-.3zm7.1-8.8-1.3 1.3-1 2.4c0 1-.4 2-.4 2.7 0 1.4.3 2.4 1 3 .7.4 1.4.8 2.4.4s1.7-1.3 2.4-2.4c.7-1 1-2.3 1-3.7 0-1 0-1.7-.3-2.4-.4-.6-.4-1.3-.7-1.3h-1.7l-.4-.4s-.3.4-1 .4zm1 .7h.4v.3l.3-.3h.4s0 .3.3.3c0 .3.3.7.3 1.4.4.6.4 1.3.4 2 0 1.3-.4 2-.7 3-.3 1-1 1.4-1.7 1.7s-1 0-1.4-.3-.3-1-.3-2v-1.7c0-.7.3-1.4.3-1.7.4-.7.4-1.4.7-1.7l1-1zm10.6-.1v-1.6c-.4-.4-.4-.7-.4-.7 0-.4 0-.7-.3-1h-.7c-.3 0-.3.3-.7.3 0 .3-.3.3-.3.7-.3 0-.3.7-.7 1 0 .3-.3 1-.3 1.7 0 .3-.4.7-.4 1v.7c0 .7-.3 1-.3 1v1l-.3.7v-1.7c0-.7 0-1.3.3-2v-1.7c.3-.7.3-1 .3-1.4 0-.3.4-.3.4-.3v-.4l-.4-.3c-.3 0-.6 0-.6.3h-.7v1.1c0 .3 0 .6-.4 1v3c-.3.7-.3 1-.3 1.7v1c0 .7 0 1 .3 1.4.4.4.4.4.7.4s.7-.4 1-1c0-.4 0-1.4.4-2.4 0-1 0-1.7.3-2.4 0-.7.4-1.4.7-2 0-.4 0-.7.3-.7v-.4h.4c.3 0 .3.4.3.7v1c0 .4-.3.4-.3.7v1c0 .4 0 1 .3 1.4v1c.4.3.4.7.7.7h1c.3 0 .7-.4.7-.4s0-.3-.3-.3h-.4c-.3 0-.3 0-.3-.3V236zm8.1-13.2v.4l-.3.3v2l-.3.7v2.4c0 .3-.4.7-.4 1h-.3c-.4 0-.7-.3-.7-.3h-1.7v.3c-.3 0-.3.3-.3.3l-.4.4c-.7 1-1 1.7-1.3 2.7s-.7 2-.7 3c0 1.4.3 2.1 1 2.8.3.3 1 .7 1.7.3s1.4-.7 1.7-1.3c.3-.7 1-1.7 1-2.8l.7 1.4s.3.3.7.3c.3.4.7.4 1 .4 0-.4.3-.4.3-.4 0-.3.4-.3.4-.3 0-.3 0-.3-.4-.3l-.3.3c-.3 0-.7 0-1-.7v-5.1c0-1 .3-2.4.3-3.7.4-.3.4-.7.4-1v-.7c0-.3.3-.7.3-1.4v-1l.3-.3v-.4c0-.3 0-.3-.3-.3-.3-.3-.3 0-.7 0s-.3 0-.7.3v.7zm-2.3 7.1h.6c.4.4.4.4.4.7.3 0 .3.4.3.4v1c0 .7 0 1.7-.3 2.4 0 1-.4 1.7-.7 2.3 0 .7-.3 1-.7 1.4-.3 0-.3.3-.7.3-.3.4-.6 0-1-.3s-.3-1-.3-1.7V234l1-2c0-.7.3-1 .7-1.4l.7-.7zm6.4 3.1h1c1-.3 1.7-1 2.4-2s1-2 1-3c0-.8 0-1.1-.3-1.5-.3 0-.3-.3-.7-.3h-2c-.4 0-.7.3-1 .7s-.7 1-1 2c-.4.7-.4 1.4-.7 2 0 .7-.4 1-.4 1.8 0 1.3.4 2.3 1 3 .7.4 1.4.7 2.4.4s1.4-1 2-1.7c.7-.7.7-1.4 1-2h-.3c0-.4 0-.4-.3-.4 0 .3 0 .3-.4.7v1c0 .3-.3.3-.3.7-.3.3-.7.3-.7.6-.3.4-.7.4-1 .4-.3.3-1 .3-1.3-.4-.4-.3-.4-1-.4-2zm0-1c0-.7 0-1 .4-1.4 0-.3 0-1 .3-1.3 0-.7.3-1.4.7-1.7s.7-.7 1-.7c.3-.4.7 0 .7 0 .3.3.3.7.3 1.3 0 .7 0 1.7-.7 2.4-.3 1-.6 1.4-1.3 1.7h-1v-.3h-.4zm8.9-2.7h-1.1l-.7-.7v-.7c0-1 0-1.7.4-2.4.3-.7 1-1 1.3-1.3.4 0 .7 0 .7.3.4 0 .4.3.4 1v1.7c.3.4.3.4.6.4 0-.4 0-.4.4-.4l.3-.3v-1.7c0-.3 0-.7-.3-1 0-.4-.4-.4-.7-.4h-.3v-.3h-1.7c-.4 0-.7.3-.7.3-.4 0-.4.4-.7.7s-.7 1-1 1.7c0 .7-.4 1-.4 1.7s.4 1 .7 1.4 1 .6 2 .6h1.4c.4.4.4.7.4.7 0 .7 0 1-.4 1.4s-.7.7-1.3 1h-1.4c-.4 0-.3-.3-.3-.7v-.7h-.4c-.3 0-.3.4-.3.4-.4 0-.4.3-.4.3 0 .7.4 1 .7 1.4.7 0 1.4 0 2-.4 1-.3 1.8-.6 2.4-1.3s1-1 1-1.7c0-.4 0-.4-.3-.7h-.3c-.4-.3-.4-.3-.7-.3H247z" clip-rule="evenodd"/><path fill="#D0D5D7" fill-rule="evenodd" d="M210.2 55.4c0 .3.4.7 0 .7 0 .3-.3.6-.3.6.3 2-.3 3.8-1.4 5.5.7.7 0 1.3-.6 2-.4 2 .6 4-2 5.4 2 .7-1.1 1-.8 1.7.4.4.7.4 1 .4V73c-1.3 0 0 1.4-.6 1.7 0 .7-1.4.7-.7 1.4-1.7 0-3.4.7-4.8 0 .7 0 2 0 3.1-.3-.7-.7-2 0-2.7-.4 0-.3.3-.3.3-.3 1-.4 1.7.3 2.4-.4l1-.3c-1-.3-2 0-2.7-.3.7-.4 2.4 0 2.7-.7 0-.4.4-.7-.3-.7h-1c-.4-1 1-1 1-2 .3-.4 1.3 0 1-.7-1-.4-.3-.7-.7-1 .4 0 .7-.4 1-.4 0-.3 0-.3-.3-.7.7 0 1.7 0 2-.6-.3-.4-2 0-1.7-.7.7-.7 2.4-.4 2-1.4-.3-.3-1 .4-1.6 0 0 0 .3-.3.7-.3-.4-.3-.7-.3-.7-.7 1.3-.3 1.3-1.3 2.4-1.3l.3-.4c0-.3-.7-.3-1.4-.3 0-.7 1.7-1 .4-1.7.3-.4 1.7-.7.7-1.4-1-.3.6-.3.6-.7.4 0 .7-.3.7-.3-.3-.7 0-1.4.7-1.7-.3-.3 0-1 .3-1.4l.7-2.3c.4.6 0 2-.7 2.7zm2.4-1.7v.3h-.3v-.3h.3zm-.3 2V55h1l-1 .7zm.7.7c-.4 0-.4.3-.4.3.4 0 .4.4.7.4 0 .3-1.7 0-1.4.7.7.3 2 .3 1.7 1l-2.7 1c0-1 1-1.7.4-2.4.3-.3.6-.7.3-1 .7.3 1 0 1-.3l.4.3zm1.3 4.4c-.3.4 0 .7-1 1-1-.3-1.7 0-2.4 0-.3-.3 0-.6 0-1.3 1 0 2.4 0 3.4.3zm-.3 2.4c-1.4.3-2.7.3-3.8.7-.3 0-.3-.4 0-.7 1.4.3 2.8-1 3.8 0zm0 1.7h.7c.3.3-.4 1-.7 1-2-.7-3.4 1.4-4.4 0 0-.7.6-.7 1.7-1 1-.3 1.7.3 2.7 0zm.7 2.7c.6 1.4-2.4 0-3.1 1-1 0-1.4-.7-2.7-.7 1.7-1 3.7-.6 5.8-.3zm-29.3 0c.7.3-1.7 1 .4 1.7-.4 0-.4.7-.7.7-.3-.7-.3-1.4 0-2-.7 0 0-.7.3-.4zm54.4.4h-.7c.4 0 .7-.4.7 0zm-56.1.3c0 .3-.3 1-.6 1.3-.4 1 .3 2-.7 3.1 1 .3.3 1 .6 1.7l-.6.3c1 .7.3 1.7 0 2.4 0 .4.3.7.6 1 .4 0 .7 0 1-.3.4.3 1 0 1.8 0 .6 0 2 0 2.3.7-1.6.7-4.7-.7-5 .7-1.7-.4-1.7 1.3-2.4.3 0-.3-.4-.7 0-.7.7.4 1.3-.3 1.7-.7-1-.6 0-1.3-.4-2 .4-.3 0-.7.4-1-1.7-.7 1-1-.7-1.7 0 0 1-.4.3-.7h-.3s0-.3.7-.7c-.7-1.3.3-2.7.6-3.7h.7zm31.6 1.7c-1.3 0-2.3 0-3.7.3-1.4.4-2-.3-3-.3 0-1 2 0 2.7-.7 1.7.7 4-1 4 .7zm24.2 0c-1.7 1.3 0 2.7-.7 4h.3c.3 0 0-.3.4-.6 0 .3.7.3.7.7h-1.4c-2 .6 0 1.7-1 2.3.7 0 .3.4.3.7 0 0-.7 0-.3.4 1 .6 2.4-.7 2.7.3a7 7 0 0 1-3.7 0c.3-.3.3-.7.3-1-1-.4-.3-.7 0-1-.3-1 1.4-2 1-3.1.7-.7-.3-1.4.7-1.7v-1h.7z" clip-rule="evenodd"/><path fill="#D0D5D7" fill-rule="evenodd" d="M184.8 72.7c-.4 0-.4-.3-.4-.3 1-.4-.3-1.7 1-1.4-.3.3-.3 1-.7 1.7zm31.2-1.4c0 .7-.3.7-.7.7-.6 0-1 .4-1.3.4 0 .6 1.3 1 2 1v.3c-1.3.4-2-1-3.4-.3.4 0 .4.3.7.3-.7.7 0 1-.3 1.7 1.7.4 4.4-.3 5.4.7-3 .3-5.8.7-8.5.3-1 0-2.4 0-3.4-.3.7-.7-.3-1.7 1.4-2h2l.7-.4c-.4-1-3.4.4-2.7-1l.3-1c1 0 2 1 2.7 0 1.7.3 3 0 4.4-.4h.7zm-30.2 2.1s-.4.3-.7.3-.7 0-.7-.3h1.4z" clip-rule="evenodd"/><path fill="#D0D5D7" fill-rule="evenodd" d="M216.7 74.4v.3h-.7c0-.3.7-.6.7-.3zm-30.6.3c0 .7-1.3.7-1.3 1-.4 0 0-.3-.4-.6.7 0 1-.7 1.7-.4zm26.2.7c-1 .4-1.4 0-2 0 .6 0 1.3-.7 2 0zm-25.9 1.4c0 .3-.3.7-.6.3-.4 0-1 .4-1.4 0 .3-.7 1.4-.3 2-.3zm25.2 1.3c1-.6 2 0 3 .4.4 0 0 .3 0 .7-1.3 0-3.3.3-4-1-.4 0-.4.3-.4.3 1 .7-1.3 1 0 1.3-.3 0-.3.4-.3.4h-1.4c-.3 0 .4.7-.6 1 1 1 0 2 .3 3 0 .7-.3 1-1.4 1a5.7 5.7 0 0 1-.3-4c-.3-1 .7-2 .3-3 1 .6 1.7-.7 2.4 0 .7-.4 1.7-.4 2.4 0zm29.2.7c0-.3.7 0 1 0s-.3.4-.3.7c-1-.3-1.3-.3-2 0-1-.3-.4-.7 0-1 .3 0 .7.3 1.3.3zm-37 0c.3.7-.7.7-.4 1.4-.3 0-.6 0-1-.4-.3-.6.4-.6 1-1 0 0 0 .4.4 0zm34.7.4c-1 .3-2.4.3-3.4 0 .6-.7 2.3 0 3.4 0zm-49.3.3c-1 .7-3.8.7-5.1 0 0-.3 1-.3 1.7-.3 1 0 2.3 0 3.4.3zm11.8.3s-.3.4-.6.4-1-.7-.4-.7c.7-.3.4.3 1 .3zm4.5 0c-.7.7.3 1.7-1.4 1.7 0-.6 1.4-1.3.7-2 .7-.3.7.3.7.3zm27.9.4c0 .7 1.3.7 1.7 1.3l-.7 2c-1 0 0-1-.7-1.6 1.7-.7-1.4-1-1-1.7h.7zm4.4 1s-.4 0-.4.3h-.3V81c.7-.4.3 0 .7.3zm-55.1 1.4v.3c-1 0-.3-.7-.7-.7.7 0 .4.4.7.4zm22.4.3c0 .3.4.3-.3.7-.3-.4-.3-.7-.3-.7h.6zm-17.6.7c0 .3-.4 1-1.4 1-.7 0-1.3-.3-1.7.3l-.3-1.3c.7.7 1.7 1 2.4.3.3 0 0-.7 1-.3zM229 85c-1.4.6.3 2-1 2.6 1 .4.3.7.3 1-.4 0-1-.3-1-.6s0-.7-.7-.7c0-.3 1.3-.3 1-.7l-.4-.3c-1 .7-1.7-.7-2.3.3-.7-.3-1.7-.3-2.8-.3v-1c1.4.3 2.4 1.3 3.8.6 1-.6 2.4-.6 2-1.3.7-.7 1.4 0 1 .3zm-23.9 0h-.3c-.3-.4-.3-.4 0-.7 0 0 .7.3.3.6zm28.9-.7c.7.6-.3.6-1.3.6-.4-.3.7-.6 1.3-.6zm-30.6.7c-.6.3-1.7 0-2 .3-.3-.4-.7-.4-.3-.7.6.3 2 0 2.3.3zm9.6.6h.3c.3.7-.7.7-1.4.7-1.3-.7-2.3.7-3.4 0 .4-.4.7-1.4 1.7-1 .7 1 2 0 2.8.3zm1.7 0v.7c0-.4-.4-.4-.7-.4l.3-.3s.4.3.4 0zm-9.6 1.4h-.3c-.3-.4-.7-.7-1-.7s-.7.3-1.4 0l-.3-.4h3v1z" clip-rule="evenodd"/><path fill="#D0D5D7" fill-rule="evenodd" d="M207.5 86c-.3.3-.3 1 .4 1.3 1.3-.7 2.3.3 3.4-.3h1v.6c-1.7 1-4.4 1.4-5.5 2.4h-.6c0-1.3 1.7-2.7.3-4h1zm29.9.6c-1 .4-2.7.4-3.4 0v-.3c1.4.3 2.4-.4 3.4 0v.3zm-54.4-.3c-.3.7-1.6.3-2.3 1-1 0-2.7 0-3.8.3.7.7 3 0 3 1h-.6c-1 0-2.7.4-3.7.4l-1 .7c.3.3 1 .3 1.7 0 1.7.3 3.7.3 5.7.3v.4c-3.7 0-7.1.3-10.5.3 0-.3-.3-.3-.3-.3.6-.4 2 0 2-.7-.3-.4-.7-.7-1.4-.7 0-1 2.8-.3 3.4-1.4-1 0-2.3-.6-3.4 0-.3 0-.6 0-.6-.3l.6-1h11.3zm49 0c-.3.3-.7.7-1 .7h-.7l.3-.7h1.4zm-33.7 1.3c-1.7 1.4.7 2.8-.6 4.5h-.4c0 1.3 2.4 3.4-1.3 4-3 .7-3.4 2.8-6.8 2.8-2.8 1.3-4.8-.7-7.5.6-.7-.3-2 0-2-.6.3-1 2.7-.4 3.7-1-1-.7-3 0-3.4-1 .3 0 1-.4 1-.8-.3-.3.7-.3 1.4-.6 1 0 2 0 3 .3.4.7-2.7.7-1.3 1.7h-.4l.4.3c1.3-.3 1-1 2-1.7.7-.3.4-.6 0-1h1.4c1.3-.3.3-1 1.3-1.3l-1.3-.7c1.3-.7 4-.4 4-1.4.7-.3 1.4-.3 2-.7 0-.6-.3-.6-.6-1-1.4 0-2.7 0-3.7-.3.7-1 5 0 4.4-2 .7.3 2 .6 2.4-.4l-.4-.7c.7.4 3-.3 2.7 1zm24.5.7c-.3-.7.7-1 1-1.3l.7.3-1.7 1zm-18.7-1v.3c-.7 0-1-.3-.7-.6.4 0 .4.3.7.3zm-3.7.3c-.4 0-.4.4-1 0l.6-.6.4.6zm34.6-.3c.4.7 1.4 1 1.4 1.7-1.3 0-2.4.3-3.7 0 .3-1.4-3 0-2.4-1.4 1.4 0 2.7-.3 4.8-.3zm-8.8 1s-.3.4-1 .4c-.3-.4.7-1 1-.4zm-23.8 0c-.3.7.7.7.4 1.4.3.3 1.3.7.6 1-1-.3-2 .3-2.7 0h-.3c-.4-.3.7-1 .7-1.7.3-.3.6-.7 1.3-.7zm-3 .7h.3v.3h-.3V89zm15.3 0c-.4 2.4-5.5 3.4-7.2 5.1-2.4 1.7-5.8 2.4-8.1 4-.7 0-1 .4-1.7.4 0-1 2-1.3 3.4-1.7 4.4-2.7 9.1-5 12.9-7.8h.7zm13.6 1h.3c0 .4 0 .4-.3.4-.7.3-.4-.4-1-.7l1-.7c0 .3-.7 1 0 1zm4.4 0c-.7 0-2 .7-2.7-.3.3-.4 2.3-.4 2.7.3zm-11.9.7h-1.4c0-.3-.3-.7.4-1 .6 0 1.3.7 1 1zm3.7-1c0 .3-.3.7-.7.7h-.3c.3-.4.3-.7 1-.7zm-38.7 1.7c-2 0-4.1.3-6.1 0 1.7-.7 3.7 0 6 0zm45.5 0-.3.3h-.7c.3-.3-.3-.3 0-.7.7 0 .7 0 1 .4zm-54.7.3c-1 .7-3 0-4.4 0 1.3 0 3-.7 4.4 0zm39.4.3c.4.4 0 .7.7 1 2.4-.3 2.4 1.1 4.4 1.8 2 1.3 4.1 3 6.5 4 .7 0 .7.4.7.7-1.7-.6-2.8.7-4.8.4-.3-.7-1.7-.7-2.7-.4h-.7c0-.3.7-.6 1.4-.6 0-.7-1.4-1.4 0-1.7-.7-1.7-4.5-.4-5.5-1.7-.7 0-1.3-.4-2-.4.7-1 2.7 0 2.7-1-2-1.4-3.7 1-5.4-.3.6-1.4 2.3.3 3.4-.4-.4-.7-3.4-.7-1.7-1.7 1-.3 2.7-.3 3 .4z" clip-rule="evenodd"/><path fill="#D0D5D7" fill-rule="evenodd" d="M189.2 92h-1c0-.3.6-.3 1-.3v.4zm-9.2.4c-.7.3-1.7 0-2.4-.3.7.3 1.7-.4 2.4 0v.3zm-20 0h-1c.3-.3.6-.3 1 0zm43.8 0c-.7.3-2.4.3-3.4 1v.7h-.4c-.6-1 .7-1.7 1.4-2 .7 0 1.7 0 2.4.3zm-29.9.3c0 .4-1 .4-1.4.4-.3-.7 1-.7 1.4-.4zm-20.4.3c0 1.1-2 .4-2.4 1.4h-1c1-1-.4-1.3 1.3-1.7 1-.3 1.7 0 2 .4zm15.6.4c0 .4-.3.4-.7.4l.4-.7.3.3zm-7.5-.4c-.3.4.4.4.7.8h.4c.3.6-1 .3-1.4.6-.7-.6-1.4.4-2 0-.4-1.3 1.3-.6 1.7-1.3h.6zm69.7.4c0 .4-.7 0-1 .4-.3-.4-.3-.7 0-.7s.7 0 1 .3zm-47.9 0v.4c-1.7 0-2.4.3-4 0 .3-1 2.6-.4 4-.4zm-7.8.7c-.4.3-1.4.3-2.4.7l-1.4-.4c0-1.3 2.8-.3 3.8-.3zm11.2 0c-.4.3-1.7 0-2.4.3.3-.3 1.4-.6 2.4-.3zm-32 .7c.4.7-2 .3-1.3 1.3-1 0-1.4.7-2.4.7-.3-1.3 1-1.7 1.7-2.7.7.3 2.4-.3 2 .7zm-5.1 0c-1.3.7 1.4 1.3-.3 1.7.7.3-.3.7 0 1-1 .3.3 1.7-2.4 1.4 0-1 1.7-1.7 1.4-2.8.7-.3.7-1.3 1.3-1.3zm32 0c-1 .7-3.4.3-4 1.3-1.1.4-2.5 0-3.5.4l-.3-.4c2.7.4 3.4-2 6.8-1 0-.3.7-.3 1-.3zm-23.1.7c-.4.6 1 .3 1.3 1 0 .7-1.3.7-2 1-1-.3-2-1-2.4-1.4l-.3-.3c.3-.7 2.7-1.4 3.4-.3zm56.4.3c0 .3 0 .3-.3.3s-1 0-.7-.3c.3 0 .7-.3 1 0zm-59.1 2.7h.6c.3 0 .4.4.4.7.7.3 2.4 0 2 1-.7.7-2 .4-3 1h-.4c-.3-1-.3-1.7-1-2.7-1.4 0-.3 1.4-1.7 1 0 0-.3-.3-.7-.3h-.7c-1-.7 1.7-.7.7-1.4.7-.3 1.4-.3 2 0 1 0 .7.7 1.8.7zm59.4 1.7c-1-.3-2.3 0-3.4.4-1.7 1.3 2.8 1.3.4 2.7-.4.3.7.6.7 1l-1 .3c2 .7-1.4 1.4 1 1.7.3.7 0 1-.7 1.4 0 0-.4 0-.7.3-.3-.7-1.7-.3-2.4-1-.3-.7 1-1.4-.3-1.7-.4.3-1.4.7-.7 1 .3.4.3 1 0 1.4-1.4-.4-2.7-.4-4-.4-1 0-3.5-.3-4.5.7-.3.4.7.4 1 .7 3.4-1 6.1.7 9.9 0 3-.7 6.8.7 9.8-.3 2.4-.4 4.8.6 7.9.6 0 0 0 .4-.4.4a51 51 0 0 0-8.1-.7c-1.7 1-4.5 0-6.8.3-2.8-.3-5.1 0-7.9 0-2-.6-4.4 0-6.8 0l-.3-.3h.7c-.4-.7-1.7-.7-.7-1.4 2.7-1 4.4-3 7.1-4 .7-1.4 4.1-1.7 5.1-3.4.7-.7 2.8-1 2-1.7 2.1 0 2.1 1.3 3.1 2zm-11.9.4c-1.3.6-2.7-.4-4.4-.4 1.4.4 3.8-.7 4.4.4zm19.4-.4c-.3.4-1 .4-1.7.4l.4-.4h1.3zm2.4.4-1-.4 1 .4zm-79.2 0c-2 .6 1.7 1.3 0 2-.7-.7-2.7-.3-3-1 0-.4.3-.4 0-.7 1.3 0 2 0 3-.3zm85.3.3v6.4c-.3-.3-1-1.3-.3-1.7-.7-1.3.7-3.3-1.4-4 .7 0 1-1 1.7-.7zm-27.5 1.1h-.7c-.3 0-.7-.4-1.4-.4a3 3 0 0 1-2.3 0c.6-1 3 0 4.4 0v.3zm21.7-.8s-.3.4-.6.4c-1-.4-2.8-.4-4.1 0 1.3-.4 3-.4 4.7-.4zm2.4.4-.7-.4h1.7l-1 .4zm-34.7.7c-.6.3.4.6.7.6l-1 .7c.7.3 1 .3 1 .7-.3.3-1 .3-1.3.3 0-.3 0-.3-.7-.7h-1c0-.3 0-.3.3-.6-1 0-1.4-.7-1.4-1.4.4-.3 1-.3 1.4-.3.7.3 1 1 2 .7zm45.9-.7c-1 .6-.3 1.3.7 1.7.4 0 .4-.4.7-.4-.3 0 0-.3.3-.7h1c0 .7 1 .7 2 .7.8 0 1.8-.7 2.5 0v.7c-.7 0-1 .3-1.4 0-.7.7-2 .7-3 .7 0-.4.3-.4.6-.4l-.6-.6c-1.4 1-3.8-.4-4.8.6-.7 0-1.4-.3-2 0 1.7-.3 1-1.7 1.3-2.3 1 .3 2 0 2.7 0zm-52.3.7c-.4.3 0 .6.7.6.3-.3.6 0 1.3 0-.3.7-1 1.4-2 1.7h-.3c0-.3 0-.3-.4-.3-.3-.4-.3 0-.7 0 2.4 1.3-1 2.7.4 4l-.4.4c-1-1 0-2.4 0-3.4-.3-1-1.3-2-3-2s-2.8 1.7-4.4.6l-2.4.4c0 .3.7.3.3.7-1.7 0-.3 1.7-2.4 1.3-1 .4-.6 1.4-2 1.7-.7-.7-2-.3-2-.7 0-1 2 0 2.3-1-1-.3.7-1 .7-1.7-1 0-.7-.7-1-1v-.3c1 .3 3-1.4 2.7.3 0 0 0 .3.4.3.6-.6 2-.3 3-.3h1c.3 0 .4-.3.7-.3l-1-.4c.3-.7 1.4-.7 2-.7 2-.3.7 1.4 3 .7 1.1-.3 1.8-1 3.2-1l.3.3zm40.4 0s0 .3.4.3c.7 0 1-.3 1.3 0 0 .3.4.7 0 1 .7.3-1.3.7 0 1 .4.7-.3 1 .7 1.4-.3.3-1 0-1.3 0-.4-.7-2.4-.7-1.4-1.7-.3-.7-1-.4-1.4-.4-.3 0-.3-.3-.6-.3.3-.3 1.7-.3 1.7-1-.4 0-.7 0-1-.3.3-.7 1 0 1.6 0zm24.8 0h1.7c0 1-2.3 1-3.4 1.3 0 .7-1.3 1.4.4 1.7h-1c-1.7-.3.6-1.4-1.7-1.4.3-.3 2-.3.6-1-2 .4-1.3-.7-2.7-.7.7-.6 1.7.4 2.4.4 1.4 0 2.4-1 3.8-.3zm-82.2 2.7c0 .3.3.3.3.3-1 .3-2 .3-3 .3-.7-1 2.7-1 1-2 .7.3 1-.7 1.7 0-1 .3 0 1 0 1.4z" clip-rule="evenodd"/><path fill="#D0D5D7" fill-rule="evenodd" d="M181.7 104.3c-.3.3-.3.7-1 .7.3-.4.3-1 1-.7zm-8.2.3s-.3.4.4.7h-.7c0-.3-1-1 .3-.7zm17.4.4c.3 1 0 2 .3 3-2-1 1-3.7-3-3 .6-.7 2-.4 2.7 0zm-42.5 1.3c0 .4-.7 1-.7 1.4.3 0 0 .3 0 .7H144c-1.4-1.4-3.4-.4-4.8-.7v.3h-.3l.2-1.9.8.2c.3-.7 1.7-.3 2-.7.7.7 2 0 3 .4.8-.4 1.1-.7 1.1-1 1 .3 1.4.6 2.4 1.3zm5.1-.7c0 .4-.4 1-.7 1-1-.6-1.4-1-1.4-1.6 1.4-.4 1.4.6 2 .6zM193 108c-1.5-.7 1-1.3 0-2.4h.6c0 .7 0 1.7-.7 2.4zm-14.7-2c0 .7 1 1.7-.7 1.7 0 .7 0 1-.7 1.3-.3 0-.6-.6-1.3-.6-.4-.4 0-.4.7-.7l-.4-1.4c.7 0 1.4-.7 2.4-.3zm-13.6.7c0 1-1.4 1.3-2.4 1.7-1.3.3-.7-.7-2-.7-.4.7-2.7 1-1.7 1.7-.4.3-1 .7-1.7.3-1.7-.7-.4-1.7-.4-2.7.7-.3 1.7-.7 2.8-.7.6.7 2.3 0 3 .7.4-.7 2-1.7 2.4-.3zm2.3-.4c-.3.4.4 1-.6 1-.3.4-1 .4-1.4 0 0-.6 1.4-1 2-1zm83.7.7v.7h-2.4c0-.7-.3-1 .3-1.4.7.4 1 .7 2 .7zm-100.3 0c.7.7-1 2 .7 2.7-.3.7.3 1 .3 1.7-1.3.4-1.3-.7-2-1 .3-1-.7-2.4 0-3.4h1zm33.6.7h-.3c-.3-.4 0-.4.4-.4v.4zm67.4 1s-.4.3-.7.3h-.7c0-.3 1-.6 1.4-.3zm-112.2.3c1.4 1 4.4.4 5.4 1.7 1.7 0 3.8.4 4.5 1.7 0 1 1.3 1.7 2.3 2.8-.6 0-1.3-.4-1.7 0 0-1-1.7-1.4-1.7-2.4-1 0-1-1.7-2.3-.7 0 .3 1 .7 1 1-2.4.4-1.7-1.3-3-1.7l-.8.4c1.4.6-2 1 0 1.7-.6 1.7 2 1 3.4 1.3.4 0 .4 0 .7.4-.3.3-1-.4-1.7-.4-1.7.4-3 .7-4.7.4v-1.4c-.7-.3-1-.7-2-.7.6-.7-.8-1 .3-1.3.3 0 1-.4 1-.4.3-.5-.7-.7-1.3-.9v-.7h.3l-.2-.2v-.6c.4-.1.8-.5 1.5-.3l-1 .3zm8.8.4c0 .3 0 .7-.6 1l-.7-1.4c.7-.3 1.3 0 1.3.4zm90.8 0c-1 .3-2.7.3-3.7.3l-1 .4c-.7-.4-.4-.7-.4-1 1.7.6 3.7-.7 5 .3zm6.2 0 .2.3c-.6.7-2-.3-2.7.4-.6-.4-1.7 0-2.3-.4.6-.3 1.7-.3 1.7-.7 1 0 2 .7 3 .4zm-60.2.3c0-.7.6-.3 1.3-.7.7.4 1.7.7 1 1.4-2-.7-5.4.3-7.4-.7-.7.4-.7 1-.4 1.4h2c.4 0 1.4-.7 2 0h4.5c-1 .3-2 1.3-3.4 1.3.7-.3.7-.6 0-1-1.3 0-2.4-.3-3.7-.3-.4.3-1 .3-1.7.7l-1-.7h-1v-.4h1c.4 0 .6-.3.3-.6-.3-.4-1 0-1.7 0 .3-.4 1.7-.4 2.7-.7.4-.4 1 .3 1.7 0 0 .3.4.3.4.7.6-.4 1.7 0 2.3-.4v-.7c.7.4 0 .7 1 .7zm67.2.7c-.3 0-.6-.3-.6-.3h.7v.3zm-45.8.3h-.7c-.3 0-.4-.3 0-.3s.7 0 .7.3zm-52.7 3.1h-.4c0-1 1.7-1.7.4-2.4v-.7c1.3 1 .7 2 0 3.1zm100.3-2c0 .3-.4.3-.7.3 0-.3-.7-.7 0-1 .3.3.3.7.7.7zm-23.5 0c.3.3-1 .3-1.4.6-.3 0-.6-.3-1-.3-2 .7-4.4-.7-5.8 1-1 0-.6-1-1-1.3 0-.4.7 0 1 0 0-.4 1 0 1.4-.4 2.4.4 4.8-.3 6.8.4zm-11.6-.4c.4.4 0 .7-.3 1s-.3.7-1 .7c0-.7-1.4-1 0-1.7.3.4.7 0 1.3 0zm-60.8.7c-.3 0-.7.3-1.4 0l.4-.3c.3 0 .7 0 1 .3zm46.2-.3s.4 0 .7.3c2 0 3.4-.7 5.8-.3.3 0 0 .6.3 1-.7-.4-1.3-.4-1.7 0s-1 0-1.3 0c-.7-1.4-2 0-3.8-.4.4-.3-.3-.6-.3-.6h.3zm10.6 0s.3 0 .6.3c0 0 .7-.3.7 0-1 0-1 1-2.7.7-.3-.4-.3-1.7 1.4-1zm-11.6 0c0 .3 0 .3.3.3-.3.3-.6.3-1 .3 0-.3 0-.6.7-.6zm-22.8.6c-.3 0-.3-.3 0-.3 0 0 .7.3 0 .3zm17.4-.3c0 .3 0 .3-.4.3-.3 0-1.3 0-1-.3.7-.3.7.3 1.4 0zm1.7.7c-1 .3-.4-.4-.7-.4.3 0 1 0 .7.4zm-23.1-.4c.6.7-1.7 1.4 0 1.7h2c-.3 1-2.4.4-2.7 1.7h-1.4c0-.3 1-.6.7-1.3-.7.3-.7-.4-1-.4.3-.6.7-1.7 2.4-1.7zm7.4.4c-1 .7-3 .7-4.4 1.3-.3 0 0-.3 0-.3 1-.7 2.7-1.4 4.4-1zm51.7-.4c-.3.4-1.7.7-1.4 1.4 1 .3 2.8 0 2 1-1.3.4-.6 1.7-2 1.7-1.7-1 .7-2.4-.3-3.4.3-.3 1-.7 1.7-.7zm-74.8 1.1c-1.3 1-2 2-3.7 3h-.7c-.3-1 2.7-1 1.7-2.4.3-.3 2.7-.3 1.7-1 .3-.3 1 0 1 .4zm30.9 0c1 .3 2.4.6 2 1.7-1 .6 1.4 1-.3 1.7-1.3-.4-2.3-1.7-4-1.7 1-.4 2.3-.4 2.7-1-.4-.4-.7 0-1 0 0-.4-.4-.4-.4-.4-1.3 0-1.3.7-2.7.7l-1.4-.4c.7-.3 2.4 0 2.8-.6 1 0 1.7-.4 2.3 0zm9.9.3c-.7 0-.7 1-1.4.3 1 0 .4-.6 0-1 .7 0 1.4.7 1.4.7zm-4.1.7c-.3 0-1 0-.7-.4-.3-.3 0-.6.7-.6v1zm9.5-.7c.4.7-1 1-.6 1.7h-.7v-2c.7 0 1 0 1.3.3zm6.2 0h1.3c-.7.7-2.4 0-3.4.3 0-.3-.7-.6-.7-.6 1 .6 2-.7 2.8.3zm-42.9.7v.3h-.6c0-.3-.7-.3 0-.7.3 0 .3.4.6.4zm-5.7.7c-.4.3-.7 0-1.4 0-1 .3-1.7.6-2.7.6-.7-1.3 1.7-.3 2.4-1 .6 0 1.3 0 1.7.4zm23.1 0c-.7 1.3-2.4 2.3-4.4 2.7-1 .3-1.7 1.3-3.1 1 0-.3 1.4-.3 1.4-1-.7-.4-1.4.3-2.4 0 0-.7 2-.4 2.7-.7 1.4-.3 2-1 3.4-1.4-.7-.3-1-.6-2-.3 1-.3 3-.7 4.4-.3zm26.8.3v.3c-.7 0-1 .4-1.3.4 0-.7-1.4-.7-.7-1 1-.4 1.7 0 2 .3zm-41.1 0-.3.7c-.7 0-.4-.4-.7-.4-.4-.6.7-.6 1-.3zm23.1.3c-.3-.3.3-.3.3-.6v.6h-.3z" clip-rule="evenodd"/><path fill="#D0D5D7" fill-rule="evenodd" d="M181.7 116.2c-.3.3-2 .3-2.7.3.3-.3 1.7-.3 2.7-.3zm-27.2 1-1-.7c.3 0 1 .4 1 .7zm22.1-.7c-.7.7-.7 1.7-1 2.4h-.7v-2c.7 0 1-.7 1.7-.4zm29.6.7c-.4 0-.4.3-.7.3l.3-1h.4v.7zm32.3 0c-.7.3-2-.7-2.4.3 0 0 0 .4.3.4h1.4c-.4 0-1 .3-1.7 0-.7 0-.4-.4-.4-.7l1-.7c.7 0 1 .4 1.8.7zm-50.7-.3c.3 1-1.3 1.3-2.4 1.7a6 6 0 0 1 2.4-1.7zm8.5 1.7c0-.4-.3-1 .3-1.7v1.7h-.3zm49.2.3c-.6 0-1-.3-1.6-.3l1.7-1.4c1.3.3 0 1 0 1.7zm-84.5-1 2.7.3c-1 .4-.7 1.4-1.4 1.7l-1-.7c-1 1.4-2-.3-3.4.4-.3 0-.7.3-1 0 0-.7 1-.7.7-1.4 1-.3 2.3-1.3 3.4-.3zm12.9 1.3c-.7.4-.7-.3-.7-.3 0-.7-.3-1 0-1.7 1 .7 0 1.4.7 2zm61.8-.6c-.3.3-1.7.3-2 0 .3 0 2-.7 2 0zm-81.5.6c-.4 0-.4-.3-.7-.3 0 0 .3-.4.7-.4v.7zm36.3 0h-.3 1-.7zm48.6 0s0 .4-.3.4c0 0-.3 0-.3-.4-.4 0 .3-.3.6 0zm-41.8 1.4c-1 .3-.3.7-.7 1 1 .3 2.8.7 3.8.3 0 .4-.7 0-1 .4-1-.4-2 .3-3.1.3v-3.4c0 .7 1.4.7 1 1.4zm11.6-1c-.4.3.7 1.7-1 1.7-.4 0-.7 0-.7-.4.7-.3 1.3-.7 1.3-1.3h.4zm14.3 1.4h-2.8c0-.8 1.7-.4 2-1 .8 0 .8.6.8 1zm3-.4c-.3.3-1 .3-1.3.3l-.4-1 1.7.7zm-72.7 2.7c.3.7 3.7 1.7 1 2.4-.3.3 0 .3.3.3h.4c.7.7 1.3 1.7 3.4 1.4l2.4-1c1 .3 1 1 .6 1.7h-.6l.6.3c.7 0 1.7.3 2.4-.3-1-.4 0-1.4-1-1.7.3-.4.3-1.4 1.7-1.4.7 1 2.4.7 3.7.3.4-.3 1.4 0 2 0 0 .7.8 1.7 1.4 2.4 2.8 0 4.5-2 7.5-1 .7-.7 1.7-1 2.7-1.4 2.8-.3 2.8 2 4.8 2l.7.4c.3-.3 1-.3 1.3 0 .7.4 1 .4.4.7v.3c-1.7-.6-4.4.7-4.8-.6-1.3.3-3.7.6-5 .3-.4 1-1.8.3-2.5.3h-2c-1 1-4.4-.3-4.4 1.4 2-.3 1.3 1 2.7 1.4.3.6-.7.6-.3 1.3-.4 0-1.4 0-2-.3-1.4 0-.4-1.4-2.1-1.4-.4-.3.3-.7.3-1-1.3-.7-3.4-.7-4.7-1.4-1.4.4-1.4 1-1.7 1.7.3.4.3.4.3.7-1 0-1.7-.7-2.7-.7l-1 1c-1-.3-1-1-2.4-.6.7-.7-.7-1.4-1-1.7-1.7 0-2.4 1-4.1.7.3-.4-.4-.4-.7-.7-.7.3-1.7.3-2 0 .3-.4.3-.7.6-1-1.3-.7-2.3.3-4 0-.4-.4 1-.7 1.3-1 1 0 1.7-.7 2.4-.4l2.7-1c0-.7.4-1 0-1.7-.7.7-1.7 0-2.4 0-1.7.3-1.7 1.7-3.7 1.7 0 .3-.7.3-1 .7h-.4c-.3-.4 0-.7.7-1 2 .3 2.4-1.4 4.1-1.8V120c2.4.7-.3 5.1 4 3.4zm37.4-3.1c.6 0 1 .4 1.7.4 0 0 0 .3-.7.7-1.4-.4-2.7-.7-4 0h-.4c-.7-.7-1.7-.4-2.4 0l-.7.6c-.3-.6-2-.6-2-1.3l1-.7c2.4.3 5 .7 7.5.3zm20.7 0c-1 .7.7.4 1 1h-1.3s0-.3-.4-.3h.4l-1-.7h1.3z" clip-rule="evenodd"/><path fill="#D0D5D7" fill-rule="evenodd" d="M168.1 120.6c.7.7 1 1.3.3 2-1.7-.3-1.7 1-3 .4h-1.7c-2.4-1 2-1.4.3-2.4 1.4 0 3-.7 4.1 0zm6.1.7h-.3c.3.3 2 0 1.7.6-.7.4-1 .4-1.7.4l-.7-.7-1.4.7c-.6 0-.3-.7-1-.7v-.3c1 0 .7-1 2-1 .7.3 1.4.6 1.4 1zm64.8-.1c0-.2-.3-.3-.9-.3.7.4.7-.3 1.4-.3v-.4l1 .5-1.4.5zm-78.7.1c-.7.6-2 .3-3 .6v-.3c1-.3 2-1 3-.3zm-6.5.3c.4 0 .4.3.4.7-.4.3-1 .3-1.4.3l-.3-1.3c.3.3 1 .6 1.3.3zm77.2.7c0 1-2 .7-2.7 1-.4-.7-1.4-.3-1.7-.7l1.7-.7c.6 0 2.7-.6 2.7.4zm-68.3.7c.3.6-1 1-.7 1.7-1 .3-.7 1-1.7 1 0-1.4-3-1.7-3.8-2.7h.7c.4.6 2 .6 3 .3l.4-.7c.4.4 1.4.4 2 .4zm12.9-.4v.4h-1c.3 0 .6-.4 1-.4zm42.8 1.4c.7-.4 1.4 0 1.7 0 0 1-1.7.7-2.4 1-1.3 0-2.7-.7-3.7-.7s-1 .7-1.7 1c2 0 1.3 1 3 1.4 0 .7-1.3.7-2.3 1-.7.4-1.4-.3-2 0l1 .7c-.4 1-4.1.3-2.4 1.7-.4.3-1.4.7-2.4.3-.7 0-.7-1-1.7-.6h-.4c0-1.7 1-3.8 0-5.8 4.1 0 8.2-1.4 12 0h1.3zm-18 0c-1 0-1 0-1.7.3v.4c-.7.3-.4 0-.7-.4.3 0-.3-.3-.3-.3-.7 0-1 .3-1.4.7-.3.6.7 1 1 1.3.7-.3 3 .4 3-.7h.8c-.4.4 0 .7.6.7h1c0 .4.4.7-.3.7.4.7-1.3 1.7-.3 2.4-.4.3-1 .3-1.7.3l.7-.3c-1.7-.4-3-1.4-3-2.4-1.8 0-1.5-1-2.1-1.4 0-.6.3-1 .6-1.7.7.4 2.8-.3 3.8.4z" clip-rule="evenodd"/><path fill="#D0D5D7" fill-rule="evenodd" d="M224.3 126.6c-.1-.5-.3-1-1.1-1.3-1.4.7-.7 2-3.1 1.4-.8.3-.5 1-.3 1.5l-1.6.6c-.4-.4-1.6-.5-.5-1-1.3-.4 0-2.1-1.7-1.8.4-.3 1-.3 2.4-.7.3.7 1.4.7 2.4.7 0-.3 1.3 0 1-.7 1 .4 1-.3 1.4-.6 1.3-.4 3.4.6 3.4-.7 1 .2 2 .5 3.2.6l-5.5 2zm-21.9-1.9c-.3 0 .4.6-.3.6 0-.3-1.4-1.3.3-.6zm6.5 1c-.4 0-1-.4-.7-.7l1-.3-.3 1zm-64.9 2h-.4l.4-.7c.3 0 0 .4 0 .7zm44.5 2.4c2-1 3 .7 5 .3 1.4 0 2.1-1.3 3.5-.3.3.7 0 1.4-.4 1.7a3 3 0 0 0-2.3 0c-.4.3-1.4.7-1.4 1l.7.4c-.7 0-1.4-.4-1.7-.7.7-.4 2-.7 2-1.4-1.3-.3-2.4 0-3.4.4-2 .6.7 1.3 0 2.3.7 1.4 4.8-.6 4.1 1.4 1.1.3 2.2.8 3.3 1l-1.8.6h-1.5c-1-.2-2.4-.2-3.4-1 0-.3.3-.6 0-.6-1 .3-1.7 1.4-3 1-.7 0-1.7.7-2.4.4-1.7 1-3.8-.4-5.1 1-1-.4-3 0-3.4-.7-.4-.3.3-.3.3-.3.7-.4.4-.7.4-.7l-.4-.4c-1.3.4-3.4 1.4-5 1-1.8 0-2.5-1.6-4.2-.6-1.7-.4-3.4 0-4.4.7-2-.7 1.7-1.7-.7-2l-1.7 1.3c.4 0 .4 0 .4.3-2-.7-2 1.4-3.4.7-.7 0-.7 1-1.7.3-.7.4-.7 1-1.7 1 0-.3-.4-.3-.7-.3-1.4 0-2.4-1.7-3.7-.3-.4.3-1 .3-1.4 1l4.8 1c1 .7-1.4 1.4.3 2 .3.4 1.7.4 2 1-.3 0-.3.7-1 .4-1.7-.7-2.4-2.4-4.7-1.7-.7-.3-2.4 0-2.4-.7-.4-.3.7-.7-.7-.7h-1c-.4 0-.4-.3-.4-.6.7-.4 2.4-.4 2-1l1.1-.7c-1-.4-1.4-.4-1.7-1-2 .6-2.4-.4-2.7-1l-.4-.4c-1 .3-1 1.4-2.3.7-.4-1.7 4.4-1.7 4-3.4h1.7c-.3.7-1.3 1.3-1 2-.3.4-.3.7-.3 1.4.3-.4 2.4-.4 2.4-1-1-.4 0-.7 0-1 1.3 0 2.3.3 3.4 0 .3-.4 0-1 .6-1 1 0 2 .3 2.8 1 .3.3-.4.6.6 1 1.4-1.7 4.8-1 6.8-1.7.4 0 1.7-.7 1.4.3-.3 0-1 .3-1 .7 1 0 1.7-.7 2.7-.7 2.7-.7 3.7 2 6.8 1.4 1.7-.4 2.4-1 4-1 1 0 1.8 1.3 3.1.6v-.3l2.8 1c2-.3 4.7-.3 5-1.7.7-.3-.3-.7 0-1-1-.4-2.3-.7-3-1.4-.4 0-1 .7-1.4.4 0-.7.7-.7 0-1.4-.6.3-1.3.7-2 .7-.3.7 1 1 .7 1.3-1.4-.3-3 .4-3.8-.6.7-.7 1.4-1 2.8-1 1.3-.7 3-1.8 4.4-.4h2.7zm27.9-.7zm-60.9.7s0 .3.4.3h-.4c.4 0 .4.4.4.4-.7.7-1 0-1.4 0 0-.4.3-1 1-.7zm-3.7.3c0 .4 0 .7-.4 1-.6-.3 0-1 .4-1z" clip-rule="evenodd"/><path fill="#D0D5D7" fill-rule="evenodd" d="M202 134.6h-1.3c-.7-1.1-1.7.3-2.7-.4-.3.3-1.4.3-2 .3-.7-.3-.7-1-.7-1.3.3.3.7 0 1.3 0 .4-.4.7-.4.7-1 2.6 0 3.6 1.4 5.4 2.2l-.7.2zm-21.7 4.4c.7 1-1.3.3-1.7 1l-.3-1.4c1 0 2-.4 2 .3zm-8.8 0c0 .3 0 .6-.7.6-1 0-2-.3-2.4-.3.7-.4 2.4-1 3-.4zm-5.1 1.6c1.7 0 3 0 4.4-.7 1 .4-.3.7 0 1-1.7 0-3 1.4-5 .7-1.4 0-2.8.4-4.8.4-.4-1-2-.7-2.8-.4s-1.3-.3-1.7-.3c-.6 0-.6-.7-1.7-.7 0-.3.7-.3 1.4-.7 1.7 0 2.7.7 4 .7 2.1-.3 3.5-1 5.5-1 0 .3.4.7.7 1z" clip-rule="evenodd"/><path fill="#B1B6B8" fill-rule="evenodd" d="M138.3 114.8c0-.9 0-1.7.2-2.6 3 .5.2 3 3 4l1.8-1c1.3.6 3.4 0 4.7-.4 0-.7-1-.7-1.7-1-1 0-1.7.7-2.7.7-.3-1.4-1.3-2-.3-3.4 2 .7 0 2 3 2l.4-.3c-.4-.4-.7-.7-.7-1h.3c2.8 1 1.4 3.4 4.8 3.7 1.7 2-.3 3.7 1 5.8-.3.3.4 1.3-.7 1.7-.6-1 1-3-1.7-3.8l-1 .7c-1-1-3.7-.3-3.4-2-2-.7-4-.4-6.1-.7 0-.7 1-.7 1.4-1a3.8 3.8 0 0 1-2.3-1.4zm.6-6.8.3-1 .7 1h-1zm1-6.7.3-1h.4c1.7-.4-.4-1.1 1-1.8 1 0 2 1 2.7.4 0-.7 0-1-.3-1.7.6-1.4 4.4-1.7 3.7-3.8 2.4 0 0-2 3-2 1.4 0 2.8 0 4.1-.4-.6 2.4-7.1-.3-4.7 2.8 0 1-3 1-1.4 2-1 .7-1.7 1.7-2.4 2.7 1 .4 2 0 2.8 0s.3-.7.3-1h.3c-.3-1 .7-2 1.4-2.7.7.3-1.4 1 0 1.7h1.4c.6.7-1.4 1-.7 1.7-.4.3-1 .3-.7 1 0 0 .3.3.7.3v.4c-1.4.7-2.4-.7-3.8-.4-1.3-1-2.3.7-4 .4-1 .3-1.7 1-1.4 1.7.7.3 3.7.3 2 1.3-1.3 0-1.7 1-2.3 1.7h-.7c.7-1 0-1.7-1.4-2.4.4-.3.1-.7-.2-1zm71.7-56.5 3 .4L228.4 73c.3 1.4 3.7 2 3.4 3.4-1.4.7-2.4.7-2.8 1.4.4 2.4-.3 5 .7 7.1h3.8c-.4-1.7 2.3-4-1.4-5-.7-1 1.7-1.4 2-2.4l6.5-22.1c1.3 7.8 3 15.3 5.4 22.7 1 .4 1.4 1 .7 1.7-1.4 1.7-1 3.8-.3 5.1h9.5c2.4 2.4.7 5.8 1.7 8.5-1 7-1.6 14.4-1 21.5l-1.4.5-.3-4.3c-.4-1.7.6-4.1-1-5.8 1.6-.7.6-2.4 1-3.4-.7-.3-.7 0-1 .4l-.7-.4c-.4 0-1-.3-1.4 0-1.7-.7-4.8.7-5.8-.3-1.3-.4-3 .7-4.4.7-.7 0-.7-1-2-.7l-.4 1.3c-.6 0-1.3.4-2-.3l.7-.4c.3-1.3-2-.3-2.7-.6v1.3c-.4.7-2 .4-2 1h.6c.7-.3 1 .4.7.7-.4.4.3 1.7-1.7 1.7.7 1.4-1.4 3.4 1.7 3.8 1-1 5-.4 7.1-.4 1.7.4 4.4-1 5.8 0-1.4 1-4.8 0-5.1 1.4-.3 0-.7 0-1-.4.3 0 .3-.3.7-.3-1.7-.3-4.5-.3-6.5 0 3.4 1.4 8.8 2 13 3.7 1 1-.8 2.4-.8 3.8a1 1 0 0 1 1-.1l-3 1c-.4-.2-1 .4-1.4-.3.4-.6 1 .4 1.4-.3.7-1 0-2-.4-3-1 .3-.6 1-1 1.6-.7 0-1-.6-1.3-.6 1.3-.4 1-.7 1-1-1-1.7-3-.4-4.8-1l1.4-.7c-.7 0-1-.7-1.7-.4v.4c.3.6-.7.6-1 .6-3-.3 1-.3.3-1.3 0 0-.7-.4-1 0-.3 0 0 .7-.3.7l-1-.4.3-.3c.7-1-1.4-.4-2-.7 0 .3-.7.7-1.4.7l.3 3.4c1-.7 2-1.7 4.4-1.7.4 2 5.5 2.3 6.5 4-.2.4 0 .7.1 1-.4 0-.8.2-1.3.4-3-.3-4.6.3-7.3.3v1.7c-.5-2 2.2-1.1 4.7-1l-6.3 2.2c-2.4.5-4.8 1.8-7 .5-1.6-.6-3.6 0-5.7-.6 3.4-.7 6.5 1 9.5 0-.3-3.4.4-7.2-.6-10.2-.4.3-1 .3-1.7.3l-.4-.3-.7.3c-.6-.3-1.3-1-2.3-.7-1 .4 0 1-1.7.7-.4-.3-.7-.3-1-.3-.4-.7.3-.7.6-1h1c0 .3.4.3.7.6.7-.3 1.4-1.3 2.4-.3 1-.3 3 0 3.4-.7-2.7-.7-6.1-.3-9.2-.3-1.7.7-.3 1.7-1 2.4-1.4-1-3.7.6-5.1-1-.7 0-.7.3-1.4.3.4-.7 1.4-.7 2.4-.7.7.3.4 1.4 1.7 1 0-1 2.7-.7 2-1.7l-2-.3c1.4 0 2-1 3-.4 3.5 0 6.5 0 9.6-.3l-.7-.7c-10.9 0-23.4-.3-33.6.7v.3c2 0 4.4.4 6.4.4H196v1c.6 0 2 0 2.3.7h.4c.7-.4 1.3-1 2.4-.7.6.7 1.3.3 2 .7-1.7 1-4-1-4.8.7.7 1 4.1 1.3 1.7 2.7-.3 0 .4.3.7.3h.7c-.3 1.4.3 3.4-.7 4.8h-3.4c-.7-.7.7-2-1-2.4 1-.7 1.4-1.7.7-2.7 0-.4-.7 0-1 0-1 1.7-.4 3-.4 5l1 .4c-2 .3-.3 2.7-1.3 4.4.7.4 1 .7 2 .4-.7 1.7 1.7 1.3 3 2.3-1.6 0-2.6 1.7-4 .7.7-2-3.7-.7-4-2.7l-2.1-.7c0-1 3.4-2 .7-2.4-.7 0-1.4.4-1.7.7-.4-.3-.4-.7-.7-.7l-2.4 1c.3-1.3-2.4-1-3.4-1.6-.3-.4.7-.7.4-1-1-1-2.8.3-3.1-.7.7 0 1.4-.4 1-.7.4-.7-1-.7-1-1 2.7-1.7 6.4-3.4 8.5-5.5 1.3 1 3 2.4 5 3 1.1-1 .8-3-.6-4-1.4.4-2.4-1-4-.3l-1 .7c0-.4 0-.4-.4-.4-1 .7-3 1.4-4.8 1.7 0 .7 1.7.4 2 1-3-.6-1.7 1.7-4.4 1-.7 0-1.3 0-1.3-.3 1.3 0 2.7-.3 3.4-.7-1-.6-2.4-.3-3.4 0-2.7.7-1 2.7-1.4 4.1h-.3c-.7-1.4 0-2.7-.7-4-1.4 0-1.4.6-2.4 1 2.4.6-1.3 2.3 1 3-.3 1 3.4 1.7 2.8 2.7-.4-.3-2-.7-3.1-.3l1.4-.7c-2.4 0-1-2.7-3.8-1.7-4.4 1.4 1.7 2.7-2.4 4-.3-.3-.6-1-1.7-1-.3 0-.3.4-.6.4-.4-.7 3-2 1-3l-2-.7c.3-.4.3-.4.3-.7-2 0-1-1-1-1.7.6-.3 2.7.3 2.3-1h-2.3c-.7 1-2.4 1.7-4.1 1-2-1.4-3 .7-4.8 1-.3.7-2.7 1.4-1 2.4 1.4 0 1.4-1 2.7-1 .4 0 .7.3 1.4 0 .3 0 .3-.4.7-.4 1-.3.6.4 1.3.7l2.7-1c1 1.3-2.7 1-2.7 2.4-.3 0 0 .3-.3.6.3.4 1 0 1 .4-1 .7-1.4-.4-2-.4 0-.3 0-1.3-1.4-1.3a5 5 0 0 0-2.4 1c.7.3 2.7.3 2 1.4-1 0-2.7-1-3.3 0 1 .6 2.7 1 3.7 1.7-.3 1-.3 1.7 1.4 1.7-1 .6-3.4 0-4.8 0 2-1.7-2-2.4-1.7-4.1.3-2 1-5.4-.7-7.1-.3-1.7 2.4-4.1-.3-5.1-.7 1.3.3 3-2.4 3.7-1.4-1-1.4-2.7-3.4-3.7 3-1.4-2.4-2 .7-3.8.3 1 .3 3 .7 4.1 0 .3 1 .7 1.3 1 .7 0 1 0 1.4-.3 0-.7-.7-1.7-1.7-2.7v-.4h.7c.6-.3 0-.7-.4-1 1.4 0 0-1.4 2-1 .4.3 0 1.3 1.4 1 .4-1.7-.3-3.7 0-5.4-1.3 0-1 .6-1.3 1s0 1-.4 1.3c-1-.3-.7-1-1.3-1.7 2.3-.6.3-2.7 3-3.3 0 0-.3-.7.4-.7h.6c-.3 1 .4 2 .4 3 1-.3 2-.7 2.7-1.3.7.3-.7 1-.3 1.7-.7-.4-1.4 0-1.7.3 1 1.7-3.8 1.7-1 3.4l.6-.7c.7 1.4-1.3 2.4.7 3.4-.3 0-1 .7-.3 1 2.3 1.4 4.4-1.3 7.1-1l1.4.7c1-.3.3-1.7 2-1l1-.7c1.7.7-1.3 1.7.4 2.4-.7.3-1.7 1-1.4 2 1.4 1 5.4-.7 5.1 1.7.3 0 .7.4 1.4.4l.6-.7c-2-.7.7-2-.3-3h.7c0 .6 2.7 2 .3 3 0 .3-.7 1 .7 1.3h.3c-.3.4-1.3 1-.6 1.7 1-1.3 3.7-1 4.4-2.3 1.3.3 3-.7 4.7-1l-.6-.7h1.3c.7.6 1.7-.4 2.7-.4.4-.3.7-.3.7-.7l-1.3-.3c.3-.7 6 .3 4-1.4-.3.7-1.3.7-2.3.7l1-.7c-1.4-1.3-.7-3.4-.7-4.7 2.7.7.7 3 2 4.4.7-1.4 1.4-3.4-.6-4.8-.7 0-1.7-.3-2.4.4v5.4h-.7c0-1.3.3-2.4-.3-3.4l-.7 1c0-.3-.4-.6-.7-1-1 .7-.3 1.4-.3 2 .3 0 .6.4 1 .4 0 .3-1.4.7-1.4 1l.7.7c-1.7.3-3.7-.3-5.1.3V104c1-1.3 3-.3 4.4 0l.7 2.4c.7-.3 2.7-.3 1.7-1.3-1.4-.7.7-1 .7-1.7.7-.4 2-.7 3-.4-.6 1.4 1.7.7 1.7 1.7.7 0 1-.3 1.4-.3.3-.4 0-.7-.4-1h-.6l1-.4c-1.4 0-.7-1.7-2.4-1.3-.3-.7-1.3-.4-2-.4 0 2-5.1.4-7.5 1.4-.3-.4-.3-1.4-1.4-1.4-1 1-2.3.4-3.4.4l-.3.3c0-.7-1.4-1-2-.7.3 1.7-3.1.4-3.4 1.7 0 1.4-.4 2.4.3 3.4h-1.7c2.4-1.7-1-3-.3-4.7-3.1-.4-5.8 1-7.9 2-1.7.3-3-.3-4-.7-.4-1.3 3.4-1.7 1.7-3 1.7 0 2-1.4 3.7-1.7 0 .3.7.6 1 1 .4-.4 1-.4 1.7-.7 0-.3-.3-.3-.7-.7h-1.3v-.3c1 0 2.7.3 3-.3-.6-.7-2-.7-1.3-1.7 1.7-1 1 .6 2.7.6 0 1-1.4 1.7-2 2.4.3.7 1.3.7 2 .7 0 .7.3 1.3 1 2 1.7-3 0-6.4.4-9.1.6-2.4-1-5.5 1-7.2 2.7 0 6.4.7 8.5 0-.4-1.7 1-3-1-4.4 3.7-8.5 5.7-17.3 7.8-26.1-1-.4-1.4-1-.7-1.4 0-.3.7-.3.7-.7 1 .4-.4 1.7 1.7 1.7v.4h-1c.3 7.8 3.4 15.6 4.7 23.7.4.7 1.7 1 1.4 2-1.7 1.4-1 3.8-.4 5.2 2-.4 4.4 1 5.8-.7v-7.1l-3.4-1c.7-1 3-2.1 4.4-3.5 5-9 8.8-18.5 12.6-28.2zm28.3 10 .5.2a.8.8 0 0 1-.5-.3zm-15.8 71.9-4.4 1.5c0-.5-.1-1-1-1.5 0-.7.4-1.4-1-1.7-1 0-1 .7-2 .7-.4-.7.7-.7 1-1 1-.4 2.4.3 3 0 .4 0 .7.3.4.6l-1 .4c1 .3 1.3 1 2.4 1 .6-.7.6-1.4.6-2-.3.6 1.7 1 1.4 2h.6zm-15.7 5.6-1.1.4c-.8-.1-1.3-.2.2-.6l.9.2zm-7.9 2.9-2 .7c-.4-.2-1 0-1.5 0-.7-.7-.4-1-.4-1.4 1-1 2.4 0 3.4 0 0 .4.2.6.5.7zm-5 1.8a15451.2 15451.2 0 0 0-21 7.4c.7-.4 1.8-.7 1.8-1-1 .3-2.4.3-4.5.3-1 0-2 .7-3 .3-1.7 1.7-3.4-.7-5.5.4-2-.7-5 .6-6-.4.6 0 1.3-.7 2-1-2.8.3-1.4-1.7-4.1-1.4-.4-.3-1.4-.3-1-1 2-.3-.4-1 0-1.7-2 .7-2.8-1-5.1-.7 0 0 .3-.3-.4-.3-.3 1-2.7.7-3 1.7 1.7 1.4 3-.3 5 0-1 .3-2.7.3-3 1.4 1.4 1.3 7.1-.7 6.8 2-2.7 1.4-3.4-.7-5.8-.3-2-.7-3-1-3-2.4-1-.7-1-1.4-.4-2-1 0-2.4 0-2.7-.7-.3-1 1-2 2.7-2.8 1 .7-1.7 1.4.4 2 1.7-1 1.7.8 3.4.4.3.4.6.7 1.3.4 2-2 5.1 2.3 6.1 0 1-.4 2.8-1 3.1 0 1-.7.7-1.4 2-1.4h.7c.7-.3 0-.3-.3-.7.3-.7 1.7-.7 2.4-1 0 .7-2 1.7 0 2a13 13 0 0 1 5.4-1l1.4.7c.6-.3 1 .3 1.7.3 1.7 0 3-1.3 4.7-1 .7.4-.3.7-.3 1.4l1.7.7c0 .6-1.7 1.3-.4 2 1.4 0 2.4-.3 3.8 0l.3.3c.7-.3 1.4-1 2.4-.6l.3.3c.4-2 3.8.3 3.8-1.7h-2.4c.3-.3.7-1 1.7-1.4.3 0 1 .7 1.3 0-2-1 3.1-2 0-3.3 0-.7 0-2 1.7-2.4l1.7-.4c.4.4 0 .7.4 1-3.4.7-1.7 2.8-2.7 4.1.6.7 1 1.4 2.7 1.7.6-.3 1.3-.3 1.8-.2zm-26.4 5.7c.4.3-.3 1-1.3 1-.4 0-1 0-.7-.7.7 0 1-.3 2-.3zm2.7-3.4c-.3 0 0 .3-.3.6.7.7 2-.3 3 .4-.6 1.7-4.7 0-6 1.3-2.4.7-6.5.7-8.6-.3-2 .7-3.4-.3-5-.7.6-.7 2.3-1 3.7-1 0 1.7 2.7.3 3.4.7 2.4-2.4 6.4-.7 9.2-2l.6 1zm10.6-5.5v.4l-1-.4h1zm14.6-1-3.4-.3c0-.4.3-1 1.3-1 1 .3 2 .3 2 1.3zm-45.9-1.7.7-.7v.7h-.7zm32.6.4c1.4-1 1.7.6 2.8.6.3.4 0 1-1 .7-1.8 0-2.4-1-3.5-1.7l1-.7c1 .4-.6.7.7 1zm-27.5-.7-.3.3c-.7 0-1-.3-1.4-.3-.7-1.4 2-.7 1.7 0zm12.6-.4c-1.4.4-3.8-.3-5.1.4-.7-.7.3-1.4.3-1.7 1.7.3 3.4.7 4.8 1.3zm18-2c.3.3-1 .7-1 1 0-.7.3-1 1-1zm27.2 0c.3.3-.7 0-1 0 .3 0 .6-.3 1 0zm-29.3-.3c-1.3 2.3-6.7 1.3-7 4-1.8 0-3.1-.3-4.8 0 2-.6-.4-1 0-1.7-.7-.3-1.4-.3-2.4-.3.3 0 0 0 0-.3 1-1 4 .3 4.7-1 1.4-.4 3.8 1.6 3.8-.4 1.3.3 4 .3 5-.7.4 0 .4.4.8.4zm25.9-.4c-.4 0-.4.4-.7.4-.3-.4-.7-.7-.3-.7h1v.3zm-9.9-.3c-.3 0-1 .3-1.7.3 0-.7 1-.3 1.7-.3zm5.5-.4.3-.3.7.3h-1zm-2.4-1.7-.4.4v-1c.7 0 .4.6.4.6zm10.5.7c-.7 0-.7 0-1-.3.3-.4-.3-.7-.7-.7l-1.3.7c-.7-.4.6-1 1.3-1 1.4 0 1.7 1 1.7 1.3zm-4.7 0c-1.7.4-1-1-2-1.3l-2.1 1c-.4-.7 1-1 1.3-1 2-.7 1.4 1 2.8 1.3zm-25.9-1h-.3c-.7-.3.3-.3.3-.3v.3zm40.1-.7c.4.4 0 .7-.3.7-.3-.3 0-.7.3-.7zm-72-.3c2 3.4-6.5 1.3-7.2 4 1.4 1.4 7.2-1.3 4.1 1.4 1.4.4 2.4-.3 3.8.4 1.3 0 2-.7 3.4-.7 1.7.7.6 2.4 3.4 2l.3.7c-2.4 1-6.5-.3-8.2 1.7-1-.3-3 0-3.4 1 0 .4 0 .7.7.7l-2 .7c2-1.4 0-2.7 2-3.8-.3-.3-1.3 0-1.7-.3.4-2-4.4-.7-2.4-2.7-3-.7 1-1.7-.3-2.7 1.7-.7 3.4-.7 4.4-2 1-1 2 .6 3-.4zm47.6-1h-3.1 3zm-9.2 0h-.4v-1c1.4 0 0 .6.4 1zm43.2-1.7h.6v1h-.6v-1zm-13.3 2h-3.7l3-.3.4-2c1 .6 0 1.6.3 2.3zm14-3v.3h-1s.6-.7 1-.4zm-40.5 0c0 .6-1.4.3-2.4 1-.7-.4-2-.4-3 0l-1-.4c-1 0-1.8 0-2.5.7v1c-1-.3-.3-1.3-1-1.7H182c0-.6 0-1 .7-1 3.8 0 7.5-.3 10.9.3zm-46.6-3.1c.7.3-.3 1-.3 1.3h-.4v-1.3h.7zm26.2 2V117c0 .6 2 2 0 2.3zm20.4 0c-1 .4-1.4-.3-1.4-.6-.7.6-1 .6-2.4.6l-.3-.3c.3-.4 1.4.3 1.4-.4-.4-.3-1-.3-1.7-.3l-1 1c-.4-.3-1.4-.3-1-1 .3-.3 1.3.3 1.3-.3 0-.4-1-.4-1.7-.4-1.4.4-.7 1.7-2.4 1l3.7-2.3c2 .7 3.8 1.7 5.5 3zm48 0c-1.4-.3-3.8.4-4.2-.6h.7c-1.7-.4-.7-1.7-1.7-2.4-1 0-1.3.7-1.3 1 .3.3 1.7.3.6.7l-1.3-.4c-.4.4 0 .7 0 1H233l3-2.7c2.1 1 5.9 1.7 5.5 3.4zm-15.7-3.4c.7 1.4.3 3 0 4.1h-1c-.4-1-1.4-3.4 1-4zm2 5.1c-1.7-1.3 0-3.4-.7-5h.7v5zm12.6-5.7c2.4 1 1.4 1.7.7 1.7-.4 0-.7-.4.7-1.7h-1.4zm-48.3.6-.3-.6.3.3v.3zm27.9-1c0 1 .3 1.7 0 2.4-.3-.7-1-1.4-.3-2.4h.3zm6.1 0c-4 .7-2 3.4-2.7 5.4 1-.3 1.4 1 2.7.7v.4c-1 .3-2.4 0-3.4 0 .4-2.7-.7-4.8 2-6.8.4.3 1 0 1.4.3zm-10.5 0c0 2 1.3 4.4-.4 6.5-1-2.4 2.4-5.8-2.7-6.8-1.7-.7-2.7.3-3.4 1-.3 1.7 0 3.4.7 4.7.7-1 .7-2.7.3-4 .7-1.4 2.4.3 2.4-.7 2.4 1 1.4 3.4 1.4 5-1.7.4-3-.3-4.4 0 0 .8 1 .4 2 .8.7.3 2.4-1 2.4 0h-4.8c.7-2.4-3-6.1 2-7.5 2.1-.3 3.1.7 4.5 1zm-24.8-.3c-.7-.4-2-.4-1.4-1 .7 0 2.4.3 1.4 1zm-14.3-1.4c0 .4 0 .4-.3.7v-.7h.3zm20.4-.3c-.4.3 0 1 1.3 1-.3 0-.3.7-1.3.7-.4 0-1-.4-1-.7-.4-.3 0-1.4 1-1zm11.2 0c1.4-1.4 3.4 0 4.4.3-1.7-.3-3.4-.7-5 0-1.1.4-1.4-.7-2.1-.3-1.7 3.4-.4 6.4-.4 10.2 3.1 0 6.5.3 9.6 0l.3.3c-1 .3-2-.7-3 0-2.4 0-5.5-.3-7.5.3l-.4 7.9c-1 .3-2-.4-2.7-.4-.3-.7.3-.7.7-1h.7c0 .3-.4.7.3 1h.3c0-1.7 1.4-3.7 0-5.4-.6 0-1.7-.4-2 .3-1 0-.3-1-1.4-1.3 0 1-2 .6-2.7 1-.3 0-.7-.4-1-.4 0-.6.3-1 .7-1.3l1.3 1c.7-.3.4-.7 1.4-.7 1.7-.3 1 .7 2 1 .4-.3 1-1 2-.6.8-.7.4-1-.3-1.4h-.3c.3-.3 2-1.4.3-1.7v-.3h1c0-2.4.4-4.8-.3-6.8 1-1-1.3-2.4 1.4-2.4 1.3-.3 1.3 1.4 2.7.7zm-37.7 1.3c-.4.7-1.7 0-2.4.7.7 0 .3.4.3.7-.3.3-1.3 0-1.7 0l-1-1c-1.3 1-4 0-5.4 1 0-.3 0-.7-.7-1-1.7.3-2 1.3-3 2l-.7-.7c0-.6 1.7 0 2-.6-.3-.4-.3-.7-.3-1.4.6 0 2.3-.3 2-1 0-.7 2.4-1 3.7-1 .7.3 1.4.6 2.4.6 1.7.7 4 .7 4.8 1.7zm10.9-2c0-.3-1-.7-.4-.7h.4v.7zm-24.2 0c-1 0-.7-.7 0-1v1zm55.8-1h1-1zm-35 0h.3v.7h-.3v-.7zm26.5 0-.4-.4 2.7.4h-2.3zm-44.2 0c-.4 0-2.4 0-1.4-.7.7 0 1 .3 1.4.7zm17.7-1.4c0 .4-.7.4-1.4.4.3-.4 1 0 1.4-.4zm0-.7h-1l1.3-.3s0 .3-.3.3zm21.7-1h1.4-1.4zm4.8 0h-1 1zm48.6-1h.3v1h-.3v-1zm-10.2-.3v1.7-1.7zm-41.2.3v-.3l1 .3h-1zm-1.7 0c-.3.3-.6 0-1 0l.7-.7c.7 0 .3.4.3.7zm-25.4-.7c-.4.4-.7.7-.4 1 .7.4.7.7.7 1l-.7.7c-.7-1.3-2.4.4-2.4-1 .4-.7.7-3 2.8-1.7zm28.5-.7h1.4-1.4zm-1.7.4c-.3 0-.3-.4-.7-.4l1-.6c.4.3 0 .6-.3 1zm-7.8-1c-.4.6.3 1.7-1 2 1.7.7-.7 1.4-.4 2.4-1-1.4.4-3 0-4 .4-.4.7-.4 1.4-.4zm-16.3 0h.7-.7zm65.6.3v-.7.7zm-68.7-.7v.7l-1.3-.7h1.3zm59.2 0s.3.7 0 .7h-.4v-.7h.4zm16.3 1s0-1-.4-1l-.3-.3.7 1.3zm-11.6-.3c.7 1-.3 2.4-.3 3.4-1-1-1.4-3-1-4.4 1-.4.3.7 1.3 1zm-33.6-1.4c.3.4-.4.7-1 .7h-.7c0-.3 1-.7 1.7-.7zm-27.2.4h-1.4v-.4c.4.4 1 .4 1.4.4zm6.4 5.4h-2c3-1 1.4-3.4 1.4-5l-.7-.8c-2.4 1.4-1.4 4.1-1 5.8-.7 0-1 0-1-.3 1-1.7-1.8-4 1-5.5 4.4.4 1.7 4.1 2.3 5.8zm63-5.4c0 1.7.2 3 0 4.7-2.1-1.7 1.6-4-2.5-5 0 1.3 2 3.3 0 5-1 0-2-.6-2.3.4.3-2-1.7-4.8 1.7-6.1 1.3 0 2.3.3 3 1zm-73.5-1c0 .3-.7.3-1 .3.3 0 .7-.7 1-.3zm66.6 5.7h-.3c-.4-1.3-.7-3-.4-4.7-.6-.4-1.7-.7-2.3-.4l-1 .7c0 1.4.3 3 0 4.4-.7-1.3-.4-3.4-.4-5 5.4-2.8 4.4 2.7 4.4 5zm-35-5.4.3-.7h.4l-.7.7zm-4.4-.3v.3c-2-.7-1.4 2-2 .3-.4-.3 0-.6.6-1 .4.4 1 0 1.4.4zm-22.8-.4c-.7 0-1.3 0-1.3-.3.3.3 1 0 1.3.3zm49.6.7c-.3-.3 0-.7.4-1l-.4 1zm-58-.7c-.4-.3-1.1-.3-1.8-.3 0-.3 2-.3 1.7.3zm64.8 0h-.6l-.4-.6c.7 0 .7 0 1 .6zm-47.9-1-.3.3-.7-.6h1v.3zm24.1-.3c-2.3-.4-1.7 1-3.7 1 1-.7 2-1.4 3.7-1zm-46.2-.4c.4.7-.3 1-.7 1-1 0-1-.6-1-1h1.7zm39.1-.3c0 .3-.7 1.3-1.4 1.7l-1-.7c-.7.3 0 1-1 1-.3-.7.7-.7 1-1 .7.3 1 0 1.4-.3l-.7-.4c.3-.3 1.4-.3 1.7-.3zm-2.7 0c0 .3-.7.3-1 .7-.4 0-.7-.4-1-.4.3-.6 1.3-.3 2-.3zm26.8 0-.6.3v-.3h.6zm-2.7 0c-.3.3-2 1-1.7 0h1.7zm-12.2-.3c-1-.4-2 0-2.7.3.3-.7 2-1 2.7-.3zm-46.2 0c-1 1-1.7-.4-1.7-1l1.7 1zm59.1-2c-.3 0-.7.3-1.4.3.4-.4.7-.4 1.4-.4zm-18.4-.4c-.3-.4-1-.4-1.7-.4h-.3c-.3-.6 1.4-.3 2-.3v.7zm16.7-.7h-1.7v-.3c.3.3 1 .3 1.7.3zm-10.5 1c5.4 3 11.9 6.1 16.3 9.9-10.9 0-20 .6-31 0 .4-.4-1-.4-1.3-.7l1.3-.4-.6-.3 13.9-8.5.3-1.7 1 1.7zm-58.2-1.3c-1-.4 0-1 0-1.4 1.4.3-.3.7 0 1.4zm63-1c.3 0-.8 0-1.4.3l.6-1c.4 0 .4.3.7.6zm-7.2-1.4 1-.4v.4h-1zm16.6 3.7c-2.7-1-4-3.7-7.1-3.4l.7-.3-2-1.4 8.4 5.1zM215 94.1c0 .3-1.4 0-2.4.3.4-.6 1.7-.6 1.4-1.3-.4.7 0 1 1 1zm-10.2-2.4a20 20 0 0 1-5.4 3c-.7-1-.4-2.3.6-3h4.8zM165 94.4h-1.7c.7-1-2-1.7-1.3-3-1 2 5.4 1 3 3zm63 1.7c-2.8-1.3-4.5-2.7-6.9-4-.7-1 1.4-.7 2.4-1 7.1-1 1.7 3.3 4.4 5zm0-5.7h-.8c-.6-.4-.6-.4 0-.7.7-.4 0 .3.7.7zm2.6 8.8c0 2.7 0 5.8-.3 8.5-1.4-2-.7-4-.7-6.5l-.7-.3c.4 0 .4-.3.4-.7-3 0-6.8-.3-9.9.4 0 0 .4.3.7.3s1-.3 1.7 0c0 .3-1.4 0-1 .7 1 .3 1.7-.4 2.4.3.6.3.3 1.4 1.7 1h.6c-.6-.3-1.3-.7-.6-1 1 0 2.7.3 3.4-.3.6 1.7.3 3 .3 4.7-4-1.7-7.5-4.4-11.6-6.4 1.7-.4 2-1.4 3.4-1.7h-2.7c-1.3.3 1 .7 0 1-1.7 1-2.7-1-4-1.4.3-.6.3-2-1.4-2.3-1 .3-2.4.3-3 .6.3.4 1 0 1.3.4.3 1.7-3 2.4-5.1 3.7-2.4 0-5.5.4-7.2-.3.7-1.4 3.4.7 3.4-1h-3c1-.4 2.4-.4 3.4-.7 0 .3.7.3 1 .7.3-.4 1-1 0-1-.3 0-1.4 0-1.4-.4.4-1 2 0 2.8-.3l.6.3.7-.7c0-.7-1-.3-1.3-.7.6-1 5.4 0 4.4-1.3-.7 0-.7.7-1.7.3 0-.3 0-1 1-1.3.7 0 1 .3 1.4.3.6-.3.6-.7 0-1 .6-.7 2 .7 2.3-.7-.6-.3 0-.3 0-.7.7-.3 2-.7 3.1-.3l.7.7-1.4.6c1.4.4 3.4-.3 4.4.7v-.3l-5.4-3.4c-4.8 5.4-22.8 7.1-16.7 15.3-.6.3.4.6-.6 1v-7.5l17.3-9.5c6.1 3 11.6 6.8 17.3 10.2zM202.1 89c.7.3 1 1 1 1.4h-2.4c-.3-.7 1.7 0 1-.7 0-.4-.6 0-1 0l-1.3.7c-.4-.7.6-1.7 1.7-2.4 1.3.3-.7 1.3 1 1zm24.8.3c-1 0-1-.3-1-.6 0 0 0-.4-.4-.7-1.3.3-1.7 1.3-2 2 .3.4 0 .4-.3.4h-.7c0-1 3.7-4.5 4.4-1zm-22.4-1v-.7.7zm-4.1-1c-.4.3-.7.7-1.7.3 0-.3 1-.3 1.7-.3zm2.7.3c-.3 0-.7 0-1-.3.3-1 1 0 1 .3zm-6.1-1.3c1.3 2.7 0 6.4.3 9.8l-7.5 3.8c-6 0-11.5-.4-18-.4-1-4.4-1-9.1 0-13.6 9.2.4 16 0 25.2.4zm58.1-.4c.3 3.8 1.4 9.2 0 13.3-6.8.3-14 .3-20.7.3-.7 0-.7.7-1.4.4 1.4-1-2-1-2-2l-2-1.4c.3-3.4-.4-6.8.6-10.2 7.5 0 17-.4 25.5-.4zm-10.5-1.3h-1.4l.4-1.4c1 0 1 1 1 1.4zm-64-1.4h.4v.4h-.3v-.4zM226 83c0-.3-.7-.7 0-1v1zm-39.5.7c-.3.3-1 .3-1.7.3 0-.7-.6-1.3.4-2 1.7 0 1.3 1 1.3 1.7zm54-1.7c.4.3 0 1 0 1.7 0 .3-.6 0-1.3 0l.4-1.7h1zm-39.3-.4c.3 1-.7 2.4-.4 3.4v-3.4h.4zM190.9 85c-1 0-1.7.4-2.4.4v-2c0 .3.3.3.7.6h.6c.7-.3.4-1 .4-1.7-.4-.3-1 0-1.7 0l.3-1c3.4-.3 1.4 2.4 2 3.7zm-3.4-3.4v3.8c-1.4.3-2.8 0-3.8-.4l.4-3.7c1.3 0 3.4-.7 3.4.3zm29.5 3.8-.6.3c.3-1.3-.4-3.4.3-5h.3v4.7zm-16.3-4.8h.4v.7h-.4v-.7zm43.9.7c.3.7-.4.7-1 .7v-1.4c1-.3 1 .4 1 .7zm-2.7-.7c.3 1.4.6 3 0 4.4h-3.4c1-1.3-2.8-5.7 3.4-4.4zm-5.1 0c.3 1.4 1 3-.4 4.4-.3 0-1.3 0-1-.3.3-.7 2.4-1.4 1.4-2.4-1-.3-1.7-1-1-1.7h1zm-9.6 3.4c-1 .4.4.7-.3 1-.7.4-.7 0-1-.3-.7.7-1 1.3-2.4.7-.3-1.7-.7-4.1 1-5.8 3.8.3 1.7 3 2.7 4.4zM199 80l.4-.4v.3h-.4zm4.1 0c-.3 0-.3 0-.3.3-1 0-1-.7-2-.7l1-.3 1.3.6zm1.4-1c.3 2.6.6 5.4 0 8-.7-.6-2-1-3.8-.6.7-.7 2-1 2.7-.7l.4-3h.7c-.4-.7-1.7-.7-1.4-1.4 1.4-.7 1-1.4.7-2l-.4-.4h1zm-16.4.3c-.3 0-.6-.4-1-.4l.4-.3s.6.3.6.7zm37.8-1.4c.7.3 2-.3 2.4.3-.4 2.4.6 5.1-1 7.2 1.3 1 1 2.3.6 3.4-.7-.7-2-1-2-2 .7 0 1 0 1.3-.4-.3-.7-2.7-.4-3.7 0 .3.3-.3 1-1 1.7-.4.3-.7 0-1 0 .3-3-.7-7.1.3-10.2 1.4.7 2.4.7 4 0zm-12.6.3c1-1 2 .4 3-.3 1.4 1 2.8-1 3.8.3 0 4.5.7 8.9-.7 13-1.7-1.8-4.7-2.4-5.4-4.5 1.3 0 3 .7 3.7-.3l-4-.4c-.4-.6.6 0 1-.3 3-1.7 0-3.4 1.7-5 0-.8-1-1.4-2.4-1.8-1.7 0-2.7 1-4.1 1.7-.3 1.7.3 3-.7 4.8.4.3 1 .3 1.4.3.7-1 .3-2.7.3-4 0-.7 1-1 1.7-1.8h1.7c0-.3-1.3 0-2 .4-.7 1.3-1 3-.7 4.7l1 .7c-.3.7-2.4.4-3.4.7.7.7 2 .3 2.7.3.7 2-3.7 3-5.4 4.4h-.7c-.7-4.4.4-8.8.4-13.2 0 .3.3.3.6.3.7-.3.7-.6 1.7 0l1-.6c1 1.7 2.4-1 3.8.6zm-.7-4 .7-.7c-.3.7 1.4.7 2.4.7-.7.3-2.7 0-3 .6l-.4-.6-.7.3-.3-1c.3.3.3.7 1.3.7zm-3.4 0c.4 0 0 0 0 .3l-1.3-1c.6-.4 1.3 0 1.3.7zm-4.4-2.4v.3c-.3 0-1.4.4-1.7 0 .3-.3 1.4-.7 1.7-.3zm33.3-4v.2-.3zM182.7 70l.7-2.7-.3 2.3-.4.4zm57.1-2.4c-1.7-.3 1-.7-.3-1.3 0-.4.7-1-.4-1.4l-1 1.7c-.3-1.4 1.4-1.7 1.4-2.7 0 1 1 2.7.3 3.7zm4.4 9.9c.7.6 2.7 1.3 1.4 2-1.4-.3-1-1.4-2.4-1.7-1.3.7.7 1 .4 1.7h-5.8c-.4-.7.3-.7.7-1 0-.4-.7-.4-1.4-.4-1 0 0 .7-.7 1.4H234c0-.3-.3-.7.4-.7.7-.3 1 .7 1.7 0 0-.3-2-1-.4-1.7l.4-.3-.7-.4 1.4-.6c-2-.4.3-1-.4-2 .7-1.4.4-2.8 1.4-4.2.7 2.8-1.4 5.5-.4 8.2 2.8-1.7.4-4 1.4-6.5-.7-1 1-2 .3-2.7 0-.3.7-.7 1.4-.7.3 3.4 1.3 6.2 1 9.2.4.4.4.7 1 .4l.4-.4c-.4-4.7-2-9.2-1.7-14l3 14.4zm-4.7-15.7.3 1.4-.3-1.4zm-52 16c.3 0 .6.3 1 .3.3-4-1-8.1-1-12.2 2 4.4 1.3 9.9 4 14h-8.1c-.3-1 1.3-.7 1.7-1-.3-.4-1-.8-1.7-.8-.7 1-2 1-3 1.7-.4-.3-.4-1 0-1.7l1 .7c.3-.3 1-.7.3-1-.3-.3-1.4-.3-1-.7.3 0 .7.4 1 0 1-.7-.3-1.7.7-2.4-1.4-1.3 0-2.7.3-4 .7 2.3-1 5 .4 7.4.6 0 1.3-.3 2-.6-.3 0-.7-.4-1.4-.4-.3-.7 1.4 0 1.7-.7-.6-.3-2-.3-1.7-1.3l1-.4c-.6 0-1-.6-1-1l1.4-.7c-.3-.3-1.4 0-1.4-.6l1-.7c-2.3-.7 2-1.4-.6-2 0-.4.3-.4.7-.7.6-.4-1.4-.7-.4-1.4.4 0 .7 0 1-.3l-.6-.7c.6-1.7-.4-3 .6-4.8.7 5.1 1.7 10.6 2 16zm17.6-3c.4 3-5 .6-7.8 1.6 1-.6 2.7-.3 3.4-.3l.7-.3c-.3-.7-2-.7-3-.7 2.3-.7 4.4 1 5.4-.7-1-1-2.7.3-3.8-.3 1-1.7 3.4 1 3.1-1l-1.7-.7c1.4-.4 0-1.4 1.7-1.7h.3l.7-.4c-.3-.3-1.7-.7-1-1 .3-.3 1-.3 1.4-.7 0-.7-1.7-.3-.7-1 1-.3.7.3 1.7.7.3-.4 0-.7 0-.7-.4-.3-.4-.7-1-.3-.7 0-.7-.4-.4-.7.4-.4 1.7 0 1.7-.4 0-.3.4-.6-.3-.6l-1 .3c1-1 .6-2 2.3-3-2-.7.4-1.7-.3-2.4.3-.4 1-.4 1.4-.7.3-.7-1 0-1-.3 0-.7.3-.7 1.3-.7.7-.7-1-1.7.7-2-.7-1.4 1-2.8 1.3-4.5-1 7.5-4 14.6-5 22.4zm22.1-1c-1-.8-2-.8-3-.4l-1 .7c1.3-.4 3 0 4.4.3.7.7 1.7 1 2.4 1.7-1.4.3-4.8 0-7.2.3-.3-1-1.7-2-2.7-2.3-1.7 1 1.4 1.3 1 2l-15.6.3c-.4-.6 1.3-1.3.7-2 .6 0 1.3 0 1-.3-1-2 .7-4.1.7-6.1 0-.7 2-.4 1-1h-1c.6-1.4.3-2.8 1.3-3.8h1.4l-1.4-.7 1-5.8c1.7 0 1-1 2-1-.6-.7-1 .4-1.6 0 0-.7-.4-1.7 1.3-2.4-1 0-.6-1-.3-1.3.3 0 .7-.4 1-.4-1.3-1.3-.3-3.3 0-5 3.4 8.8 4.4 18.3 7.5 27.1l1-.3-6.8-26.8c4.1 9.1 9.2 18 13 27.1z" clip-rule="evenodd"/><path fill="#D31F1B" fill-rule="evenodd" stroke="#D31F1B" stroke-miterlimit="2.6" stroke-width=".3" d="M138.2 119.2V158l-2 .7v-39.4c0-44.5 30.9-76.4 69-76.4 35.3 0 64.2 26.8 68.6 65.9l-2 .7c-4.1-38.5-32.3-65-66.8-65-36.7 0-67 31-67 74.7z" clip-rule="evenodd"/><path fill="#B1B6B8" fill-rule="evenodd" stroke="#B1B6B8" stroke-miterlimit="2.6" stroke-width=".3" d="M278.6 107c-5.1-41.4-36-70.3-73.5-70.3-40.7 0-74 34.6-74 82.5v41.5l-10 3.4v-44.9c0-54.6 37.8-94.4 84-94.4 41.8 0 76.9 32.3 83.3 78.5l-9.8 3.7z" clip-rule="evenodd"/><path fill="#D31F1B" fill-rule="evenodd" stroke="#D31F1B" stroke-miterlimit="2.6" stroke-width=".3" d="M288.4 103.3C282 57 247 24.8 205.1 24.8c-46.2 0-84 39.8-84 94.4v44.9l-2 .6v-45.5c0-55.7 38.5-96.4 86-96.4 42.9 0 78.2 33 85 79.8l-1.7.7zM138.2 255.4v88.3h134.2V205.5l1.7-.7v141h-138v-89.7l2.1-.7z" clip-rule="evenodd"/><path fill="#B1B6B8" fill-rule="evenodd" stroke="#B1B6B8" stroke-miterlimit="2.6" stroke-width=".3" d="M279.2 350.8V203.1l10.2-3.7v155.2c0 3.7-2.7 6-5.4 6H126.3c-2.7 0-5.1-2.3-5.1-6v-92.7l9.8-3.8v92.7h148.2z" clip-rule="evenodd"/><path fill="#D31F1B" fill-rule="evenodd" stroke="#D31F1B" stroke-miterlimit="2.6" stroke-width=".3" d="M121.2 354.6c0 3.7 2.4 6 5 6H284c2.7 0 5.4-2.3 5.4-6V199.4l1.7-.7v155.9c0 4.4-3 8.1-7.1 8.1H126.3c-4 0-7.1-3.7-7.1-8.1v-92l2-.7v92.7z" clip-rule="evenodd"/><path fill="#FFF" fill-rule="evenodd" d="m92 178.3 271.5-99.5v89.3L99.1 266c-3.7 5.1-8.2 9.2-13.6 9.2-14 0-37.7-15.3-45.2-10.9-3.7 2-5.1 5.1-5.1 5.1s-5.1-3.4-5.4-8.8c.3-.3-16.4-9.5-2.8-21 0 0 9.2-4.8 2-13-7-7.8 0-13.2 1.4-14.9 1.7-1.4 6.5-4 2-8.8-3.7-4.1-2.6-9.2-2.6-12.3 0-1.6-.4-4-1-5.7-1-3-2.4-5.1-2.8-8.9 0 0 5.8 3.8 10.2 3.8 0 0 10.9-7.8 22.4 0 5.5-1 20.4-7.5 33.4-1.4z" clip-rule="evenodd"/><path fill="#D31F1B" fill-rule="evenodd" d="M26 176s5.8 3.7 10.2 3.7c0 0 10.9-7.8 22.4 0 6.8-1.4 26.9-10.2 41.2 4 0 0 9.2-6 15 2 6 8.2-2.1 17.4-3.5 19.1 0 0 4.5 16.3-2.3 41.4 0 0 4.7-1.3 5-7 0 0-1.3-.4-1.3-2.1a3 3 0 0 1 2.4-3c3 0 3.7 4.7.7 9.4-2 3-4.5 5.5-7.9 6.1 0 0-8.8 25.2-22.4 25.5-14 0-37.7-15.3-45.2-10.9-3.7 2-5.1 5.1-5.1 5.1s-5.1-3.4-5.4-8.8c.3-.3-16.4-9.5-2.8-21 0 0 9.2-4.8 2-13-7-7.8 0-13.2 1.4-14.9 1.7-1.4 6.5-4 2-8.8-3.7-4.1-2.6-9.2-2.6-12.3 0-1.6-.4-4-1-5.7-1-3-2.4-5.1-2.8-8.9z" clip-rule="evenodd"/><path fill="#D31F1B" fill-rule="evenodd" d="M363.9 87.6v71.7l-258 95.4c1.4-3 2-5 2-5 3.4-.7 5.8-3.1 7.9-6.2 3-4.7 2.3-9.5-.7-9.5a3 3 0 0 0-2.4 3c0 1.8 1.4 2.1 1.4 2.1a7.7 7.7 0 0 1-5.1 7.1c6.7-25 2.3-41.4 2.3-41.4 1.4-1.7 9.5-10.9 3.4-19-2-3-4.7-4-7.4-4.4l256.6-93.8z" clip-rule="evenodd"/><path fill="#FFF" fill-rule="evenodd" d="M313.9 104.3v7.1l-6.8.4V105l6.8-.7z" clip-rule="evenodd"/><path fill="#A71B1E" fill-rule="evenodd" d="m109.4 244.4 4.1-5.6a2 2 0 0 1-.8-1.7 3 3 0 0 1 2.4-3c.6 0 1.1.1 1.5.5l56-77-65.3 23.8c2.7.3 5.4 1.3 7.4 4.4 6.1 8.1-2 17.3-3.4 19 0 0 4.2 15.5-1.9 39.6z" clip-rule="evenodd"/><path fill="#A71B1E" fill-rule="evenodd" d="m107.5 254.1 4.8-6.6a9.8 9.8 0 0 1-4.4 2.1s-.6 2-2 5.1l1.6-.6zM117 241l62.6-86-8.6 3.1-55.2 76c2 .5 2.6 3.5 1.2 6.9zm-4.1-3-2.9 4-1 4.2s4.7-1.3 5-7c0 0-.7-.3-1.1-1.1z" clip-rule="evenodd"/><path fill="#AA1B1E" fill-rule="evenodd" d="m115.3 251.3 72-99.2-8.8 3.3-60.9 83.6a15 15 0 0 1-7 9.7l-4.4 6 9.1-3.4z" clip-rule="evenodd"/><path fill="#AF1A1F" fill-rule="evenodd" d="m122.4 248.6 72.3-99.2-8.4 3.1-72.2 99.2 8.3-3.1z" clip-rule="evenodd"/><path fill="#B1171D" fill-rule="evenodd" d="m130.2 245.7 72.3-99.1-8.7 3.2-71.9 99 8.3-3.1z" clip-rule="evenodd"/><path fill="#B81A1D" fill-rule="evenodd" d="m138 242.9 72-99.1-8.4 3.1-71.9 99 8.3-3z" clip-rule="evenodd"/><path fill="#BC1E1D" fill-rule="evenodd" d="m145.8 240 72-99-8.4 3.1-71.9 99 8.3-3.1z" clip-rule="evenodd"/><path fill="#C0211D" fill-rule="evenodd" d="m153.6 237.1 72-98.9-8.6 3.1-72 99 8.6-3.2z" clip-rule="evenodd"/><path fill="#C4211E" fill-rule="evenodd" d="m161.4 234.2 71.8-98.8-8.4 3-72 99 8.6-3.2z" clip-rule="evenodd"/><path fill="#C7201F" fill-rule="evenodd" d="m169.2 231.3 71.8-98.8-8.4 3.1-72 98.9 8.6-3.2z" clip-rule="evenodd"/><path fill="#CB201F" fill-rule="evenodd" d="m177 228.4 71.7-98.7-8.3 3.1-71.9 98.8 8.5-3.2z" clip-rule="evenodd"/><path fill="#D01F1E" fill-rule="evenodd" d="m184.8 225.5 71.7-98.6-8.3 3-71.9 98.8 8.5-3.2z" clip-rule="evenodd"/><path fill="#D31F1B" fill-rule="evenodd" d="m192.6 222.6 71.7-98.6-8.6 3.2-71.7 98.6 8.6-3.2z" clip-rule="evenodd"/><path fill="#D31F1B" fill-rule="evenodd" d="m199.6 220.1 71.7-98.6-8.4 3-71.8 98.7 8.5-3.1z" clip-rule="evenodd"/><path fill="#CE201F" fill-rule="evenodd" d="m207.6 217.1 71.7-98.6-8.5 3.1-71.6 98.6 8.4-3.1z" clip-rule="evenodd"/><path fill="#CA201F" fill-rule="evenodd" d="m216.1 214 71.5-98.5-8.5 3.1-71.6 98.6 8.6-3.2z" clip-rule="evenodd"/><path fill="#C7201F" fill-rule="evenodd" d="m223.9 211.1 71.5-98.4-8.3 3-71.7 98.5 8.5-3.1z" clip-rule="evenodd"/><path fill="#C0211D" fill-rule="evenodd" d="m232.3 208 71.6-98.5-8.6 3.2-71.7 98.5 8.7-3.2z" clip-rule="evenodd"/><path fill="#BD211D" fill-rule="evenodd" d="m240.3 205 71.5-98.3-8.6 3.1-71.5 98.4 8.6-3.2z" clip-rule="evenodd"/><path fill="#B81F1D" fill-rule="evenodd" d="m248.6 201.9 71.4-98.2-8.4 3-71.8 98.5 8.8-3.3z" clip-rule="evenodd"/><path fill="#B41A1D" fill-rule="evenodd" d="m256.6 199 71.5-98.3-8.6 3.1-71.4 98.3 8.5-3.1z" clip-rule="evenodd"/><path fill="#AF1A1F" fill-rule="evenodd" d="m264.8 196 71.5-98.3-8.6 3.2-71.5 98.3 8.6-3.2z" clip-rule="evenodd"/><path fill="#AA1B1E" fill-rule="evenodd" d="m272.8 193 71.3-98.1-8.2 3-71.5 98.2 8.4-3.1z" clip-rule="evenodd"/><path fill="#A71B1E" fill-rule="evenodd" d="m281.2 189.9 71.5-98.2-8.6 3.2-71.5 98.2 8.6-3.2z" clip-rule="evenodd"/><path fill="#A71B1E" fill-rule="evenodd" d="m363.9 90.2-2.3-1.7-9.3 3.4-71.5 98.1 83.1-30.7V90.2z" clip-rule="evenodd"/><path fill="#B1B6B8" fill-rule="evenodd" stroke="#B1B6B8" stroke-miterlimit="2.6" stroke-width=".3" d="M99.8 183.8a19.3 19.3 0 0 0-7.8-5.5l271.5-99.5v8.8L316 105l-1-1.7-8.8.6v4.8l-51.7 19h-1.7v.4l-58 21.4-1.1-1.4-9.2.3-1.3 5.5-75.8 27.5c-4.1 0-7.5 2.4-7.5 2.4zm6.1 70.9 257.6-95.4v8.8L99.1 266a58 58 0 0 0 6.8-11.2z" clip-rule="evenodd"/><path fill="#A71B1E" fill-rule="evenodd" d="M26 176s5.8 3.7 10.2 3.7c0 0 10.9-7.8 22.4 0 6.8-1.4 26.9-10.2 41.2 4 0 0 9.2-6 15 2 6 8.2-2.1 17.4-3.5 19.1 0 0 4.5 16.3-2.3 41.4 0 0 4.7-1.3 5-7 0 0-1.3-.4-1.3-2.1a3 3 0 0 1 2.4-3c3 0 3.7 4.7.7 9.4-2 3-4.5 5.5-7.9 6.1 0 0-8.8 25.2-22.4 25.5-14 0-37.7-15.3-45.2-10.9-3.7 2-5.1 5.1-5.1 5.1s-5.1-3.4-5.4-8.8c.3-.3-16.4-9.5-2.8-21 0 0 9.2-4.8 2-13-7-7.8 0-13.2 1.4-14.9 1.7-1.4 6.5-4 2-8.8-3.7-4.1-2.6-9.2-2.6-12.3 0-1.6-.4-4-1-5.7-1-3-2.4-5.1-2.8-8.9z" clip-rule="evenodd"/><path fill="#B1B6B8" fill-rule="evenodd" stroke="#B1B6B8" stroke-miterlimit="2.6" stroke-width=".3" d="M46.4 240.8s-.3-.3-.7-.3c0 0 3.4-4.8-1-5.8 0 0 5.8 1 1.7 6.1z" clip-rule="evenodd"/><path fill="#2C2B2C" fill-rule="evenodd" d="M26 176s5.8 3.7 10.2 3.7c0 0 10.9-7.8 22.4 0 6.8-1.4 26.9-10.2 41.2 4 0 0 9.2-6 15 2 6 8.2-2.1 17.4-3.5 19.1 0 0 4.5 16.3-2.3 41.4 0 0 4.7-1.3 5-7 0 0-1.3-.4-1.3-2.1a3 3 0 0 1 2.4-3c3 0 3.7 4.7.7 9.4-2 3-4.5 5.5-7.9 6.1 0 0-8.8 25.2-22.4 25.5-14 0-37.7-15.3-45.2-10.9-3.7 2-5.1 5.1-5.1 5.1s-5.1-3.4-5.4-8.8c.3-.3-16.4-9.5-2.8-21 0 0 9.2-4.8 2-13-7-7.8 0-13.2 1.4-14.9 1.7-1.4 6.5-4 2-8.8-3.7-4.1-2.6-9.2-2.6-12.3 0-1.6-.4-4-1-5.7-1-3-2.4-5.1-2.8-8.9zm13.3 4.4c.3 0 7.5-5.1 15.3-.4 0 0-8.2 2-15.3.4zm-3 59.7c-2.8.4-3.8 0-5.5.4-3.4.3-5.8 2.7-6.8 6-.7 2.1-.7 5.2 1.3 6.2 1 .7 2.8 0 3.4-1 .7-1.4.4-3.8-1.7-4.1-1.3-1.4 0-2.7 1.4-4 1-1 6.1-3.1 9.9 2.3 0 0-1.7-3-2-5.8zm7-23.7c0 5-3 8.1-6.4 9.1-2 .4-4 0-5.4-1.3s-2-3.8-1.4-5.8c.3-1.4 2-3 3.4-2.7.3 4.4 4.4 3.7 5.1 1.7.3-1 0-2.7-1.4-3.4s-3.7-.7-5 0c-2.1 1-3.8 3-4.1 5-.4 2.8.3 5.2 2.3 6.9 2 2 6.2 2.3 8.5 1.3 6.8-3.4 4.5-10.8 4.5-10.8zm45.3 24s1.3 3.5 4 5.8c0 0-5.4 18.7-17.3 12 0-.4 5.1-4.5 7.8-7.5 3.4-4.1 5.5-10.2 5.5-10.2zm6-18s1.4 8.6-1 20.1c0 0-3.3-2.7-3.3-9.8 0-3.4 1.3-6.5 4.4-10.2zM83.9 194s7.5 7.9 10.5 25.2c0 0-7.4 6.4-7.1 13.6.3 7.4-4 20-15.6 23.7 0 0-2.4-1-4.5-2.3 0 0 11-2.8 14-11.6 3.4-8.8.7-19.7-1.4-26.8-2.4-7.2-3.7-14.3 4.1-21.8zm-51.3-3.4c.3.4 8.8 7.2 18 7.9 0 .3-6.1 10.1 3.7 22.7 9.9 12.6 9.5 16.7 8.2 19.7-4.4 9.5-15.3 3.7-21 6.1 0 0-7.6-8.8-.4-16.3 6-6.4 13.2-1 14 4.1.6 7.1-6.2 8.5-9.3 5.8 0 0 3.4-4.8-1-5.8-2.7-.7-4.4 3.7-.7 6.8 4.5 3.7 13.6 2.4 13.6-5.8 0-8.5-10.5-11.5-15.3-8.8 0 0 8.5-10.2-1.7-20 1 .3 6.2-2 6.8-4.8.4-1.4-.6-2.4-1.7-2.7s-4-.4-3 4c0 0-12 3.4-10.2-12.9zm69.7-4.4s4.7 4.8 8.5 15.7c0 0 6.8-7.9 2.7-14.6-3.8-5.8-10.9-1-11.2-1z" clip-rule="evenodd"/><path fill="#B1B6B8" fill-rule="evenodd" stroke="#B1B6B8" stroke-miterlimit="2.6" stroke-width=".3" d="M63.7 180.7c15-5 30.3-2.7 37.4 9.2 5.5 9.1 6.5 15.3 6.5 15.3L96.4 217s-5.1-28.5-20.8-30.5c-6-1-12.2 3.4-17.3 5.7-6.8 2.8-24.1 3.4-29.2-12.9 0 0 1.3 3.4 10.5 4.1a68 68 0 0 0 24.1-2.7zm38.1 69.3s-9.2 22.7-25.1 18.3c-10.6-3-25.5-12.2-35.7-11.9-2 .4-4.8.4-8.2 3 0 0-1.3-13.2 16.7-9.4 15 3 29.9 18.7 39 8.5 3.1-3.4 4.8-7.2 6.2-10.9 0 0 2.7 2 7.1 2.4zM97 220.8l11-12s3 17.7-5.2 38.5c-4-.4-7.1-2.8-7.1-2.8 2.7-11.5 1.4-23.7 1.4-23.7z" clip-rule="evenodd"/><path fill="#B1B6B8" fill-rule="evenodd" stroke="#B1B6B8" stroke-miterlimit="2.6" stroke-width=".3" d="M73 194.6c-3.5 8.9-.8 16.7 2 24.1 3.7 11.6 4.4 33.7-16.4 30.6 4.1-1.7 14.7-5.4 8.9-23.4-6.5-19-3-25.5 5.4-31.3z" clip-rule="evenodd"/><path fill="#B1B6B8" fill-rule="evenodd" stroke="#B1B6B8" stroke-miterlimit="2.6" stroke-width=".3" d="M56 197.7s-5.8 8.8 3.3 19.7c6.5 7.8 7.5 15.6 6.5 19.7-2-8.5-4.4-10.9-8.2-16-7.1-8.8-9.1-18-1.7-23.4z" clip-rule="evenodd"/><path fill="#B1B6B8" fill-rule="evenodd" d="M42.7 203.5s-12 3.4-10.2-13c.3 0 .7.7 1.7 1.4 0 0-1.7 12.6 8.5 11.6z" clip-rule="evenodd"/><path fill="none" stroke="#B1B6B8" stroke-miterlimit="2.6" stroke-width=".3" d="M42.7 203.5s-12 3.4-10.2-13l1.7 1.4s-1.7 12.6 8.5 11.6z"/><path fill="#B1B6B8" fill-rule="evenodd" d="m45.4 225.9-3 1s8.4-10.2-1.8-20c.7 0 2.8-.7 4.5-1.7 1.7-1 2.3-2.4 2.3-3.8 0 0 1 4-4.4 6.1-.3 0 7.5 7.2 2.4 18.4z" clip-rule="evenodd"/><path fill="none" stroke="#B1B6B8" stroke-miterlimit="2.6" stroke-width=".3" d="m45.4 225.9-3 1s8.4-10.2-1.8-20c.7 0 2.8-.7 4.5-1.7 1.7-1 2.3-2.4 2.3-3.8 0 0 1 4-4.4 6.1 0 0 7.5 7.2 2.4 18.4z"/><path fill="#B1B6B8" fill-rule="evenodd" stroke="#B1B6B8" stroke-miterlimit="2.6" stroke-width=".3" d="M45.4 242.5c4 2.4 11.9 1.4 12.2-6.8 0-3-1.3-5-3.4-7.1 0 0 7.8 5.8 3.4 12.2-4 6.8-12.2 1.7-12.2 1.7z" clip-rule="evenodd"/><path fill="#B1B6B8" fill-rule="evenodd" d="M42.3 232c-5 6.4 0 14.6 0 14.6-.3 0-.6.3-1 .3 0 0-7.5-8.8-.3-16.3 3.7-3.7 7.5-3.4 10.9-1 0 0-6.5-1.7-9.6 2.4z" clip-rule="evenodd"/><path fill="none" stroke="#B1B6B8" stroke-miterlimit="2.6" stroke-width=".3" d="M42.3 232c-5 6.4 0 14.6 0 14.6s-.6.3-1 .3c0 0-7.5-8.8-.3-16.3 3.7-3.7 7.5-3.4 10.9-1 0 0-6.5-1.7-9.6 2.4z"/><path fill="#FFF" fill-rule="evenodd" d="M37.2 185.1a46 46 0 0 0 28-2.7c9-3.7 23.7-3.4 30.8 5 7.2 9.3 9.2 20.1 9.2 20.1l-6.8 7.5s-3-15.6-9.8-24.5c-6.8-9.1-17.4-7.8-24.9-4.4-9.5 4.8-16.3 7.2-26.5-1zm63.6 61.9s5.8-15.7 4.8-33.7l-6.2 6.5s1.7 10.1-2.3 25.4c0 0 2 1.4 3.7 1.7z" clip-rule="evenodd"/><path fill="#FFF" fill-rule="evenodd" d="M68.8 244.9c-.3 0 11.3-6.1 3.4-26.5-5.4-14.3-2.7-18.7-2.7-18.7s-5.8 6.8-1.7 20.7c4.4 14 4.1 18.4 1 24.5zm31 4.7S92 270 77.3 266.3c-13.9-3.4-24.8-12.6-32.6-12.6-2.4.4-6.1-.3-9.5 2.4 0 0 1-7.1 14-4.8 12.2 2.4 29.2 18.7 39.7 8.5 3-2.7 5.8-7.8 7.1-11.5 0 0 2 1 3.8 1.3z" clip-rule="evenodd"/><path fill="none" stroke="#2C2B2C" stroke-miterlimit="2.6" stroke-width=".3" d="M26 176s5.8 3.7 10.2 3.7c0 0 10.9-7.8 22.4 0 6.8-1.4 26.9-10.2 41.2 4 0 0 9.2-6 15 2 6 8.2-2.1 17.4-3.5 19.1 0 0 4.5 16.3-2.3 41.4 0 0 4.7-1.3 5-7 0 0-1.3-.4-1.3-2.1a3 3 0 0 1 2.4-3c3 0 3.7 4.7.7 9.4-2 3-4.5 5.5-7.9 6.1 0 0-8.8 25.2-22.4 25.5-14 0-37.7-15.3-45.2-10.9-3.7 2-5.1 5.1-5.1 5.1s-5.1-3.4-5.4-8.8c0 0-16.4-9.5-2.8-21 0 0 9.2-4.8 2-13-7-7.8 0-13.2 1.4-14.9 1.7-1.4 6.5-4 2-8.8-3.7-4.1-2.6-9.2-2.6-12.3 0-1.6-.4-4-1-5.7-1-3-2.4-5.1-2.8-8.9z"/><path fill="#2C2B2C" fill-rule="evenodd" d="M335.3 112.8c2-1.7 5.1-4.1 8.2-3.8a10 10 0 0 1 7.5 4.5c.6 1 3 4.7 3.7 9.8V145l2.4-.3 2 3-2.7 7.9-10.5 1-2-3v-33H342c-4 0-6.1 5.8-6.1 7.5v34l-8.8.3-2-3v-35l-3.5-4.1 3-7.9 9.3-.6 1.3 1z" clip-rule="evenodd"/><path fill="#FFF" fill-rule="evenodd" stroke="#2C2B2C" stroke-miterlimit="2.6" stroke-width=".2" d="M333 112.8v4.7s5-7.8 10.5-7.4c6.4.3 8.1 8.1 8.1 8.1v27.9l4.1-.4-2 6.1-8.9.4v-31.3c-1-5-4.7-4.4-4.7-4.4-5.1 0-7.2 7.1-7.2 8.8V158l-6.8.4V119l-2.7.3 2-5.7 7.5-.7z" clip-rule="evenodd"/><path fill="#FFF" fill-rule="evenodd" d="M333 112.8v4.7s5-7.8 10.5-7.4c6.4.3 8.1 8.1 8.1 8.1v27.9l4.1-.4-2 6.1-8.9.4v-31.3c-1-5-4.7-4.4-4.7-4.4-5.1 0-7.2 7.1-7.2 8.8V158l-6.8.4V119l-2.7.3 2-5.7 7.5-.7z" clip-rule="evenodd"/><path fill="#2C2B2C" fill-rule="evenodd" d="m317 115.5-8.9.3-2-2.7V104l8.8-.6 2 3v9.2zm0 53.7-8.9.6-2-3v-35.3l-3.4-3.8 3-8.1 9.2-.7 2 3v47.3z" clip-rule="evenodd"/><path fill="#FFF" fill-rule="evenodd" stroke="#2C2B2C" stroke-miterlimit="2.6" stroke-width=".2" d="M314 104.3v7.1l-6.9.4V105l6.8-.7zm0 15.6v45.2l-6.9.7v-39.4h-2.7l2-5.8 7.5-.7z" clip-rule="evenodd"/><path fill="#FFF" fill-rule="evenodd" d="M314 104.3v7.1l-6.9.4V105l6.8-.7zm0 15.6v45.2l-6.9.7v-39.4h-2.7l2-5.8 7.5-.7z" clip-rule="evenodd"/><path fill="#2C2B2C" fill-rule="evenodd" d="M290.1 138c-1-.4-2-.8-3-.4-1.4.6-2.8 1.3-3.1 3.7v5.8l6.1-.7v-5.1c.4-1.7.4-2 0-3.4zm1 9.4v-6c.4-2.5 0-3.8-1-5.5-1.3-1.7-3.7-2-5.8-1.4-1.3 1-3 1.4-3.7 3.7v9.9l10.5-.7z" clip-rule="evenodd"/><path fill="#2C2B2C" fill-rule="evenodd" d="M280.6 165.8c.3 1.3 1.4 3.4 3.7 3.7a6 6 0 0 0 5.1-1.7c2-1.7 1.7-6.8 1.7-6.8l6.2-.3c-.4 6.8-1 9.1-4.8 12.2-3 1.7-7.5 2.7-10.9 1.3-4.7-1.3-6.8-4.7-7.1-9.5v-25c.3-4.2 2.7-7.2 5.8-9.3 5.7-3 12.9-2 16 3.4 1.3 2 1 4.1.6 7.2v11.9l-16.3 1.3v11.6zm19.7-2c-.3 6.7-1 9.8-5 12.8-3.5 1.7-8.2 3.4-12.3 1.7-1.7-.7-3.4-1.7-4.4-3-1.7-1-4.8-4.1-5.1-10.6v-25c.3-4.5 3-7.9 6.4-10 5.1-3 11.2-2.7 15.3 1l3.8 5.5.3.4c.7 1 1 2 1 3.3V157l-16.6 1.3s0 9.8.3 9.8l.3.4c1.7.3 3.1-.4 4.5-1.4 1.3-1.3 1.3-5.8 1.3-5.8v-1l8.2-.3 2 3.7z" clip-rule="evenodd"/><use xlink:href="#a" fill-rule="evenodd" clip-rule="evenodd"/><path fill="none" stroke="#2C2B2C" stroke-miterlimit="2.6" stroke-width=".2" d="M291.1 147.4v-6c.4-2.5 0-3.8-1-5.5-1.3-1.7-3.7-2-5.8-1.4-1.3 1-3 1.4-3.7 3.7v9.9l10.5-.7zm-10.5 18.4c.3 1.3 1.4 3.4 3.7 3.7a6 6 0 0 0 5.1-1.7c2-1.7 1.7-6.8 1.7-6.8l6.2-.3c-.4 6.8-1 9.1-4.8 12.2-3 1.7-7.5 2.7-10.9 1.3-4.7-1.3-6.8-4.7-7.1-9.5v-25c.3-4.2 2.7-7.2 5.8-9.3 5.7-3 12.9-2 16 3.4 1.3 2 .6 4.1.6 7.2v11.9l-16.3 1.3v11.6z"/><use xlink:href="#a" fill-rule="evenodd" clip-rule="evenodd"/><path fill="#2C2B2C" fill-rule="evenodd" d="m269.7 136.9 1.7 3-2 7.5-5.5.4v29.5l4.8-.3 2 3-2.7 7.5-13.2 1-2.1-3v-36L249 145l2.4-6.8h1.3v-10.5l8.9-.7 2.3 4.1v6.1l5.8-.3z" clip-rule="evenodd"/><path fill="#FFF" fill-rule="evenodd" stroke="#2C2B2C" stroke-miterlimit="2.6" stroke-width=".2" d="m260.5 138.6 7.9-.4-1.4 5.1-6.5.4v35l6.8-.4-2 5.5-11.5.6v-40l-3.5.3 1.8-5.4h1.7v-10.6l6.7-.6v10.5z" clip-rule="evenodd"/><path fill="#FFF" fill-rule="evenodd" d="m260.5 138.6 7.9-.4-1.4 5.1-6.5.4v35l6.8-.4-2 5.5-11.5.6v-40l-3.5.3 1.8-5.4h1.7v-10.6l6.7-.6v10.5z" clip-rule="evenodd"/><path fill="#2C2B2C" fill-rule="evenodd" d="M230.6 188.5c1 .4 2.4 0 3.4-.3 1.7-1 2.4-2.7 2.8-4.4 0-1.4 0-2.4-.4-3.4v-2c-1-.4-2-.4-3-.8-1.4 0-2.8.4-3.8 0-1.3 0-2.7-.3-3.4-1-.7-.3-1-.7-1.3-1.3l-2.8-3.4c-3-3.8-3-9.2-2.7-13.6 1-3.7 3.4-7.8 7.2-9.5 5.4-2.7 12.9-1.4 16.3 3.4l2.4 3.7c1 1.7 1.6 3.7 1.6 5.8v1l-8.1.7-2-3-.4-2.5c-.3-.3-1-.3-1.3-.3-.7 0-1.7 0-2.4.3-2 1-3 2.8-3 4.8 0 1-.4 2 0 2.7l.3 2.4c1.3 0 2.3-.3 3.7-.3 1 0 2.4.3 3.7.3 2.4.7 4.8 1.7 6.2 4l2 3.1c1.3 1.7 1.3 4.1 1.3 6.5v6.4l-.3.4c-1 3-2.7 6-5.8 8.1-2.7 1.7-6.4 3-9.8 2a15 15 0 0 1-7.5-4c-2-2-3.7-6.1-4-10.2v-1l7.7-.7 3.4 6.1z" clip-rule="evenodd"/><use xlink:href="#b" fill-rule="evenodd" clip-rule="evenodd"/><path fill="none" stroke="#2C2B2C" stroke-miterlimit="2.6" stroke-width=".2" d="M242.5 153.5c.7 1.4 1.4 3.4 1.4 5.5l-6.1.3c0-2-.7-3.7-2.4-4.8-1-1.3-3.4-1-5.1-.6a6.3 6.3 0 0 0-3.7 5.7c0 4.1-.4 7.9 3.4 9.2 4.4-.3 10.2-.7 12.9 3.7 1.7 3.4 1 8.2 1 12.3a16 16 0 0 1-5.4 7.8c-2.8 1.3-6.2 2.7-9.6 2-3.7-.7-7.8-3.7-8.5-10.5l5.5-.3c.3 2 1.3 4.4 3.7 5.4 1 .7 3.4.3 4.8-.3 4.7-2.4 3-7.9 3-12-2.3-5.4-9.8-1.6-12.5-4-4.8-3.4-5.1-9.5-4.5-14.6 1-3 3.4-7.1 6.5-8.5 5.4-2.7 13-1 15.6 3.7z"/><use xlink:href="#b" fill-rule="evenodd" clip-rule="evenodd"/><path fill="#2C2B2C" fill-rule="evenodd" d="m212 161.7 2 2.7s.7 4.4.7 8.5c0 3.4-.7 8.1-3.1 10.9 2.4 2.3 3 6.4 3 9.5 0 2.7-.3 3-.3 3l2.7-.3 2 3-2.6 7.5-11.3 1-1.7-3v-15.3c-.6-.3-1-.3-2-.3s-4.4.6-5.8.6v23.8l-8.8.7-2-3v-51l-2.8-3.4 2.4-8.2 9.2-.3 2 3.4V178c2 0 3.4 0 5.8-.4 3-1.3 2-13.5 2-14.2l-.3-1.4 8.8-.3z" clip-rule="evenodd"/><path fill="#FFF" fill-rule="evenodd" stroke="#2C2B2C" stroke-miterlimit="2.6" stroke-width=".2" d="M192.6 149.1v30.2s6-.3 8.8-.6c4.4-1.7 3-15.7 3-15.7l6.9-.3s2.3 13.2-3.1 18.3c5.1 3.4 3 16.3 3 16.3l4.5-.3-1.7 5.4-9.5.7v-15.6c-1.7-4.8-7.9-1.7-12-2v23.7l-6.7.7v-54.7h-2l1.6-5.7 7.2-.4z" clip-rule="evenodd"/><path fill="#FFF" fill-rule="evenodd" d="M192.6 149.1v30.2s6-.3 8.8-.6c4.4-1.7 3-15.7 3-15.7l6.9-.3s2.3 13.2-3.1 18.3c5.1 3.4 3 16.3 3 16.3l4.5-.3-1.7 5.4-9.5.7v-15.6c-1.7-4.8-7.9-1.7-12-2v23.7l-6.7.7v-54.7h-2l1.6-5.7 7.2-.4z" clip-rule="evenodd"/><path fill="#2C2B2C" fill-rule="evenodd" d="M165 212.3c1.7.3 3.1-.4 4.1-1.4 1.7-1.3 1.7-5.7 1.7-5.7v-1.4l8.2-.3 2 4c-.3 6.8-1.3 9.9-5.4 13a16 16 0 0 1-12.6 1 14.6 14.6 0 0 1-9.2-13v-25c.7-4.8 3-7.9 6.5-10.3 6-3.4 14-2 17.7 4.1.6 1 2.7 5.1 2.7 6.5v4.7l-7.8.7-2.4-3 .3-1v-2.5c-1 0-1.7 0-2.7.4l-1 .3-1 .7c-.4.3-1 .7-1 1.7v26.5z" clip-rule="evenodd"/><path fill="#FFF" fill-rule="evenodd" stroke="#2C2B2C" stroke-miterlimit="2.6" stroke-width=".2" d="M177 177.6c1 2 .6 4.1.6 7.2l-5.8.3a7 7 0 0 0-1-5.4 5.4 5.4 0 0 0-5.8-1.4c-1.3.7-3.4 1.4-3.7 3.8v27.5c.3 1.3 1.4 3.4 3.7 3.7 1.7.3 3.4-.3 4.8-1.7 2-1.7 2-6.8 2-6.8l6.2-.3c-.4 6.8-1.4 9.1-4.8 11.9-3.4 2-7.8 3-11.2 1.7a10.8 10.8 0 0 1-7.2-9.9v-25.1c.4-3.8 2.8-6.8 6.2-8.9 5.7-3 12.5-2 16 3.4z" clip-rule="evenodd"/><path fill="#FFF" fill-rule="evenodd" d="M177 177.6c1 2 .6 4.1.6 7.2l-5.8.3a7 7 0 0 0-1-5.4 5.4 5.4 0 0 0-5.8-1.4c-1.3.7-3.4 1.4-3.7 3.8v27.5c.3 1.3 1.4 3.4 3.7 3.7 1.7.3 3.4-.3 4.8-1.7 2-1.7 2-6.8 2-6.8l6.2-.3c-.4 6.8-1.4 9.1-4.8 11.9-3.4 2-7.8 3-11.2 1.7a10.8 10.8 0 0 1-7.2-9.9v-25.1c.4-3.8 2.8-6.8 6.2-8.9 5.7-3 12.5-2 16 3.4z" clip-rule="evenodd"/><path fill="#2C2B2C" fill-rule="evenodd" d="m148.4 218.7 2.4-.3 2 3.4-3 7.8-6.2.3c-.7.7-1 1-1.7 1.4a7 7 0 0 1-2 1.4 12 12 0 0 1-12.6.3 13.2 13.2 0 0 1-6.8-9.2v-22.4l-3-5.8 2.3-7 8.5-.8 3 4.4v31.6s-.3 0 1.1.4a5 5 0 0 0 3.7-1.4c.7-.3 1.4-1.3 1.4-2V184l8.2-.3 2.7 4v31z" clip-rule="evenodd"/><path fill="#FFF" fill-rule="evenodd" stroke="#2C2B2C" stroke-miterlimit="2.6" stroke-width=".2" d="M145.3 184.8v35h4.1l-2.4 5.7-6.1.4c-1 1.3-2 2.3-3.4 3a12.2 12.2 0 0 1-12.2.4 8.3 8.3 0 0 1-3.8-5.8v-28.9h-2.3l1.7-5 7.4-.7v32.9c.4 2 2.4 3 3.8 3.4 1.7 0 3.4-.4 4.7-1.4 1-1 1.7-2.7 1.7-2.7v-36l6.8-.3z" clip-rule="evenodd"/><path fill="#FFF" fill-rule="evenodd" d="M145.3 184.8v35h4.1l-2.4 5.7-6.1.4c-1 1.3-2 2.3-3.4 3a12.2 12.2 0 0 1-12.2.4 8.3 8.3 0 0 1-3.8-5.8v-28.9h-2.3l1.7-5 7.4-.7v32.9c.4 2 2.4 3 3.8 3.4 1.7 0 3.4-.4 4.7-1.4 1-1 1.7-2.7 1.7-2.7v-36l6.8-.3z" clip-rule="evenodd"/></svg>