<svg xmlns="http://www.w3.org/2000/svg" xml:space="preserve" viewBox="0 0 671.6 727.7"><path fill="#FFF" d="m663.7 387 .4-29-.4-29.6A328.1 328.1 0 0 0 335.7 0 327.4 327.4 0 0 0 8 328l-1 30 .9 29.1a327.8 327.8 0 1 0 655.8 0z"/><path fill="#CAB55E" d="M656.6 386.2a321 321 0 0 1-321 321.3A320.7 320.7 0 0 1 15 386.3l-.8-28 1-29.1A320.3 320.3 0 0 1 335.5 8.4a321 321 0 0 1 321 321.4l.4 28.4-.4 28z"/><path fill="#FFF" d="m624.7 358-.3 25.5c0 161-129.1 291.5-288.8 291.5C176 675 47.2 544.6 47.2 383.6l-.8-25.6.8-26.4c0-161 128.8-291 288.4-291C495.3 40.5 624.4 171 624.4 332l.3 26z"/><path fill="#272059" fill-rule="evenodd" d="m614.6 358-.4 24.7c0 155.8-124.5 282.2-278.6 282.2-154 0-278.3-126.3-278.3-282.2l-.8-24.7.8-25.6c0-155.8 124.3-281.7 278.3-281.7S614.2 177 614.2 332.9l.4 25.1zm-5.1 0-.3 24.3c0 153.2-122.3 277.5-273.6 277.5-151.2 0-273.3-124.2-273.3-277.5l-.7-24.3.8-25.2c0-153.2 122-277 273.2-277C487 55.8 609.2 180 609.2 333.3l.3 24.7z" clip-rule="evenodd"/><path fill="#272059" fill-rule="evenodd" d="m503 358-.3 15.6c0 99.3-74.7 179.7-167.1 179.7-92.4 0-167-80.4-167-179.6l-.5-15.8.5-16.3c0-99.2 74.6-179.4 167-179.4S502.7 242.7 502.7 342l.2 16zm-5.1 0-.2 15.2c0 96.7-72.5 175-162.1 175s-162-78.3-162-175l-.4-15.3.5-15.9c0-96.6 72.3-174.7 161.9-174.7 89.6 0 162 78.4 162 175l.3 15.6z" clip-rule="evenodd"/><path fill="#CAB55E" d="M202.7 435v-9.2l5.4 7.4 8.7-2.7-5.4 7.4 5.4 7.3-8.7-2.8-5.4 7.5v-9.2l-8.7-3 8.7-2.7zm265.6 0v-9.2l-5.3 7.4-8.7-2.7 5.4 7.4-5.4 7.3 8.7-2.8 5.3 7.5v-9.2l8.8-3-8.8-2.7zm-264.6-30.2-.5-2.5-6.8 1.3-.8-4.2-2.6.5.8 4.2-3.7.8-.9-4.5-2.6.5 1.4 7 15.7-3zm-2.7-16.7-2.6.3.6 4.6-13.2 1.6.3 2.6 15.8-2-.9-7zm-16-1.5 15.8-1.1-.5-7.3-2.6.2.3 4.7-4.3.3-.3-4.3-2.6.2.3 4.3-3.7.3-.4-4.6-2.6.2.5 7.1z"/><path fill="#CAB55E" fill-rule="evenodd" d="m184.4 375.2 16-.6-.1-2.4-11.2.4 11-3.5v-3l-16 .6.1 2.3 11-.3-10.9 3.5.1 3z" clip-rule="evenodd"/><path fill="#CAB55E" d="M195 362.2h.7c3 0 4.6-1.3 4.5-4.2-.1-2.8-1.7-4.4-5-4.3-2 .1-3.2.6-4.2 2.6l-1 2c-.5 1.1-1.1 1.4-2.1 1.4s-1.9-.2-2-1.4c0-1 .9-1.4 2.4-1.4v-2.5h-.5c-3.1.1-4.3 1.8-4.2 4.1 0 2.4 1.7 3.9 4.8 3.8 2.7-.1 3.8-1.2 4.7-3.5.7-1.7 1.2-2.4 2.7-2.4 1.3 0 2 .7 2 1.5 0 1.3-.9 1.7-2.4 1.7h-.5l.1 2.6z"/><path fill="#CAB55E" fill-rule="evenodd" d="m200 350.8.2-4.4c.1-3-2-4-4.5-4.1-2.1-.1-3.5.8-3.8 2.2-.4-1.3-1.7-2-3.4-2.1-3.1-.1-4.1 1.4-4.2 3.5l-.2 4.3 16 .6zm-13.4-3v-1c0-1.3.6-1.9 2.2-1.8 1.5 0 2 .7 2 2.1v.8l-4.2-.2zm6.4.1v-1c0-1.2.7-2 2.5-2 1.9.1 2.4 1 2.3 2.2v1l-4.8-.2z" clip-rule="evenodd"/><path fill="#CAB55E" d="m184.4 337.6 11.2.4c4.2.2 5.2-1.8 5.2-3.9.1-2-.9-4-5-4.2l-11-.4-.2 2.6 11.2.4c1.5 0 2.7.4 2.7 1.6 0 1.2-1.3 1.4-2.9 1.4l-11-.4-.2 2.5z"/><path fill="#CAB55E" fill-rule="evenodd" d="m187.7 322.8.2-1.2c.1-1.1 1-1.7 2.4-1.5 1.7.2 2.3 1 2.1 2.2l-.1 1-4.6-.5zM201 327l.3-2.5-6.7-.8.2-1.4c.1-1 1-1.4 2.2-1.3l3 .3h1.7l.4-2.9h-.2c-.3.5-1.2.4-2.9.3-3.3-.4-4.6-.3-5 1.4h-.1c-.2-1.5-1.5-2.3-3.7-2.6-2.7-.3-4.2.8-4.5 2.9l-.5 4.7 15.8 2z" clip-rule="evenodd"/><path fill="#CAB55E" d="M192.9 305.5c-3.2-.6-5.2.2-5.7 3-.7 3.2 1.9 4.7 7.1 5.7 5.4 1.1 8.5 1 9-2 .3-1.2 0-2.2-1.2-3l1.5.2.3-1.9-8.4-1.6-.8 4.1 2.3.4.3-1.6 1.6.3c1.7.3 2.4 1.4 2.2 2-.2 1.5-2.7 1.3-6.4.6-4-.8-5.4-1.6-5.2-2.8.2-1 1.8-1.2 3-1l.4-2.4zm-3.7-5.2 15.4 4.1 2-7-2.6-.7-1.3 4.5-4.1-1 1.1-4.2-2.5-.7-1.2 4.2-3.6-1 1.2-4.4-2.5-.7-1.9 6.9z"/><path fill="#CAB55E" fill-rule="evenodd" d="m195.3 287.7.4-1.1c.3-1.1 1.2-1.5 2.6-1 1.7.5 2 1.4 1.7 2.5l-.3 1-4.4-1.4zm12.1 6.7.8-2.5-6.4-2 .4-1.4c.4-1 1.2-1.1 2.4-.8l3 .9c.6.2 1.1.3 1.6.2l1-2.6h-.2c-.5.3-1.3 0-3-.4-3.1-1-4.4-1.2-5.2.4 0-1.5-1.1-2.6-3.1-3.2-2.6-.9-4.3 0-5 2l-1.4 4.5 15.1 4.9zm5.7-15.5 1.8-4c1.3-2.7-.2-4.5-2.5-5.5-2-1-3.5-.7-4.4.5.1-1.4-.8-2.5-2.3-3.3-2.8-1.3-4.3-.3-5.2 1.6l-1.9 4 14.5 6.7zm-11.2-8.1.4-.8c.5-1.2 1.3-1.5 2.6-.9 1.4.7 1.7 1.5 1 2.8l-.2.7-3.8-1.8zm5.8 2.7.5-1c.4-1 1.3-1.6 3-.8 1.6.8 1.8 1.8 1.3 3l-.4.8-4.4-2zm-.3-13.8.6-1c.5-1.1 1.5-1.3 2.8-.6 1.5.9 1.7 1.8 1.1 2.9l-.5 1-4-2.3zm10.6 8.8 1.3-2.2-6-3.3.7-1.2c.5-1 1.4-1 2.5-.4l2.8 1.5c.5.2 1 .5 1.6.5l1.3-2.5c-.6.3-1.4-.1-2.9-.9-3-1.6-4.1-2-5.2-.6.3-1.4-.6-2.7-2.5-3.8-2.4-1.3-4.2-.8-5.2 1l-2.3 4.2 14 7.7zm5.2-9 1.4-2.3-2.5-2.3 1.9-2.9 3.1 1.4 1.5-2.3-15.3-5.8-1.7 2.6 11.6 11.6zm-8.4-11.4 6.7 2.9-1.4 2-5.3-4.9z" clip-rule="evenodd"/><path fill="#CAB55E" d="m217.1 239.7 8.8 6.9c3.4 2.6 5.3 1.6 6.6 0 1.3-1.7 1.6-4-1.6-6.4l-8.7-6.9-1.6 2 8.7 6.9c1.3 1 2 2 1.3 2.9-.7 1-1.9.4-3.1-.5l-8.8-6.9-1.6 2zm7.8-9.7 11.8 10.7 5-5.4-2-1.8-3.2 3.5-3.2-2.8 2.9-3.2-2-1.8-2.8 3.2-2.8-2.5 3-3.4-2-1.8-4.7 5.3z"/><path fill="#CAB55E" fill-rule="evenodd" d="m236 221.7.9-.9c.8-.8 1.8-.7 2.8.4 1.2 1.2 1.2 2.2.3 3l-.8.8-3.2-3.3zm7.6 11.5 1.8-1.7-4.7-4.9 1-1c.8-.7 1.6-.4 2.5.4l2.2 2.2 1.4 1 2-2c-.6 0-1.3-.5-2.5-1.7-2.4-2.4-3.4-3.1-4.8-2.1.7-1.3.2-2.8-1.3-4.3-1.9-2-3.8-2.1-5.3-.6l-3.4 3.3 11 11.4z" clip-rule="evenodd"/><path fill="#CAB55E" d="m241.7 213.2 10.3 12.2 5.6-4.7-1.7-2-3.6 3-2.8-3.2 3.3-2.8-1.7-2-3.3 2.7-2.4-2.8 3.5-3-1.7-2-5.5 4.6zm20.1 4.5-9.1-13-2.1 1.5 9.1 13 2.1-1.5zm-.1-19.1 8 13.8 6.3-3.6-1.3-2.3-4 2.4-2.2-3.7 3.7-2.2-1.3-2.3-3.8 2.2-1.8-3.3 4-2.3-1.4-2.2-6.2 3.5z"/><path fill="#CAB55E" fill-rule="evenodd" d="m278.1 207.5 2.2-1L275 195l7.3 10.7 1.8-.8-3.1-12.5 5.2 11.6 2.2-1-6.5-14.6-3.5 1.6 3 11h-.1l-6.3-9.5-3.5 1.6 6.5 14.5z" clip-rule="evenodd"/><path fill="#CAB55E" d="m294 201-5.1-15.1-2.5.8 5.2 15 2.5-.8zm10.6-3.3-.7-2.5-4.4 1.2-3.7-12.8-2.4.7 4.4 15.4 6.8-2z"/><path fill="#CAB55E" fill-rule="evenodd" d="m311 196.3 2.4-.5-1-6.3 1.3-.2c2.4-.4 3.7-2.2 3.2-5.4-.5-2.4-1.8-4.6-4.3-4.1l-4.5.8 2.8 15.7zm0-13.9 1.1-.1c1.3-.3 2 .5 2.2 2 .3 1.7-.2 2.5-1.2 2.7l-1.2.2-.8-4.8z" clip-rule="evenodd"/><path fill="#CAB55E" d="m319.4 178.8 1.3 15.9 7.3-.6-.2-2.7-4.7.5-.4-4.3 4.3-.4-.2-2.6-4.3.3-.3-3.7 4.5-.4-.2-2.6-7.1.6zm10.3-.8v2.6h2.8l.3 13.3h2.5l-.2-13.4h2.8v-2.7l-8.2.1zm11.7 0-1.1 15.9 7.3.5.2-2.7-4.8-.3.3-4.3 4.3.3.2-2.6-4.3-.3.3-3.7 4.5.3.2-2.7-7.1-.5z"/><path fill="#CAB55E" fill-rule="evenodd" d="m354.9 181.6 1.2.2c1.1.2 1.6 1 1.4 2.5-.3 1.7-1 2.2-2.3 2l-1-.1.7-4.6zm-4.7 13 2.6.4 1-6.6 1.4.2c1 .1 1.3 1 1.2 2.2l-.4 3c-.1.7-.2 1.3 0 1.8l2.8.4v-.1c-.4-.4-.4-1.3-.1-3 .5-3.3.4-4.5-1.3-5v-.1c1.5-.2 2.4-1.5 2.7-3.6.5-2.7-.6-4.3-2.7-4.6l-4.7-.7-2.5 15.7z" clip-rule="evenodd"/><path fill="#CAB55E" d="m362.2 191.6-.2.6c-.6 2.9.1 4.8 3 5.4 2.7.7 4.6-.4 5.4-3.7.4-2 .2-3.2-1.4-4.7l-1.7-1.5c-1-.8-1-1.4-.8-2.4.2-1 .7-1.7 1.8-1.5 1 .2 1.2 1.2.8 2.6l2.4.6.1-.4c.7-3-.6-4.6-2.8-5.1-2.4-.5-4.3.7-5 3.7-.6 2.6.2 4 2.2 5.4 1.5 1.1 2 1.8 1.6 3.2-.3 1.3-1.1 1.8-1.9 1.6-1.3-.3-1.4-1.3-1.1-2.8l.1-.5-2.5-.5zm14.4-7.6-5 15.2 7 2.2.9-2.5-4.6-1.5 1.4-4 4 1.3.9-2.5-4.1-1.3 1.1-3.6 4.4 1.4.8-2.5-6.8-2.2zm10.6 3.6-6.5 14.5 2.2 1 4.5-10.2-1.6 11.5 2.7 1.2L395 191l-2.2-1-4.4 10 1.5-11.2-2.7-1.2zm21.4 16.1c1.6-2.8 1.5-5-1-6.4-2.8-1.6-5 .2-7.7 4.9-2.8 4.8-3.7 7.6-1 9.2 1 .6 2 .6 3.2-.2l-.7 1.3 1.7 1 4.3-7.5-3.6-2-1.2 2 1.5.8-.9 1.4c-.8 1.5-2 1.8-2.6 1.5-1.3-.8-.3-3 1.6-6.4 2-3.4 3.2-4.5 4.3-4 .9.6.5 2.1 0 3.1l2 1.3z"/><path fill="#CAB55E" fill-rule="evenodd" d="m405.4 215 2 1.4 7.4-10.3-5.6 11.6 1.6 1.2 9.3-9-7.4 10.4 1.9 1.4 9.4-13-3.1-2.2-8.1 8 5-10.2-3-2.2-9.4 12.9zm11.9 9 3.3 2.7c2.3 2 4.5 1 6-1 1.5-1.6 1.6-3.2.7-4.3 1.3.4 2.6-.2 3.8-1.5 2-2.3 1.4-4-.2-5.4l-3.3-2.8-10.3 12.2zm10.7-8.8.7.6c1 .8 1 1.6.1 2.8-1 1.1-1.8 1.2-3 .3l-.5-.5 2.7-3.2zm-4 4.8.8.7c1 .7 1.2 1.7 0 3.1-1.2 1.4-2.2 1.3-3.1.5l-.8-.6 3-3.7z" clip-rule="evenodd"/><path fill="#CAB55E" d="m425.6 231.4 1.8 1.8 5-5 2.2 2.1-5 5 1.8 1.9 11.3-11.3-1.9-1.9-4.3 4.4-2.1-2.2 4.3-4.3-1.8-1.8-11.3 11.3z"/><path fill="#CAB55E" fill-rule="evenodd" d="M447.4 236.6c.7-.5 1.3-.4 1.7 0 .4.6.3 1.3-.4 1.8-.4.3-1 .5-1.8.4h-.7l.2-.6c.3-.8.7-1.3 1-1.6zm-6 7.9c-.7 0-1.3-.2-1.7-.7-.7-1-.3-2.1.5-2.7.8-.6 1.6-.8 3-.7l-1.7 4zm4-3.6c2 .3 3.4.2 4.6-.8 1.5-1.2 2-2.9.7-4.6-1.2-1.5-3-1.8-4.7-.5-.7.6-1.1 1-1.7 2.5l-.4.8c-2-.5-3.7-.3-5.2.8-1.4 1.1-3.2 3.4-1.2 6 .8 1 2 1.5 3.1 1.4l-.5 1.4 1.7 2.1 1.2-3.1c1.6-.3 3.2-.8 4.6-2l-1.4-1.7c-.5.4-1.5 1-2.2 1.2l1.4-3.5z" clip-rule="evenodd"/><path fill="#CAB55E" d="M458.6 256.3c2-1.3 4.6-3.3 2.6-6.4-2-3.2-5.2-1.8-9.3.9-4 2.6-6.7 4.9-4.6 8.1 1.9 2.9 4.7 1.8 7.6 0l-1.4-2.2c-2.9 1.9-3.8 1.6-4.3.8-.6-.9-.1-1.8 4-4.5 3.7-2.4 5.2-3 6-2 .6 1 0 1.9-2 3.2l1.4 2.1z"/><path fill="#CAB55E" fill-rule="evenodd" d="M457.9 260.4c-4.3 2.2-7.2 4.2-5.4 7.6 1.7 3.5 5 2.3 9.3.1 4.4-2.2 7.2-4.2 5.5-7.6-1.8-3.4-5-2.3-9.4-.1zm1.2 2.3c3.8-2 5.4-2.5 6-1.1.7 1.3-.6 2.3-4.4 4.2-3.8 2-5.4 2.5-6.1 1.2-.7-1.4.6-2.4 4.5-4.3z" clip-rule="evenodd"/><path fill="#CAB55E" d="m459.3 273.3-3.2 1.5 1 2.1 3.2-1.5-1-2.1zm15.5 4.4-14.9 5.7 1 2.4 4.4-1.7 2 .3-5.2 4.8 1 2.7 7.2-6.9 7.6.8-1-2.6-7.1-.8 6-2.3-1-2.4zm1.9 20.7c3.1-1 4.5-2.5 3.7-5.2-1-3.2-3.9-3.3-9-1.8-5.3 1.6-8 3.1-7 6.1.4 1.2 1.1 1.9 2.5 2v.1l-1.4.4.6 1.8 8.2-2.5-1.2-4-2.3.7.5 1.7-1.6.4c-1.6.5-2.7-.2-2.9-.7-.4-1.5 1.8-2.4 5.5-3.6 3.8-1.1 5.5-1.1 5.9 0 .3 1-1 2-2.2 2.3l.7 2.3zm-8.7 12.2.4 2.5 6.8-1.2.7 4.3 2.6-.5-.7-4.2 3.7-.7.8 4.5 2.6-.4-1.3-7-15.7 2.7zm2.3 16.8 2.6-.3-.4-4.5 13.2-1.4-.3-2.6-15.8 1.7.7 7zm16.2 1.6-16 .8.4 7.3 2.6-.1-.2-4.8 4.3-.2.2 4.3 2.6-.1-.2-4.3 3.8-.2.2 4.5 2.6-.1-.3-7.1z"/><path fill="#CAB55E" fill-rule="evenodd" d="m487 340.3-16 .3v2.3l11.2-.2-11.1 3.4v3l16-.3v-2.4l-11 .2 10.9-3.4v-3z" clip-rule="evenodd"/><path fill="#CAB55E" d="M476.1 353h-.6c-3 0-4.7 1.2-4.6 4.2 0 2.7 1.6 4.4 5 4.3 2 0 3.1-.5 4.1-2.5l1-2c.6-1.1 1.2-1.3 2.2-1.4 1 0 1.9.3 2 1.5 0 1-1 1.4-2.4 1.4v2.5h.5c3 0 4.2-1.8 4.2-4 0-2.5-1.7-4-4.8-4-2.6.1-3.8 1.2-4.8 3.5-.7 1.7-1.2 2.3-2.6 2.3-1.4 0-2-.7-2-1.5 0-1.3.9-1.7 2.4-1.7h.5V353z"/><path fill="#CAB55E" fill-rule="evenodd" d="M471 365v4.4c0 3 2 4 4.6 4 2.1 0 3.5-.8 3.7-2.2.5 1.3 1.8 2 3.5 2 3.1 0 4.1-1.5 4.2-3.6v-4.3l-16-.3zm13.6 2.8v1c0 1.2-.6 1.8-2.1 1.8s-2.1-.7-2-2.1v-.7h4.1zm-6.4 0v1c0 1.2-.6 2-2.4 2-1.9 0-2.4-1-2.4-2.2v-1l4.8.1z" clip-rule="evenodd"/><path fill="#CAB55E" d="m487 377.8-11.2-.8c-4.2-.3-5.2 1.6-5.4 3.7-.1 2 .8 4.1 4.9 4.4l11 .8.2-2.6-11-.8c-1.7 0-2.8-.5-2.7-1.6 0-1.2 1.3-1.5 2.8-1.4l11.1.8.2-2.5z"/><path fill="#CAB55E" fill-rule="evenodd" d="m483.3 392.4-.1 1.2c-.2 1.2-1 1.7-2.4 1.5-1.7-.2-2.3-1-2.2-2.2l.2-1 4.5.5zm-13.1-4.2-.4 2.6 6.7.8-.1 1.4c-.2 1-1 1.3-2.2 1.2l-3-.3-1.8.1-.3 2.8h.1c.4-.4 1.3-.4 3-.2 3.3.4 4.5.3 5-1.4.3 1.5 1.6 2.3 3.7 2.6 2.7.3 4.3-.8 4.5-3l.6-4.6-15.8-2z" clip-rule="evenodd"/><path fill="#CAB55E" d="M478.1 409.7c3.2.6 5.2-.2 5.7-3 .7-3.2-1.9-4.7-7.1-5.7-5.4-1-8.5-1-9 2.1-.3 1.2 0 2.1 1.2 3l-1.5-.3-.3 1.9 8.4 1.6.8-4-2.3-.5-.3 1.7-1.6-.3c-1.7-.4-2.4-1.5-2.2-2.1.2-1.5 2.7-1.3 6.4-.5 4 .7 5.4 1.5 5.2 2.7-.2 1-1.8 1.2-3 1l-.4 2.4zm-352.3-3.5A39 39 0 0 0 86.7 445a39 39 0 0 0 39 38.9A39 39 0 0 0 165 445a39 39 0 0 0-39.1-38.8z"/><path fill="#060304" fill-rule="evenodd" d="M140.1 466.3s.6.6.7.9c-1-.3-1.8.5-2.7.8-1.1-.2-1.8-1.4-3.2-.2-1 .8-2-1-3-.5l-1.6.7-1.3-.9-1.9.8-1.6-.8-1.5.8-1.7-.6-1.8.7c-.8-.2-1.5-1.3-2.3-.5-1.5 1.2-2.4 0-3.2-.5-2.7 2.3-3 0-4.5.1l.5-1h-1.8c-.3-.3-.5-.3-.9-.8h34.6c-.8.7-1.6 1.1-2.8 1zm-2.7.7c-.4-.3-.7-.4-.9-1h2.6c-.3.7-.9 1.3-1.7 1zm-3.2 0c-.6 0-1-.4-1.4-1h2.6c-.1.5-.6 1-1.2 1zm-4.1 0c-.5-.3-.6-.5-.8-1h2.5c-.4.6-1 1.2-1.7 1zm-2.9 0c-.7.1-1.2-1-1.2-1h2.5c-.2.6-.4 1-1.3 1zm-3.3 0c-.5-.1-1-.5-1.2-1h2.6a2 2 0 0 1-1.4 1zm-3.6 0c-.9-.4-.8-.6-1-1h2.6c-.3.6-1 1.2-1.6 1zm-4-.1c-.2-.2-.7-.5-.6-.8h2.6c-.5.6-1.2 1.3-2 .8zm-3.3.2c-1-.1-1-.6-1.4-1h2.6c-.2.5-.7 1-1.2 1z" clip-rule="evenodd"/><path fill="#060304" d="M136 424c-.3-1.4-2.2-2-3.2-2.4-1.2-.2-2.4 1.1-3.3 1.2-1 .8-.5 2.7-1.3 3.8-2.7 2.8-6.5 3.4-10 4-.5-.2-.8-.5-.8-1 0-.3.3-.5.6-.6h.4c.5-1.4 1.7-2.5.6-3.7.3-.8 1.2-1.9.4-2.7-1.2-.6-3-.3-4.3-.2-.3.1-2.8.9-3.3 2.3-.4.7-.6 1.7-.4 3 .5.7.9 1 1.5 1.2-.2.9-.6 1.7-1 2.4.8 1.4-.3 3.1.4 4.6-2 2.1-1.2 5.1-1.4 7.7h-2.3l-.1-.5v-1.4l.3-.4.5-.4-2.3-2-.1-3.9 2.7.7a128 128 0 0 1-3.1-4.5c0 2.5-.3 5.3-.4 7.7l-2.3 1.6.8.9c-.1 2.7-.4 5.4-.7 8-.2 0-.3 0-.4-.4a14 14 0 0 1 0-4.1v-1c-.5-1.7-1.6-3-1.6-5l.8.3h.4l-1.7-2.2c-.1 2 .2 5-2 6l-.2 1 2.6.1v1l-2.6-.1v.4c1.2.1 2.4 0 3.7.2v4.1c0 .3-.3.3-.4.4l-.4.2-.2-3.7h-1.2l-.3 3.5-.5.4c3.4.6 6.6 0 9.8.7-.1 2.8 0 5.7-.8 8.4l-.7 1.5c-.3 0-.4 0-.6-.2l-.4-.3.2-.4.4-.3a1 1 0 0 0-.4-.3l-1-.4 1.8-.6-.2-.4c-.1-.2-.1-.4.2-.6l-.3-.5.4-.4c-.7-.3-1.4-.4-2.2-.5l-.2-1.4c-.7-.3-1.6-.1-2.3 0-.2 1-1.2.8-2 1.1.1.2.2.6.5.6h.6c1-.1 1-.3 1.3-1.2l.2 1v.4l.1.4-.6.2h-.5c-.4 0-.6.1-.8.3l-.6 1.1c1 2.2 1.9 3.4 4 5.6h39.7a38.6 38.6 0 0 0 3.7-5l.8-1.4.4-.7h-3.3c.2 1.5.4 3.2-.7 4.3-.2-2.4-.5-5-.5-7-.2-1.4 1.1-1 1.9-1.4v-.4c-.2-.7-.4-1.2-.3-2h3.3v-4l1-1.1c-.6-.5-1.3-1-1.8-1.6l-1-.9h-1.7l-.5-.6-.5.5-3.5-.2c0-1.7 0-3.4-.2-5.2h-1.4V434c.5.4 1.1.4 1.8.6.6 0 1.2.2 1.8.4-.4-2-1.6-3-3.8-3.3l-.2-2.2h-.3l-.2 7.8-.4.2h-1.2v5c-.8-.5-1.3-1-1.8-1.7l-.7-.7-.4-.4-.6.5-.4.4-.4.4c-.4-1-.4-2.7-.4-3.8.8-.6 1-1.4 1-2.4h-.6c-.8-.2-1.7-.6-1.8-1.5h-.3c-.3.9-1.1 1.3-2 1.4l-.4.1a3 3 0 0 0 1 2.4c.1 2-.1 4-.1 6l-.6-.7-.4-.5-.6-.9-4 2.3-2-1.1c-1.6-2-4-3.7-4.4-6.4-.1-.7.4-1.2 1-1.6l.4-.4c1-.1 2 0 3-.5 2.1-1.3 3.6-3.1 5.8-4.4.7 0 1.5.5 2 1 .4.2 1.5.6 2.2.6.6 0 2.3-.7 2.5-.8 1-1 1.5-2 1.5-3.5 0-.4-.3-.9-.6-1.2-.3 1.5-.9 2.5-2.3 2.8-.8 0-1.3-.2-2-.6l-.5-.4c-1-.2-1.3 0-2.2-.7 0-.6 1-1 1.4-1.3.6-1 1.7-.8 2.5-1.5l-.3-.2c-.5 0-.6 0-.3-.4l.4-.2c1 .3 1.8.7 2.7 1.3z"/><path fill="#CAB55E" d="m142.6 443.5 5.5.2 2.2 2h-7.7v-2.2zm3.4 5.7c0-.6-.1-1.8-1-1.5-.4.2-.6 1.3-.7 1.7h-1.7v-3h7.3v3.7h-3.7a4 4 0 0 1-.2-1z"/><path fill="#060304" d="M149 449.1h-1.8v-1.7h1.8v1.7z"/><path fill="#CAB55E" d="M144.7 452.6v-2h1.3v2h-1.3zm-1.6 6.7c-1.3-.5-2.5-.4-3.2-1.9l.4-.2.4-.1h.2c0 .5.1.6.7.5h1.4v-1l-2.8-.2-2.6-2c.1-.4.4-.7.4-1h-1.3l-1.4-2h6.6v.1c0 .8-.2 1.2-.3 1.7l2 .6.4 7.6h.1l.3-6.3h.4c.3 2.4.4 4.6.5 7-1.4.5-2.9.3-4.3.3s-2.8 0-3.9 1l-2.5-.7v-4.5l1.5 1.7c-1.2.2-1 .7-.7 1.6l.1.6c.4.3 1 .4 1.5.5.6-.2 1-.5 1.3-1l.4-.4h.3l.2.2h4c.1-.3 0-.5-.1-.7l-.2-.2c-.3-.3-.5-.7.2-1.2z"/><path fill="#CAB55E" d="M142.7 450.6h1.2v.1h.1v1.9h-1.3v-2z"/><path fill="#060304" d="m139.8 455-.6-.6h3.7v.7h-3.1z"/><path fill="#CAB55E" d="m139.8 459.5.1-.5c.3-.1.5-.1.8 0 .2.1.3.3.5.3.2.5.5.6.9.8l-.7 1-1.6-1.6zm-.4-19.3h2.3c.2 3.2.2 6.6.2 9.8h-2.6l.1-9.8zm.1-.4v-.8h2.1v.4l.1.2c0 .1-.2 0-.2 0v.2h-2z"/><path fill="none" stroke="#CAB55E" stroke-miterlimit="99.5" stroke-width=".3" d="M141.5 438.6h-2v-.3h2v.3z"/><path fill="#CAB55E" d="M135 452c.2.9-.6 2 0 2.7l.4.3c-.7-.1-1.2-.1-1.5-.8-.1-3.6-1.3-6.5-2.6-9.8l4.1-3.7c1.2 1.2 2.6 2.6 3 4.3l.2 2.1v3h-.2v.1h-.3c-.6 0-2 .1-2-.8l-.3-1.7a4 4 0 0 1-1.1.1l-.1 2c0 .8 0 1.6.4 2.1zm.7 9.6c.1-.4.2-.5.5-.6l.3-.1.2-.1 1-1.6.3 1.5c0 .5-.2 1-.9 1l-1.4-.1zm-.7-3.4-.1-.1c.5-1.6 2-.6 2.5.2l-.2.4-.2.2h-.1v.2c-.8-.2-1.4-.5-2-1zm2-3.2-1.1 1.5-1.6-.4 2.7-1.1zm-4 3.3c.4-.6.7-1.2 1.2-1.2h.2l-2 4.2-.3-1.2 1-1.8zm.5-3.7.4.2-2.4 4.6-.3-.9 2.3-4zm-3 2.1 2.3-4.5.6.4-2.5 4.8-.4-.7zm3.4 5-.6 1.2-.1-.4c0-.4.2-1.2.7-1.9h.2v1h-.1c0 .1-.1 0-.2 0z"/><path fill="#CAB55E" d="m132.5 449.8.5.3-2.8 5.2-.2-.8 2.5-4.7zm-4.5 0 2.8-5 .3.4c-.7 1.7-1.8 3.3-2.7 5l-.4-.4zm-1-1.7 2.6-4.8c.5-.2.6.6.4.9l-2.5 4.3-.4-.4zm-.6-2.1 2.4-4.1.4.2c-.6 1.7-1.7 3.3-2.6 4.9l-.2-1zm3.1 15.8.6-1.4.3.9-.9 2a2 2 0 0 1 0-1.5zm-.6 2.1h-.8l.4-.5.2-.7.2.2c.3.3.6.3.6.8l-.6.2zm-.6-3.7.7-1.3.2.1s0-.1.1 0l.1.2v.2c-.4.8-1 1.7-1.3 2.6-.2-.8-.2-1.1.2-1.8zm-2.3-15.8.4-1 .5.4-.7 1.7c-.3-.5-.3-.6-.1-1.1zm1.2 14.3.5-1 .4-1.1.3.6c-.3 1.2-1 2.3-1.5 3.4l-.1-.4c-.1-.4.1-1 .4-1.5zm0-3.5.1-.2.5.5-2 3.7-.3-.7c.5-1.3 1.1-2 1.7-3.3zm-2.7 1.6 1.8-3.3.4.3c-.5 1.4-1.3 2.7-2 4l-.2-1zm-2.5-4.1 2.7-5c.3.7 0 .7-.1 1.5l-2.3 4-.4-.5zm1.9 2.4.7-1.3c.2.6.2.8 0 1.3-.4.5-.5.9-.7 1.4-.2-.6-.3-.8 0-1.4zm-.3-8.8.4.3-2.7 5.1-.2-.9 2.5-4.5zm-3.4 3.5 2.5-4.9.5.2c-.7 1.9-1.8 3.5-2.7 5.2l-.3-.5z"/><path fill="#CAB55E" d="m126.7 452.5-3.2 1.8c-.3-.6-.6-1.2-.7-1.8l3.3-1.3v-.3l-2.5-5.6 1.5-.8c1.2 2 1.7 4 2.7 6 1.2-.5 2.2-1.2 3.2-1.9l1 1.7c-1.2.7-2.5.9-3.6 1.6 1.5 4 3.1 7.9 4.5 12h-.9c-1.8-3.7-3.4-7.7-5.3-11.4zm-3.1 5.5-2.9.2 1 1.6s-.1.2-.3.2c0 0-.3.1-.3.3 0 .6 0 1.2.8 1.3 0 .4 0 .5.5.7h.5l.7.5c-.6.3-1.4.6-2 0-1.1-.7-1.2-2-1.5-3.1-.3-3.4-.7-6.8-.6-10.2h.2c2.4 4.5 4.7 9.2 8.5 12.7l-.2.2-3.4-2.4c.2-1-.3-1.5-1-2z"/><path fill="#060304" d="M120.4 457.4v-.9c1 .3 2.3-.6 2.9.9l-.2.2h-2.7v-.2zm.2-1.5h-.1c-.3-1.1-.1-2.2-.3-3.2l.3-.1 2 3.6-2-.3z"/><path fill="#CAB55E" d="m114.8 444.5.1 17.2-.2.3-.4-.3c-.1-2.6 0-6.1-.3-8.8h-.1l-.1.2-.3 9h-1.8c1.6-4.2 1-9 1.3-13.4l-1.5-2.1v.6c.2.4.6.8 1 1.2.4.7.4 1.2.2 2-.7-.4-1-1.1-1.2-1.8v-.1l-.1.5.8 2.3c-1.3-.5-1.5-1.5-1.5-2.8 0-1.3.3-2.7.5-3.6.1-.7.7-1.2 1-1.8h2l.6 1.4z"/><path fill="none" stroke="#CAB55E" stroke-miterlimit="99.5" stroke-width=".3" d="m111.6 445.9.1-.9s2 2.2 1.6 3.3l-1.7-2.4z"/><path fill="#CAB55E" d="m111.5 457.2.7 1.1c-.3 1.5-.2 3.1-1.4 4.3-.7-.1-1.6.5-2-.4.3-1.5.9-2.9 1.4-4.2.3 0 .5 0 .7.3l.1.1-1-1.5.6-6.7 1.8 2.8-.8-.2h-.3l.8 3-.6-.4c0 .6.3 1.2.4 1.8l.1.3-.3-.2-.2-.1zm5.7-2.8c.1-.9.3-1.6.3-2.7h.2c.7 2.2 2.4 8.8.7 11.2-1.4-.8-1-3.3-1.1-4.6-.3-1.8-.2-3-.1-3.9zm-1.8 2.8h.3l1 5.4-.6.1a11 11 0 0 1-.7-5.5zm0-3.9v-.2l.1-.2c.1-.2.2-.3.5-.2l.1.5.3.5c.1.2.3.6 0 1l-.5.5-.5-1.9zm1.3-2.8-.7 1-.7-2 1.4 1zm-1.3-2.1c0-.3.1-.4.2-.5l.2-.1.2-.1.1-.1.1.2.2.6.1 1c-.5-.2-.9-.4-1.1-1zm.4-2.6.1-.7.7-.5c0 .4.2 2-.5 2h-.1l-.2-.8zm-2.1-8.3-.2.1-.9.3c-.5.9-.3 2.5-1 3.3l-.2.4c0-1.8 0-5 2.3-5.4.3 0 .5 0 .8.2l.2.2-.1 1c-.4-.3-.5-.5-1-.1zm7.6 6.7v.7l-.2.3-.1.2-1.2.4-.2-3a3 3 0 0 1 1.7 1.4z"/><path fill="#CAB55E" d="m114.2 438.1.6-.3-.2 4.7h-.4v-4.4zm-.9 4.5v-4.4l.6-.2-.1 4.6h-.5zm-.7-3.3v-.3l.5-.5-.1 4.1h-.8l.2-3.4h.2zm19.4-.2c.3-.1.2-.6 0-.6h-.6v-.9h.1s0-.1.1 0h.7c1 .1.7 1.4.9 2.1v1.7c-.2.8-1.3 1.5-1.8 2v-4.1h.2v-.2h.5zm-10.3 4.7c-2.7-2.2-6-4.5-6.4-8.4 0-.6-.6-1.7.4-2 2.5 0 1.5 2.9 2.4 4.3 1.2 2.7 3.9 4 5.9 6.1l.1.1c-.7.5-1.1.7-2 1 0-.3 0-.8-.4-1zm14.7-16.8.3-.1c-.3 1.3-.7 1.6-1.6 2.5.2-.8.5-1.9 1.3-2.4zm-3.4 2.3c.7-.6 1-.9 2-1-.8 1.4-1.3 1.6-2.9 1.9l.4-.4.5-.5zm-.6-6.4h.4a5 5 0 0 0-.8.6l-.1.2c-.3.2-.6.3-1 .3h-.3c.5-1 .7-1.2 1.8-1.1zm-1.8.1h.3l-.6 1.1c-.3.5-.7 1-1 1.2h-.3c.3-1.2.2-2 1.6-2.3zm.8 4.5c.5.5.7.8.9 1.5v.1c-.1.4 0 .5-.3.7l-.1-.1-.7-.5c-.7-.5-1.3-.9-2.1-.8-.7.2-2 1.3-2.6 1.7a16 16 0 0 1-3.4 2.4l-1.9-.1v-.8l.2-.3.1-.4c2 .3 3.4-1 4.7-2.1l1-.6c1-.9 3-1 4.2-.7zm-16.7 3.9c.8 0 1.3.2 1.8.8l-2.3 1c-.1-.5-.2-1.5.5-1.8zm-1.4-6.2-.2-.2c.1-.4.2-.4.5-.6l1 .9c-.2.5-1 .6-1.2 0l-.1-.1zm6 7.6-.6-1.1v-.3l1.9-.3v2.2c-.6 0-1 0-1.3-.5zm-2.3-7.1c.2.2.4.3.7.2h.1l.2-.2c.2 0 .3 0 .4.3.4.8-.1 1.4-.4 2.2l-.6.1h-.5a3 3 0 0 0-1 .3c0 1.7 1.7 2.8 2.4 4.2l.1.2h-.8l-3-3.3c-.5-1.2-.6-2.2.2-3.3.6-1 1.1-1.2 1.4-2.4l1.3.4c.6.2.7.6.7 1.2-.5-.2-.9-.4-1.3.1zm-8.9 18.7 2.2.1-.3 1.1-1.9-.3v-1zm-.5-3.1v.1l-2.3-.2c0-1.5 2.6-2.4 2.3 0zm-6.2.7v-.2c.7.5 1 1.2 1 2l-2.5-.3.4-.2c.4-.3 1-1.4 1-1.4z"/><path fill="#CAB55E" d="M113.8 434.6v.5l-.1-.2-.3-.1-.2-.1-.4-.4v-1.7c0-.7.2-1.8.8-2.4l.7.5.3.3c-.9 1-1.3 2.1-.9 3.4l.1.2zm-8.6 7.1v-.1l2.4.2v4c.8 0 1.5.2 2.3.4l-.5 4-4.9-.2.7-8.3zm10.6-3.9-.2 3-.5.5.1-3.4.6-.1z"/><path fill="#060304" d="M141 445.5h-.8v1.3h.7v-1.2zm-50.5-83.2.2.3a2 2 0 0 1-1.2 0v-.2h.4l.6-.1zM89 362c-.3-.1-.5-.5-.6-.8l-.4.1c.2.4.4.8.7 1l.2-.2zm-.2-2.3-.3-.3a2 2 0 0 0-.5 1l.3.2c0-.4.2-.7.5-1zm1.6-.8a2 2 0 0 0-1.2 0l.1.4a1.6 1.6 0 0 1 1-.1l.1-.3zm1.1 1.4h.3a2 2 0 0 0-.7-1l-.2.2c.3.2.5.5.6.8zm0 .7c0 .3-.2.7-.4 1l.3.1.5-1h-.4zm49.5 39.2v-.3a2 2 0 0 1 1.1 0v.3a1.7 1.7 0 0 0-1 0zm1.7.3.5.8.4-.1a2 2 0 0 0-.7-1l-.2.3zm.1 2.4.3.2c.3-.3.5-.7.5-1l-.3-.1c0 .3-.3.6-.5.9zm-1.6.8a2 2 0 0 0 1.2-.1l-.1-.3a1.7 1.7 0 0 1-1 0l-.1.4zm-1.2-1.5h-.2c0 .5.3.8.6 1.1l.3-.3c-.3-.2-.5-.5-.6-.8zm0-.7.5-.9-.3-.2a2 2 0 0 0-.5 1l.4.1zm-28.5 13.9.1.3a2 2 0 0 1-1.2.1l.1-.3a1.8 1.8 0 0 0 1 0zm-1.6-.2c-.3-.2-.5-.5-.5-.8h-.4c.1.5.4.8.7 1l.2-.2zm-.2-2.4-.2-.3a2 2 0 0 0-.5 1.1h.3l.4-.8zm1.7-.8h-.5a2 2 0 0 0-.7 0l.1.4a1.6 1.6 0 0 1 1 0v-.4zm1.1 1.5.3-.1a2 2 0 0 0-.7-1l-.2.2c.3.2.5.5.6.9zm0 .7c0 .3-.2.6-.4.8l.2.3c.3-.3.5-.7.6-1.1h-.4zm-26.8-19.3.2.3a2 2 0 0 1-1.2.1v-.3a1.8 1.8 0 0 0 1-.1zm-1.6-.2-.5-.9-.4.1c.2.4.4.8.7 1l.2-.2zm-.1-2.4-.3-.3a2 2 0 0 0-.5 1.1h.3c0-.3.2-.6.5-.8zm1.6-.8a2 2 0 0 0-1.2 0l.1.4a1.6 1.6 0 0 1 1-.1v-.3zm1.1 1.5.3-.2a2 2 0 0 0-.7-1l-.2.3c.3.2.5.5.6.8zm0 .6c0 .4-.2.7-.4 1l.2.2c.3-.3.5-.7.6-1.1h-.4zm34.5-43.4.2.3a1.9 1.9 0 0 1-1.2 0v-.3a1.7 1.7 0 0 0 1 0zm-1.6-.2-.5-.9-.4.1c.2.4.4.8.7 1l.2-.3zm-.1-2.5-.3-.2a2 2 0 0 0-.5 1l.3.1c0-.3.2-.6.5-.9zm1.6-.8a2.1 2.1 0 0 0-1.2.1l.1.3a1.6 1.6 0 0 1 1 0l.1-.4zm1.1 1.5h.3a2 2 0 0 0-.7-1.1l-.2.3c.3.2.5.5.6.8zm0 .7c0 .3-.2.7-.4.9l.2.2c.3-.3.5-.6.6-1l-.4-.1zm24.8 21.8.2.3a2 2 0 0 1-1.2 0v-.3a1.7 1.7 0 0 0 1 0zm-1.6-.3-.5-.8h-.3c0 .5.3.8.6 1.1l.2-.3zm-.1-2.4-.3-.2a2 2 0 0 0-.5 1l.3.1c0-.3.3-.6.5-.9zm1.7-.8a2 2 0 0 0-1.2 0v.4a1.6 1.6 0 0 1 1 0l.1-.4zm1 1.5.3-.1a2 2 0 0 0-.6-1l-.2.3.5.8zm0 .7c0 .3-.2.7-.4.9l.3.2c.3-.3.4-.6.5-1l-.3-.1z"/><path fill="#CAB55E" d="M76 381.5a40 40 0 1 1 79.9 0 40 40 0 0 1-80 0z"/><path fill="#060304" fill-rule="evenodd" d="M88.7 360.8a1.3 1.3 0 1 1 2.5 0 1.3 1.3 0 0 1-2.5 0zm.5-.2a.4.4 0 1 1 .8 0 .4.4 0 0 1-.8 0zm53.8 41.1a1.3 1.3 0 1 1-2.6 0 1.3 1.3 0 0 1 2.5 0zm-1.3.1a.4.4 0 1 1-.8 0 .4.4 0 0 1 .8 0zM109.6 414a1.3 1.3 0 1 1 2.6 0 1.3 1.3 0 0 1-2.6 0zm.5-.2c0-.2.2-.4.5-.4.2 0 .4.2.4.4s-.2.4-.4.4a.4.4 0 0 1-.5-.4zm-26.2-20.4a1.3 1.3 0 1 1 2.5 0 1.3 1.3 0 0 1-2.5 0zm.5-.1c0-.3.2-.5.4-.5s.4.2.4.5c0 .2-.2.4-.4.4a.4.4 0 0 1-.4-.4zm35-44.6a1.3 1.3 0 1 1 2.5 0 1.3 1.3 0 0 1-2.5 0zm.5-.2a.4.4 0 1 1 .8 0 .4.4 0 0 1-.8 0zm25.3 20.6a1.3 1.3 0 1 1 2.5 0 1.3 1.3 0 0 1-2.5 0zm.5 0c0-.3.2-.5.4-.5a.4.4 0 1 1-.4.4zm-14 11.4c-.7.7-1.7.7-2.5 1.1.2.8 0 1.7-.6 2.2l-.5.4c.6.3 1 1 1 1.8l-.7 1c.6 1.3 1.5 3.2.4 4.5-1.2 1.6-3.6 1-5 2.5-1.2.5-1.4-.2-1.6.8.2 3.3 2.4 6 5.2 7.7v.6c-4.2 2.4-10.1 1-14.4-.3l-9.8-4c-.5-.3-1-.5-1.4-1-1.3-2 1.1-2.4 1.6-3.8 1.3-2.2.3-5 .6-7.6-1.5-1.4-3-2.8-2.6-5-1.8-4.2-3.2-9.6-1-14 2.1-3.9 5-6.2 9-7.8 1-.4 2-1 2.7-1.9a20 20 0 0 1 9.2 1.4c.6.2 1 .6 1.6 1l2.2.5v2.1c2.2 2.6 3 5.6 4.2 8.5l-.8 2.5 3.7 4.7c.5.7 0 1.6-.5 2.1zm-2.2-.2c-.9.2-1.9.6-2.8.2-.5-.4-.4-1-.6-1.5-.3.2-.5.5-.4.8a2 2 0 0 0 1 2l1.4.1c0 .8-.2 1.6-1 1.8-.8.4-1.8.5-2.7.5.2.1 0 .8.4.7 1.2-.1 2.2.2 3.2.7l-.9 1.4c.3 1.2 1.6 2.2 1 3.6-1.3 1.8-3.7 1.5-5.4 2.6-.6.2-1.4.2-1.4.2-1 2.6.5 5.3 2 7.4.7 1 2 1.8 2 1.8-2.3 1.3-5.6.8-8.3.3-3.7-.7-8.4-3.1-12.6-4.5-1.6-.8-1.4-1-1.7-1.5 1.1-1.5 2.6-3.6 2.4-6l-.2-3.6c.8-.2.9-1 1-1.7-.9-.5-2.2-.8-2.8-1.5 1.1-2.7-1-4.9-2-7.1-.8-1.6-1.4-3.7-.5-5.5-.1 1.5.2 3.2 1 4.4 1-.4.2-1.6.2-2.3-1-1.8.5-3.4 1.4-4.8-.7 3-1 6.8.6 9.5l-1.7-2c-.3.2-.6.3-.3.8.7 1.4 2 2.8 2.1 4.5.2 1-.7 2.5.7 3 .7.2 1.3.6 2 .7-.4-1.1-2-1.4-1.7-2.8.5.4 1.3 1.5 2.2.9.5-.5.8-1.4 1.5-1.6.6 1 1.6 2 2.9 2 1 0 2-.5 2.2-1.6 0-.4-.4-.7-.6-1-.8.2-.5 1.1-.7 1.7-1 .2-1.4.2-2.5-.8-1.3-2.2-1.7-4.5-1.7-4.5.7-.6.8-2.3 2.1-1.4.6.5.7 1.2 1 1.9-.3 0-.5.2-.7 0l-1-1c-.6 0-.5.9-.6 1.4 0 1.1 1.2 1.7 2 2.2l1.6-.8 1.8.7c.6.8 1.2 2 2.2 2 .7 0 1.4-.1 2-.4-.6-.8 1.6-2.4-.6-2.2.2-.3.5-.8.2-1.3l-.9-1-1.3 1.3c.2-.4 0-1 .1-1.4-1 .1-2.4.8-3.1-.3-.2 0-.4.2-.6.4-.3-.7-.5-1.7-.3-2.3 1.1 1.8 3.3 1.7 5.2 1.6.3-.2.3-.5.4-.8l-.8-1c.5-1.3 2-2.5 1.4-4.2l.6-1c-1-.7-2.2 0-3.2.2-.5-.3.2-.7.3-1 .5-.5 1.2-.1 1.6 0 .2-.5-.5-.8-.8-1l1.3-1a2 2 0 0 0-1.2-.5l1-.2c-.7-1.5-2.6-.4-4-.7l3.4-3c-.9-.5-2.3-.5-3.1.2l-1.3 1.9.4.4c-.6 1.9-2.5 4-.8 6l.6.8c.6-1.6.4-4.1 2.1-5.2 0 0 .4-.2 1.2-.2-.7.4-1 .9-1.3 1.5-.7 1.6-.3 4.6-2.8 4.7-1-.3-1.2-1.4-1.3-2.3 0-.9.2-1.7.4-2.5-.6-.2-1.3.1-1.5.7l-.5 1.8 1.1 2.3c-.6.6-.8 1-1.5 1.6-.1-.9.7-1.1.7-1.7l-1.3-1.2a5 5 0 0 1 2.6-4.4l-1.3-.8c.4-.3 1-.7 1.5-.4l.3.3c.9-1.3 1.3-3 2.7-4 1.7-.6 4.3.8 4.7-1.7-.4-.4-.9 0-1.3.2-.7 1-1.6-.2-2.5 0-1.7.3-2.7 1.9-4 2.7.6-1.6 2-3.1 3.6-3.4 2.1-.3 4.4-.4 6.7-.4l.1.1c-.7.8-2 .5-2.6 1.5 0 .3.2.5.3.6 1.6 0 2.9-1.4 4.4-.5-1 .5-2.5.7-3.2 1.9 0 .2 0 .5.3.5 1-.1 2-.4 3-.7 2.5 2 3 5.4 4.4 8.2l-.7 2.5c1.2 1.8 2.8 3.2 3.9 5 0 1.1-1 1.3-1.8 1.5zm-3.2-9.6c-2.1-.9-3.6 1-5.1 2 1-1.4 1.9-3.4 4-3 .5 0 1.2-.1 1.3.6 0 .2 0 .4-.2.4zm-.6 2.6c0 .5.4 1.2 0 1.7l-1 .7a5 5 0 0 1-1.6-.9l1.2-.3-.3-1.3c-.7.6-1.6 1-2.6 1.2.9-1 2-2.2 3.3-2.7.7-.2 1 .4 1.6.8 0 .5-.4.5-.6.8zm-16.9 25c0-.1-.2-.1-.2-.3 1.3 0 2.5.6 3.6 1a23 23 0 0 0 9.7 3c-5 1.4-8.8-2-13-3.6zm10.5 2.6a31 31 0 0 1-8.9-3.9c.3-.3 1-.2 1.3 0 3 1.4 5.6 3.2 9 3.5l.2.1c-.3.4-1 .3-1.6.3zm.3-36.4c-.4.7-1 0-1.5 0-.3-1.5 1.5-1.4 2-1.2l-.9.7.4.5zm-2.5 25.2v-.2c1.1.3 2 1.2 2.9 1.9l.3.4c-1.1-.4-2.2-1.2-3.2-2.1zm3 10c-1.7-.2-3.2-1-4.7-1.6-1.2-.7-2.7-1-3.5-2h.7c2.4 1.2 5.1 2 7.6 3.4v.1zm-.3-1.7c-2.6-.7-5-2-7.2-3.2v-.2c2.6.7 5 2.1 7.2 3.3v.1zm-3.8-11.9c-.6-.2-1-.4-1.4-1 1.1.3 2.3.7 3.3-.1-1.3.1-2.6 0-3.3-1 1.2.3 2.8.8 4.4-.2l-.1.5c.2.2.4 0 .7 0 .3.4 0 .9-.4 1-.9.6-2 1-3.2.8zm-1.7 2.8c0-.2-.4-.3-.3-.6 2.2 1.4 3.8 2.7 5.8 4.4-1.8-1-3.8-2.5-5.5-3.8zm4 4.4c-2.4-1.7-5-3-6.6-5.3 2.8 1.9 5.2 3.8 8 5.8-.5.3-1-.3-1.5-.5zm-2.1 1.8c-1.1-.7-2.4-1-3.3-2.1v-.1l6.7 3.6c-1.2 0-2.3-.9-3.4-1.4zm.7-1.1c-1.4-1-2.9-1.8-4-3.1 2.2 1.2 4.3 2.7 6.5 4-.8.2-1.7-.4-2.5-1zm-.2-10.2c-.7 0-1.5-.4-1.6-1 1 .4 1.7.5 3 .4-.2.3-.7.7-1.4.6zm-.5-10.3h-.2c0-.7 0-1.5.7-1.9l.8.2a7 7 0 0 0-1.3 1.7zm-6.2-12.4c-1.2.3-2.5.7-3.2 1.9l-.6 1.3c0-1 0-1.8.7-2.4 1.7-1.1 4-1.6 5.5-3 .7-.3 1.5-.1 2.3 0-1.7.2-3.2 1.2-4.7 2.2zm-1.9 2.7c0-.5.1-1.3.8-1.5.7 0 1.3-.4 2-.6-.3 1.4-2 1.1-2.8 2zm0 2.8 1.5-2.3h.5c-.6.7-.4 2.5-2 2.3zm-1.6 7c-.6-.8-.5-2-.1-2.8.5-1.2.7-2.5 1.6-3.4h.8c-1.6 1.8-2 4-2.3 6.3zm-.1 9-.4-.3c.3-.8 0-2 1.2-2.3 1 1-.5 1.7-.8 2.5zm0-4.2v-2c.4 0 .6 1 .8 1.4 0 .3-.6.5-.7.6zm-.4-3.5c-.6-.4-.6-1.2-.8-1.5.6-.1 1 1 .8 1.5zm-1.5 2.8c0-.4.3-.5.3-.5l.6 1.8c-.4-.2-1-.7-1-1.3z" clip-rule="evenodd"/><path fill="#060304" d="m92 363.6.1.2h.1l.2-.1c.1-.2 0-.2 0-.2v-.1l-.1-.1.3-.5.7.6-1 1.2-.7-.5.3-.5zm-3.2.6h.1c-.7 1.4-2.8-.1-1.9-1.2.5.6 1 1 1.8 1.2zm-4.7 21h.1c.3 1.6-2.3 1.7-2.2.2.7.3 1.4.2 2.1-.2zm-.1-5.5c0 1.6-2.5 1.3-2.2-.1.6.3 1.4.4 2.1.1zm.6-5.4h.2c-.3 1.6-2.8.8-2.3-.5.7.4 1.4.6 2.1.5zm1.7-5.3h.1c-.5 1.6-2.8.4-2-.8.5.5 1.1.8 2 .8z"/><path fill="#060304" d="m86 389 .2 1-2.5-1-1.7 1.8-.3-1 1.2-1.1-1.5-.5-.3-1 2.4.8 1.9-1.9.2 1-1.3 1.3 1.7.6zm-.9-5.2v1l-2.3-1.3-2 1.4v-1.1l1.3-.9-1.4-.7v-1l2 1.2 2.3-1.6v1.1l-1.5 1 1.6.9zm0-5.3v1l-2.2-1.7-2.2 1 .2-1 1.5-.7-1.3-1v-1l2 1.6 2.4-1.2-.1 1.1-1.7.8 1.4 1zm.9-5.3-.2 1-1.8-2-2.3.7.3-1.1 1.6-.4-1.1-1.2.3-1 1.6 2 2.5-.8-.3 1-1.7.5 1.2 1.3zm1.9-4.9-.5 1-1.3-2.4-2.5.2.5-1h1.6l-.9-1.4.5-1 1.3 2.2 2.6-.2-.5 1H87l1 1.6zm.7 24.7h.2v-.4h-.4l-.2-.5.9-.3.6 1.4-.9.4-.2-.5zm-1.1 3c1 1.4-1.4 2.4-2 1 .8 0 1.5-.3 2-1zm15.9 14.7v-.1c1.6.5.4 2.8-.9 2 .6-.5.9-1.1.9-2zm-4.9-2.6v-.1c1.5.8 0 2.9-1.2 1.9.7-.4 1-1 1.2-1.8zm-4.3-3.4c1.3 1-.6 2.7-1.5 1.6.7-.3 1.2-.8 1.5-1.6zm-3.7-4v-.1c1.1 1.2-1 2.6-1.8 1.4.8-.2 1.4-.6 1.8-1.3z"/><path fill="#060304" d="m107.6 411 1 .2-2 1.8.6 2.4-1-.4-.4-1.6-1.2 1.1-1-.3 1.9-1.6-.7-2.6 1 .4.4 1.7 1.4-1.2zm-5-2 1 .6-2.4 1.3.3 2.5-1-.5-.1-1.7-1.4 1-.9-.6 2.2-1.2-.3-2.7 1 .5.1 1.8 1.5-1zm-4.6-2.6.9.7-2.5.9-.2 2.4-1-.6.3-1.6-1.5.6-.8-.6 2.3-.9.2-2.7.9.7-.2 1.8 1.7-.7zm-4-3.4.7.8-2.6.4-.7 2.4-.7-.8.5-1.5-1.6.3-.7-.7 2.4-.5.7-2.6.7.8-.5 1.8 1.8-.4zm45.7-4-.1-.1-.1-.1h-.3v.3l.1.1-.3.6-.7-.6 1-1.3.7.5-.3.5zm-49.1 0 .6.8h-2.7l-1 2.3-.6-1 .7-1.4H86l-.6-.8H88l1.1-2.4.6.9-.8 1.6h1.8zm52.2-.6h-.2c.8-1.5 3 0 2 1.2-.5-.7-1-1.1-1.8-1.2zm4.7-21.1h-.1c-.3-1.6 2.3-1.7 2.2-.2-.7-.2-1.4-.2-2.1.2zm.2 5.5h-.1c0-1.6 2.5-1.3 2.2.1-.6-.3-1.4-.4-2.1-.1zm-.7 5.5h-.2c.3-1.7 2.8-.9 2.2.5-.6-.5-1.3-.7-2-.5zm-1.7 5.2h-.1c.5-1.6 2.8-.4 2 .9-.5-.6-1.1-1-2-1z"/><path fill="#060304" d="m145.6 373.5-.2-1 2.5 1 1.7-1.8.3 1-1.2 1.2 1.5.4.2 1-2.3-.8-1.9 1.9-.2-1 1.3-1.3-1.7-.6zm.9 5.3v-1.1l2.3 1.4 2-1.5v1.1l-1.3.9 1.4.8v1l-2-1.3-2.3 1.6v-1.1l1.5-1-1.6-.8zm-.1 5.2.2-1 2 1.7 2.3-1-.2 1-1.5.7 1.3 1v1l-2-1.6-2.4 1.2.1-1.1 1.7-.7-1.5-1.1zm-3.4-14.6-.2.1v.5h.2l.1-.1h.1l.2.5-.9.4-.6-1.5.9-.4.2.5zm2.5 19.9.3-1 1.8 2 2.3-.6-.3 1-1.6.4 1.1 1.2-.3 1-1.6-2-2.6.8.4-1 1.7-.5-1.2-1.3zm-1.8 5 .5-1 1.3 2.3 2.5-.2-.5 1h-1.6l.9 1.4-.5 1-1.3-2.2-2.6.3.5-1 1.8-.1-1-1.5zm.4-27.8c-1-1.4 1.4-2.4 2-1-.8 0-1.5.4-2 1zm-15.9-14.7v.2c-1.6-.6-.4-2.9.9-2.1-.6.5-.9 1.2-.9 2zm4.8 2.6v.1c-1.4-.8.2-2.8 1.3-1.9-.7.4-1 1-1.2 1.8zm4.4 3.4c-1.3-1 .6-2.7 1.5-1.6-.7.3-1.2.8-1.5 1.6zm3.7 4v.1c-1.1-1.2 1-2.6 1.8-1.3-.8.1-1.4.6-1.8 1.2z"/><path fill="#060304" d="m124 351.6-1-.3 2-1.8-.6-2.3 1 .3.4 1.6 1.2-1.1 1 .3-1.9 1.6.7 2.6-1-.4-.5-1.7-1.3 1.2zm5 1.8-1-.4 2.4-1.4-.3-2.4 1 .5v1.6l1.5-.9.9.5-2.2 1.2.3 2.7-1-.5-.1-1.8-1.5 1zm-9.8-1.6v.4l.1.1h.3v-.4h.6l-.1 1-1.6-.2v-1h.7zm14.3 4.3-.8-.6 2.5-1 .2-2.4 1 .7-.3 1.6 1.5-.7.8.7-2.3.8-.2 2.7-.9-.7.2-1.8-1.7.7zm4.1 3.4-.7-.8 2.6-.4.7-2.4.7.8-.5 1.5 1.6-.3.7.7-2.4.5-.7 2.6-.8-.8.6-1.8-1.8.4zm3.4 4.1-.6-.9h2.7l1-2.3.6 1-.7 1.4h1.6l.6.8h-2.5l-1.1 2.5-.6-1 .8-1.6H141zm-23.9-14.2c-1.6.1-1.3-2.5.2-2.2-.4.7-.4 1.4-.2 2.2zm-20.6 6.4h.1c-1.2 1.2-2.6-1-1.3-1.7.1.7.6 1.3 1.2 1.7zm4.7-2.9c-1.3 1-2.3-1.5-1-2 0 .8.4 1.5 1 2zm5.1-2.1c-1.5.7-2-1.9-.6-2-.1.7 0 1.4.6 2zm5.3-1.2.1.1c-1.6.3-1.8-2.3-.3-2.2a3 3 0 0 0 .2 2.1z"/><path fill="#060304" d="m94.2 359.3-.8.7-.4-2.6-2.4-.7.8-.7 1.5.5-.3-1.6.7-.7.5 2.4 2.6.7-.8.8-1.8-.5.4 1.7zm4.1-3.3-1 .5.1-2.7-2.2-1 .9-.6 1.4.7v-1.6l.8-.5v2.4l2.5 1.2-1 .6-1.6-.9v1.8zm4.6-2.7-1 .4.5-2.6-2-1.4 1-.5 1.3 1 .2-1.6 1-.4-.5 2.4 2.2 1.6-1 .4-1.5-1-.2 1.7zm5-1.8-1 .3.9-2.6-1.8-1.7 1-.3 1.2 1.2.5-1.5 1-.2-.9 2.3 2 1.9-1.1.2-1.3-1.3-.5 1.7zm5.2-.9h-1l1.3-2.3-1.5-2h1.1l1 1.3.7-1.4h1l-1.2 2 1.5 2.2-1 .1-1-1.5-.9 1.6z"/><path fill="#CAB55E" d="M130.9 435.3h3s0 1-.4 1.3h-2.2c-.5-.5-.4-1.3-.4-1.3z"/><path fill="#060304" d="M93.3 449.3a.8.8 0 1 1 1.5 0 .8.8 0 0 1-1.5 0zm63.4-5.7c0-.4.4-.7.8-.7a.8.8 0 1 1-.8.7z"/><path fill="#060304" fill-rule="evenodd" d="M152.1 381.3a36.4 36.4 0 1 0-72.7 0 36.4 36.4 0 0 0 72.7 0zm.6 0a37 37 0 1 0-73.9 0 37 37 0 0 0 74 0z" clip-rule="evenodd"/><path fill="none" stroke="#060304" stroke-miterlimit="99.5" stroke-width=".2" d="M152.1 381.3a36.4 36.4 0 1 0-72.7 0 36.4 36.4 0 0 0 72.7 0zm.6 0a37 37 0 1 0-73.9 0 37 37 0 0 0 74 0z"/><path fill="#060304" fill-rule="evenodd" d="M154.3 381.3a38.5 38.5 0 1 0-77 0 38.5 38.5 0 0 0 77 0zm1.5 0a40 40 0 1 0-80 0 40 40 0 0 0 80 0z" clip-rule="evenodd"/><path fill="none" stroke="#060304" stroke-miterlimit="99.5" stroke-width=".2" d="M154.3 381.3a38.5 38.5 0 1 0-77 0 38.5 38.5 0 0 0 77 0zm1.5 0a40 40 0 1 0-80 0 40 40 0 0 0 80 0z"/><path fill="#060304" d="M149.8 455.2h-3.4v-.6h3.6c0 .2 0 .4-.2.6zm-3.3 1.1v-.4h2.9l-.1.4h-2.8zm-32.9-10.7c-.5-.6-1.3-1.2-1-2 .3.4 1.2 1 1 2zm-.1 1.2c-.5-.7-1.5-1.6-1.4-2.5.6.7 1.3 1.4 1.4 2.5zm-1.1-36v-.4l-.2-.1h-.2v.4h-.7l.2-1 1.6.2-.1 1h-.6zm2.8.2v-.4l-.3-.1h-.2v.4h-.6v-1h1.7v1h-.6zm2.8 0v-.4h-.5v.3h-.5v-.9h1.5l.1.9h-.6zm2.8-.4v-.3h-.5v.3l-.5.2-.2-1 1.6-.2.2.9h-.6zm2.8-.6v-.3h-.5v.3l-.5.2-.3-.9 1.6-.4.3.9-.6.2zm2.6-.9v-.4h-.3l-.2.1v.4h.1l-.5.3-.4-1 1.5-.5.4.9-.6.2zm2.6-1.1v-.3h-.4c-.2 0-.2.1-.2.2l.1.2-.5.3-.4-.8 1.4-.7.5.8-.6.3zm2.5-1.4-.1-.2h-.3l-.1.1v.3h.1l-.5.3-.5-.8 1.4-.8.5.8-.5.3zm2.4-1.6-.2-.2h-.3l-.1.2.1.2-.4.4-.5-.8 1.2-1 .6.8-.4.4zm2.1-1.8-.1-.2h-.3l-.1.2v.1l.1.1.1.1-.4.4-.7-.7 1.2-1.1.7.7-.5.4zm2-2-.2-.2h-.2c-.2.2-.1.2-.1.3l.2.2-.4.5-.7-.7 1.1-1.2.7.6-.4.5zm16.3 36-.1-.6 4.4-1.1-2.4 3.6 2.8-.7.1.7-4.4 1.1 2.4-3.6-2.8.6zm-62.5 8.3v-.7h4.2v.7h-4.2zm12.1-20.7-1-.3-1.1 1.3.4 1-.4.6-2.2-4.5 4.8 1.3-.5.6zm-7.2 5.2c.5.3.8.8.7 1.4l2.1-.5-.4.8-2 .4 1.5.7-.3.7-3.8-1.8a4 4 0 0 1 1-1.6c.3-.2.8-.2 1.2 0zm-.6 12.9v.7l-4.6-.5 3.4-2.7-2.7-.3v-.7l4.5.5-3.4 2.7 2.8.3zm-2.4-7-.2.9 3.4.8-.1.7-3.5-.8-.2.9-.6-.2.6-2.5.6.2zm4.4-1.9-.8 2.3-4-1.4.8-2.2.7.2-.6 1.5.9.3.5-1.5.6.3-.5 1.5 1.2.4.6-1.5.6.2z"/><path fill="#CAB55E" d="m95.2 431.3 1.1.6c.2-.4.5-1-.1-1.2-.5-.2-.8.1-1 .6z"/><path fill="#060304" d="m99.9 430-.4.5-3.8-2.4 4.2-.8-2.3-1.5.3-.6 3.9 2.4-4.3.9 2.4 1.5z"/><path fill="#CAB55E" d="m101.3 425.1.7-.8-1.4-.4.7 1.2z"/><path fill="#060304" d="m103.5 420-.7.7 2.5 2.5-.5.5-2.5-2.5-.6.6-.5-.4 1.9-1.8.4.4zm.1-.8.5-.5 2.7 3.2-.5.5-2.7-3.2zm50.4 11.6c1.1-.4 2.4.1 2.9 1.2.4 1.1-.1 2.4-1.2 2.9-1.2.4-2.4-.1-2.9-1.2-.4-1.2 0-2.4 1.2-2.9zm-18.3-13.7 2.1-1.5-.3-2.3.8.3.1 1.6 1.3-1 .7.4-1.8 1.3.3 2.5-.8-.3-.2-1.7-1.4 1-.8-.3zm6.6-1.5-.9 1.4 1.5.8.8-1.4.6.4-2.1 3.6-.6-.4 1-1.6-1.5-.9-1 1.7-.6-.4 2.2-3.6.6.4zm3.7 2.5.6.4-2.5 3.4-.6-.4 2.6-3.4zm.1 5.6-.7-.7 3-3c.6.6 1.6 1.4.6 2.4a1 1 0 0 1-.7.3c.4 1-.9 2.3-2.2 1zm4.9-.9.5.5-3.2 2.7-.5-.5 3.2-2.7zm2.6 3.2.4 1-.7.5c0-.4 0-.8-.3-1.2-.4-.7-1.4-.8-2-.4-1.2.8-.8 2.4.4 2.7h.2l-.7.5c-1.5-.7-1.8-2.8-.4-3.7 1-.7 2.4-.5 3.1.6zm1.3 2.2.3.6-3.7 2-.3-.6 3.7-2zm.1 20.3.1-.7 4.2.4v.7l-4.2-.4zM132.2 476l.2 2.5-.7.2-.3-4.7 2.2 2.8.6-3.5 2 4.3-.8.1-1-2.4.1-.1-.5 3.2-1.8-2.4zm6.1.7-.8.3-1.6-3.8.8-.4c1.2-.5 2.4-.3 3 1 .5 1.3-.2 2.4-1.4 2.9z"/><path fill="#CAB55E" d="m136.8 473.5 1 2.6c1-.3 1.7-1 1.2-2-.4-1-1.2-1-2.2-.6z"/><path fill="#060304" d="M141.2 470.4a2 2 0 0 1 1.1-.3l.5.7c-.5 0-.9 0-1.3.2-.7.4-.9 1.4-.5 2 .7 1.2 2.3 1 2.7-.2v-.2l.5.7a2.2 2.2 0 0 1-3.8.1c-.6-1-.2-2.4.8-3zm3.1-2.2a2 2 0 0 1 1-.5l.6.7c-.4 0-.8 0-1.2.3-.7.5-.7 1.5-.2 2.1.9 1 2.4.6 2.6-.7v-.2l.6.7c-.6 1.6-2.6 2-3.7.7-.8-1-.6-2.4.3-3.1zm2.7-2.6a2 2 0 0 1 1-.6l.7.6c-.5 0-.8.1-1.2.5-.5.6-.5 1.5.1 2 1 1 2.5.4 2.5-.9v-.2l.7.6a2.2 2.2 0 0 1-3.7 1.1c-.9-.9-.9-2.2 0-3.1zm1.5-1.5.4-.5 2.8 2.1.8-1 .5.5-1.2 1.5-3.3-2.6zm5.3.1-1.3-2.3h-2.3l.4-.7h1.6l-.8-1.3.4-.7 1.1 2h2.5l-.3.7h-1.8l.8 1.6-.3.7zm2.2-4-1.5-2-2.3.3.3-.7 1.5-.2-1-1.3.4-.7 1.4 1.9 2.5-.4-.3.7-1.8.3 1.1 1.4-.3.7zm1.7-4.1-1.8-1.8-2.2.6.2-.8 1.5-.4-1.1-1 .2-.9 1.6 1.7 2.5-.6-.2.7-1.7.5 1.2 1.3-.2.7zm-2.9-5.6v-.6l4.2.6-.1.7-4.1-.7zm-35.4 27.7c0-.6.9-.4.8.1-.1.5-.9.4-.8-.1zM97 453.4c.2.6 0 1-.3 1.4l-.5-.5c.2-.2.3-.4.2-.7-.1-.5-.8-.7-.9.2v.3c0 .6-.3 1.1-1 1.3-1.6.5-2.5-1.8-.7-2.6l.3.7c-1 .2-.6 1.5.2 1.3.4-.1.4-.4.5-.8v-.3c.1-.5.3-1 .9-1.2.7-.2 1.2.3 1.4 1zm-1.1 8.2-.5-.8 3.7-2 .4.7c.6 1.1.6 2.4-.6 3-1.3.8-2.4.2-3-.9zm-1.7-3.6 1.6-.7 1.6-2.2.4.7-1.1 1.5 1.8.2.3.7-2.7-.3-1.7.8-.2-.7z"/><path fill="#CAB55E" d="m98.9 459.7-2.6 1.4c.5.8 1.2 1.5 2.2.9 1-.5.9-1.4.4-2.3z"/><path fill="#060304" d="m98.3 465.3-.5-.5 3.6-2.8-.6 4.3 2.2-1.8.4.6-3.5 2.8.6-4.3-2.2 1.7zm4.7 5.2-1.8-1.7 3-3 1.6 1.6-.4.5-1.2-1.1-.6.6 1.1 1.1-.4.5-1.2-1.1-.9 1 1.2 1-.5.6zm1.7 1.4 1.1-1.5.4-2.7.6.5-.2 1.9 1.7-.7.6.5-2.5 1-1.2 1.4-.5-.4zm6.7-.7c.5.3.7.7.7 1.2h-.7c0-.3 0-.5-.3-.6-.5-.3-1.1 0-.6.8l.2.2c.4.5.7 1 .3 1.6-.8 1.4-3.1.5-2.4-1.3l.7.3c-.6.9.7 1.4 1 .7.3-.3.1-.6-.1-.9l-.2-.2c-.3-.4-.6-1-.3-1.5.4-.6 1.2-.6 1.7-.3zm.4 4.6c.2-.5 1-.2.7.3-.2.5-1 .2-.7-.3zm2.4-3 .7.2.2 2.8 2-2.4.2 3.1 1.8-2.3.7.3-3 3.8-.3-3.2-2 2.5-.3-4.8zm12 3.2 2.5.1-1.9 1.4.6 2.6-2-1.5-2.2 1.5.7-2.6-1.9-1.4 2.4-.2 1-2.2.8 2.2zm-.3.4-.6-1.4-.5 1.4-1.4.1 1 .8-.4 1.6 1.3-.9 1.3 1-.4-1.7 1.1-.8h-1.4zM90.3 366h.1l.1.1h.3v-.3l-.2-.1.3-.6.8.5-.9 1.4-.8-.5.3-.5zm-1.3 2.5.2.1.2-.1c.1-.2 0-.2 0-.2v-.1h-.2v-.1l.2-.5.9.4-.7 1.4-.9-.3.3-.6zm-1.2 2.6h.1l.2.1.2-.2v-.2H88l-.1-.1.2-.6.9.4-.6 1.5-.9-.3.2-.6zm-.8 2.7h.4l.2-.1v-.2h-.2l-.1-.1v-.6l1 .2-.4 1.6-1-.2.2-.6zm-.5 2.8h.2c.1 0 .2 0 .2-.2v-.2h-.3v-.7l1 .2-.3 1.6-1-.1.2-.6zm-.5 2.8h.4l.1-.2v-.2h-.3v-.7l1 .1-.2 1.6h-1v-.6zm0 2.8h.4v-.5h-.3v-.6h1v1.6h-1v-.5zm.3 2.8h.4v-.4h-.4v-.6l.9-.1.2 1.6-1 .1v-.6zm.5 2.8h.2l.1-.3-.1-.2h-.3l-.2-.5 1-.2.3 1.6-1 .2v-.6zm.7 2.8.2-.1.1-.3-.1-.2h-.3v.1l-.2-.6.9-.2.5 1.5-1 .3-.1-.5zm2.3 5.1.2-.1v-.3c0-.2-.1-.2-.2-.2l-.2.2-.3-.5.8-.5.8 1.4-.9.5-.2-.5zm1.5 2.4.2-.1v-.3l-.2-.2h-.1l-.1.2H91l-.3-.5.8-.5.9 1.3-.8.6-.3-.5zm1.7 2.3.1-.2v-.3c-.1-.1-.2-.1-.2 0h-.2v.1l-.5-.5.8-.5 1 1.2-.7.6-.4-.4zm1.8 2h.1l.1-.1v-.3l-.2-.1h-.1l-.1.1v.1l-.5-.4.7-.7 1.1 1.2-.6.6-.5-.4zm2.2 2v-.2l.1-.1v-.2h-.3l-.2.1-.5-.3.6-.7 1.3 1-.6.7-.5-.3zm2.2 1.6.1-.2v-.3H99l-.1.2-.6-.3.6-.8 1.3 1-.5.7-.5-.3zm2.4 1.5v-.1l.1-.1v-.3h-.3l-.1.2-.6-.2.5-.9 1.4.8-.4.9-.6-.3zm2.6 1.2v-.2l.1-.1-.2-.2h-.2l-.1.2v.1l-.6-.2.4-.9 1.5.6-.4 1-.5-.3zm2.7 1v-.3l-.1-.2h-.3v.4l-.7-.2.4-.9 1.5.5-.3 1-.5-.2zm2.7.7v-.4l-.2-.2h-.2v.5h-.6l.2-1 1.5.4-.1 1-.6-.2zm31.5-13.8h-.2v-.1l-.2.1c-.1.2-.1.2 0 .2v.1h.1l.1.1-.3.5-.8-.5.8-1.3.8.4-.3.5zm1.4-2.5h-.2l-.1-.1-.2.2v.2l.2.1-.2.6-.8-.5.7-1.4.9.4-.3.5zm1.1-2.5-.2-.1-.2.1v.4h.2l-.1.6-1-.3.6-1.5 1 .3-.3.6zm.9-2.8h-.3c-.1 0-.2 0-.2.2v.2h.3v.1l-.1.6-1-.3.5-1.6 1 .3-.2.5zm.5-2.8h-.4l-.1.3v.2h.5v.6l-1-.2.3-1.5 1 .1-.2.6zm.4-2.7h-.4l-.2.2v.2h.4v.6h-1l.1-1.7h1v.7zm0-2.8h-.4l-.1.2v.2h.4v.6h-1v-1.6h1v.6zm-.2-2.9h-.4v.5h.4l.1.6h-1l-.1-1.5 1-.2v.6zm-.5-2.7h-.3v.5h.3l.2.5-1 .2c0-.6-.1-1-.3-1.6l1-.2v.6zm-.7-2.8h-.3v.5h.4l.2.5-1 .3c0-.5-.2-1-.4-1.5l.9-.4.2.6zm-2.3-5.1h-.2v.4l.1.1h.4v-.1l.3.5-.8.4-.8-1.4.8-.5.3.6zm-1.5-2.4h-.2v.4l.2.1.2-.1.4.4-.8.6-1-1.4.9-.5.3.5zm-1.6-2.3h-.1l-.1.2h-.1v.3h.5v-.1l.4.4-.7.6-1-1.2.7-.7.4.5zm-2-2.1-.1.2h-.1l.1.3c.1.1.2 0 .2 0l.2-.1.5.4-.7.6-1.2-1.1.7-.7.4.4zm-2.1-1.9v.1l-.1.1v.3h.3l.1-.1.5.3-.6.7-1.2-1 .6-.7.4.3zm-2.2-1.6h-.1v.2h-.1l.1.2.2.1h.1v-.2h.1l.5.3-.5.7-1.4-.9.6-.8.5.4zm-2.5-1.5v.2h-.1l.1.3h.3l.1-.2.6.2-.5.8-1.4-.7.4-.9.5.3zm-2.5-1.2-.1.2v.1l.1.2h.2v-.1l.2-.2.5.2-.4.9-1.4-.7.3-.8.6.2zm-2.7-1v.4l.1.2h.2v-.1l.1-.2.6.1-.3 1-1.5-.6.2-.9.6.2zm-2.7-.7v.4l.1.1h.2l.1-.2v-.1l.6.1-.2 1-1.6-.4.2-1 .6.2zm-5.6-.6v.3l.2.1h.2v-.4h.6v1h-1.6v-1h.6zm-2.9 0v.3l.3.1h.2v-.4h.6v1H113v-1h.5zm-2.8.3v.4l.1.1h.4v-.4h.6l.1.9-1.6.2-.2-1h.6zm-2.7.7v.3h.5v-.4l.5-.2.2 1c-.5 0-1 .2-1.5.4l-.3-1 .6-.1zm-2.7.9v.2h.5v-.3l.5-.3.3 1-1.5.5-.4-.9.6-.2zm-2.6 1.1v.2h.4l.1-.1v-.3h-.1l.5-.3.4.9-1.4.7-.5-.9.6-.2zm-2.5 1.3v.1l.2.2h.3c0-.1.1-.2 0-.2v-.2l.4-.4.5.8-1.4.9-.5-.8.5-.3zm-2.3 1.7.2.2h.3v-.4l-.1-.1.5-.4.5.8-1.3 1-.6-.8.5-.3zm-2.2 1.8.2.1h.3v-.4H96l.4-.5.6.8-1.2 1-.6-.6.4-.4zm-1.9 2 .1.1h.3l.1-.2v-.1l-.2-.1.4-.5.7.6-1.1 1.2-.8-.6.5-.4zm20.7 51.7c1.6-.1 1.3 2.5-.1 2.2.3-.7.4-1.4.1-2.2zm20.6-6.4c1.2-1.2 2.6 1 1.3 1.7-.2-.7-.6-1.3-1.3-1.7zm-4.6 2.9h-.1c1.4-1 2.4 1.5 1 2 0-.8-.3-1.5-1-2zm-5.1 2.1-.1-.1c1.5-.6 2.1 2 .7 2.2 0-.8-.1-1.5-.6-2.1zm-5.4 1.2v-.1c1.6-.4 1.7 2.2.2 2.2.2-.7.2-1.5-.2-2.1z"/><path fill="#060304" d="m137.3 403.2.8-.7.5 2.7 2.4.6-.8.8-1.6-.5.4 1.6-.8.7-.4-2.5-2.6-.7.8-.7 1.7.5-.4-1.8zm-4 3.4.9-.6v2.8l2.2 1-1 .6-1.4-.8v1.7l-.8.5v-2.5l-2.4-1 .9-.7 1.6.8v-1.8zm-4.6 2.7 1-.5-.5 2.7 2 1.4-1 .4-1.3-1-.2 1.7-1 .4.5-2.5-2.3-1.5 1-.4 1.5 1 .3-1.7zm-5 1.7 1-.2-1 2.6 1.8 1.7-1 .2-1.1-1.2-.5 1.6-1 .2.8-2.3-1.9-1.9 1-.2 1.3 1.3.6-1.7zm-5.3 1h1.1l-1.3 2.3 1.4 2h-1.1l-.9-1.3-.7 1.4h-1l1.2-2-1.6-2.3h1.1l1 1.5.8-1.6z"/><path fill="#060304" d="M166 444.8a40.3 40.3 0 0 1-80.7 0c0-10.5 5.1-22 12.4-29.5l.9.4h.4l.5.3A41.7 41.7 0 0 0 87 444.8a38.7 38.7 0 1 0 56-34.5l1.1-1v-.4c13.3 6.7 22 21 22 36z"/><path fill="#060304" d="M88.6 444.9c0-10 3.9-19 10.2-25.6l.9.3a36.3 36.3 0 1 0 43-6.7l.7-.6A37 37 0 1 1 88.6 445z"/><path fill="#060304" d="M98.9 445.5a26.7 26.7 0 1 0 33-26l1.2-.4a27.5 27.5 0 1 1-22.6 3.4l1 .1a27.3 27.3 0 0 0-12.6 23z"/><path fill="#CAB55E" d="m105.6 460.2-1.8.4-.8-1.2 2.6.8zm42.8-39.2-.8.8c.4.3.6.4 1 0 .3-.2.2-.5-.2-.8zm-1.1 1.3-.1-.1-.8.8c.3.3.7.8 1.2.4.3-.4 0-.8-.3-1zm7 9.2c-.8.3-1.2 1.2-.9 2 .3.7 1.2 1 2 .7.8-.3 1.2-1.1.8-2a1.5 1.5 0 0 0-2-.7z"/><path fill="#060304" d="M137.1 445.1h-.7v1.2h.7v-1.1zm-3.3 0h-.7v1.2h.7v-1.1zm1.9-.8h-1v-1.6h1v1.6zm5.2-2h-.7v1.2h.7v-1.1zM106 445h.7v-1.2h-.7v1zm1.8 2.2v1l.7.2v-1l-.7-.2zm-1.9-.2v1h.6v-1h-.6z"/><path fill="#CAB55E" d="M505.3 444a40 40 0 1 1 80.1 0 40 40 0 0 1-80 0z"/><path fill="#060304" d="M505.3 444a40 40 0 1 0 68.5-28.3l-1.3.6a38.6 38.6 0 1 1-44.4-7l-1.2-.9a39.9 39.9 0 0 0-21.6 35.5z"/><path fill="none" stroke="#060304" stroke-miterlimit="99.5" stroke-width=".2" d="M505.3 444a40 40 0 1 0 68.5-28.3l-1.3.6a38.6 38.6 0 1 1-44.4-7l-1.2-.9a39.9 39.9 0 0 0-21.6 35.5z"/><path fill="#060304" d="M570.9 417.1c7.4 7.3 11.3 17 11.3 26.9a36.8 36.8 0 1 1-52.7-33.3l.5.4a36.2 36.2 0 1 0 40.1 6.3l.8-.3z"/><path fill="none" d="M570.9 417.1c7.4 7.3 11.3 17 11.3 26.9a36.8 36.8 0 1 1-52.7-33.3l.5.4a36.2 36.2 0 1 0 40.1 6.3l.8-.3z"/><path fill="#060304" fill-rule="evenodd" d="m538 433 2-5.1h-1l-1.5 4-1.4-4h-1l2 5.2h.9zm3.5 0v-5h-1v5.2h1zm2.8 0v-4.2h1v-1h-3v1h1v4.3h1zm1.7 0 .6-1.3h1.9l.5 1.4h1.1l-2.2-5.2h-.7L545 433h1zm1.5-3.8.6 1.6H547l.5-1.6zm4.2 3.8v-3.8l1.3 3.9h.8l1.4-4v4h1v-5.2h-1.4l-1.4 4-1.4-4h-1.3v5.2h1zm-22 21.4v-2h1.3c.6-.3 1-1 1-1.6 0-.5-.2-.9-.5-1.2-.4-.3-.7-.4-1.6-.4h-1.3v5.2h1zm0-4.3h.3c.8 0 1 .2 1 .7 0 .5-.3.7-1 .7h-.3v-1.4zm5.9 4.3v-.9h-1.9v-1.2h1.8v-1h-1.8v-1.2h1.9v-.9h-2.8v5.2h2.8zm2.2 0v-2l1.4 2h1.2l-1.5-1.9c.5-.1.8-.3 1-.6.3-.3.4-.7.4-1 0-.5-.1-.8-.4-1.1-.3-.4-.7-.6-1.5-.6h-1.6v5.2h1zm0-4.3h.6c.6 0 1 .3 1 .8s-.4.8-1 .8h-.6v-1.6zm6 4.3.6-1.3h1.9l.5 1.3h1l-2.1-5.2h-.8l-2.1 5.2h1zm1.5-3.8.6 1.6h-1.1l.5-1.6zm4.2 3.8v-2l1.3 2h1.2l-1.4-1.9c.5-.1.8-.3 1-.6.2-.3.4-.7.4-1 0-.5-.2-.8-.4-1.1-.4-.4-.8-.6-1.5-.6h-1.6v5.2h1zm0-4.3h.6c.5 0 .9.3.9.8s-.3.8-1 .8h-.5v-1.6zm5 4.3v-4.3h1v-.9h-2.9v1h1v4.2h1zm4.7 0v-.9h-1.8v-1.2h1.7v-1h-1.7v-1.2h1.8v-.9h-2.8v5.2h2.8zm2.5.1c1 0 1.7-.7 1.7-1.7 0-.4-.2-.8-.5-1-.2-.3-.4-.4-.9-.5-.7-.3-.9-.4-.9-.8 0-.3.3-.5.6-.5s.5.2.6.6h1c0-.9-.7-1.5-1.6-1.5-.8 0-1.5.7-1.5 1.5 0 .4.1.8.4 1 .2.3.4.3 1.1.6.5.2.7.4.7.8s-.3.6-.7.6c-.4 0-.7-.2-.7-.7h-1c0 1 .7 1.6 1.7 1.6zM529 443.8v-1h-1.8v-1.2h1.7v-.9h-1.7v-1.3h1.8v-.9h-2.8v5.3h2.8zm1.8 0 1.2-1.8 1.2 1.8h1.2l-1.8-2.6 1.8-2.7h-1.2l-1.2 1.9-1.2-1.9h-1.2l1.8 2.7-1.8 2.6h1.2zm6.5-.8c-1 0-1.8-.9-1.8-1.9 0-1 .8-1.8 1.7-1.8l.7.2c.3 0 .5.2.7.5l.6-.7c-.5-.6-1.2-.9-2-.9a2.7 2.7 0 0 0-2.6 2.7c0 1.5 1.2 2.8 2.7 2.8.7 0 1.4-.3 1.9-.8l-.7-.7c-.3.4-.7.6-1.2.6zm5.1.9a2.7 2.7 0 1 0 0-5.5 2.7 2.7 0 0 0-2.7 2.8c0 1.5 1.2 2.7 2.7 2.7zm0-4.6c1 0 1.8.9 1.8 1.9 0 1-.8 1.8-1.8 1.8s-1.7-.9-1.7-1.8c0-1 .7-1.9 1.7-1.9zm6.4 4.5v-1h-1.6v-4.3h-1v5.3h2.6zm2.6 0 2-5.3h-1l-1.4 4-1.4-4h-1l2 5.3h.8zm5.6 0v-1h-2v-1.2h1.8v-.9h-1.7v-1.3h1.8v-.9h-2.8v5.3h2.8zm2.1 0v-2l1.4 2h1.2l-1.4-2c.5 0 .8-.3 1-.6.2-.3.4-.7.4-1 0-.4-.2-.8-.4-1-.4-.5-.8-.7-1.5-.7h-1.6v5.3h1zm0-4.4h.7c.5 0 .9.4.9.8 0 .5-.4.8-1 .8h-.6v-1.6zm6.5 4.4v-1h-1.9v-1.2h1.8v-.9h-1.8v-1.3h1.9v-.9h-2.8v5.3h2.8z" clip-rule="evenodd"/><path fill="#060304" d="M524.5 422.6c.4 0 .4-.4 1.5-.5-.7 1-1.7 1.8-2.6 2.5-.4-.5 0-1 .5-1.6l.6-.4z"/><path fill="#060304" fill-rule="evenodd" d="m567.4 415.6-12.2 2.3c2.3 3 4.3 4.9 7.6 5.6 1.3.3 2.8.3 4 .2-1.3-2-3.9-3.1-4.8-5.3 1.1-.4 1.9 0 2.4.1 1.5.6 3 2.5 4.1 3.7-.3-1.6-2.1-5-3.8-5.4.3.4 1 1 1 1.7-1.4-1-1.2-1.2-2.7-1.2-.3-.5 1.8-1.7 2.8-1 1.7.8 3.2 3.9 3.5 6.6.6-.7 1-2.4.6-3.3a12 12 0 0 0-2.5-4zm-3 4.4c.8 1 2.4 2 3 3 .3-.6 0-1.1-.8-2-1-.8-1-1-2.1-1zm-7.5-2.2c1.1 1.5 3.5 4.2 7 4.7-.9-2-5-4-7-4.7zm-29.6-2.2c1-.3 2-.7 2.8-.4l-1 3.3c1.3.4 1-1.7 1.8-2.5.5-.7 1-.6 1.7-1l1 .7c-.2.4-2 1.4-2 2.2 0 0 2.7.9 4-.6a4 4 0 0 1 2 .6c-2.2 3-6.1 6.6-9.4 7.3-1.3.3-2.8.3-4 .1 1.3-2 3.8-3 4.8-5.3-1.1-.4-1.9 0-2.4.2-1.5.5-2.6 2.2-4 3.2.3-1.6 2-4.4 3.7-5-.3.5-1 1.1-1 1.8 1.4-1 1.2-1.2 2.7-1.2.3-.5.8-2.2.8-2.7-1.1-.1-2.6 1-3.6 1.6-1.7.9-3.2 4-3.5 6.7-1.2-.8-1-2.4-.6-3.3a10 10 0 0 1 6.2-5.7zm6.8 4a12 12 0 0 1-7 4.6c.8-2.1 5-4.1 7-4.7zm-3.3-1c.5.1 1.2 0 1.6.5-.4.2-1.8.6-2.4 1.2.1-1.3.5-1.4.8-1.6z" clip-rule="evenodd"/><path fill="#060304" fill-rule="evenodd" d="M517.5 460c1.2-.2 2 .7 2.7 1.5.6.9 1 1.7 3.6 3.5a8 8 0 0 1-6.3-5zm3.6-.6c1.7 1.2 4.8 3 4.3 5.5-1.6-.9-4.3-3-4.3-5.5zm3.8-1c1 1.2 2.2 3 1.6 4.6-.4-1.6-3.4-3-1.6-4.6zm8 12.8c-2.1.5-5.7-.9-7.4-2.2 2.1-1.7 4.4 1.7 7.5 2.2zm1.4-.7c-2.6-.1-5-2.1-5.5-3.2 1.9 0 4.4 1.8 5.5 3.2zm-4.2-6c.9.6 3.3 1.3 3.2 3.5-1-.9-3.8-1.3-3.2-3.6zm11.6 10.5c-1.1.5-2.2 2-3.6 1v-.5l3.6-.5zm-2.1-7.3c2 0 2.9 2.3 4 3.4-.4 1.1-1.3 0-2 0-1.1-.8-2.4-1.3-3.2-2.5 0-.6.7-.7 1.2-1zm12-2.1c.7-.2 1 .4 1.2.8.1.7 0 1.4-.4 2-1.4 1.8-3.4 2.3-5.7 2.3 1.3-1.8 2.8-4.1 5-5.1zm-.2 1.8c-.2 1.2-1.6 1.7-2.6 2.4.4-1.3 1.3-2 2.6-2.4zm-37-32.4 2 2.3c.3-.7 2.3-2 2.3-2s0-.3-.5-.2c1.1-2.7 4.5-4.6 3.6-7.9-3.6 1.3-3.5 4.9-4 7.9-.6.2-.9.4-1.2.9a5.8 5.8 0 0 1-1.1-4.8c.3-2.1 1.8-6.2 4.9-7.3.4 1 .5 1.3 1 1.8l1.4-.6c.2.2.2.5.8 1a9 9 0 0 0 2.9.4c-.8 2.4-3.3 7-6.8 8.6.4.1.5.5.8.8 0 0 1-.7 2-1-.6 4 0 8.8-2.8 12-.4.6-1.2 1.3-.5 2l.6.6 1.9-2.5c1.3 3 3 6.8 1.2 10.1l-1.2 1c.3.4.8.6 1.2.7l1.7-2.7c1-.1 1.4.6 1.8 1.3 1 2.5 2.2 5 1.5 8h.5c.6-.8.5-2 1-2.9 1.6 1 3.6 1.8 4.5 3.6 1.4 1.7 1.5 5.3 4.5 4.9-1-1.2-3-1.7-2.9-3.6l2.3-3.3c2.7.9 6.6.9 7.7 4.5 1.6-1.7 3-3.8 5-5.2.7-.2 1.4-.2 2 0 1.5 1.4 3 3.1 2.1 5.4-.7 1.7-2.8 3-4.6 3.5-.5 0-1.5.4-2 .5 3.7 2.5 4.8 2 6.9 2.8 0 0-1.2 2-2.3 2-2.1 0-5.2-2.6-5.2-2.6l-2.2.4-1.3-.9c-1 1.3-2.2 3.4-4.2 3.2l-2.2-.4a24 24 0 0 0-2.2-2.5c2.5-1.3 5.8-.2 8-1.8.4.5 1 1 1.7 1.2.7.1 1.6 0 2-.6.2-.4.4-.7.3-1.1-.4-.7-1.2-.3-1.5-.9.9-.8 2.2 0 3.2-.4a8.2 8.2 0 0 0 4.5-2.6c.5-1.3.1-2.6-.8-3.6-.4-.6-1.2-.6-1.8-.5-2.4 1.2-3.8 3.8-5.4 6-1 0-1.1-1.2-1.6-1.8-.8-2.4-3.3-2.7-5.2-3.5-.5.7-1.2 1.3-1.4 2 .1.3.4.3.6.1.6-.8 1.6-.8 2.6-1a3 3 0 0 1 2 1.6l2.7 3.9c-.7 0-1.5.2-1.8.8l-4.5-1.4c-.2.7.4 1.6-.5 2-5.2-1-11.4-.4-14.8-4.8 1-.4 2-.6 2.8-1.1-4.2-1.4-10-3.1-10.7-8.4l3.6.3c.2-.5 0-1.5.9-1.5.8-.7.3-1.9.2-2.6-.7-1.6-.7-3.6-2.5-4.5-.8 3.3 1.2 4.7 2.1 6.9-3-1.5-3.7-5-3.4-7-.5-.8-1-1.8-2-1.7-.3 4 1.6 7.2 4.5 9.1-2.8-.2-5-3.2-5.7-5.9-.4-1.6 0-3.4.2-5l1.3.6c-1-1.7-2-3-2.2-6 0-2.5.5-4.7 1.7-6.6zm.3 2 1 1a13 13 0 0 0 .2 6.7 7 7 0 0 1-1.2-2.5c-.3 1.1.1 2 0 2.8-1.7-2.3-.8-6.5 0-8zm2.7 12.5s-1.4-1.3-1.6-2.7c1 .2 2 1.6 2 1.6l-.4 1zm2.4-24c.2.5.6 1 .2 1.4-1.5 2-2.7 4-3.2 6.4-1.3-3 1-5.7 3-7.7zm-.6 11c-.4 3.6 2.3 8.1-1.3 10.5-1.4-3.2-1.8-8 1.3-10.5zm-.8 2.6c-.6 2.3 1.2 4.8-.2 6.7-.3-2.5-.9-5 .2-6.7zm3-2.6c-.3 1.8 0 4.3-.7 5.9-.2-1-1-5.5.6-5.9zm0 13.2c1 1.4 1.1 3.7 1 4.6 0 .4-.2 1.6-.5 1.9-.3-2-1.7-4.8-1.1-6l.5-.5zm2.5-22.1c1 1.2-1.7 5.4-3 5.4 2.3-2.7 2.6-5.2 2.6-5.2l.4-.2z" clip-rule="evenodd"/><path fill="#060304" fill-rule="evenodd" d="M568.1 423c.5.2.7.9 1 1.4.5-.4 0-2.5 0-2.5.5.8 1 0 1.4 0 2.3 2 4.9 5.2 3.6 8.6-.3 1-.6 1.6-.9 1.8-2.3-.9-5.7-3.8-6.5-6.8-.4 0-1 0-1.4.3.5 3.1 3.7 5 5.8 6.7l-.2.2a8 8 0 0 1-4.7-3c-1.5-1.6-1.6-2.6-2.5-4.2 0-.4.2-.6.4-1 .2-.3.3-.3.6-.4 0 0 1.4.1 1.4-.4 1.5-.1 1.3-.2 2-.7zm-.2 1.9c1.9 1 3.5 2.5 3.4 4.9-1.7-1-3.6-2.7-3.4-5zm5.2 2.7c.1.9-.4 2-.4 2 0-1.6-1.5-4.1-2.2-5.3 1 .2 2.6 2 2.6 3.3zM555.7 469c1-1.8 1.7-3.8 3.3-5.3 1-.4 2-.3 3-.4-.4-4.1 2-7.3 4.7-9.9.6 1 .6 1.8 1.8 3.1.6-.3 1-.7 1.7-1.2a2 2 0 0 1-2-1.5c-1-4 1-6.9 2.4-10.1.5.5 1.2 1.3 2.5 1.1-2.5-2.9-5.2-6.2-4.7-10.3l.2-1.8s1.6 1 2.8 1.2c.5-.2.5-.6.8-1l1.5.5s1-1.5 1-2.3c2.8 1.6 3.2 5 2.8 8.2-.4 2.2-1.1 4.3-2.9 5.7 0 .3.2.6.4.7.9-.3 1.7-.4 2.6-1.1a10 10 0 0 1-2.5 10c-1 1.1-2.3 2-4 1.6a1 1 0 0 0 0 1.1c1 .6 2.4.2 3.4-.1.3.3.4.9.4 1.3a15 15 0 0 1-5.4 6.5c-1.8 1.2-4.4 1-6.4.5-.3-.5-.5-.7-.7-1.3l-.5 1.7c.8.3 1.7.4 2.6.6 0 0-.1.9-1 1.8.6.4 1.5.7 2.5.6-.3 2.3-2.8 2.9-4.5 3.7-2.9 1.1-6.7.2-9.5 1.4-.3-.3-.8-.8-.7-1.2 2.2-1.2 2.7-1.4 4.4-3.8zm7-1.9c-1.5 1.8-4 4.7-6.7 3.7 1.8-1.3 4-4.5 6.8-3.7zm-3.3-2.3c.7-.2 1.4-.1 1.4-.1 0 1.9-2 2.4-3.3 3.4.4-1.2.6-2.7 2-3.3zm4 4.6c-.5 1.7-2.8 3-6.7 2.7 4-1 6.6-2.7 6.6-2.7zm3-14c.5.8.8 2 0 3-1.1 1.8-2 3.3-2.6 5.3-1.6-2-.2-4.9 1-6.5.7-1.2 1.2-1.5 1.7-1.7zm3.1 2c1.4 2.2-1.5 5.8-4.4 6.6.4-2.6 2-5.4 4.4-6.7zm1.6 2 1.8-.4c-.6 2.5-3.7 5.2-5.2 5.2 1.6-1.4 3-2.7 3.4-4.8zm0-13.7c.4.3 1.4.5 1 1a15.7 15.7 0 0 0-2.5 6.8c-1.5-2.4.9-5.9 1.5-7.8zM570 435c1.4.8 1.4 2.7 1.6 3.1l.7 3a5 5 0 0 1-2-2.5c-.3-1.4-.5-2.1-.3-3.6zm3.6 12.3c.4.6.4 1.5.5 2.3 0 1.8-1.4 3-2.5 4.1-.6-.4-.7-1.3-.5-2 .7-1.5 1.1-3.4 2.5-4.4zm-.6-11.4c1.1 1.6 2.1 3.8 1.2 5.8-1.5-1.4-1.8-3.8-1.2-5.8zm3 11.2c0-.2.4-.5.7-.4 1 2.4-1 5.4-2.1 6.9-.5.5-1.3 1-1.6.8 2-1.8 3-4.7 3-7.3zm-1-13.5a5.3 5.3 0 0 1 1.5 4.7l-.4 1.5c-.2-2-1.5-3.6-1.4-5.5l.4-.7z" clip-rule="evenodd"/><path fill="#060304" d="M555.2 340.7a40 40 0 1 1 0 79.8 40 40 0 0 1 0-79.8z"/><path fill="#CAB55E" d="M555.2 342.1a38.5 38.5 0 1 1 0 77 38.5 38.5 0 0 1 0-77z"/><path fill="#060304" d="M540.2 373.4c-.9-.9-.8-2.4-.4-3.5.9-2.7 1-6.5 3.6-8l2.8-1.6c.3-.5 1-2.5.1-3-.7-.5-1.3-.8-1.4-2.2 0-.7.7-1.3 1.2-1.3.6 0 1.5.2 1.8 1 .4.5.3 1.4 0 2l1.7-.2c-.5-.6-.9-1.3-.6-2.2a2 2 0 0 1 1-1c.7-.2 1.5 0 1.8.9.4.8 0 1.5-.2 2.2h1.8c-.6-.8-.7-2.2-.2-2.8.3-.3.8-.5 1.4-.4.5 0 1 .4 1.1.8.4 1 0 1.9-.5 2.6.7 0 .9 0 1.8.4-.4-1-.6-2.6.7-3.2.5-.3 1-.1 1.5.1.4.4.6.8.6 1.4 0 .7-.5 1.5-1 2 .5.4 1.7-.1 2.3.1 1.4.7 2.3 1.7 3.5 3 1-.2 2.4-.8 3.2.2 1.9 2 3.4 4.2 5.2 6.2l4 15.3-1.7 1.7c.8 3.6 0 7.4 0 11 .1 1.4.7 2.6 1.3 3.8l-3.3 4.2-2.8-1.7v1.7a41.1 41.1 0 0 1-16.2 5c-3.3.4-6.6.7-9.9.2-.3-.2-.7-.4-.6-.8 2-1.7 4.9-3.5 5.5-6.5.5-1.7.4-3.9-.7-5.2-2.2 0-3.6-2-6-1.8-1.3-.1-2.5-1.3-3.1-2.4-.5-1.3.1-2.5.8-3.5-2-.8-1.2-3.5-1.3-5.2-.8-1-3-.8-3-2.3.3-2.3 2.8-5 4.2-7z"/><path fill="none" stroke="#060304" stroke-miterlimit="99.5" stroke-width=".2" d="M540.2 373.4c-.9-.9-.8-2.4-.4-3.5.9-2.7 1-6.5 3.6-8l2.8-1.6c.3-.5 1-2.5.1-3-.7-.5-1.3-.8-1.4-2.2 0-.7.7-1.3 1.2-1.3.6 0 1.5.2 1.8 1 .4.5.3 1.4 0 2l1.7-.2c-.5-.6-.9-1.3-.6-2.2a2 2 0 0 1 1-1c.7-.2 1.5 0 1.8.9.4.8 0 1.5-.2 2.2h1.8c-.6-.8-.7-2.2-.2-2.8.3-.3.8-.5 1.4-.4.5 0 1 .4 1.1.8.4 1 0 1.9-.5 2.6.7 0 .9 0 1.8.4-.4-1-.6-2.6.7-3.2.5-.3 1-.1 1.5.1.4.4.6.8.6 1.4 0 .7-.5 1.5-1 2 .5.4 1.7-.1 2.3.1 1.4.7 2.3 1.7 3.5 3 1-.2 2.4-.8 3.2.2 1.9 2 3.4 4.2 5.2 6.2l4 15.3-1.7 1.7c.8 3.6 0 7.4 0 11 .1 1.4.7 2.6 1.3 3.8l-3.3 4.2-2.8-1.7v1.7a41.1 41.1 0 0 1-16.2 5c-3.3.4-6.6.7-9.9.2-.3-.2-.7-.4-.6-.8 2-1.7 4.9-3.5 5.5-6.5.5-1.7.4-3.9-.7-5.2-2.2 0-3.6-2-6-1.8-1.3-.1-2.5-1.3-3.1-2.4-.5-1.3.1-2.5.8-3.5-2-.8-1.2-3.5-1.3-5.2-.8-1-3-.8-3-2.3.3-2.3 2.8-5 4.2-7z"/><path fill="#CAB55E" d="m540.1 375.4 1.7-2c-.5-.8-1-1.7-.6-3.1.7-2.4 1-4.5 2.3-6.6.6-.7 1.4-1 2-1.2.7.7 1.2 1.6 1.8 2.3 1.9 2.2 4.2 4.1 4.8 7 1 2.6 1.5 5.6 3.8 7.6-.3.4-.8.4-1.2.8 0 .5.4 1 .9 1.3.6 0 1.3-.5 1.4.4-.4.5-1.6.1-1.5 1.1.2.6.2 1.2.9 1.4.4 0 .9 0 1.2-.2-.8-1.2.8-1 1.3-1.4-.4.8-.6 2.1-1.7 2.5-.7.2-1.3-.3-2.1-.1v.3l1.8 1.5c1.7-.2 2.5-2.2 3.6-3.1.3.8.2 1.9.3 2.8l2.5 1.6-1 4.5c-.5-.4-1.2-.7-1.8-1 0 .1-.3.3 0 .5l2.8 1.7.2-.4c2 .9.3 3.3 1 5l2.8 1 .2-.2-.2-2.7c.9 1.8 1.2 3.7 1.7 5.6a17 17 0 0 1-5 2.2 48.8 48.8 0 0 1-16.3 2.2c5.8-7.7 1.7-12.2 1.7-12.2-2.4-.1-4.2-2-6.7-2-.9-.3-1.9-1-2-2 0-1 .7-2 1-3-.3-.5-1-.8-1-1.4.2-.5.9-.4 1.3-.3.4 0 .7.3 1.1.3.2-.4.2-.8.2-1.3-.2-.1-.5.2-.7.2-.7 0-1.4-.2-2-.3-.4-.8-.3-1.8-.4-2.6l1.5-.3c.2-.3-.3-.5-.4-.7l-2.1.3c-.6-.3-1.5-.5-1.8-1-.1-1.3 1.7-3.5 2.7-5zm9.2-14c1 2 3.4 3.7 4.6 5.4 2.3 2.8 4 6.3 7 8v1.3c-1.8-.2-2.6-2.1-3.4-3.6-2-3.6-5.9-6.2-8.9-8.6-.4-.4-1-1.3-1.1-2l1.8-.5zm-1.1-2.7c3.8-1 8 0 11.2 1 .2.2.2.5.2.8-3.5-1.3-8-1.7-11.7-1.2l.3-.6zm5 4.6s-.6-.3-.9-.2c2.6 2.8 6.7 5.4 7.6 9.4-2.8-3.5-7-8-8.5-10.1.5-.1 1.7.4 1.8 1zm5.8 1.5-3.3-2.5c1.7-.2 2.8 1.6 3.3 2.5zm1.2 3.4-2.6-2.9c1.4.4 2.8 1.4 2.6 2.9zm.3 2.8c-.4-1-2-2.7-1.9-3.2.5-.1 1.6 1.5 1.6 1.5l.3 1.8zm0-12c1.7 1.1 2.3 3.4 4.6 3.2l1.3-.6c3.2 2.7 6 5.8 6.3 10 .9 3.5 1.8 7 3 10.3l-3.2 2.6a48.5 48.5 0 0 1-1.3-14.1c-2.8-1.8-4-4.6-5.4-7.4-.2-.5-.9-.2-1.3-.4l-.1.1c1.5 6.1 3 12.3 3.4 18.8-2 .9-4.7 1-5.6 3.5l1 1.7c-.5 0-.8-.5-1.3-.7v-11.3l-1.4-15.7z"/><path fill="none" stroke="#060304" stroke-miterlimit="99.5" stroke-width=".2" d="M560.5 359c1.7 1.1 2.3 3.4 4.6 3.2l1.3-.6c3.2 2.7 6 5.8 6.3 10 .9 3.5 1.8 7 3 10.3l-3.2 2.6a48.5 48.5 0 0 1-1.3-14.1c-2.8-1.8-4-4.6-5.4-7.4-.2-.5-.9-.2-1.3-.4l-.1.1c1.5 6.1 3 12.3 3.4 18.8-2 .9-4.7 1-5.6 3.5l1 1.7c-.5 0-.8-.5-1.3-.7v-11.3l-1.4-15.7z"/><path fill="#CAB55E" d="M565 387.7c.7.2 1.4.6 2 .7-.8-1-2-2-2.9-3l1.6-1.2c.7 1.2.4 2.8 1.8 3.8v.2c-1 1.1-2.2 2.3-3 3.5v.1l2.4-1-.2 3-2.8-1.8 1.1-4.3zm1 9.6c.4 0 .8 0 .8.5.1.2-.1.3-.3.5-.3 0-.6-.3-.8-.5 0-.2 0-.5.3-.5zm-.3-2.6 1 .8-1 1.2c0-.6-.3-1.3 0-2zm4.1 2.7c.8-.4.5.9.4 1.7l-.3.5c0-.6-.9-1.7-.1-2.2zm3.7 3.2-.4.7c-.5-.3-1.7-.4-1.3-1.3l-.8-.8.2-4 2.3 5.4zm-.3-6.9a47 47 0 0 1 1.7 5.3l-.3.3c-1.2-1.1-1.5-2.8-2-4.3-.1-.6.2-1.1.6-1.3zm.8-8.5.5 1.7c-.3.2-.6-.5-1-.6 0-.4.4-.7.6-1z"/><path fill="#CAB55E" d="M570.3 375.3c.8 4-.1 9.9 3.2 12.8l.8.8c-.1 1.4-1 2.4-2.2 3.2-.5-1.8 0-4.1-1.8-5.2l-2-1c-.3-.7-.7-1.6-.8-2.4l1.6-.8s-.6-8.6-.9-9.6c1.5.8 1.8 1.1 2 2.2zm-9.1 6.7-1.6-.2c-.8-1.6-2-3-3.2-4.4 1.6 1.5 4.5 2 4.8 4.5zm.2-3v.7L559 378c1 0 1.6.7 2.4 1zm-4.8-6-2.4-2.7c-.4 0-1.2.2-1.3-.4l-.6-1.8c1.8 1.1 3.5 2.8 4.3 5zm-1.6.1c-.7 0-.4 1-.6 1.5-.5-.6-.5-2-.5-2.8l1.1 1.3z"/><path fill="#060304" d="M555.2 344.4a36.2 36.2 0 1 0 0 72.5 36.2 36.2 0 0 0 0-72.5zm0-.6a36.9 36.9 0 1 1 0 73.7 36.9 36.9 0 0 1 0-73.7z"/><path fill="#060304" d="M543.4 380.3c-.4-.5-1-.7-1.2-1.3.2-.5.6 0 1 0 .4.4.8.8 1 1.4 0 .6-.4 1.1-.9 1.5l-1.1-.4c.2-.5 1-.6 1.2-1.2zm1.9-9.8c1.1.6 2 1.5 2.5 2.7-1.6-.6-3.1-2.2-5.2-1.3l-.2-.1c.7-.9 1.7-1.6 2.9-1.3z"/><path fill="none" stroke="#060304" stroke-miterlimit="99.5" stroke-width=".2" d="M545.3 370.5c1.1.6 2 1.5 2.5 2.7-1.6-.6-3.1-2.2-5.2-1.3l-.2-.1c.7-.9 1.7-1.6 2.9-1.3z"/><path fill="#060304" d="m545 372.5 3 2.3c-.2.6-.7 1.2-1.1 1.6-.6 0-1.2 0-1.7-.2.5-.6 1.2-.9 1.8-1.4-.1-.4-.6-.3-1 0l-1 1c-.6-.4-1.5-.6-1.2-1.6-.1-.6-1-.5-1.1-1l2.2-.7zm4 20.7c1 .5 2 1.1 2.7 1.8l-.3.1-2.6-1.7.2-.2zm3.8 1-.2.3-2.5-1.7.4-.2 2.3 1.6zm-.6-1.9 2 1.4-.2.2-2.7-1.7c.3-.4.6 0 1 .1zm-.2 12.3 2.5 1c0 .2-.5.1-.5.2-1-.3-1.4-.6-2.3-1l.2-.2zm1.4-12.6 1.9 1.1-.3.3-2.7-1.7c.3-.6.8 0 1.1.2zm-.4 12c1.4.3 2.6 1 4 1.6l-.6.1-3.7-1.5.3-.2zm.3-13.1c1 .4 2 1 2.7 1.7l-.1.2-2.8-1.6.2-.3zm.8-.6c1 .3 1.9 1 2.7 1.6l-.2.2-2.7-1.6.2-.2zm.1 12.7c1.7.5 3.2 1.4 4.9 2.1.1.1-.4.2-.5.2-1.7-.7-3.2-1.3-4.7-2.2l.3-.2zm.2-13.6c1 .4 2 1 2.8 1.6l-.1.4-2.7-1.7v-.3zm.4-1.1 2.5 1.6v.4c-.9-.5-1.8-1-2.5-1.7v-.3zm.4-.9 2.2 1.6v.4c-.9-.4-1.6-1-2.4-1.5 0-.2 0-.4.2-.5zm.4 14.5c2 .7 3.7 1.7 5.6 2.6l-.4.2c-2-.8-3.7-1.7-5.6-2.6l.4-.2zm1.6-14.1v.4l-2-1.3v-.5l2 1.4zm.1 13.3 5.5 2.7c-.1.2-.2.3-.4.3l-6.2-3c.3-.5.6-.1 1 0zm.9-1.1 6.1 2.9c0 .2-.2.3-.3.3-2.3-.9-4.5-2.2-6.7-3.2.2-.5.6-.3 1 0zm.2-1.4c2.5 1.1 5 2.3 7.4 3.6l-.4.3c-2.5-1-4.8-2.3-7.3-3.6 0-.2.2-.2.3-.3zm1-1.2a174 174 0 0 1 7.7 3.8c0 .2-.2.2-.3.3-2.6-1-5.2-2.4-7.7-3.6l.3-.5zm.4-1.1 3.4 1.7-.1.4-3.5-1.6.2-.5zm.3-1.3c1.2.5 2.4 1 3.4 1.7v.3c-1.2-.5-2.3-1-3.4-1.7v-.4zm.2-1.8 3.4 1.7v.4l-3.4-1.5v-.6zm.3-2.7c.6.2 1.2.6 1.8 1v.2c-.7.1-1.2-.6-1.9-.8l.1-.4zm.2-1.4c.7 0 1.2.7 1.9 1 .2 0 0 .2 0 .4l-2-1v-.4zm8.3-11.5c.5 0 .9.4 1 .9v1.2c-.4-.6-.8-1.4-1-2.1zm.6 2.8c.5.5.5 1.7.8 2.3-.2.1-.5-.4-.8-.6-.4-.2-.1-1.2 0-1.7zm.3-4.9c-.1-.6-.7-1-1.2-.9 0 .9.4 2 .9 2.5 0 0 .5-.3.3-1.6zm14.8 20.9-.3.7-3.7-2.1.3-.6 3.7 2zm-56.6 4.1-.4-.6 3.5-2.5.4.6-3.5 2.5zm1.8-4.8.4.7-4 2 1.4-4.1-2.6 1.3-.3-.6 4-2.1-1.4 4.1 2.6-1.3zm-6-4.4.4.9 3.4-1.4.2.7-3.3 1.3.4 1-.6.2-1-2.5.6-.2zm2.7-4.4.5 2.3-4.2 1-.5-2.4.6-.1.4 1.6 1-.2-.4-1.6.6-.1.4 1.5 1.3-.3-.4-1.6.7-.1zm-3.6-3c.6-.1 1.1.2 1.3.7l1.7-1.5v.8l-1.5 1.4 1.7-.1.1.7-4.2.5c0-.5-.3-1.3 0-1.8.1-.4.5-.7 1-.7z"/><path fill="#CAB55E" d="m522.7 385.6 1.3-.1c0-.4-.1-1-.8-1-.5 0-.5.6-.5 1.1z"/><path fill="#060304" d="M526 381.6v.7h-4.6l3.2-3h-2.9v-.8h4.6l-3.2 3.1h2.9zm.5-6.8-1 .3-.3 1.7 1 .7-.2.7-4.2-2.8 4.9-1.3-.2.7z"/><path fill="#CAB55E" d="m524.6 376.4.2-1-1.4.3 1.2.7z"/><path fill="#060304" d="m523 370.9.7-1 .8.2c-.4.3-.7.5-.8 1-.2.8.3 1.6 1.1 1.8 1.3.4 2.4-1 1.8-2h.7c.5 1.6-1 3.2-2.7 2.7a2.2 2.2 0 0 1-1.5-2.7zm1-2.3.2-.7 4 1.5-.2.6-4-1.4zm2.6-1.1a2.2 2.2 0 0 1 2.2-3.9c1 .6 1.4 2 .8 3-.5 1.1-1.9 1.5-3 1z"/><path fill="#CAB55E" d="M527 367c.7.3 1.7 0 2-.7.5-.7.2-1.6-.6-2-.7-.5-1.6-.2-2 .5-.5.8-.2 1.7.6 2.1z"/><path fill="#060304" d="m531.5 363.5-.4.6-3.7-2.8 4.4-.5-2.2-1.7.4-.6 3.6 2.8-4.3.5 2.2 1.7zm4.6-5.1-1-.4-1.2 1.2.4 1-.6.6-1.7-4.7 4.7 1.8-.6.5z"/><path fill="#CAB55E" d="m533.6 358.6.8-.8-1.3-.5.5 1.3z"/><path fill="#060304" d="m534.8 354.1.5-.4 2.2 2.9 1-.7.3.5-1.5 1.2-2.5-3.5zm9.6-.7-2.2 1-1.8-3.8 2.2-1 .3.6-1.6.7.4.8 1.5-.6.3.6-1.5.6.6 1.2 1.5-.7.3.6zm.5-.2.6-2.5-1.7-1.6.7-.2 1.2 1 .4-1.5.7-.2-.5 2.3 1.9 1.7-.8.3-1.3-1.3-.5 1.8-.7.2zm3.8-5.4.3 1.6 1.7-.3-.3-1.6.7-.2.8 4.2-.7.1-.4-1.9-1.7.4.4 1.9-.7.1-.8-4.2.7-.1zm3.9-.6h.7l.4 4.2h-.7l-.4-4.2zm4.1 1.9c1 .4 1 2.3-.9 2.3h-1v-4.3c1 0 2.2 0 2.2 1.3 0 .3-.1.6-.3.7zm1.8-1.8h.7l-.5 4.3h-.7l.5-4.3zm3.9.5c.5.1.8.3 1 .6l-.1.8c-.3-.4-.5-.6-1-.7-.9-.2-1.7.4-1.8 1.2-.3 1.3 1 2.3 2.2 1.6v.8c-1.6.5-3.3-.8-3-2.5.3-1.3 1.5-2 2.7-1.8zm2.5.7.7.3-1.4 4-.6-.2 1.3-4zm1.1 2.5a2.2 2.2 0 0 1 4 1.9 2.2 2.2 0 0 1-3 1 2.2 2.2 0 0 1-1-2.8z"/><path fill="#CAB55E" d="M566.6 351.3c-.4.8 0 1.7.8 2 .7.4 1.6 0 2-.7.3-.8 0-1.7-.8-2-.8-.4-1.7 0-2 .7z"/><path fill="#060304" d="m570.4 355.6-.6-.4 2.7-3.8.7 4.4 1.6-2.4.6.4-2.7 3.8-.6-4.4-1.7 2.4zm10 5.7-2.9.8 1.4-2.6-2.2 1.2-.4-.6 4.2-2.2-1.7 3.2 3.5-1-3 3.7-.6-.6 1.7-1.9zm-.3 3.9-.5-.8 3.7-2.2.5.9c.6 1 .6 2.4-.6 3-1.3.8-2.4.2-3.1-1z"/><path fill="#CAB55E" d="m583.1 363.3-2.5 1.4c.4.8 1.1 1.5 2.2.9 1-.6.8-1.5.3-2.3z"/><path fill="#060304" d="M586.4 368.1c.2.4.2.8.2 1.2l-.8.3c.1-.4.2-.8 0-1.3a1.5 1.5 0 0 0-2-.8 1.5 1.5 0 0 0-.1 2.8l-.6.4c-1.4-1-1.2-3.1.4-3.8 1.2-.5 2.5 0 3 1.2zm1.4 4.1v1.2l-.8.2c.2-.4.3-.7.1-1.2-.2-.8-1-1.3-1.9-1-1.3.3-1.5 2-.4 2.7l-.6.3a2.1 2.1 0 0 1 .8-3.7c1.2-.4 2.5.3 2.8 1.5zm.8 4.4c0 .5 0 .8-.2 1.2l-.8.1c.2-.4.4-.7.3-1.2 0-.9-.8-1.4-1.7-1.3a1.5 1.5 0 0 0-.8 2.6l-.7.3c-1-1.4-.4-3.4 1.4-3.6 1.3-.2 2.4.7 2.5 2zm.1 2v.7l-3.6.4.2 1.2-.7.1-.2-2 4.3-.4zm-4.1 2.8 2 1.6 2.2-1v.8l-1.5.6 1.3 1-.1.8-2-1.4-2.3 1 .1-.8 1.7-.7-1.5-1.1v-.8zm-.4 3.6 2 1.8 2.2-.7-.2.8-1.5.5 1.2 1-.2.8-1.7-1.6-2.5.8.2-.8 1.7-.5-1.3-1.3.1-.7zm-.8 3.6 1.7 2 2.3-.5-.2.8-1.6.3 1 1.2-.2.8-1.5-1.8-2.5.5.2-.8 1.8-.3-1.2-1.4.2-.8zm2.3 6-.3.6-3.8-1.8.3-.7 3.8 2z"/><path fill="#CAB55E" d="m555.7 349.6-.2 1.2c.4 0 1.1 0 1.2-.6 0-.5-.5-.6-1-.6zm-.1-1.8v1.1c.4 0 .7 0 .7-.5s-.2-.6-.7-.6z"/><path fill="#272059" d="m175.8 581.6 14.2 11.7a982.2 982.2 0 0 1 43-54.7l-14-10.5a750.8 750.8 0 0 1-43.2 53.5zm31.2 22.3 35.1 18 5.2-10.8c-5.2-1.9-15.2-6.9-19.4-9 9-17 18.8-33.5 29.4-49.7l-14.8-8.4a491.2 491.2 0 0 1-35.5 60zm45.3 1.2-5 17.7c3.2 2 6.4 4 9.8 5.8 3.5 1.9 7.7 3.5 12.7 5 5 1.4 9.2 2 12.7 1.7 6.6-.4 13.4-4.2 16.8-10a18.9 18.9 0 0 0 .7-18.5c-1.5-3-4.3-6.2-8.2-9.6l-11.2-9.9c-3.7-3-5.5-5.7-5.3-7.8a7 7 0 0 1 2.6-5c1.6-1.4 3.8-2 6.5-1.8 2.8 0 5.1.9 7.1 2.4a9 9 0 0 1 3.4 5.6c.3 2.2.5 4.3.3 6.3l11 3.3 4.6-16c-3-2.1-5.7-4-8.4-5.6a50.1 50.1 0 0 0-12-4.7 39.4 39.4 0 0 0-13.4-2c-3.6.3-6.7 1.3-9.4 3a17 17 0 0 0-6.2 6.8c-1.5 3-2.2 6.1-2.2 9.4 0 3.2.5 6 1.8 8.5a25 25 0 0 0 6.2 7.4 332 332 0 0 0 10.6 8.8c4.2 3.5 6.6 6.2 7 8.2.4 2 .2 4.1-1 6.2a8.3 8.3 0 0 1-5 4.2c-2.2.7-4.7.4-7.7-.7a11 11 0 0 1-6-4.6 10 10 0 0 1-1.5-5.6c0-1.8.2-3.5.5-5l-11.8-3.5zm63.4-34.1s19.2 1 39.3.1l.2 12.4a478 478 0 0 0-23-.6l-.4 16.2c3.5 0 17.2.2 22.4-.4v13c-9-1.2-12.8-.8-22.3-.6v17.8c3 0 15 0 25.1-.8l.3 12.6s-25.3-.5-42.7 0c1.4-23.1 1.8-46.6 1.1-69.7zm99.6 39c-.2 0-28.3-38.2-32.8-44.6-8.1 2.4-11.8 3.3-20.9 4.7a569.8 569.8 0 0 1 15 67.8L393 634l-15-52.6c.3-.1 27.5 37.6 33.5 47.1l21.9-7.8c-8.9-25.5-19.1-52.7-22.3-65a78.2 78.2 0 0 1-14.7 5.4 2698 2698 0 0 0 19 48.9zm3.5-57.3a671.7 671.7 0 0 1 35.9 58l38-24-7.5-10.5a175.8 175.8 0 0 1-22.7 16.1l-9.4-15.3c4-2.6 16.4-10.9 19.2-12.2l-6.5-9.7c-6 4.5-12 8.4-18.4 12.1l-9-14.6c3.5-2.3 14-9 19-11.2l-7-9.9c-10.7 7.1-19 14.2-31.6 21.2z"/><path fill="#272059" fill-rule="evenodd" d="m476 520.5 5.8-6.8c1.1-1.2 2.2-2 3.2-2.5.9-.5 1.6-.8 2.2-.9 2.2-.3 4.4.4 6.5 2.2 2.2 1.8 3.6 3.7 4.2 5.5.2 1 .2 2 0 3.2a11 11 0 0 1-2.9 4.8l-6.3 7-12.8-12.5zm-19 4.3c8 6.8 16.3 14.6 24.4 22.8 8 8.1 16.2 17 25 26.2l11.7-12.4-22.3-20.8 5.8-6.5c1.9-2.2 3.8-3.3 5.7-3.5 1.9-.2 4 .4 6.1 1.8a50 50 0 0 1 7.8 6.4c2.9 2.9 5 4.7 6.5 5.6l2.2 1.2c.8.3 1.5.5 2.3.5l10.8-12.2a8.3 8.3 0 0 1-4-2l-3.7-3c-2.5-2-5.5-4.7-9-7.7-3.5-3.1-6.4-4.8-8.4-5a10.2 10.2 0 0 0-8.6 2.2l-3.3 3.2 2.5-3.8a9 9 0 0 0 .9-1.9c.4-1.2.6-2.3.7-3.4 0-2.2-.3-4.3-1.2-6.5a22 22 0 0 0-5.5-6.9 16.5 16.5 0 0 0-8.1-4.3 17 17 0 0 0-8 .8 33 33 0 0 0-11.6 9.4l-6.1 7.4c-3.2 3.5-7.5 7.7-12.6 12.4zM191.9 516a8.5 8.5 0 0 1 2.5 5.4c0 2-.9 4.2-2.8 6.7-2 2.5-4 4.1-6.1 5.1-2 1-4.1 1.2-5.8.8-1.7-.5-3.4-1.7-5.2-3.7l-5.4-5.8 17.2-14.6 5.6 6zm-60 19.5 10.7 13 18.7-17.2 10.9 11.4a22 22 0 0 0 9 6.6c7.3 1.9 13.1-1.7 18.6-6 3.8-3 6.5-6.1 8.1-9.3a15 15 0 0 0 2.3-8.2c-.3-6.6-8.5-15.7-12.7-20.1-3.3-3.5-7.7-8.8-13.8-15.8a597.7 597.7 0 0 1-51.9 45.6z" clip-rule="evenodd"/><path fill="#272059" d="m84.4 302.8 21.9 3.2a606 606 0 0 1 46 8.8c.6-6 1.5-12 2.5-18l-28.7-4.3 4-20.8-12-2-3.6 20.6-15.5-3.1a365 365 0 0 1 5.1-22.8L91.7 262l-7.3 40.8zm11.5-55A634.4 634.4 0 0 1 159 274c4-10.1 8.6-20.6 13.7-31.3l-10.8-4.5a94.8 94.8 0 0 1-6.6 15.5 786 786 0 0 1-52.9-22l-6.6 16zm23-47.8a579 579 0 0 1 56.2 38.8 240 240 0 0 1 23.9-32l-9.6-7.4c-4.3 6.6-8.7 12.9-13.5 19l-15.5-10.2c1.8-2.5 10.2-14.4 13.6-18.3l-9.7-6.6-12.9 18.2-13.2-9.4c2-2.8 11.4-15.7 15.2-19.8l-10.8-6.9L119 200zm71.8-76.6c4 4.2 12 14.8 19 24.4L223 166c-11.4-6.3-33.2-22.3-47.2-32.3L158.4 149c5.4 4.5 25 25.4 47.5 51.6 1-.8 6.8-6.2 10.6-9.3a1661.4 1661.4 0 0 0-36.3-38.7c9.4 5.2 33.4 22.3 45.4 31 6-4.7 12.3-9 18.7-12.8-12-15.8-25.7-34.5-40.9-56.2l-12.7 8.8zm48.1 25.9 8.8 16.4c3 0 4.9-.5 8.2-1a63.8 63.8 0 0 0 14.3-4.6c4.5-2.2 8-4.5 10.7-7.1a19 19 0 0 0 6.3-17.8c-.6-3.4-2-6.6-4.2-9.7a19 19 0 0 0-7.7-6.5c-3-1.3-6.3-2.1-10.2-2.3a87 87 0 0 0-10.8 0c-3.4 0-6.2.2-8.4 0-2.2 0-4-.8-5.3-2-1.4-1.2-2-3-1.9-5.2a7.5 7.5 0 0 1 3.7-6c2.2-1.8 4.6-2.7 7-2.8a9 9 0 0 1 6 2c1.6 1.4 3.2 3 4.7 4.8l10-5-6.2-14.9a60.2 60.2 0 0 0-24.4 6.3c-4.5 2.1-8 4.4-10.3 6.8-2.5 2.6-4 5.2-4.8 8.1-.7 2.9-.6 6 .3 9.5a20 20 0 0 0 4.7 8.6c2.2 2.4 4.9 4 7.8 4.8 3.1.9 7.3 1.3 12.8 1.2l13.1.1c3.1.2 5.6 1.1 7.3 2.7a8.4 8.4 0 0 1 .8 11.7 11.7 11.7 0 0 1-6.5 3.8c-3 .8-5.2.9-6.9.2-1.7-.7-3.2-1.8-4.4-3.3l-3-4.2-11.5 5.4zm111-22.3c-.6 3.2-.5 6.3.1 9s2.4 5.2 5.3 7.5c6.3 5 20.5 7.7 28.5 8.1 4.6.3 8.4-.3 11.6-1.5 3-1.1 5.2-2.6 6.6-4.3 1.3-1.8 2.3-4.1 3.1-7a1372 1372 0 0 1 12.6-51l-17-4.2a896.7 896.7 0 0 1-12.3 49.9 9.7 9.7 0 0 1-2 4.1c-1 1-2.1 1.6-3.2 1.9a15.6 15.6 0 0 1-13.4-2.6 6.8 6.8 0 0 1-2.8-5.1c-.1-1 0-2.3.1-4a864 864 0 0 1 8.9-49.4l-18-2.7c-2 17.7-4.8 34.8-8 51.3zm164.9 71.5L499 180.9l-8.2 7.3 5.6 6.3-10.5 9.1a30 30 0 0 1-4.6-2.8c-2-1.4-3.6-3.3-5-5.8s-2-4.8-1.8-7.1c.1-2.2 1.7-5 4.6-8.5 3-3.4 5.8-6.4 8.7-9l9.4-7.7c3.4-2.7 6-4.3 8-4.8a11.7 11.7 0 0 1 12.5 5.1c1.7 2.3 2.4 4.3 2.2 6-.3 1.7-.8 3.2-1.6 4.7l-2 3.5 8.4 9.1 13-11.4a76 76 0 0 0-5.2-9.9c-1.2-1.7-2.6-3.8-4.6-6.3-2-2.5-3.8-4.6-5.4-6.3a37 37 0 0 0-9.7-7c-7-3.2-13.1-3-20 .1a69 69 0 0 0-14.3 10 76 76 0 0 0-13 13.5 30 30 0 0 0-5.1 11c-.6 3.2-.4 6.6.6 10 1 3.5 3.3 7.4 7 11.8a63 63 0 0 0 6.6 6.6c2.5 2.2 4.5 4 6.2 5.2 3.2 2.5 6.5 4.6 10 6.6l24-21.7zm-24.1 29.7c6.9 11.8 10.8 17.8 18.6 34l10.5-4.8c-3-3.8-10.3-18.8-11.2-20.5l16.3-8.8 10.6 19.8 10.3-5.3-10.2-20 14.7-7.5 11.1 21.8 10.5-4.6-20-37.4c-22.4 13-42.8 25.1-61.2 33.3z"/><path fill="#272059" fill-rule="evenodd" d="M302.4 88c2.1-.3 4.4-.4 6.5-.8l5.7-.7c2-.1 3.8.2 5.5 1.2 1.7 1 2.8 3 3.6 6 .7 3 .5 5.5-.5 7.3-1 1.7-2.5 3-4.5 3.5-2 .6-4 1-6.1 1.3l-6.5.7h-1L302.4 88zm4.3 29c1.9 0 2.4-.2 4.2-.6l6-.8c2.5-.2 4.6 0 6.4.7 1.8.8 3 2.6 3.9 5.3.7 2.6.9 5 .3 7.2s-1.8 4-3.5 5a19 19 0 0 1-6.8 2l-8.5.7.7-.2-2.7-19.3zm-12.1 33 1.7-.5 4.6-.9c3.6-.7 8-1.5 11.3-1.9 3.3-.4 6.4-.8 9.2-1l6.2-.6c2.8-.2 5.2-.7 7.4-1.6a14.8 14.8 0 0 0 7.8-7.6 23 23 0 0 0 1.6-9.7 20 20 0 0 0-2.7-9.4 13.6 13.6 0 0 0-11.3-7.4l-3.2-.1 3.2-.8c2-.4 3.7-1.7 5-3.1.6-.4 1.1-1 1.6-2a8 8 0 0 0 1.2-2.4c1-2.5 1.2-5.6.7-9.4-.4-3.7-1.4-6.7-3-9a12.4 12.4 0 0 0-6.3-4.9c-2.7-1-5.7-1.4-8.9-1.2-3.2.1-7.2.5-12 1.2l-12.9 1.7-11.3 1.5c5.3 32.6 7 35.8 10 69zm153.9-36.4 7.9 4c1.8 1.2 3 2.2 3.8 3.1.7.9 1.2 1.5 1.4 2.1.8 2 .5 4.2-.8 6.7a11.6 11.6 0 0 1-4.4 5c-.8.4-2 .6-3.5.6a11 11 0 0 1-5.5-1.9l-7.9-4.3 9-15.3zm-44 42.8c5.4 2.4 10.4 5.2 15 8.1l14.6-26.6 7.8 4c2.4 1.4 4 3 4.7 4.7.7 1.9.6 4-.3 6.5a53 53 0 0 1-4.1 9 106.1 106.1 0 0 0-4.2 8.5l-.3 1.3-.3 2.1c5 3.2 9.5 6.2 13.7 9.3a25.7 25.7 0 0 1 3.2-9.6l5.8-11.2c2.2-4 3.2-7.2 3.2-9.2-.1-2.2-.6-4-1.7-5.3-.5-.7-1.6-1.6-3.1-2.8L455 143l4 1.6c1.1.4 2 .7 2.6.7a9 9 0 0 0 3.3-.3c2-.6 4-1.5 5.8-2.9 2-1.3 3.7-3.7 5.4-7 1.8-3.4 2.5-6.4 2.2-9a16 16 0 0 0-3-7.6 32 32 0 0 0-10.9-8.3l-14.4-8-11.4-6.4a587.3 587.3 0 0 1-34.2 60.6zM571 269l3.2 9.7c.5 1.8.6 3.4.4 4.6-.2 1.2-.4 2-.7 2.4-.9 1.7-2.7 2.9-5.2 3.8-2.5.8-4.7 1-6.6.5-1-.4-1.9-1-3-2s-2-2.8-2.7-5.6l-2.5-8.4 17.2-5zm-61-.7c1.9 5.4 3.3 10.9 4.6 16.3l29-8.2c1 2.8 1.8 5.6 2.6 8.4 1.5 5.2.1 8.6-4.7 11a57.9 57.9 0 0 1-9.5 3.2 79.2 79.2 0 0 0-9.8 3.3c-.8.4-1.5 1-2.2 1.8 1.2 6 2.4 11.5 3.2 16.5 2.9-2.5 6.3-3.7 9.9-4.9l11.3-3.4c4.6-1.4 7.6-2.8 9-4.3a9 9 0 0 0 2.2-4.9c.3-1.7.2-3.6-.3-5.6.9 1.4 1.6 2.6 2.4 3.4a14 14 0 0 0 2.5 2.4 15 15 0 0 0 6 2.3c2.3.4 5.3 0 8.8-1 3.6-1 6.3-2.6 8-4.6 1.8-2 3-4.4 3.6-7.2.6-2.7.1-7.3-1.5-13.7l-4.5-16-3.6-12.8a661.4 661.4 0 0 1-67 18z" clip-rule="evenodd"/><path fill="#272059" d="M446.7 460.9c2.7-.6 12.2 3.3 14.4 5-27.5 43.6-73.6 72-125.5 72-52.2 0-98.6-28.7-125.9-72.8 2.4-.7 12-2.6 13-2.6 1.4-.7 3.2-.6 4.6-1.1 1.7-.2 3.8-1 5.2.2 1.8 1 2.8 4 5.2 3 1.5-.3 3.3-.4 4-2.1a109 109 0 0 0 15-45.7c.2-3.5.1-7.3-3-9.4-2.6-1.3-6-.7-7.7-3.9 0-2.9-3.3-4-5.2-5.4a3 3 0 0 1-3-1.1c-.2-.7-.5-1.4-.2-2l1-1.5c.3-4.1 0-8.9 0-12.7.2-.8 1.3-1 1.9-1.4 1.2-.4 2.1.4 2.8 1.3 5.4-1.2 10.5-3 15.6-4.6.7-.3.4-1 .8-1.4.3-1 1.3-1 2-1.4a3 3 0 0 1 2.3 1.6c0 .4.3 1 .8 1 9.9 1.7 19.8 3.2 29.6 5.1 1.2-.2 1.4-1.7 2.6-1.7 1-.1 2.5.1 2.5 1.2l.6 19.7c8.5-15.2 8.3-38.5 2.3-48.4-5.4 1.4-10.5 3.5-16.4 3-4.5-.5-7.7-4.4-11.2-7.2-5.3 1.2-10.4 3-15.6 4.5-.7 0-1.3.3-1.8.8 0 1 1 2 .1 3-1.4.4-.6 2-1.7 2.6-.6.6-1.2 1-2 1.2-.6-.6.4-2-.8-2.3-.9 0-1.6-.4-2.4-.7-.7.5-1.2 1.6-2 1.7-.6-.3-1-.4-1.5-.8-1.5-.1-2.7.4-4-.3.4-.8 1.7-1.3 1-2.3-.5-.6 0-1.4 0-2-2-1.3-2.2-3.5-3.7-5 .1-.4-.4-.8 0-1 .7 0 1.9.7 2.4-.3.6-1.7 4.7.8 2.6-2.2 0-.9 1.1-1.5.5-2.4-.5-.8-1.2-1.5-1.3-2.3 1-.6 2.3 0 3.3.5.9 1.4 2.6-.4 3.6 1 .7.7 1 1.7 1.6 2.6 3.2-2.5 6.2-4.6 8.8-7.1L249 324.5c-.8-.2-.8.8-1.3 1.1-.8.9-2.1.9-3.2.7-.5-.8-1.2 0-1.8-.1-1-.2-2.3.4-2.6-.7.8-.4 1.4-1.4 1-2.4-.3-.3 0-1-.5-1.1-.6.2-.8-.4-1.2-.6-.5-.6 0-1.5-.9-1.8-.8-.2-1.4.4-2 0 0-.9.6-1.8 1.3-2.2 1-.7 0-2.3 1.5-2.7.6-.3 1.4.1 2-.4-2.1-1.4 1.9-3.2-1.1-4 .4-1.4 1.9-1 2.9-1 1.1 1.3 2.4-1 3.4.5l.8.9c.7-.3.8-1.1 1.7-1.2.5 0 1.2.4 1.6 0 .2-.7-.4-1.8.5-2 2.4.6 1 3.3 3 4.4 1.3 2-3.1 3.5-.3 4.7l16.4 7.8c-2.8-3.6-4.9-8.3-3.1-13-.2-1.2-1.3-2-1.5-3.1-.3-2.2.7-4.4 2.6-5.5 2-1.2 5-.8 6.8.6 1 1.5 2.3-.3 3.6 0 2.2-.3 4.2.2 6.2.3 1.1-1.2 2.9-1.5 4.5-1.2 1.6.6 3.2 2.2 3.7 3.8.5 2.5-.9 4.7-2.6 6.5-.2 1.2.3 2.3.7 3.4.3 2.8-.6 5.2-2.6 7.1 2 2.4 3.3 4.9 5.4 6.5l5.6-1.6c-2.2-1.8-5.4-3.7-6-6.9-1-2.8.2-5.5 1.8-7.6-.7-2.9.1-5.8 2.6-7.3 4.6-2.6 10.5 1.2 15.2-1.6.8 2.3-.4 3.3-1.1 4.5 2.5-.8 7.3 1.6 10-.2.6 2.8-.6 5.3-2.9 7a12.4 12.4 0 0 1-8.1 1.3c.1.6 1 2 .7 2.4-1-.2-1.7-.6-2.7-.6-2.3.3-4.4 1.3-6.9.8 2.2 3.1 6.2 1.7 9.2 1.5 4-.8 8.1-1.7 12.5-2 .3-1 .8-11.7 1-15.9-.6-1.5-2.4-4.3-2.4-4.3h2.2l.2-2.3a41.2 41.2 0 0 0-20.5.1c-6 1.3-11.6 3.7-18.1 3.2-4.3-.8-7.4-4.3-10.8-7.3-1 0-1.7.5-2.6.7l-14.3 4.4c-1 .5.2 1 0 1.7.6 1.6-1.6 2-1.5 3.3-.3 1-1.4 1.8-2.5 2-.6-.5.1-1.7-.7-2.2-.9 0-1.7-.2-2.4-.8-.6.4-1.1 1.7-2.1 1.6-.7 0-1.2-.5-1.7-.7-1.2.1-2.8.5-3.8-.2.1-.6 1-1 1.2-1.6-.3-.8-.8-1.9-.3-2.7-1.8-1.4-2.3-3.5-3.7-5.2 0-.3-.3-.6 0-.9.6 0 1.1.4 1.9.2.9-1 2-1.4 3.4-1 .3-.8-.4-1.5 0-2.3 1.3-1.6-.8-2.7-1-4 1-.8 2.2 0 3.2.4 1.2 1.3 3.5-.2 4.4 1.7.3.7.4 1.4 1 2l.9-.6 7.7-6.5-12.5-12c-1.1-1-1 1-2 1.2a3 3 0 0 1-3.2 0c-1.4 0-2.8.8-4-.1 0-.7.9-.7 1.2-1.3a7 7 0 0 0-.5-2.5c-2.4.3-1-4-4-2.3-.5-.6.3-1.3.4-2 2-.2.3-2.4 2-2.9.5-.4 1.4-.3 2-.5-.1-.7-.5-1.5-.2-2.3.3-.2.4-.5.3-1-.4-.5-1-.6-1.4-1.3 1.4-1.4 3.2-.1 4.8-.2.2-.4.9-.2 1.2-.1l1.4 1.2c.7-1 2-1.3 3.2-1.1.4-.6-.3-1.7.5-2 1.2.1 1.6 1.4 2 2.3-.6 1.4 1.4 1.4 1.2 2.5 0 1.4-.9 2.3-1.6 3.4l.7.6 17 8.2c-3-3.7-5-8.5-3-13.2-.5-1.4-2-2.4-1.8-4a6 6 0 0 1 2.5-4.4c2-1.4 5.2-.9 7 .4.8 1.4 2 0 3 .1a20 20 0 0 1 6.9.3 4.5 4.5 0 0 1 4.3-1.2c1.7.3 3.3 2 3.9 3.6.8 2.8-1.2 4.7-2.6 6.7-.3 2.4 1.6 4.4.4 6.8 0 2-5 3.5-2.8 5.4 6.7 11.7 31 13.7 36.9 5.5-8-.9-16.8 4-25 .9-2.9-1-6-3.4-6.6-6.6a10 10 0 0 1 2-7.3c-.6-2.8-.1-5.6 2.4-7.2 3.8-2.6 8.3.4 12.5-.8 1.1 0 2-.5 3-1 1.3.4 0 1.5.2 2.3l-1.1 2.4 4 1c2.2.5 3.2-.2 5-.8.8 4.5-3.6 9-9.8 7.7 0 0 1.2 1.7.9 2.8-3-1.5-7.4.3-11.2-.5 1.4 3.7 6.7 2.8 9.3 2.2 5-1.4 10-2 15.4-2l.5-5.4-3.6-5.2 32.9-39.8 6.6.2 33.8 38.5-3.8 5.4c.2 4.7 1.6 14.3 1.6 14.3 9 1.7 21.2.5 29.8-2.6-1.2 1.9-4.5 5.5-4.5 5.5s4.6 3.7 8 4.7a71.5 71.5 0 0 1-32.7 4.2s1 8.2 1.2 11.6c6-1 18.2-.8 25.5 1.2a35.6 35.6 0 0 0 26.2-2.2 22 22 0 0 1-3 6.4c.5.6 4.2 2.8 8.4 3.8-12.6 6.2-29.4 4.5-40 2-5.2-1-13.1-.4-16.4.3.4 4.4.6 9 1.1 13.3 1.9.2 3.6-.7 5.5-1l14-4c.8-.1 1.7 0 2.1.7.2.4.2 1.2 0 1.6-.3.4-.6.7-.6 1.2 9 9.6 12.2 24.4 7.7 37.1-3.1 10-11.2 19-21 25.5 15.1-2 29.7-5.2 44.7-7.3.9.2 1.8.4 2.2 1.3.5.8.2 2-.3 2.6-1.5 1.3-14.4 2.8-26 4.9-1.9 1.6-2.5 8.9-3.5 11.9-5.2.5-9.1 1.8-10.4 4.3-2.3 5.3.4 11 2 17 4.1 16-3.5 30.2-14.2 41.6.2.7 1 1.2 1.4 1.5 6.2-.9 20.1-3.6 20.1-3.6 2.6 0 3.9 3.2 6.3 3.6 6.2-1 12.2-2.4 18.3-3.4z"/><path fill="#CAB55E" d="m366.5 232 .2.3.4 1h-3.6c-.2.5.2 1.4.2 1.4h2.3c1.2.1 2.4.5 2.6 1.6l-4.2.2-.3.3c-.2.2-.3.3-.2.6l.6.4 5 .2c.3.6.6 1 .7 1.6-1.7.4-3.5-.1-5.2 0-.4.2-.9.7-.5 1l.4.4 6.2.4c.5.4.7 1 .8 1.6-2.3.2-4.3-.2-6.6 0-.5.2-.5.8-.3 1.1l.8.4 7 .2c.1.6.9 1 .8 1.8-2.6.1-5-.3-7.5-.1l-.4.4c-.1.1-.2.3-.1.5l.5.5 8.3.3a6 6 0 0 1 1 2c-2.8 0-6 .2-8.8 0-.3.2-.8.6-.5 1l.7.5 9.4.1c.3.6.7 1 .7 1.6h-34s14.5-28.6 17.2-33.5h.3c.5 1.4 2.5 2.8 1.4 4.5 0 .4.4.6.8.7l.3.1c.5.1.7.6.8 1.1l.1.5h-.4c-.4 0-.8.1-1 .5-.2.5 0 .9.3 1l.9.1c.8 0 1.7.2 1.8 1.3v.4c-.9.2-2.2-.5-2.6.6.6 1.8 3.3.8 3.7 1.4zm-12.8-4.8h-1.5l1.3-1.9h1.2l-1 2zm15.7 2.3 1.4 2.8h1.2l1.1 1.7h-1.3l.8 1.5h2l1.2 1.5-2.7-.2.8 1.5 3.2.3 1.6 1.6-3.8-.2.8 1.4c1.2.5 4.2.5 4.2.5l1.6 2-4.6-.4c-.3.2.7 1.5.7 1.5l5.2.5 1.7 2-6-.7s.3 1.3.7 1.6l6.8.9 1.2 1.7-7-.8 1 1.9 7.6.7 1.2 1.8-9.9-1-14.5-29.4 3.8 5.3zm-16.6-.5-1.2 1.8-2.2.1 1.2-1.9h2.2zm-1.8 3-.8 1.6-3.1.2 1.2-1.6 2.7-.1zm-1.7 3-.8 1.5-4 .4 1.2-1.6 3.6-.2zm-1.8 3.3-.7 1.5-4.9.4 1.5-1.6 4.1-.3zm-1.9 3.4-.9 1.7-5.8.6 1.7-1.7 5-.6zm-1.7 3.3-1 1.6-6.7 1 1.6-2 6-.6zm-1.9 3.5-1.1 1.8-7.7 1 1.3-1.8 7.5-1zm-65.3 4.8c2.5-1 6.2-1 8.9-.3.4-.8.9-1.5 1.8-1.7 1 .2 2.4 0 2.9 1.2.4 2-.8 3.6-2.4 4.8 1.4 2.7 1.6 6.7-.5 9.2-.9.1-1.7-1.3-2.4-.4.1 1 .3 2.1-.1 3-.5 1-1.8 1-3 1-.4-.5-1-1-1-1.6 1-1 2.5-1 3.2-2.5.8-2.3-1-4-1.5-6 1 .2 2.2 1 3.2.1 2.3-.7.3-3.4 2.4-4.2.1-.3-.3-.4-.4-.7-1.5 0-2.9.8-4.4 1.1-1.1.3-2.5.2-3.1 1.6-.7 2.6 1.6 4.3 1.7 6.7-.8.5-1.5-.5-2.5-.3-.8 0-1.3.4-2 .4-.2-2 1.5-3.2 1.8-5 .5-.4.2-1.1.2-1.7-1.8-2.3-4.8-2-7.1-3-.4.2-.3.5-.3.8 1 1-.2 2.5.6 3.6.2.7 1 1.2 1.6 1.4 1.1.2 1.9-.4 2.7-.8h.1c-.4 2.2-2.5 4-1.7 6.2.9 1.3 2 1.5 3.2 2 0 .6-.2 1-.6 1.5-.6.5-1.4.6-2.2.4-1.6-.6-1.3-2.4-1.5-3.8-1.2.2-2.3-.2-2.9-1.2-1.2-2.5-1.6-6.4.2-8.8-.2-.7-1.4-.9-1.6-1.7-.3-.8.1-1.6.2-2.3.4-.7 1-1 1.8-1 1.9-.2 3.3.9 4.7 2z"/><path fill="none" d="M276.7 253.3c2.5-1 6.2-1 8.9-.3.4-.8.9-1.5 1.8-1.7 1 .2 2.4 0 2.9 1.2.4 2-.8 3.6-2.4 4.8 1.4 2.7 1.6 6.7-.5 9.2-.9.1-1.7-1.3-2.4-.4.1 1 .3 2.1-.1 3-.5 1-1.8 1-3 1-.4-.5-1-1-1-1.6 1-1 2.5-1 3.2-2.5.8-2.3-1-4-1.5-6 1 .2 2.2 1 3.2.1 2.3-.7.3-3.4 2.4-4.2.1-.3-.3-.4-.4-.7-1.5 0-2.9.8-4.4 1.1-1.1.3-2.5.2-3.1 1.6-.7 2.6 1.6 4.3 1.7 6.7-.8.5-1.5-.5-2.5-.3-.8 0-1.3.4-2 .4-.2-2 1.5-3.2 1.8-5 .5-.4.2-1.1.2-1.7-1.8-2.3-4.8-2-7.1-3-.4.2-.3.5-.3.8 1 1-.2 2.5.6 3.6.2.7 1 1.2 1.6 1.4 1.1.2 1.9-.4 2.7-.8h.1c-.4 2.2-2.5 4-1.7 6.2.9 1.3 2 1.5 3.2 2 0 .6-.2 1-.6 1.5-.6.5-1.4.6-2.2.4-1.6-.6-1.3-2.4-1.5-3.8-1.2.2-2.3-.2-2.9-1.2-1.2-2.5-1.6-6.4.2-8.8-.2-.7-1.4-.9-1.6-1.7-.3-.8.1-1.6.2-2.3.4-.7 1-1 1.8-1 1.9-.2 3.3.9 4.7 2z"/><path fill="#CAB55E" d="m340 251.8-.9 2-9 1.3 1.5-2 8.4-1.3zm-87.7 5.7c.5 2-1.2 3.5-2.4 4.9.3.7 1.5 1 2.1 1.4l18.2 9.4c1.7 0 4-2.5 5.4.2.5-.2.7-1.1.9-1.6 1.9.3 3.4-1 5 0 .7.6.5 1.9 1.2 1.6 1.2-.9 2-2.1 3.3-2.9 6.8 10.9 18.9 14.7 31 13 3.7-.4 5.9-1.5 9.3-3 0 3.1-.5 10.1-.9 13.7a58.1 58.1 0 0 0-31.7 2.7c-3.9.6-8.8 1.5-12-1.6l-1.2-1.2c-.6-.5-1-1-1.1-1.6.6-.8 1.6-1 2.4-1.3.8-.3 1.2-.7 1-1.6-.4-1.6-.9-3-1.5-4.4-1.5 1.7-2.6 4.4-5.2 4.3-6.3 2-12.5 4-18.8 6.2-.7.4-2 0-2.5.5.2 1.4 1.2 2.1 1 3.8-.7.7-1.6 1.2-2.5.7-1-.9-.5-2.5-1.4-3-1.2 1.3-1 3.4-3 3.9-.5 0-.9-.3-1.2-.6l-.4-.4c-.3-1.7 1.2-2.4 2-3.5-1.4-.7-4.6 0-4.1-2.6.3-1.1 1.2-.8 2-1.1 1-.1 2.4.7 3.2 0-.2-1-1.3-1.7-1.7-2.7-.2-.4-.2-1 0-1.3l.4-.4c.5-.3 1-.6 1.6-.2 1.8 1.1 1.3 3.2 2.4 4.6 1.5-.4 2.8-1.8 4.1-2.7 3-2.4 6-4.8 9.2-7 1.9-2 1.7-4.8 2.9-7.1 0-.3.3-.8.2-1a41 41 0 0 0-3.4 4c-.2.2-.9.2-1.2 0l-16-14c-1.2.9-1 2.7-2.2 4-.9.2-1.7-.2-2-1-.7-1.8 1.1-2.4 1.4-3.7-1.6-.1-2.5.6-4 .3-.9-.5-1-1.1-.9-2 1.6-1.4 3.7-.3 5.3-1l-2.7-3c-.3-.8.2-1.4.8-1.7 1.3 0 1.9.6 2.4 1.6l.4.6c.2.5.6 1 1 1.2 1-1.3.7-3 2.3-4.1.7-.2 1.2.1 1.6.7z"/><path fill="#B0062A" d="m377 256.2-1.6 3h-30l-2.3-3h34zm-35.5 3.4-12.3 1.9-2-2.6 12-2.1 2.3 2.8z"/><path fill="#FFF" d="M276.1 258.8a1 1 0 0 1-.7 0c-.5.2-.8 0-1.1-.5v-.8c1-.2 1.1 0 2 .3.2.4.2.8-.2 1zm9.2.2h-.5c-.5.1-.7 0-1.1-.4-.1-1.3 1.2-1 1.7-1.2l.3-.2c.1.6.3 1.4-.4 1.8z"/><path fill="#B0062A" d="m392.6 257.9-2 3.1-11.4-1.5 1.3-3.1 12 1.5z"/><path fill="#CAB55E" d="M311.1 257.2c-.3 1.4-1.6 1.3-2 4 4-1.5 6 1.7 10.8 1-4.7 4.9-6.3 1-10.4 2.1.2.9.9 1.6 1 2.4-2.5.4-7.6.4-9.9-.8-1.4 0-.7 1.8-1 2.7.1 1.8 1 3.3 2.5 4.3 6.3 3.2 14.9-2.4 24.4-1.6l-.1 2.6c-6.1-.1-11.6 1.3-17.3 2-4.5.2-8.9-.5-11.5-4.2-1.5-3-1.1-6.3 1.5-8.5-.2-1.6-1-3.4 1-4.6 2.2-2.4 7.1.6 11-1.4z"/><path fill="none" d="M311.1 257.2c-.3 1.4-1.6 1.3-2 4 4-1.5 6 1.7 10.8 1-4.7 4.9-6.3 1-10.4 2.1.2.9.9 1.6 1 2.4-2.5.4-7.6.4-9.9-.8-1.4 0-.7 1.8-1 2.7.1 1.8 1 3.3 2.5 4.3 6.3 3.2 14.9-2.4 24.4-1.6l-.1 2.6c-6.1-.1-11.6 1.3-17.3 2-4.5.2-8.9-.5-11.5-4.2-1.5-3-1.1-6.3 1.5-8.5-.2-1.6-1-3.4 1-4.6 2.2-2.4 7.1.6 11-1.4z"/><path fill="#B0062A" d="m374.9 262 .2 2.7h-4.9l.1 1.4h5v2.1l-4.8.1v1.4h5l.2 3c-7.2-2-16-4.6-29.5-2.5l.2-8.1h28.5zm-31.6 2.5-13.3 2.2c0-.9-.3-2.2.7-2.5 4-.9 8.2-1.1 12.1-2 1 .1.5 2.3.5 2.3zm47-.5.2.2.2 2.2-10.9-1.6v1.7l10.6 1.5s.6 1.4.4 2l-10.8-1.6.1 1.5 11 1.7.2 1.9-11-1.9.1 1.6 10.9 2c.1.3.4.8.1 1.2-4.5-.5-9-1.5-12.9-3 0-3.4-.7-11.1-.7-11.1l12.5 1.7zm-47.1 2.2-.2 2-7.5 1.3c-.3-.7-1.5-1.7-1.9-1-1.7-.4-1.2 2.2-2.4 1.9l-1.5.2.2-2.2 13.3-2.2zm0 3.7c0 .3-.2.5-.4.8-2.4.3-5.3 1-7 2v-1.4l7.4-1.4zm-11.3 3.6-2.4.4v-1.7l2.5-.5-.1 1.8z"/><path fill="#272059" d="M277.7 274.9c2.2.5 4.6.1 6.4-1.3.5.6 0 1.2 0 1.8a4.5 4.5 0 0 1-3.2 3.3c-2 .5-3.8-.3-5.3-1.5a4.8 4.8 0 0 1-1.4-4c1.2.6 2.2 1.4 3.5 1.7z"/><path fill="none" d="M277.7 274.9c2.2.5 4.6.1 6.4-1.3.5.6 0 1.2 0 1.8a4.5 4.5 0 0 1-3.2 3.3c-2 .5-3.8-.3-5.3-1.5a4.8 4.8 0 0 1-1.4-4c1.2.6 2.2 1.4 3.5 1.7z"/><path fill="#B0062A" d="M331.7 275.1v1.9l-2.4.5.1-1.8 2.3-.6z"/><path fill="#FFF" d="M417.9 281.6s3.4 3 3.5 2.8c-5 2-20.3 2.5-29.6 1.5-11.8-1.7-22.1-7.4-34.8-7.1-7.5-.5-14.3.9-21 2.7v-3.8c10.4-3.8 26-4.4 36.7-.9a88.8 88.8 0 0 0 45.2 4.8z"/><path fill="#B0062A" d="M331.6 278.6v1.8l-2.5.5.2-2c.8 0 2.3-.3 2.3-.3zm45 7.4h-4.8l.1 1.4h4.7l.1 1.7H372l.2 1.5h4.6l.1 2.3h-4.7l.2 1.4h4.6v2.2h-4.4v1.5l4.7-.1.1 2.3h-4.6l.1 1.5h4.6v2.2h-4.6l.3 1.4h4.6v.8l-32.6 9s.2-27.3.5-32.8c9.2-1.9 20.5-.1 30.8 2.8v.9zm-45-4-.2 2.4-2.7.5.3-2.3 2.6-.6zm11.1 3.4-6.5 1.5v-2.5l6.6-1.6v2.6zm-11.3.1v2.3l-3 .6.3-2 2.7-.9zm50 1.2.2 1 10.9 1.7.1 2-11-1.8v1.6L393 293c.2.5.1 1.2.1 1.8l-.3.1-11-1.6.2 1.5s7.3.9 11.2 1.7c.5.4.2 1.3.3 2h-.3l-11.2-1.4.3 1.5 6.4 1v2c-2.3-.1-6.5-.9-6.5-.9l.2 1.6 6.2.7c0 .6.3 1.5.1 2-1.5 1-.4-2-4-1-1.5.4-3.4 1-3.8 1l-1.3-18.8s1.5.5 2 .5zm-38.8.3.1 2.2-6.7 1.4v-2l6.6-1.5zm-11.1 4.2-3.1.5v-2l3-.5v2zm11.2 1.2-6.8 1.4v-1.7l6.8-1.3v1.6zm-11.2.2c-.2.6 0 2 0 2l-3.2.3v-1.7l3.2-.6zm10.8 1.4v2.2l-6.4 1.3.1-2.2 6.3-1.3zm-10.9 2-.2 2-3 .4-.1-1.9 3.3-.5zm10.8 1.8v1.4h-6.4l6.4-1.4z"/><path fill="#B0062A" d="M393.4 300.3v1l-2.1.3V300l2 .2z"/><path fill="#FFF" d="m339 302-2.5 6.4H331l-2.6-6.4H339z"/><path fill="#B0062A" d="m342.1 306.6-1.3.2 1.5-3.6-.2 3.4z"/><path fill="#CAB55E" d="M276 307.8c2.4-1 6-1 8.6-.3.8-.3.8-1.7 1.9-1.8 1.2 0 2.4.3 3 1.3.5 2-.9 3.6-2.2 4.7 1.2 2.7 1.4 7-.8 9.2-.8.1-1.4-1.3-2.3-.5 0 1.3.3 2.2-.2 3.2-.6 1-1.9 1-2.9.8-.5-.4-.9-1-.9-1.6 1-.9 3-1.3 3.3-3 .4-1.6-.7-2.9-1.1-4.3-.2-.4-.7-.8-.4-1.3.7.6 1.6 1 2.6.6 1.7-.6 2-2.2 2-3.8.3-.3.7-.6.8-1-1.2-.9-2.4.3-3.5.5-1.6.3-3.3.3-4.3 1.7-1 2.7 1.6 4.5 1.6 6.9-1 .4-2.1-.9-3.3-.3-.5 0-.9.5-1.3.2.2-2 2-3.5 2.3-5.5 0-1-.3-1.8-1.1-2.2-2-.7-4-1.4-6.2-1.8-.8.5.1 1.2.2 1.8-.2 1-.2 2.3.5 3.2.6.5 1.3.8 2 .8.8 0 1.3-.5 1.8-.9.3.2.2.8 0 1-.7 1.8-2.8 3.8-1 5.8.8.8 1.9 1 2.8 1.6-.1.7-.6 1.3-1.2 1.7-.5.2-1.2.2-1.7 0-2.8-.4.5-5-3.1-4-2.4-1.6-2.5-5-2-7.8.2-.7.7-1.3.8-2-1-.6-1.4-1.6-1.5-2.6 0-.9.3-1.7 1.1-2.2 2.1-.7 4 .5 5.6 1.9z"/><path fill="none" d="M276 307.8c2.4-1 6-1 8.6-.3.8-.3.8-1.7 1.9-1.8 1.2 0 2.4.3 3 1.3.5 2-.9 3.6-2.2 4.7 1.2 2.7 1.4 7-.8 9.2-.8.1-1.4-1.3-2.3-.5 0 1.3.3 2.2-.2 3.2-.6 1-1.9 1-2.9.8-.5-.4-.9-1-.9-1.6 1-.9 3-1.3 3.3-3 .4-1.6-.7-2.9-1.1-4.3-.2-.4-.7-.8-.4-1.3.7.6 1.6 1 2.6.6 1.7-.6 2-2.2 2-3.8.3-.3.7-.6.8-1-1.2-.9-2.4.3-3.5.5-1.6.3-3.3.3-4.3 1.7-1 2.7 1.6 4.5 1.6 6.9-1 .4-2.1-.9-3.3-.3-.5 0-.9.5-1.3.2.2-2 2-3.5 2.3-5.5 0-1-.3-1.8-1.1-2.2-2-.7-4-1.4-6.2-1.8-.8.5.1 1.2.2 1.8-.2 1-.2 2.3.5 3.2.6.5 1.3.8 2 .8.8 0 1.3-.5 1.8-.9.3.2.2.8 0 1-.7 1.8-2.8 3.8-1 5.8.8.8 1.9 1 2.8 1.6-.1.7-.6 1.3-1.2 1.7-.5.2-1.2.2-1.7 0-2.8-.4.5-5-3.1-4-2.4-1.6-2.5-5-2-7.8.2-.7.7-1.3.8-2-1-.6-1.4-1.6-1.5-2.6 0-.9.3-1.7 1.1-2.2 2.1-.7 4 .5 5.6 1.9z"/><path fill="#FFF" d="M421.7 307a46.2 46.2 0 0 0 20.6.1c.2-.2 2 1.7 4.3 3-9.5 2.8-21 2-30.5-.3a52.2 52.2 0 0 0-24.2.4l-.2-4.1c11.4-3 21.5-1.2 30 1z"/><path fill="#B0062A" d="M388.8 311h-.2l-2.4-3.4 2.6-.6v4z"/><path fill="#CAB55E" d="M310 308.1c-.3 1.5-1.9 3.7-1.9 3.7 4.5-1.4 8.8 1.2 11.3.5-2.2 2.7-5.5 3-7.8 2.7-2.8-.4-3.9-1-5.1.2.2.7 1.2 1.2 1.4 1.8-2.9.3-5.6 1.6-8.1.2-1 1.2-.6 2-.2 4 2.4 3.4 6 3.7 10 3.1 2.3-.6 5-.9 7.4-1.3-3.5 1.3-7.3 2.2-11 3.3-3.8-.3-8.2-1.2-9.7-5.2-.6-3 0-5.8 2.4-7.3-1.3-1.9-.3-4.2 1.4-5.1 2.7-1.3 6.8 1 10-.6z"/><path fill="none" d="M310 308.1c-.3 1.5-1.9 3.7-1.9 3.7 4.5-1.4 8.8 1.2 11.3.5-2.2 2.7-5.5 3-7.8 2.7-2.8-.4-3.9-1-5.1.2.2.7 1.2 1.2 1.4 1.8-2.9.3-5.6 1.6-8.1.2-1 1.2-.6 2-.2 4 2.4 3.4 6 3.7 10 3.1 2.3-.6 5-.9 7.4-1.3-3.5 1.3-7.3 2.2-11 3.3-3.8-.3-8.2-1.2-9.7-5.2-.6-3 0-5.8 2.4-7.3-1.3-1.9-.3-4.2 1.4-5.1 2.7-1.3 6.8 1 10-.6z"/><path fill="#B0062A" d="M342.1 310.2c-1-.1-2.9.4-2.9.4l.9-2c.8.1 1.3-.6 2.1-.3v1.9z"/><path fill="#CAB55E" d="M250.9 314.8c-.5.8-1.2 1.5-1.8 2.2.2.3.5.5 1 .7l1.2.7 5.3 2.7 12.5 6.5c2 0 4.2-2.4 5.8.2.1 0 .3-.3.3-.5l.2-.5.3-.6c1 0 1.8 0 2.8-.4 1 .4 2.3.2 2.8 1.3-.1.4 0 .6.3.8 1.2-.8 2.3-2 3.3-3l.7.2c1.8 1.9 3.8 3.5 5 5.8-3 1-6 1.8-9.1 2.7-.5.3-1 .8-1 1.3 0 .7.2 1.3.8 1.5 1.3.7 2.6-.6 4.1-.3a38.3 38.3 0 0 1 14.8 12.4c.1.5 0 .7-.5.8h-.3c-5.8 1.3-13.2 4.8-18.2.2l-2.4-2.5c-.1-1 .6-.6 1-1 .7-.3 1.7-.4 2.2-1l-1.4-5.2-3 3.5-21.7 7.2c-.6.1-1.7-.3-2 .3.6 1.3 1.2 2.5 1 4l-.6.3c-.6.4-1.2.6-1.9.3-.8-1-.7-2-1.2-3-.4 0-.6.6-.8.9l-.3.8c-.4 1-1 1.9-2.1 2-.7 0-1.3-.4-1.6-1-.2-1.7 1.4-2.3 2.1-3.4-.6-.4-1.7-.3-2.4-.5-.8 0-1.4-.3-1.8-1-.3-.9.2-1.5.8-2 1.5-.4 3 .1 4.4-.1.1 0 .2-.4 0-.6-.7-1.1-2.2-2-1.6-3.6.2-.4.7-.5 1-.5h.7l.5.1c.7.7 1 1.4 1.2 2.2l.3 1.2.4 1c.5.3 1.4-.6 1.9-.7l10.5-8.2c3.4-1.4 2.4-5.4 4.1-8l.2-.6c-.7.3-1.3 1-1.8 1.7l-1 1-1 1.3-.7-.2-16.1-14.2c-.4-.2-.5.4-.7.7a14 14 0 0 1-1.3 3.2c-.4.3-1 .3-1.5 0-1-.4-1.1-1.4-.8-2.2.2-.9 1.9-1.7 1.2-2.4-1.6 0-3.3 1.5-4.6-.4v-.6c0-.6.2-1.2 1-1.2.7-.2 1.7-.2 2.4 0h1l.8-.1c.2-.1.1-.3 0-.4-1-1.3-3.2-2.2-2.7-4 .6-.6 1.4-.8 2.1-.5 1 1 1.6 2.7 2.7 3.3.9-1.3.9-3 2.3-4.1.7-.2 1 .1 1.5.6.3 1 0 2-.6 2.9z"/><path fill="#B0062A" d="M328.5 311.2h2.3l.1.8-3.4.6V309l1 2.3z"/><path fill="#FFF" d="M274.3 313.5c-.7-.4-.6-.8-.9-1.4h.3c.7-.5 1.8-.2 2 .7-.4.6-.8.7-1.4.7zm10.7-.6-.3.3-.2.2h-.8c-.4.1-.6 0-.8-.5.3-1 1.3-1.2 2.1-1 .1.4.2.7 0 1z"/><path fill="#B0062A" d="M342 311.8c.2.6 0 1.9 0 1.9l-6 .9v-1.8c2.1-.1 4-.8 6-1zm52.3.9.3.7-3-.3c.2 0 2.2-.7 2.7-.4zm-63.5 2.7-3.7.7s.3-1 0-1.7c1.1-.6 2.6-.3 3.7-.8v1.8zm63.9-.2v1.7l-2-.2-.5-2 2.5.5zm-52.9-.2v1.2l-5.6 1.4v-1.3c2-.3 5.6-1.2 5.6-1.2zm-11 4.1c-1.2.6-3.8 1.1-3.8 1.1v-2.4l3.7-.7v2zm64.3.3s.3 2.2.2 3.4l-2-3.7 1.8.3z"/><path fill="#FFF" d="M330.7 323.4c0 .7.1 1.5-.1 2-.9-.3-1.7-.8-2.3-1.6.6-.3 1.4-.5 2.1-.6l.3.2z"/><path fill="none" d="M330.7 323.4c0 .7.1 1.5-.1 2-.9-.3-1.7-.8-2.3-1.6.6-.3 1.4-.5 2.1-.6l.3.2z"/><path fill="#272059" d="M281.2 329.1c.7-.3 1.4-.8 2.2-1 0 1.7-.4 3.5-2 4.5-1.3.7-3.2 1-4.6.3-1.6-.8-3.1-2.1-3.4-4l.1-1.2a9.4 9.4 0 0 0 7.7 1.4z"/><path fill="none" d="M281.2 329.1c.7-.3 1.4-.8 2.2-1 0 1.7-.4 3.5-2 4.5-1.3.7-3.2 1-4.6.3-1.6-.8-3.1-2.1-3.4-4l.1-1.2a9.4 9.4 0 0 0 7.7 1.4z"/><path fill="#FFF" d="M388 381.9c-2 1.4-3.5 3-5.6 4 2-2.8 3.9-4.2 5.4-7.8h.3l-.2 3.8z"/><path fill="#CAB55E" d="m273.3 382.4.3 5.2-6-.8-.2-5.3 5.9 1zm-17.3 0c.3 1.6.2 5 .2 5l-4 1.4-.2-5.2 4-1.2zm28.6 1.9.1 5.3-6.3-1.1v-5.2l6.2 1zm-37.4.9s0 3.3.2 5.1c-1 .7-3.9 1.4-3.9 1.4l.1-5.4 3.6-1.1zm47.5.8v5.2l-5.3-.8v-5.3l5.3.9z"/><path fill="#FFF" d="M387.9 385.7a108 108 0 0 1-9.5 5.1c0-.5.8-1.3 1.2-1.8 2.9-1.1 5.6-2.8 8.3-4.5v1.2zm.1 4c-1.4.5-3 .2-4.4.4l4.2-2.1c.3 0 .2 1.7.2 1.7z"/><path fill="#CAB55E" d="m420.9 389.3-1.3 5.9-5.6.9v-5.8l6.9-1zM261.4 396l-12.3 3.6-3.2-2.9 14-4.1 1.5 3.4zm33.3.5.1 2.7-28.2-4-1-3.5 29.1 4.8zm115.5.1c-2.3.2-6.8 1.2-6.8 1.2V392s4.1-.9 6.6-1l.2 5.6zm-10.9-4.1.1 5.9-5.9.9v-5.9c2-.1 5.8-.9 5.8-.9z"/><path fill="#B0062A" d="m343.6 424-.8.2c-.5-8.3-.2-21.3-.1-30a40 40 0 0 1 21.6 7.1c4.5-1.9 7.8-5.6 11.2-9h1.6c-6.6 15.7-15.5 27.4-33.5 31.7zm-2.8-28.7-.2.4-3.7.6.1-1.5c1.1-.2 3.5-1 3.8.5z"/><path fill="#CAB55E" d="M388.2 394.3v6l-5.8 1-3-3.1 1.3-2.8 7.5-1.1z"/><path fill="#B0062A" d="m329 397.7-6.7 1c-.7-2.3 1.9-1.8 3.8-2.4.9-.3 2-.3 2.9-.4v1.8zm11.5-.4.1 2s-2.5.6-3.7.7v-2l3.6-.7z"/><path fill="#FFF" d="m319.3 398.8-1.7 19.5a37 37 0 0 1-14.5-13 41.1 41.1 0 0 1 16.2-6.5z"/><path fill="#B0062A" d="M329 399.3v2l-7.2 1.3.1-2.2 7.1-1.1z"/><path fill="#CAB55E" d="M279.8 402c2.4 4.7 3.3 7 8.3 13.5-.7 2.5-1.5 5-2.6 7.3h-.4a62.6 62.6 0 0 1-11.2-17.3c.2-1.4 0-3 .6-4.1 1.8.2 3.6.3 5.3.7z"/><path fill="#B0062A" d="M340.5 400.7v1.8l-3.6.7.1-2 3.5-.5z"/><path fill="#CAB55E" d="M383.9 408c-2.4 3.5-4.6 6.9-7.6 10.2a49.3 49.3 0 0 0-3.8-7.8c1.9-3 4-6.4 5.4-9.5l6 7zm-90.6-4.2c-.5 2.2-1.8 4-2.7 6h-.3c-1.7-2-3.2-3.8-4.4-6.8l7.4.8z"/><path fill="#B0062A" d="m329 402.6-.1 2-7.3 1.2.1-2 7.2-1.2z"/><path fill="#CAB55E" d="M408 402.4c0 1-.6 1.8-.7 2.7-1.4 4.4 1.3 8.7.5 13-1 5.5-3 10.2-6.6 14.4-1.2-4.8-2.6-6.7-4.3-9.9a102 102 0 0 0 9.4-19.6l1.7-.6zm-102.6 13.9-2.3 7.1a43 43 0 0 1-10.7-10.8s2.3-6 3.9-8.3c0 0 4 7.7 9 12z"/><path fill="#B0062A" d="m340.5 406-3.4.5s-.2-1.1 0-1.7l3.4-.7v1.9z"/><path fill="#CAB55E" d="M400.6 403.7c-1.7 4.5-3 8.5-6.3 13.4-1.6-3.1-5.3-7.6-5.3-7.6l2.1-4.3c3-.9 6.3-1 9.4-1.7l.1.2z"/><path fill="#B0062A" d="M328.8 406.2v1.8l-7.5 1.2.1-1.8 7.4-1.2zm-.1 3.6v1.7l-7.6 1.2V411l7.6-1.2z"/><path fill="#CAB55E" d="M392.4 420a80.3 80.3 0 0 1-10 13c-1.8-4.6-1.5-5-3.7-9 3.5-4 6.5-8.7 8.5-12l5.2 8z"/><path fill="#B0062A" d="m328.6 415-7.9 1.4.3-2 7.6-1.3v1.9z"/><path fill="#CAB55E" d="M374.2 420.7c-3.4 4-7.4 7.6-11.7 10-.9-4-1.6-5.4-2.2-8.1 4.9-3.7 8.2-7.1 10.2-9.5 0 0 2.6 5 3.7 7.6zm-100.8-5c2.9 4.5 6.3 8.8 10.2 13-.5 3-1.4 3.9-2.2 8.6 0 0-6.2-6.8-8.2-11.2-.4-3 0-7.4 0-10.4h.2z"/><path fill="#B0062A" d="M328.5 416.7v1.8l-8.1 1.6.1-2 8-1.4z"/><path fill="#CAB55E" d="M301.7 429.7c-.7 2.2-.7 4.2-1.6 6.3a117.4 117.4 0 0 1-12.7-10.7c.7-2.4 1.6-4.9 2.6-7.2 3.8 4.5 11.7 11.6 11.7 11.6zm19.4-3.4c-.4 3.2-.5 4.9-1 7.2a54.9 54.9 0 0 1-14.3-7.9c-.5-.8 1.3-5.7 2-7.4 2.3 1.2 13.1 8 13.3 8.1z"/><path fill="#B0062A" d="M328.3 420.2v2c-1.8.4-3.5-.5-5-1 1.5-.5 5-1 5-1z"/><path fill="#CAB55E" d="M359.7 432.2a43.4 43.4 0 0 1-15 5.2c-.5-1.4-1.6-7-1.6-8.4 4.8-1.4 10-2.3 14.4-4.8 1.3 3 2.2 8 2.2 8zm39.8 3.2a58.3 58.3 0 0 1-12 12.7c-1.8-5.8-3.3-10-3.3-10 4-3.9 7.8-8.4 10.9-13 0 0 3.2 6.8 4.4 10.3zm-19.6.2a54.5 54.5 0 0 1-14.7 10s-1.4-6.3-1.8-9.3c4.6-2.8 8.7-6.3 12.8-10.1.7 0 3.7 9.4 3.7 9.4zm25.7 11.8c-.6-3 0-2.8-1.9-8.3 4-5.9 5.2-10.1 6.9-13.1 1.4 7.1-.3 13.9-5 21.4zM340 429.3c1 3.8 1.3 8.5 1.3 8.5-6.4 0-14.3-1.3-18.3-3 .2-2.5.5-5.3 1-7.6 3 .6 8.4 2.6 16 2zM262 449c-.7 4.4-.4 9.2-1.5 13.4-1.7-.7-3.4-1.9-5.4-1.4l-4 .8-.2-.1c5.4-10.2 9-21 12.1-32.1.3 6.4-.5 13-1 19.5zm36.9-7.4c-.6 3-1.2 4.6-1.8 9-7.8-4.7-6.7-4-13.6-10.2.6-3 1-6.6 2.2-9.3 0 0 6.3 6 13.2 10.5zm20.3-2.8c-.7 3.4-.8 7.4-.8 7.4a65 65 0 0 1-16-8.3c.8-2.8 1-4.8 1.8-7 4.9 3 9.8 6 15 8zm-39.2 5c-1.9 6.5-2 11.4-3 17.1a85.6 85.6 0 0 1-3.5-24.6c2.2 2.4 4.2 5 6.4 7.5zm82.2 2.9c-3.5 2-9.8 3.7-15.3 4.3l-1.4-8.4c5.2-.9 15-4.7 15-4.7 1 2.6 1.3 6.4 1.7 8.8zm-19.7-3.8 1.1 8.1c-10.8-.4-15-1.5-22-3.9.3-2.3.4-4.8.8-7 4.2.9 12 2.6 20 2.8zm42.1 7.1a63.8 63.8 0 0 1-17.5 9.4c-.1-3.5-.9-6.2-1.2-8.3a69.3 69.3 0 0 0 15.7-10.3s2.5 6 3 9.2zm18.6 2c-1.1 2-6.8 10.5-12.8 9.4-.6-2.6-1.5-5-1.8-7.9A77 77 0 0 0 401 442c.5.3 2 7 2.2 10zm-85-.1-.7 8c-9.1-2.3-14.8-6-17.6-7.4.6-4.3 1.5-9 1.5-9a98.5 98.5 0 0 0 16.8 8.4zm-21.7 4.7c-.1 2.5-.6 4.8-1 7.2-1 .3-2.3.6-3.5.3-2-2-4.2-4.4-7.2-3.2l-4.7.9c-.6-.8.8-8.7 2.1-15.6 0 0 7.2 6 14.3 10.4zm47.7-.3c.2 2.2.7 4.4.6 6.8-1.4-.8-2.6-2.1-4.1-2.5-3.7.5-7.3 1.2-10.7 2a22 22 0 0 1-9-1.7l.3-8a68.3 68.3 0 0 0 22.9 3.4zm19.8 4.1c-7.3 2.6-10.4 2.6-15.9 3.5-.4-2.6-.3-5.3-.7-7.8 5.4-.4 14-3.3 15.6-3.6 0 0 1.2 3.7 1 7.9zm22.5-4.5 1.2 6c-2.1 1-4.7.8-7 1.4-3 .3-6.6 2-9.5.3 4.5-1.6 15.3-7.7 15.3-7.7zm-80 5.5-.3.3-7.3 1.5-.3-.3c.4-1.6.2-3.3.7-4.8l7.2 3.3z"/><path fill="#FFF" d="M291.1 475.5h-1c-.3 0-.4 0-.7.2-1.9-.6-3.2-3-4.8-2.7-5.6.8-10.9 2.4-16.5 3-1.6 0-3-.5-3.9-2-.3-.8.2-1.3.8-1.7l.3-.2 17.6-3.4c4.3-2 7.3 2.6 9.9 5.2 0 1.2-.6 1.6-1.7 1.6zm54.5-.1h-2.7c-2-2.2-3.8-2.7-6.7-2.3-2.6.3-5.6 1.4-9.2 2-3 .5-6.4 2-8.7-1.3 0-1 .5-1.5 1.3-2 1.3-.2 2.6-.6 3.9-.7a94.7 94.7 0 0 1 15-3c3.7-.2 6 3.1 8.4 5.3.3 1-.2 1.9-1.3 2zm55.1-.4h-.6l-.1.1c-1.9.8-3-.2-3.8-1l-.6-.6c-.5-.5-1-.9-1.8-.7-5.7.3-10.2 2-15.8 2.7-2 0-4 .2-5-1.8-.3-1 .3-1.6 1-2l19-3.7c3.9-.1 6.2 2.9 8.5 5.4.3.8.1 1.4-.8 1.6zm-81.7 9.7-.6.5c-5.7.7-4-3.2-9.6-2.2-2 .3-4.2 1-6.4 1.2-3.9.4-6.8 2.6-10.9.6 0-.2 0-.2-.2-.3l-.3-.3c-.5-.5-.6-1-.3-1.6l1-1 19.5-3.6c3.5 0 5.8 3.4 8 5.6.1.4.1.8-.2 1.1zm54.5-.3v.8c-1.1.5-2.2.5-3.4.7-2-.7-3-3.2-5.4-2.5v-.2c-5.2 1.2-10.5 2-15.7 3-1.9-.3-3.3-.5-4.3-2.3.1-1 .7-1.3 1.4-1.8 6.3-1.4 12.7-2.2 19-3.5 3.6-.3 5.8 2.7 8.1 5 .3.3.3.6.3.8zm55.3.1-.2.2c-1.3.4-2.6.8-4 .4-4.1-5.2-10.3-.4-15.4-.4-3 .7-6.8 1.9-9-1.2 0-.9.4-1.5 1.2-2L421 478c3.5.1 6 3.2 8.1 5.6.1.4.1.7-.2 1zm-162 .7a7 7 0 0 1-3.8 0c-1-1-2.2-2.3-3.7-2.3-3.6.5-7.2 1.3-10.8 2-2.7.4-5 1.4-7.7.6-.5-.2-.8-.5-1-1l-.4-.5-.4-.6c0-.4.2-.6.4-1l.2-.2.3-.3 19.5-3.7c2.3-.2 4 1 5.4 2.6l.9 1c.5.5 1 1.1 1.7 1.6.8.9-.3 1.7-.6 1.8zm80.5 11.2c0 .5-.2 1-1 1.2-1.1 0-1.9.5-3.2 0-1.5-1.4-3.3-2.8-5.6-2.3l-14 3c-2-.3-4 0-5-2.3.1-.9.7-1.3 1.4-1.7l14-2.7c3-.6 6.8-2.2 9.4.4l4 4v.4zm54 .4a2 2 0 0 1-1 .3c-3 1.2-4.1-2.1-6-2.3l-1.3-.1-15.5 3c-1.8 0-3.7-.1-4.4-2.2 0-.7.4-1.3 1-1.6 6.5-1.5 13-2.5 19.4-4 3.7-.2 5.8 3.1 8.2 5.3.3.6.3 1.2-.4 1.6zm-82.1 8.8.2.3.1.2c.3.4.2.6.1 1-1.2.9-3 1.3-4.4.4-1.2-1.1-2.6-2.4-4.4-2.2-6 .6-11.6 2.8-17.7 2.6-1.1-.7-2-1.3-2.2-2.7 1.8-2 3.5-1.4 5.8-2 4.7-1 9.6-1.7 14.3-2.6 3.8-.4 5.9 2.7 8.2 5zm54.2 2.1-.1.1c-1.4 0-3 1-4.1-.4a5.3 5.3 0 0 0-5-1.8c-4.7 1.2-9.6 2-14.3 3-2-.2-3.7.2-4.6-2 .1-1.1.8-1.9 1.8-2 6.4-1.2 12.6-2.8 19-3.9 3.4.2 5.8 3.3 7.8 5.7 0 .5 0 1-.5 1.3zm-26.9 11.6c-1.2.1-2 .6-3.2.1-1.8-1.4-3.6-3.1-6.1-2.2-4.9 1-9.7 2-14.6 2.7-1.5-.3-3-.3-3.8-2-.3-.8.3-1.5 1-1.8 6.5-1.4 13-2.8 19.5-4 3.6.1 5.7 3.3 8 5.5.3.7 0 1.5-.8 1.7zM291.1 498h-2c-1.4-.9-2.9-3-4.6-2.6l-2.5.4-13.4 2.4c-1.7-.3-3.4-.2-4.3-2 0-.5 0-.8.3-1.1l.2-.3.1-.1.1-.2c6.7-1.5 13.3-2.6 20-4 3.7 0 6.3 3.7 8.3 6.3-.6.8-1 1.1-2.2 1.2zm2.6 20.7v.8c-1.1.5-2.2.5-3.4.7-2.1-.7-3-3.2-5.4-2.5l-.1-.1c-5.1 1.1-10.4 2-15.6 2.9-1.9-.2-3.3-.5-4.3-2.3.1-.9.6-1.3 1.4-1.8 6.2-1.4 12.6-2.1 19-3.5 3.6-.3 5.8 2.7 8 5 .4.3.4.6.4.8zm26.9 10.4v.8c-1 .5-2.1.5-3.3.8-2.1-.7-3-3.3-5.4-2.6l-.1-.1-14 2.7c-1.8-.2-3.3-.5-4.3-2.3.2-.9.7-1.3 1.4-1.8 5.7-1.2 11.6-2 17.3-3.3 3.6-.3 5.9 2.7 8.2 5 .2.3.2.6.2.8zm-55-22.9v.8c-1.1.5-2.2.5-3.4.7-2.1-.7-3-3.2-5.4-2.5l-.1-.2c-5.1 1.2-10.5 2-15.6 3-1.9-.2-3.3-.5-4.3-2.3.1-.9.6-1.3 1.3-1.8 6.3-1.4 12.7-2.1 19-3.5 3.7-.3 5.9 2.7 8.2 5l.3.8zM374.7 530v.6c-1.1.5-2.2.6-3.4.8-1.7-.6-3.8-3.6-4.9-2.8l-.4.3-.2-.2-5.5 1c-3.4.5-6.7 1.2-10.1 2-1.9-.3-3.3-.5-4.3-2.4.1-.9.6-1.3 1.4-1.7 6.2-1.4 12.6-2.2 19-3.6 3.6-.3 5.8 2.8 8 5 .4.3.4.7.4.8zm26.5-11.7v.8c-1.1.4-2.2.5-3.4.7-2.1-.7-3-3.3-5.4-2.6l-.1-.1c-5.1 1.1-10.5 2-15.6 3-1.9-.3-3.3-.5-4.3-2.4.1-.9.6-1.3 1.4-1.7 6.2-1.4 12.6-2.2 19-3.6 3.6-.3 5.8 2.8 8 5 .3.3.4.7.4.9zm28.7-10.8v.8c-1.1.4-2.2.5-3.4.7-2.1-.7-3-3.2-5.4-2.6l-15.7 2.9c-1.9-.3-3.3-.5-4.3-2.3.1-1 .7-1.3 1.4-1.8 6.3-1.4 12.6-2.2 19-3.5 3.6-.3 5.8 2.7 8 5 .4.3.4.6.4.8zm25.4-33.7v.8c-1.1.5-2.2.5-3.4.7-2.1-.7-3-3.2-5.4-2.5l-.1-.2c-5.1 1.2-10.5 2-15.6 3-1.9-.2-3.3-.5-4.3-2.3.1-1 .6-1.3 1.3-1.8 6.3-1.4 12.7-2.1 19-3.5 3.7-.3 6 2.7 8.2 5l.3.8z"/><path fill="#B0062A" d="m340.2 409.5-3 .4s-.3-1.1-.1-1.7l3.2-.6v2zm.1 3.5-3.1.5s-.2-1.1 0-1.7l3.1-.6v1.9zm-.2 3.6-2.9.3s-.2-1.1 0-1.7l3-.5v1.9zm.1 3.5-3 .3s-.2-1.1 0-1.7l3-.5v1.9zm0 3.5-2.9.3s-.2-1.1 0-1.7l3-.5-.1 1.9z"/><path fill="#FFF" d="M237.9 473.7v.8c-1.1.5-2.2.5-3.4.7-2.1-.7-3-3.2-5.4-2.5v-.2c-5 1.2-7.6 1.8-12.6 2.8-1.6-.2-4-3.6-2.6-4.5 5.1-1.1 10.4-1.8 15.5-3 3.7-.2 6 2.8 8.2 5 .3.4.3.7.3.9z"/><path fill="#272059" d="M354.3 214.7a6 6 0 1 1 11.9 0 6 6 0 0 1-11.9 0z"/><path fill="#CAB55E" d="M357 214.7a3.2 3.2 0 1 1 6.4 0 3.2 3.2 0 0 1-6.3 0z"/><path fill="#272059" d="M370.7 304h-20c.9-10.1 1.8-17.5 9.8-17.6 7.9-.1 9.4 7.5 10.2 17.6z"/><path fill="none" stroke="#B0062A" stroke-miterlimit="99.5" stroke-width=".4" d="M370.7 304h-20c.9-10.1 1.8-17.5 9.8-17.6 7.9-.1 9.4 7.5 10.2 17.6z"/><path fill="#FFF" d="M353.8 301.3c.1-3.7.2-12.1 6.6-12.3 6.8-.2 7 8.6 7.1 12.4h-13.7z"/><path fill="#272059" d="M356.4 299c0-2.2.4-7.4 4.1-7.3 4.2 0 4.2 4.8 4.2 7.3h-8.3z"/><path fill="#B0062A" d="M275.7 273.5c0-1.2 1.6-2.2 3.6-2.2s3.6 1 3.6 2.2c0 1.1-1.6 2.1-3.6 2.1s-3.6-1-3.6-2.1zm-.8 54.5c0-1.2 1.6-2.2 3.6-2.2s3.7 1 3.7 2.1c0 1.2-1.7 2.2-3.7 2.2s-3.6-1-3.6-2.2z"/><path fill="#FFF" d="M327.6 332a45 45 0 0 0-7.7-5.7c-1.3.4-2.7.7-4 1.2 4.6 3.1 9.2 7.6 12 12.4v.5c0 .2 0 .5-.4.6-.5.4-1 0-1.4-.5a36 36 0 0 0-12.4-12c-1.4-.3-2.7.3-4 .7 3 1.9 5.7 4.4 7.9 7-.3.5-.7 1.1-1.4.8-2.4-2.4-5-4.7-7.9-6.5-1.5-1.1-3.5.2-5 .6 3.5 2.4 7.4 5.3 10 9 1.2 1.6 2.4 3 3 4.8-.2.5-.8 1-1.4.5-2.8-4-5.8-7.9-9.8-10.8-2-1-4.6-4-7-2.1 2.1 1.4 4.2 3 6.2 4.5l.1 1c-.3.4-.6.6-1.2.5-2.4-2-5-3.7-7.6-5.3-1.4.1-2.6.9-4 1.1a2 2 0 0 1-.3.1l-.4.1-.3.2c3 2 6 4 8.7 6.9 14.9 14.5 13.4 40.5 5.8 57.8h.3c1.3-.7 2.6-.9 3.6-1.6 1.8-3.6 3-7.3 4.2-11.1.3-.8.3-2.3 1.5-2.3.5 0 .7.5.8 1a77 77 0 0 1-4 11.4l3.5-1.2a80 80 0 0 0 5.7-16c.3-.7 0-1.5.9-2 .6-.1.9.3 1.2.6a68.3 68.3 0 0 1-5.2 16.6c1.3-.4 2.5-1 3.9-1.3 1.9-3.8 3.8-7.7 4.9-11.8l.3-.8.1-.3a1 1 0 0 1 1.2-.4c.5.3.6.7.5 1.2a93 93 0 0 1-4.5 11.5c1.5-.4 3.7-1.1 5.1-1.2 1-9.5 1.5-57.6 1.6-64l-2.5-1.7-2.1-1.3c-1.3.2-2.5.5-3.7 1l2.9 2c1.3 1.1 2.7 2 3.5 3.6l-.3.4c-.3.3-.5.4-.9.2zm50.7-22.1a45 45 0 0 1 11.5 20.3l-1 .7c-1.3-.8-.8-1.8-1.5-2.7-.2-1.4-1.2-2.5-1.5-3.8-2-5-5.2-9.7-9.5-13.8-1.8 0-3.4.9-5.1 1.3a52 52 0 0 1 13.2 22.6c0 1.7 1.4 3 .3 4.8-.6 0-1 0-1.4-.5-.3-3.2-1.4-6.2-2.5-9.2a54.7 54.7 0 0 0-11.6-17c-1.8.1-3.4.7-5 1.3 4.8 4.8 8.8 9.9 11.3 16.2 0 1 1.1 1.9 0 2.8-.5.4-.9 0-1.2-.4a40 40 0 0 0-12.5-18l-4.7 1.4c4 3.5 7.1 7.4 8.9 11.9.5 1.5 1.7 2.6 1.4 4.4-.6.4-1.2.1-1.6-.4-2.1-5.7-5.6-11-10.8-15.2l-.3-.1-4.3 1.3c2.2 2 4.4 4.4 6.1 7 .2 1 2.3 2.1.6 3.2-.3.2-.6 0-.7-.1l-.4-.4a27.9 27.9 0 0 0-8-9c-1.5.4-3.3.5-4.8 1.3a40 40 0 0 1 12.4 17.8l.2.4c0 .5.1 1-.5 1.3-.3.2-.5.1-.7 0l-.5-.4c-2.2-7.4-7-13.7-13-18.4-1.5.1-2.8.7-4.2 1 2 2.2 4.4 4.2 6.2 6.7.5.5 0 1.1-.4 1.4-.8-.1-1.3-.6-1.8-1.2l-.4-.5a27 27 0 0 0-4.5-4l.2 7a43 43 0 0 1 4.8 7.2c-.2.5-.5 1-1.2 1-1.4-1.5-2.1-3.5-3.5-5l.6 52.4c1-1.6 1.5-3.4 2.2-5.1.7-1.5.8-3 1.8-4.3.3-.2.6-.1.8.1l.5.5a63.6 63.6 0 0 1-5 12.8h1.1l.8-.1h.6a78.2 78.2 0 0 0 8-17.7l.7-.4c.4.2.8.4 1 .9-1.4 5.2-3.6 10-5.9 14.8-.5.8-1.1 1.5-1.4 2.3l.7.1 1 .2a3 3 0 0 0 1.8 0c2.9-3.8 5.3-7.9 6.9-12.2.2-.3.6-1 1.2-1 .5.1.7.7.8 1.1-2 4.5-3.9 8.7-6.9 12.5 1 .4 2.2.2 3.2.5a47.2 47.2 0 0 0 10.3-15.7c1-1.2.4-3 2.4-3.4l.4.4.2.5c-2.4 7-6 13.2-11 18.7l2.9 1c5-3.8 8.6-9 11.7-14.3l.6-.2c.7 0 1 .7.9 1.2a48.3 48.3 0 0 1-11.2 14.1l2.8 1.3A59.5 59.5 0 0 0 380 372c.6-.5 1.2 0 1.5.5a56.7 56.7 0 0 1-19 23.7v.3c.6.3 1.3.6 1.8 1 1 .3 1.9-1 2.6-1.4 14.5-12.4 25.4-27.4 27.8-44.8a53.5 53.5 0 0 0-12.4-42c-1.3-.3-2.8.4-4.1.7zm35.2 15.6c2.5 2.4 4.4 5.3 6 8.3.2.4.3 1-.2 1.3-.4.7-1 .1-1.3-.2-1.8-3.2-3.4-6.3-6.4-8.4-1.3-.6-2.5.2-3.7.5 3.5 3.5 7 7.3 8.9 12-.3.6-1 1.4-1.7.6-2-4.7-5.6-8.6-9.2-12-1.2.1-2.2.6-3.4 1 2.6 2.2 5 5 6.6 8v.5c-.2.6-.8.7-1.3.6a29 29 0 0 0-7.5-8.4 5 5 0 0 0-2.4.6l.1 1.2c1.6 1 3.2 2.4 4.4 4 .4.4 0 1-.3 1.3-1 0-1.3-.3-1.8-1l-.3-.3a6 6 0 0 0-1.3-1.2c3 10 .7 27-5.3 36.4l.1 7.4.8-.7 1.1-1.2c.8-1 .8-2.3 2.3-2.6.6.1.8.7.7 1.2-1 2.3-3 4.3-4.8 6v1.3c3.8-2.3 7-5.3 10.2-8.2h.8c.4.3.6.6.5 1.1a86.1 86.1 0 0 1-11.4 9.7v.9c3.7-2 7.4-4 10.5-6.8 1-.4 1.8-2.2 2.9-1 .2.2.2.7 0 1-4 3.6-8.6 6.4-13.2 9.3v1.1c9.5-2 22.8-14.5 28.4-25.4a33 33 0 0 0-7-38.2h-.4l-.7.2a5 5 0 0 0-.6 0l-.1.1z"/><path fill="#CAB55E" d="m652.5 603.5 18.4 33.6h-93.3l-57-66.6h151l-19.1 33z"/><path fill="#FFF" d="m662.1 632-15.4-28.5 16.4-28.1H530.6l48.3 56.4 83.2.2z"/><path fill="#CAB55E" d="M151.2 570.3v27.3l-13.4-12 13.4-15.3zm369.4.4v26.7c6.6-5.5 13-11.8 13-11.8l-13-15z"/><path fill="#CAB55E" d="M19 603.7.6 637h94l56.6-66.7-151.2.2 19 33.2z"/><path fill="#FFF" d="m9 632 15.5-28.3-16.3-28.4h133l-48 56.7H9z"/><path fill="#CAB55E" d="M17.6 580.4h111.8L89.7 627H18.2l12.9-23.3-13.5-23.2z"/><path fill="#272059" d="m89.9 625.8 2.6-3.2-71.3 2 68.7 1.2zm38.2-44.8L20 584.1l101.8 3.5-97.8 3.3 93.2 3 11-12.9zm-29.6 34.8-73.4 2 70.4 1.3 3-3.3zm5.7-6.9L29 611.2l72.2 1.3 3.1-3.6zm6-7-77.3 2.6 73.7 1.6 3.6-4.2zm6.1-7-87 2.8 82.9 1.9 4-4.7z"/><path fill="#CAB55E" d="M653.8 580.5H542.2l39.8 46.6h71.3l-13-23.7 13.5-22.9z"/><path fill="#272059" d="m581.6 625.6-2.6-3.2 71.3 2-68.7 1.2zm-38.3-44.8 108.2 3.1-101.8 3.5 97.8 3.3-93.2 3-11-12.9zm29.7 34.7 73.3 2.1L576 619l-3-3.4zm-5.8-6.8 75.4 2.3-72.2 1.3-3.2-3.6zm-6-7 77.3 2.6-73.7 1.6-3.6-4.2zm-6-7 87 2.8-83 1.9-4-4.7z"/><path fill="#FFF" d="M139.9 588a289 289 0 0 0 195.8 79.3c74 0 145.3-31 198.3-81.5l39 45.7a338.8 338.8 0 0 1-237.3 96.2c-90.1 0-171.6-35-237-95.7l39.2-46 2 2z"/><path fill="#CAB55E" d="M138.3 593.7 106 631.3a339.2 339.2 0 0 0 229.6 91.1 334 334 0 0 0 230-91.3l-32.1-37.6a295.6 295.6 0 0 1-197.9 79.1 294 294 0 0 1-197.4-78.9z"/><path fill="#272059" d="m150 650.8-.7.4c-.8-.5-1.5-1-2.2-1.7-.6-.5-1-1-1.7-1.4l-1.9-1.2c-.8-.5-1.5-1-2.2-1.7l.2-.6c1.5 1 2 1.5 3.4.3.7-.7 3-3.6 6.4-8.2L143 630a132 132 0 0 0-6.2 8.8c-.8 1.7-.1 2 1.3 3.1l-.6.4c-.9-.5-1.5-1-2.2-1.7-.6-.5-1-1-1.8-1.4l-1.8-1.2-2.3-1.7.3-.6c1.5 1 2 1.5 3.4.2a163.9 163.9 0 0 0 12.5-16.8c.8-1.7.2-2-1.2-3.1l.5-.5c.9.6 1.6 1.1 2.3 1.8l1.6 1.3 1.9 1.2 2.3 1.7-.2.8c-1.5-1.2-2-1.7-3.4-.4-.6.6-2.7 3-5.6 7l8.6 6.5c3-4 4.8-6.7 5.2-7.3.7-1.8.2-2.1-1.3-3.2l.6-.4 2.3 1.7 1.6 1.3 1.8 1.2 2.3 1.7-.2.7c-1.4-1-2-1.6-3.4-.3-.6.6-3 3.6-6.5 8.3a123 123 0 0 0-6 8.6c-1 1.7-.2 2 1.2 3.1zm21.4-.6-3.9-2.8c-3.1 4.9-5.2 8.3-5.5 9-.3.7-.4 1.2 1.8 2.6 3.4 2.3 5.9 3.4 8.5 0l.4.6c-.5 1-1.1 1.9-1.8 2.7l-.6.6-.5.6c-.3.3-.7.5-1.2.3-.7-.3-3-1.6-4-2.3-1.7-1.1-4.7-3.4-5.8-4.2-1.8-1.1-2.6-1.4-4.4-2.7l.2-.7c1.6 1 2 1.5 3.4 0a99 99 0 0 0 6-8.5c3-4.9 5.1-8.3 5.4-9 .8-1.7 0-2.1-1.4-3l.5-.5c1 .5 1.6 1 2.4 1.5.6.5 1 .9 1.7 1.3l4.3 2.5 5.9 4-.9 1.1c-.6 1.1-1.2 2.1-2.2 3l-.7-.3c.9-1 1.6-3 .3-4.1-1.6-1.5-3.6-2.7-5.5-3.9-.6.8-3 4.2-5.6 8.4 2 1.3 3.7 2.2 4.1 2.4 2.1 1 2.7 1.3 4-.7l.5.6c-.5 1-1.4 1.8-2 2.8-.5.6-.8 1.2-1 1.6l-.3.6-.4.6-.7-.3c1.2-2 .8-2.3-1-3.8zm100 52.9.1-.6a10 10 0 0 1-6.1.7c-3.1-.7-5.1-1.8-6.4-3.6-1.2-1.7-1.5-3.7-.7-7.3l1-4.2c1.2-5.7 2-9.6 2-10.4.2-1.9-.7-2-2.4-2.4l.5-.5c3.3.5 2 .5 4.8 1.2 3 .7 1.4 0 5 1v.7c-1.7-.4-2.4-.7-3.2 1.1-.3.7-1.4 4.8-2.7 10.2-1.3 5.7-1.6 7.7-.9 9.4a5.8 5.8 0 0 0 4.2 3.3c1.6.4 3.9 0 5.3-.8.4-2.4 1.2-6 2-9.5 1.2-5.4 2-9.6 2-10.3.2-2-.7-2-2.4-2.5l.3-.6c3.5.6 2 .6 5 1.3 2.8.7 1.6 0 4.8 1l.2.7c-1.8-.4-2.6-.7-3.3 1a161.4 161.4 0 0 0-4.6 20.5c-.2 2 .7 2 2.4 2.4l-.4.6c-2.4-.4-4.4-1.3-6.9-1.5l.4-.9zm-4.9-31.2c.6-2.4 5-1.5 4.5 1-.6 2.5-5 1.4-4.5-1zm7.3 1.7c.5-2.4 5-1.5 4.5 1-.6 2.5-5 1.3-4.5-1zm54.5 11-.1.4v.3l-.2.2a1102 1102 0 0 0-12.4 22.6c2.3 0 7.2-.2 8-.4 2.7-.4 3.1-1 3.3-3.8l.7.2c0 2-.1 3-.4 4-.2.8 0 2-1 2.2-.7.2-3.6.1-4.7 0-1.3 0-5-.5-6.2-.5-1.6-.1-4-.2-5.6-.1l-.3-.5A445.5 445.5 0 0 0 323 686c-2.4-.1-7.2.2-8.9.5-1.4.4-1.9 1.7-1.8 3h-.9c0-1.3.1-1.8.4-2.9.3-1.1.5-2.2.6-3.4h.6c0 .4 0 .6.4.6 2.7.2 12 .9 14.9.9zm14.3.6c-2 0-2.4.4-2.6 1.9a134 134 0 0 0 .3 21c.4 1.8 1 1.7 3 1.7l-.3.7c-2.6.2-2.6-.1-5-.1s-2.4.3-5 .2l-.2-.7c1.8 0 2.5.1 2.8-1.8a135.7 135.7 0 0 0-.3-21c-.3-1.8-1.1-1.7-2.9-1.7l.2-.7c3.5-.3 2 .1 5 0 3 0 1.6-.3 5-.1l.3.6h-.3zm22.5 3.3c0-2-1.8-4-5-3.8-11.4.7-8.4 24.9 1.4 24.2 1.1 0 2-.5 2-1.3a37 37 0 0 0-.1-7.2c-.4-2.1-2.3-1.7-4-1.6l.3-.7c5.4-.6 1.3.1 5.4-.1 1.6-.1 2.5-.5 4.8-.5l.4.6c-1.8.1-2.5.1-2.8 2-.1 1.2.2 7.6.3 8.2l-2.6 1.1c-1.1.5-2.5.9-4.2 1-6.5.4-12.2-5.2-12.7-13.1-.4-7.3 5.3-13.6 11.7-14 3.2-.2 3.6 0 5 0 .5 0 .6-.2.8-.7l.7.4c-.6 1-.3 2.4-.2 3.5 0 1.2 0 2.9-.6 4h-1c.3-.6.5-1.2.4-2zm65.7-3-.6.4c-.6-2.2-1.2-2.1-3.5-1.8l-4.7 1.3c.1.3 2.5 8.5 3.4 10.1 1 1.8 1.7 1.4 3.4.9v.7c-2.6 1-2.5.6-5 1.3-2.3.7-2.2 1-4.7 1.7l-.4-.7c1.8-.5 2.4-.6 2.2-2.5 0-1-1-4.5-2.7-10-1.7-5.6-3-9.3-3.4-10-1-1.7-1.5-1.5-3.3-1v-.6c3.3-1.3 2-.5 4.8-1.4 5-1.5 6-2.4 11.6-3.5.3 2 1 3 1 5.2l-.6.2c-.3-1.6-1.2-3.3-3-3-1.8.3-4 1-6.4 1.7l2.7 9.7 4.6-1.6c2.1-1 2.7-1.2 2-3.5h.7c.5 1 .6 2.3.9 3.3.2.8.5 1.4.7 1.8.2.5.3.8.3 1.3zm32.7-28.8c-2 .9-2 1.4-1.7 2.8a133.7 133.7 0 0 0 9 19c1 1.5 1.6 1.1 3.3.4v.7c-2.2 1.2-2.4 1-4.6 2-2.1 1-2 1.3-4.4 2.2l-.5-.5c1.6-.8 2.3-1 1.8-2.8a136.2 136.2 0 0 0-8.9-19c-1-1.6-1.7-1.2-3.3-.5l-.1-.7c3-1.6 1.9-.7 4.6-2 2.7-1.2 1.3-1 4.5-2.2l.5.5-.2.1zm19.1 2.8c3.3.3 7.4.7 9.3 4 1.8 3.4.2 7.6-4.8 10.3-2.1 1.2-4 1.7-5.2 2.4-.6.3-.7.5-.7 1.1l-.9.1a3 3 0 0 0-.4-1.9c-.5-1-1.4-2-2-3a7 7 0 0 1-.8-2.8l.7-.6c.1.7.3 1.5.6 2.1 3 5.5 13.5.5 10.6-4.8-1.3-2.2-3.2-2.6-8.4-3-4.5-.2-7.2-1.1-9-4.3-1.7-3.3.1-7.8 4.3-10 1-.6 2-.9 2.7-1l1-.3.4-.1c.5-.3.5-.5.5-1h.8c.1 1.9 2.2 3.8 2.3 6.2l-.5.7-.8-1.9c-2.7-4.8-10.7-.2-8 4.8 1.3 2.2 3 2.6 8.3 3zm31.1-5.1c.2 1.8-1.2 4.3-4 6-5.5 3.4-13.1 1-17.2-5.7-3.8-6.2-2-14.2 3.4-17.6 2.7-1.6 3.3-1.6 4.4-2.3.5-.3.5-.5.4-1h.8c0 1.2 1 2.3 1.5 3.2.6 1 1.2 2.6 1.3 3.8l-.8.5c0-.7-.2-1.3-.6-2-1-1.7-3.5-2.6-6.3-1-4.8 3-3.1 9.4-.6 13.4 4 6.5 9.6 9.4 13.9 6.8 1.6-1 3-2.3 3.2-4.2h.6v.1zm25.4-16.1.2.7c-.8.7-1.4 1.1-2.3 1.6l-1.9 1.3-1.7 1.4-2.2 1.7-.5-.5c1.4-1 2-1.4 1.3-3.1-.5-.9-2.6-3.9-6-8.6l-8.8 6.2c3.5 4.9 5.9 7.8 6.5 8.4 1.4 1.4 2 .8 3.5-.3l.2.7-2.3 1.7c-.7.3-1.2.7-2 1.2l-1.6 1.4-2.2 1.7-.6-.5c1.5-1 2-1.4 1.2-3a99 99 0 0 0-5.9-8.7c-3.4-4.6-6-7.7-6.5-8.3-1.4-1.2-2-.8-3.4.3l-.2-.7 2.3-1.7 1.8-1.1 1.7-1.4c.7-.7 1.4-1.2 2.3-1.7l.6.3c-1.5 1.1-2.1 1.5-1.3 3.2a87 87 0 0 0 5 7.5l8.7-6.4-5.5-7.1c-1.4-1.3-2-.8-3.4.2l-.2-.6a19 19 0 0 1 2.3-1.7l1.8-1.1 1.6-1.4c.8-.7 1.4-1.2 2.3-1.7l.6.3c-1.4 1.1-2.1 1.5-1.2 3.2.4.8 2.5 4 6 8.6 3.4 4.7 5.8 7.7 6.4 8.3 1.4 1.3 2 .8 3.4-.3z"/><path fill="#272059" fill-rule="evenodd" d="m183.2 671.2-.6.5c-3-1.5-1.8-1.2-4.4-2.7-2-1.1-2.2-.9-4.4-2.2l.2-.7c1.6.8 2.1 1.3 3.3-.2.7-.7 2.6-3.9 5.4-9 2.9-5 4.6-8.5 4.9-9.3.6-1.8 0-2-1.6-3l.5-.4c3 1.4 1.9 1.2 4.4 2.6l5.4 2.8c4 2.3 5.1 5.6 3.4 8.8-1.7 3-4.7 3.8-7.6 3.3l.6 11.5c0 2.1.5 3.7 1.8 4.4l1 .4c0 .3-.1.5-.4.7-.8-.2-1.4-.4-2.1-.8-3-1.7-4.6-5.4-4.7-9.8l-.1-4.2-.1-3.4a16 16 0 0 1-2.2-1 82.2 82.2 0 0 0-4.4 8.7c-.7 1.9 0 2.1 1.7 3zm8.7-22.5-5.4 9.7c4.5 2.7 7.1 2.1 8.8-1 1.3-2.4 1.5-4.8 0-6.4-.6-.7-2.4-1.8-3.4-2.3zm20.7 23.7a14 14 0 0 0-4.8-3 96 96 0 0 0-4.1 9.6c-.4 1.4.6 2 2 2.7 3 1.4 5.6.8 7.2-2.6 1.6-3.3.8-5.3-.3-6.7zm0-2c9.9 5.3 4.4 18.1-7.2 12.7l-5-2.7c-2.2-1-2.3-.7-4.6-2l.1-.7c1.7.8 2.2 1.2 3.4-.4.5-.7 2.2-4 4.7-9.3 2.4-5.2 4-9 4.1-9.7.5-1.8-.1-2-1.8-2.8l.4-.6c3.1 1.3 2 1 4.7 2.3l4.7 2c3.6 1.6 5.6 4.3 3.8 8.2-1.2 2.5-4.6 3.5-7.4 3zm.1-11.2-4.2 8.8c4.5 2 6.3.8 7.6-2 .9-1.8.7-3.7-.3-4.8a9 9 0 0 0-3-2zm27.5 16.4a42 42 0 0 0 2.7-3.7c.7-1 0-1.6-1.2-2-1.1-.3-1.8 0-1.7 1 0 1-.1 2.7.2 4.7zm1 13.7a181 181 0 0 0 10.5-14.7c.9-1.6-1.2-2-2.1-2.4l.4-.5c3 .8 1.8.7 4.4 1.6 2.6 1 1.6.2 4.6 1.4v.7c-2-.7-2.7-.5-4.2 1a356 356 0 0 0-16.6 20.2l-.7-.2.1-2.2c0-3.2 0-8.1-.5-12.7-3.5 3.7-7 7.6-8.7 9.6-.5.5-.8 1-1.2 1.6l-.8-.1.1-2.2c0-6.9-.6-21.4-1-24-.3-2-.8-2.7-2.7-3.3l.5-.6c3 .9 2.2 1 5 1.9 3 1 1.2 0 4.8 1.5v.7c-1-.4-2.7-1-2.8.6-.1 3.1 0 12.5.1 18.4v.6-.4l6.3-7-1-9c-.2-1.7-.7-2.6-2.5-3.2l.4-.5c3 .8 1.6.6 4.1 1.5l4.1 1.2c2.1.7 2.3 1 3.8 1.5l1.7.5a6 6 0 0 1 2 .7v.6c-2-.6-2.6-.4-4 1l-5 5c.2 3.9.6 8 .9 11.2zm53.8 18-.3.7c-3.2-.3-2.2-.5-5-1-2.4-.3-2.4 0-5-.4v-.8c1.7.3 2.4.5 3-1.3.3-1 1-4.6 1.8-10.3a115 115 0 0 0 1.1-10.5c-.1-1.9-.8-2-2.6-2.2l.3-.6c3.3.2 2.2.4 5.1.8l6 .7c4.6.6 6.9 3.4 6.4 7-.5 3.4-3 5.2-5.9 5.8.6 1.2 2.6 5.3 4.7 10.5.9 2 1.9 3.2 3.3 3.4h1.1l-.1.8c-.8.2-1.5.2-2.3 0-3.3-.4-6.2-3.3-8-7.3l-1.5-3.9-1.4-3.2c-.7 0-1.5-.2-2.2-.4-.8 5.6-1.1 9.1-1.1 10 0 2 .8 2 2.6 2.2zm-.6-19.2-.8 6c5 1 7.3-.5 7.8-4 .4-2.7-.3-5-2.2-6-.9-.4-3-.8-4-1l-.8 5zm89.8 13.9c-.6-3.1 1.3-5.7 3.5-7.4-2.8-1.7-4-3-4.5-5.2-.7-3.4 2.1-6.2 6-7 1-.3 2-.3 2.6-.2h1.4c.5 0 .5-.3.6-.7l.7.2c-.4 1.7.8 3.7.3 6l-.7.3v-1l-.1-.7c-1-4.7-8.8-3-7.8 1.6.5 2.4 3 3.8 5 5 2 1.3 4.5 3.1 7.4 5.4.4-2.2 0-4.2-.8-6.3-.6-1.7-1.1-1.6-2.8-1.2l.2-.7c1.3-.4 2.4-.4 3.7-.6l4-1 .4.6c-1.6.3-2.3.3-2.2 2 .2 3.7-.1 6-1 8.4l2 1.5c1.1.8 2.8 2 4.2 1l.3-.2v.8c-2.5 1.6-5.3.7-7.7-.6a8.4 8.4 0 0 1-5.8 4c-5 1-8.2-.7-8.9-4zm9.4 2.5c1.8-.3 3-1.4 4-3.3-1-.4-2.3-1.3-3.7-2.4l-5-3.4a6.2 6.2 0 0 0-1 5.5c.5 2.7 3.4 4.1 5.7 3.6zm56.4-15.1v.7c-3 1.3-2.2.6-4.9 1.6-2.2.8-2.1 1.1-4.6 1.9l-.4-.6c1.7-.6 2.4-.8 2-2.7a152.4 152.4 0 0 0-7.2-19.7c-1-1.6-1.6-1.3-3.3-.7v-.7c3-1.3 2.1-.6 4.8-1.6l5.6-2.3c4.4-1.6 7.7-.2 9 3.2 1.2 3.3-.2 6-2.5 7.9 1.1.8 4.8 3.5 9.2 7 1.6 1.3 3.1 2 4.5 1.5a3 3 0 0 0 1-.6c.2.3.2.5.2.8-.6.5-1.2.8-2 1.1-3.2 1.2-7 0-10.5-2.7l-3.2-2.7-2.7-2.1-2.2.7a94 94 0 0 0 3.8 9.3c1 1.7 1.7 1.3 3.4.7zm-9.6-16.7 2 5.7c5-1.5 6.3-3.9 5-7.3-.9-2.4-2.6-4.2-4.7-4.1-1 0-3 .6-4 1l1.7 4.7z" clip-rule="evenodd"/></svg>