<svg xmlns="http://www.w3.org/2000/svg" viewBox="0 0 306 227"><path fill="#161615" fill-rule="evenodd" d="M161 148h-9a3 3 0 0 1-1 0 3 3 0 0 1 0-1h-2a1 1 0 0 0 0-1h-1a35 35 0 0 0-2 0h-7a8 8 0 0 0-1 0v1h-1v-1a1 1 0 0 1-1 1l-2-1h-8a1 1 0 0 1 0-1 18 18 0 0 1 1-3 3 3 0 0 0 0-1l1-1a5 5 0 0 0 0-2 7 7 0 0 1 1-3 1 1 0 0 0 1 0 6 6 0 0 0 0-1v-1l1-2 2-6v-1a1 1 0 0 1 1 0h1a3 3 0 0 0 0-1v-1a6 6 0 0 1 0-2 1 1 0 0 0 1-1l1-4a2 2 0 0 1 1-2h3a10 10 0 0 1 1-1v2h1v-1h1l-1-1h3a93 93 0 0 1 11 0h10a9 9 0 0 0 1 0 1 1 0 0 0 0 1 1 1 0 0 0 0 1 1 1 0 0 0 1-1 2 2 0 0 0 0-1h3v1h3a5 5 0 0 1 1 0 2 2 0 0 1 1 2l1 3a2 2 0 0 0 0 1 3 3 0 0 1 1 1 3 3 0 0 1 0 2l-1 1a1 1 0 0 1 0 1 7 7 0 0 0 0 1h3v3a35 35 0 0 0 2 5v1a1 1 0 0 1 1 1v2a2 2 0 0 1 0 1l1 4 1 2v1a1 1 0 0 1 0 1h-10v1l-1-1h-10a52 52 0 0 0-1 0 2 2 0 0 0-1 0l-1 1-1 1zm-10-2a2 2 0 0 0 1 1 2 2 0 0 0 1 0 10 10 0 0 1 1 0 9 9 0 0 1 2 0h4a1 1 0 0 0 1-1 1 1 0 0 1 1 0v-7h-10a13 13 0 0 0-1 0 1 1 0 0 0-1 1 4 4 0 0 0 0 1 25 25 0 0 0 0 4h1v1zm-15-1h1a61 61 0 0 1 2 0h2a13 13 0 0 0 1-3 1 1 0 0 1 0-1 4 4 0 0 0 0-1 1 1 0 0 0 0-1 9 9 0 0 0-3 1 3 3 0 0 1-2 0v-1a1 1 0 0 0-1 0 132 132 0 0 0-1 5 1 1 0 0 0 0 1 3 3 0 0 1 1 0zm-2-6-2 1-1 3v2h3v-1a34 34 0 0 0 1-4v-1a3 3 0 0 0-1 0zm-6 6h1a7 7 0 0 1 1-1l1-4v-1a1 1 0 0 0-1 1l-2 4v1zm43-6a1 1 0 0 0-1 0 1 1 0 0 0 0 1h1v1a7 7 0 0 1 0 2l1 2h2a103 103 0 0 1 3 0v-2a5 5 0 0 1 0-1 42 42 0 0 0-1-3 4 4 0 0 0-1 0 9 9 0 0 1-1 0 1 1 0 0 1-1 0 1 1 0 0 1-2 0zm-8 0a9 9 0 0 0 0 3v1a13 13 0 0 0 0 2h1a11 11 0 0 0 1 0h4a31 31 0 0 0 0-3 43 43 0 0 0 0-2 8 8 0 0 0 0-1 2 2 0 0 0-1 0 1 1 0 0 1 0 1 1 1 0 0 1-1-1h-3a8 8 0 0 0-1 0zm-20 1v2a12 12 0 0 0 0 3 47 47 0 0 0 2 0 39 39 0 0 1 4 0v-5a1 1 0 0 0 0-1 5 5 0 0 0-1 0h-1a2 2 0 0 0-1 0 2 2 0 0 0-1 0 3 3 0 0 0-1 0 3 3 0 0 1-1 0v1zm37-1a5 5 0 0 0-2 0v2a13 13 0 0 1 0 1 25 25 0 0 1 1 3 4 4 0 0 0 1 0l1-1a4 4 0 0 0-1 0v-5zm-37-1h3a2 2 0 0 0 1 0 16 16 0 0 1 2 0h1a3 3 0 0 0 2 0 1 1 0 0 0-1-1 4 4 0 0 1-1-1 3 3 0 0 0-1 0 25 25 0 0 0-2 0h-3a82 82 0 0 0-3 0h-10a1 1 0 0 0-1 0 5 5 0 0 0-1 2h8a58 58 0 0 1 3 0h3zm10-2a3 3 0 0 1 0 2h2a8 8 0 0 1 1 0 84 84 0 0 1 5 0h17v-1h-2v-1a8 8 0 0 1-1 0v-1h-13a67 67 0 0 0-4 1h-5zm-14-12a1 1 0 0 0-1 1v1l-3 9a10 10 0 0 0 1 0h1v-2l1-2v-4a17 17 0 0 1 1-2 1 1 0 0 0 0-1zm-7 11a6 6 0 0 0 1 0 1 1 0 0 0 1-1v-1l1-3 2-4v-1a4 4 0 0 1-1 0 5 5 0 0 0-1 1l-1 2v1a14 14 0 0 1-1 2 13 13 0 0 0-1 2 10 10 0 0 0 0 1v1zm9-11a1 1 0 0 0-1 1v1l-1 2a53 53 0 0 0 0 2v1l-1 2v2h5v-1a10 10 0 0 1 0-1l1-5 1-1v-2a4 4 0 0 0 0-1 6 6 0 0 1-2 0 3 3 0 0 1-1 0 5 5 0 0 1-1 0zm14 0a31 31 0 0 0-1 0h-2a4 4 0 0 1 0 1v3a59 59 0 0 1 0 2 60 60 0 0 1-1 1v2a4 4 0 0 0 0 1v1a2 2 0 0 0 1 0h4v-1h2a216 216 0 0 1 3 1v-1a15 15 0 0 1 0-1v-1a208 208 0 0 1-1-7v-1a3 3 0 0 0-1 0h-1a23 23 0 0 1-1 0 17 17 0 0 0-1 0zm-9 1a8 8 0 0 0 0 1 19 19 0 0 1 0 1l-2 5v3a3 3 0 0 1 1 0 30 30 0 0 0 2 0h1a5 5 0 0 1 1 0l1-1v-2l1-6v-1a4 4 0 0 0 0-1h-3l-2 1zm23-2a1 1 0 0 0-1 1l1 1v1a3 3 0 0 1 0 1 2 2 0 0 0 0 1 14 14 0 0 1 0 2v1a14 14 0 0 0 1 2 1 1 0 0 1 0 1l1 1h1a22 22 0 0 0 3-1v-1a60 60 0 0 0-1-3 23 23 0 0 0-2-6h-2v-1a2 2 0 0 0-1 0zm5 1v1a13 13 0 0 0 1 1v4l1 1v3h1a3 3 0 0 0 1 0v-1l-1-5a45 45 0 0 0 0-2l-1-1-1-2zm-13 0v3l1 3v1a7 7 0 0 1 0 1 9 9 0 0 0 0 2l1 1a20 20 0 0 1 2-1h1l1 1h1a1 1 0 0 0 0-1l-1-5a101 101 0 0 1 0-2v-1a8 8 0 0 1 0-1 1 1 0 0 0 0-1h-1a2 2 0 0 0-1 0v1-1a2 2 0 0 0-1 0 5 5 0 0 0-1 0h-2zm-25-1h9a8 8 0 0 1 1 0 3 3 0 0 0 1 0 7 7 0 0 1 1 0h9a2 2 0 0 1 0-2 7 7 0 0 1 0-1h-15a48 48 0 0 1-3 0 13 13 0 0 0-1 0h-2v1a6 6 0 0 0-1 1v1zm31-3h-8a2 2 0 0 0-1 1 1 1 0 0 0 0 1 1 1 0 0 0 1 1h15a2 2 0 0 0 0-1 1 1 0 0 0-1-1l-1 1v-1a1 1 0 0 1-1-1zm-18-5h-1a92 92 0 0 1 0 2l-1 1v2h4l1-1v-4a41 41 0 0 0-1 0h-2zm-11 5v-1l1-1 1-3h-1a14 14 0 0 1-1 2 15 15 0 0 0-1 2h1zm3-5a100 100 0 0 0-1 3l-1 1v1h1l1-1v-1l1-3a2 2 0 0 1-1 0zm2-1v1a52 52 0 0 1-1 3v2h4v-1l1-2v-3a4 4 0 0 0-1 0 5 5 0 0 1-2 1 3 3 0 0 1 0-1 1 1 0 0 0-1 0zm12 5a16 16 0 0 1 3 0 2 2 0 0 0 0 1 2 2 0 0 0 1-1v-4a3 3 0 0 0-1 0 6 6 0 0 0-1 0 8 8 0 0 1-1 0h-3v4h1a13 13 0 0 1 1 0zm5-4v4h6a28 28 0 0 0 0-2v-1l-1-1h-5zm7 0v4h4v-2h-1a15 15 0 0 1 0-2h-1a4 4 0 0 1-1 0 6 6 0 0 0-1 0zm5 0a1 1 0 0 0-1 0 4 4 0 0 0 1 1 5 5 0 0 1 0 1 4 4 0 0 0 1 2h2l-1-2a10 10 0 0 0 0-1 1 1 0 0 0-1-1h-1z"/><path fill="#161615" fill-rule="evenodd" d="M200 188a2 2 0 0 1 0 1 1 1 0 0 0-1 0 3 3 0 0 0 0 3l2-1 1-1h1a7 7 0 0 0 1-1 1 1 0 0 0 0-1 2 2 0 0 0-1-1l2 1a4 4 0 0 0 0-3v-1a2 2 0 0 0-2-1h-1a5 5 0 0 0-1 1 2 2 0 0 0-2 1h1a11 11 0 0 0 1 1 2 2 0 0 0 2-2 2 2 0 0 1 0 1 1 1 0 0 1-1 1 24 24 0 0 1-3 1 2 2 0 0 0-1 1h1a3 3 0 0 1 1 0zm-99 4 1-1v-1h1v-1a2 2 0 0 1-1-1 7 7 0 0 1 1 0h1l-1-2a7 7 0 0 1-2 0 4 4 0 0 0-3 1 2 2 0 0 0 0 1 6 6 0 0 0 0 1h1l1-1-1 2a2 2 0 0 0 1 1h1zm52-6c-1 2-1 2 1 2a5 5 0 0 0 1-1l-1-1h2v-1l1-1h-1v-1a3 3 0 0 1 1 0v1a2 2 0 0 0 0-1 5 5 0 0 1 0-1l-1-1a2 2 0 0 1-1 0 3 3 0 0 0-2-1 3 3 0 0 0-1 0 3 3 0 0 0-2 3v1a7 7 0 0 0 1 2v1a1 1 0 0 0 1 0v-1zm-42-9v1l1 4a2 2 0 0 1 0 1 2 2 0 0 0 1 2 2 2 0 0 1 1 1 3 3 0 0 0 2 2h1l1-3h1l3-1a8 8 0 0 0 1 0 9 9 0 0 0 1-1 1 1 0 0 0 1 0 5 5 0 0 1 2-2v-3a2 2 0 0 0 2-3v-2a1 1 0 0 1 0-1 2 2 0 0 1 1 2v1a2 2 0 0 0 1 2 3 3 0 0 1 1 1l2 2v1l1-1 3-3a1 1 0 0 0 0-1 3 3 0 0 1 0-2 9 9 0 0 0 0-2 5 5 0 0 1 1-1 1 1 0 0 0 0-1l1-1a4 4 0 0 0 1-1 3 3 0 0 0 1-2l1-1v-1l-1-1a3 3 0 0 0-2-1h-1l-1-2a37 37 0 0 0-1-1 13 13 0 0 0-2 0 4 4 0 0 0-2 1 1 1 0 0 1-1 0v1a6 6 0 0 0-3 1 5 5 0 0 1-1 1 8 8 0 0 0-1 0 2 2 0 0 1 1-2 5 5 0 0 0 1-4 4 4 0 0 0-2-3 15 15 0 0 0-4-1h-1a7 7 0 0 0-3 1 5 5 0 0 1 1 3 3 3 0 0 1-1 0 11 11 0 0 0-4-1 10 10 0 0 0-4 0 5 5 0 0 0-2 2 4 4 0 0 0 0 1v1a2 2 0 0 0-1 1 3 3 0 0 1 0 1 5 5 0 0 0 0 1l-1 2v1l1 2a7 7 0 0 1 3 0 11 11 0 0 1 1 0 3 3 0 0 0 1 0 3 3 0 0 0 1 0 12 12 0 0 0 2-1l1-1h1a2 2 0 0 1-2 2 13 13 0 0 0-5 4v3l-1 2h1zm74 7 2 1 2 2h1l2-2v-1 1a1 1 0 0 0 1 0v-1l1-1a3 3 0 0 0 0-1l1-1v-1a11 11 0 0 0 0-4 1 1 0 0 1 0-1 1 1 0 0 1 1 0 4 4 0 0 0-2-4 46 46 0 0 1-2-2l-1-1h1a6 6 0 0 1 1 1 5 5 0 0 0 2 0 6 6 0 0 1 1 0 7 7 0 0 1 3 0v-3a6 6 0 0 0 0-1 4 4 0 0 1-1-1 8 8 0 0 0-1-4 4 4 0 0 0-1 0l-1-1h-1a164 164 0 0 0-4-2v-1h1l-1-1a11 11 0 0 0-1 0 8 8 0 0 0-1-1 7 7 0 0 1-1 0 4 4 0 0 0-2 0 3 3 0 0 0-1 0l-1 1a12 12 0 0 1-2 1 3 3 0 0 0-1 1l-1 1v1c-1 1-1 1 1 3a2 2 0 0 1 0 1 1 1 0 0 1-1 0l-2-1a5 5 0 0 1 0-2l-3-3a9 9 0 0 0-2 0 8 8 0 0 0-3 1 10 10 0 0 0-5 4v1l1 1a1 1 0 0 1 0 1l-1 1v1h1l1 1-1 1a3 3 0 0 0 1 0 5 5 0 0 1 1 1v2l1 1 1 3v1a1 1 0 0 0 0 1 9 9 0 0 0 0 1h3a2 2 0 0 0 1-2 3 3 0 0 1 1-1l2-2 1-1 2 4v1a3 3 0 0 0 0 2 3 3 0 0 1 1 1l3 3a1 1 0 0 0 1 0 1 1 0 0 0 1 0v-1l1 1zm-85-1a1 1 0 0 0-1 0 26 26 0 0 0-2 2 2 2 0 0 0 0 1v1l1-1a6 6 0 0 0 2-2 5 5 0 0 0 0 1 38 38 0 0 0 2 0h1l-1-1-2-1h-1zm135-2 2 2a3 3 0 0 0-2-4zm-164 2c1 0 2-1 1-2h-1zm160-6-1 1a1 1 0 0 0 0 1 98 98 0 0 0 3 2v-3a8 8 0 0 0-1-1 1 1 0 0 0-1 0zm-156-1c-2 1-2 3-1 5 1-1 2-3 1-6zm78 2a2 2 0 0 1 1 0 4 4 0 0 0 3 2 5 5 0 0 0-2-3 2 2 0 0 0-1 0 6 6 0 0 0-4 2 1 1 0 0 0 0 1 4 4 0 0 0 3-2zm56 1a4 4 0 0 1 2 0 4 4 0 0 0 2 1 4 4 0 0 0 2-1l-3-1 1-1a4 4 0 0 0 2 1 4 4 0 0 0 2-1 2 2 0 0 1-1-1h1v-1a2 2 0 0 0-1-1 2 2 0 0 0-1 1h-1a2 2 0 0 1 0-1h1a2 2 0 0 0-1 0h-1c-1 0-2 0-1 1h-1v-1a4 4 0 0 0 0-1c-2 1-2 2-2 3a2 2 0 0 1-2 3h-2v1h1a6 6 0 0 0 2-1 4 4 0 0 1 1 0zm-135-3c-1 0-4 2-4 4l1-1h1a1 1 0 0 0 1-1 11 11 0 0 1 0-1l1-1zm69 1v2a3 3 0 0 0 3-1 1 1 0 0 0-1 0v-1a12 12 0 0 0 0-1v-1a2 2 0 0 1 1 1l1 1 2-2a2 2 0 0 1-1-1 2 2 0 0 1-1-1v-1a5 5 0 0 1-2 0 1 1 0 0 1 0-1 2 2 0 0 1 0-1 2 2 0 0 1-1-1 2 2 0 0 0-1 0 3 3 0 0 0-2 2 6 6 0 0 0 1 0l1 1 1 2h1a7 7 0 0 1-2 0 1 1 0 0 1-1-1 2 2 0 0 0 0-1 2 2 0 0 0-2-1 1 1 0 0 0-1 1 1 1 0 0 0 0 1v1l-1 1 1 1h1a6 6 0 0 0 0 1 17 17 0 0 0 1 1 1 1 0 0 0 1 0 10 10 0 0 1 1-1zm91-1a2 2 0 0 0-1 0 6 6 0 0 0 3 3c0-2-1-3-2-3zm-141 3a2 2 0 0 0 1-1 12 12 0 0 0 1-1h1a2 2 0 0 0 1-2 2 2 0 0 0-2-2 1 1 0 0 0 0 1 4 4 0 0 1 0 1 1 1 0 0 1-1 0 2 2 0 0 1 0-1l-1-1a4 4 0 0 0-2 0l-1 1h-1a1 1 0 0 1 0 1 1 1 0 0 0-1 0 1 1 0 0 0 0 1h1a1 1 0 0 0 0 1 1 1 0 0 0 1-1 7 7 0 0 1 1 0 2 2 0 0 1-1 1v1a2 2 0 0 0 1 0 2 2 0 0 0 2-1l1-1zm72-2a2 2 0 0 1 0 1h1a2 2 0 0 0 1-1h-2v-1h3a3 3 0 0 0-2-2v-2a6 6 0 0 0-2-2 3 3 0 0 0-1 0l-1 1v2a1 1 0 0 1-1 0 9 9 0 0 0-1 0h-1a2 2 0 0 0-1 0 11 11 0 0 0-1 1v2a4 4 0 0 0 3 2 3 3 0 0 0 0-1 1 1 0 0 1 1-1 1 1 0 0 0 0 1l1 1a3 3 0 0 0 1 0 1 1 0 0 0 1 0 1 1 0 0 1 1-1zm63-4-1 2 2 2v1a5 5 0 0 0 1-3 3 3 0 0 0-2-2zm-150-3a5 5 0 0 0-2 4 4 4 0 0 0 1 3c2-2 3-5 1-7zm-3 2-3 3a4 4 0 0 0 1 0 7 7 0 0 0 1 0 2 2 0 0 0 1-1 8 8 0 0 0 0-2zm150-3a4 4 0 0 1-1 3 1 1 0 0 0 0 2l2 1 1-4a3 3 0 0 0-2-2zm5 3 3 3a7 7 0 0 0 1-1 5 5 0 0 0-2-3zm-81 0a6 6 0 0 1-1 0 5 5 0 0 0 0 1v1a1 1 0 0 0 1 0h2v-1l-1-1h-1zm14-4a5 5 0 0 0-1 0 14 14 0 0 0-2 0 14 14 0 0 1-1 1 3 3 0 0 0-2 1 10 10 0 0 0-1 2 9 9 0 0 0 0 1l-1 1a1 1 0 0 0 1 0l2-1v-1a1 1 0 0 1 1 0h2a3 3 0 0 0 0-1 8 8 0 0 0 0-1 1 1 0 0 1 1-1 2 2 0 0 0 2-1 5 5 0 0 0-1 0zm-82-2a3 3 0 0 0-1 3 19 19 0 0 0 0 3l1 1a3 3 0 0 0 0-1 7 7 0 0 0 1-1 4 4 0 0 0 0-2 17 17 0 0 0-1-2v-1zm141 0v2a3 3 0 0 0 0 3l1 1a6 6 0 0 0 0-4 3 3 0 0 0-1-2zm6 2a2 2 0 0 0-2 1l1 1 1 1a1 1 0 0 0 0 1 3 3 0 0 0 3-1v-1a46 46 0 0 0-2-1 2 2 0 0 0-1-1zm-79 3 1 1h1a7 7 0 0 0 1 0v-1a3 3 0 0 0-1-1 9 9 0 0 0-1 0l-1-1-2-1h-3a4 4 0 0 0 1 1l1 1v1a2 2 0 0 0 1 0 3 3 0 0 0 2 0 1 1 0 0 1 0-1zm-71-4a5 5 0 0 0-4 4 5 5 0 0 0 1 0 5 5 0 0 0 2-1 6 6 0 0 0 2-3 2 2 0 0 0-1 0zm170 0 4 4c-1-3-2-4-4-4zm5 0a1 1 0 0 0-1 0 4 4 0 0 1 0 1h-1l3 1h1-1a11 11 0 0 0 0-1 1 1 0 0 0-1-1zm-10-3h-1c1 3 3 5 4 5h1a4 4 0 0 1-1-1 4 4 0 0 0-2-4 1 1 0 0 0-1 0zm-159-1a3 3 0 0 0-2 2 5 5 0 0 0 2 4v-1c1-1 2-2 1-4l-1-1zm136 1a1 1 0 0 0-1 0 2 2 0 0 0 0 1v3l2-2v-1l-1-1zm-159 0-4 4c2-1 4-2 4-4zm-5 2a1 1 0 0 0-1 0h-1a3 3 0 0 0-1 2l4-2a4 4 0 0 1-1 0 5 5 0 0 0-1 0zm183-3v3l3 2v-1a5 5 0 0 1 0-1 3 3 0 0 0-2-3 4 4 0 0 0-1 0zm-14 2a3 3 0 0 0-1 0h-1v1l2 1a11 11 0 0 0 3 0h1v-1a9 9 0 0 0-1 0 11 11 0 0 0-2-1 3 3 0 0 0-1 0zm-63-4-2 1a7 7 0 0 0-3 1l-1 1a1 1 0 0 1 0 1 1 1 0 0 0 1 1 4 4 0 0 0 2 1 5 5 0 0 0 1 0 1 1 0 0 0 1 0l2-2v-1l-1-1v-1a7 7 0 0 0 1-1zm89 4a3 3 0 0 0-2 0 2 2 0 0 0 2 2 3 3 0 0 0 2-1 4 4 0 0 0-2-1zm-187-3a2 2 0 0 0-1 1l-2 2a3 3 0 0 0 0 1v1a3 3 0 0 0 1-1l4-3a2 2 0 0 0-2-1zm83 3a1 1 0 0 0-1 0 6 6 0 0 1-1 0 5 5 0 0 0-1 1h-1a3 3 0 0 0 1 0c3 0 7 0 8-3a62 62 0 0 0-11-5h-1a60 60 0 0 0-10-3l1 1v2l1 1a2 2 0 0 0 1 0 9 9 0 0 1 3-1 10 10 0 0 1 4 1l1 2c2 0 3 1 3 2l1 1h1l1 1zm-65-3c-2 0-5 2-5 4a30 30 0 0 0 2 0 4 4 0 0 0 2-1 3 3 0 0 0 1-1 4 4 0 0 1 1-1 2 2 0 0 0-1-1zm153-1 2 4a1 1 0 0 0 1 0 1 1 0 0 0 0-1 4 4 0 0 1 0-1 3 3 0 0 0-3-2zm-177 2a5 5 0 0 0-3 2h2a2 2 0 0 0 2-1 2 2 0 0 0-1-1zm188-1a5 5 0 0 0-2 1 1 1 0 0 0 0 1h1l1 1a1 1 0 0 0 1 0l2-2a2 2 0 0 0-1 0 11 11 0 0 1-1-1 2 2 0 0 0-1 0zm-176-2a3 3 0 0 0-1 0 3 3 0 0 0-1 1 5 5 0 0 0-2 2 10 10 0 0 1 0 1 1 1 0 0 0 0 1 8 8 0 0 0 2-1 5 5 0 0 0 2-3 2 2 0 0 0 0-1zm152 2a2 2 0 0 0-1 0v2a1 1 0 0 0 1 0 2 2 0 0 0 1 1 2 2 0 0 0 2-2h-2a4 4 0 0 0-2-1zm-136-3v1a3 3 0 0 0-1 2 4 4 0 0 0 2 3v-5l-1-1zm145-1a4 4 0 0 1-1 0 2 2 0 0 0 0 1 7 7 0 0 0 1 2 22 22 0 0 0 2 2v1l1-1v-1a4 4 0 0 0-1-3 5 5 0 0 0-1-1 7 7 0 0 0-1 0zm-170 3a8 8 0 0 0-3 1 6 6 0 0 0 1 1h1a10 10 0 0 0 1 0l2-2a4 4 0 0 0-2 0zm53-10a14 14 0 0 1 1 0 163 163 0 0 1 14 2 62 62 0 0 1 10 3l3 1 2 1a65 65 0 0 1 10 5 8 8 0 0 0 2-1 9 9 0 0 1 2-1l1-1h1l1-1 4-2a37 37 0 0 1 8-3l5-1h3a22 22 0 0 1 2-1h11l6-1h10a49 49 0 0 1 5 1 5 5 0 0 0 1 0 4 4 0 0 0 2-1l2-2 4-3 3-3 1-2-2-2-3-6a100 100 0 0 1-4-8 1 1 0 0 1 0-1v-1l-1-4a64 64 0 0 1-1-7 41 41 0 0 1 0-5v-4a22 22 0 0 1 2-6 10 10 0 0 1 2-4 11 11 0 0 0 1-1l1-1h-1l-1-1-2-1a69 69 0 0 0-2-2 26 26 0 0 1-5-4 21 21 0 0 1-2-3h-1a42 42 0 0 1-4-8l-1 1h-1l-9 3a69 69 0 0 1-3 0l-2 1-4 1h-3l-2 1h-3l-5 1a20 20 0 0 1-2 0h-2l-5 1h-9a70 70 0 0 1-3-1h-2a108 108 0 0 0-2 0h-8a242 242 0 0 0-8-1l-6-2h-4l-1-1h-1l-4-1-7-3a2 2 0 0 0-1 0 1 1 0 0 0-1 0l-1 1a93 93 0 0 1-10 10 44 44 0 0 1-9 6 1 1 0 0 0-1 0 1 1 0 0 0 1 0 11 11 0 0 1 5 3 13 13 0 0 1 3 4 23 23 0 0 1 2 9 35 35 0 0 1 0 5l-1 6v1a31 31 0 0 1-1 4 29 29 0 0 1-4 7v1l-4 5-4 5-2 2a1 1 0 0 0 1 0l1 1 4 4 5 3h1l1 1a3 3 0 0 0 1 0 2 2 0 0 0 1 0 6 6 0 0 1 1 0h15a2 2 0 0 1 1 0 2 2 0 0 0 0 1h1zm-41 7a2 2 0 0 0-2 2 3 3 0 0 1 0 1 6 6 0 0 0 0 1c2-1 3-3 2-4zm168 2a3 3 0 0 0-2 0 1 1 0 0 0 0 1 2 2 0 0 0 2 1 12 12 0 0 0 2 0v-1h1a3 3 0 0 0-1-1 6 6 0 0 0-1 0 6 6 0 0 0-1 0zm-156-1a7 7 0 0 0-4 1 1 1 0 0 0 0 1 7 7 0 0 0 2 1 1 1 0 0 0 1-1 13 13 0 0 0 1-1v-1zm140-4v1a2 2 0 0 0 0 1 5 5 0 0 0 0 1 6 6 0 0 1 1 0 6 6 0 0 0 3 3 5 5 0 0 0-1-4 3 3 0 0 0-2-2 2 2 0 0 0-1 0zm-160 3a9 9 0 0 0-4 1 1 1 0 0 0 0 1 2 2 0 0 0 1 0 9 9 0 0 0 2 1 4 4 0 0 0 3-1l1-1-1-1a7 7 0 0 0-2 0zm11-2a3 3 0 0 0-1 1 8 8 0 0 0-1 2v1h1a4 4 0 0 0 1-3v-1zm162 1a2 2 0 0 0-3 1 1 1 0 0 0 0 2 1 1 0 0 0 1 0c2 0 3 0 4-2h-1a3 3 0 0 0-1-1zm-158-4a2 2 0 0 0-2 1 5 5 0 0 0 0 4 6 6 0 0 0 2-4 1 1 0 0 0 0-1zm154 2a4 4 0 0 0-2 1 1 1 0 0 0 0 1l1 1 4-2h-1a6 6 0 0 0-2-1zm-165 1a8 8 0 0 0-4 1 6 6 0 0 0 4 1 5 5 0 0 0 4-1 4 4 0 0 0-4-1zm111-2a33 33 0 0 0-7 2h1l3 1a1 1 0 0 0 0-1l3-2zm-106 0a25 25 0 0 0-3 0h-1a7 7 0 0 0 3 2 1 1 0 0 0 1 0l1-1h1a2 2 0 0 0-2-1zm154 0a9 9 0 0 0-2 0 1 1 0 0 0 0 1l2 1a4 4 0 0 0 3-2 6 6 0 0 0-1 0h-2zm-150-2a5 5 0 0 0-3 1l2 1h1l1-1a4 4 0 0 0-1-1zm-10-49v1a23 23 0 0 1 1 3 40 40 0 0 0 1 10 49 49 0 0 0 2 6h1a74 74 0 0 0 5 11h1l1 2 1 1-1-2-1-1a82 82 0 0 1-1-3l-1-1-2-4a51 51 0 0 1-2-6l-3-9v-4l-1-2a5 5 0 0 0-1-3v1zm176 1a5 5 0 0 0-2 2 63 63 0 0 0 0 3l-1 4-4 8a51 51 0 0 1-2 5l-3 4-1 1a74 74 0 0 1-2 3l-1 2-1 1h1a9 9 0 0 0 1-1 23 23 0 0 0 1-2 74 74 0 0 0 7-10 49 49 0 0 0 3-6 41 41 0 0 0 3-9 22 22 0 0 1 0-3l1-2zm-17 25-1 2v4h1a54 54 0 0 0 5-9 99 99 0 0 1 2-3l2-4a28 28 0 0 0 2-3v-2a87 87 0 0 1 1-2v-1l1-1 1-2a112 112 0 0 1 2-6 12 12 0 0 1 1-2h1a4 4 0 0 1 2-2 1 1 0 0 1 1 0l-2 3h-1a3 3 0 0 0 0 1 35 35 0 0 1-1 9v1a51 51 0 0 1-3 7 44 44 0 0 1-3 7 513 513 0 0 1-4 5l-2 3a4 4 0 0 0-1 1 3 3 0 0 0 1 0 17 17 0 0 0 1-2h1l3-4 3-3 1-2a20 20 0 0 1 7-5 13 13 0 0 1 1-1 1 1 0 0 1 1 0c-2 1-2 3-3 5v1a12 12 0 0 1-3 4l-1 1-4 4a49 49 0 0 1-5 4l-3 2h-2v1l1 1v2l-4 4-4 4-2 1 1 1 3 1a1 1 0 0 0 1 0 8 8 0 0 1 3-1 5 5 0 0 1 1 0h2l2 1h-1 2a5 5 0 0 1 3 1 8 8 0 0 1 1 1 2 2 0 0 0 1 0 5 5 0 0 1 3 2h-1v1h2l3 1v1l1 1 3 1v1a6 6 0 0 1 4 2l2 4h-3v1h-1a3 3 0 0 0-1 0 6 6 0 0 1-4-2v1a11 11 0 0 1-5-3v2l-2-2h-2l-2-1-2-2a1 1 0 0 0 0 1 1 1 0 0 1-1 0l-3-3a3 3 0 0 1 0-1l-1 1h-1a62 62 0 0 0-2-1 5 5 0 0 1-2-4l-4-3a42 42 0 0 0-8-1h-3a15 15 0 0 0-2 0 6 6 0 0 0 1 1 23 23 0 0 1 5 3s3 2 3 2l4 2h1a7 7 0 0 1 3 1l2 1v1h1l1 2a11 11 0 0 1 1 1l1 1 3 2a5 5 0 0 0-1 1 8 8 0 0 1 3 4 1 1 0 0 1 0 1l3 4-1 1a24 24 0 0 1 0 4l-1-1-2-1h-1l-1-2-2-1-1 1a4 4 0 0 0-2-3 7 7 0 0 1-1-1l-1-1-2-2a1 1 0 0 1-1 0v-1a69 69 0 0 1-2-2v-1a3 3 0 0 1-1 0v-1a10 10 0 0 1-1-6 2 2 0 0 0-1-1 34 34 0 0 0-11-8 31 31 0 0 0-5-1 11 11 0 0 0-2 0h-9a4 4 0 0 0-1 0 7 7 0 0 0 2 1 6 6 0 0 1 3 3h-2a3 3 0 0 0 1 0 4 4 0 0 0 2 1 8 8 0 0 1 2 0 15 15 0 0 0 1 0 39 39 0 0 0 5-1 31 31 0 0 1 3-1 4 4 0 0 1 4 2 31 31 0 0 0-10 2 9 9 0 0 0 4 1 5 5 0 0 0 2-1 3 3 0 0 0 1 0v-1h2a1 1 0 0 1 0 1 7 7 0 0 1-5 2 6 6 0 0 1-1 0l-3-1h-1v1a12 12 0 0 1 0 1l1 2a4 4 0 0 1 0 2 6 6 0 0 0 0 2 8 8 0 0 1 0 2v1a8 8 0 0 0-4-2 6 6 0 0 0-1 0v1l1 1a18 18 0 0 0 1 2 25 25 0 0 0 2 1l1 1 3 2a4 4 0 0 0 2 1 4 4 0 0 0 1 0 14 14 0 0 0 2-1 1 1 0 0 0 0-1 4 4 0 0 1 3-4 1 1 0 0 0 1 0 2 2 0 0 0 1 0 19 19 0 0 0 2 0l2 1 1 1a1 1 0 0 1-1 0l1 1h-1l1 1-1 1a2 2 0 0 0-1 1 4 4 0 0 1-1 2 1 1 0 0 1-1 0 3 3 0 0 1-1 0l-2-1-1-1a1 1 0 0 0-1 0l-2 1h-1l1 1 2 2 2 1 4 2a24 24 0 0 0 8 3 32 32 0 0 0 4 1 9 9 0 0 0 2-1h1a4 4 0 0 0 3-1 5 5 0 0 1 1-1l1 1a2 2 0 0 1-1 2 13 13 0 0 1-6 1 31 31 0 0 1-11-3 42 42 0 0 1-11-6 12 12 0 0 0-2-1h-1v1l1 1a3 3 0 0 1 2 3v2l-1 1a4 4 0 0 1-1 2 8 8 0 0 0-1 0 2 2 0 0 1-1 0l-3 2a5 5 0 0 1-1-4 3 3 0 0 1-1 0v-1l1-1a3 3 0 0 1 0-1 1 1 0 0 0 0-1h1a82 82 0 0 1 2-2h1a1 1 0 0 0 0-1 3 3 0 0 0 0-3 103 103 0 0 1-3-2l-2-1h-1v2a2 2 0 0 1 0 1v2a2 2 0 0 1 0 1h-1a5 5 0 0 0-1 3 4 4 0 0 1-1 1 9 9 0 0 0 0 1 1 1 0 0 1-1-1 8 8 0 0 0-1 4 2 2 0 0 1-1 1 7 7 0 0 0-5-4 1 1 0 0 0-1 0 1 1 0 0 1 0-1 4 4 0 0 0-3-1 2 2 0 0 1-1-1 2 2 0 0 1-1-1l-1-1a13 13 0 0 1-1-3 5 5 0 0 0 0-2v-1c-3 1-3 2-4 4a7 7 0 0 1 0 1h-1v-1 1l-1 2-1-1-2-2h-1a3 3 0 0 0-1-1 1 1 0 0 0-1 0h-1a7 7 0 0 1-3 0h-1a6 6 0 0 1-2-1 6 6 0 0 1-1-1v-1a1 1 0 0 0-1-1l-1-1a15 15 0 0 1 0-2 16 16 0 0 1 1-2v-1a1 1 0 0 0 0-1 3 3 0 0 1-1-2 3 3 0 0 0 0-1 1 1 0 0 0-1 0l-3 3a2 2 0 0 0 1 1 7 7 0 0 1 2 3h-1l3 6a6 6 0 0 1 2 4 10 10 0 0 1 0 2v1h-1v2a1 1 0 0 1-1 0 3 3 0 0 0-1 1 2 2 0 0 1 0 1 1 1 0 0 1-1 0 13 13 0 0 1-1 0 18 18 0 0 0-1-1 2 2 0 0 0-1 0l-1-1a5 5 0 0 1 0-2 1 1 0 0 0-1-1v-1a10 10 0 0 1 0-1v-1h-1a4 4 0 0 1 1-1v-1a7 7 0 0 1 3-3 2 2 0 0 0 0-2l-1 1a4 4 0 0 1-1 0 4 4 0 0 1 0 1l-1 1a5 5 0 0 1-1 1 12 12 0 0 1-3 2 2 2 0 0 1-1 0 5 5 0 0 1-1 0h-1a7 7 0 0 0-1 0 2 2 0 0 1-1 0 1 1 0 0 0 0-1h-1a4 4 0 0 1-1 1 4 4 0 0 0-1 0 23 23 0 0 0-1 2l-1 2h-1a6 6 0 0 1 0-1 2 2 0 0 0-1-2 3 3 0 0 0-2-2 6 6 0 0 0-1-1 1 1 0 0 0-1 1l-1 3a2 2 0 0 0-2 1 5 5 0 0 1 0 1 4 4 0 0 1-1 0 36 36 0 0 1-3 2 1 1 0 0 1-1 0h-1l-1 1-1 1v2h-1l-3-2a22 22 0 0 0-3-3 1 1 0 0 1 0-1 5 5 0 0 0-1-3 2 2 0 0 1 0-1 2 2 0 0 0-1-2 1 1 0 0 1 0-1 29 29 0 0 1 0-1 7 7 0 0 0-1 0l-3 2-3 1a4 4 0 0 0-2 2 1 1 0 0 0 0 1 1 1 0 0 0 1 1 4 4 0 0 1 3 2 1 1 0 0 1 0 1 3 3 0 0 1 0 2 5 5 0 0 0 0 1 3 3 0 0 0-1 2 4 4 0 0 1 0 1h-1l-1 1a1 1 0 0 1 0-1 1 1 0 0 0-1 0 14 14 0 0 1-1-1l-1-1v1l-1-2-1-1a1 1 0 0 1 0-1 1 1 0 0 1 0-1 5 5 0 0 1 2-3 1 1 0 0 0 1-2 5 5 0 0 0-1 1 15 15 0 0 1-2 1l-3 1a162 162 0 0 0-5 2 44 44 0 0 1-7 2 7 7 0 0 1-2 1 5 5 0 0 1-3-2 4 4 0 0 0-1 0v-1a6 6 0 0 1 1 0 4 4 0 0 1 1 0l1 1h2a2 2 0 0 1 1 0 23 23 0 0 0 6-2 37 37 0 0 0 4-1 213 213 0 0 0 9-6l1-1h1a3 3 0 0 0-2-1 5 5 0 0 0-3 2 5 5 0 0 1-4 2 4 4 0 0 1-1-1v1-1h-2a2 2 0 0 1-1-1 1 1 0 0 0-1-1h-1v-2h1v-2h2a1 1 0 0 1 0-1h2a1 1 0 0 1 1 0 2 2 0 0 0 0 1l1-1a5 5 0 0 1 3 3 2 2 0 0 0 3 1h3a8 8 0 0 0 1-1h2l2-1 2-1 1-2v-1h1v-1a3 3 0 0 0-1 0 7 7 0 0 0-2 0l-1 1-1-1a2 2 0 0 0 0-1 2 2 0 0 1-1-2v-1a10 10 0 0 0 0-1 2 2 0 0 1 0-1 6 6 0 0 1 1-1 4 4 0 0 0 0-1 1 1 0 0 0 0-1 1 1 0 0 0-1 0 7 7 0 0 0-1 0h-1l-1 1h-3a11 11 0 0 1-1 0 13 13 0 0 1-4 0 21 21 0 0 1-2-2h-2l2-1a4 4 0 0 0 1 0 9 9 0 0 0 1 1 6 6 0 0 0 3 1h1a19 19 0 0 0 4 0 27 27 0 0 0 4-1l1-1v-1a32 32 0 0 1-10-2v-1h1l9 1a7 7 0 0 1 1 0 6 6 0 0 0 1 0 2 2 0 0 0 1 0 12 12 0 0 1 4-1h3l-1-1 1-1h1-1a61 61 0 0 1-2 0 31 31 0 0 0-5 0h-6a35 35 0 0 0-11 3h-1a32 32 0 0 0-4 2 2 2 0 0 0-1 3 8 8 0 0 1-1 6l-1-1a12 12 0 0 1-3 6v-1 1l-1 2a33 33 0 0 1-1 2l-1-1-3 5v-1l-2 5h-1v-1l-2 2-1 1a5 5 0 0 1-1-3v-1h-1a12 12 0 0 1 3-5h-1a10 10 0 0 1 3-4 1 1 0 0 0 0-1 1 1 0 0 0-1 0v-1l1-1 1-1a6 6 0 0 1 1-1v-1h-1a7 7 0 0 0 1-2l5-3h-1a7 7 0 0 1 4-3 5 5 0 0 0 2 0l2-1 1-1 5-3 3-1h1a2 2 0 0 0-1 0 74 74 0 0 1-1 0l-2-1a11 11 0 0 0-1 0 55 55 0 0 0-7 1 21 21 0 0 0-3 2h-1a1 1 0 0 0 0 1 14 14 0 0 1-4 5l-1-1v1l-2 1a2 2 0 0 1-1 1v-1l-1 1-3 2-2 1-3 1v-1a15 15 0 0 1-2 1 5 5 0 0 0-2 2h-1v-1l-1 1-2 1h-1v-1l-3 1-2 1 2-4a12 12 0 0 1 4-3l-1-1h-1a12 12 0 0 1 5-2h-1a6 6 0 0 1 4-2 14 14 0 0 0 1-1v-1h2l2-1h1v-1a5 5 0 0 1 2-1 6 6 0 0 0 2 0l-1-1h2l5-1a2 2 0 0 1 1 1 6 6 0 0 0 2 0 10 10 0 0 0 2 0l4-1 2-1a105 105 0 0 1-13-10h1l1-1a7 7 0 0 0-1-1 25 25 0 0 1-2-1 62 62 0 0 1-5-4 58 58 0 0 1-3-4 25 25 0 0 1-5-6 13 13 0 0 1 0-3 8 8 0 0 0-2-4h1l4 3a21 21 0 0 1 4 6l1 2a49 49 0 0 0 3 5l1 1a12 12 0 0 0 2 1v1l-1-4-2-2a54 54 0 0 1-5-11 72 72 0 0 1-2-7 33 33 0 0 1 0-9 7 7 0 0 0-1-3 4 4 0 0 0-1-3 2 2 0 0 1 1 1 6 6 0 0 1 3 3 85 85 0 0 1 2 5 20 20 0 0 1 0 2 29 29 0 0 0 1 4v2a6 6 0 0 1 1 0v1a55 55 0 0 0 3 11l2 3 1 4a20 20 0 0 0 1 1l1 1 1 2a2 2 0 0 0 1-2l-1-6a1 1 0 0 0-1 0 3 3 0 0 1-1-1l-2-2a3 3 0 0 1 0-1v-1l-1-3-2-4h1l-1-2v-1h1l-2-4h1l-1-3-1-2h2a7 7 0 0 1-1-3 21 21 0 0 1 1-2l2 2v-1l2 2a6 6 0 0 1 2 3 4 4 0 0 0 1-1v3a15 15 0 0 1 0 2h1l1 2a22 22 0 0 1 0 3l1-1v2a6 6 0 0 1 0 2h1v1a5 5 0 0 1-1 3 1 1 0 0 0 0 1h1a6 6 0 0 1-1 4 3 3 0 0 0 0 3v3h1l1-2a49 49 0 0 0 3-5 14 14 0 0 0 1-6v-7a29 29 0 0 0-1-9 17 17 0 0 0-2-4 4 4 0 0 0-1 0v-1a5 5 0 0 1-1 2 5 5 0 0 1-3 1 5 5 0 0 1-4-2 6 6 0 0 1 0-8 9 9 0 0 1 4-3 36 36 0 0 0 8-4 85 85 0 0 0 11-9l1-1a5 5 0 0 0 0-1h1v-1l2-2a1 1 0 0 1 1 0h1l3 2a104 104 0 0 0 16 4l10 2h6l2 1h2a74 74 0 0 0 4 0h8a180 180 0 0 0 16-1h5a410 410 0 0 0 9-2 61 61 0 0 0 5-1 207 207 0 0 0 8-3l3-1 1-1v1l1 1a41 41 0 0 0 9 11 29 29 0 0 0 8 6l3 1 2 1a6 6 0 0 1 4 6 6 6 0 0 1-3 5 4 4 0 0 1-2 0 9 9 0 0 1-1 0 4 4 0 0 1-3-2h-1v1a12 12 0 0 0-1 2 36 36 0 0 0-1 8 30 30 0 0 0 0 5 72 72 0 0 0 2 11l1 1v1a3 3 0 0 0 0-3 1 1 0 0 1 0-1 6 6 0 0 1 0-3v-1a1 1 0 0 0 1 0 5 5 0 0 1 0-4h1a6 6 0 0 1 0-2v-2h1a22 22 0 0 1 0-2l1-2h1a15 15 0 0 1 0-2l1-3v1a5 5 0 0 0 1 0 6 6 0 0 1 2-2l2-2v1l2-2a21 21 0 0 1 1 2 7 7 0 0 1-1 3h1l-1 2-1 3 1-1v1l-2 4h1-1l-1 3h1l-2 4-2 3h1a3 3 0 0 1-1 1l-2 2a3 3 0 0 1-1 1l-1 1zm0-3a2 2 0 0 0 1 0 3 3 0 0 0 2-1 8 8 0 0 0 1-1 5 5 0 0 0-1 0 2 2 0 0 0-3 2zm-2-4c-1 1 0 2 1 3a2 2 0 0 0 1-1 2 2 0 0 0-1-1zm5-1a2 2 0 0 0-1 2l3-1v-1a4 4 0 0 0-1 0 2 2 0 0 0-1 0zm-5-3c0 2 0 3 2 4a3 3 0 0 0 1-2 2 2 0 0 0-2-1 5 5 0 0 1 0-1h-1zm4 0a1 1 0 0 0 0 2h1a71 71 0 0 0 2-1 2 2 0 0 0 1-2 4 4 0 0 0-4 1zm-3-4 2 4h1v-2a18 18 0 0 0-2-1l-1-1zm4 1a1 1 0 0 0 0 1 1 1 0 0 0 1 0 5 5 0 0 0 3-1 1 1 0 0 0 0-1 6 6 0 0 0-1 0 4 4 0 0 0-3 1zm-1-5h-1a2 2 0 0 0 0 3 8 8 0 0 0 1 1 1 1 0 0 0 1 0 1 1 0 0 0 0-1 3 3 0 0 0 0-1 14 14 0 0 0-1-2zm3 2a2 2 0 0 0-1 1h1a3 3 0 0 0 3-2 4 4 0 0 0-3 1zm-2-6v1c0 1-1 3 1 4l1-1v-2a11 11 0 0 0-1-1 1 1 0 0 0-1-1zm6 0a4 4 0 0 0-2 1 2 2 0 0 0-1 2 4 4 0 0 0 3-3zm-2-4a3 3 0 0 0-2 4h1a4 4 0 0 0 1-1 2 2 0 0 0 0-1 5 5 0 0 0 0-1v-1zm3-1c-2 1-2 2-2 3a3 3 0 0 0 2-3zm8 21a18 18 0 0 0-2 3 540 540 0 0 0-5 5 42 42 0 0 1-7 6s0 1 0 1a5 5 0 0 0 1-1 28 28 0 0 0 8-6l1-2a33 33 0 0 0 3-3l1-1a4 4 0 0 0 0-1v-1zm-180-1a5 5 0 0 0 0 1l1 1a32 32 0 0 0 2 3l1 3a28 28 0 0 0 7 7 4 4 0 0 0 1 0c1 0 0 0 0 0a42 42 0 0 1-6-7 556 556 0 0 0-4-6l-2-2zm18 7a6 6 0 0 0 0 2 20 20 0 0 0 1 2v2h1a1 1 0 0 0 0-1l-1-4v-1zm143 0-1 4 1-2a4 4 0 0 0 0-2zm1-36a5 5 0 0 0-2 1c-4 2-5 6-6 8a34 34 0 0 0-1 7 43 43 0 0 0 0 6 47 47 0 0 0 1 6l1 1 1 3 1 4h1a35 35 0 0 0-1-4l-1-1-1-4a38 38 0 0 1 0-10 24 24 0 0 1 0-2v-4h1a18 18 0 0 1 0-3l2-4a4 4 0 0 1 4-2 3 3 0 0 1 2 1 4 4 0 0 1 1 2 3 3 0 0 1-1 2 2 2 0 0 1-1 1 1 1 0 0 1-1-1 2 2 0 0 1 0-2 2 2 0 0 0 0 1 1 1 0 0 0 1 0 2 2 0 0 0 1 0 1 1 0 0 0 0-1 2 2 0 0 0-1-2 2 2 0 0 0-1 0 3 3 0 0 0-1 0 3 3 0 0 0-2 3 3 3 0 0 0 3 3 4 4 0 0 0 1 0 4 4 0 0 0 4-3 5 5 0 0 0-1-3 5 5 0 0 0-4-3zM79 124a8 8 0 0 0 0 1 3 3 0 0 0 3 1c0-1-1-2-3-2zm5-1a2 2 0 0 0-1 3 1 1 0 0 0 1 0 3 3 0 0 0 1-4zm-5-3a4 4 0 0 0-1 1l3 2a2 2 0 0 0-1-2 2 2 0 0 0-1-1zm6-2v1a5 5 0 0 1-1 0 2 2 0 0 0-1 1 3 3 0 0 0 0 2c2-1 2-2 2-4zm-7-1a4 4 0 0 0-1 0 2 2 0 0 0 2 2h2a1 1 0 0 0 0-1 4 4 0 0 0-3-1zm5-3a18 18 0 0 0-1 2v1a6 6 0 0 1 0 1c2-1 3-2 2-4l-1 1zm1-21a3 3 0 0 1 3 1 5 5 0 0 1 1 1 4 4 0 0 1 0 2 15 15 0 0 1 2 2 22 22 0 0 1 2 7l1 5a36 36 0 0 1 0 4 67 67 0 0 0 0 2 2 2 0 0 0 0-1l1-2v-5a25 25 0 0 0-1-9 13 13 0 0 0-4-7 13 13 0 0 0-4-3 4 4 0 0 0-1 0 5 5 0 0 0-3 1 5 5 0 0 0-2 5 4 4 0 0 0 4 4 3 3 0 0 0 3-4 3 3 0 0 0-2-2 2 2 0 0 0-2 1 2 2 0 0 0 0 2 2 2 0 0 0 1 0h1v-1 2a1 1 0 0 1-1 0 2 2 0 0 1-1 0 3 3 0 0 1-1-3 3 3 0 0 1 2-3 3 3 0 0 1 1 0zm-7 20a1 1 0 0 0 0 1 5 5 0 0 0 3 2 1 1 0 0 0 0-1 4 4 0 0 0-3-2zm5-3a14 14 0 0 0-1 2 3 3 0 0 0 0 1 1 1 0 0 0 0 1 1 1 0 0 0 1 0 8 8 0 0 0 1-1 2 2 0 0 0 0-3zm-5 0a3 3 0 0 0-1 0 3 3 0 0 0 3 3l1-1a2 2 0 0 0 0-1 4 4 0 0 0-3-1zm4-4a10 10 0 0 0-2 2v1l1 1c2-1 2-2 1-3a11 11 0 0 1 0-1zm-6-1a4 4 0 0 0 3 4 2 2 0 0 0 0-3 4 4 0 0 0-3-1zm3-3a5 5 0 0 0-1 1 2 2 0 0 0 1 2 4 4 0 0 0 1 0v1a3 3 0 0 0-1-4zm-2-2a3 3 0 0 0 0 3v-3z"/><path fill="#161615" fill-rule="evenodd" d="M162 113a16 16 0 0 0 2-2l2-3 1-1 1-2a1 1 0 0 0 0-1 7 7 0 0 0-2-1 1 1 0 0 1 0-1 1 1 0 0 0-1 0v-3l1-1 3-4h2a3 3 0 0 1 1 0 3 3 0 0 0 1 1 6 6 0 0 0 2 3l1 1a4 4 0 0 0 1 0 1 1 0 0 0-1 1 3 3 0 0 1-1 1 2 2 0 0 0 0 1v1l-3 3h1l1-1 1-1 1-1 1-2v-1a1 1 0 0 0 1 0 3 3 0 0 0 1 1 1 1 0 0 1 0 1 9 9 0 0 1-5 6 2 2 0 0 1-1 0 6 6 0 0 0-1 0 3 3 0 0 1-1-1 2 2 0 0 0-1-1l-4 5h-1l-1 2zm16-11a1 1 0 0 0-1 0 14 14 0 0 0-1 1l-1 2a104 104 0 0 0 3-3v-1zm-8-2h-1l-1 1a1 1 0 0 0 0 1l1 1 3 1a1 1 0 0 0 1 0 12 12 0 0 0 3-4 1 1 0 0 0 0-1 40 40 0 0 0-3-2l-1 1h-1 1a1 1 0 0 1 0-1 8 8 0 0 1 1-1v-1h-1a5 5 0 0 1 0 1l-3 3v1a5 5 0 0 0 1-1zm1-5a1 1 0 0 0-1 0 24 24 0 0 0-2 2 18 18 0 0 0-2 2 2 2 0 0 0 0 2 4 4 0 0 1 1-1 285 285 0 0 1 4-4 1 1 0 0 0 1-1 1 1 0 0 0-1 0zm-25 16-1-1-2-2h-3a4 4 0 0 1-3-3l-2-3-1-2a17 17 0 0 0-1-1v-1l4-3 2-1a4 4 0 0 0 1 0 3 3 0 0 1 0-1 1 1 0 0 1 1 0l1 2a47 47 0 0 1 3 4 6 6 0 0 1 1 5v2a3 3 0 0 0 0 3h1a32 32 0 0 0 2 4h-2zm-11-11a1 1 0 0 0 0 1 56 56 0 0 0 3 4 5 5 0 0 0 1 1 4 4 0 0 0 2 1 7 7 0 0 0 4-1h-1a9 9 0 0 1-2 0 4 4 0 0 1-3-1 8 8 0 0 1-1-2 9 9 0 0 0-1-2 2 2 0 0 0-1-1 3 3 0 0 1-1 0zm6 3a1 1 0 0 1 1 0l1 1h1a1 1 0 0 0 1 0 3 3 0 0 0 1-2 9 9 0 0 0-3-5 14 14 0 0 1-1-1l-1-1a1 1 0 0 0-1-1 1 1 0 0 0 0 1h-1l-3 2-1 1 1 1a13 13 0 0 0 1 1 3 3 0 0 1 2 1l2 2zm16 1a23 23 0 0 1-6-1 1 1 0 0 1-1 0 2 2 0 0 1 0-2 9 9 0 0 0 1-2 4 4 0 0 1 0-1 2 2 0 0 0 0-1l-1-2a4 4 0 0 1-1 0 3 3 0 0 1 0-3 3 3 0 0 1 1-2 7 7 0 0 1 1 0l1-1 1-1a5 5 0 0 0 3-2 1 1 0 0 1 0-1 1 1 0 0 1 1 1 7 7 0 0 0 2 2 5 5 0 0 0 3 1 4 4 0 0 1 0 1l-1 1a4 4 0 0 0 0 2l1 3v6c0 2 0 2-2 2a18 18 0 0 1-3 0zm-3-14a1 1 0 0 0-1 1 11 11 0 0 0 0 1v2h1-1a1 1 0 0 0 0 1h-1a2 2 0 0 0 0 1 2 2 0 0 0 1 0v1a1 1 0 0 1 0 1 3 3 0 0 0-1 1 1 1 0 0 0 1 1h1a1 1 0 0 1-1 0v1l2 2a6 6 0 0 0 2 0h1v-2a4 4 0 0 0 0-1v-1l1-1h-1a1 1 0 0 1-1-1 1 1 0 0 1 1-1 2 2 0 0 0 0-1h-2a1 1 0 0 1-1-2h4v-1a3 3 0 0 0-1 0 1 1 0 0 1 0-1h-1a2 2 0 0 0-1 0 1 1 0 0 1-1 0 4 4 0 0 1-1-1zm-2 1a2 2 0 0 0-2 2 2 2 0 0 0 1 2l1-3v-1zm4-3h-3a1 1 0 0 0 0 1 3 3 0 0 0 1 0 5 5 0 0 0 2 0v-1z"/><path fill="#161615" fill-rule="evenodd" d="M97 90a2 2 0 0 1 0-1 68 68 0 0 0 9-7 83 83 0 0 0 4-3l1-2 1-1a49 49 0 0 0 2 1l5 2a45 45 0 0 0 5 1l9 2 3 1h1l8 1h26l3-1 8-1 3-1a90 90 0 0 0 3 0l2-1h1l1-1 6-1 2-1h1a12 12 0 0 1-2 1l-9 3-4 1a38 38 0 0 1-5 1h-1a43 43 0 0 1-5 1h-3l-3 1h-3a132 132 0 0 1-4 0h-10l-2-1h-5a128 128 0 0 1-24-4 70 70 0 0 1-4-1l-2-1-1-1h-1a77 77 0 0 1-16 13zm19 89v-1l1-2a22 22 0 0 1 1-2 12 12 0 0 1 1-3l3-3 2-2a5 5 0 0 0 1-1l1-1a1 1 0 0 0 1 1 6 6 0 0 0 1 0 4 4 0 0 1 1 0 1 1 0 0 1 1 0 44 44 0 0 1 3 3 5 5 0 0 0 2 1 3 3 0 0 1 1 1 3 3 0 0 1-1 0 1 1 0 0 0 0 1v3l1 1v1h-1v-1l-1-1a3 3 0 0 0 0-1v-1a7 7 0 0 1-1-1 2 2 0 0 0-1-2 3 3 0 0 1-2-1 1 1 0 0 0 0-1 3 3 0 0 0-1 0 3 3 0 0 0-2 0 4 4 0 0 1-2 1 5 5 0 0 0-1 1 9 9 0 0 1-1 1 21 21 0 0 1-1 1 2 2 0 0 0-1 1 5 5 0 0 1-1 1 4 4 0 0 0-1 1 9 9 0 0 1 0 1 8 8 0 0 0-1 1 3 3 0 0 1-1 1 2 2 0 0 0 0 1 2 2 0 0 1-1 1zm9-16a1 1 0 0 1-1 0 3 3 0 0 0-2-1 3 3 0 0 0-2 1v-2l-1-1a6 6 0 0 0-2 0 3 3 0 0 0-1 0h-1v1h-1l1-2h-2l-2 1a3 3 0 0 1 2-1 19 19 0 0 1 2 0 11 11 0 0 1 5 1l3 1 1 1a4 4 0 0 0 0-1c1-2 1-4-1-5a1 1 0 0 1 1 0 3 3 0 0 1 1 1l1 1a1 1 0 0 1 1-1v1a3 3 0 0 0-1 3 2 2 0 0 1 0 1l-2 1zm13 5a2 2 0 0 1-1 0l-1-1a4 4 0 0 0-2-1 6 6 0 0 1-2-1l-1-1a92 92 0 0 1 3-1 1 1 0 0 0 1 0 4 4 0 0 0 1 0 5 5 0 0 1 1 0 7 7 0 0 1 3 1v1a2 2 0 0 1-1 0v-1a19 19 0 0 0-4 0 10 10 0 0 0-1 0 6 6 0 0 0 1 1l3 3z"/><path fill="#161615" fill-rule="evenodd" d="M123 180v-1a50 50 0 0 1 0-2v-3a2 2 0 0 0 0-1v-1h1v1a9 9 0 0 1 0 5 3 3 0 0 1 0 1 2 2 0 0 1 0 1zm-11-6a12 12 0 0 1 5-4h1a2 2 0 0 1-2 1 6 6 0 0 0-1 0 5 5 0 0 0-1 2 8 8 0 0 1-1 1 3 3 0 0 1-1 0zm69 5v-1a12 12 0 0 1 2-5 1 1 0 0 1 1-1 1 1 0 0 1 0 1 2 2 0 0 1-1 1 6 6 0 0 0-1 1 5 5 0 0 0 0 2 7 7 0 0 1 0 1 3 3 0 0 1 0 1h-1zm-69-13a12 12 0 0 1 5-4 1 1 0 0 1 0-1l1 1a2 2 0 0 1-2 1 6 6 0 0 0-1 0 5 5 0 0 0-1 2 8 8 0 0 1-1 1 3 3 0 0 1-1 0zm1 12a12 12 0 0 1 4-5l-1 1v1a21 21 0 0 1-4 3zm8 3v-1a32 32 0 0 1 0-5 1 1 0 0 1 0 1 12 12 0 0 1 0 5zm64-19a3 3 0 0 1-1 0l1-1a8 8 0 0 1 3-2 2 2 0 0 0 1 0 1 1 0 0 1 1 0l-2 1a32 32 0 0 1-2 1 1 1 0 0 0 0 1h-1zm3 0a10 10 0 0 1 5-2v1a24 24 0 0 1-5 1zm-72 24a3 3 0 0 1 0-2 21 21 0 0 1 0-3l1-1a9 9 0 0 1 0 1 9 9 0 0 0 0 1 73 73 0 0 0 0 2l-1 1a7 7 0 0 1 0 1zm12-15a1 1 0 0 1 0-1 1 1 0 0 1 0-1v-1 1a1 1 0 0 1 1 0 4 4 0 0 1 0 1 1 1 0 0 1 0 1h-1zm-17-7a3 3 0 0 1 2-2 2 2 0 0 1-2 1zm2 17a3 3 0 0 1 2-2 2 2 0 0 1-2 2z"/><path fill="#161615" fill-rule="evenodd" d="M184 180a3 3 0 0 1 0-3 15 15 0 0 0 1-2 3 3 0 0 0 0-3 19 19 0 0 1-2-3 4 4 0 0 0-2-2 2 2 0 0 1-1 0 2 2 0 0 0-1 0 3 3 0 0 0-2 1v1l-1-1-1 1a28 28 0 0 0-3 3 5 5 0 0 0-1 1v1a6 6 0 0 0-1 1 4 4 0 0 1 1-3 19 19 0 0 1 1-3h1a5 5 0 0 1 2-2l1-1h1a3 3 0 0 0-1 0 8 8 0 0 0 0-1l-1-1h1a2 2 0 0 1 2 1 1 1 0 0 0 1 0 4 4 0 0 0 1 0 1 1 0 0 0 1-1 5 5 0 0 0 0-4 2 2 0 0 0 1-1 10 10 0 0 1 3-2 1 1 0 0 1 1 0l-2 2a5 5 0 0 0-2 3 2 2 0 0 0 1 1 2 2 0 0 0 1 1 15 15 0 0 0 3 0l2-1a7 7 0 0 1 2 0 6 6 0 0 1 2 2 6 6 0 0 1-1 0 6 6 0 0 0-2-1 5 5 0 0 0-2 1 4 4 0 0 1-1 0 3 3 0 0 1-1 0 4 4 0 0 0-2 0 1 1 0 0 0-1 1 1 1 0 0 0 0 1l1 1 2 3a11 11 0 0 1 1 1v1a3 3 0 0 0 1 1 1 1 0 0 1 0 2v1a1 1 0 0 0 0-1 5 5 0 0 1-1 0 1 1 0 0 0-1-1v1h-1a8 8 0 0 0 0 3l-1 1zm5 3v-4a2 2 0 0 1 0-1v-2a3 3 0 0 1 1 0 2 2 0 0 1 1 0 8 8 0 0 1 1 2v1a1 1 0 0 0-1-1 3 3 0 0 0-1 0 1 1 0 0 0 0 1v3a7 7 0 0 1 0 1v1zm-15-20a11 11 0 0 1-2 0 11 11 0 0 0-2-1 5 5 0 0 0-1 0 2 2 0 0 1-1 1 1 1 0 0 1 0-1h2a5 5 0 0 1 1 0 4 4 0 0 1 2 0 2 2 0 0 1 1 1v1z"/><path fill="#161615" fill-rule="evenodd" d="M191 169a23 23 0 0 0-6-3h1a8 8 0 0 1 4 3 1 1 0 0 1 1 0zm2 4a23 23 0 0 0-6-3h1a8 8 0 0 1 4 2 1 1 0 0 1 0 1zm-13-1h-1a4 4 0 0 1 2-3v2l-1 1zm-8-5a2 2 0 0 1 0-1h-1a9 9 0 0 1-1 0v-1a3 3 0 0 1 1 0 6 6 0 0 1 2 1 1 1 0 0 1-1 1zm-8 9a84 84 0 0 1-3-1 4 4 0 0 1-1 0 2 2 0 0 1-1 0 5 5 0 0 0 0-1l3 1h2l-1-4 1 1 1 1a18 18 0 0 1 0 2l-1 1zm-11 9a3 3 0 0 1-1-3 13 13 0 0 0 1 2 4 4 0 0 0 1-1 1 1 0 0 1 1 0l-1 1-1 1z"/><path fill="#161615" d="M204 145a1 1 0 0 1 0-1 1 1 0 0 0-1 0 2 2 0 0 1-1 0 4 4 0 0 0-1 0h-1a3 3 0 0 1 2-3 7 7 0 0 1 2 0 8 8 0 0 1 2 0 2 2 0 0 0 1-1 6 6 0 0 1 1 0v-2l-1-1-1-1a4 4 0 0 1-2-1l-1-1-1-1-1-1a8 8 0 0 1-1 0 4 4 0 0 1-1-2v-1c-3 1-2 3-2 5a5 5 0 0 0 1 1l1 1h-1a8 8 0 0 0-3 4 3 3 0 0 1-1 0l-1 2a2 2 0 0 1 0 2 34 34 0 0 0-3 0 11 11 0 0 0-4 0l-1-2 1-2a1 1 0 0 1 1 0c3-1 4-1 5-4a1 1 0 0 0 0-1 11 11 0 0 1-2-1l-1-2-1-1a7 7 0 0 1 1-1 1 1 0 0 0 0-1 6 6 0 0 0 1-2 3 3 0 0 1 1-2 3 3 0 0 0 1-1 5 5 0 0 1 2-1v-1a6 6 0 0 1-4-3l-1-1a2 2 0 0 0-2 1 5 5 0 0 1-3 3 1 1 0 0 0 0 1l-2 2h-2a3 3 0 0 1-1 0l-2-2 2-4a1 1 0 0 0 0 1 2 2 0 0 0 1 0l4-4 1-1h-4a23 23 0 0 1-2 0h-1v1l-7-4v-1a5 5 0 0 1 4-1 32 32 0 0 1 3 0h2a3 3 0 0 0 3-1 2 2 0 0 0 0-1 2 2 0 0 1 1-2 3 3 0 0 0 1 0v-1a11 11 0 0 1 1 0l1-1a9 9 0 0 0 1-1l2-1 1-1a2 2 0 0 0 0-1 1 1 0 0 0 0 1 4 4 0 0 0-1 0h-1l-1-1v-1a4 4 0 0 1-2 0 2 2 0 0 1-1 0 2 2 0 0 1-1 0v-1h1a2 2 0 0 0 1-1 2 2 0 0 0 0-1 2 2 0 0 1-1-1l1-2a6 6 0 0 1 3-1 3 3 0 0 0 2-1 9 9 0 0 1 2-1v-1h1a1 1 0 0 0 0 1 5 5 0 0 1-1 0 2 2 0 0 1-1 1 3 3 0 0 1-1 1l-2 1a1 1 0 0 1-1 0 2 2 0 0 0-2 1h1l1 1a4 4 0 0 0-1 1 2 2 0 0 0 1 1h1a2 2 0 0 1 2 1 1 1 0 0 0 1 0 1 1 0 0 0 1 0v-1h1a1 1 0 0 1 1-1v3h-2v2a1 1 0 0 1 0 1 7 7 0 0 0-1 0v2h-1l-3 1a2 2 0 0 0-1 0 3 3 0 0 0-1 0 1 1 0 0 0 0 1 2 2 0 0 1 1 1h-1a6 6 0 0 1-1 0 1 1 0 0 0-1 1 10 10 0 0 0 0 1v1h1-1v1a1 1 0 0 0-1 1l2 1a1 1 0 0 1 1 0v1a5 5 0 0 1-2 3 6 6 0 0 0-2 3 5 5 0 0 0-3 5l1-1h1l2-2a1 1 0 0 1 1-1 2 2 0 0 0 2-1 6 6 0 0 1 2-3v-1a1 1 0 0 0-1 0 6 6 0 0 1-1 1l2-3c1-1 1-2 3-2v1a4 4 0 0 0-1 0v1l1 2v-1a2 2 0 0 1 1 0l1-1a1 1 0 0 1 1 1 1 1 0 0 0 0 1h1a45 45 0 0 1 0 2h-1a1 1 0 0 0 1 1 3 3 0 0 0 1 0 8 8 0 0 1 1-1 1 1 0 0 1 1 1v1a1 1 0 0 0 0 1h4a2 2 0 0 1 1 0 4 4 0 0 0 2 1 4 4 0 0 1 2 3 2 2 0 0 1 0 1 5 5 0 0 0-1 3 1 1 0 0 1 0 1v-1a5 5 0 0 1 0-1v-2a2 2 0 0 0 0-1 1 1 0 0 0-1-1 1 1 0 0 0-1 1l1 1a1 1 0 0 1-1 1 1 1 0 0 1-1 0 2 2 0 0 1 0-2 2 2 0 0 0-1-1 2 2 0 0 0-1-1 3 3 0 0 1-1 0l-1-1a3 3 0 0 0-1 0 1 1 0 0 0-1 0 1 1 0 0 0 0 1 1 1 0 0 0 1 0 4 4 0 0 0 1 0 2 2 0 0 1 2 2 3 3 0 0 0 3 2v2a5 5 0 0 0-1 3 7 7 0 0 0 1 1l2 1h1v1a4 4 0 0 0 1 0l1 2a6 6 0 0 0 0 1 4 4 0 0 1 0 1 4 4 0 0 0 0 1v1l-1 1h-2a3 3 0 0 0-1 1 2 2 0 0 0 1 1 4 4 0 0 0 2-1 3 3 0 0 1 2 0 3 3 0 0 1 1 0 2 2 0 0 0 1 0 1 1 0 0 0 1 0 1 1 0 0 0-1-1 2 2 0 0 1 0-1 12 12 0 0 0-1-3 11 11 0 0 1-1-3 6 6 0 0 1 0-1 2 2 0 0 0 0-1 2 2 0 0 0-1-1 2 2 0 0 1-2 0 2 2 0 0 1 0-2 16 16 0 0 1 1-2 16 16 0 0 0 0-1v-4a6 6 0 0 0-2-2 6 6 0 0 0-1-1 4 4 0 0 1-1 0 34 34 0 0 1-2-3l-1-1a6 6 0 0 1-1-1l-1-2-1-1a1 1 0 0 1-1-1h-1a1 1 0 0 1-1-1 1 1 0 0 1 0-1 1 1 0 0 0-1 0l-1 1v1h1l-1 1a2 2 0 0 1-1-1 4 4 0 0 1-1-1 2 2 0 0 0 0-1 1 1 0 0 0-1-1 2 2 0 0 0 0 1 1 1 0 0 0-1 1 1 1 0 0 1-1 1 1 1 0 0 0 0 1 1 1 0 0 1-1 0 1 1 0 0 1-1-1 6 6 0 0 1 0-1h-1l2-2a3 3 0 0 0 2-1l-1-1a3 3 0 0 1 1 0 2 2 0 0 0 1 0 2 2 0 0 0 1 0 6 6 0 0 1 2-1 2 2 0 0 0 1 0 2 2 0 0 0 1 0 1 1 0 0 1 1 0h1v1a1 1 0 0 0 1 0 2 2 0 0 0-1-2l1-2a3 3 0 0 1 1-1 1 1 0 0 0 0-1 1 1 0 0 1 1-1 3 3 0 0 1 1 0 1 1 0 0 0 1-1 1 1 0 0 0 0-1 1 1 0 0 0-1 0 1 1 0 0 0-1 0 2 2 0 0 1 0 1 2 2 0 0 1-1 0 1 1 0 0 1-1-1 3 3 0 0 0 0-2h1v-1a2 2 0 0 0 0-1h-1v-1a1 1 0 0 0 0-1 1 1 0 0 0-1 0l-1-1-1-1a1 1 0 0 1 1 0 9 9 0 0 0 2 0h1l3 3a4 4 0 0 0 1 1 2 2 0 0 1 0 2 1 1 0 0 0 0 1 3 3 0 0 1 1 2v1a1 1 0 0 1-1 1 1 1 0 0 0 0 1 2 2 0 0 1-1 2 1 1 0 0 0 0 1 9 9 0 0 0-1 1 2 2 0 0 1 0 3v1a2 2 0 0 1-1 2l2 2 3 5a19 19 0 0 0 3 2l1 1a5 5 0 0 1 1 2v1l1-1a2 2 0 0 0 0-2v-1l-2-3-1-1a29 29 0 0 1-3-7 7 7 0 0 1 0-6 4 4 0 0 1 3-2 3 3 0 0 1 1 0l3 3a9 9 0 0 1 0 3h1a6 6 0 0 1 0 1h1a5 5 0 0 1-3 1 2 2 0 0 1-2-1 5 5 0 0 1-2-4 1 1 0 0 0-1 1 12 12 0 0 0 2 7 21 21 0 0 0 3 5 18 18 0 0 1 2 3v1a4 4 0 0 1 0 3 4 4 0 0 1-2 2 1 1 0 0 0-2 1 4 4 0 0 1 0 1 6 6 0 0 0 0 1 1 1 0 0 0 0 1 1 1 0 0 0 1 0 16 16 0 0 1 2 1v2a9 9 0 0 0 0 5 10 10 0 0 0 1 1l1 1a2 2 0 0 0 0 1 4 4 0 0 1 0 2 1 1 0 0 1 0 1 1 1 0 0 1-1 0h-3a19 19 0 0 0-2 0 7 7 0 0 0-1 0 5 5 0 0 1-1 1 1 1 0 0 0-1 0 5 5 0 0 1-1 0zm0-4-1 2 1 1v-2h1a2 2 0 0 0-1-1zm-18 0a12 12 0 0 1 0 2 1 1 0 0 0 1 0 1 1 0 0 0 1 0 6 6 0 0 1 2 0 4 4 0 0 1 1 0 2 2 0 0 0 1 0h1l-1-1-1-1a4 4 0 0 0-1 0 15 15 0 0 0-2 0v1-1a1 1 0 0 0-1 0 3 3 0 0 0-1 0zm6-8a5 5 0 0 1 1 1c1 2 0 3-1 4a1 1 0 0 0 0 1 1 1 0 0 0 1 0 4 4 0 0 1 1-1l2-2v-1a2 2 0 0 1-2-1 2 2 0 0 0-2-1zm5-8a10 10 0 0 0-4 2 18 18 0 0 0-3 3c0 2 3 2 4 2h1a2 2 0 0 1 0-3 10 10 0 0 0 1-1l2-3h-1zm-21-13a1 1 0 0 1 1 1 36 36 0 0 1 1 0 11 11 0 0 0 2 0l1-1a4 4 0 0 1 1 0 1 1 0 0 0 0-1 6 6 0 0 0-1 0 17 17 0 0 0-2 0 18 18 0 0 1-2 0 12 12 0 0 1-2 0 12 12 0 0 0-1 0 2 2 0 0 0-2 1 6 6 0 0 1 2 0 4 4 0 0 0 1 1h1zm19-5h-1v1h1l1 1 1 1a3 3 0 0 1 1 0 2 2 0 0 0 1 1l1-1a3 3 0 0 0 0-1 2 2 0 0 0-1 0 1 1 0 0 1 0-1 3 3 0 0 1 1-1v-3a5 5 0 0 1 1-1 2 2 0 0 0 1-2 5 5 0 0 1 0-1l-1 1a2 2 0 0 1-1 2 1 1 0 0 0-1 2 1 1 0 0 1-1 1 2 2 0 0 0 0 1 4 4 0 0 0-1 1l-1-1a1 1 0 0 0-1 0zm-6-10a6 6 0 0 0-1 1 6 6 0 0 0 2 0 1 1 0 0 0 0-1 1 1 0 0 0-1 0zm10-7v1a7 7 0 0 0 1 1 2 2 0 0 1 0 3 1 1 0 0 0 0 1 1 1 0 0 0 1 0 1 1 0 0 0 1 0 1 1 0 0 0 0-1l-1-1v-2a4 4 0 0 0-2-2zm-3 11a2 2 0 0 1 2-1 1 1 0 0 1 0 1 62 62 0 0 1-2 1zm-2-7a2 2 0 0 0-1-1 7 7 0 0 0-1 1 1 1 0 0 1-1 0 1 1 0 0 0 0-1l1-1a2 2 0 0 1 1 0 6 6 0 0 1 1 1v1zm-84 51a5 5 0 0 1-1 0 3 3 0 0 0-1 0 3 3 0 0 1-1 0 5 5 0 0 1-1 0 19 19 0 0 0-3-1h-3a1 1 0 0 1-1 0 1 1 0 0 1 0-1 4 4 0 0 1 0-1 2 2 0 0 0 1-2v-1a2 2 0 0 0 1 0v-1a9 9 0 0 0 0-5l1-2a16 16 0 0 1 2-1 1 1 0 0 0 1 0 1 1 0 0 0 0-1 6 6 0 0 0-1-1 4 4 0 0 1 0-1 1 1 0 0 0-1-1 4 4 0 0 1-3-2 4 4 0 0 1 0-3 18 18 0 0 1 3-4 21 21 0 0 0 3-4 12 12 0 0 0 1-7 2 2 0 0 0-1-2 5 5 0 0 1-2 4 2 2 0 0 1-1 1 4 4 0 0 1-3-1 6 6 0 0 1 1 0 1 1 0 0 0 1-1 9 9 0 0 1 0-3c0-2 1-2 3-3a4 4 0 0 1 3 2 7 7 0 0 1 1 6 29 29 0 0 1-4 7v1l-2 3-1 2a2 2 0 0 0 0 2h1v-1a5 5 0 0 1 2-2l1-1a19 19 0 0 0 2-2l4-5 1-2a2 2 0 0 1 0-2l-1-1a2 2 0 0 1 0-3 8 8 0 0 0 0-1 1 1 0 0 0-1-1 2 2 0 0 1-1-2 1 1 0 0 0 0-1 1 1 0 0 1-1-1v-1a3 3 0 0 1 1-2 1 1 0 0 0 0-1 2 2 0 0 1 1-2 4 4 0 0 0 1-1c0-2 0-2 2-3h1a9 9 0 0 0 2 0 2 2 0 0 1 1 0l-1 2a1 1 0 0 1-1 0 1 1 0 0 0 0 1l-1 1a2 2 0 0 0-1 1 3 3 0 0 1 1 0v1a3 3 0 0 0 0 2 1 1 0 0 1 0 1 1 1 0 0 1-1 0 2 2 0 0 1-1-1 1 1 0 0 0-1 0 1 1 0 0 0-1 1 1 1 0 0 0 1 1 3 3 0 0 1 1 0h1a1 1 0 0 1 0 1 1 1 0 0 0 0 1 3 3 0 0 1 1 1 5 5 0 0 0 1 0v2a3 3 0 0 0 0 2h1v-1h1a2 2 0 0 0 1 0 1 1 0 0 0 1 0h1a6 6 0 0 1 1 1 2 2 0 0 0 1 0 2 2 0 0 0 1 0 3 3 0 0 1 1 0h1l-1 1a3 3 0 0 0 1 1l2 2h-1a5 5 0 0 1 0 1 1 1 0 0 1-1 1c-1 0-1 0 0 0a1 1 0 0 0 0-1h-1a1 1 0 0 1-1-1 1 1 0 0 0 0-1 2 2 0 0 0-1 0 2 2 0 0 0-1 1 4 4 0 0 1 0 1 2 2 0 0 1-2 1v-1l-1-2h-1a1 1 0 0 1 0 1l-1 1h-1a1 1 0 0 1-1 1l-1 1-1 2a6 6 0 0 1 0 1 8 8 0 0 0-1 0l-1 1-2 3a4 4 0 0 1-1 0 6 6 0 0 0-1 1 6 6 0 0 0-2 2v4a15 15 0 0 0 1 1v2a2 2 0 0 1 0 2 2 2 0 0 1-2 0 2 2 0 0 0-1 1 2 2 0 0 0 0 1 6 6 0 0 1 0 1 10 10 0 0 1-1 3 13 13 0 0 0 0 3 2 2 0 0 1-1 1 1 1 0 0 0 0 1 1 1 0 0 0 1 0 3 3 0 0 1 2 0 3 3 0 0 1 1 0 4 4 0 0 0 2 1 3 3 0 0 0 1-1 3 3 0 0 0-1-1 25 25 0 0 0-1 0l-2-1v-1a4 4 0 0 0 0-1 4 4 0 0 1 1-1v-1l1-2v-1h1l2-1a7 7 0 0 0 1-1 1 1 0 0 0 1 0 5 5 0 0 0-2-3v-1l1-1a3 3 0 0 0 2-2 2 2 0 0 1 2-2 4 4 0 0 0 2 0v-1a1 1 0 0 0-1 0h-1a6 6 0 0 0 0 1 3 3 0 0 1-1 0 2 2 0 0 0-2 1 2 2 0 0 0 0 1 2 2 0 0 1-1 2 1 1 0 0 1-1-1v-1a1 1 0 0 1 1 0l-1-1a1 1 0 0 0-1 1 2 2 0 0 0-1 1l1 1v1a5 5 0 0 1 0 1l-1 1a1 1 0 0 1 0-1 5 5 0 0 0-1-3 2 2 0 0 1 0-1 4 4 0 0 1 2-3 4 4 0 0 0 2-1 2 2 0 0 1 2 0h4a1 1 0 0 0 0-1 2 2 0 0 1-1 0v-1a1 1 0 0 1 1-1 8 8 0 0 1 1 1h1a1 1 0 0 0 1-1l-1-1v-1h1a1 1 0 0 0 1-1 1 1 0 0 1 0-1h1l1 1 1 1v-1a1 1 0 0 0 1-1l-1-1h-1 1v-1l3 2 1 3a7 7 0 0 1-1 0 1 1 0 0 0 0-1 1 1 0 0 0-1 0l1 1a6 6 0 0 1 2 3 2 2 0 0 0 2 1 1 1 0 0 1 1 1 3 3 0 0 0 1 2h2l1 1a5 5 0 0 0-3-5h-1a6 6 0 0 0-2-3 6 6 0 0 1-1-3v-1a2 2 0 0 0 1 0l1-1a1 1 0 0 0 0-1l-1-1h1v-1a10 10 0 0 0-1-1 1 1 0 0 0 0-1 8 8 0 0 0-1 0 6 6 0 0 1-1 0 3 3 0 0 1 0-1 1 1 0 0 0 1 0 1 1 0 0 0-1-1 3 3 0 0 0-1 0 2 2 0 0 1-1 0 55 55 0 0 1-3-1h-1l1-1-1-1a1 1 0 0 1-1-1v-2h-1v-2a3 3 0 0 1-1-1h1a1 1 0 0 1 1 1l1 1a1 1 0 0 0 1 0 1 1 0 0 0 1 0 2 2 0 0 1 1-1h2v-1a4 4 0 0 0-1-1l1-1h1a2 2 0 0 0-1-1 3 3 0 0 0-1 0 3 3 0 0 1-1 0 74 74 0 0 1-2-1 3 3 0 0 1-1-1 2 2 0 0 1-1-1 9 9 0 0 0-1-1h1l1 1a9 9 0 0 1 1 1 3 3 0 0 0 2 1 6 6 0 0 1 3 1l1 2a2 2 0 0 1 0 1 2 2 0 0 0-1 1 2 2 0 0 0 1 1 1 1 0 0 0 1 0v1a2 2 0 0 1-1 0 4 4 0 0 1-2 0l-1 1-1 1a4 4 0 0 0-1 0 2 2 0 0 0-1 0 9 9 0 0 0 1 1l2 1a10 10 0 0 0 1 1l1 1a10 10 0 0 1 1 0l1 1a2 2 0 0 1 1 2 2 2 0 0 0 1 1 3 3 0 0 0 2 1h2a32 32 0 0 1 4 0 5 5 0 0 1 3 2l-6 4a1 1 0 0 1-1 0v-1h-1a23 23 0 0 1-1 0h-1a33 33 0 0 1-2 0h-1l1 1 4 4 1-1 1 4c0 1 0 2-2 2a3 3 0 0 1-1 0h-1c-2 0-2-1-2-2a1 1 0 0 0-1-1 5 5 0 0 1-3-2 2 2 0 0 0-2-2 1 1 0 0 0-1 1 6 6 0 0 1-3 3h-1v1a5 5 0 0 1 2 1 3 3 0 0 0 1 1 3 3 0 0 1 2 2 6 6 0 0 0 0 2h1a1 1 0 0 0 0 1 6 6 0 0 1 0 1 7 7 0 0 0 0 1l-2 2a11 11 0 0 1-2 1 1 1 0 0 0 0 1c1 3 2 3 5 4a1 1 0 0 0 1 0 1 1 0 0 1 0-1 2 2 0 0 1 1 0v2a5 5 0 0 1 0 2 12 12 0 0 1-1-2 2 2 0 0 0-1 0 2 2 0 0 0-1 0l1 1a8 8 0 0 0-1-1 15 15 0 0 0-1 0 4 4 0 0 0-1 0 4 4 0 0 0-1 0l-1 1v1h1a4 4 0 0 1 2 0 6 6 0 0 1 2 0h1l-1 1a9 9 0 0 0-3 0 28 28 0 0 0-3 0 2 2 0 0 1 0-2l-1-2a8 8 0 0 0-4-4 9 9 0 0 1 0-1 6 6 0 0 0 1-1c1-2 1-4-1-5a1 1 0 0 0-1 0v1a4 4 0 0 1-1 2h-1v1l-2 2v-1 1a4 4 0 0 1-3 1l-1 1v3a2 2 0 0 0 1 1 2 2 0 0 0 1 0 8 8 0 0 1 1 0 7 7 0 0 1 2 0 3 3 0 0 1 2 3h-2a7 7 0 0 1-1 0 2 2 0 0 1 0 1 1 1 0 0 0-1 0zm-1-4a3 3 0 0 0 0 1l1 2 1-1-2-2zm12-8a2 2 0 0 0-2 1 2 2 0 0 1-1 1h-1l1 1 2 2a4 4 0 0 1 0 1 1 1 0 0 0 1 0h1a6 6 0 0 1-1-1l-1-4a5 5 0 0 1 1-1zm-5-8a1 1 0 0 0-1 0c2 0 2 2 3 3a10 10 0 0 0 1 1 2 2 0 0 1 0 3c2 0 4 0 5-2a17 17 0 0 0-3-3 10 10 0 0 0-5-2zm16-14h-1a1 1 0 0 0 1 1l1 1a11 11 0 0 0 2 0 13 13 0 0 1 2 0 1 1 0 0 1 1 0h1a4 4 0 0 0 1-1 5 5 0 0 1 1 0 1 1 0 0 0-1-1 12 12 0 0 0-2 0 12 12 0 0 1-1 0 18 18 0 0 1-2 0 21 21 0 0 0-1 0h-2zm-20-11v1a2 2 0 0 0 0 2 5 5 0 0 1 1 1l1 1a1 1 0 0 1 0 1l-1 1h1a3 3 0 0 1 1 1 1 1 0 0 1 0 1 2 2 0 0 0-1 1v1a2 2 0 0 0 1-1 3 3 0 0 1 1 0l1-1 2-1a5 5 0 0 1 0-1 1 1 0 0 0-1 0l-1 1a1 1 0 0 1-1 0 5 5 0 0 0 0-1 2 2 0 0 0-1 0 1 1 0 0 1 0-2 1 1 0 0 0-1-2 2 2 0 0 1-2-2v-1zm12-3a1 1 0 0 0 0 1 6 6 0 0 0 1 0h1a6 6 0 0 0-1-1 1 1 0 0 0-1 0zm-9-7a4 4 0 0 0-3 2 3 3 0 0 1 0 1l1 1-1 1a1 1 0 0 0 0 1 1 1 0 0 0 1 0 1 1 0 0 0 0-1 2 2 0 0 1 1-3 7 7 0 0 0 1-1v-1zm3 12a63 63 0 0 1-2-2 2 2 0 0 1 1 1l1 1zm4-8h-1a7 7 0 0 0-1-1 2 2 0 0 0-1 1v-1a5 5 0 0 1 1-1 1 1 0 0 1 1 0 2 2 0 0 1 1 0v1l1 1h-1zm68-73h-1a8 8 0 0 1 1 0zm-81 195 1 2zm-6 2a1 1 0 0 0 0-1h1a8 8 0 0 1 1-1 1 1 0 0 1-1 0h1v-1c-2 1-4 3-4 5a4 4 0 0 0 0 1 8 8 0 0 1 1-1 5 5 0 0 1 1-3zm2-8v1h1l-1-1zm7 12v-1a11 11 0 0 0 0-1l1-1h-1l1-1a14 14 0 0 0 1-2l3-2h-2l-1 1h1a6 6 0 0 1-2 0 14 14 0 0 1-1 3 14 14 0 0 1-1 2l1 2zm2-8h1-1zm-5 2-1-1zm-6 7h-1a3 3 0 0 0 1 0zm2-13a1 1 0 0 1 0-1 5 5 0 0 1-1-2 2 2 0 0 1 2-2 2 2 0 0 0-1-1 2 2 0 0 0-2 2 5 5 0 0 0 1 2zm9 14 2 1zm-4 0v-1a4 4 0 0 1-1 1 8 8 0 0 1-5 2 6 6 0 0 1-3-1 6 6 0 0 0 4 1l5-2zm-1-15a1 1 0 0 1 0 1 9 9 0 0 1-2 3l1 1-1-1a9 9 0 0 0 3-5 5 5 0 0 0 0-1 4 4 0 0 0-2-3 4 4 0 0 1 2 3 6 6 0 0 1-1 2zm-1 4v-1 1zm2-6zm3 16 1 1h-1v-1z"/><path fill="#161615" d="M112 215a14 14 0 0 1-2 5l2 3 3 2h-4l-2-2c-1 2-4 3-6 3s-5-1-5-5a9 9 0 0 1 5-8s-3-5-3-6a4 4 0 0 1 4-4c3 0 5 1 5 4a8 8 0 0 1-3 6l3 5a6 6 0 0 0 1-3l-2-2h7zm-8 0c-2 1-4 3-4 5 0 3 2 4 4 4a5 5 0 0 0 3-3zm1-4a5 5 0 0 0 2-4l-3-3a2 2 0 0 0-1 2 5 5 0 0 0 0 2zm47 15 1-1a2 2 0 0 0 0-1 2 2 0 0 0 0-1 2 2 0 0 0-1 0 2 2 0 0 1 1 0 2 2 0 0 1 0 1 2 2 0 0 1-2 2 2 2 0 0 1-2-1 2 2 0 0 0 2 1 2 2 0 0 0 2 0h-1z"/><path fill="#161615" d="M152 223a2 2 0 1 1-2-2 2 2 0 0 1 2 2zm-9-5v1h1v1a6 6 0 0 0 1 1l-1-3-4-8a10 10 0 0 1-1 0l3 8h1zm-2-7c0-1 0 0 0 0zm0-1zm-1 0-1-3-1-3a1 1 0 0 0-1 0h1l-1-2h-1l3 8a6 6 0 0 1 1 0zm6 13v-1l-1-1a1 1 0 0 0-1-1 2 2 0 0 0-1-1l1 3 2 2a2 2 0 0 0 0-1zm-19-3-1 3v3h-5v1h6v-3l1-3h11v-1zm5-14h-1l-1 3v1a5 5 0 0 0 1-1l1-1v1a5 5 0 0 0-2 2l-2 5h10-9l3-9v-2l-1 1h1zm16 20-1-1-1-1 1 2h-5v1h7l-1-1z"/><path fill="#161615" d="m145 225-3-4-8-21h-6l-8 22-2 3h7v-3l1-3h12l2 6zm-18-9 4-12 6 12z"/><path fill="#a41237" stroke="#161615" stroke-miterlimit="10" stroke-width=".3" d="m144 225-3-4-8-21h-5l-8 22-2 3h5v-3l1-3h12l2 6zm-19-9 5-12 4 12z"/><path fill="#161615" d="m166 219-1 3a2 2 0 0 1 1 0l1-2a2 2 0 0 1-1 0zm-1 4-1 2h1l1-2h-1zm-5 3v1h4v-1h-4zm2-9 1-1h-1zm-1-3-4-10-1-1v-1l-1 1zm10-10-3 8a1 1 0 0 1 1 0 64 64 0 0 1 3-8 2 2 0 0 1 1 0 22 22 0 0 1 3-4h-1a19 19 0 0 0-4 4zm1 0h-1 1zm-3 9a3 3 0 0 1-1 0 960 960 0 0 0-2 6 5 5 0 0 0 1 0l1-2v-1l1-3zm-12-11 2-2h-1l-2 2a6 6 0 0 1 1 0z"/><path fill="#161615" d="M163 225h-3l-11-22a34 34 0 0 0-3-3h10l-2 3 7 14 7-16-2-1h8a27 27 0 0 0-4 4l-7 21z"/><path fill="#a41237" stroke="#161615" stroke-miterlimit="10" stroke-width=".3" d="M162 225h-3l-10-22a25 25 0 0 0-3-3h9l-2 3 7 14 6-16-1-1h7l-3 4-7 21z"/><path fill="#161615" d="M176 225c-5 0-7-2-7-7 0-6 3-9 6-9s6 3 6 8h-9v1c0 4 1 6 3 6a3 3 0 0 0 1 0 2 2 0 0 0 2-2l1-1c1 0 2 0 1 1 0 1-2 3-4 3zm-1-15c-1 0-3 2-3 5h6c0-3-1-5-3-5z"/><path fill="#161615" d="M176 212a1 1 0 0 1 0-1v1h1a2 2 0 0 0-1-1c-2 0-3 2-3 5h1c0-3 1-4 2-4zm-1 1zm0 13a10 10 0 0 1-2 0 9 9 0 0 0 2 1 2 2 0 0 1 0-1zm7-13a5 5 0 0 0-3-3 5 5 0 0 1 1 2 1 1 0 0 1 1 0 8 8 0 0 1 0 2h1v1-1a8 8 0 0 0 0-1zm-10 13zm8-1v-1a6 6 0 0 1-3 2 2 2 0 0 1 0 1 6 6 0 0 0 4-2h-1zm-6-6v-1h9a15 15 0 0 0-1-3 16 16 0 0 1 0 3h-9v1a13 13 0 0 0 0 2l2 4-1-6zm15-6v-5h-1 1v-7h-1v12h1zm0 3h-1v7l2 2h1l-2-2z"/><path fill="#161615" d="m182 201 2 2v20l-2 2h8l-3-1v-23zm14 24c-2 0-3-1-3-3v-11h-3v-2h3v-2l2-1v3h4v2h-4v11c0 2 1 2 2 2l1 1h-1a3 3 0 0 1-1 0zm4-14a2 2 0 0 0 0 1z"/><path fill="#161615" d="M191 212h2-2zm5 14a4 4 0 0 0 2 0 3 3 0 0 0 2 0 1 1 0 0 1-1 0 8 8 0 0 1-1 0 1 1 0 0 1 1 0 1 1 0 0 1 0-1l-2 1a7 7 0 0 1-1 0zm1-2a2 2 0 0 1 0-1h-1s0 1 0 0a7 7 0 0 0 1 0 6 6 0 0 1-1 0 3 3 0 0 0 0 1 1 1 0 0 0 1 0zm0-1v-11h1-2v8h1zm0-16h-1v3h1v-1a1 1 0 0 1 0-1zm7 19 1 1h3v-1h-4zm3 0zm-1 0s1 0 0 0zm0-10v6a4 4 0 0 0 1-1v-1a17 17 0 0 1 0-4 19 19 0 0 0 0 3v-4l-1 1v-1zm0-5 1 1v-1a1 1 0 0 1-1 0zm0-6a2 2 0 0 1-1 0 2 2 0 0 1 0 1 2 2 0 0 1-1 1 3 3 0 0 1-1 0 2 2 0 0 0 1 0 2 2 0 0 0 2-1 2 2 0 0 0 0-1zm0 2h1z"/><path fill="#161615" d="M206 205a2 2 0 0 0-1 0 2 2 0 0 1 1 0zm-3 6h1-1zm3 11v2l1 1v-4a13 13 0 0 0-1 1zm-3 5a1 1 0 0 1 0-1zm-17-1 1 1h4l-1-1h-3zm3 0zm0 0zm-4 1h1a1 1 0 0 1 0-1h-1zm21-12a10 10 0 0 1 1-1h-1zm-3-9a2 2 0 0 1-2-1l2-2a2 2 0 1 1 0 3z"/><path fill="#161615" d="m201 225 1-1v-13l-2-2h5v15l2 1zm17 0 1-1v-10c0-2 0-3-2-3-4 0-4 2-4 6v7l2 1h-5l1-1v-14h-2v-1h5v1a6 6 0 0 1 4-1c3 0 4 1 4 5v10l1 1z"/><path fill="#161615" d="M213 210h-1 1zm11 7a1 1 0 0 1-1 0v2l1 1zm-5 9h6l-1-1v1h-5zm-7 0h-1 6l-2-1v-1a2 2 0 0 1-1 0v1l2 1h-4zm4-16a7 7 0 0 1 1 0v-1h-1zm6 2h1a6 6 0 0 1 0 1v1a1 1 0 0 1 0 1v2-1a1 1 0 0 1 1 0v-1a5 5 0 0 0-1-4 3 3 0 0 1-1 0 3 3 0 0 1 0 1zm1 13a2 2 0 0 0 0-1v1h1v-5a8 8 0 0 1-1 1v3zm1-1zm-10-2v1a2 2 0 0 1 1 0v-1a1 1 0 0 1-1 0zm2-6zm1-4a4 4 0 0 0-1 0l-1 1a5 5 0 0 1 1-1 2 2 0 0 0-1 1 7 7 0 0 0-1 2v1a1 1 0 0 1 1 0l-1 1a1 1 0 0 1 1 0h-1v3l1-1v-1c0-5 0-6 3-6a5 5 0 0 1 1 0 2 2 0 0 0-2 0zm-1 5zm0-1a1 1 0 0 1 0 1v-1zm6-6a4 4 0 0 0-1-1 3 3 0 0 1 1 1zm5 14a3 3 0 0 1-1-2v-2a6 6 0 0 0 5 3c2 0 3-1 3-2 0-2 0-3-3-4s-5-2-5-4a3 3 0 0 1 1-3 5 5 0 0 1 3-1 6 6 0 0 1 3 1h1v-1h1l-1 3a7 7 0 0 0-3-2 6 6 0 0 0-1 0l-2 2a3 3 0 0 0 1 2 6 6 0 0 0 3 1 8 8 0 0 1 3 2 4 4 0 0 1 2 3c-1 4-2 5-5 5l-5-1z"/><path fill="#161615" d="M235 211a2 2 0 0 0-1 1 2 2 0 0 1 0 1v1-1zm-2 16a5 5 0 0 0 5-5v-1a5 5 0 0 0-1-3 5 5 0 0 0-2-1 5 5 0 0 1 1 1 5 5 0 0 1 1 3 5 5 0 0 1-5 5 10 10 0 0 1-3 0 8 8 0 0 0 4 1zm0-8a8 8 0 0 0-1-1 23 23 0 0 1-3-1 17 17 0 0 0 4 2zm-2-8a1 1 0 0 0-2 1 2 2 0 0 1 1 0h2a4 4 0 0 1 1 0 5 5 0 0 0-2-1zm-142-6a8 8 0 0 1 1 0v-4h-1v3zm-4-1a6 6 0 0 0-3-1c-3 0-4 2-5 4a17 17 0 0 0-2 7c0 5 2 8 4 9-2-2-3-4-3-8v-1c0-2 1-7 4-9a1 1 0 0 1 0-1h1-1 1a5 5 0 0 1 2 0 6 6 0 0 1 2 0zm-10 13zm3-10zm2-2h-1 1z"/><path fill="#161615" d="M87 214a14 14 0 0 1 0 3c0 4-2 6-5 6-4 0-8-2-8-10 0-3 2-10 7-11a6 6 0 0 1 3 1 20 20 0 0 1 2 4h2v-7h-3v1a8 8 0 0 0-5-2c-6 0-10 6-10 14s4 12 11 12c6 0 9-2 9-7 0-2-1-3-3-4z"/><path fill="#a41237" stroke="#161615" stroke-miterlimit="10" stroke-width=".3" d="M85 214a13 13 0 0 1 0 3c0 4-2 6-5 6s-8-2-8-10c0-3 2-10 7-11a6 6 0 0 1 4 1 20 20 0 0 1 1 4h2v-4l1-3h-3l-1 1a8 8 0 0 0-5-2c-6 0-10 6-10 14s4 12 12 12c5 0 9-3 9-7 0-2-1-3-4-4z"/><g fill="#161615"><path d="M96 223a2 2 0 1 1-2-2 2 2 0 0 1 2 2zm-6 1h1a6 6 0 0 0 1-4c0-2 0-3-2-4a4 4 0 0 1 1 3c0 4-3 7-9 7a12 12 0 0 1-6-1 12 12 0 0 0 7 2 11 11 0 0 0 7-2v-1zm2-4-1-1 1 1zm5 4a2 2 0 0 0-1-1 2 2 0 0 1 1 1z"/><path d="M97 225a2 2 0 0 1-2 1 2 2 0 0 1-1-1 2 2 0 0 0 1 1 2 2 0 0 0 2-1zM59 78v-3L43 53h-4a82 82 0 0 1 3-3 18 18 0 0 1 3-1c1-1 2 1 2 1h1c0-3 0-5 2-6l1-1a5 5 0 0 1 4 0c2 1 3 3 4 6l-1 3a3 3 0 0 1-3 0 1 1 0 0 1 0-1c0-3-1-4-2-4a2 2 0 0 0-2 0c-2 2-1 8 5 15l7 10 3 2zm6-1 1-1-4 2v1zm2-1a6 6 0 0 0-1 1zM55 42c2 0 3 2 5 4l1-1v-1a5 5 0 0 0-6-2z"/><path d="M69 73a1 1 0 0 1-1 0l-1-1-7-10-1-1-3-2 2 3 7 10 3 2 1 1 1-1zM58 62h1-1zm-5-10a31 31 0 0 0 3 7 358 358 0 0 1 2 1 26 26 0 0 1-4-10 20 20 0 0 1-1 2zm2-4a2 2 0 0 0-2 0l-1 4a19 19 0 0 1 2-2 3 3 0 0 1 1-2zm5 4a2 2 0 0 1 0-2v2zm24 13c-8 3-14 0-19-9-4-10-3-19 3-22s12 1 17 10l-15 8 1 2c3 7 7 10 10 9a4 4 0 0 0 1-1c2-1 2-3 2-5 0-1-1-2 1-3h3c1 3 0 9-4 11zM69 37c-2 1-4 5-1 11h1l9-4c-3-6-6-9-9-7z"/><path d="m71 49 1-1a13 13 0 0 1-1-8 6 6 0 0 1 0-1 1 1 0 0 0 0 1 1 1 0 0 1 0-1 3 3 0 0 1 2-1 4 4 0 0 0-2 0c-2 1-3 5-1 11zm0-7v-1 1zm11-4a33 33 0 0 1 5 8l-15 7 1 2c3 6 7 9 9 8-2 0-5-3-7-8l-1-2 15-7c-4-9-9-13-14-12l7 4zm7 16c3 1 1 10-3 12a15 15 0 0 1-6 1 13 13 0 0 0 7-1 7 7 0 0 0 2-1l1-1c3-3 4-11-1-10zm-1 11 1-1-1 1zm12-8L83 31l-3-1h-1l11-4-3 4 14 20-2-24-3-1 9-3v1l-3 3 1 30z"/><path d="M93 37h1l-3-6 3-3v-1h-2l-3 4zm9 10-7-10a5 5 0 0 1-1 1l6 9v-1 1l2 2v-2zm3-4v15h-2v1l4-1V46a2 2 0 0 0-1 0h1l-1-4a10 10 0 0 1-2 1zm4-19-1-1-1 1-3 4v12a1 1 0 0 1 1 1 3 3 0 0 1-1 0v2l2-1V28zm15 28c-8 1-13-3-15-14-2-10 1-18 8-19 6-1 11 4 13 14l-16 3 1 3c1 7 4 11 7 10a5 5 0 0 0 1 0l3-4c0-2 0-3 2-3l3 1c0 3-3 8-7 9zm-7-30c-2 0-4 4-3 10v1l10-2v-1c-1-6-3-9-7-8z"/><path d="M116 33h1l1-8a5 5 0 0 1 1 0 1 1 0 0 1 0-1 3 3 0 0 1 2 0 4 4 0 0 0-2-1c-3 1-4 4-3 10zm1-6v-1 1zm13-1v1a32 32 0 0 1 2 8l-16 2 1 3c1 6 3 10 6 10-2-1-4-5-5-10v-2l16-3c-2-9-5-14-10-15l6 6zm2 17c2 2-1 9-7 10a14 14 0 0 1-5 0 13 13 0 0 0 7 1 6 6 0 0 0 2-1h1c4-3 7-10 2-10zm-4 10h1-1z"/><path d="m150 48 2-2-1-20c0-5-3-7-6-6-4 1-5 4-4 13l1 13 2 3h-10l3-3-2-27-4-1v-1h9l1 2v-1a11 11 0 0 1 7-2c4 0 8 2 8 9l1 21 3 2z"/><path d="m143 47 3 2 1 1-2-2-1-6-1-4zm-1-18v3a7 7 0 0 1 2 1v-5a1 1 0 0 1-1 0h1a11 11 0 0 1 0-2l-2 1v1a2 2 0 0 1 1 0l-1 1zm21 20-2-2-1-11a4 4 0 0 1 0 1 1 1 0 0 1-1 0 1 1 0 0 1 0 1v9l3 2v1h-1a6 6 0 0 1 0 1l2-1zm-5-20v5a3 3 0 0 1 1 0 4 4 0 0 1 1 0v-7a16 16 0 0 0-1-5 7 7 0 0 1-1 0 2 2 0 0 1-1 0 18 18 0 0 1 1 4v2a1 1 0 0 1 0 1zm-5 21v1h2l1-1h-3zm4-31a6 6 0 0 0-3-1 6 6 0 0 1 2 2 2 2 0 0 1 1-1zm-13 32h4v-1h-1l-3 1zm-4 0h-3v1h5a4 4 0 0 1 0-1h-2zm2-25a2 2 0 0 1 1 0 3 3 0 0 1 1-1l1-1 1-1a8 8 0 0 1 3 0 9 9 0 0 1 2 0 4 4 0 0 0-4-1c-3 0-4 1-5 4zm101 42 4-1 8-17c3-5 2-7-1-8v-1c-6-2-7 1-11 9l-6 12 1 3v1l-9-4v-1l4-1 12-24-3-3 9 3-1 2a12 12 0 0 1 8 1c4 2 5 6 2 12l-9 19 1 3z"/><path d="m238 64 1 3 1 1-1-3 3-5 1-5h-1zm8-17a76 76 0 0 0-1 3 8 8 0 0 1 1 2l2-5a12 12 0 0 1 1-1 2 2 0 0 1-2 0l-1 1a2 2 0 0 1 1 0h-1zm8 29-1-3 5-10a4 4 0 0 1-1 0 1 1 0 0 1 0-1 1 1 0 0 1-1 1l-4 8 1 3v1h-1a5 5 0 0 1-1 0l3 2zm6-21-2 5a4 4 0 0 1 1 1l3-7a16 16 0 0 0 2-5 7 7 0 0 1-1 0 18 18 0 0 1-2 3l-1 3zm-15 16v1l2 1 1-1-3-1zm19-25a6 6 0 0 0-2-2 6 6 0 0 1 1 2 2 2 0 0 1 1 0zm-27 22 3 1v-1h-3zm-4-2-2-2-1 1 4 2a4 4 0 0 1 1-1h-2zm15-22a2 2 0 0 1 1 1 3 3 0 0 1 2 0l1-1a8 8 0 0 1 3 1 8 8 0 0 1 2 1 4 4 0 0 0-3-2c-3-2-4-2-6 0zm-78 4c-4-1-6-3-7-5a5 5 0 0 1-1-4l1-3c2 4 4 7 8 8 3 0 5-1 6-3 1-3-1-6-5-8-7-3-9-5-9-11a7 7 0 0 1 2-5 9 9 0 0 1 7-1 12 12 0 0 1 7 3l1-1h2l-3 6c-1-1-3-4-6-5-2-1-5 0-5 2-1 2 0 4 6 8 8 4 9 8 8 12-1 5-6 9-12 8v-1z"/><path d="M183 21a3 3 0 0 0-2 1 1 1 0 0 1 0 1 3 3 0 0 1-1 1v1l1 1v-2zm-10 30a10 10 0 0 0 12-8 1 1 0 0 1-1-1 3 3 0 0 1 1-1 10 10 0 0 0-3-6 11 11 0 0 0-3-3 9 9 0 0 1 2 2 10 10 0 0 1 2 7 10 10 0 0 1-12 9 13 13 0 0 1-6-2 12 12 0 0 0 8 3zm9-20a6 6 0 0 1-2-1 8 8 0 0 0 1 2l1-1zm-13 11a6 6 0 0 1-1-2v1a7 7 0 0 0 1 1zm-6-3a1 1 0 0 1-1 0v1a9 9 0 0 0 4 3 9 9 0 0 1-3-4zm10-3h1a16 16 0 0 0-2-1 43 43 0 0 1-5-3 31 31 0 0 0 6 4zm0-16-1 1a4 4 0 0 0 0-1c-1 0-3 0-3 2a5 5 0 0 1 1 0 1 1 0 0 1 1 0l4-1a9 9 0 0 1 2 1 11 11 0 0 0-4-2zm17 32c-4-1-5-3-4-8l3-23h-4l1-3h4v-4l5-1-1 6 6 2v2l-6-1-4 22c0 4 1 5 2 6l2 1a1 1 0 0 1-1 0 5 5 0 0 1-3 1z"/><path d="M190 52c-4-1-5-3-4-8l3-23h-4l1-3h4v-4l5-1-1 6 6 2v2l-6-1-4 22c0 4 1 5 2 6l2 1a1 1 0 0 1-1 0 5 5 0 0 1-3 1zm13-28a4 4 0 0 0-1 2h1z"/><path d="M187 24h3v-1h-2l-1 1zm3 29a7 7 0 0 0 3 2 4 4 0 0 0 3-1 2 2 0 0 1-1 0h-1a2 2 0 0 1 1-1 1 1 0 0 1 1-1 2 2 0 0 0-1 0c0 1-1 2-4 1a8 8 0 0 1-1 0zm3-2a1 1 0 0 1 1 0 5 5 0 0 1-1-3v1l-1-1a17 17 0 0 0 1-1 9 9 0 0 1-1 0 6 6 0 0 0 0 2 2 2 0 0 0 1 2zm-1-5h1l1-3h-1a4 4 0 0 0 1 0l1-7-1-3a9 9 0 0 1 1 0l2-8h1a2 2 0 0 1 1 0l-4-1-2 16v1zm6-31h-1l-1 6h1l1-2a3 3 0 0 1-1 0h1v-1a1 1 0 0 1-1 0h1zm9 39c-8-2-10-8-8-18 3-10 9-15 15-14 6 2 9 8 6 18l-15-4v1l-1 2c-2 7-1 12 2 13a5 5 0 0 0 1 0c3 0 4-2 5-3 0-1 1-2 3-2l2 3c-1 2-6 6-10 4zm7-29c-3-1-6 1-8 8l10 3v-1c2-6 1-9-2-10z"/><path d="M207 35h2c1-3 2-5 4-6v-1a5 5 0 0 1 1 0 1 1 0 0 0-1 0 1 1 0 0 1 1 0 3 3 0 0 1 2 0 4 4 0 0 0-2-1c-2-1-5 1-7 8zm5-6c-1 0 0 0 0 0zm11 5a31 31 0 0 1-1 8l-16-4-1 3c-1 6-1 10 2 12-1-2-2-6 0-11v-2l16 4c2-9 1-15-3-18a12 12 0 0 1 2 8zm-5 16c1 3-5 8-10 6a14 14 0 0 1-5-2 13 13 0 0 0 6 4 7 7 0 0 0 2 0l1-1a1 1 0 0 1 0 1c5-1 10-6 6-8zm-6 7a1 1 0 0 1 1 0l-1 1zm51 24c-7-5-7-12-1-20 6-9 13-12 19-9 5 4 5 11 0 20l-14-9-1 2c-4 6-5 11-2 13a4 4 0 0 0 1 0c2 1 3 0 4-1 2-1 2-2 4-1v1c1 0 2 1 1 2-2 3-7 4-11 2zm16-27c-2-1-6 0-9 5l-1 1 9 6c4-6 4-10 1-12z"/><path d="m270 62 2 1 5-5h1a1 1 0 0 1 1-1v1a3 3 0 0 1 1 0 5 5 0 0 1 1 1 4 4 0 0 0-2-2c-2-2-5-1-9 5zm5-6 1-1-1 1zm10 10a32 32 0 0 1-4 8l-13-9-2 2c-4 5-4 10-2 12-1-2 0-6 3-10l2-2 13 9c5-8 6-14 3-18v8zm-10 14c0 3-8 6-12 3a14 14 0 0 1-4-4 13 13 0 0 0 5 5 7 7 0 0 0 2 1h1a1 1 0 0 1-1 0c5 2 12-2 9-5zm-4 4a1 1 0 0 1 1 0h-1zm-53-27 3-1 9-24-2-5 8 2-10 28 1 3v1zm17-33a3 3 0 0 1-2-4 3 3 0 0 1 4-2 3 3 0 0 1 2 4 3 3 0 0 1-4 2z"/><path d="m218 57 3-1 9-24-2-5 8 2-10 28 1 3v1zm17-21v1l2-1v-1h-1a2 2 0 0 1 1-1l1-2-1-1zm2-2h-1 1z"/><path d="m230 63-2-3 1-3h-1a2 2 0 0 0 1-1v1-1 1l2-6a3 3 0 0 1-1 1l-3 7 2 3-1 1-7-3h-2a1 1 0 0 0 1 0l-1-1v1l10 4zm0-10zm2-4zm-2 0a8 8 0 0 1 2 0l4-10 1-2a4 4 0 0 1-2 0 1 1 0 0 1-1 2zm2-3zm3-9z"/><path d="M230 51a4 4 0 0 1 1 0l1-2a2 2 0 0 0-2 0zm10-29a3 3 0 0 0 0-1h-1a3 3 0 0 1 1 3 3 3 0 0 1-3 2 4 4 0 0 0 1 1 4 4 0 0 0-1-1 4 4 0 0 1-1 0 1 1 0 0 0-1 0 3 3 0 0 0 1 1 3 3 0 0 0 5-2h-1a5 5 0 0 1 0-3zm32 66 3-1 17-21-1-4 4 3a18 18 0 0 1 2 2c1 1-1 2-1 2l1 1h6v1a5 5 0 0 1 2 4c0 2-2 4-4 5h-4a3 3 0 0 1-1-3 1 1 0 0 1 1 0l4-3a2 2 0 0 0-1-2c-2-2-7 1-13 8l-8 10v3z"/><path d="M298 67a4 4 0 0 1 0 2 9 9 0 0 1 1 0 2 2 0 0 0 0-1 7 7 0 0 0-1-1zm-23 26 2 1-4-3h-1zm2 2a5 5 0 0 0-1-1zm29-20a6 6 0 0 1-2 5l1 1a5 5 0 0 0 1-6zm-26 21v-2l8-10 1-1 1-3-2 2-8 10-1 4-1-1v1l2 1zm11-16h1zm4-5a31 31 0 0 0-5 5v3a26 26 0 0 1 8-7 21 21 0 0 1-3-1zm6 1a2 2 0 0 0-1-2c-1-1-2 0-4 1a20 20 0 0 1 2 1 3 3 0 0 1 3 0zm0 6h-4c0 1 2 3 5 2a11 11 0 0 0 2-2h-2a11 11 0 0 1-1 0zm-1-1a2 2 0 0 1 1 0h-2zM44 93c-10 6-24 1-34-13C0 67-1 53 7 46h1a7 7 0 0 1 5-1h1l1-4 3-2 8 12-3 2c-6-5-9-7-12-5-5 4-4 12 6 25 8 12 14 17 19 18a7 7 0 0 0 6-2c2-2 3-7-1-12l-5-7-8 3-4-4 13-9 16 22h-5c0 5-2 8-4 10z"/></g><path fill="#a41237" d="M42 94c-9 6-23 1-34-13-9-13-10-27-2-34a7 7 0 0 1 6-1h1v-4l3-2 9 12-3 3c-6-6-9-8-12-5-6 3-4 12 6 25 8 11 14 16 19 17a7 7 0 0 0 5-1l1-1c2-2 3-6-1-12l-5-7-9 2-3-3 13-9 16 22-2 2-4-1h1c-1 5-2 8-5 10z"/><path fill="#161615" d="M33 97c-8 0-18-6-25-15C-2 68-3 54 6 47a7 7 0 0 1 4-2 7 7 0 0 1 2 0l1-3 3-3 10 14-4 2h-1c-4-4-7-6-9-6a4 4 0 0 0-2 1c-5 4-3 12 6 25 8 10 14 16 19 16a6 6 0 0 0 5-1c3-2 3-6-1-11l-5-7-8 2-4-4 14-10 17 23-3 2-3-1c0 5-1 8-4 10a16 16 0 0 1-10 3zM10 46a6 6 0 0 0-3 2H6c-8 6-7 20 3 33 7 9 16 15 24 15a15 15 0 0 0 9-3c3-2 4-4 4-9l-1-2 5 2 1-1-15-21-12 8 2 2 9-2 6 8c4 5 3 11 0 13a8 8 0 0 1-6 2c-5-1-12-7-20-18C6 62 4 53 9 49c4-2 7 0 13 5l2-2-8-11-2 1-1 5-1-1a6 6 0 0 0-2 0z"/><path fill="#161615" d="M49 84a17 17 0 0 1-1 7 1 1 0 0 0 1 1 13 13 0 0 0 2-8h-2zM18 68a59 59 0 0 1-2-3 2 2 0 0 1-1 0 1 1 0 0 1 1 0v-1h-3a5 5 0 0 1 2 0v-1a14 14 0 0 1-2-1 3 3 0 0 1 1 0 32 32 0 0 1-1-2 3 3 0 0 1-1-1 1 1 0 0 1 1 0 18 18 0 0 1-1-3 3 3 0 0 0 0 1v-1c-1-3 0-6 2-7l1-1a4 4 0 0 0-3 1c-4 3-3 9 3 19a161 161 0 0 0 3 0zm-8-12a25 25 0 0 1 2 3 7 7 0 0 1-2-3zm33 4h-1l2 1v-1a1 1 0 0 0-1 1 7 7 0 0 0 0-1zm-1 30c-5 0-11-5-20-17a98 98 0 0 1-4-5h-3a71 71 0 0 0 2 3 1 1 0 0 0 1-1l1 1-1 1 1 2a153 153 0 0 0 3 4 6 6 0 0 1 3 0v1a7 7 0 0 1-2-1l2 2h1a1 1 0 0 0-1 1c7 8 13 11 17 9zM20 73a1 1 0 0 0-1 0h1zm32-1zM29 50l-1-1a3 3 0 0 0 2 1v-1h-1l-1-3-2 1 1 3h1zm20 21v1a6 6 0 0 1 2 0l-6-7h1-1l-2-3a21 21 0 0 1-2-1l7 10h1zM22 37h-1l-1 1 1 2 1-3zm9 14-1-1 1 1a26 26 0 0 1-1-1 5 5 0 0 1-1 0h-1l1 1-2 2v1zm-4-6v1a3 3 0 0 0 1 0l-4-5-2-3v3a1 1 0 0 1-1 0l4 6 2-2zm-3-5a2 2 0 0 0 0 1h-1l1-1zm17 19-1 1v1l2-1zM16 45v-1a7 7 0 0 0-3 1 8 8 0 0 1 3 0zm39 38h1a1 1 0 0 1-1 0 1 1 0 0 1 1 0l1-1v-1l-5-7h-1a1 1 0 0 1 1-1h-1a7 7 0 0 0-2 0l7 9-2 1zm1-3-1 1a2 2 0 0 1 1-1zm-9 14a11 11 0 0 0 1-2l-1-1a10 10 0 0 1-3 4 15 15 0 0 1-4 2 16 16 0 0 0 5-2 2 2 0 0 0 0-1h1a1 1 0 0 1-1 1 14 14 0 0 0 2-1zm24-76zm-4 0a4 4 0 0 0 1-1l-1 1zm6-1-1 1 2-1a1 1 0 0 0-1 0zm-1-1h-1v1a1 1 0 0 0 1-1zm29-8v1h2a2 2 0 0 1-2-1zm3 0a1 1 0 0 1-1 0 1 1 0 0 1 0 1l2-1a2 2 0 0 1-1 0zm-17 3h2a2 2 0 0 1-2 0 257 257 0 0 0-11 3 2 2 0 0 1 1 1h2a1 1 0 0 1 0 1l20-6 2-2 2-1h-1l-14 4zm2 1v-1l1 1h-1zm201 15a5 5 0 0 0-5-5 4 4 0 0 0-4 2h2a3 3 0 0 1 2 0 4 4 0 0 1 3 3c0 3-2 4-4 4s-4 0-6-2h-1a52 52 0 0 1-1-1h-2v-1l-3 1h-1l3 1 2 1 2 1a12 12 0 0 0 6 2 6 6 0 0 0 1 0c4-1 6-3 6-6zM65 19zM174 2l9 1h1l2-2-2 2 19 3V5v1l4 1a3 3 0 0 1 1-1v1l19 4a3 3 0 0 1 2-1l-1 1 16 6a1 1 0 0 1 0-1l1 1 18 8 6 2a15 15 0 0 0 3-1l-10-4v-1l-19-7-11-4a253 253 0 0 0-29-6 1 1 0 0 1-1 0l-2-1-1 1V3l-12-1a1 1 0 0 1-1 0 1 1 0 0 1 0-1 253 253 0 0 0-10 0 7 7 0 0 0-1 1 2 2 0 0 0-1 0zm70 13v1l-1-1zm-19-5s-1 0 0 0zM76 16a6 6 0 0 0 0 1l1-1a1 1 0 0 0-1 0zm-1-1h1-1a1 1 0 0 1 1-1l-1 1zm0 1v1l-1-1v1h1v-1zm26-7zm70-7V1l-2 1h4a33 33 0 0 1 2-1l-2-1-2 1v1zm-66 4a5 5 0 0 1-1 1 2 2 0 0 1 1 1 4 4 0 0 1 1 0h1V7a1 1 0 0 1 0 1l2-1h1l7-1a20 20 0 0 0 2-3l-14 3zm5 0 1-1-1 1zm8-1-2-1a1 1 0 0 1 2 1zm0 0h1a3 3 0 0 1-1 0v1zm19-3a16 16 0 0 1 1-1l-17 2a9 9 0 0 1-1 2h1l14-2 1-1-1 1 10-1V1a1 1 0 0 1 1 1 1 1 0 0 1 1 0h7l1-2 2 1a4 4 0 0 1-1 1h8c1-1 2-1 1-2a259 259 0 0 0-5 0h-7v1a6 6 0 0 1-1 0 1 1 0 0 1-1 0l-1-1-12 1-2 1zm-7 1V2v1zm3 0V2l1 1h-1zm13-2 1 1-1-1zm-2 0v1-1zm-1 1-1-1 1 1zm-24 1-1 2h1l1-2h-1zM45 28l-4 2h-1a6 6 0 0 1-3 1c-2-1-4-2-4-5a4 4 0 0 1 3-3 3 3 0 0 1 2 1 2 2 0 0 0-1 1 2 2 0 1 0 4 1 2 2 0 0 0 0-1 5 5 0 0 0-5-4 5 5 0 0 0-2 1 3 3 0 0 1 1 1l-1-1a5 5 0 0 0-3 4 6 6 0 0 0 0 2h1v1c0 2 2 3 5 3a6 6 0 0 0 1 0 9 9 0 0 0 3 0h1v-1a1 1 0 0 1 1 0 28 28 0 0 0 1-1h1a247 247 0 0 1 25-11v-1l-3 1c-1-1-1 1-3 1a2 2 0 0 1 0-1l-19 8v1zm-3 3h-1v-1c1 1 2-2 3-1l-2 2z"/><path fill="#161615" d="M280 27a2 2 0 1 0 4-2 2 2 0 0 0-1 0h-1v1a1 1 0 0 1-1 0 1 1 0 0 0-1-1 4 4 0 0 0 0 1 2 2 0 0 0 0 1z"/></svg>