<svg xmlns="http://www.w3.org/2000/svg" xml:space="preserve" baseProfile="tiny" viewBox="-14.9 -15.3 709 392"><path d="m384 184.3.1-2.7v-10.1c0-1-.4-2-1.3-2.5l4.4-1.6v14.2c0 .8 0 1.7.2 2.7H384m12.5 0 7-14.5h-5c-.8 0-1.3 0-1.8.2v-2.2h11l-7.7 16.5h-3.5zm21.4.4c-1.2 0-2.5-.2-3.6-.7v-1.4a8 8 0 0 0 3.6.5 4 4 0 0 0 3.5-4c0-2.3-1.5-3.6-3.9-3.6-1 0-1.9.2-2.7.5l.5-8.2h8.6v2.2l-1.8-.2H418l-.2 4.1h2c3 0 4.8 2 4.8 4.9 0 3.3-2.5 5.9-6.7 5.9m26.1-10.4c0-4.4-2.4-7.1-6.5-6.7-3.2.2-5.3 3-5 6.1.2 3 2.3 4.6 5.6 4.3 1.3-.1 2.4-.8 2.8-1.5 0 4.3-2.5 7-7 6.7v1.4c5.6.7 10.5-2.6 10.2-10.3zm-6 2.1c-1.7 0-2.3-1.5-2.3-3.7 0-1.1.2-3.8 2.4-3.8 2 0 2.3 2.5 2.3 3.6 0 1 0 4-2.4 4z"/><path fill="#BE9E55" d="M342.4 193.6h-33.7l-40-133.8c-.3-1.3-1.1-3.9-1.1-5 0-1.6 1.1-2.5 2.7-2.5 1.2 0 2.2.6 2.6 1.7l42.8 129.5c45.9-36.6 70.4-81.9 66-137.8a75.6 75.6 0 0 0 19-7c10.8 59.6-9.3 114.2-58.3 154.9"/><path d="M223.1 184.3c.2-1 .2-2 .2-2.7v-11.4c0-1 0-1.4-.2-2.4h9.2v2.2a10 10 0 0 0-2-.2h-3.7v5h2.8l1.7-.1v2.2l-1.7-.2h-2.8v5.7h4.3c.8 0 1.3-.2 1.8-.3v2.2h-9.6m20.4.4c-1.8 0-3.4-.6-4.3-1.3v-1.6c1.2.8 2.5 1.3 4.3 1.2 1.5-.1 2.8-1 2.8-2.5.1-1.4-.8-2.2-2.8-3.2-3.1-1.4-4.4-2.5-4.3-5 0-2.6 2-4.8 5.3-4.8 1.4 0 2.8.2 3.8.8v1.7a6 6 0 0 0-3.3-1c-1.7 0-3 1-3 2.2-.1.6 0 1.3.6 1.8.5.5 1.3.9 2.4 1.4 3.1 1.4 4.4 2.7 4.4 5.3 0 2.5-1.8 5-6 5M265 170h-2.7v11.6c0 .8 0 1.7.2 2.7h-3.7c.2-1 .2-2 .2-2.7V170h-2.8c-.6 0-1.2 0-1.8.2v-2.4h12.4v2.4c-.6-.2-1.2-.2-1.8-.2m14 14.3h-2l-1.2.1v-2l1.2.2h2c.3 0 .7 0 1.1-.2v2l-1.2-.1m-.6-5h-4.9c.2-.4.2-.8.2-1v-9.5c0-.2 0-.6-.2-1h4.4c3.9 0 6.2 1.4 6.2 5.5 0 3.4-2.3 6-5.7 6m-.4-10h-1.5v8.4h1.2c2.1 0 3.5-1.2 3.5-4.5 0-2.6-1.4-3.9-3.2-3.9"/><path fill="#BE9E55" d="M411.7 42.2v7.7H410v-7.7h-2.4v-1.5h6.5v1.5h-2.4m10.4 7.7v-7.3h-.2l-2 7.3h-1.1l-2-7.3v7.3h-1.6v-9.2h2.4l1.8 6.5 1.7-6.5h2.4v9.2h-1.4M401 0c-18 14-46 19.5-79.8 7-13.1-5-24.7-7-34.2-7-25.3 0-38.2 14.1-38.2 29 0 12.2 8.4 20.6 19.4 20.6 2.5 0 5-.6 7.2-1.6l45.2 123.1a161 161 0 0 0 23.6-24.2c-2.6-.4-5-2.3-6.3-5.4L287 31.1c-3-6.8-5.4-11.6-9.3-13.7a30 30 0 0 1 19 1.3c6.2 2.5 16.7 9.1 29.8 14.8a94.8 94.8 0 0 0 34.8 9.4c18.6.9 39-6.8 49.7-16.8L401 0zM267.6 38.7c-4 0-7.3-3.3-7.3-7.1a7.3 7.3 0 0 1 14.5 0c0 3.8-3.3 7.1-7.2 7.1z"/><path fill="#BE9E55" d="M351 85.7a282 282 0 0 1 24.2-43.6c-.2 1-5.3 20.9-17.3 46.7a281.8 281.8 0 0 1-24.2 43.6c.2-1 5.3-20.8 17.3-46.7zm-10.5-7.2c9.7-21.3 19.6-35 20-35.7-.1.8-4 17.3-14 38.4-9.5 21.3-19.5 35-20 35.7.2-.8 4.2-17.2 14-38.4zm-9-7.9A177 177 0 0 1 348 41a174 174 0 0 1-11.5 32c-8 17.6-16.3 29-16.7 29.5a177 177 0 0 1 11.6-31.9zm-8-8a145.9 145.9 0 0 1 14-24.7c-.2.5-2.9 12-9.7 26.6a145.8 145.8 0 0 1-14 24.8c.1-.6 2.8-12 9.7-26.7zm-7.4-7.9A119 119 0 0 1 327.8 34c-.1.4-2.3 10-8 22.2A118.8 118.8 0 0 1 308.1 77c.1-.5 2.3-10 8-22.2zm-6.6-7.6a99.2 99.2 0 0 1 9.6-17c-.1.4-2 8.3-6.7 18.3a97.8 97.8 0 0 1-9.5 17c0-.4 1.9-8.2 6.6-18.3zm-6.3-7.4a76.8 76.8 0 0 1 7.9-13.7c0 .3-1.5 6.7-5.3 14.9a76.7 76.7 0 0 1-7.9 13.8 74 74 0 0 1 5.3-15zm.4-17.7c0 .2-1.1 5.3-4.1 11.7-3 6.5-6 10.6-6.2 10.8A57.5 57.5 0 0 1 303.6 22z"/><path d="M671.6 228.2a6.7 6.7 0 1 0 0 13.5 6.7 6.7 0 1 0 0-13.5m0 12.2a5.5 5.5 0 0 1-5.5-5.5c0-3 2.4-5.4 5.5-5.4 3 0 5.5 2.4 5.5 5.4 0 3-2.4 5.5-5.5 5.5"/><path d="M674.8 233.3c0-.6-.3-1.2-.8-1.5-.5-.3-1.1-.4-1.7-.4h-3v6.9h1V235h1.2l2 3.2h1.2l-2.1-3.2c1.2 0 2.2-.5 2.2-1.8m-3.3 1h-1.2v-2h1.8c.9 0 1.6 0 1.6 1 0 1.1-1.3 1-2.2 1m-45.2 112c-15.7 0-24.9-4.9-29.8-4.9V316h2.5c2.2 11 13.8 18.6 26 18.6 10.4 0 18.7-5.4 18.7-16.3 0-7.4-3.7-13.9-13.2-20.4l-13.3-9c-11.6-7.8-21.3-16.7-21.3-32.6 0-18.8 12.8-30.9 34-30.9 12.7 0 18 3 25.3 3.6v22h-2.6c-1.6-8.4-10.4-15-22.1-15-11 0-16 5.9-16 13.8 0 6.9 4.3 12.3 14.5 19.2l11.6 7.6c17.7 11.7 23.2 20.2 23.2 34.9 0 21.5-15.2 34.7-37.5 34.7zm-75.2 0c-15.7 0-24.8-4.9-29.8-4.9V316h2.6c2.2 11 13.7 18.6 26 18.6 10.4 0 18.6-5.4 18.6-16.3 0-7.4-3.6-13.9-13.2-20.4l-13.3-9c-11.5-7.8-21.2-16.7-21.2-32.6 0-18.8 12.8-30.9 34-30.9 12.6 0 18 3 25.2 3.6v22h-2.5c-1.7-8.4-10.5-15-22.2-15-11 0-15.9 5.9-15.9 13.8 0 6.9 4.2 12.3 14.5 19.2l11.5 7.6c17.7 11.7 23.2 20.2 23.2 34.9 0 21.5-15.2 34.7-37.5 34.7m-102.4-1.8V342c1-.9 1.1-5.6 1.1-8.1v-92.2c0-7.6-2.5-11.6-5.3-12.1v-2.4h64.2v16h-2.4c-.5-2.8-6-4.6-9.5-4.6h-24.3v40.2H493c2.7 0 9.1-.8 9.9-2.6h2.3v15.2H503c-1-.9-6-1.3-9.2-1.3h-21.2V333h24.1c6.6 0 10.7-2.5 11.4-5.4h2.4v16.8h-61.7zm-33.6 0-60.5-105.8c-2-3.6-5.9-8.5-9.3-9v-2.4h29.2l42.2 74.9v-60.4c0-7.6-2-11.6-4.5-12.1v-2.4h17.3v117.2h-14.4zm-62.9 0V342c1-.9 1-7.7 1-9v-80.8l12.9 23.3v57c0 4.5.9 9 1.8 9.5v2.4h-15.7zm-33.3 0-60.5-105.8c-2-3.6-5.9-8.5-9.4-9v-2.4h29.3l42.2 74.9v-60.4c0-7.6-2-11.6-4.5-12.1v-2.4h17.3v117.2H319zm-63 0V342c1-.9 1.2-7.7 1.2-9v-80.8l12.8 23.3v57c0 4.5.9 9 1.8 9.5v2.4H256zm-42.5 0V342c.7-.5 1.3-5.6 1.3-8.6v-91.7c0-7.6-2.6-11.6-5.3-12.1v-2.4h27.8v104.2c0 6.7 1.2 10.4 2 10.6v2.4h-25.8zM192.9 324c-4.4 14.7-16.3 22-35.5 22-27.8 0-39.5-15.3-39.5-38.8v-65.6c0-7.6-2.5-11.6-5.3-12.1v-2.4h28.2V308c0 7.7 1 11.9 2.6 15.1 3.6 7 10.2 9.3 17.3 9.3 7.5 0 14.7-2.2 18.3-9.3 1.7-3.2 2.6-7.4 2.6-16v-65.3c0-7.6-2.6-11.6-5.3-12.1v-2.4H195v78.1c0 9.2-.7 14.3-2.2 18.8zm-93.2-37v53.7c-1.3.5-17.4 5.7-38.6 5.7C28 346.5 0 323 0 273.3c0-42.8 24.5-71.2 60-71.2 17.3 0 25.6 4.4 30.7 4.4.7 0 1-.2 1.3-.4h1.8v29h-3c-3.4-14.7-15-21.2-27.7-21.2-20.9 0-37.9 17.1-37.9 58.5 0 44.3 18.9 61.9 38.6 61.9 5.7 0 9.7-.8 12.3-1.9v-42.3c0-6.1-1.7-13.9-8.4-15.3v-2.6h33.2v2.4a43 43 0 0 0-1.2 12.5z"/></svg>