<svg xmlns="http://www.w3.org/2000/svg" version="1.0" viewBox="0 0 109.8 94.8"><path fill="#293d2c" fill-rule="evenodd" d="M55.5 0v.7h-.2l-.7-.2.6.8.2.2v.2l-.2.6c-.1.4 0 .7.2.8v.1a6 6 0 0 1-.9 1c-.6.8-1 1.8-.2 2.4a2.9 2.9 0 0 0-1 1l.5.6v2.2l-.1.2-.1.3v.7l-.8 1c-.3.7-.4 1.2-.4 1.9a2 2 0 0 0-.6.5v1.5h-5l-4 2.5.3.4h.2v2.4c-1.2 0-2.3.6-2.7 1.8-1-.1-2 .1-2.8 1-1.1 1-1.3 2.6-1 4.3a35 35 0 0 1 6.5-.9v.5h9.4v.3H57v-.3h6.3c.5.2 1.2.3 2 .3s1.5-.1 2-.3V28c2.3 0 4.5.4 6.6 1 .2-1.8.1-3.4-1-4.5a4 4 0 0 0-2.8-1c-.4-1-1.6-1.7-2.8-1.7v-2.3l.2-.3-.2-.2-1.8-3.3c.1 0 .2-.2.1-.4l-.2-.6v-.3c0-.1-.2-.1-.2 0v.3l-.2.6c0 .2 0 .4.2.4l-1.6 3-1.8-2.2h-2.6V15a2 2 0 0 0-.7-.5c0-.7 0-1.2-.3-1.8a5 5 0 0 0-.8-1.1v-.7l-.2-.5V8.2l.4-.6a3 3 0 0 0-.9-1c.9-.6.4-1.6-.3-2.3l-.8-1V3c.2-.1.3-.4.2-.8l-.2-.6.5.4-.3-.7.3-.1-.5-.4V0l-.2-.1zm0 3.6c.3.6.8 1.9.4 2.6h-.7c-.4-.7 0-2 .3-2.6zm6.1.2-1 3.5.9.3c.8.2 1.3-.1 1.4-.6.2-.5 0-1-.4-1 .4 0 .7-.3.8-.7.2-.5 0-1-.7-1.2l-1-.3zm-6.6.3c-.2.8-.4 1.6 0 2.2a3 3 0 0 0-.5.2c-1-.7-.1-1.6.5-2.4zm1 0 .3.4c.6.6 1 1.4.2 2l-.3-.2c.2-.6.1-1.4-.1-2.1zm6 .2.3.1c.5.2.6.5.5.8 0 .4-.4.5-.9.4l-.3-.1.4-1.2zm-13 .4h-.2c-.5.2-.8.7-.7 1.1.1.4.3.5.8.5h.3c.3.1.4.2.5.4 0 .2 0 .4-.4.5h-.7v.4h.9c.6-.2.7-.7.6-1.1-.1-.4-.4-.5-.8-.6h-.1c-.4 0-.6 0-.6-.3-.1-.2 0-.4.3-.5h.6l-.1-.4H49zm-3 1.1-.4.1c-.6.3-.7 1-.4 1.8.4.8 1 1.1 1.6.8.3 0 .5-.3.7-.4l-.2-.4-.5.5c-.5.2-.8 0-1-.6l1.4-.7-.1-.2c-.3-.5-.7-.9-1-.9zm15.5 0 .5.2c.4.1.5.5.4.8 0 .3-.4.6-.9.4l-.4-.1.4-1.3zM46 6.2c.2 0 .4.2.6.6l-1 .5c-.3-.6-.2-1 .1-1l.3-.1zm19.7 0c0 .2-.2.4-.3.5l-1 2 .5.2.7-1.3c.2-.6.6-.7 1-.6v.1l.3-.4c-.4-.2-.7-.2-1 0l.2-.3-.4-.2zm-10.5.3h.7l.4.8v.2h-1.5v-.3l.4-.7zm-.4.2-.3.5v.4c-.2 0-.4 0-.6.2l-.2-.3c.3-.4.6-.6 1-.8zm1.5 0c.4.2.8.4 1 .8l-.1.3-.7-.2v-.4l-.2-.5zM41 6.9l-.4.3 2.3 3.5.4-.3-1-1.4c-.2-.4-.2-.8.1-1 .3-.1.5 0 .8.3l1 1.5.3-.2-1-1.6c-.4-.5-.8-.6-1.2-.3-.3.1-.4.4-.4.7L41 6.9zm13.7.9h1.5v2.4h-1.5V7.8zm-.3 0v2.4H54V8l.4-.2zm2 0 .5.2v2.3a3 3 0 0 0-.5-.1V7.8zm12 .2-.2.4c.3 0 .6 0 .8.2.2.1.3.3.3.4 0 .2 0 .3-.2.4v.2l-.3-.2c-.8-.6-1.3-.5-1.7 0-.3.4-.1.8.3 1.1.3.3.6.2.9.2l-.2.3.3.2.3-.3.8-1.2c.3-.3.2-.6.2-.7 0-.2-.1-.4-.5-.7a1 1 0 0 0-.7-.3zM40.3 9.3l-.5.3c-.5.5-.5 1.3 0 2 .6.5 1.3.7 2 .2l.3-.5-.3-.3-.3.5c-.3.3-.8.2-1.2-.3-.6-.5-.5-1-.2-1.3l.5-.3-.3-.3zm27.9.1c.1 0 .4 0 .6.2l.2.2-.2.3c-.2.3-.6.4-1 .2a.5.5 0 0 1 0-.7l.4-.2zm-13.3 1h1.5l.1.5v.4h-1.8V11l.1-.3v-.2zm-.4.1v.9H54V11l.1-.3.4-.1zm2.2 0 .5.1.1.3v.5h-.5v-.9zm15.5 0L70.7 12c-.5.5-.5 1-.1 1.3.2.2.5.3.8.2l-.2.3.3.3.4-.4 1.6-1.5-.4-.4L72 13c-.4.3-.7.3-1 0-.2-.2-.2-.4.2-.7l1.3-1.3-.3-.3zm-16.6 1 1 .1.3 1.5.1 1h-2.7v-1l.4-1.5h1zm-17.7.2c-.2 0-.3.2-.5.3a1 1 0 0 0 0 1.3c.3.2.5.2 1 0l.2-.1h.6c.2.2.2.4 0 .7l-.7.3.3.3c.2 0 .4-.2.6-.4.5-.5.4-1 0-1.3-.2-.2-.6-.2-.9 0h-.1c-.3.2-.6.2-.7 0-.2 0-.2-.3 0-.6l.5-.3-.3-.2zm16.5 0L54 13v1c-.5.1-1 .2-1.3.4 0-1.1.3-1.8 1-2.6h.1l.5-.1zm2.5 0h.5c.7.9 1.1 1.6 1 2.7a2 2 0 0 0-1.1-.3c0-.9-.2-1.6-.5-2.4zm-1.3.8h-.3l-.2.5v.5h.9V13l-.2-.5h-.4zm-1.7.1h-.3a3 3 0 0 0-.4 1.2l.5-.1a6 6 0 0 1 .2-1zm3.5 0 .1.6v.5h.6a3 3 0 0 0-.4-1h-.3zm-22.5.8-.3.4.5.3.3-.4-.5-.3zm41.5 0-3.5 2.3.2.4 1.4-1c.5-.2.8-.1 1 .2.2.2.1.5-.3.7l-1.5 1 .2.4 1.7-1c.5-.4.6-.8.3-1.2a.8.8 0 0 0-.7-.4l1.4-1-.2-.3zm-40.5.7-.3.3 2.3 1.7.2-.4-2.3-1.6zm19.7.2c2.3 0 3.1.4 3.5.8v1.4h-1.8v-.4H56v.4h-.5v-.4h-1.2v.4h-.5v-.4h-1.2v.4h-.5v-1.4c.3-.4 1.1-.8 3.4-.8zm-21 1.7-.3.4c-.2.5-.1 1 .3 1.2.3.2.6.2 1-.1l.2-.2c.2-.2.3-.2.5-.1.2 0 .3.3.1.6-.1.2-.2.4-.5.5l.4.2c.2-.1.4-.3.5-.6.3-.5 0-1-.4-1.2-.3-.1-.6 0-.9.2v.1c-.3.2-.5.3-.7.2-.2-.1-.3-.3-.1-.6 0-.2.2-.3.3-.4l-.3-.2zm31 0 1.7 3a7.8 7.8 0 0 0-3.5 0l1.7-3zm-12.6.4h.6v.4h1v-.4h.7v.4h1v-.4h.7v2.4h-.7c0-.4-.2-.5-.5-.5l-.4.2a.6.6 0 0 0-.4-.2l-.4.2a.6.6 0 0 0-.4-.2c-.3 0-.5.1-.5.5H53v-2.4zm-6 .4h5.8V19h-9.3l3.5-2.2zm10.2 0h4.7l1.7 2.1v.1H57v-2.2zm-3 .5v.5h.5v-.5H54zm1 0v.5h.6v-.5h-.5zm22.1 1-.4.3c.3 0 .5.3.6.5v.6l-.4.2-.2-.2c-.4-1-.9-1.1-1.4-1-.5.3-.6.7-.4 1.2.1.4.4.5.7.6l-.4.2.2.4.4-.2 1.3-.6c.4-.1.5-.3.6-.5 0-.1.1-.4 0-.8l-.6-.7zm-23.1.3c.2 0 .3 0 .3.2v.3h.2v-.3c0-.1.1-.2.3-.2.2 0 .3 0 .3.2v.3h.2v-.3c0-.1.1-.2.3-.2.2 0 .3 0 .3.2v5h-.4v-1.6h-.4v1.6h-.6v-1.6h-.4v1.6h-.4v-5c0-.1 0-.2.3-.2zm-20.7.3c-.3.1-.5.3-.6.6-.2.7.2 1.2 1 1.5.8.3 1.5.2 1.7-.5l.2-.8-.5-.1v.6c-.1.5-.5.7-1.1.4l.6-1.4-.3-.1c-.4-.2-.7-.2-1-.2zm19.5.3h.7v4.6H53v-4.6zm3.3 0h.7v4.6h-.7v-4.6zm19.7 0c.2 0 .4.2.6.6v.3l-.2.1c-.4.2-.8 0-1-.3 0-.3 0-.6.3-.7h.3zm-10.5 0 1.8.2v1.7h-.6v-.7c0-.2-.1-.3-.2-.3-.2 0-.2.1-.2.3v.7h-1.5v-.7c0-.2 0-.3-.2-.3-.1 0-.2.1-.2.3v.7h-.6v-1.7l1.7-.1zm-31.9.1c.2 0 .4 0 .7.2l-.5 1c-.6-.2-.7-.6-.6-.8 0-.2.2-.3.4-.4zm10.1.1h9V24h-.9v-1.3h-.3V24H51v-1.3h-.4V24h-.8v-1.3h-.3V24H49v-1.3h-.3V24h-.8v-1.3h-.4V24h-.4v-1.3h-.4V24H46v-1.3h-.3V24h-.4v-1.3h-.4V24h-1.2v-4.6zm13.5 0h6.3V24h-.6v-1.3h-.4V24H62v-1.3h-.3V24h-1.2v-1.3H60V24h-.4v-1.3h-.4V24h-.5v-1.3h-.3V24H58v-1.3h-.4V24H57v-4.6zm-2.8.3v1.1h.4v-1.1h-.4zm.8 0v1.1h.4v-1.1h-.4zm-9.7.1c-.3 0-.5.1-.5.4v1h.9v-1c0-.2-.2-.4-.4-.4zm3.8 0c-.2 0-.4.1-.4.4v1h.8v-1c0-.2-.1-.4-.4-.4zm9 0c-.3 0-.4.1-.5.4v1h.9v-1c0-.2-.2-.4-.4-.4zm4 0c-.3 0-.4.1-.5.4v1h.9v-1c0-.2-.2-.4-.4-.4zM55 21.3c-.4 0-.7.2-.7.7h1.4c0-.5-.3-.7-.7-.7zm10.6 0h1.7v1.2h-.4c0-.2-.2-.3-.4-.3-.3 0-.5 0-.5.3h-1c0-.2-.2-.3-.4-.3-.3 0-.4 0-.4.3h-.4v-1c.5-.2 1.1-.2 1.8-.2zm-34.6.5v.5l.4.2.2-.5-.6-.2zm14.5 0c-.4 0-.6.3-.6.7H46c0-.4-.2-.6-.5-.6zm2 0c-.4 0-.6.3-.6.7h1c0-.4-.1-.6-.5-.6zm1.9 0c-.4 0-.6.3-.6.7h1.1c0-.4-.2-.6-.5-.6zm1.9 0c-.4 0-.6.3-.6.7h1.1c0-.4-.2-.6-.5-.6zm7 0c-.4 0-.6.3-.6.7h1.1c0-.4-.2-.6-.5-.6zm1.6 0c-.3 0-.6.3-.6.7h1.2c0-.4-.2-.6-.6-.6zm2.4 0c-.4 0-.6.3-.6.7h1.1c0-.4-.2-.6-.5-.6zm-19.3.3h.4v1.2c-.9.1-1.7.6-2.1 1.4-1.9 0-3 1.7-2.9 3.5l-1.3.3c-.2-1.5 0-2.9 1-3.8.8-.8 1.7-1 2.8-.9.3-1 1.1-1.6 2.1-1.7zm24.5 0c1.2 0 2.2.6 2.6 1.7 1 0 2 .1 2.8 1 1 .8 1.2 2.2 1 3.7l-1.4-.3c.1-1.8-1-3.4-2.8-3.5a2.6 2.6 0 0 0-2.2-1.4v-1.2zM32 22v.5l2.7.7v-.5l-2.7-.6zm46.8.3-1.9.4c-.6.1-.8.5-.7 1 0 .3.2.6.6.7h-.4v.5l.6-.1 2.2-.5V24l-1.7.3c-.5.1-.8 0-1-.5 0-.3.2-.5.6-.6L79 23v-.5zm-14.5.4V24h.4v-1.3h1.5V24h.4v-1.3h.6V25a16.7 16.7 0 0 1-3.5 0v-2.2h.6zm-21 .9v.7a2 2 0 0 0-1.5 1.3c-1.4-.2-2.6 1-2.5 2.3l-.6.2c0-1.8.9-3.2 2.7-3.2.4-.8 1-1.3 2-1.3zm24.1 0c1 0 1.6.5 2 1.3 1.8 0 2.8 1.4 2.7 3.2l-.6-.2c0-1.4-1.1-2.5-2.5-2.3a2 2 0 0 0-1.6-1.3v-.7zm-35.8.3c0 .4 0 .6.4.8h-.5v.4h.6l2.2.4V25l-1.5-.2c-.6 0-.8-.4-.8-.7V24h-.4zm21.3.2h4v3.5h-.5V26c0-1-.7-1.5-1.5-1.5s-1.5.5-1.5 1.5v1.8h-.5v-3.5zm-9.3.2h9v3h-.9V26h-.4v1.5h-.6V26h-.5v1.5H49V26h-.4v1.5H48V26h-.5v1.5h-1.2V26h-.5v1.5h-.5V26h-.5v1.5h-1.2v-3zm13.5 0h6.3v3H63V26h-.5v1.5H62V26h-.5v1.5h-1.3V26h-.5v1.5H59V26h-.4v1.5H57v-3zm-13.8.4v2.9l-3.6.3a2 2 0 0 1 1-1.8c.5-.3.8-.2 1.3-.1v-.2c.2-.6.7-1 1.3-1.1zm11.6 0c.7 0 1.2.4 1.2 1.1v1.8h-.6V26c0-.4-.2-.5-.6-.5-.3 0-.6.1-.6.5v1.8h-.6V26c0-.7.6-1.2 1.2-1.1zm12.5 0c.6 0 1.1.5 1.3 1.1v.2c.6-.1.9-.2 1.4 0a2 2 0 0 1 1 1.9c-1.2-.2-2.4-.3-3.7-.3v-3zm-21.8 0c-.6 0-.8.4-.8.8h.5c0-.2 0-.4.3-.4.2 0 .2.2.2.4h.5c0-.4-.2-.8-.7-.8zm2.7 0c-.6 0-.8.4-.8.8h.5c0-.2 0-.4.3-.4.2 0 .3.2.3.4h.4c0-.4-.2-.8-.7-.8zm2.7 0c-.6 0-.7.4-.8.8h.5c0-.2 0-.4.3-.4.2 0 .3.2.3.4h.4c0-.4-.2-.8-.7-.8zm8.3 0c-.5 0-.7.4-.7.8h.4c0-.2.1-.4.3-.4.2 0 .3.2.3.4h.5c0-.4-.2-.8-.8-.8zm2.9 0c-.6 0-.8.4-.8.8h.4c0-.2.2-.4.4-.4s.2.2.2.4h.5c0-.4-.2-.8-.7-.8zm5 .6v2a8.1 8.1 0 0 1-3.5 0v-2h3.5zm-3 .2v1.2h.5v-1.1h-.4zm2.4 0h-.4V27h.4v-1.3zm-36.3 1v1.8l3.9.1V28h-1.8v-1.2H32V28h-1.3v-1.3h-.4zm48.3.2c-.3 0-.5.2-.7.6l-.1.3c-.1.3-.3.4-.5.4s-.4-.2-.4-.5.1-.5.3-.7h-.5l-.1.7c0 .7.4 1 .9 1 .3 0 .5-.3.7-.6v-.2c.1-.3.3-.5.5-.5s.4.2.4.5l-.1.5h.4v-.6c0-.5-.3-.9-.8-.9zm-35 .9h9v.5h-9v-.5zm13.5 0h6.3v.5h-6.3v-.5zm6.6 0a9.1 9.1 0 0 0 3.5 0v.5l-1.8.2c-.6 0-1.2 0-1.7-.2v-.5zM53 28h4v.4h-4V28zm5.4 7-3.5 31.4L51.1 35c-1.8 0-4.5.1-8.4.4l8.1 59.4h8.5l7.4-59.4a138 138 0 0 0-8.4-.4zm-18 .7c-4.8.3-11.5 1.5-14.4 2V92a171 171 0 0 0 15 2.3v-9.4l-6.6-.8V69.9h6.4v-9.7h-6.4V44.7l6-.7v-8.3zm30 0V94c4.5-.5 9.7-1 14.2-2.2v-9.1l-5.8 1V70h5.8v-9.7h-5.8V45.5l5.7 1V38c-2.7-.6-9.6-1.8-14.1-2.1zm-50 3.3A79.8 79.8 0 0 0 0 47v9c4.1-2.3 8.7-4.2 12-5.4v25c0 1.7-.9 2.3-2 2.1a2 2 0 0 1-2-2v-8H0V76c0 5.6 3.6 10.8 10.2 11.1 6.6.3 10.2-4.2 10.2-10V39zm69.4.2v51.4c3-.8 5.7-1.6 8.1-2.5V69h3.5s.8 0 1.1.3c.3.3.3 1.1.3 1.1v15.8a59 59 0 0 0 7-3.6V69a5 5 0 0 0-3.8-4.7c2.7-.8 3.9-2.8 3.9-5.6V52c0-1.3-.4-3.3-1.5-5-1-1.3-2.2-2-3.6-2.6a77 77 0 0 0-15-5.3zm8.1 10.7 4.2 1.6.4.5c.2.2.3.5.3.8v6s0 .8-.4 1.1c-.3.4-1.1.3-1.1.3h-3.4V50z"/></svg>