<?xml version="1.0" encoding="UTF-8" standalone="no"?>
<!-- Created with Inkscape (http://www.inkscape.org/) by Marsupilami -->
<svg
   xmlns:svg="http://www.w3.org/2000/svg"
   xmlns="http://www.w3.org/2000/svg"
   version="1.0"
   width="889"
   height="768"
   viewBox="0 0 109.78124 94.83963"
   id="svg15134">
  <defs
     id="defs15136" />
  <g
     transform="translate(-320.10938,-484.94237)"
     id="layer1">
    <path
       d="M 375.64062,484.94237 C 375.57239,484.94237 375.51562,484.97631 375.51562,485.06737 L 375.51562,485.59862 L 375.45312,485.56737 L 374.73438,485.47362 L 375.29688,486.25487 L 375.51562,486.41112 L 375.51562,486.66112 C 375.51562,486.84228 375.31661,487.06927 375.26562,487.28612 C 375.18687,487.61882 375.29413,487.91726 375.51562,488.00487 L 375.51562,488.16112 C 375.25843,488.56517 375.03719,488.81354 374.64062,489.22362 C 373.96827,489.91819 373.54783,490.91541 374.39062,491.56737 C 374.11639,491.7439 373.86506,491.97248 373.67188,492.22362 C 373.58104,492.34085 373.48438,492.50486 373.48438,492.50487 L 373.92188,493.09862 L 373.92188,495.34862 C 373.86401,495.41024 373.82372,495.50432 373.79688,495.56737 C 373.75464,495.66652 373.70314,495.81736 373.70312,495.81737 L 373.70312,496.50487 C 373.4728,496.7346 373.0937,497.23821 372.92188,497.59862 C 372.60586,498.26175 372.49407,498.73385 372.54688,499.44237 C 372.29899,499.56933 372.08309,499.7408 371.92188,499.94237 L 371.92188,501.44237 L 366.89062,501.44237 L 362.95312,503.94237 L 363.20312,504.34862 L 363.45312,504.34862 L 363.45312,506.75487 C 362.24236,506.73912 361.13936,507.37105 360.73438,508.50487 C 359.74923,508.41218 358.74562,508.68038 357.92188,509.47362 C 356.78747,510.56625 356.64625,512.18461 356.85938,513.84862 C 359.02747,513.32126 361.22213,513.02135 363.45312,512.97362 L 363.45312,513.44237 L 372.76562,513.44237 L 372.76562,513.72362 L 377.20312,513.72362 L 377.20312,513.44237 L 383.54688,513.44237 C 384.03757,513.59438 384.7578,513.69237 385.54688,513.69237 C 386.33602,513.69237 387.05616,513.59439 387.54688,513.44237 L 387.54688,512.97362 C 389.77798,513.02135 391.97217,513.32126 394.14062,513.84862 C 394.35378,512.18461 394.21288,510.56626 393.07812,509.47362 C 392.25473,508.68038 391.25121,508.41218 390.26562,508.50487 C 389.86072,507.37057 388.75847,506.73824 387.54688,506.75487 L 387.54688,504.47362 L 387.73438,504.12987 L 387.54688,503.94237 L 385.67188,500.69237 C 385.83312,500.61588 385.86559,500.46752 385.82812,500.25487 C 385.79378,500.05748 385.66615,499.84012 385.64062,499.69237 L 385.64062,499.34862 C 385.64062,499.19253 385.42187,499.19253 385.42188,499.34862 L 385.42188,499.69237 C 385.39369,499.83974 385.27238,500.06164 385.23438,500.25487 C 385.19358,500.46193 385.22519,500.61634 385.39062,500.69237 L 383.76562,503.56737 L 382.04688,501.44237 L 379.35938,501.44237 L 379.35938,499.94237 C 379.19817,499.7408 378.98225,499.56933 378.73438,499.44237 C 378.78724,498.73385 378.70627,498.26175 378.39062,497.59862 C 378.21878,497.23822 377.80846,496.7346 377.57812,496.50487 L 377.57812,495.81737 C 377.5471,495.7382 377.48474,495.45519 377.39062,495.34862 L 377.39062,493.09862 L 377.82812,492.50487 C 377.58348,492.11889 377.28793,491.80507 376.92188,491.56737 C 377.76152,490.91542 377.31209,489.91773 376.64062,489.22362 C 376.23797,488.80705 376.05675,488.57722 375.79688,488.16112 L 375.79688,488.00487 C 376.01504,487.9159 376.07866,487.62113 376.01562,487.28612 C 375.97351,487.06093 375.79687,486.84227 375.79688,486.66112 L 375.79688,486.62987 L 376.29688,487.00487 L 376.01562,486.34862 L 376.32812,486.19237 L 375.79688,485.81737 L 375.79688,485.06737 C 375.79688,484.97631 375.70886,484.94237 375.64062,484.94237 z M 375.64062,488.50487 C 375.95064,489.17907 376.3912,490.39399 375.98438,491.19237 C 375.87782,491.18635 375.75138,491.19237 375.64062,491.19237 C 375.53035,491.19237 375.43466,491.18635 375.32812,491.19237 C 374.92126,490.39399 375.33061,489.17907 375.64062,488.50487 z M 381.73438,488.75487 L 380.67188,492.25487 L 381.57812,492.53612 C 382.38532,492.7831 382.86685,492.42844 383.01562,491.94237 C 383.16576,491.4512 382.96178,491.03718 382.57812,490.84862 C 382.98077,490.86203 383.33637,490.63578 383.45312,490.25487 C 383.61064,489.73872 383.38918,489.25529 382.67188,489.03612 L 381.73438,488.75487 z M 375.14062,489.06737 C 374.8886,489.80225 374.7279,490.65712 375.01562,491.25487 C 374.88591,491.3012 374.76571,491.34624 374.64062,491.41112 C 373.65085,490.76612 374.47568,489.81013 375.14062,489.06737 z M 376.17188,489.09862 C 376.2572,489.19175 376.34704,489.3013 376.45312,489.41112 C 377.02071,489.9982 377.46635,490.86435 376.64062,491.41112 C 376.51831,491.34857 376.40052,491.3021 376.26562,491.25487 C 376.54976,490.66454 376.4189,489.82653 376.17188,489.09862 z M 382.10938,489.25487 L 382.45312,489.37987 C 382.94146,489.52955 383.04538,489.82915 382.95312,490.12987 C 382.83818,490.50565 382.53593,490.6638 382.01562,490.50487 L 381.73438,490.41112 L 382.10938,489.25487 z M 369.20312,489.62987 C 369.10258,489.64261 369.00135,489.65854 368.89062,489.69237 C 368.36839,489.85223 368.09856,490.31191 368.23438,490.75487 C 368.33912,491.09775 368.54603,491.22959 368.98438,491.28612 L 369.32812,491.31737 C 369.60987,491.3526 369.74032,491.44498 369.79688,491.62987 C 369.85987,491.83559 369.72843,492.05781 369.39062,492.16112 C 369.16913,492.22879 368.94083,492.22093 368.70312,492.16112 L 368.79688,492.56737 C 369.02256,492.60768 369.29873,492.59015 369.57812,492.50487 C 370.19533,492.31632 370.34488,491.87538 370.20312,491.41112 C 370.10112,491.07889 369.82019,490.91184 369.45312,490.87987 L 369.26562,490.87987 C 368.93481,490.85435 368.73808,490.78377 368.67188,490.56737 C 368.60743,490.35654 368.72555,490.12507 369.01562,490.03612 C 369.21577,489.97495 369.42157,489.98356 369.57812,490.00487 L 369.48438,489.62987 C 369.39917,489.62431 369.30367,489.61712 369.20312,489.62987 z M 366.14062,490.75487 C 366.00431,490.74937 365.87918,490.78409 365.73438,490.84862 C 365.09447,491.13355 364.96907,491.79283 365.32812,492.59862 C 365.68723,493.40485 366.24166,493.77665 366.92188,493.47362 C 367.17858,493.35917 367.41917,493.19067 367.57812,493.00487 L 367.39062,492.62987 C 367.29151,492.80085 367.10243,493.00405 366.89062,493.09862 C 366.42223,493.30713 366.09281,493.13061 365.82812,492.53612 L 367.26562,491.87987 L 367.17188,491.66112 C 366.91958,491.09396 366.54958,490.77135 366.14062,490.75487 z M 381.64062,490.78612 L 382.07812,490.91112 C 382.52946,491.04917 382.65715,491.39392 382.54688,491.75487 C 382.44582,492.08525 382.14008,492.31403 381.64062,492.16112 L 381.23438,492.03612 L 381.64062,490.78612 z M 366.07812,491.12987 C 366.31192,491.14574 366.5245,491.3542 366.70312,491.75487 L 365.67188,492.22362 C 365.41517,491.61988 365.55605,491.31331 365.82812,491.19237 C 365.91255,491.15473 366.00019,491.12457 366.07812,491.12987 z M 385.79688,491.12987 C 385.71488,491.31108 385.63639,491.50889 385.54688,491.69237 L 384.57812,493.66112 L 385.01562,493.87987 L 385.67188,492.53612 C 385.94016,491.98608 386.30885,491.8119 386.64062,491.97362 C 386.69673,492.00095 386.7506,492.03261 386.79688,492.06737 L 386.98438,491.66112 C 386.60154,491.47438 386.34473,491.48825 386.04688,491.72362 L 386.20312,491.31737 L 385.79688,491.12987 z M 375.32812,491.47362 C 375.43601,491.46665 375.50816,491.47362 375.64062,491.47362 C 375.77364,491.47362 375.87595,491.46665 375.98438,491.47362 C 376.15766,491.67888 376.32854,491.97039 376.39062,492.19237 L 376.39062,492.44237 C 376.17557,492.42152 375.94641,492.44237 375.64062,492.44237 C 375.35196,492.44237 375.12852,492.4523 374.92188,492.47362 L 374.92188,492.19237 C 374.98402,491.97039 375.15476,491.67888 375.32812,491.47362 z M 374.89062,491.59862 C 374.77985,491.78303 374.68283,491.9938 374.64062,492.16112 L 374.64062,492.50487 C 374.44933,492.55169 374.25749,492.61725 374.01562,492.75487 L 373.79688,492.47362 C 374.06933,492.08529 374.45635,491.79552 374.89062,491.59862 z M 376.39062,491.59862 C 376.82524,491.79552 377.21144,492.08529 377.48438,492.47362 L 377.29688,492.75487 C 377.05498,492.61357 376.83155,492.5512 376.64062,492.50487 L 376.64062,492.16112 C 376.59799,491.9938 376.50185,491.78303 376.39062,491.59862 z M 361.23438,491.87987 L 360.82812,492.16112 L 363.07812,495.62987 L 363.48438,495.34862 L 362.54688,493.94237 C 362.27073,493.51654 362.33524,493.1719 362.64062,492.97362 C 362.89037,492.81144 363.1161,492.88005 363.35938,493.25487 L 364.35938,494.78612 L 364.73438,494.53612 L 363.67188,492.91112 C 363.33501,492.39308 362.92759,492.33126 362.51562,492.59862 C 362.24316,492.77608 362.12258,493.0463 362.14062,493.31737 L 361.23438,491.87987 z M 374.92188,492.72362 C 375.13689,492.69672 375.35795,492.72362 375.64062,492.72362 C 375.93483,492.72362 376.16399,492.69674 376.39062,492.72362 L 376.39062,495.09862 C 376.19371,495.08524 375.94273,495.09861 375.64062,495.09862 C 375.3395,495.09862 375.11789,495.0857 374.92188,495.09862 L 374.92188,492.72362 z M 374.64062,492.78612 L 374.64062,495.12987 C 374.46318,495.15255 374.33466,495.18327 374.20312,495.22362 L 374.20312,492.97362 C 374.36852,492.88233 374.50207,492.82596 374.64062,492.78612 z M 376.64062,492.78612 C 376.78048,492.82595 376.94584,492.88003 377.10938,492.97362 L 377.10938,495.22362 C 376.97738,495.18327 376.81759,495.15255 376.64062,495.12987 L 376.64062,492.78612 z M 388.67188,492.94237 L 388.45312,493.34862 C 388.69037,493.30228 388.99568,493.36282 389.23438,493.53612 C 389.39559,493.65334 389.51193,493.81419 389.51562,493.97362 C 389.51752,494.12514 389.45134,494.21027 389.32812,494.37987 L 389.26562,494.50487 L 389.01562,494.31737 C 388.21177,493.73305 387.68048,493.84407 387.35938,494.28612 C 387.04204,494.72353 387.19218,495.16156 387.57812,495.44237 C 387.93673,495.70274 388.24298,495.68895 388.48438,495.59862 L 388.26562,495.91112 L 388.64062,496.16112 C 388.68969,496.074 388.76207,495.95136 388.85938,495.81737 L 389.73438,494.62987 C 389.96791,494.30832 389.95152,494.08257 389.92188,493.91112 C 389.90007,493.78599 389.79783,493.50554 389.45312,493.25487 C 389.2233,493.08805 388.95217,492.9623 388.67188,492.94237 z M 360.32812,494.25487 C 360.16962,494.30123 360.00302,494.40684 359.85938,494.53612 C 359.27747,495.05977 359.28179,495.79757 359.89062,496.47362 C 360.42215,497.06388 361.14292,497.253 361.76562,496.69237 C 361.91763,496.55573 362.07858,496.36078 362.14062,496.22362 L 361.82812,495.91112 C 361.76463,496.07978 361.67966,496.26326 361.51562,496.41112 C 361.17931,496.71363 360.70119,496.64481 360.26562,496.16112 C 359.75593,495.59585 359.77342,495.15162 360.10938,494.84862 C 360.26927,494.70495 360.43142,494.60912 360.60938,494.56737 L 360.32812,494.25487 z M 388.17188,494.34862 C 388.34483,494.34387 388.56934,494.40195 388.79688,494.56737 C 388.90248,494.64437 388.98436,494.69598 389.04688,494.75487 L 388.85938,495.06737 C 388.63226,495.37967 388.2261,495.46731 387.89062,495.22362 C 387.62418,495.02992 387.59046,494.77709 387.76562,494.53612 C 387.86104,494.40452 387.99892,494.35337 388.17188,494.34862 z M 374.85938,495.37987 C 375.05818,495.36412 375.30979,495.37987 375.64062,495.37987 C 375.97238,495.37987 376.22261,495.36315 376.42188,495.37987 C 376.47559,495.52164 376.54688,495.74279 376.54688,495.81737 L 376.54688,496.28612 C 376.2712,496.25878 375.97195,496.22361 375.64062,496.22362 C 375.30981,496.22362 375.00958,496.25878 374.73438,496.28612 L 374.73438,495.81737 C 374.73438,495.75105 374.80596,495.60056 374.82812,495.53612 C 374.84434,495.48885 374.84365,495.42163 374.85938,495.37987 z M 374.54688,495.44237 C 374.49823,495.58139 374.45312,495.72192 374.45312,495.81737 L 374.45312,496.31737 C 374.27892,496.33824 374.13634,496.36042 373.98438,496.37987 L 373.98438,495.84862 C 374.02463,495.74859 374.05796,495.64315 374.10938,495.53612 C 374.2503,495.48422 374.36752,495.47208 374.54688,495.44237 z M 376.73438,495.44237 C 376.91458,495.47342 377.06042,495.51176 377.20312,495.56737 C 377.24988,495.66462 377.28826,495.74859 377.32812,495.84862 L 377.32812,496.37987 C 377.17657,496.36043 377.00238,496.33824 376.82812,496.31737 L 376.82812,495.81737 C 376.82812,495.72238 376.78297,495.58083 376.73438,495.44237 z M 392.17188,495.53612 L 390.76562,496.87987 C 390.32124,497.309 390.35191,497.76613 390.70312,498.12987 C 390.93619,498.37128 391.20212,498.42119 391.54688,498.31737 L 391.26562,498.62987 L 391.57812,498.97362 C 391.71717,498.83134 391.83749,498.67799 391.98438,498.53612 L 393.57812,497.00487 L 393.23438,496.66112 L 392.01562,497.81737 C 391.65056,498.17002 391.30728,498.18081 391.04688,497.91112 C 390.83363,497.69013 390.85027,497.43991 391.17188,497.12987 L 392.48438,495.87987 L 392.17188,495.53612 z M 375.64062,496.50487 C 375.98166,496.50487 376.29736,496.5386 376.57812,496.56737 C 376.64256,496.8059 376.84587,497.50998 376.92188,498.00487 C 376.97046,498.32182 376.99757,498.7704 377.01562,499.00487 C 376.48421,498.95343 375.97654,498.97362 375.64062,498.97362 C 375.30471,498.97362 374.8279,498.95343 374.29688,499.00487 C 374.31453,498.7704 374.3415,498.32182 374.39062,498.00487 C 374.46664,497.50998 374.63927,496.8059 374.70312,496.56737 C 374.98347,496.5386 375.30001,496.50487 375.64062,496.50487 z M 357.89062,496.59862 C 357.7387,496.67699 357.57665,496.80128 357.42188,496.97362 C 357.05623,497.37909 357.07758,497.88245 357.42188,498.19237 C 357.68831,498.43237 357.92372,498.43233 358.32812,498.25487 L 358.64062,498.12987 C 358.90004,498.01449 359.05952,498.03188 359.20312,498.16112 C 359.36302,498.30518 359.37703,498.55466 359.14062,498.81737 C 358.98546,498.98934 358.78125,499.09024 358.54688,499.16112 L 358.82812,499.47362 C 359.04258,499.3921 359.25755,499.22221 359.45312,499.00487 C 359.88501,498.52527 359.78242,498.07972 359.42188,497.75487 C 359.16337,497.52229 358.84696,497.53068 358.51562,497.69237 L 358.35938,497.75487 C 358.06232,497.90317 357.84012,497.96845 357.67188,497.81737 C 357.50788,497.66962 357.50014,497.41757 357.70312,497.19237 C 357.84348,497.03665 358.02688,496.94243 358.17188,496.87987 L 357.89062,496.59862 z M 374.42188,496.59862 C 374.34358,496.89563 374.1793,497.52039 374.10938,497.97362 C 374.05566,498.32254 374.03188,498.81643 374.01562,499.03612 C 373.60927,499.08897 373.19415,499.17378 372.82812,499.31737 C 372.77993,498.24703 373.14537,497.50019 373.85938,496.72362 L 373.95312,496.66112 C 374.10286,496.64215 374.24904,496.61997 374.42188,496.59862 z M 376.85938,496.59862 C 377.03219,496.61997 377.21019,496.64215 377.35938,496.66112 L 377.42188,496.72362 C 378.13588,497.50019 378.53263,498.24703 378.48438,499.31737 C 378.11838,499.17378 377.70286,499.08896 377.29688,499.03612 C 377.23388,498.18535 377.07574,497.42156 376.85938,496.59862 z M 375.64062,497.41112 C 375.48907,497.41112 375.39864,497.43309 375.26562,497.44237 C 375.20998,497.656 375.17812,497.76559 375.14062,497.97362 C 375.10544,498.16968 375.09295,498.27481 375.07812,498.47362 C 375.30237,498.45932 375.41544,498.44237 375.64062,498.44237 C 375.86676,498.44237 376.00829,498.45931 376.23438,498.47362 C 376.21861,498.27482 376.20755,498.16968 376.17188,497.97362 C 376.1344,497.76559 376.10244,497.656 376.04688,497.44237 C 375.90833,497.43215 375.79264,497.41111 375.64062,497.41112 z M 373.89062,497.56737 C 373.89062,497.56737 373.69003,497.57823 373.60938,497.59862 C 373.39991,497.92575 373.2499,498.35738 373.20312,498.69237 C 373.36996,498.65115 373.54557,498.62268 373.70312,498.59862 C 373.72209,498.39202 373.73411,498.29233 373.76562,498.09862 C 373.79997,497.88872 373.82849,497.77035 373.89062,497.56737 z M 377.42188,497.56737 C 377.48347,497.77035 377.51301,497.88872 377.54688,498.09862 C 377.57838,498.29233 377.55917,498.39202 377.57812,498.59862 C 377.73568,498.62268 377.94251,498.65115 378.10938,498.69237 C 378.06304,498.35738 377.91305,497.92575 377.70312,497.59862 C 377.62247,497.57823 377.42186,497.56737 377.42188,497.56737 z M 354.92188,498.31737 L 354.60938,498.75487 L 355.07812,499.06737 L 355.35938,498.62987 L 354.92188,498.31737 z M 396.39062,498.41112 L 392.85938,500.59862 L 393.10938,501.00487 L 394.54688,500.09862 C 394.97734,499.82984 395.31684,499.9058 395.51562,500.22362 C 395.67827,500.48364 395.61342,500.73685 395.23438,500.97362 L 393.70312,501.94237 L 393.95312,502.34862 L 395.60938,501.31737 C 396.13342,500.98979 396.1898,500.52778 395.92188,500.09862 C 395.74396,499.8146 395.44529,499.71347 395.17188,499.72362 L 396.64062,498.81737 L 396.39062,498.41112 z M 355.85938,499.00487 L 355.57812,499.37987 L 357.89062,501.00487 L 358.14062,500.62987 L 355.85938,499.00487 z M 375.64062,499.22362 C 377.93893,499.22362 378.74631,499.65567 379.07812,500.03612 L 379.07812,501.44237 L 377.26562,501.44237 L 377.26562,501.06737 L 376.07812,501.06737 L 376.07812,501.47362 L 375.57812,501.47362 L 375.57812,501.06737 L 374.42188,501.06737 L 374.42188,501.47362 L 373.89062,501.47362 L 373.89062,501.06737 L 372.73438,501.06737 L 372.73438,501.44237 L 372.20312,501.44237 L 372.20312,500.03612 C 372.53486,499.65567 373.34231,499.22361 375.64062,499.22362 z M 354.67188,500.91112 C 354.54309,501.02424 354.43704,501.17506 354.32812,501.37987 C 354.07188,501.86173 354.20073,502.35003 354.60938,502.56737 C 354.92633,502.73598 355.16583,502.71204 355.51562,502.44237 L 355.76562,502.22362 C 355.98939,502.04937 356.15761,502.00829 356.32812,502.09862 C 356.51814,502.19959 356.58727,502.44353 356.42188,502.75487 C 356.31295,502.95964 356.16351,503.12929 355.95312,503.25487 L 356.29688,503.47362 C 356.48544,503.34295 356.65977,503.13803 356.79688,502.87987 C 357.10001,502.31003 356.88121,501.88905 356.45312,501.66112 C 356.14635,501.49802 355.82912,501.58013 355.54688,501.81737 L 355.42188,501.94237 C 355.16981,502.15824 354.99659,502.23594 354.79688,502.12987 C 354.60181,502.026 354.52966,501.80403 354.67188,501.53612 C 354.77057,501.3508 354.8896,501.22534 355.01562,501.12987 L 354.67188,500.91112 z M 385.54688,501.00487 L 387.26562,504.00487 C 386.79949,503.89697 386.19799,503.81736 385.54688,503.81737 C 384.89912,503.81737 384.29286,503.89829 383.82812,504.00487 L 385.54688,501.00487 z M 373.01562,501.34862 L 373.60938,501.34862 L 373.60938,501.78612 L 374.70312,501.78612 L 374.70312,501.34862 L 375.29688,501.34862 L 375.29688,501.78612 L 376.35938,501.78612 L 376.35938,501.34862 L 376.98438,501.34862 L 376.98438,503.75487 L 376.32812,503.72362 C 376.32812,503.36955 376.08329,503.28612 375.79688,503.28612 C 375.65011,503.28612 375.52345,503.33913 375.42188,503.44237 C 375.31947,503.33913 375.16251,503.28612 375.01562,503.28612 C 374.86879,503.28612 374.71128,503.33864 374.60938,503.44237 C 374.50652,503.33864 374.35002,503.28612 374.20312,503.28612 C 373.91576,503.28612 373.67191,503.37859 373.67188,503.75487 L 373.01562,503.75487 L 373.01562,501.34862 z M 366.98438,501.78612 L 372.76562,501.78612 L 372.76562,503.97362 L 363.48438,503.97362 L 366.98438,501.78612 z M 377.20312,501.78612 L 381.89062,501.78612 L 383.57812,503.84862 L 383.54688,503.94237 L 383.51562,503.97362 L 377.20312,503.97362 L 377.20312,501.78612 z M 374.17188,502.22362 L 374.17188,502.75487 L 374.70312,502.75487 L 374.70312,502.22362 L 374.17188,502.22362 z M 375.29688,502.22362 L 375.29688,502.75487 L 375.82812,502.75487 L 375.82812,502.22362 L 375.29688,502.22362 z M 397.32812,503.28612 L 396.95312,503.50487 C 397.17881,503.59152 397.4049,503.79303 397.51562,504.06737 C 397.59023,504.25175 397.59712,504.46138 397.51562,504.59862 C 397.43723,504.72833 397.33527,504.77031 397.14062,504.84862 L 397.01562,504.91112 L 396.92188,504.62987 C 396.5498,503.70778 396.05332,503.51922 395.54688,503.72362 C 395.04554,503.92604 394.89924,504.37485 395.07812,504.81737 C 395.24401,505.22837 395.54435,505.36007 395.79688,505.41112 L 395.45312,505.59862 L 395.60938,506.00487 C 395.69697,505.95723 395.83105,505.87894 395.98438,505.81737 L 397.35938,505.25487 C 397.72779,505.10558 397.82524,504.91618 397.89062,504.75487 C 397.93884,504.63767 398.01881,504.33712 397.85938,503.94237 C 397.75282,503.67912 397.55557,503.45153 397.32812,503.28612 z M 374.20312,503.50487 C 374.38333,503.50487 374.48438,503.61621 374.48438,503.72362 L 374.48438,504.06737 L 374.70312,504.06737 L 374.70312,503.72362 C 374.70312,503.6162 374.8359,503.50487 375.01562,503.50487 C 375.19589,503.50487 375.29687,503.61621 375.29688,503.72362 L 375.29688,504.06737 L 375.51562,504.06737 L 375.51562,503.72362 C 375.51562,503.61524 375.61761,503.50487 375.79688,503.50487 C 376.0314,503.50487 376.10938,503.5959 376.10938,503.75487 L 376.10938,508.75487 L 375.67188,508.75487 L 375.67188,507.19237 L 375.26562,507.19237 L 375.26562,508.75487 L 374.73438,508.75487 L 374.73438,507.19237 L 374.32812,507.19237 L 374.32812,508.75487 L 373.92188,508.75487 L 373.92188,503.75487 C 373.92188,503.59544 373.96959,503.50487 374.20312,503.50487 z M 353.51562,503.87987 C 353.24062,503.95377 353.03565,504.1463 352.92188,504.44237 C 352.67075,505.0962 353.06672,505.65751 353.89062,505.97362 C 354.71442,506.29009 355.3738,506.13738 355.64062,505.44237 C 355.7417,505.17959 355.78413,504.90482 355.76562,504.66112 L 355.35938,504.50487 C 355.41032,504.69568 355.44229,504.97601 355.35938,505.19237 C 355.17548,505.67103 354.81056,505.80089 354.20312,505.56737 L 354.76562,504.09862 L 354.51562,504.00487 C 354.12941,503.85659 353.79063,503.80596 353.51562,503.87987 z M 373.01562,504.09862 L 373.67188,504.09862 L 373.67188,508.75487 L 373.01562,508.75487 L 373.01562,504.09862 z M 376.32812,504.09862 L 376.98438,504.09862 L 376.98438,508.75487 L 376.32812,508.75487 L 376.32812,504.09862 z M 395.98438,504.12987 C 396.2173,504.14508 396.42035,504.33229 396.57812,504.72362 C 396.62719,504.84453 396.68142,504.95316 396.70312,505.03612 L 396.39062,505.16112 C 396.03248,505.30563 395.63967,505.20189 395.48438,504.81737 C 395.36064,504.51198 395.45821,504.27235 395.73438,504.16112 C 395.80979,504.13054 395.90674,504.12479 395.98438,504.12987 z M 385.54688,504.19237 C 386.22568,504.19237 386.82587,504.26829 387.26562,504.37987 L 387.26562,506.06737 C 387.09738,506.05165 386.90328,506.04625 386.70312,506.03612 L 386.70312,505.37987 C 386.70169,505.14215 386.61373,505.06736 386.48438,505.06737 C 386.35465,505.06737 386.29827,505.14727 386.29688,505.37987 L 386.29688,506.00487 C 386.09066,505.99935 385.86343,506.00486 385.64062,506.00487 C 385.35472,506.00487 385.08389,506.02369 384.82812,506.03612 L 384.82812,505.37987 C 384.82718,505.14727 384.7391,505.06736 384.60938,505.06737 C 384.47952,505.06737 384.39162,505.14215 384.39062,505.37987 L 384.39062,506.06737 C 384.17656,506.08443 383.99963,506.1049 383.82812,506.12987 L 383.82812,504.34862 C 384.26694,504.23833 384.8718,504.19237 385.54688,504.19237 z M 353.60938,504.28612 C 353.77863,504.25286 353.9927,504.3064 354.26562,504.41112 L 353.85938,505.44237 C 353.25053,505.19675 353.12779,504.87658 353.23438,504.59862 C 353.30061,504.42625 353.44012,504.31937 353.60938,504.28612 z M 363.73438,504.34862 L 372.76562,504.34862 L 372.76562,508.97362 L 371.85938,508.97362 L 371.85938,507.62987 L 371.51562,507.62987 L 371.51562,508.97362 L 371.07812,508.97362 L 371.07812,507.62987 L 370.73438,507.62987 L 370.73438,508.97362 L 369.92188,508.97362 L 369.92188,507.62987 L 369.57812,507.62987 L 369.57812,508.97362 L 369.14062,508.97362 L 369.14062,507.62987 L 368.79688,507.62987 L 368.79688,508.97362 L 367.98438,508.97362 L 367.98438,507.62987 L 367.64062,507.62987 L 367.64062,508.97362 L 367.20312,508.97362 L 367.20312,507.62987 L 366.85938,507.62987 L 366.85938,508.97362 L 366.04688,508.97362 L 366.04688,507.62987 L 365.70312,507.62987 L 365.70312,508.97362 L 365.26562,508.97362 L 365.26562,507.62987 L 364.92188,507.62987 L 364.92188,508.97362 L 363.73438,508.97362 L 363.73438,504.34862 z M 377.20312,504.34862 L 383.54688,504.34862 L 383.54688,508.97362 L 382.85938,508.97362 L 382.85938,507.62987 L 382.48438,507.62987 L 382.48438,508.97362 L 382.04688,508.97362 L 382.04688,507.62987 L 381.70312,507.62987 L 381.70312,508.97362 L 380.48438,508.97362 L 380.48438,507.62987 L 380.14062,507.62987 L 380.14062,508.97362 L 379.70312,508.97362 L 379.70312,507.62987 L 379.32812,507.62987 L 379.32812,508.97362 L 378.85938,508.97362 L 378.85938,507.62987 L 378.51562,507.62987 L 378.51562,508.97362 L 378.07812,508.97362 L 378.07812,507.62987 L 377.70312,507.62987 L 377.70312,508.97362 L 377.20312,508.97362 L 377.20312,504.34862 z M 374.39062,504.59862 L 374.39062,505.75487 L 374.79688,505.75487 L 374.79688,504.59862 L 374.39062,504.59862 z M 375.20312,504.59862 L 375.20312,505.75487 L 375.64062,505.75487 L 375.64062,504.59862 L 375.20312,504.59862 z M 365.48438,504.75487 C 365.22627,504.75487 365.04877,504.88794 365.04688,505.19237 L 365.04688,506.16112 L 365.89062,506.16112 L 365.89062,505.19237 C 365.88824,504.8944 365.74203,504.75486 365.48438,504.75487 z M 369.32812,504.75487 C 369.07011,504.75487 368.89252,504.88794 368.89062,505.19237 L 368.89062,506.16112 L 369.73438,506.16112 L 369.73438,505.19237 C 369.73209,504.8944 369.58574,504.75486 369.32812,504.75487 z M 378.26562,504.75487 C 378.00752,504.75487 377.86176,504.88794 377.85938,505.19237 L 377.85938,506.16112 L 378.70312,506.16112 L 378.70312,505.19237 C 378.70083,504.8944 378.52324,504.75486 378.26562,504.75487 z M 382.26562,504.75487 C 382.00751,504.75487 381.86118,504.88794 381.85938,505.19237 L 381.85938,506.16112 L 382.70312,506.16112 L 382.70312,505.19237 C 382.70084,504.8944 382.52327,504.75486 382.26562,504.75487 z M 375.01562,506.25487 C 374.60739,506.25487 374.32813,506.4353 374.32812,506.91112 L 375.67188,506.91112 C 375.67188,506.4353 375.42378,506.25486 375.01562,506.25487 z M 385.64062,506.25487 C 386.26009,506.25487 386.82767,506.27571 387.26562,506.31737 L 387.26562,507.44237 L 386.92188,507.44237 C 386.88153,507.20225 386.72856,507.09861 386.48438,507.09862 C 386.24203,507.09862 386.05684,507.20559 386.01562,507.44237 L 385.60938,507.44237 C 385.41751,507.44237 385.22626,507.44008 385.04688,507.44237 C 385.00656,507.20324 384.85316,507.09861 384.60938,507.09862 C 384.35781,507.09862 384.20515,507.21741 384.17188,507.47362 C 384.05002,507.47877 383.9334,507.49834 383.82812,507.50487 L 383.82812,506.34862 C 384.28688,506.27904 384.92139,506.25487 385.64062,506.25487 z M 351.04688,506.78612 L 350.92188,507.28612 L 351.45312,507.41112 L 351.57812,506.91112 L 351.04688,506.78612 z M 365.48438,506.81737 C 365.13269,506.81737 364.92191,507.00099 364.92188,507.41112 L 366.04688,507.41112 C 366.04688,507.00099 365.83609,506.81737 365.48438,506.81737 z M 367.42188,506.81737 C 367.07059,506.81737 366.85939,507.00099 366.85938,507.41112 L 367.98438,507.41112 C 367.98438,507.00099 367.77355,506.81737 367.42188,506.81737 z M 369.35938,506.81737 C 369.00769,506.81737 368.79691,507.00099 368.79688,507.41112 L 369.92188,507.41112 C 369.92188,507.00099 369.71105,506.81737 369.35938,506.81737 z M 371.29688,506.81737 C 370.94519,506.81737 370.73438,507.00099 370.73438,507.41112 L 371.85938,507.41112 C 371.85938,507.00099 371.64807,506.81737 371.29688,506.81737 z M 378.29688,506.81737 C 377.94519,506.81737 377.70312,507.00099 377.70312,507.41112 L 378.85938,507.41112 C 378.85938,507.00099 378.64854,506.81737 378.29688,506.81737 z M 379.92188,506.81737 C 379.57017,506.81737 379.32812,507.00099 379.32812,507.41112 L 380.48438,507.41112 C 380.48438,507.00099 380.27358,506.81737 379.92188,506.81737 z M 382.26562,506.81737 C 381.91395,506.81737 381.70314,507.00099 381.70312,507.41112 L 382.85938,507.41112 C 382.85938,507.00099 382.61729,506.81737 382.26562,506.81737 z M 363.01562,507.03612 C 363.1567,507.02 363.30531,507.03195 363.45312,507.03612 L 363.45312,508.28612 C 362.53761,508.35513 361.7565,508.82541 361.29688,509.62987 C 359.40589,509.70588 358.39431,511.32884 358.45312,513.12987 C 357.99392,513.2152 357.53507,513.33628 357.07812,513.44237 C 356.94053,511.95221 357.15302,510.58265 358.10938,509.66112 C 358.91097,508.88914 359.84086,508.65404 360.92188,508.78612 C 361.24463,507.75625 362.0281,507.14889 363.01562,507.03612 z M 387.54688,507.03612 C 388.72986,507.00279 389.70934,507.60913 390.07812,508.78612 C 391.15918,508.65404 392.08843,508.88914 392.89062,509.66112 C 393.84698,510.58265 394.05945,511.95221 393.92188,513.44237 C 393.46496,513.33628 393.00644,513.21519 392.54688,513.12987 C 392.60618,511.32885 391.59448,509.70588 389.70312,509.62987 C 389.24392,508.82542 388.46254,508.35513 387.54688,508.28612 L 387.54688,507.03612 z M 352.14062,507.09862 L 352.04688,507.53612 L 354.76562,508.22362 L 354.89062,507.78612 L 352.14062,507.09862 z M 398.92188,507.37987 L 397.01562,507.75487 C 396.40963,507.87302 396.20046,508.25855 396.29688,508.75487 C 396.36086,509.08385 396.54491,509.31017 396.89062,509.41112 L 396.48438,509.50487 L 396.54688,509.94237 C 396.74103,509.8988 396.94042,509.85629 397.14062,509.81737 L 399.32812,509.37987 L 399.23438,508.91112 L 397.57812,509.25487 C 397.08002,509.35168 396.77495,509.15401 396.70312,508.78612 C 396.64477,508.485 396.79608,508.27759 397.23438,508.19237 L 399.01562,507.84862 L 398.92188,507.37987 z M 384.39062,507.69237 L 384.39062,508.91112 L 384.82812,508.91112 L 384.82812,507.69237 C 385.07876,507.68724 385.33,507.69237 385.60938,507.69237 L 386.26562,507.69237 L 386.26562,508.91112 L 386.67188,508.91112 L 386.67188,507.69237 C 386.88084,507.69367 387.09272,507.68961 387.26562,507.69237 L 387.26562,509.97362 C 386.82218,510.02268 386.22541,510.03612 385.57812,510.03612 C 384.88956,510.03612 384.28318,510.01109 383.82812,509.97362 L 383.82812,507.72362 C 383.99961,507.71302 384.17608,507.69929 384.39062,507.69237 z M 363.45312,508.59862 L 363.45312,509.34862 C 362.75443,509.43657 362.12969,509.93284 361.89062,510.59862 C 360.51252,510.4078 359.33749,511.58715 359.42188,512.97362 C 359.20496,513.00692 358.98203,513.06106 358.76562,513.09862 C 358.7197,511.34798 359.67824,509.97388 361.48438,509.94237 C 361.90788,509.14819 362.54727,508.66853 363.45312,508.59862 z M 387.54688,508.59862 C 388.45323,508.66853 389.09219,509.14819 389.51562,509.94237 C 391.32187,509.97388 392.2803,511.34798 392.23438,513.09862 C 392.01798,513.06106 391.79498,513.00692 391.57812,512.97362 C 391.66287,511.58716 390.48735,510.40781 389.10938,510.59862 C 388.87068,509.93284 388.2456,509.43657 387.54688,509.34862 L 387.54688,508.59862 z M 351.73438,508.91112 C 351.67684,509.32075 351.76213,509.54914 352.07812,509.75487 L 351.64062,509.72362 L 351.57812,510.16112 C 351.77553,510.18333 352.00112,510.19535 352.20312,510.22362 L 354.39062,510.53612 L 354.45312,510.06737 L 352.95312,509.87987 C 352.34703,509.79467 352.09057,509.48473 352.14062,509.12987 C 352.14897,509.06957 352.15337,509.02647 352.17188,508.97362 L 351.73438,508.91112 z M 373.01562,509.09862 L 376.98438,509.09862 L 376.98438,512.66112 L 376.54688,512.66112 L 376.54688,510.87987 C 376.54688,509.8896 375.84366,509.34861 375.01562,509.34862 C 374.18718,509.34862 373.48434,509.89009 373.48438,510.87987 L 373.48438,512.66112 L 373.01562,512.66112 L 373.01562,509.09862 z M 363.73438,509.31737 L 372.76562,509.31737 L 372.76562,512.37987 L 371.85938,512.37987 L 371.85938,510.87987 L 371.39062,510.87987 L 371.39062,512.37987 L 370.79688,512.37987 L 370.79688,510.87987 L 370.32812,510.87987 L 370.32812,512.37987 L 369.14062,512.37987 L 369.14062,510.87987 L 368.67188,510.87987 L 368.67188,512.37987 L 368.07812,512.37987 L 368.07812,510.87987 L 367.64062,510.87987 L 367.64062,512.37987 L 366.42188,512.37987 L 366.42188,510.87987 L 365.95312,510.87987 L 365.95312,512.37987 L 365.35938,512.37987 L 365.35938,510.87987 L 364.92188,510.87987 L 364.92188,512.37987 L 363.73438,512.37987 L 363.73438,509.31737 z M 377.20312,509.31737 L 383.54688,509.31737 L 383.54688,512.37987 L 383.01562,512.37987 L 383.01562,510.87987 L 382.54688,510.87987 L 382.54688,512.37987 L 381.98438,512.37987 L 381.98438,510.87987 L 381.51562,510.87987 L 381.51562,512.37987 L 380.20312,512.37987 L 380.20312,510.87987 L 379.73438,510.87987 L 379.73438,512.37987 L 379.14062,512.37987 L 379.14062,510.87987 L 378.70312,510.87987 L 378.70312,512.37987 L 377.20312,512.37987 L 377.20312,509.31737 z M 363.45312,509.69237 L 363.45312,512.62987 C 362.21647,512.65767 360.98528,512.76898 359.76562,512.94237 C 359.73604,512.23615 360.08932,511.4686 360.79688,511.12987 C 361.30704,510.88567 361.59848,510.90201 362.14062,511.00487 L 362.17188,510.84862 C 362.34848,510.25314 362.84249,509.78414 363.45312,509.69237 z M 375.01562,509.69237 C 375.67124,509.69237 376.17187,510.10512 376.17188,510.87987 L 376.17188,512.66112 L 375.57812,512.66112 L 375.57812,510.87987 C 375.57812,510.46982 375.36726,510.31737 375.01562,510.31737 C 374.66394,510.31737 374.42188,510.46981 374.42188,510.87987 L 374.42188,512.66112 L 373.82812,512.66112 L 373.82812,510.87987 C 373.82812,510.10559 374.3595,509.69236 375.01562,509.69237 z M 387.54688,509.69237 C 388.15811,509.78414 388.65113,510.25314 388.82812,510.84862 L 388.85938,511.00487 C 389.40198,510.90201 389.69298,510.88567 390.20312,511.12987 C 390.91068,511.46861 391.26405,512.23615 391.23438,512.94237 C 390.01438,512.76898 388.78404,512.65767 387.54688,512.62987 L 387.54688,509.69237 z M 365.67188,509.72362 C 365.12378,509.72362 364.92322,510.1095 364.92188,510.56737 L 365.35938,510.56737 C 365.36033,510.32404 365.47591,510.16112 365.67188,510.16112 C 365.86698,510.16112 365.95218,510.32175 365.95312,510.56737 L 366.42188,510.56737 C 366.42092,510.10818 366.22608,509.72362 365.67188,509.72362 z M 368.39062,509.72362 C 367.84252,509.72362 367.64154,510.1095 367.64062,510.56737 L 368.07812,510.56737 C 368.07907,510.32404 368.19466,510.16112 368.39062,510.16112 C 368.58573,510.16112 368.67096,510.32175 368.67188,510.56737 L 369.14062,510.56737 C 369.13967,510.10818 368.94484,509.72362 368.39062,509.72362 z M 371.07812,509.72362 C 370.53038,509.72362 370.36036,510.1095 370.35938,510.56737 L 370.79688,510.56737 C 370.79783,510.32404 370.88208,510.16112 371.07812,510.16112 C 371.27313,510.16112 371.3898,510.32175 371.39062,510.56737 L 371.82812,510.56737 C 371.82672,510.10818 371.63222,509.72362 371.07812,509.72362 z M 379.45312,509.72362 C 378.90548,509.72362 378.7041,510.1095 378.70312,510.56737 L 379.14062,510.56737 C 379.14157,510.32404 379.25717,510.16112 379.45312,510.16112 C 379.64823,510.16112 379.73297,510.32175 379.73438,510.56737 L 380.20312,510.56737 C 380.20217,510.10818 380.00733,509.72362 379.45312,509.72362 z M 382.26562,509.72362 C 381.71789,509.72362 381.51652,510.1095 381.51562,510.56737 L 381.95312,510.56737 C 381.95407,510.32404 382.06958,510.16112 382.26562,510.16112 C 382.46066,510.16112 382.54592,510.32175 382.54688,510.56737 L 383.01562,510.56737 C 383.01418,510.10818 382.81975,509.72362 382.26562,509.72362 z M 387.26562,510.31737 L 387.26562,512.37987 C 386.82218,512.4777 386.22016,512.56737 385.54688,512.56737 C 384.87369,512.56737 384.27256,512.50423 383.82812,512.41112 L 383.82812,510.34862 C 384.28878,510.38562 384.89324,510.37987 385.57812,510.37987 C 386.22123,510.37987 386.8161,510.36511 387.26562,510.31737 z M 384.39062,510.56737 L 384.39062,511.78612 L 384.82812,511.81737 L 384.82812,510.59862 L 384.39062,510.56737 z M 386.73438,510.56737 L 386.29688,510.59862 L 386.29688,511.81737 L 386.73438,511.78612 L 386.73438,510.56737 z M 350.42188,511.62987 L 350.42188,513.34862 L 354.26562,513.44237 L 354.26562,512.94237 L 352.48438,512.91112 L 352.48438,511.72362 L 352.07812,511.72362 L 352.04688,512.91112 L 350.82812,512.87987 L 350.85938,511.66112 L 350.42188,511.62987 z M 398.73438,511.75487 C 398.37622,511.76133 398.19079,511.93116 398.01562,512.34862 L 397.89062,512.66112 C 397.77939,512.93033 397.64585,513.03278 397.45312,513.03612 C 397.23761,513.04017 397.05336,512.86861 397.04688,512.50487 C 397.04272,512.26667 397.14237,512.03564 397.26562,511.81737 L 396.82812,511.78612 C 396.72707,511.99781 396.66675,512.26617 396.67188,512.56737 C 396.68344,513.23185 397.09243,513.51324 397.57812,513.50487 C 397.92561,513.49845 398.13355,513.26614 398.26562,512.91112 L 398.32812,512.72362 C 398.44398,512.40345 398.57074,512.25854 398.79688,512.25487 C 399.01742,512.25117 399.19763,512.41131 399.20312,512.72362 C 399.20682,512.93959 399.14156,513.13695 399.07812,513.28612 L 399.48438,513.28612 C 399.54225,513.12023 399.58185,512.93093 399.57812,512.69237 C 399.56789,512.12982 399.19776,511.74699 398.73438,511.75487 z M 363.73438,512.59862 L 372.76562,512.59862 L 372.76562,513.09862 L 363.73438,513.09862 L 363.73438,512.59862 z M 377.20312,512.59862 L 383.54688,512.59862 L 383.54688,513.09862 L 377.20312,513.09862 L 377.20312,512.59862 z M 383.82812,512.62987 C 384.29057,512.72116 384.88981,512.78612 385.54688,512.78612 C 386.20347,512.78612 386.80318,512.72582 387.26562,512.62987 L 387.26562,513.16112 C 386.82637,513.27232 386.22338,513.31737 385.54688,513.31737 C 384.86952,513.31737 384.26746,513.27232 383.82812,513.16112 L 383.82812,512.62987 z M 373.01562,512.91112 L 376.98438,512.91112 L 376.98438,513.37987 L 373.01562,513.37987 L 373.01562,512.91112 z M 378.42188,519.91112 L 374.95312,551.37987 L 371.17188,519.94237 C 369.45188,519.94703 366.67097,520.09144 362.85938,520.34862 L 370.95312,579.72362 C 373.86718,579.81588 376.69983,579.79383 379.45312,579.69237 L 386.76562,520.37987 C 384.35146,520.16302 381.58061,520.00149 378.42188,519.91112 z M 360.32812,520.59862 C 355.58236,520.99149 348.86202,522.11108 346.01562,522.72362 L 346.01562,576.94237 C 350.59921,577.96173 356.66275,578.72062 361.07812,579.19237 L 361.07812,569.81737 C 359.28269,569.66032 355.9688,569.24258 354.39062,569.00487 L 354.39062,554.81737 L 360.76562,554.81737 L 360.76562,545.12987 L 354.39062,545.12987 L 354.39062,529.62987 C 355.52957,529.42544 357.51459,529.20027 360.32812,528.91112 L 360.32812,520.59862 z M 390.39062,520.69237 L 390.39062,578.97362 C 394.9334,578.44585 400.06586,577.89198 404.64062,576.75487 L 404.64062,567.62987 C 403.27747,567.94076 400.43789,568.4697 398.76562,568.66112 L 398.76562,554.81737 L 404.64062,554.81737 L 404.64062,545.12987 L 398.76562,545.12987 L 398.76562,530.47362 C 400.54351,530.77112 402.55169,531.09495 404.48438,531.53612 L 404.48438,522.84862 C 401.76492,522.21376 394.92922,521.06348 390.39062,520.69237 z M 340.48438,523.97362 C 332.6694,525.78299 324.73672,529.22688 320.14062,531.91112 L 320.14062,541.06737 C 324.23347,538.74822 328.80993,536.80095 332.20312,535.59862 L 332.17188,560.72362 C 332.16399,562.38202 331.21084,562.92695 330.04688,562.78612 C 328.94177,562.65224 328.14989,561.71794 328.14062,560.72362 L 328.14062,552.72362 L 320.10938,552.72362 L 320.10938,561.03612 C 320.18074,566.67201 323.70619,571.8604 330.32812,572.16112 C 336.87495,572.45814 340.50963,567.90163 340.51562,562.22362 L 340.48438,523.97362 z M 409.82812,524.12987 L 409.82812,575.50487 C 412.80426,574.74626 415.5096,573.93545 417.92188,573.03612 L 417.92188,553.94237 L 421.35938,553.94237 C 421.35938,553.94237 422.1892,553.89783 422.51562,554.22362 C 422.83543,554.54282 422.79691,555.34862 422.79688,555.34862 L 422.79688,571.12987 C 425.36098,570.02615 427.71464,568.81291 429.89062,567.50487 L 429.89062,554.06737 C 429.89062,552.17407 428.36803,549.88953 426.04688,549.37987 C 428.71629,548.58976 429.89062,546.55357 429.89062,543.75487 L 429.89062,537.03612 C 429.89062,535.75817 429.53227,533.74279 428.35938,532.12987 C 427.3193,530.69985 426.2242,530.11817 424.76562,529.41112 C 422.07059,527.9502 416.42268,525.85027 409.82812,524.12987 z M 417.92188,534.87987 C 419.42503,535.3594 422.07813,536.47362 422.07812,536.47362 C 422.29543,536.63437 422.3998,536.7465 422.54688,536.97362 C 422.66075,537.14963 422.7808,537.46547 422.79688,537.78612 L 422.79688,543.72362 C 422.79688,543.72362 422.78808,544.55226 422.45312,544.87987 C 422.11338,545.21209 421.29688,545.16112 421.29688,545.16112 L 417.92188,545.16112 L 417.92188,534.87987 z"
       id="path3064"
       style="fill:#293d2c;fill-opacity:1;fill-rule:evenodd;stroke:none" />
  </g>
</svg>
