<svg xmlns="http://www.w3.org/2000/svg" viewBox="0 0 192.8 192.8"><g fill-rule="evenodd" clip-rule="evenodd"><path fill="#fff" d="M0 0h192.8v192.8H0V0z"/><path fill="#559375" d="M54 71.6c-.1-.2-.7-.4-1.1-.4h-.7c-.2-.8-1-1.2-1.8-1.2-.4 0-.6 0-1 .2a2 2 0 0 0-1.7-.8h-.6c-.6-.5-1-.9-1.3-.7-1.6.5-.6 1.3-1 2.1-.2-.2-.6-.2-1-.2-.8 0-1.5.2-1.9.6-.4.6-.6.8-.6 1.2l.2.9c-.6.2-1 1-1 1.6v.2l4.7.4c1.9 0 5 .3 9.1.7v-4.4l-.2-.2z"/><path fill="#365e49" d="M54 75.1c-.1-1-1.4-.8-1-1 .9-1 0-.8 0-1.2 0-.2.3-.5 0-.7 0-.4-1-.6-1.8-.6-.2-.6-.6-.6-1.4-.6-2.3.2-1.5-.4-1-.6-.3-.6-.3-.6-.9-.6l-.8-.2c-.4.6-1.3-.2-1.5-.5-1 0-.8.9-.2 1.7-.4.4-.8.4-1.4.4s-1.3 0-1.3.6c-.2.7-.8.4-.8.9 0 .2 0 .8.2 1-.6.2-1.2 0-1.2 1l-.4.2c0 .2 0 .4.2.6 1.4 0 3 0 4.5.3 2 0 4.8-.3 8.9.2v-1z"/><path fill="#a59563" d="M68.3 60.9v-8.5h-.8v.7l-5.8-1.3-.2-.6-.8-.4v16.7l7.6-6.6z"/><path fill="#365e49" d="M63.8 61.5v-2.9c0-1.6 1-2.2 1-2.2s.8.8.8 2.4v3l-1.8-.3zM60.7 54v.4l7.8 1.4v-.2L60.7 54zm9.7 4.5-9.7 8.3v10c2 .5 4.3 1.1 9.9 2l-.2-20.3z"/><path fill="#a59563" d="m60.7 64.4-2.5 4.7v8c0 .3 2 .5 2.5.5V64.4z"/><path fill="#365e49" d="M57 52.9V65l3.7-.6V50.8l-.4.4v.6l-2.7 1.5v-.7l-.6.3z"/><path fill="#a59563" d="M59.2 61.5v-2.7c0-1-.4-2-.4-2s-.4 1.2-.4 2.4c0 1.5.2 2.5.2 2.5l.6-.2zm1.5-7.6v.4L57 55.9v-.2l3.7-1.8z"/><path fill="#365e49" d="m54 76.8 4.2.4v-8l-4.1.6v7z"/><path fill="#365e49" d="m54 69.8 3-4.8 3.7-.6-2.5 4.7-4.1.7zm18.5-11.2-1-.2 13.1-16 1.9-1.1-14 17.3z"/><path fill="#a59563" d="M100.7 61.3 90 42l-3.5-.4-14 17.1-2.1-.2-.2 22.3s9.7 2 19 1.9c7.6 0 13.2-1.3 13.2-1.3V61.5l-1.7-.2z"/><path fill="#365e49" d="m87.5 43.8 1.2.2v1.4h-1.2v-1.6zm-12 19.6c.3.6 1 2.5 1 4.7V76h1.1v-9.7c0-2.7-1.2-4.8-1.2-4.8l-.9 1.9zm4-4.8c.2.4 1.2 2.5 1.2 4.6V76h.8V61.5c0-2.7-1.2-4.7-1.2-4.7l-.8 1.8zm3.9-4.1c.2.4 1 2.3 1 4.5v17h1V57.2c0-2.5-1.2-4.8-1.2-4.8l-.8 2.1zm5.6 5.2v-7.3c0-2.6-1-4.7-1-4.7l-.9 1.9c.2.6 1 2.4 1 4.7V76h.9V59.7zm3.3 3.7v-6c0-1.9-1.3-4.1-1.3-4.1s-.4.8-.6 2c.2.6 1 2.3 1 4V76h.9V63.4zm3 5.3c.3-2.9.3-5.7.3-6.4 0-2-1.3-4.3-1.3-4.3l-.8 2c.4.9 1 2.5 1 4v12h1l-.2-7.3zm3.1-.8c0-2-1.2-4.3-1.2-4.3s-.4.8-.6 2.2c.2.7.8 2.3.8 3.8V76h1v-8z"/><path fill="#559375" d="M75 76h1.6v-8c0-2.2-.8-4.1-1-4.7-.3.8-.7 1.6-.7 2.5v10zm4 0h1.7V63.2c0-2.1-1-4.2-1.2-4.6-.2.9-.4 1.7-.4 2.5V76zm4 0h1.4V59a11 11 0 0 0-1-4.5A7817004994560971 7817004994560971 0 0 1 83 76zm4-26.4c-.2.8-.6 1.6-.6 2.4v24H88V54.3c0-2.3-.8-4.1-1-4.7zm3.3 5.7c-.2.6-.4 1.7-.4 2.5V76h1.4V59.2c0-1.6-.8-3.3-1-3.9zm3 4.8-.1 2.7V76h1.2V64c0-1.5-.6-3.1-1-4zm3.2 5.7c-.2.7-.2 1.5-.2 2.5V76h1v-6.4c0-1.5-.6-3.1-.8-3.8z"/><path fill="#559375" d="M57.6 78.6c15.7 4.6 25 5.4 53.2 1.5 13.2-1.9 24.2-3.7 33.8-4-2.8-.3-8.2-1-13.4-1V75c0-.2 0-.8-.4-1.2s-.4-.4-1.2-.6l-1.2-.4-.9.2c-.2-.2-.4-.5-.2-1.5 0-1-.8-2-1.6-2.3-.6-.4-1.7-.6-3-.6-.1-1-.5-1.6-1.4-1.6-.2 0-.8-.2-1.2.2-.2-.8.2-.6-.4-1.5-.4-.6-1.9-.8-2.5-.8-.6-.2-1.2.4-1.8.8-.7-.4-2.1-.4-3 .2l-1 1.3c-.8-.4-2-.6-2.6-.6a4 4 0 0 0-4.2 3.5c-.4-.6-1.4-.9-2.2-.9v10s-5.4 1-13.2 1.2c-9.3 0-19-2-19-2-6.4-.9-7.9-1.3-10.5-1.5-7.3-1.3-12.2-1.3-14.5-1.3 4.8.5 8.3 1.7 12.2 3l.2.1z"/><path fill="#365e49" d="M115.4 66.3c.2.4 1.4 1.2.6 2.9 1-.9.8-.5 1.4.2.2.2.4-.2.6 0 .2 0 1 1.6 1 1.6 0 .2.5 0 .7-.6.2-.2.4-.8.4-1.2.2-.7.4-1.3 0-1.3-.6 0-.6.6-1.2.6-.2 0-.5-.2-.9-.8l-1-1c-1-1-2-1.5-3-1.3.5.2 1.1.4 1.4.9zm-8.7 1.2c-1.5.6-1.9 1.9-2.3 2.5 0 0-.4-.9-2-.9v10s1.2-.5 2.8-.7l5.4-1s-1.2-2-3.5-1.4c-.6-1-1-1.5-1.9-1.7-.8-.2-.4-1.2-.4-1.2s-.2-.4.9-.4c.8-.2 1 0 .8.8-.2 1 3.5 1.8 3.5.6 0-1-1 0-1 0-.9-.4-1.5-.2-1.7-.8-.6-.8 1.5-.6.8-1.5-.2-.2-1 .2-1 0-.2-.6-.2-.6-.4-.6s-.2 0-.2-.2c-.2-.8-.4-2.3.6-2.5 0 0 .6-.2.4-.4-.2-.2-.2-.4-.2-.6.2-.2.2-.4 0-.4-.6.2-.6.4-.6.4zm6 6.4s1.4-2.3 1.6-.4c.4 1.6 0 1.2-.6 1.4-.8.2-.4 1.9-.4 1.9l4.5-.6-.6-.9c-.4-.2-.6.2-1 0a3 3 0 0 1-.4-1.2c.4-.8 0-1 .4-1.2.8-.5.8 0 1 .6l.2 1.4s1 1 .6.2c-.6-.8.2-1.8 1.3-1.8 1.4-.2.8-.9.8-.9s-2 .3-1.7-.6c0-.2-1-.2-1-.4l-.2-.8v-.4l-.6-.2c0 .8-.8 2-1.7 1.4-.2-.6-1-.4-1.4-1.2 0 .4 0 1.4-.6 1.4-.6.2-1 .8-1.5.8 0 0-.4.9 0 .9s1.3.6 1.3.6zm9-1c0 .2-.6.6-.6.6.7 0 1 1.4.2 1.2l-.8.4c-.2.2-.2.7-.6.7 2.5-.5 6.8-.7 6.8-.7l-.2-.4v-.4c.6-.4.2-1-.4-.4-.4.2-.8-.6-1-.4-.3 1-.9-.6-1-.2-.7.4-1.3-1-1.3-1s-1-.3-1 .6z"/><path fill="#a59563" d="M117.6 149.4c.6 0 1-.6 1-1.2 0-1-.6-1.5-1.6-1.5h-1.9v4.8h1.3v-1.9l1.2 1.9h1.5l-1.5-2.1zm-1.2-1.7c.6 0 1 0 1 .5 0 .6-.4.6-.8.6l-.2-1zm-4 0v.9h1.5v1h-1.4v.8h1.4v1h-2.7v-4.7h2.7v1h-1.4zm-3.9 0v.9h1.3v1h-1.3v.8h1.5v1h-2.7v-4.7h2.7v1h-1.5zm-4.9 0c.4 0 .8 0 .8.5 0 .4-.2.4-.6.4h-.2v-.9zm.8 3.8c.8 0 1.7-.5 1.7-1.5 0-.6-.4-1-1-1 .4-.2.6-.6.6-1 0-.9-.7-1.3-1.5-1.3h-1.8v4.8h2zm-.8-2.1c.6 0 1.2 0 1.2.6 0 .4-.6.4-1 .4h-.2v-1zm-6.4-.8v-1.9h1.2v4.8h-1.2v-2.1h-1.9v2h-1.2v-4.7h1.2v1.9h1.9zm-4.7-.7c-.2-.2-.7-.4-.9-.4s-.6.2-.6.4c0 .5.4.5.6.5l.2.2c.9.2 1.3.4 1.3 1.2 0 .4 0 1-.4 1.2-.4.5-.9.5-1.5.5s-1-.3-1.6-.5l.6-1c.2.2.6.4 1 .4.2 0 .6 0 .6-.4s-.4-.4-.8-.6c-.6-.2-1.2-.4-1.2-1.2 0-1 .6-1.7 1.6-1.7.4 0 1 .2 1.5.4l-.4 1zm-5.2 3.6v-4.8h1.2v4.8h-1.2zm-2-2.1c.6 0 1-.6 1-1.2 0-1-.9-1.5-1.7-1.5h-1.8v4.8H84v-1.9l1 1.9h1.7l-1.5-2.1zm-1.3-1.7c.4 0 .8 0 .8.5 0 .6-.4.6-.8.6v-1zm-4 3.8v-4.8h1.3v4.8h-1.2zm6.5-11.8h2.7l-1.5-4.1-1.2 4.1zm-3.5 2.9 3.5-9.7h2.7l3.5 9.7.6 1h-2.9s-.2-1-.4-1.2l-.2-.6h-4l-.1.6c-.3.2-.5 1.2-.5 1.2h-2.9l.7-1zm-10.3-.8V135c0-1.3-.3-2.1-.3-2.1h4.4c2.3 0 3.9 1.2 3.9 3.3 0 1.6-1 2.3-1.9 2.7l1.9 3.3c.4.8.6 1.2.8 1.2v.2c-.2.2-.8.2-1.4.2-1.7 0-1.9-.4-2.7-2.2l-1.9-3.6.3-.2h.4c.8 0 1.8-.4 1.8-1.6 0-.4-.2-1.5-2-1.5h-1v9h-2.6l.2-2zm-9.5-1.3c0 .8.2 1.3 1.2 1.3 2.3 0 3.3-1.9 3.3-3.3 0-2.1-1.4-3.6-3.7-3.6h-.8v5.6zm-2.5 1.3v-9h3.5c2.7 0 6 1.5 6 5.5 0 3-2 5.3-6.2 5.3h-3.3v-1.8zm73.6 0V135h-2.9l.5-2.1h7.6l.2 2h-2.9v6.9c0 1 .2 1.8.2 1.8h-2.7v-1.8zm-14.6 0v-7l-.2-2h2.7v4.2h4v-4h2.8v10.7h-2.7v-4.5h-4.1v4.5h-2.7l.2-1.8zm-3.5 1.4a12 12 0 0 1-4 .8c-3.7 0-5.7-2.4-5.7-5.7s2-5.6 5.8-5.6h1.8l1 .2h.5v2.5h-.2c-.5-.4-1.3-.9-3-.9-2.2 0-3.4 1.7-3.4 3.8s1.4 3.7 3.3 3.7c.6 0 1.2-.2 1.6-.4v-1.3l.2-2h2v4.9zm-12.4-3.7c0 2.7-1 4.5-4.5 4.5s-4.8-1.8-4.8-4.5v-6.6h2.7v6.6c0 1.6.4 2.5 2 2.5 1.5 0 2.1-.9 2.1-2.5v-6.6h2.7s-.2.8-.2 1.8v4.8zm76.7-57c-20.6-8.2-39-7.6-69.7-3.2-28.2 3.9-37.1 3-52.8-1.5a86 86 0 0 0-49.5 2 26 26 0 0 1 6 18.2v31.8h46.8l3.7-4h119.3V84.3c-1-.6-3.8-1.6-3.8-1.6z"/><path fill="#559375" d="M180.1 86v35.7h-117l-3.6 4H17.8l-2.5 2.9H61l3.5-4H183V84.8l-2.9 1.3z"/><path fill="#905539" d="M178.9 86.7c-19.6-7.9-37-7.2-67.5-3.1-28.6 4-38 3.3-54.6-1.5a79.8 79.8 0 0 0-41.3.3c2.5 3.5 3.3 8.4 3.3 16.7v25.3h40l3.7-3.9H179V86.7z"/><path fill="#365e49" d="m59.5 93-2.3-2.2v22h-6l2.3 2.4h6V93zm7.8 15.1h2.3v-15l-2.3-2.3v17.3zm7.6-1.6v6.4H61.3l2.3 2.2H77l.2-6.3-2.3-2.3zm-41-3.1v13.8H27l2.2 2.3 6.8.2v-13.8c-1-1.5-1.8-2.1-2.2-2.5zm0-7.4 2.2-2.5V88l-2-2.4h-.2V96z"/><path fill="#365e49" d="M54 117.6s-6.3-9.9-9.4-13.8c-.8-1.2-2.3-4-4.3-4.5C43.2 96 51 88 51 88l-1.2-2.4-1.9 2L38 99a8 8 0 0 1 2.9 2.4l9.7 14 1.2 2h-8l2.5 2.4h9.2l-1.4-2zm32-23V93l-2.2-2.3v6l2.3-2.3zm-1 10.6-1.2-1.4v9h-6l2.3 2.4h6v-8.5l-1-1.5zm65-6.6-3.7-5.5-3.5-2.3L150 102v-3.3zm4.3-7.8v22H150l2.3 2.4h4.1l.2-22.1-2.3-2.3zm-12.5 9v13h-4.4l2.3 2.4h4.3v-11.8l-2.2-3.5zm33.2-9-6 13.6v8.5h-6l2.3 2.3h6v-10.6l5.3-11.5-1.6-2.3zm-7.5 6.2-1.8-4-3.1-2.2 4.1 8.3c.2-.9.4-1.5.8-2.1z"/><path fill="#a59563" d="M57.2 92v-1.2H50l.8 1.9c.2.4.4 1.2.4 2.6V113h6V92zm12 16.1h-2V90.8h-7.1l.8 1.9c.2.4.4 1.4.4 2.4V113H75v-6.4l-1.8 1c-.9.4-2.3.6-4 .6z"/><path fill="#a59563" d="M40.9 101.3A8 8 0 0 0 38 99l9.9-11.2 1.9-2h-9l.3 1.2c0 .6-.4 1.4-1.2 2.3l-6 6.8V85.7h-8.3l.6 1.6c.5 1.4.9 2.7.9 3.5v26.4h6.8v-13.8a10 10 0 0 1 2.7 3.3l7.2 10.5h8l-1.2-1.8c0-.2-6.8-10-9.7-14zm107.9-10.5.8 1.9c.2.6.4 1.2.4 1.8v7.4l-7.2-11h-7l1.2 1.8c.2.6.4 1.4.4 2V113h4.4v-13l8.2 13h4.3V91h-5.5zm26.2 0h-6.2l.2 1.5c0 .6-.2 1.4-.4 2.2-.2.2-1 2.5-1.9 4.6l-4.1-8.3h-7l1.4 2 1.7 3.4 4.3 8.2v8.5h6v-8.5l6-13.6z"/><path fill="#365e49" d="m98.6 111.8-6.6-9c-.6-1-1.6-1.9-2.8-2.5l5-5.2 2-2-1-2.3-2.1 2c-.2.5-4 4.4-6.2 6.7.8.4 1.6 1.2 2.3 2l8.2 11.4h-7.2l3.3 2.3h7.4l-2.3-2.3v-1z"/><path fill="#a59563" d="M89.2 101.5a7.1 7.1 0 0 0-2.3-2c2.3-2.3 6-6.2 6.2-6.6l2-2h-7.6V92c0 .3 0 .9-.6 1.5-.6.8-1.9 2.3-3.1 3.3v-6h-7.4l1 1.9c.2.4.4 1.4.4 2V113h6v-9l1.2 1.3 5.2 7.7h7.2l-8.2-11.4z"/><path fill="#f1edd9" d="M52.4 95.3c0-1.4-.2-2.4-.6-3.3H56v19.6h-3.5V95.3zm17 14c1 0 3-.1 4.3-.8v3.1H62.5V95.1c0-1.2-.2-2.2-.6-3h4.2v17.3h3.3zM37.6 106c-2-3-3.5-4.4-5-3.7V116h-4.3V90.8c0-1.2-.6-2.9-1-4h5.3v12.5L41 90c.8-1 1.4-2 1.2-3.1h5L35.5 99.5c1.9 0 3.1.8 4.4 2.7 3 3.9 9.7 13.8 9.7 13.8h-5l-7-10.1zm103-10.1v15.8h-2v-17c0-1-.1-2-.6-2.7h4.2l9 14V94.6a5 5 0 0 0-.6-2.5h2.5v19.6h-2.5l-10-15.8z"/><path fill="#365e49" d="m128.8 98.6-3.7-5.5-3.6-2.3 7.3 11.1v-3.3zm4.3-7.8v22h-4.3l2.2 2.4h4.4V93l-2.3-2.3zm-12.6 9v13h-4.3l2.2 2.4h4.4v-11.8l-2.3-3.5z"/><path fill="#a59563" d="m127.5 90.8.9 1.9c.2.6.4 1.2.4 1.8v7.4l-7.3-11h-6.8l1 1.8c.5.6.5 1.4.5 2V113h4.3v-13l8.3 13h4.3V91h-5.6z"/><path fill="#f1edd9" d="M119.3 95.8v15.8h-1.9V94.7c0-1-.2-2-.6-2.7h4.1l9.1 14V94.6a5 5 0 0 0-.6-2.5h2.5v19.6h-2.3l-10.3-15.8zm40.4-.2c-.6-1.7-1.2-2.7-1.6-3.6h3.9l4.7 10 3-7c.3-.7.7-2 .5-3h2.7l-5.1 12v7.6h-3.6v-7.4l-4.5-8.6zm-73.6 9c-1.5-2-2.5-2.9-3.5-2.4v9.4H79V94.7c0-.8-.3-1.8-.7-2.7h4.2v7.9l5.3-5.6c.6-.8.8-1.6.8-2.3h3.6s-7.3 7.7-7.7 8.3c1.3-.2 2.7.6 3.7 1.9 2 3 6.8 9.4 6.8 9.4h-4.3l-4.7-7z"/><path fill="#365e49" d="M104.6 95v4h2.3v-1.8h7.4v-4.1l-2.2-2.3V95h-7.5zm8.7 6.3-2.3-2.2v4h-6.4v5h2v-2.6h6.7v-4.2zm-.6 5.4v6.2h-14l2.2 2.2h13.8V109l-2-2.3z"/><path fill="#a59563" d="M107.3 108.1h-2.7v-5h6.4v-4h-6.4v-4.2h7.5v-4H97.2l1 1.8c.2.6.4 1.4.4 2.6V113h14v-6.2a8.5 8.5 0 0 1-5.3 1.4z"/><path fill="#f1edd9" d="M111.4 108.8v2.8H100V95.3c0-1.6-.2-2.4-.6-3.3h11.5v1.7h-7.4v6.6h6.4v1.6h-6.4v7.5h4.1a12 12 0 0 0 4-.6z"/><path fill="#365e49" d="M172.7 112.7h-.8v-.6h2.2v.6h-.8v2.5h-.6v-2.5zm1.9-.6h1l.4 1.6.4-1.6h1v3h-.6V113l-.6 2.3h-.6l-.4-2.3v2.3h-.6V112z"/></g></svg>