<svg xmlns="http://www.w3.org/2000/svg" viewBox="0 0 403.4 376.9"><path fill="#231f20" d="M76.4 313.6V306c0-6.3.1-9.2 2.3-9.8 1.4-.4 2.6 0 2.6-1.1 0-.6-.3-.8-1-.8-.9 0-3.1.3-6.5.3s-5.6-.3-6.6-.3c-.6 0-1 .2-1 .8 0 1 .8.8 2 1 2.8.4 3 1.6 3 5.6V318c0 4-.2 5.3-3 5.6-1.2.2-2 0-2 1 0 .5.3.8 1 .8 1 0 3.2-.3 6.6-.3 3.4 0 5.6.3 6.5.3.7 0 1-.3 1-.8 0-1.2-1.2-.7-2.6-1.2-2.2-.6-2.3-3.4-2.3-9.7"/><path fill="#231f20" fill-rule="evenodd" d="m179 307.8 2.3.1c4.6 0 7-2.1 7-6 0-4-2.4-6.3-6-6.3-3 0-3.3 1.2-3.3 6v6.2zm0 1.6v7.5c0 1.9.2 4 .6 6.4 1.6.4 3 .7 4 .7 4.1 0 7-3.1 7-7.3 0-4.5-3.3-7.5-9.2-7.5-.8 0-1.6 0-2.4.2m-5.2-7.7c0-4-.1-5.2-3-5.6-1.2-.2-1.9 0-1.9-1 0-.6.3-.8 1-.8 1 0 3.1.2 6.4.2 2.8 0 5.5-.4 8-.4 5.8 0 9.1 3 9.1 7.3 0 3.6-2.5 6.2-7 7 6.1.5 9.6 3.5 9.6 8 0 5.3-4.2 9.2-10.5 9.2-3.1 0-6.2-.6-9-.6-3.5 0-5.7.3-6.7.3-.6 0-1-.3-1-.8 0-1 .8-.8 2-1 2.9-.3 3-1.6 3-5.6v-16.2m-161 11.1h.4c7.2 0 10.8-2.8 10.8-8.5 0-5.1-3.3-8.6-8.3-8.6-2.6 0-3 1.7-3 6v11.1zm0 1.6v3.9c0 3.4.6 4.9 3 5.2 1.1.2 1.9 0 1.9 1 0 .5-.3.8-1 .8-1 0-3.2-.3-6.5-.3-3.5 0-5.7.3-6.6.3-.7 0-1-.3-1-.8 0-1 .8-.8 2-1 2.8-.3 3-1.6 3-5.6v-16.2c0-4-.2-5.2-3-5.6-1.2-.2-2 0-2-1 0-.6.3-.8 1-.8 1 0 3.2.2 6.5.2 2.5 0 5.4-.5 8.7-.5 7 0 11.1 3.9 11.1 9.7 0 6.7-5.4 10.8-15.7 10.8h-1.4"/><path fill="#231f20" d="m102 318.2-6.8-16.5a13 13 0 0 1-1.2-4c0-1.1.8-1.4 2.4-1.7.5-.1.8-.3.8-1 0-.5-.2-.7-1-.7-1 0-3 .3-5.9.3-3 0-5.1-.3-6.1-.3-.7 0-1 .2-1 .8 0 .6.3.8.8.9.9.2 1.8.2 2.6 1 1 1 2 2.7 2.9 4.8L95 314c3.6 8.1 4.1 12 5.3 12 1.1 0 1-2.2 2.6-5.9l8.8-19.3c1.3-2.9 2-4 4.1-4.7.9-.2 1.4-.2 1.4-1 0-.6-.3-.8-1-.8-.8 0-2.4.3-4.8.3-2 0-3.5-.3-4.5-.3-.6 0-1 .3-1 1s.8.6 2 .8c1.6.2 2.4.6 2.4 1.8 0 1.3-1 3.7-2.6 7.3l-5.8 13"/><path fill="#231f20" fill-rule="evenodd" d="M118.4 313.1h9.4l-4.4-11.8-5 11.8zm-.6 1.7-1.1 2.9a13 13 0 0 0-1 3.9c0 1.4.8 1.8 2.5 2 .9.1 1.3.1 1.3.9 0 .5-.2.8-1 .8l-4.3-.2-4 .2c-.7 0-1-.3-1-.8 0-1 .8-.7 1.7-1 2-.8 2.9-3.3 4.8-7.6l7.7-17.8c1.2-2.7 1.3-4.7 2.3-4.7 1 0 1 3.4 3 8.6l6 15.2c1.5 3.7 2.2 5.8 4.4 6.3 1 .2 1.5.1 1.5 1 0 .5-.3.8-1 .8-.8 0-2.8-.3-6-.3-3 0-5.1.3-6 .3-.7 0-.9-.2-.9-.9s.6-.8 1.5-.9c1.6-.1 2.4-.7 2.4-1.8 0-1-.3-1.9-.7-2.9l-1.5-4h-10.6m119.4-1.7h9.4l-4.5-11.8-5 11.8zm-.7 1.7-1.1 2.9a13 13 0 0 0-1 3.9c0 1.4.8 1.8 2.5 2 .9.1 1.4.1 1.4.9 0 .5-.3.8-1 .8l-4.4-.2-4 .2c-.7 0-1-.3-1-.8 0-1 .8-.7 1.7-1 2-.8 2.9-3.3 4.8-7.6L242 298c1.2-2.7 1.3-4.7 2.3-4.7 1 0 1 3.4 3 8.6l6 15.2c1.5 3.7 2.3 5.8 4.4 6.3 1 .2 1.5.1 1.5 1 0 .5-.3.8-.9.8-.9 0-3-.3-6-.3-3.2 0-5.2.3-6 .3-.8 0-1-.2-1-.9s.6-.8 1.5-.9c1.6-.1 2.5-.7 2.5-1.8 0-1-.4-1.9-.8-2.9l-1.5-4h-10.6"/><path fill="#231f20" d="M285.8 306v5c0 4.3-.2 7.5-2.5 10a10 10 0 0 1-7.8 3.4c-6.3 0-9.2-4.4-9.2-13.5v-5c0-6.2 0-9 2.2-9.7 1.4-.4 2.7 0 2.7-1.2 0-.5-.3-.7-1-.7-1 0-3.2.3-6.6.3-3.4 0-5.6-.3-6.5-.3-.7 0-1 .2-1 .8 0 1 .7.8 2 1 2.8.4 3 1.6 3 5.6v9.8c0 9.7 4.8 14.6 14.2 14.6 4.4 0 8.2-2 10.5-5.3 1.7-2.6 2-5.9 2-10.1v-4.8c0-6.3 0-9 2.2-9.7 1.4-.4 2.7 0 2.7-1.2 0-.5-.3-.7-1-.7-.8 0-2.4.3-4.8.3-2.7 0-4.6-.3-5.5-.3-.8 0-1.2.2-1.2.7 0 1.3 1.4.8 3.1 1.3 2.4.6 2.5 3.2 2.5 9.7m110.2 7.6V306c0-6.3 0-9.2 2.2-9.8 1.4-.4 2.6 0 2.6-1.1 0-.6-.2-.8-1-.8-.9 0-3.1.3-6.5.3s-5.6-.3-6.5-.3c-.7 0-1 .2-1 .8 0 1 .7.8 2 1 2.8.4 3 1.6 3 5.6V318c0 4-.2 5.3-3 5.6-1.3.2-2 0-2 1 0 .5.2.8 1 .8.9 0 3-.3 6.5-.3 3.4 0 5.6.3 6.6.3.7 0 1-.3 1-.8 0-1.2-1.3-.7-2.7-1.2-2.1-.6-2.2-3.4-2.2-9.7M360 325h14.7c3 0 4.5.4 4.8.4 1.2 0 1.2-1 1.3-2.2.4-3.6 1.7-6 1.7-7.2 0-.3-.4-.6-.8-.6-1 0-.8 1.8-2.7 4-2 2.4-5.6 4-9.6 4-3.9 0-4-1.6-4-6.4v-7h4.6c3.2 0 5.2 0 6 .9.7.8.6 2 .8 3.2 0 .4.4.7.8.7s.7-.4.7-.8v-2c0-3.3.5-5.2.5-6 0-.5-.3-.8-.7-.8-1.2 0-.7 1.7-2 2.5-.6.4-2.4.5-5.7.5h-5v-6.6c0-4.3.4-5.6 3.3-5.6h1.8c4 0 6 1.4 7.1 4.7.5 1.4.2 2.2 1 2.2.5 0 .8-.4.8-.8l-.1-1.3c0-3.7.6-5.9.6-6.2 0-.2-.1-.3-.3-.4l-.7-.2c-.6 0-2.6.2-6.4.2h-16.3c-.7 0-1 .2-1 .8 0 1 .8.8 2 1 2.8.4 3 1.6 3 5.6v16.2c0 4-.2 5.3-3 5.6-1.2.2-2 0-2 1 0 .5.3.8 1 .8l3.8-.2"/><path fill="#231f20" fill-rule="evenodd" d="m334.5 309 2.2.2c4.7 0 7.3-2.7 7.3-7 0-4-2.5-6.6-6-6.6-3.3 0-3.5 1.3-3.5 6.6v6.8zm0 1.3v3.3c0 6.3 0 9 2 9.8 1.3.4 2.5 0 2.5 1.1 0 .5-.3.8-.9.8-.8 0-3-.3-6.2-.3-3.4 0-5.6.3-6.6.3-.7 0-1-.3-1-.8 0-1 .8-.8 2-1 2.9-.3 3-1.6 3-5.6v-16.2c0-4-.1-5.2-3-5.6-1.2-.2-1.9 0-1.9-1 0-.6.3-.8 1-.8 1 0 3.1.2 6.4.2 2.9 0 5.5-.5 7.8-.5 6.1 0 9.8 3.4 9.8 8.3 0 4-2.7 7-7.4 7.8a76.6 76.6 0 0 0 11.6 12.7c1 .7 2 .6 2 1.4 0 .6-1 1.1-3 1.1-5.7 0-9.5-5.3-16.6-14.8l-1.5-.2"/><path fill="#231f20" d="M299 325h14.7c3 0 4.6.4 4.9.4 1.2 0 1.2-1 1.3-2.2.4-3.6 1.7-6 1.7-7.2 0-.3-.4-.6-.8-.6-1 0-.8 1.8-2.7 4-2 2.4-5.6 4-9.7 4-3.8 0-4-1.6-4-6.4v-7h4.7c3.2 0 5.1 0 6 .9.7.8.6 2 .8 3.2 0 .4.4.7.7.7.5 0 .8-.4.8-.8v-2c0-3.3.5-5.2.5-6 0-.5-.3-.8-.7-.8-1.2 0-.7 1.7-2 2.5-.6.4-2.5.5-5.7.5h-5v-6.6c0-4.3.4-5.6 3.3-5.6h1.8c4 0 6 1.4 7.1 4.7.5 1.4.1 2.2 1 2.2.4 0 .8-.4.8-.8l-.1-1.3c0-3.7.6-5.9.6-6.2 0-.2-.1-.3-.3-.4l-.7-.2h-.1c-.5 0-2.5.2-6.4.2h-16.2c-.7 0-1 .2-1 .8 0 1 .8.8 2 1 2.8.4 3 1.6 3 5.6v16.2c0 4-.2 5.3-3 5.6-1.2.2-2 0-2 1 0 .5.3.8 1 .8l3.8-.2"/><path fill="#231f20" fill-rule="evenodd" d="M209.2 310.3v3.3c0 6.3 0 9 2 9.8 1.2.4 2.4 0 2.4 1.1 0 .5-.3.8-.9.8-.8 0-2.9-.3-6.1-.3-3.4 0-5.7.3-6.6.3-.7 0-1-.3-1-.8 0-1 .8-.8 2-1 2.8-.3 3-1.6 3-5.6v-16.2c0-4-.2-5.2-3-5.6-1.2-.2-2 0-2-1 0-.6.3-.8 1-.8 1 0 3.2.2 6.5.2 2.8 0 5.4-.5 7.8-.5 6 0 9.7 3.4 9.7 8.3 0 4-2.6 7-7.3 7.8a75.8 75.8 0 0 0 11.5 12.7c1 .7 2 .6 2 1.4 0 .6-1 1.1-3 1.1-5.7 0-9.4-5.3-16.5-14.8l-1.5-.2zm0-1.3 2.2.2c4.6 0 7.3-2.7 7.3-7 0-4-2.5-6.6-6.1-6.6-3.2 0-3.4 1.3-3.4 6.6v6.8"/><path fill="#231f20" d="M154.3 313.6V296h3.8c4.2 0 5.8.5 5.8 2.4 0 1.2-.4 2.1-.4 2.5 0 .4.2.6.7.6.7 0 .8-.8 1.3-2.6.9-2.9 2-4.5 2-5 0-.2-.4-.6-.6-.6-.2 0-1 1-6 1h-18.3c-1.2 0-2 0-2.5-.4-.4-.3-.5-.7-.8-.7-.7 0-.8.4-.8 1 0 2.7-1.8 5.6-1.8 6.6 0 .2.3.5.5.5 1 0 1-1.1 2-2.9 1-1.9 3.2-2.4 6.7-2.4h3.2v22c0 4-.2 5.2-3 5.5-1.2.2-2 0-2 1 0 .5.3.8 1 .8 1 0 3.2-.3 6.5-.3 3.4 0 5.7.3 6.6.3.7 0 1-.3 1-.8 0-1.2-1.3-.7-2.7-1.2-2.1-.6-2.2-3.4-2.2-9.7"/><path fill="#231f20" fill-rule="evenodd" d="M42.7 310.3v3.3c0 6.3 0 9 2 9.8 1.2.4 2.4 0 2.4 1.1 0 .5-.3.8-.9.8-.8 0-2.9-.3-6.1-.3-3.4 0-5.7.3-6.6.3-.7 0-1-.3-1-.8 0-1 .8-.8 2-1 2.8-.3 3-1.6 3-5.6v-16.2c0-4-.2-5.2-3-5.6-1.2-.2-2 0-2-1 0-.6.3-.8 1-.8 1 0 3.2.2 6.5.2 2.8 0 5.4-.5 7.8-.5 6 0 9.7 3.4 9.7 8.3 0 4-2.6 7-7.3 7.8a76.8 76.8 0 0 0 11.5 12.7c1 .7 2 .6 2 1.4 0 .6-1 1.1-3 1.1-5.7 0-9.4-5.3-16.5-14.8l-1.5-.2zm0-1.3 2.2.2c4.6 0 7.3-2.7 7.3-7 0-4-2.5-6.6-6.1-6.6-3.2 0-3.4 1.3-3.4 6.6v6.8"/><path fill="#231f20" d="m154.5 369-6.7-16.5c-.8-2-1.3-3.2-1.3-4 0-1 1-1.4 2.5-1.7.5 0 .8-.3.8-1 0-.5-.3-.6-1-.6-1 0-3 .3-6 .3-2.3 0-4-.3-5.2-.3-.6 0-1 .2-1 .7 0 .8.5.8.9 1 1.6.5 3 2.5 4.6 5.8l1.7 3.8-5.6 12.5-6.7-16.5a15 15 0 0 1-1.2-4c0-1 .8-1.4 2.4-1.7.5 0 .8-.3.8-1 0-.5-.2-.6-1-.6-1 0-3 .3-5.9.3-3 0-5.1-.3-6.1-.3-.7 0-1 .1-1 .7 0 .7.3.8.8 1 .9.1 1.8.2 2.6 1 1 1 1.9 2.6 2.9 4.8l5.5 12.2c3.6 8 4.1 12 5.3 12 1 0 1-2.2 2.6-6l5.5-12.2 2.9 6.2c3.6 8 4 12 5.2 12 1 0 1-1.8 2.7-6l7.6-19.3c1.2-3 2.3-4 4-4.6.8-.3 1.1-.5 1.1-1s-.3-.8-1-.8c-.3 0-1.8.2-4.6.2l-4.3-.2c-.7 0-1 .2-1 .9 0 .8.8.7 2 .8 1.6.2 2.2.8 2.2 2 0 .7-.5 3-1.8 6.3l-5.2 13.8m24.5-4.6v-7.6c0-6.3 0-9.1 2.1-9.7 1.5-.5 2.7 0 2.7-1.2 0-.5-.3-.7-1-.7-1 0-3.1.3-6.5.3s-5.6-.3-6.6-.3c-.6 0-1 .2-1 .8 0 .9.8.7 2 .9 2.8.4 3 1.7 3 5.7v16.2c0 4-.2 5.2-3 5.6-1.2.2-2 0-2 1 0 .5.3.7 1 .7 1 0 3.2-.3 6.6-.3 3.4 0 5.6.3 6.5.3.7 0 1-.2 1-.8 0-1.2-1.2-.7-2.7-1.1-2-.6-2.2-3.4-2.2-9.8M109 347l-15.5 22.9c-2.4 3.3-4.4 4.6-4.4 5.5 0 .5.3.6 1 .6h20.8c2.8 0 3.8.2 4 .2 1 0 1-1 2.2-3.2 1.4-2.4 2.4-3.8 2.4-4.4 0-.3-.1-.5-.5-.5-.9 0-1.4 1.8-3.6 3.6a8 8 0 0 1-5 2c-2.8.3-7.3.4-13.7.4l15.6-22.5c2.5-3.6 4.8-5 4.8-6 0-.4-.4-.8-.8-.8s-2.4.4-6 .4H92.4c-1 0-1 1.3-1.6 2.9-1.3 3.4-2.2 5.2-2.2 5.8 0 .2.2.4.5.4.8 0 1-1.5 2.3-3.4 2.6-3.6 5.6-4 11.8-4h5.9m94.4 30.1c4 0 6.8-1 8.4-1 .6 0 1 .3 1.5.3s.6-.3.6-.7v-.6c0-4.3 1.2-7.1 1.2-8.1 0-.3-.3-.6-.9-.6-.8 0-.8 1.6-1.7 3.6-1.6 3.6-3.9 5.2-8 5.2-7 0-12-6-12-15 0-8.4 4.7-14 11-14 4.8 0 7.7 2 9.2 6.2.5 1.3.6 2.1 1.3 2.1.5 0 .8-.3.8-.8 0-.4-.4-1.7-.4-4 0-2.8.6-4.1.6-4.4 0-.3-.4-.6-.8-.6-.6 0-.6 1.4-2.3 1.4-1.9 0-4.6-1.7-8.6-1.7s-7.4 1.1-10.2 3.2a16.3 16.3 0 0 0-1.2 25.2c3 2.8 7 4.2 11.5 4.2"/><path fill="#231f20" fill-rule="evenodd" d="M259.5 364h9.4l-4.4-11.8-5 11.8zm-.6 1.6-1.1 2.9c-.7 1.8-1 3.2-1 3.9 0 1.4.8 1.9 2.4 2 1 .1 1.4.2 1.4.9 0 .6-.2.9-1 .9s-2.2-.3-4.3-.3c-1.7 0-3.1.3-4 .3-.7 0-1-.3-1-.9 0-1 .8-.7 1.7-1 2-.7 2.8-3.3 4.7-7.6l7.8-17.7c1.2-2.8 1.3-4.7 2.3-4.7 1 0 1 3.3 3 8.5l6 15.3c1.5 3.7 2.2 5.7 4.4 6.2 1 .3 1.5.2 1.5 1 0 .6-.3.9-1 .9-.8 0-2.9-.4-6-.4-3 0-5.1.4-6 .4-.7 0-.9-.3-.9-1 0-.6.6-.7 1.5-.8 1.6-.2 2.4-.8 2.4-2 0-.9-.3-1.7-.7-2.8l-1.5-4H259"/><path fill="#231f20" d="M309.1 356.8v5c0 4.4-.3 7.5-2.5 10.1-1.7 2-4.6 3.3-7.8 3.3-6.3 0-9.2-4.4-9.2-13.5v-4.9c0-6.3 0-9.1 2.2-9.7 1.4-.5 2.7 0 2.7-1.2 0-.6-.4-.7-1-.7-1 0-3.2.3-6.6.3-3.4 0-5.6-.3-6.5-.3-.7 0-1 .1-1 .7 0 1 .7.8 2 1 2.8.4 3 1.6 3 5.7v9.8c0 9.6 4.8 14.5 14.2 14.5 4.4 0 8.2-1.9 10.4-5.2 1.8-2.7 2-6 2-10.2v-4.8c0-6.2.1-9 2.3-9.6 1.4-.5 2.7 0 2.7-1.2 0-.6-.3-.7-1-.7l-4.8.2-5.5-.2c-.8 0-1.2.1-1.2.7 0 1.2 1.3.8 3 1.2 2.5.6 2.6 3.3 2.6 9.7m-78.1 3.4 7.5 9.8c1.1 1.5 1.7 2.6 1.7 3.5 0 .8-1.1.8-2 1a1 1 0 0 0-.4.8c0 .6.3.9 1 .9.6 0 2.6-.3 6-.3 3.3 0 5.3.3 6 .3.7 0 1-.3 1-1 0-.8-.9-.6-2-.8-1.7-.4-3.1-2-5.1-4.8l-9.8-13 6.1-5.4c2.7-2.4 5.2-3.8 7.7-4.3 1-.2 1.6-.3 1.6-1 0-.5-.3-.7-1-.7-.8 0-2.3.3-4.2.3-2.3 0-4.1-.3-5.2-.3-.7 0-1 .2-1 .8 0 1.1 2.6.6 2.6 1.9 0 .6-.9 1.6-2.6 3.1l-10 8.8v-3c0-6.2.1-9.1 2-9.7 1.3-.5 2.3 0 2.3-1.2 0-.5-.3-.7-.8-.7-.8 0-2.8.3-6 .3-3.5 0-5.6-.3-6.6-.3-.7 0-1 .2-1 .7 0 1 .7.8 2 1 2.8.4 3 1.6 3 5.7v16.1c0 4-.2 5.3-3 5.7-1.2.2-2 0-2 1 0 .5.3.8 1 .8.9 0 3.1-.4 6.5-.4s5.6.4 6.6.4c.7 0 1-.3 1-.9 0-1.2-1.2-.7-2.7-1.1-2.1-.6-2.2-3.4-2.2-9.8V362l2-1.7"/><path fill="#003f27" d="M10.3 165.8a205.3 205.3 0 0 0-8 34.5s19-2.7 45 2.7a122 122 0 0 1 40.1 14.8c1.7-16.7 7-33 15.2-47.2l-92.3-4.8"/><path fill="#d7ab28" d="M88.3 169.9c-6.7 12.9-11.3 27-13.3 41.6l1 .4c2-14.8 6.6-29 13.4-42h-1.1M8.8 199.7c1.7-11.5 4.4-22.7 8.1-33.5l-6.6-.4a205.3 205.3 0 0 0-8 34.5l6.5-.6m72.6 14.8c2-15.7 6.8-30.7 14.3-44.2l7 .3a117.4 117.4 0 0 0-15.3 47.2s-2-1.3-6-3.3m-57.4-48a188.5 188.5 0 0 0-8.5 33h-1c1.8-11.2 4.6-22.3 8.3-33H24"/><path fill="#d7ab28" d="M91.7 170c-7 13.3-11.7 27.7-13.7 42.8l1.4.7c2-15.3 6.7-30 14-43.4h-1.7M19 166.3c-3.6 10.7-6.4 22-8.2 33.3h1.6c1.8-11.4 4.5-22.5 8.3-33.2H19m66.2 3.3a131 131 0 0 0-12.9 40.7l-1-.4a131 131 0 0 1 12.8-40.3h1.1m-4.2-.2A132.7 132.7 0 0 0 68.6 209l-1-.3c2.1-13.8 6.3-27 12.3-39.2H81m-4.1-.2c-5.8 12-9.9 25-12 38.4l-1-.3c2.1-13.3 6-26.2 11.8-38.2l1.2.1m-4.2-.2a141.3 141.3 0 0 0-11.5 37.4l-1-.3c2.1-12.9 6-25.4 11.4-37.2l1.1.1m-4.1-.2c-5.3 11.6-9 23.8-11.1 36.6l-1-.3c2-12.7 5.8-24.8 11-36.4h1m-4.1-.2a151 151 0 0 0-10.7 35.9l-1-.3a152 152 0 0 1 10.6-35.6h1.1m-4-.2c-4.9 11.2-8.3 23-10.4 35.2l-1-.2c2-12.2 5.5-23.9 10.2-35h1.2m-4.2-.2c-4.6 11-8 22.6-10 34.6l-1-.2c2-12 5.4-23.4 10-34.4h1m-4-.2a160 160 0 0 0-9.8 34l-1-.1a162 162 0 0 1 9.7-34l1 .1m-4-.2c-4.3 10.8-7.5 22-9.5 33.7l-1-.2c2-11.6 5.2-22.8 9.4-33.6l1.1.1m-4.1-.2a163.8 163.8 0 0 0-9.1 33.3l-1-.1c1.8-11.5 4.9-22.6 9-33.3h1.2m-4.1-.1a172 172 0 0 0-9 33h-1a172 172 0 0 1 9-33h1m-4-.2c-4 10.6-7 21.6-8.8 33l-1-.2a176 176 0 0 1 8.7-32.9l1 .1M32 167a178.3 178.3 0 0 0-8.7 32.8h-1a175 175 0 0 1 8.6-32.9h1m-3.9-.1a183.7 183.7 0 0 0-8.6 32.9h-1c1.8-11.3 4.7-22.4 8.5-33h1"/><path fill="#003f27" d="M393.1 165.8c3.7 11.2 6.4 22.7 8.1 34.5 0 0-19-2.7-45.1 2.7a123.2 123.2 0 0 0-40.1 14.8c-1.7-16.7-6.9-33-15.2-47.2l92.3-4.8"/><path fill="#d7ab28" d="M384.4 166.3c3.7 10.7 6.4 22 8.2 33.3h-1.5a192.2 192.2 0 0 0-8.3-33.2h1.6m-72.7 3.6a125.7 125.7 0 0 1 13.8 42.8l-1.5.7a124 124 0 0 0-14-43.4h1.7"/><path fill="#d7ab28" d="M322 214.5a121 121 0 0 0-14.3-44.2l-6.9.3a117.4 117.4 0 0 1 15.2 47.2s2-1.3 6-3.3m-6.9-44.6c6.8 12.9 11.3 27 13.4 41.6l-1 .4a127 127 0 0 0-13.5-42h1.1m64.4-3.4a190 190 0 0 1 8.4 33h1a189 189 0 0 0-8.3-33h-1m15.1 33.2a193.3 193.3 0 0 0-8.2-33.5l6.6-.4c3.7 11.2 6.4 22.7 8.1 34.5l-6.5-.6m-76.5-30a130.6 130.6 0 0 1 13 40.7l1-.4a134 134 0 0 0-12.8-40.3h-1.2m4.2-.2a132.7 132.7 0 0 1 12.4 39.5l1-.3a136.1 136.1 0 0 0-12.3-39.2h-1.1m4.2-.2c5.8 12 9.8 25 12 38.4l1-.3a143.8 143.8 0 0 0-11.9-38.2l-1.1.1m4.1-.2c5.6 11.8 9.4 24.4 11.5 37.4l1-.3c-2-12.9-6-25.4-11.3-37.2l-1.2.1m4.2-.2c5.2 11.6 9 23.8 11 36.6l1-.3c-2-12.7-5.7-24.8-11-36.4h-1m4.1-.2c5 11.4 8.6 23.4 10.7 35.9l1-.3a152 152 0 0 0-10.6-35.6h-1m3.9-.2a153 153 0 0 1 10.4 35.2l1-.2c-2-12.2-5.4-23.9-10.2-35h-1.1m4.1-.2c4.6 11 8 22.6 10 34.6l1-.2c-2-12-5.3-23.4-10-34.4h-1m4.1-.2a159 159 0 0 1 9.7 34l1-.1c-2-11.7-5.2-23.1-9.7-34l-1 .1m4-.2c4.3 10.8 7.5 22 9.5 33.7l1-.2a174 174 0 0 0-9.3-33.6l-1.2.1m4.1-.2c4.2 10.7 7.3 21.8 9.2 33.3l1-.1c-1.9-11.5-5-22.6-9.1-33.3h-1.1m4-.1c4.1 10.6 7.1 21.7 9 33h1a170.8 170.8 0 0 0-8.9-33h-1m4-.2c4 10.6 6.9 21.6 8.8 33l1-.2a176 176 0 0 0-8.7-32.9l-1.1.1m4-.2a177 177 0 0 1 8.6 32.8h1a183.2 183.2 0 0 0-8.5-32.9h-1.1m4-.1c3.9 10.6 6.7 21.6 8.5 32.9h1a183.2 183.2 0 0 0-8.4-33h-1"/><path fill="#003f27" d="m320.9 188.4-2.7 3.4-17.4-21.2 14.8-4.4a122.5 122.5 0 0 0-113.9-81.8 124 124 0 0 0-114.6 80.2l15.5 6-17.4 21.2s-3.9-3.4-4-2.7a145.7 145.7 0 0 0-42.5-13.4A101 101 0 0 0 3 174 199.5 199.5 0 0 1 201.7 3.6a199 199 0 0 1 198.6 170.2 109 109 0 0 0-34.6 2c-17.6 3-31 7.4-44.6 14.2l-.2-1.6"/><path fill="#d7ab28" d="m183.9 44.4 2.2-.8a6 6 0 0 0 2.5-2.5c1-1.8 1.3-4 1-7-.6-4.7-2.2-7.3-5.3-8l-.4-.1c-1.5-.2-2.6-.2-5.9.1l2 18.8 3.9-.6m0 20.6c.8.4 1.8.5 3.8.2h.8l.2 1.7-4.8.5-5.4.8a125 125 0 0 0-11.2 2.3l-.2-1.8h.5a9 9 0 0 0 2.6-.7 3 3 0 0 0 1.9-2.5l-.2-2.3v-1L168.3 31c-.3-2.3-.5-2.9-1.4-3.7-.8-.8-1.8-.9-4-.7h-.5l-.2-1.7 20-2.2 1.5-.1c9.5-.7 15.3 3.1 16 10.6.8 6.1-2.1 10.4-8.4 12.4l10.2 13.2.8 1.3c1.7 2.4 3.3 3.8 4.7 4 1.4.3 2.6.3 3 .1a3 3 0 0 0 2.5-2c.2-.5.3-1 .4-2.2l.2-2.1 3.3-29c.3-2.3 0-2.8-.5-3.9-.7-1-1.7-1.2-4-1.5h-.4l.2-1.9 20.8 2.4-.2 1.8-.4-.1c-3.7-.4-5 .7-5.5 4.4L223 61.5l-.1 1.4c-.1 1 .1 1.7.6 2.5.7.8 1.8 1.2 4 1.5h.3l-.2 1.8s-13.8-2.2-20-2.5c-6.2-.2-12.2-.1-12.2-.1L184 50l-2-2.8-.8.1h-.8l1.5 13.5c.3 2.3.5 2.8 1.4 3.6.2.1.4.3.7.3m-81.3 20.7 6.4-5-6.4-3.8-6.4-3.8 4.5 14.1 1.9-1.5zm0 7.4 1.3 4.1c.5 1.5.7 2 1 2.4 1.1 1.5 2.5 1.2 5.3-1l.7-.5 1 1.4s-4.4 3.9-9 8.7l-.3.3c-4.5 4.9-9.7 11.5-9.7 11.5l-1.5-1 .4-.7a7.7 7.7 0 0 0 1.3-2.5c.5-1.4 0-2.5-1.4-3.7l-1-1L62.6 92l24.2 36.9-.7 1-43-8.4L72 141l1.2.8c2 1.3 3.1.3 5-2.6l.4-.6 1.5 1-5.8 12-1.5-1 .4-.5c.7-1 .7-2 .8-2.6.4-1 0-2.2-.8-3l-1.8-1.3-27.1-18-1.1-.7c-2.2-1.4-3.8-1-5.6 1.9l-.4.5-1.5-1 7.6-14.3 33.5 6.8-18.7-28.5 10.2-12.3 1.5 1-.2.3c-.7 1-1 1.7-1.2 2.2-.5 1.6.4 3.1 2.6 4.6l26.3 17.6c1.8 1.3 3 1.7 4.2 1.2a5 5 0 0 0 .3-3l-.7-2.3-12-38.8 1.4-1.1 12 6.7 26 14.4c2.3 1.3 2.7 1.5 4 1.8 1 .1 1.6 0 2.5-.6l.2-.2 1.1 1.4s-3.4 1.7-8.6 5.1c-5.3 3.4-9.1 6.3-9.1 6.3l-1.1-1.4.6-.5c3-2.3 3.6-3.5 2.5-4.9l-1-.8-1.3-.7-7-4-8.7 6.7-1.1 1 1.1 3.3m225.1 93.8a126.4 126.4 0 0 0-36.1-72.7c-24-24-56-37.3-89.9-37.3a126 126 0 0 0-89.9 37.3 126 126 0 0 0-36 72.7l1.4.7a125 125 0 0 1 35.7-72.4 124.8 124.8 0 0 1 88.8-36.7 125 125 0 0 1 124.5 109.2l1.5-.8"/><path fill="#d7ab28" d="M79.1 188.4a122.9 122.9 0 0 1 35.3-71.9 122.6 122.6 0 0 1 87.3-36.1c33 0 64 12.8 87.4 36.1a122.5 122.5 0 0 1 35.2 71.9c-4 2-6 3.4-6 3.4a116.6 116.6 0 0 0-116.5-105 116.5 116.5 0 0 0-116.5 105c-.1 0-2.1-1.4-6.2-3.4"/><path fill="#d7ab28" d="M394.8 173.2a194 194 0 0 0-54.9-108A194 194 0 0 0 201.7 8 194 194 0 0 0 63.5 65.3 193.9 193.9 0 0 0 8.7 173.2h1.5c6.3-40.3 25-77.5 54.4-106.9A192.9 192.9 0 0 1 201.7 9.5c51.8 0 100.4 20.2 137.1 56.8a192.8 192.8 0 0 1 54.4 106.8l1.6.1"/><path fill="#231f20" d="M217.8 126.1c-3.3 0-3.5-.8-5.8-.8-2.4 0-2.6 1-5.2 1-2.5 0-2.7-1-5-1-2.4 0-2.6 1-5.2 1-2.5 0-2.7-1-5-1-2.5 0-2.4.8-5.7.8v-6.9h2.4v-4.4l-1.3-1.3v-3h1.9v-1.2l-1.5-1.2 4-4 4.5 4-1.6 1.2v1.2h1.9v3l-1.2 1.3v4.4h3.6v-4.4l-1.3-1.3v-3h2v-1.2l-1.6-1.2 4-4 4.4 4-1.5 1.2v1.2h1.9v3l-1.3 1.3v4.4h3.6v-4.4l-1.3-1.3v-3h2v-1.2l-1.6-1.2 4.4-4 4 4-1.5 1.2v1.2h2v3l-1.3 1.3v4.4h2.3v7m-17.9 19.5a25 25 0 0 0-8-8.4c-2.7-1.3-5-1.7-6.3-1a3 3 0 0 0-1.8 3c.3 6.5 7 11.3 10.3 16.5 2.1 3.3 4.5 7.9 4.5 12.6 0 3.5-1 6-2.2 7.7-28 1.6-28.5 5.7-44.8-1.8l.2 1c.2 2.2-.7 4.2-2 5.3a6.5 6.5 0 0 1-5.8 1c-2-.7-2.8-1.7-3.2-3-.6-1.5-.6-2.6-.6-2.6a21.6 21.6 0 0 0 .5 10.6c.9-2.1 3.1-3.6 6.1-3.6 3 0 6 2.2 7.4 6.4 1.5 4.2.3 8.3-2.1 12 2.9 4.5 5 9.9 4 16.5s-6 15.6 1.6 22.4l2.2 1.6a12.7 12.7 0 0 1-12.6-1.5 13.4 13.4 0 0 1-5.3-8.1c-.4-1.1-.4-2-.4-2-3.5.8-6.4.4-8-2a6.7 6.7 0 0 1-.4-7.6 6.8 6.8 0 0 1 6.7-2.8c1.9.2 2.1 1 2.1 1s0-1.1-.6-3.4c-.5-2.1-1.1-3.2-1.1-3.2a13.3 13.3 0 0 1-10.7 3.8 12 12 0 0 1-9.5-7 7.7 7.7 0 0 1 5-10.7c1.5-.3 1.9-.2 2.4-.1-.3-.3-1.1-.9-3.5-3.6-4-4.8-6.3-9.6-7.4-14a24.4 24.4 0 0 1-.4-11.7c.7-3.7 2.1-6.7 5.8-10.4 4.4-4.2 10.5-5.5 10.5-5.5-.1-2-.3-3.3.7-6.3a11 11 0 0 1 5.7-6.6l.5-.2c1 7.8 5.7 15 12.7 19 .2 0 .4.2.5-.1-.8-4-2.2-9-4.4-12.7-2.1-3.5-4.5-6-8-6.7l1.6-1.6a17.5 17.5 0 0 1 16.3-3c3.5 1.1 4.7 1.7 6.7 3 1.8 1.3 3.7 2.8 5 4.2a48 48 0 0 1 8.2 13.7 53 53 0 0 0 4.6 9.1c1.2 1.2 2.2 1.6 3.2 1.5.8-.2 1.2-.7 1.4-1.4.7-3.4-1.7-6.6-3.7-9.3a41 41 0 0 1-7.8-14.4c-.5-4.4.8-7.6 2.8-9.9a13 13 0 0 1 14.3-3.4c2.5.9 4.8 2.7 6.1 5.1 1.3 2.5.4 4.6.8 6.3.5 1.7.8 4.2.2 6.3"/><path fill="#d7ab28" d="m183.9 175.1-.1-.2c-6.7-1.8-13.1 1.3-19.8.7-.5 0-1.4-.2-1 .1 1.2.8 6.2.8 9.5.2 3.3-.7 7.5-1 11.4-.8m14.3-41.3c-.1.6-.9.2-1 0-.3-.1-2.6-3.5-4.7-2.7-.4.1-.6.5-.4 1 .7 1.5 2.4 3 2 5l-.3-.2c-2.5-1.7-5.8-3-9-1.7-1.1.5-1.9 1.4-2.2 3-.4 1.7.3 4 1 5.7.8 1.6 2 3.4 3.7 5.4 1.7 2 4.2 4.5 7 9 2.7 4.5 4.8 11.8 1.5 17.2l-5.6.3c-8 .5-15.8 1.7-23.9 1.8-1 0-1.5 0-3.5-.4-2-.3-5.5-1.4-8-2.7-.7-.4.4-.2 1 0 7.2 1 14-.6 20.8-1.7 2-.3 4-.5 6.6.2 2.7.6 5 2.1 5 2.1a5 5 0 0 0 .1-5c-1-1.7-2-2.4-2-2.4 1.6-.7 2.5-2.7 2.3-4.5-.7-5.1-5.2-9.2-8.4-14.4-2.3-3.7-3-6-3.3-8.4-.3-2.2.3-4.2 1.2-6.3 2.4-4.4 7.2-6.4 11.8-5.7 4.2.6 6.8 2.5 8.3 5.4"/><path fill="#d7ab28" d="M195 132.8c.2.2.2.9 0 1-.4.2-1-.5-1-.7-.2-.2-.4-.7 0-.8.4-.2 1 .2 1 .5m-37.3 4.6c-1.2-.3-2.2-.6-3.8-.6-3.2-.2-5.7.3-5.7.3.5.5 1.5.4 2.3.3 2.1 0 4.3.1 6 .9 1.8.7 3.7 1.8 4 3.7-.4.2-.8-.3-1.4-.5-4.3-1.6-9-2.6-13.8-2.8-.8-.1-2.3-.1-2.1-.3 2.2-2.1 5.7-3.1 8.2-3.3 2.5 0 4.5.3 6.2 1.9.4.3.1.4.1.4m11.1 10.2c.1.4-.3 0-.3 0-2.8-2.4-5.9-4.6-7.7-7.9a11 11 0 0 0-2.6-3.4c0-.1 0-.3.2-.3 5.4 1 9 6.8 10.4 11.6m28.4-11 1.6 4.2c.1.5.2 1 .1 1.2l-1-1-2.4-2.8c-.3-.9.7-1 1-2.1.3-.4.6 0 .7.5m-40.7 5.1c1.3.6 4.4 1.6 5.2 4-.3 0-.4-.2-.8-.3-3.1-1.3-6-2.9-9.5-3.3 0 .7 1.3 1 2.6 1.3 1.3.3 4.8 1.6 7.3 3.5.7.6 1.9 2.4 1.7 2.5-.3.2-.8-.2-1.7-.6-4.6-1.4-9.2-3-13.3-5.9-3.5-2.5-4-3.4-4-3.4a50 50 0 0 1 12.5 2.2m15.1 4.2c1.1 1.5 2 3.1 2.7 4.4l1.9 3.8 2.8 7c.6 1.3 1.3 2.7 2.5 4.1 1.6 2 3.6 2.6 4.9 4 1.3 1.4 1.6 2.9 1.2 4.3 0 0-1-.7-2.8-1.6a19.3 19.3 0 0 1-10-9.8 60 60 0 0 1-3-9.2c-.8-2.9-2-8-4.5-11.3 0-.2 0-.3.2-.3 1.4 1.4 3 3 4 4.6M130 157.3c.3-.1 0-.7-.3-.7-1 .5-2.5 1.3-3.7 2.3a18.6 18.6 0 0 0-7.1 19.7c0 .2.4.5.4.2-.7-4.4-.5-8.7 1.5-12.8a23 23 0 0 1 9.2-8.7m7-12.9a13 13 0 0 0 0 6.2 17 17 0 0 0 2.6 5.4c-2.2.5-6.3 1.2-10.8 4.1-4.5 3-6.8 6.1-7.6 9.7a16 16 0 0 0-.2 8.4c.4 2.6 1.4 5.2 2.5 7.3 1.2 2.2 2.8 4.3 4.1 5.9l4 3.9c.3 1.6.7 3.7.7 5.1l-.6-.6s-2-1.5-4-3.3a32.4 32.4 0 0 1-10.9-24.3c.3-3.2 1.3-6 2.8-8.6a21.8 21.8 0 0 1 14.5-10c-1.3-3.4-.1-7.5 2-10.3a7 7 0 0 1 2-1.8s-.8 1.4-1.2 3"/><path fill="#003f27" d="M146.4 158.4s1-.4.2-.4c-3.5-.1-6.6.1-10 1.3-1.4.5-.4 1 .3.8 2-.8 3.6-1 5.3-1.4l4.2-.3m-14 3.4c.6-.3.2-1-.1-.8-.6.2-2.3 1.3-3.3 2-4 3.2-6.4 8-6 13 .1.5.2 1.9.5 1.6A15 15 0 0 1 128 165c1.6-1.7 4-2.8 4.5-3.2m5-14.6c0-3 1.3-5.9 1.3-5.9l.4 2.6 1.3 3.6c1.8 5.3 6.8 10 11.6 13h-.5c-1.8-.2-4.7-.5-7.7-.2-2.8.2-5.9 1-8.6 2a18.5 18.5 0 0 0-8.7 7.4c-2.1 4.2-2 7.2-1 10.4.9 3.2 2.8 5.8 5.2 8.6 0 1.4.4 3.4.5 4.7l-.7-.6a29.8 29.8 0 0 1-6.3-8.3 20 20 0 0 1-1.6-16.2c2.3-5.7 10.8-10.8 18.7-11.7l-.8-1c-2-2.4-3-5.4-3-8.4"/><path fill="#d7ab28" d="M165.9 146.7c1.7 1.2 3.5 3.5 4.6 5.5.3.8.4 1.7.4 2.4l-1.4-1c-2.5-2-5.6-3.9-6.2-7-.1-.7-.4-1.6-.2-1.7l2.8 1.8m-5.9 3.1a8 8 0 0 1 3.2 2.3s.2.2 0 .3l-1.6-.5c-2.5-1-5.9-2-7.5-2.9-.4-.2-.2.1-.2.1 2.7 2.6 6.6 2.4 9.3 5 .4.4.8.9.7 1.4-1.6-.4-3.3-.9-4.8-1.5-3.3-1.1-7.3-3.2-8.8-6.6 0 0-.8-1.6-.8-1.9 0-.2.5 0 .7.1 3.1 1.8 6.6 2.7 9.9 4.2m12.3 9.8c-.6.1-.9-.4-1.4-.7-2.7-1.5-7-3.2-6.4-7.1.4 0 .7.1 1 .3 2.8 1.7 6.2 4 6.8 7.5m-9.7-3c.9.4 1.4 1 1.6 1.8a43.3 43.3 0 0 1-8.4-2.8c-.4-.2-.3.2-.2.3 2.8 2.4 7 2 9.5 5 0 .4-.6.3-.8.3-2.4-.6-4.1-.8-7-2.2-2.8-1.3-4.4-3-5-5.7v-1c3.3 1.8 7 2.6 10.3 4.3m9.7 4.7c1 .9 2 1.9 2.3 3-.2.3-.5.2-.7 0-3-1.8-8.2-2-8.3-6.5l.2-.2c2.4 1 4.4 2 6.5 3.7m-15.4-1c3 1.2 6.7 1.2 9.2 3.6 0 0 .3.5-.3.3-.7-.3-4-1-5.5-1.4-1.5-.5-2.3-.8-2.4-.5-.2.2 1 .9 4.4 1.9 1.7.3 3.3 1 4.9 1.7.3.2.9 1 .7 1h-1.4a24 24 0 0 1-9.8-2.7c-.9-.6-1.9-2-2.3-3-.3-.8-.5-1.9-.3-2.3l2.8 1.4m-4.5 3.9-1.4-.2-4.1-.3c-1.4 0-3.6.1-4 .5l.2.1c2.8.6 7.7 1.5 11.8 1.2h.2c-.8-1.1-1.4-2.6-1.8-3.7-4.1-.6-9-1-13.2 0-.7.3-1.5.4-2 .8l2.6 1a27.6 27.6 0 0 1 11.8 0c.3.2.3.6-.1.6m-17.2 2c.7-.4 0-1-.6-.6l-.9.4c-3.5 2.2-6.7 5.8-6 10.2 0 0 .1.5.4.4.1 0-.1-1.4.3-2.7 1.3-4 3.5-5.7 6.8-7.7m1.5-3.3c.5 1.2 1.4 2.4 2.2 3.5l-2 .6c-1 .5-4.5 2.3-6 4.7-1.4 2.2-2 6.6.3 10a24 24 0 0 0-.6 5 6 6 0 0 1-1.3-1.4c-2.3-3.3-4-7-3.2-11.5 1-4.6 4.5-8 8.4-10l2.2-.9m35.9 2.1a12 12 0 0 1 4.7 2.8c0 .2 0 .3-.3.4-2.7-.5-5.6-.7-8.2-2.6a3.2 3.2 0 0 1-1.3-2.6c0-.4 2.3.9 5.1 2m-16.8 1.8c.6 1 1.6 1.9 2.5 2.8h-.4a23.2 23.2 0 0 1-9.3-2c-.8-.3-.3.2-.3.2 3.2 2.6 7.5 2.6 11.7 3 .9.8 2.4 1.5 3.1 1.9l1.4.6h-.4c-7.3.7-14.4-.7-20.2-4.4a20 20 0 0 1-3.5-3.1c-.5-.6-1.3-1.2-1-1.6 5.2 1.8 10.5 3 16.4 2.6m14.5 2.5c.3.4-.3.4-.5.4-1.6-.1-4-.2-5.4-.5-1.4-.2-2.3-.6-2.5-.4-.2.2.3.5.5.6 3.2 1.5 7.3 1 10.7 1.8.4.2 1 .1 1 .5-.4.4-1 .4-1.7.5-2.8.2-5.6.4-7.8-.4s-3.4-1.6-4.6-2.6c-1.1-.9-1.9-1.9-2.6-2.8-.3-.4.2-.2.2-.2 4 1.6 8.8 1.2 12.7 3.1"/><path fill="#003f27" d="M137.6 170.3c.3-.3 0-.8-.5-.6-2.1 1.3-4.4 3.3-4.5 5.8 0 0 .1.4.3 0a10 10 0 0 1 4.7-5.2m1.9-3.2s.6.6 1.3 1c-.6.5-1.7.7-1.2 1.2.1.2.2.2.3.2.7-.3 1.4-.6 2.2-.6.5.7 1.3 1 1.8 1.5-1.5.2-2.4.4-4.2 1.2a18 18 0 0 0-5 3.6 17 17 0 0 0-2.8 4.6l-.2.4c-.7-1-.8-2.2-1-3.4-.2-3.5 2.2-6.5 5.1-8.2 2.2-1.3 3.7-1.5 3.7-1.5"/><path fill="#d7ab28" d="M180.7 170.6c.4.2 1 .3 1.1.8-.5.2-1.4 0-2.4 0s-3.4-.3-4.7-.8a9.8 9.8 0 0 1-3.5-2.2c-.3-.3.6-.1.9 0 3 .2 6 .7 8.6 2.2"/><path fill="#003f27" d="m146.1 171.6 1.3.7c-.8 1-1.8 1.6-1.5 3 .3 1.4 1.1 1.3 1 2 0 .2-1 .2-1.9-.1a4 4 0 0 1-1.5-3c0-1 .3-2.5 1.4-3.3l1.2.7"/><path fill="#d7ab28" d="M134.2 191.6c-.1-.7-.2-2-.4-1.9-.2 0-.3.7-.3.7.2 5.5 2.4 8.6 1.5 13.4-.2 1.3-.6 2-1 3 0 0-.5.7-.2.8.5.2 1.8-2.5 2-4.5.4-2 0-4.2-.6-6.6-.5-2.3-1-4.3-1-5m6.3-18.9c-.1.4-2 1.2-3.6 4-1 1.6-2.6 5.2-1.6 12.5.5 3.9 1.7 7.4 2.1 10 .4 2.5.4 5.1-.8 7.4-1.1 2.4-3 4.2-5.5 4.3a6 6 0 0 1-5.1-1.7 4.7 4.7 0 0 1-1.3-5.1c.5-.9 1-1 1.8-1.2.4-.1 0 .3-.2 1.3s.2 2.1 1 2.9c.8.8 1.6 1 2.8.8 1.4-.3 2.5-1.8 3-3.4.4-1.7.7-3.7 0-7-.6-3.6-1.4-9.5-1-12.7.3-3.2 1-5.4 2.6-7.7a11 11 0 0 1 5.8-4.5v.1m2 1.4c0 1.8.8 4 2.5 4.5 1.2.3 1.7.2 2.4-.3a3 3 0 0 0 1.4-1.7l-.8-.1c-.4-.3-1-.7-1-1.5 0-.7.5-1.3 1-1.6.6-.3 1-.1 1.6.2 1.3.8 1.3 2.6.9 4a4 4 0 0 1-3 3.1c-1.8.5-3.7 0-4.9-1.3-1.3-1.3-1.4-3.3-1-5 .3-.6.4-1 .9-1.3v1"/><path fill="#003f27" d="M138.2 187.8c-.3-1-.5-1.9-.7-1.8-.3 0 0 1.1.1 1.9.6 2.5 1.8 7 2.1 9 .4 2.7.8 5.4.1 8.4-.7 2.9-2.1 5.7-5.2 7 0 0-.9.2-.5.5 1.6 0 3-1 4.1-2.3 3.3-4.2 3.3-9.3 2-15.4l-2-7.3m1.2-12.5c-1.5 3.7-.6 10 .8 13.5 0 0 0 1.5.4 2.3 1 3.4 1.9 6.3 2 9.7.2 3.5-.1 4.8-1 7.2-1 2.3-2.3 4-4.6 5.3a13 13 0 0 1-9.1 1.2c-3-.8-6.9-4.3-7.2-8.1-.3-3.8 2.6-6.6 5-7 1.8-.3 4.4.3 5.6 2.2a4 4 0 0 1-.2 4c-.6.8-1.2.9-2 .8a2 2 0 0 1-1.6-1.5c-.1-.6.1-1.2.5-1.6.3-.4 1-.7 1.5-.7 0 0 0-.3-1-.7-.8-.4-2.3-.4-3.5.2-1.2.7-1.9 1.8-1.8 3.6a6.9 6.9 0 0 0 4 5.6c2.5 1 6.1.8 8.3-1.4 3-3 3.7-7.6 2.8-11.7l-1.4-6.4c-1.3-5.4-1.7-12.4 2.2-16.6h.3"/><path fill="#003f27" d="M152.3 239.7c-1.7-.8-3-2.4-4-4.2a22 22 0 0 1-1.2-8.1c.3-3 1-5.3 1.2-7.1.6-6-1.2-12.8-4.4-16.4l-.1.4-.7 3.3c2 3.8 3.6 8 2.9 12.7-.4 3.3-2.2 5.7-5 6.3-2.2.4-3.7-.2-4.6-1.1-1-1-1-2.3-.6-3.2 1-1.7 3-1.4 2.8-1.4-.2.5.2 1.3.8 1.5.5.1 1.4.1 1.8-.4.5-.5.7-1 .5-1.6-.1-.6-.7-1-1-1.2-1.7-.7-3.7-.3-5.2.7s-2.4 3-2.2 5c.3 2 1.2 3.5 3 4.2a9 9 0 0 0 6.3-.5s.1 2.3.8 4.3a14 14 0 0 0 4.2 6.3c2.4 2 5 2.7 7.8 2.6.9 0 1.8 0 2.4-.3-4.4-2.7-6-7.1-5.2-13.1.2-2.3 2.3-9 2.4-11.2a21.3 21.3 0 0 0-4.5-16l.7-.7a13 13 0 0 0 2.5-6c.3-2.5 0-3.5-.4-5a9.2 9.2 0 0 0-3.4-4.4c-1.7-1-4.6-1.2-6.2-.2a4.9 4.9 0 0 0-2.3 4c0 1.3.6 3.1 1.7 3.8 1 .6 2.4.8 3.3.2.9-.6 1-1.8.8-2.4-.3-.7-.5-.8-1-1-.7 0-1.3 0-1.8.4-.4.5-.4.9-.4.9-.4-.4-.6-1.4-.4-2.3.1-1 .8-2.1 2.4-2.3 2-.2 3.4.6 4.4 2.2 1 1.5 1.5 3.7.5 6a5.8 5.8 0 0 1-5.7 3.6l.5.5c2.9 3.4 5 6.5 6.3 11.3 2 7.4-1.6 15.8-1.4 20.8 0 5 2.2 9 1.7 9.1"/><path fill="#d7ab28" d="M149.6 230.4c0-3.6.8-6.5 1.4-9 .5-2.7.8-6.4.6-8.3-.2-1.9-.4-3.1-1.6-6.3-1.3-3-4-6.6-6.5-9.4 0 0 .3 2.4.3 4.5a23 23 0 0 1 5.5 16.4c0 1.9-.5 3-1 7.5-.7 4.4 0 9.5 2.8 12-.6-1.4-1.4-3.7-1.5-7.4m.1-41.2c.6.9 1.2 3 .3 4.8-1 2-2.6 2.5-4 2.8-1 .2-2.2 0-2.7-.5l-.6-2.4c1.6 1 4 .6 5-.3 1-1 1.2-2.3.7-3.7-.4-1.3-2-2-3.8-1.2 0 0 0-.4.4-.8.7-.7 2-.7 2.9-.3.8.3 1.3.8 1.8 1.6m-6.1 21.8a22 22 0 0 1 1.5 8c-.1 2.2-.7 4-1.8 5a5.5 5.5 0 0 1-4.2 1.7c-1.4-.2-2.2-1-2.4-1.7-.2-.7 0-1.2.3-1.5.3-.3.7-.4.7-.4.2 1 1 1.6 2 1.7 1 0 2-.4 2.8-1.4 1.2-1.6.6-5.2.2-6.9a15 15 0 0 0-1.5-3.9l1.5-2.7s.3.4 1 2.2"/><path fill="#231f20" d="M203.6 145.7c1.7-3.3 5.4-7 8-8.4 2.6-1.3 4.8-1.7 6.3-1a3 3 0 0 1 1.7 3c-.3 6.5-6.9 11.3-10.3 16.5a24.3 24.3 0 0 0-4.5 12.6c0 3.5 1 6 2.3 7.7 28 1.6 28.5 5.7 44.7-1.8l-.1 1a6 6 0 0 0 2 5.3c1.3 1.1 3.9 1.8 5.8 1 2-.7 2.7-1.7 3.2-3 .5-1.5.5-2.6.5-2.6.9 3.4.5 7-.2 10l-.3.6c-.8-2.1-3.1-3.6-6-3.6-3 0-6 2.2-7.5 6.4s-.2 8.3 2.2 12c-3 4.5-5 9.9-4 16.5.9 6.6 6 15.6-1.7 22.4l-2.1 1.6c3.4 1.5 8.6 1.6 12.6-1.5 3.7-2.8 4.6-5.6 5.3-8.1l.4-2c3.4.8 6.4.4 8-2a6.7 6.7 0 0 0 .3-7.6 6.8 6.8 0 0 0-6.6-2.8c-2 .2-2.2 1-2.2 1l.6-3.4c.6-2.1 1.2-3.2 1.2-3.2 2.8 2.7 6.6 4.3 10.7 3.8a12 12 0 0 0 9.5-7 7.7 7.7 0 0 0-5.1-10.7c-1.4-.3-1.8-.2-2.4-.1.3-.3 1.2-.9 3.5-3.6 4-4.8 6.3-9.6 7.4-14a25 25 0 0 0 .5-11.7c-.8-3.7-2.2-6.7-5.9-10.4a24 24 0 0 0-10.5-5.5c.2-2 .4-3.3-.6-6.3-1-2.8-3-5.4-5.7-6.6l-.6-.2a26 26 0 0 1-12.6 19c-.3 0-.5.2-.6-.1.8-4 2.2-9 4.4-12.7 2.2-3.5 4.5-6 8-6.7l-1.6-1.6a17.5 17.5 0 0 0-16.3-3 20.5 20.5 0 0 0-6.6 3 30.9 30.9 0 0 0-5 4.2 48 48 0 0 0-8.2 13.7c-1.2 2.6-3.5 8-4.7 9.1-1.1 1.2-2.2 1.6-3.2 1.5-.8-.2-1.2-.7-1.3-1.4-.7-3.4 1.7-6.6 3.7-9.3a41 41 0 0 0 7.7-14.4c.5-4.4-.8-7.6-2.8-9.9a13 13 0 0 0-14.3-3.4c-2.4.9-4.8 2.7-6 5.1-1.4 2.5-.4 4.6-.9 6.3-.5 1.7-.7 4.2-.1 6.3"/><path fill="#d7ab28" d="M219.6 175.1c3.9-.3 8 .1 11.4.7 3.2.7 8.2.7 9.5 0 .4-.4-.6-.2-1.1-.2-6.7.6-13.1-2.5-19.8-.7v.2m-14.4-41.3c1.5-3 4.2-4.8 8.3-5.4 4.7-.7 9.5 1.3 11.8 5.7 1 2 1.5 4 1.2 6.3-.2 2.3-1 4.6-3.2 8.4-3.2 5.2-7.8 9.3-8.4 14.4-.2 1.8.6 3.8 2.1 4.5 0 0-1 .7-1.9 2.3a5 5 0 0 0 .2 5s2.2-1.4 4.9-2a14 14 0 0 1 6.7-.2c6.7 1 13.6 2.7 20.7 1.6.6-.1 1.8-.3 1.1 0a31.1 31.1 0 0 1-11.6 3.2c-8 0-15.9-1.3-23.8-1.8l-5.6-.3c-3.4-5.4-1.3-12.7 1.5-17.3 2.8-4.4 5.3-6.8 7-8.9 1.6-2 2.8-3.8 3.6-5.4.8-1.7 1.4-4 1-5.6-.3-1.7-1-2.6-2.2-3.1-3.1-1.3-6.5 0-9 1.7l-.2.1c-.4-1.9 1.3-3.4 2-5 .2-.4 0-.8-.4-1-2.1-.7-4.5 2.7-4.7 2.8-.2.2-1 .6-1 0"/><path fill="#d7ab28" d="M208.4 132.8c-.1.2-.2.9.1 1 .4.2.9-.5 1-.7.1-.2.3-.7-.1-.8-.4-.2-.9.2-1 .5m37.3 4.6c1.3-.3 2.2-.6 3.8-.6a25 25 0 0 1 5.8.3c-.5.5-1.5.4-2.3.3-2.2 0-4.3.1-6 .9-1.9.7-3.8 1.8-4.1 3.7.5.2.8-.3 1.4-.5 4.4-1.6 9-2.6 13.8-2.8.8-.1 2.4-.1 2.1-.3a13.6 13.6 0 0 0-8.1-3.3c-2.6 0-4.6.3-6.3 1.9-.3.3 0 .4 0 .4m-11.2 10.2c0 .4.4 0 .4 0 2.8-2.4 5.8-4.6 7.6-7.9a11 11 0 0 1 2.6-3.4c.1-.1 0-.3-.2-.3-5.3 1-9 6.8-10.4 11.6m-28.4-11-1.6 4.2c0 .5-.2 1 0 1.2l1-1 2.4-2.8c.3-.9-.7-1-1-2.1-.3-.4-.6 0-.8.5m40.8 5.1c-1.4.6-4.5 1.6-5.3 4 .3 0 .4-.2.8-.3 3.1-1.3 6.1-2.9 9.5-3.3 0 .7-1.2 1-2.5 1.3-1.4.3-4.8 1.6-7.3 3.5-.8.6-2 2.4-1.7 2.5.3.2.8-.2 1.6-.6a45 45 0 0 0 13.3-5.9c3.6-2.5 4-3.4 4-3.4a50 50 0 0 0-12.4 2.2m-15.1 4.2a33.3 33.3 0 0 0-2.8 4.4l-1.8 3.8-2.9 7a17 17 0 0 1-2.4 4.1c-1.7 2-3.7 2.6-5 4-1.3 1.4-1.6 2.9-1.1 4.3l2.7-1.6a19.1 19.1 0 0 0 10-9.8 60 60 0 0 0 3-9.2c.8-2.9 2-8 4.5-11.3 0-.2 0-.3-.2-.3-1.4 1.4-3 3-4 4.6m41.5 11.4c3 1.6 7 4.6 9.2 8.7 2 4.1 2.2 8.4 1.6 12.8 0 .3.3 0 .4-.2 1.7-7.6-.9-15-7.2-19.7a17 17 0 0 0-3.7-2.3c-.2 0-.6.6-.3.7m-6.9-12.9c-.4-1.5-1-2.9-1-2.9s1 .6 1.8 1.8c2.2 2.8 3.3 6.9 2.1 10.4a22.5 22.5 0 0 1 14.5 9.9c1.5 2.6 2.5 5.4 2.7 8.6a32.7 32.7 0 0 1-10.9 24.3c-2 1.8-3.9 3.3-4 3.3l-.6.6c0-1.4.5-3.5.7-5.1 1.2-1.1 2.7-2.4 4-4 1.3-1.5 3-3.6 4.1-5.8a23 23 0 0 0 2.4-15.7c-.8-3.6-3.2-6.8-7.6-9.7-4.6-3-8.6-3.6-10.8-4.1 0 0 1.5-2 2.5-5.4.6-2 .5-4.6.1-6.2"/><path fill="#003f27" d="m257 158.4 4.2.3c1.7.3 3.4.6 5.4 1.4.6.3 1.6-.3.2-.8a27.1 27.1 0 0 0-10-1.3c-.7 0 .2.4.2.4m14 3.4c.5.4 2.8 1.5 4.5 3.2 3.6 4 4.9 8 4.4 12.6.4.3.4-1.1.6-1.6.4-5-2.1-9.8-6-13l-3.3-2c-.4-.2-.7.5-.2.8m-5.1-14.6c0 3-1.1 6-3 8.4l-.9 1c8 1 16.5 6 18.8 11.7 2.2 5.7.5 12.2-1.6 16.2a29.8 29.8 0 0 1-7 9c0-1.4.5-3.4.5-4.8 2.4-2.8 4.3-5.4 5.2-8.6 1-3.2 1-6.2-1-10.4-2-3.6-6-6.2-8.7-7.3a29 29 0 0 0-8.7-2c-3-.4-5.9 0-7.6 0h-.5c4.7-2.9 9.7-7.6 11.6-13 .5-1.5 1-2.4 1.3-3.5l.3-2.6s1.3 2.8 1.3 5.9"/><path fill="#d7ab28" d="M237.6 146.7a15.9 15.9 0 0 0-4.6 5.5 6 6 0 0 0-.4 2.4l1.3-1c2.5-2 5.6-3.9 6.2-7 .2-.7.5-1.6.3-1.7-.2 0-1.1.7-2.8 1.8m5.8 3.1a7.8 7.8 0 0 0-3.2 2.3v.3l1.6-.5c2.5-1 6-2 7.5-2.9.4-.2.2.1.2.1-2.6 2.6-6.5 2.4-9.3 5-.4.4-.7.9-.6 1.4l4.8-1.5c3.3-1.1 7.3-3.2 8.7-6.6 0 0 .9-1.6.9-1.9 0-.2-.6 0-.8.1-3 1.8-6.6 2.7-9.8 4.2m-12.4 9.8c.6.1 1-.4 1.5-.7 2.6-1.5 7-3.2 6.3-7.1l-1 .3c-2.7 1.7-6.1 4-6.8 7.5m9.8-3c-1 .4-1.5 1-1.7 1.8a41.6 41.6 0 0 0 8.5-2.8c.3-.2.2.2.1.3-2.8 2.4-7 2-9.5 5 0 .4.6.3 1 .3 2.2-.6 4-.8 6.8-2.2 2.8-1.3 4.4-3 5-5.7v-1c-3.2 1.8-7 2.6-10.2 4.3m-9.8 4.7c-1 .9-2 1.9-2.3 3 .2.3.5.2.7 0 3-1.8 8.2-2 8.4-6.5l-.2-.2a26 26 0 0 0-6.5 3.7m15.3-1c-3 1.2-6.6 1.2-9.1 3.6 0 0-.4.5.3.3.6-.3 4-1 5.5-1.4 1.4-.5 2.2-.8 2.4-.5.1.2-1.1.9-4.4 1.9-1.7.3-3.3 1-5 1.7-.3.2-.8 1-.6 1h1.3a24 24 0 0 0 9.8-2.7c1-.6 2-2 2.3-3 .4-.8.5-1.9.3-2.3l-2.8 1.4m4.6 3.9 1.3-.2 4.2-.3c1.3 0 3.5.1 3.8.5v.1c-2.9.6-7.8 1.5-12 1.2.7-1.1 1.3-2.6 1.8-3.7 4-.6 9-1 13.1 0 .7.3 1.5.4 2 .8l-2.5 1a28 28 0 0 0-10.8-.3l-1 .4c-.3.1-.3.5 0 .5m17.3 2c3.3 2 5.5 3.7 6.7 7.7.5 1.3.2 2.7.4 2.7s.4-.4.4-.4c.6-4.4-2.5-8-6-10.2l-1-.4c-.5-.3-1.3.2-.5.6m-1.5-3.3s1.2.4 2.1.9a15 15 0 0 1 8.4 10c1 4.6-.9 8.2-3.1 11.5-.4.4-1 1.3-1.4 1.4 0-1.8-.2-3.3-.6-5a9.5 9.5 0 0 0 .3-10c-1.5-2.4-5-4.2-6-4.7l-2-.6c.8-1.1 1.8-2.3 2.3-3.5m-36 2.1c-2 .6-3.3 1.4-4.7 2.8 0 .2 0 .3.3.4 2.8-.5 5.7-.7 8.2-2.6a3 3 0 0 0 1.3-2.6c0-.4-2.2.9-5 2m16.8 1.8c-.7 1-1.7 1.9-2.5 2.8h.4a23.4 23.4 0 0 0 9.3-2c.7-.3.3.2.3.2-3.2 2.6-7.6 2.6-11.7 3-1 .8-2.5 1.5-3.2 1.9l-1.3.6h.3c7.4.7 14.4-.7 20.2-4.4a21 21 0 0 0 3.6-3.1c.4-.6 1.2-1.2 1-1.6a40 40 0 0 1-16.4 2.6m-14.6 2.5c-.3.4.3.4.5.4 1.6-.1 4-.2 5.4-.5 1.4-.2 2.4-.6 2.5-.4.2.2-.2.5-.4.6-3.2 1.5-7.3 1-10.8 1.8-.3.2-.9.1-1 .5.5.4 1 .4 1.7.5 2.8.2 5.7.4 7.9-.4a15 15 0 0 0 4.6-2.6c1-.9 1.8-1.9 2.6-2.8.3-.4-.2-.2-.2-.2-4 1.6-8.8 1.2-12.7 3.1"/><path fill="#003f27" d="M265.9 170.3c2 1 4 3.1 4.7 5.2.1.4.2 0 .2 0-.1-2.5-2.3-4.5-4.5-5.8-.4-.2-.8.3-.4.6m-2-3.2s1.6.2 3.7 1.5c3 1.7 5.4 4.7 5.1 8.2-.1 1.2-.2 2.5-1 3.4l-.2-.4c-.5-1.4-1.6-3.1-2.8-4.6a17.7 17.7 0 0 0-5-3.6c-1.7-.8-2.7-1-4.1-1.2.4-.4 1.2-.8 1.8-1.5a7 7 0 0 1 2.1.6l.4-.2c.5-.5-.6-.7-1.2-1.1l1.3-1.1"/><path fill="#d7ab28" d="M222.7 170.6c-.4.2-.9.3-1 .8.5.2 1.4 0 2.4 0s3.3-.3 4.7-.8a10 10 0 0 0 3.5-2.2c.3-.3-.7-.1-.9 0-3 .2-6 .7-8.7 2.2"/><path fill="#003f27" d="m257.3 171.6-1.3.7c.8 1 1.9 1.6 1.5 3-.3 1.4-1.1 1.3-1 2 .1.2 1.1.2 1.9-.1a4 4 0 0 0 1.6-3c0-1-.3-2.5-1.5-3.3l-1.2.7"/><path fill="#d7ab28" d="m269.3 191.6-1.1 5a19 19 0 0 0-.6 6.5c.2 2 1.6 4.7 2 4.5.3 0-.2-.8-.2-.8-.4-1-.8-1.7-1-3-.8-4.8 1.3-8 1.5-13.4 0 0 0-.7-.3-.7-.2 0-.3 1.2-.3 1.9m-6.4-19v-.1a11 11 0 0 1 5.8 4.5 16 16 0 0 1 2.7 7.7 54 54 0 0 1-1 12.7 15 15 0 0 0 0 7c.4 1.6 1.6 3 3 3.4 1 .2 2 0 2.8-.8.8-.8 1.1-2 1-2.9-.2-1-.6-1.4-.2-1.3.7.1 1.3.3 1.8 1.2.7 1.8 0 3.8-1.3 5.1a6 6 0 0 1-5.1 1.7c-2.5-.1-4.5-2-5.6-4.3-1.1-2.3-1.1-5-.8-7.5.4-2.5 1.7-6 2.2-10 1-7.2-.6-10.8-1.6-12.4-1.7-2.8-3.5-3.6-3.7-4M261 174c0 1.8-.9 4-2.6 4.5-1.1.3-1.6.2-2.4-.3a3 3 0 0 1-1.4-1.7l.8-.1c.5-.3 1-.7 1-1.5.1-.7-.4-1.3-1-1.6-.6-.3-1-.1-1.5.2-1.4.8-1.3 2.6-1 4a4 4 0 0 0 3 3.1c1.8.5 3.7 0 5-1.3 1.2-1.3 1.3-3.3.9-5-.3-.6-.4-1-.9-1.3v1"/><path fill="#003f27" d="M265.3 187.8c-.4 1.3-1.2 3.7-2 7.3-1.3 6-1.4 11.2 2 15.4 1 1.3 2.4 2.2 4.1 2.3.3-.3-.6-.5-.6-.5-3-1.3-4.5-4.1-5.2-7-.7-3-.3-5.7.1-8.3.3-2.1 1.6-6.6 2.1-9.1.1-.8.4-1.9.1-2-.2 0-.4.9-.6 1.9m-1.3-12.5c.2 0 .2-.2.3-.1 4 4.2 3.6 11.2 2.3 16.6l-1.5 6.4c-.8 4-.2 8.7 2.9 11.7 2.1 2.2 5.8 2.4 8.2 1.4 2.4-1 4-3.4 4-5.6.1-1.8-.6-2.9-1.8-3.5a4.5 4.5 0 0 0-3.5-.3c-.9.4-1 .7-1 .7.6 0 1.2.3 1.6.7.3.4.6 1 .4 1.6a2 2 0 0 1-1.6 1.5c-.7.1-1.4 0-2-.7a4 4 0 0 1-.2-4.1c1.2-2 3.8-2.5 5.7-2.1 2.4.3 5.3 3 5 6.9-.3 3.8-4.2 7.3-7.2 8.1a13 13 0 0 1-9.1-1.2 9.5 9.5 0 0 1-4.6-5.3c-1-2.4-1.3-3.7-1.1-7.2.1-3.4 1.1-6.3 2-9.7.5-.8.5-2.3.5-2.3 1.4-3.5 2.3-9.8.7-13.5"/><path fill="#003f27" d="M251.1 239.7c1.7-.8 3-2.4 4-4.2.9-2 1.4-5.2 1.2-8.1-.2-3-1-5.3-1.1-7.1-.6-6 1.2-12.8 4.3-16.4l.2.4.6 3.3c-2 3.8-3.5 8-2.9 12.7.5 3.3 2.2 5.7 5.1 6.3 2.2.4 3.7-.2 4.6-1.1 1-1 1-2.3.6-3.2-1-1.7-3-1.4-2.9-1.4.3.5 0 1.3-.8 1.5-.5.1-1.4.1-1.8-.4-.4-.5-.7-1-.5-1.6.2-.6.7-1 1.1-1.2a5.4 5.4 0 0 1 7.3 5.7c-.3 2-1.2 3.5-3 4.2-1.9.7-4.4.3-6.3-.5 0 0-.1 2.3-.8 4.3-.7 2-1.8 4.4-4.2 6.3a11 11 0 0 1-7.8 2.6c-.9 0-1.7 0-2.4-.3 4.4-2.7 6-7.1 5.2-13.1-.2-2.3-2.3-9-2.4-11.2-.2-2.3-.1-4.5.5-7.4.5-2.8 2-6 4-8.6l-.6-.7a13 13 0 0 1-2.6-6c-.3-2.5 0-3.5.5-5a9.2 9.2 0 0 1 3.4-4.4c1.7-1 4.5-1.2 6.2-.2a5 5 0 0 1 2.3 4c0 1.3-.7 3.1-1.7 3.8-1 .6-2.4.8-3.4.2-.9-.6-1-1.8-.8-2.4.3-.7.5-.8 1.1-1 .6 0 1.2 0 1.7.4.5.5.5.9.5.9.4-.4.5-1.4.4-2.3-.2-1-.8-2.1-2.5-2.3-1.9-.2-3.3.6-4.3 2.2a6.3 6.3 0 0 0-.6 6 6 6 0 0 0 5.7 3.6l-.4.5c-3 3.4-5 6.5-6.3 11.3-2 7.4 1.5 15.8 1.4 20.8-.1 5-2.3 9-1.8 9.1"/><path fill="#d7ab28" d="M253.8 230.4c0-3.6-.8-6.5-1.3-9-.6-2.7-.8-6.4-.6-8.3.2-1.9.4-3.1 1.6-6.3 1.2-3 4-6.6 6.5-9.4 0 0-.4 2.4-.3 4.5-4 4.6-5.8 10.3-5.6 16.4 0 1.9.5 3 1.1 7.5.6 4.4-.1 9.5-2.9 12a18 18 0 0 0 1.5-7.4m-.1-41.2c-.5.9-1.2 3-.2 4.8 1 2 2.6 2.5 3.9 2.8 1.1.2 2.3 0 2.7-.5l.6-2.4c-1.5 1-4 .6-4.9-.3-1-1-1.2-2.3-.8-3.7.5-1.3 2-2 3.9-1.2 0 0 0-.4-.5-.8-.7-.7-2-.7-2.9-.3-.7.3-1.3.8-1.8 1.6m6.1 21.8c-.7 1.8-1.6 5.4-1.4 8 0 2.2.6 4 1.7 5 1 1.1 2.7 1.8 4.3 1.7 1.3-.2 2.1-1 2.3-1.7.2-.7 0-1.2-.3-1.5-.3-.3-.7-.4-.7-.4-.1 1-1 1.6-2 1.7-.9 0-2-.4-2.7-1.4-1.2-1.6-.7-5.2-.3-6.9.5-1.7 1-3.3 1.5-3.9a23 23 0 0 1-1.4-2.7s-.3.4-1 2.2"/><path fill="#231f20" d="M203.3 152h1c.3 0 .3-1.4 1.6-1.4 1.4 0 1.7 1.4 1.7 1.4s1.2.3 1.2 1.4c0 1.2-1.2 1.5-1.2 1.5s-.3 1.4-1.7 1.4c-1.3 0-1.3-1.5-1.7-1.5h-1l-.3.3v.9c0 .4 1.5.4 1.5 1.7 0 1.4-1.4 1.7-1.4 1.7s-.3 1.2-1.4 1.2c-1.2 0-1.5-1.2-1.5-1.2s-1.3-.3-1.3-1.7c0-1.3 1.4-1.3 1.4-1.7v-1c0-.2-.1-.3-.2-.3h-1c-.3 0-.3 1.4-1.7 1.4-1.3 0-1.6-1.3-1.6-1.3s-1.3-.3-1.3-1.5 1.3-1.4 1.3-1.4.3-1.4 1.6-1.4c1.4 0 1.4 1.4 1.8 1.4h.9c.2 0 .3 0 .3-.2v-1c0-.3-1.4-.3-1.4-1.6 0-1.4 1.4-1.7 1.4-1.7s.2-1.2 1.4-1.2 1.4 1.2 1.4 1.2 1.4.3 1.4 1.7c0 1.3-1.4 1.3-1.4 1.7v1s0 .3.2.3"/><path fill="none" stroke="#231f20" stroke-miterlimit="3.9" stroke-width=".9" d="M203.3 152h1c.3 0 .3-1.4 1.6-1.4 1.4 0 1.7 1.4 1.7 1.4s1.2.3 1.2 1.4c0 1.2-1.2 1.5-1.2 1.5s-.3 1.4-1.7 1.4c-1.3 0-1.3-1.5-1.7-1.5h-1l-.3.3v.9c0 .4 1.5.4 1.5 1.7 0 1.4-1.4 1.7-1.4 1.7s-.3 1.2-1.4 1.2c-1.2 0-1.5-1.2-1.5-1.2s-1.3-.3-1.3-1.7c0-1.3 1.4-1.3 1.4-1.7v-1c0-.2-.1-.3-.2-.3h-1c-.3 0-.3 1.4-1.7 1.4-1.3 0-1.6-1.3-1.6-1.3s-1.3-.3-1.3-1.5 1.3-1.4 1.3-1.4.3-1.4 1.6-1.4c1.4 0 1.4 1.4 1.8 1.4h.9c.2 0 .3 0 .3-.2v-1c0-.3-1.4-.3-1.4-1.6 0-1.4 1.4-1.7 1.4-1.7s.2-1.2 1.4-1.2 1.4 1.2 1.4 1.2 1.4.3 1.4 1.7c0 1.3-1.4 1.3-1.4 1.7v1s0 .3.2.3z"/><path fill="#d7ab28" d="M202.2 152.9v-3.3c.2 0 .3.3.6.3.4 0 .9-.3.9-1s-.5-.8-.8-.8c-.2 0-.5.2-.6.1v-.5c0-.3-.3-.8-.6-.8-.4 0-.7.5-.7.8v.7s-.3-.3-.6-.3-.7.4-.7 1c0 .4.5.8.7.8.3 0 .6-.4.7-.2v1.5c0 1.2.2 1.5 0 1.7l-1.8-.1H198c0-.2.3-.3.3-.7 0-.3-.3-.8-1-.8s-.8.5-.8.8v.6s0-.1-.4 0c-.3 0-.8.3-.8.7 0 .4.4.7.8.7.3 0 .5-.2.6 0l-.2.6c0 .3.3.6.9.6.5 0 .9-.4.9-.7 0-.2-.4-.5-.2-.6h1.5c1.2 0 1.5-.2 1.6 0 .2 0 0 .4 0 1.7v1.5c-.2 0-.4-.3-.7-.3-.3 0-.8.3-.8 1 0 .6.5.8.7.8.3 0 .6-.2.7-.1l-.1.5c0 .2.3.7.7.7.3 0 .7-.4.7-.7 0-.4-.2-.6 0-.6l.5.2c.4 0 .8-.4.8-1 0-.5-.5-.8-.8-.8-.3 0-.5.3-.6.2V154h1.7l1.5.1c0 .2-.3.4-.3.7 0 .3.3.8 1 .8s.8-.5.8-.8c0-.2-.2-.5-.1-.6l.5.1c.3 0 .7-.4.7-.8 0-.3-.4-.7-.7-.7-.3 0-.5.2-.7 0 0 0 .3-.3.3-.6s-.3-.7-.9-.7c-.5 0-.9.5-.9.7 0 .4.4.6.2.7h-1.5c-1.2 0-1.5.1-1.6 0m2.4-44.7-3-2.7-2.5 2.5.2.2h5.3zm10.3 0-2.8-2.7-2.8 2.5.2.2h5.3zm-20.6 0-3-2.7-2.5 2.5.2.2h5.3zm6.8 2.3v1.8h1.2v-1.8h1.6v-1.3h-3.8v1.3h1zm10.1 0v1.8h1.3v-1.8h1.6v-1.3h-3.8v1.3h1zm-20.3 0v1.8h1.3v-1.8h1.4v-1.3h-3.8v1.3h1.1z"/><path fill="#d7ab28" d="m214.8 114.1 1.2-1.2v-1.6h-2.4v1.8h-3v-1.8h-2.1v1.6l1.4 1.2h4.9zm-10.3 0 1.2-1.2v-1.6h-2.3v1.8h-3v-1.8h-2v1.6l1.3 1.2h4.8zm-10.3 0 1.3-1.2v-1.6h-2.2v1.8h-3v-1.8H188v1.6l1.4 1.2h4.8zm-3.5 5.8h1.8V118c0-1-.4-1.4-.8-1.4-.6 0-1 .5-1 1.4v1.8zm10.3 0h1.6V118c0-1-.3-1.4-.8-1.4s-.8.5-.8 1.4v1.8zm10.1 0h1.7V118c0-1-.3-1.4-.8-1.4-.6 0-.9.5-.9 1.4v1.8zm-23 2.4-.8.2v-2.7h2v-4.6h5v4.6h5.4v-4.6h4.8v4.6h5.4v-4.6h4.9v4.6h2v2.8c-.5 0-.9-.2-1.4-.3l-.5-.2c-.7-.3-1.6-.6-3-.6-1 0-1.7.3-2.5.5-.8.3-1.6.5-2.6.5s-1.5-.2-2.2-.5c-.8-.2-1.6-.5-2.9-.5-1.2 0-2.1.3-3 .5a5 5 0 0 1-2 .5 7 7 0 0 1-2.6-.5c-.8-.2-1.6-.5-2.6-.5a7 7 0 0 0-3 .7l-.4.1"/><path fill="#d7ab28" d="M215.2 123c-.7-.2-1.7-.7-3.2-.7-1.8 0-3 1-5.2 1s-2.8-1-5-1c-2.3 0-3 1-5.2 1-2 0-3.3-1-5-1-1.6 0-2.5.5-3.3.8l-1 .2v1.8c1 0 1.1-.2 1.6-.4.7-.2 1.3-.4 2.6-.4 1.4 0 2.2.3 2.9.5.6.3 1.1.5 2.2.5a5 5 0 0 0 2.4-.5c.6-.2 1.4-.5 2.7-.5 1.4 0 2.1.3 2.8.5.7.3 1.2.5 2.3.5a5 5 0 0 0 2.3-.5c.7-.2 1.5-.5 2.8-.5a8 8 0 0 1 2.8.4 6 6 0 0 0 2.1.4v-1.7c-.7 0-1.1-.2-1.6-.3"/><path fill="#231f20" d="M244.1 235c0 7.8-8.6 17.6-16.6 22.3-8.3 5-25.8 11-25.8 11s-17.5-6-25.7-11c-8-4.7-16.7-14.5-16.7-22.2v-52.3l.5-.2c5.6-2.7 28-7 42-6.9a142 142 0 0 1 41.8 6.9l.5.2V235"/><path fill="#d7ab28" d="M240 185.5c-6.9-2.3-25.6-5.8-38.3-5.6-12.7-.2-31.4 3.3-38.3 5.6v49.6c0 5.3 7 14.2 14.6 18.7 6.4 3.7 19.2 8.6 23.7 10.2 4.6-1.6 17.3-6.5 23.7-10.2 7.7-4.5 14.7-13.4 14.7-18.7v-49.6zm3.2-2.1V235c0 7.2-8.4 16.9-16.1 21.4-7.9 4.6-23.8 10.3-25.4 10.9-1.6-.6-17.5-6.3-25.3-10.9-7.8-4.5-16.2-14.2-16.2-21.4v-51.7a144 144 0 0 1 41.5-6.7c13.7-.2 36 4 41.5 6.7"/><path fill="#ed1c24" d="M239.3 186c-7.1-2.3-25.5-5.6-37.6-5.5-12.1-.1-30.5 3.2-37.6 5.5v49c0 5.2 6.8 13.8 14.2 18.2a193 193 0 0 0 23.4 10 193 193 0 0 0 23.4-10c7.5-4.4 14.2-13 14.2-18.1v-49"/><path fill="#d7ab28" d="m171.3 198.3 1.5-1.8c.6-.5.7-.7 1.3-.7.6 0 .4-1.1.4-1.1s1-.1 1.4.4a17 17 0 0 1 1.1 2.4l.3-.4c.2-.2.3-.2.4-1.5 0-1.2.6-2 1-2 .2 0 .4-.2.4.2l.3.9-.6 5.5-2.7 5.2h-3l-2.3-4.1.5-3"/><path fill="#d7ab28" d="m171.3 198.3 1.5-1.8c.6-.5.7-.7 1.3-.7.6 0 .4-1.1.4-1.1s1-.1 1.4.4a17 17 0 0 1 1.1 2.4l.3-.4c.2-.2.3-.2.4-1.5 0-1.2.6-2 1-2 .2 0 .4-.2.4.2l.3.9-.6 5.5-2.7 5.2h-3l-2.3-4.1.5-3z"/><path fill="none" stroke="#231f20" stroke-miterlimit="3.9" stroke-width=".9" d="m171.3 198.3 1.5-1.8c.6-.5.7-.7 1.3-.7.6 0 .4-1.1.4-1.1s1-.1 1.4.4a17 17 0 0 1 1.1 2.4l.3-.4c.2-.2.3-.2.4-1.5 0-1.2.6-2 1-2 .2 0 .4-.2.4.2l.3.9-.6 5.5-2.7 5.2h-3l-2.3-4.1.5-3z"/><path fill="#d7ab28" d="M179.9 217s-.2.4-.5.4c-.3.2-.7.1-.7.1l1 6.1-.1 3.7-1.2 1.7.8.9 2-1 .9-4.3-1-5.3-1.2-2.4"/><path fill="#d7ab28" d="M179.9 217s-.2.4-.5.4c-.3.2-.7.1-.7.1l1 6.1-.1 3.7-1.2 1.7.8.9 2-1 .9-4.3-1-5.3-1.2-2.4z"/><path fill="none" stroke="#231f20" stroke-miterlimit="3.9" stroke-width=".9" d="M179.9 217s-.2.4-.5.4c-.3.2-.7.1-.7.1l1 6.1-.1 3.7-1.2 1.7.8.9 2-1 .9-4.3-1-5.3-1.2-2.4z"/><path fill="#d7ab28" d="M197 202.6s0 1.4-.4 2.5c-.3.9-.8 1.4-.8 1.4l.6 2.8 2 2 2.1-4.3-3.4-4.4"/><path fill="#d7ab28" d="M197 202.6s0 1.4-.4 2.5c-.3.9-.8 1.4-.8 1.4l.6 2.8 2 2 2.1-4.3-3.4-4.4z"/><path fill="none" stroke="#231f20" stroke-miterlimit="3.9" stroke-width=".9" d="M197 202.6s0 1.4-.4 2.5c-.3.9-.8 1.4-.8 1.4l.6 2.8 2 2 2.1-4.3-3.4-4.4z"/><path fill="#d7ab28" d="M171.8 206.6v-.8l-.5-1.5 1.9 1.4 3.6.1-1.2 2.2-2 .2-1.8-1.6"/><path fill="#d7ab28" d="M171.8 206.6v-.8l-.5-1.5 1.9 1.4 3.6.1-1.2 2.2-2 .2-1.8-1.6z"/><path fill="none" stroke="#231f20" stroke-miterlimit="3.9" stroke-width=".9" d="M171.8 206.6v-.8l-.5-1.5 1.9 1.4 3.6.1-1.2 2.2-2 .2-1.8-1.6z"/><path fill="#231f20" d="M194.7 197c-.4-.6-.7-2-.4-2.6.1-.3.4-.6.2-1-.4-.3-.5-.7-.5-1 0-.5.4-1.2.8-1.6-.1-.6-.1-1.2.2-1.8.2-.3.8-.3.9-.5.3-.4.2-1.1 1-1.6.5-.2.8-.3 1.4-.3.3-.3.3-.7 1-1 .5-.4 1.5-.3 2 0l.8-.7c.2-.2 1.3-.4 1.6 0 0 .3.4.4.5.4.5-.1 1.4-.7 1.6 0 .6 1.2 1.4 0 2.3.6.9.6.2 1.4 1.6 1.5.6 0 1 1.2.8 2 .6.3.9 1.1.8 1.4l-.2 1c.1.8 1 1.4.2 2.2-.6.5 0 1.3-.4 2l-.3.7.1.8c.3 1.9-1.4 3.3-2.1 4.9-.4.3-.9-.5-1 .3-.2 1.6-.8 3-.8 4.8 0 .5 1 .2 1.2.7.4 0 .4-.6.8-.7 1.6.2 3.9.5 4.8 1.4 1 1 2.8 1.4 3.8 2.5 1 1 3.1.8 3.4 2.1.4 1.3 0 1.5 0 1.8.6.2.7 1.2.8 1.5.7 1.1-1 1.9 0 2.9.4.7-.6 1.2.1 1.9.3 1-.1 1.9.1 2.7.3.4.6-.4.6-.7.1-3.3.7-6.3.4-9.5 0-.4-.7-.7-.1-1.6.7-.8-.2-1.9.4-3 .3-.6.6-1.3-.1-2.2-.6-1 1.5-1.2 1-2.4-.7-.7-1.6-.4-2.3-1.4-2-3.3 1.2-5.5 2.7-8.6.3-1-.9-1.4-.3-2.2 1.1-1.4 1.4-3.2 2.6-4.4.6-.2.9.4.9.7a14 14 0 0 0 1 3.9c.4.9-.7 1.1-.3 2.7.7 2.2 2.8 4 2.4 6.5a3 3 0 0 1-1.4 2.2c-.8.6-2.2.2-2.3 1.4-.3 1 1 1 .6 1.9-1.4 1-.1 2.8-.7 4.3-.2.5.6 1.4 0 2-.6.5-.9 2.6-1 4.8-.2 2.2-.8 7.8-.9 12.7.1 2 2.5 2.8 3.4 4.3 1.5 3.1 1.3 6.8 1.2 10.4l-.3 3.1c-1.4 1.3-3 2.4-4.6 3.3-6 3.6-18.1 8.2-23 10a234 234 0 0 1-18.8-7.8l.5-1.4c.3-.7-.7-1-.9-1.6-1-2.2-2.2-5.1-.8-7.5 1-1.8 2.8-3 4.3-4.2.4-.4.5-1 .4-1.5-1-1.8 1.3-3.3 0-5 0-.7.7-1.2.3-1.9-.3-.7-.4-1.7-.5-2.5a6 6 0 0 1-3.6.7c-2 2.1-5.8 3.3-7.7 3-1.8-.3-2.4-1.4-2.8-2.5-2.1-7.4.7-14.6-.1-22 0-.7-.6-1.3-.2-1.8.7.8 1.5 1.2 2.5 1 .4-.2 1-.7.7-1.2-.8 0-1.7.6-2.4 0-1.4-1.5-2.6-3.8-2-5.5.4-1.7.4-2.7 1.4-3 1 0 1.7 1.7 2.3 2.5.3-.5.1-1 0-1.5 0-.7-.5-1.6-1-1.8h-.9c0-.2.3-.5.6-.8.4-.4.8-.6 1.6-.4.7.3 1 1.8 1.8 2.6 0 0 .5 1.4.2 1.7-1 .8-1.4 1.9-1.7 3.1-.1.5-.7.4-1 .2-.8-.8-1.3-2-2.2-2.3-.3 0-.3.1-.3.2 0 .4.4.7.7 1.3.3.6.8 1.7 1.4 2 .7.3 1.2.4 1.7 0 .7-.5.3-1.7.8-2.5.9-1.3 1.9-2 2.1-4.3.2-1.3.4-2.5 1.3-3.3.6-.5 1.5-.5 1.7.1-.3.5-.9 1.4-.8 1.9.3 1.8.7 4.1-.4 5.8-.4.7-1.7 3.5-2 5.2-.4 3.8.7 8 1.4 11.2.6 3 1.7 6.2.6 9.2-.3 1.1-1 1-.8 1.4.6.2 1-.1 1.4-.6 1.2-2.2.6-5.1.3-7.6-.3-1.1-.7-2.1-.9-3.4-.8-1 1-1.4 1.2-2.3-.1-1 .6-1.7 1.3-2.2 1-2 3-3.9 5.1-4.6.3 0 .1-.5.2-.8.7-1 1.7-1 2.7-1 1.4 0 3-.3 4.2.2.8.2.9-1.3 1.5-.7.3 1.6.6 3.1 1.9 4 0 0 .3 0 .2-.2l-1.6-4c0-.3 0-.7.3-.8.8.2.6 1 1 1.4.4.6 1 1 1.5.9.2-.1.2-.3.2-.3a6.8 6.8 0 0 1-2.7-5l-.3-.2c-.4.2-.5 1.1-1 .6-.5-.6-.5-1.6-.8-2.3-.3-1-1.3-2-.5-3 .1-.3.3-.4.4-.4"/><path fill="#d7ab28" d="m202 187.5.1.5c.6-.2 1-.8 1.6-1.2v-.3c-.7-.4-1.2.7-1.7 1m2.6 0c0 .2-.1.4.1.5l1.4-1c0-.2 0-.4-.3-.4-.5 0-1 .4-1.2 1m-4.8-.4c-.3.3-.7.9-.2 1.3.5-.3 1-1 1.2-1.2.3-.2 0-.6 0-.6-.4 0-.8.2-1 .5m-2.5 1.3v1c.7 0 .4-.7.8-1 .1-.3.4-.7 0-.8-.4 0-.7.4-.8.8m-1.6 1.5c0 .4-.2 1.2.3 1.2.3-.5.4-1 .4-1.6-.3-.5-.6 0-.7.4"/><path fill="#231f20" d="M173.6 190c0 1.8.8 3.2.9 5 1.6 0 1.6 1.9 2.3 2.7l.2-.2c-.2-1.3-.6-2.5-.9-3.7-.4-1.5-.3-3.5-1.4-4.4-.4-.2-.9.1-1 .5"/><path fill="#d7ab28" d="M226.3 190.1c-.2 1-.4 2-1 2.7 0 .6.8.6.4 1.3a10 10 0 0 1-2 4c-.3.5-.3 1.4.5 1.6l-.4 1.3c-.5-.4-.6-1-1-1.3-.4.7-.8 1.5-.6 2.4.1.5.6 1.1 1.2 1 .4-.3.5-.7.7-1.4l.6-2.7c0-.8.1-2.6 1.6-3l.5-5.9c.2-.4-.5-.3-.5 0"/><path fill="#231f20" d="M177.4 190.4c-.7 1.1-.1 2.5-.1 3.8 0 .6 0 1.9.3 2.6 0 0 0-.6.3-1.4.2-.8.4-1.4 1.2-1.6-.3-1.2.1-2.4-.6-3.5-.6-.4-.8-.2-1.1.1"/><path fill="#d7ab28" d="M197.9 193.5c-.1.4-.2 1-.1 1.4.8.8 2 .2 2.9.8.2-.2.3-.4 0-.6-.4-.3-1-.7-1.4-1.3-.2-.8.4-1.4.3-2.1-1 .1-1.3 1.2-1.7 1.8m4.6 2c0 .1 0 .3.2.4.5 0 .9-.4 1.3-.6.8-.2 1.8.4 2.5-.2 0-.4-.2-.6-.5-.7-1.2 0-3-.4-3.5 1m1.2.9c.3.7 1.2 0 2 0 0-.2-.2-.3-.5-.5-.6-.1-1 .2-1.5.5m-6 0s-.4.4 0 .4c.3 0 1.9-.2 2.1 0 .3.1.3-.3.1-.5-.7-.3-1.6-.6-2.2 0m29.3 5.5c.1.5.1 1.2.7 1.7.4.2 1-.2 1.2-.5.2-.3.5-1.4.3-1.9-.1-.5-.6-.7-1-.3-.2.2 0 .6-.5.7 0-.4-.2-1-.1-1.4 0-.7 1.3-.2.8-1-.6-.8-.5-1.7-1-2.3h-.6l.3 5m-22.5-3.9c-.6.2-1-.8-1.5-.3-.2.8 1 .5 1.4.7.4 0 .8-.2 1.2-.4.2-.3-.1-.5-.4-.7-.4 0-.2.6-.7.7m-6.8-.3c-.1.5.5.5.7.7.7.2 1.3-.2 2-.2v-.3c0-.2-.2-.4-.6-.4-.2.4-.7.8-1.1.4 0-.7-.7-.6-1-.2"/><path fill="#d7ab28" d="M201.2 199.6h-.3c-.5-.2 0-.8-.5-1-.7 0-1.3.6-2 .3-.5-.1-.7-1-1.2-.7-.5.2 0 1.4.1 2 .1.5.5.5.7.6 1-.1 1-1.2 2-1.4.5.3-.3 1.3.4 1.4.8.6 1.8 0 2.6 0 .2-.3.2-.7.1-1.1-.2-.2-.6.1-.8-.3-.3-.5 0-1.5-.4-2-1 .1-.1 1.6-.7 2.2m24.2-.5a9 9 0 0 1-1.1 4.3c-.2.4.4.5.5.8.4.7 0 1.6.1 2.5-.3 0-1 0-.9.4.3.5 1.5.9 2.2.4.2-.1.4-.4.2-.6-.3 0-.4-.2-.9-.2-.4-.9.7-1.2.4-2 .6-.6.2-1.4.1-2-.2-1.7.3-3.6 0-5.3-.7.3-.4 1.2-.6 1.7m-30-.3c-.2.5-.3 1.2.3 1.5.1.2.1 0 .1 0 0-.7.6-1.4.2-2.1-.4-.1-.5.3-.6.6m7.7-.2c0 .2.5 1.1 1 1.5.6.3 1 .4 1.4.1.3-.4.8-1 .4-1.6-.8.1-1.8.7-2.7 0 0 0-.1 0 0 0m-28.2 1c0 .2 0 .5.4.5.1 0 .3.1.4 0 .3-.2.3-.6.2-1-.4-.7-1 .1-1 .5"/><path fill="#d7ab28" d="M198.6 201.7c-.1.3-.2.8 0 1.1.2.4.5.3.7.1.4-.7 1.3-.6 2-.6.5.4 1.2-.2 2 0 .3.3.9.7 1.1.6.3 0 .3-.7 0-1-.1-.3-.4-.6-.7-.6-.8 0-1.3.6-2 .6-1-.2-2.3-1.6-3-.2m-25 0c0 .5.4.9.8.6.3-.2.2-.5.2-.7 0-.6-1-.6-1 0m25.7 2c-.2.3.9.7 1.4.8.8.3 2.4-.1 2.7-.8.3-.6-.5-.3-1.2-.2-.7 0-2-.5-2.9.2m.6 1.6c-.2.3 0 .5.3.7.3.2 1.9 0 2-.3.2-.2 0-.4-.1-.6-.9.3-1.7-.5-2.3.2m4.6 1.7c-.9 1.4-1.2 3.6-3.2 3.9-.1.1-.3.3-.1.5.4.2.7.4 1.2.2 2-.6 2.4-2.9 2.5-4.7h-.4m-14.9 1.2c-.3 0-.7 0-.8.3 0 .4.4.6.6.7 1.6 0 2.9-.5 4.6-.2.3 0 .1-.5 0-.7-.9-.8-2.3 0-3.5-.3l-1 .2"/><path fill="#d7ab28" d="M195 208.4c.2 1.7.8 3.3 2.3 4.3a8.4 8.4 0 0 0 5.5 1.7 6 6 0 0 0 4.7-2.4c.4-.8.7-2.2 0-3h-.3c-.4 1.4-1 3.2-2.7 3.8-2.2.9-4.9.5-6.7-1a4.5 4.5 0 0 1-2-3.7c-.3-.6-.7 0-.7.3m28.9 1.4c-.2.8-.1 1.9.5 2.5-.3 0-.7 0-1 .4-.1.4.4.5.6.7.6 0 1.3.2 1.8-.3 0-1-1.5-.6-.9-1.6.8.2.7-.7.9-1 0-.7-.4-1.2-.4-1.8-1-.9-1.2.5-1.5 1m-15-.7c0 .4.2.6.4.6 1.4 0 2.4.8 3.7.7.2-.1.2-.3.2-.5-1-1-2.4-1-3.6-1.3-.3 0-.7.2-.7.6m-22 .9c.3.7.9 1.3 1.1 2 1 2.3 1 5.6.7 7.6a37 37 0 0 1-1.8 6.8c.2.2.5 0 .8 0 1.4-1.4 1.5-3.3 1.8-5.2.3-2 .5-5.3.3-6.8-.4-1.7-.7-3.6-2-4.7-.4 0-.6.1-.9.3"/><path fill="#d3d2d2" d="m191.3 210.2 1.8 5.7c.1.7.8-.1 1 .2 0 1 .1 2.3.4 2.4.2 0 .3 0 .3-.2.3-3.1-1-5.5-2-8.2-.3-.4-1.2-.3-1.5 0"/><path fill="#d7ab28" d="M193.8 210c.8 2.8 2.2 5.7 1.7 8.7-.1.2-.1.4-.5.5-.5 0-1.2 0-1.4-.6-.3-.7-.2-2-.8-1.8 0 0-.3.2-.3 0-.1-.3-.6-3-2-6.7-.2-.1-.5 0-.7.1l.6 1.5c.5 2 1.1 3.9 1.5 5.9 0 .5.6-.3.8 0 .1.1 0 1.3.7 2a2 2 0 0 0 1.8.3c.7-.2.9-.6 1.1-1.3a13 13 0 0 0-.8-5.3l-1-3.1c0-.3-.5-.5-.7-.1m-20.5.4c.2 2.2.2 4.5.5 6.8.1 2 .6 4 1.2 5.8 0 .3.2.5.7.3.4-.1-.3-1.5-.6-3.6s.2-6.4-.8-9.4c-.2-.4-1-.5-1 .1m35.3-.1a30 30 0 0 1 1 5.3c0 1.8-.6 4.4 1.6 5 .7.1 1.4 0 1.7-.6.5-.5.5-1.3.5-1.7.3-.1 1.1.5 1.2-.1 0-2-.5-5-.7-5.6-.2-.8-.4-1.5-.8-1.3-.3.2 0 .9.1 2 .3 1.1.4 2.8.7 4.3-.3.3-.9-.2-1 0-.3.2 0 1.5-.4 1.9-.4.5-1.1.4-1.5 0-1-.7-.6-3.3-.8-5.2-.3-2-.5-3.3-1.2-4h-.4"/><path fill="#d3d2d2" d="M184 212.7c0 .5.6.5.9.8.8 0 1-1.3 1.8-1.4.2-.2.7-.6.2-.8-.4-.3-1-1-1.4-.3-.7.4-1 1-1.5 1.7m26.3-1.7c.7 2.4.7 5.2 1 7.9.1.2.4.3.6.2.2-.2 0-1.8 0-2.4-.1-.6 1 .3 1-.2-.3-1.8-.3-3.6-1.1-5.2-.4-.2-1-.5-1.5-.4m4.5 1.3c.9.7 2 1.1 2.9 1.6-.2-1.3-1.7-2.4-2.9-3-.9.1 0 .9 0 1.4m-29 1.9c0 .5.4.5.6.9.6-.2 1-.7 1.5-1 0-.2.2-.3 0-.6-.1-.3-.7-.7-1.1-.3-.5.2-.7.7-1 1m32.8-.9c.4.5 0 1.4 1 1.5.4.1.6-.1.5-.4 0-.6-.6-1-1.1-1.2l-.4.1"/><path fill="#d3d2d2" d="M207.1 214a9 9 0 0 1-6.8 1.2c-1.2-.3-2.4-.6-3.3-1.5l-.3.1c.6 1.9 1.3 4.2.4 6-.8 1.1-2 1.4-3.3 1.2-.8-.2-1.7-1-1.9-2h-1.1c0 2.5-.4 6 2.5 7 2 1 4.5 1.2 6.8 1 .2.2.4.4.4.6l-.2.2h-4.8l-4-.6c-.9-.2-1.4-.6-2-.5-1.3 1.2-1.3 3-1.3 4.5v.2a30 30 0 0 1 3.9-1c.4-.7.2-1.5 1.1-1.8 1-.3 2.6-.5 3 .4.2.2.2.7.5.7 1-.1 2 .1 2.9-.6 1-1 2-.1 2.7-.5.8-.4 1.8-.3 2.3.2l.8.8 2.9.1c.7-1 2-1.4 3.3-1.4.4 0 .9.3 1.2.7.1.6-.4 1.4.6 1.4.5 0 .1-.9.3-1.3 0-.4.4-.9 0-1.3-.2-.4-.6-.2-1 0-2 .2-4.2.3-6-.1-.2-.2-.4-.3-.3-.5 1-.9 2.7-.2 4-.8a4.1 4.1 0 0 0 2.8-2.7c.4-1.4.3-1.8.2-2.4-.5.4-2.7 1-3.9-.4-1.5-2-.6-5-1.1-7.5-.5-.3-1 .4-1.3.6m7.9-.3c.3.5-.1 1.5.7 1.7.8.3 1.6.7 2.3 1.2.2-.3.2-.6.1-.9-.6-1-1.8-1.4-2.6-2.2-.2 0-.3 0-.4.2m-32.6.7c0 .2-.5.5-.2.8.4.3.7.2 1 .1.4-.4 1-.6 1-1.2-.3-1-1.4-.4-1.8.3"/><path fill="#d7ab28" d="m224 214.9-.6 6.2-.7 8-.3 4.1.7 1.4h.2c0-1.7.2-3 .4-5.5l.8-8.6s.5-4.2.5-6c-.4.1-1-.1-1 .4"/><path fill="#d3d2d2" d="M184.4 215.7c0 .3-.2.5-.1.9.1.2.5.4.7.2.4-.3 1-.8.9-1.3-.2-1.1-1.2-.3-1.5.2m2.8.1c0 .5.2.8.4 1.2.6 0 .5-.5.8-.7 0-.4-.2-.8-.5-1-.4 0-.6.2-.7.5m32 1.2c.2.4 1 .4 1.2.9 0 .2.3 0 .3 0 0-1-.4-2-1.2-2.4-.6.3-.5 1.2-.3 1.5"/><path fill="#231f20" d="M201.3 217.2c-.5-.2-1.2.2-1.5.4-.1.2-.6.5-.4 1 .5-.5 1.4-.3 2-.5.2.2.2.4-.1.6-.7.4-2.1.4-2.1 1.6.5-.6 1.4-.3 2-.7.2 0 .4.1.4.3.1 2-1.8.7-3.2 1-.5.2-1.5.6-1.8 1.6-.2.8-.2 1.3-.9 1.7-.5.1-.6-.4-1.2-.4 0 .3.3.6 1 .7.7.2 1.6-.6 1.8-1.3.3-.6 0-1.2.8-1.4 1.2-.6 3 .2 4-.6.4-.4.5-1 .3-1.3-.3-.9-.3-2 .5-2.6.3 0 1.6 0 2 .5.1.4-.3.5-.6.6l-1 .2c0 1.3 1.8 1.7 1.4 3.1.3.3.5-.1.7-.1 1 .3 1.6-.2 2.2-.6v-.2c-.7-.1-1.8.6-2-.3 0-.6-1.2-1-.7-1.5.7-.3 1.6.2 1.6-.9-.1-.2-.8.2-.8-.3 0-.2 0-.4.3-.5h.4c0-.3 0-.5-.3-.6-1 0-2.2.2-3-.2v-.7c-.6.3-1.1 1.1-1.8 1.4"/><path fill="#d3d2d2" d="M215.4 217c-.4 1.8 1.8 1.5 2.7 2.2.1-.5 0-1.2-.2-1.7-.7-.5-1.5-.8-2.2-1.2-.5-.2-.4.4-.3.7"/><path fill="#d7ab28" d="M181.7 216.5c-.4.6-1 1.2-1.2 2 1.2.4 2 1.2 2.9 2 1.4 2 1 4.6.8 7 0 .1.3.1.4 0 1-1.4 1.6-3 2.2-4.7-.2-.5-1.1 0-1.3-.8-.7-.7.8-2.1-.8-2.1-.7-.5.2-2-.8-2-.6-.4-.6-1-.7-1.6a4 4 0 0 1-1.5.1"/><path fill="#d3d2d2" d="M185.5 218c-.1.3-.1.6.1.9.7.1 1-.6 1.3-1 .2-.4.2-1-.2-1.3-.8 0-.9 1-1.2 1.4m33.6 1.7c0 .4.8.6 1 1.2.4 0 .4-.3.5-.5.2-.5 0-1.3-.3-1.4-.4-.2-.5-.9-1-.7-.3.1-.2 1-.2 1.4m-32.7.4-.2 1c.2.2.6.4 1 .2.5-.4.3-1.6.1-2.3-.5.2-.6.8-1 1.2m29.6-.4c.5.7-.3 2.6 1.2 2.2.4-.5.8-1.1.4-1.8-.3-.4-1.3-1.2-1.6-.4"/><path fill="#d7ab28" d="M214.5 219.8c-.2 1.8.3 3.6-.3 5.3 0 .1.2.2.3.1 1-1.4 1-3.4.8-5.2-.1-.4-.8-.6-.8-.2"/><path fill="#d3d2d2" d="M218.6 221.6c0 .5-.7 1-.5 1.5.3.4.8.6 1.2.3.6-.7.3-1.6 0-2.4-.5-.5-.7.1-.7.6"/><path fill="#231f20" d="M206.4 222.6c-.3.5-1 .7-1.6.5-.2-.1-.4-.4-.3-.7-.8.7-1.9 1-2.8.6l-.5-.2c0 .8-.3 1.6-.7 2.3.2.4.4-.1.7 0 .8.2 1.8-.2 2.1.7.5-.1 1 0 1.3.2.2-.5-.6-.8-.9-1.2-.5-.5-2 .4-1.9-.8.4-.3.9.2 1.3-.1.5 0 .8-.5 1.2-.3.4.6 1.1.2 1.6.4.6.6 1.5.6 1.9 1.4h1.2c0-.8-1.3-1-2-1.6-.2-.1-.3-.2-.2-.4.2-.3.7-.3 1-.3.8.3 1.2 1.3 2.2 1l.3-.2c-.2-.5-1.1-.7-1.6-1.1-.4-.2-.7-.8-1.2-.7-.2.4-.6.5-1 .5"/><path fill="#231f20" d="M198.3 222.8c-.3 1-.4 2.1-1.6 2.4-.7.4-1.5 0-2.2-.4-.2.5.2.9.6 1 .8.3 1.8.2 2.5 0 .6-.5.8-1.8 1.6-1.2.2.8-1.2 1-.5 1.8 1 .2 2.4-.6 2.8.7a1 1 0 0 1 1.1-.1c.2-.4-.2-.6-.3-1-.7-1-3.5.7-2.4-1.3 0-1-1.9-1-1.2-2.3-.3 0-.3.3-.4.4"/><path fill="#d7ab28" d="M220.2 224c-.2.5-.8.7-1.5.5-.6-.2-1-.8-1.2-1.2h-1.3c-.3 1.2 0 2.6-.6 3.8 0 .5.6.3.7.3 1.6-.4 3.2-.7 4.2-2 .6-1 .6-2.8.2-2.7-.5 0-.2 1-.5 1.4m1.1 2.7c-.7 2.8-3.3 4.8-5.6 6.5-2.2 2.5-2.5 5.9-2.6 9.1 0 .7-.4 1.5-1.1 1.8-1.2.4-3.3-.5-3.6 1.3.5.2 1-.2 1.6-.2 1.6-.4 3.3-.6 4.2-2.3.8-2.4 3.6-1.3 4.9-3.2.6-.7 1-1.5 1.5-2.3.2 0 .5.3.6.5 0 3.4-1.9 5.9-2.7 8.8 0 .6-.2 1.3.1 1.8.2.3.7 0 .9.5-.4.2-.3.8-.5 1-.5 1.8-1.2 3.4-2.2 4.9.8-.2 2.2-.9 3-1.3l1.9-1.2c-.8-1.4 1-2.3 1.4-3.5-.1-1.4.6-2.9-.1-4.1-.1-.2-.4 0-.4 0-1 1.1-.7 3.7-2.8 3.3-.5-.2-.8-.8-.6-1.3.7-2 1.6-3.7 2.5-5.5.3-.6.9-.6 1.3-.8.6 0 1 1 1.5.7.2-.3-.3-1.5-1-1.6-.7-.3-1.8.7-1.7.1.4-.7.7-1.8 0-2.6l-.5-.4c.7-.2.9-1 .9-1.6 0-.6-.2-1.2-.8-1.4l-.6-.2c.6-.3.6-1.1.5-1.8l-.3-.3h-.3c-.6.9-1.2 1.9-2.1 2.5 0 .2 0 .4.2.5.8.2 1.7-.7 2.2.4 0 2-1.7 3.4-3.4 4.2-1.1 0-1.6 1.3-2.3 2 0 .1-.3 0-.4-.2.4-1.3 1.6-2.2 1.8-3.5.4-.4.7.4 1.3 0 .6-.3 1.8-.7 2-1.7-.5-.5-1.2.1-1.7.2-.5.4-1.2 0-1.7.1-1.1 1.2-1.4 2.6-2 3.8a.3.3 0 0 1-.4-.4c0-.6.3-1 .3-1.6.5-2 2.6-3.5 3.4-5.4.1-.3.3-.5.5-.3.5.2-.2.7.4.9 1.1-1.8 2.4-3.7 2.9-6 0 0-.2-.3-.4-.2m-10.5 2.4c.2.5.2.9.5 1.2.3 0 .4 0 .4-.3 0-.4.2-1-.4-1.2-.3-.2-.6.1-.5.3m-9 .8v1c.3.2.6.3.8.2.4-.6 1.1-.2 1.5-.9 0-.5-.1-1-.6-1.3a2 2 0 0 0-1.7 1m-8.5-.5v.5c.6.2 1.3-.1 2-.1.4-.3 0-.8-.2-.8-.6 0-1.3 0-1.8.4m6 .9c0 .3-.3 1.2 0 1.7.3.2.7.6 1.1.2-.4-1 .1-1.9.6-2.6 0-.4-.4-.4-.6-.2-.4.2-.9.5-1 .9m9.6-.2c.5.6 1 1.4 1.8 1.1 0-.5-.6-.9-.8-1.6 0-.2-1.2.2-1 .5"/><path fill="#d7ab28" d="M205.7 230.4c.1.6.4 1.4.9 1.9 2.4.2 5 .2 7.1 1 .3-.4.3-1.1.3-1.7a3 3 0 0 0-1.5-.4c-.4.7-1 1-1.8 1.1-1 0-1.5-.8-2.2-1.4-.8-.3-1.8-.6-2.8-.5m-17.7 2.2c-.5.3-.4 1-.3 1.5.5.6 1-.2 1.8-.5a44 44 0 0 1 7-1.3c.6-.1 1.6-.9 1.9-1.7 0-.2-.3-.2-.3-.2-3.4.6-7.1.5-10.1 2.2m15.5-.8c.2 2.7.9 5.8 3.3 7.5.3 0 .6.2 1 0 .4-.6 0-1.5.3-2.3.1-1 .2-2.3 0-3.4-.5 0-.7.7-1 1 0 1.2.3 2.2.4 3.3l-.4.2c-1.2-2-.7-4.4-2.2-6.2-.3-.5-1-.5-1.4-.1m-1.9.8c0 .4.3.8.7.9.6-.3.3-.8.2-1-.1-.3-.4-.5-.7-.6-.4-.1-.3.5-.2.7m-7.2 5.4c-.2.2-.4 0-.4-.2 0-1.5 1-2.7 1.4-4.2 0-.5-.7-.4-1-.3-1.8.6-.9 3-1.6 4.3 0 .6-.1 1.5.6 1.8.7.3 1.3-.1 1.7-.5 1.5-1.8 2-4.1 3.4-6 .1-.3 0-.6-.2-.7-2.3 1-2.9 3.8-4 5.8m14.7-4.4c.3 2.4-.4 5-.3 7.3 0 .4.6.4.8.3.5-.4.3-1 .4-1.6.2-2 1.4-3.7 1-5.7-.6-.7-1.3-.4-2-.3"/><path fill="#d3d2d2" d="m198.5 235.6.1.3c1.5 0 3 .1 4.5-.1.4-.3-.2-.8-.3-1.3-1.1.4-1.3-1.3-2.5-1-1.2 0-1.3 1.4-1.8 2"/><path fill="#d7ab28" d="m212.2 234.3.2.4c.2 0 .4 0 .5-.2 0-.3-.2-.4-.3-.4-.2 0-.3 0-.4.2"/><path fill="#d3d2d2" d="M188.6 235.5h.1c1.2 0 2.4.5 3.4.2.1-.5.2-1.1 0-1.5-1.3.3-2.7.3-3.5 1.3"/><path fill="#d7ab28" d="M224.6 234.9c-.1 0 0 .3 0 .4.4.2 1 .2 1.4.6-.2.8.4 1.4.8 2 .5.2.3-.5.5-.8.1-.8-.2-1.5-.8-2-.5-.5-1.6-1.5-2-.2m-12.8 1.1c.4.5-.6 1.1 0 1.5h1c.5-.6.2-1.3.7-1.8-.2-.8-.8.1-1.4-.1l-.3.3m11 .4v.5c.2 0 .5 0 .5-.2 0-.3-.3-.6-.5-.3m-35.4.7c0 .4.2.8.5.8l3.9.3.2-1.3-4-.5c-.4 0-.5.5-.6.8m10.3-.1-.8 1.5c2.5 0 5 .2 7.5-.4 0-.6-.5-1-.8-1.5l-6 .3m26.9.1c-.4 1 .6 1.5.9 2.1.7 1.6.8 3.8.4 5.5 0 1.9-.2 4-1 5.7.6.2 1-.4 1.5-.8 0-1.4.3-2.2.4-3.8.2-3 .8-6.8-1.8-9-.3 0-.3.2-.4.4"/><path fill="#d3d2d2" d="M211.1 239.8c0 1 0 2-1 2.5-.8 0-1.8.4-2.1-.6l-.3-1c-1 .3-1.6-.6-2.3-1.2-3 .1-6 .4-9 .3-.8.7-1.8 1.3-3 1-.5-.4-1.1-.7-1.4-1.3a69 69 0 0 1-4.2-.6c-.3 0-.5.7-.3.8 2 .4 4 .4 5.5 1.7 2 1.6 2.4 4.3 4.5 5.9 3.3-.3 6.4-.6 9.4-1.3.8-.8 1-2.3 2.1-2.5 1.1.2 1.2-.7 1.8-1.2 1-1 1.6-2 1.6-3.4-.5-.4-1.4.1-1.3.9"/><path fill="#d7ab28" d="m227.4 240.5.1 1.7v6c.4 0 .6-.3 1-.4 0-2.6.3-6-.4-8.7 0-.3-.2-.2-.4 0-.2 0-.3.8-.3 1.4m-16.7 5.5a5 5 0 0 0-3.3 2c-.8.6-1.5 1.6-2.5 1.7-.8 0-1.5-.2-2-.9 0-.4.4-.7.8-.9l.8-.1.1.1c0 .3-.5.2-.3.7.7.3 1.8-1.1 1.7-1.2-.8-.8-1.9-.1-2.5 0-.8.4-1.7.5-2.5 1-.3.3-.3.7 0 .9 2.2 2 6 0 8.1 2.4.7.5 3.5.8 4.8-.2.4-.2.7-.5.7-1-.7-.5-1.7 0-2.6-.3-1-.3-2.3 0-3.4.2-.2-.2-.5-.3-.3-.6a5 5 0 0 1 3.3-1.5c2 0 4.3.4 5.4-1.3.2-.2.1-.5-.2-.7-1.4.2-2.7 1.7-4.1.9 0-.7.7-1.2 1.3-1.5 1.3 0 3.2.2 4-1.4.8-1.2 1.6-2.4 2.1-3.7.1-.2.2-.5-.1-.6-2.5 2.9-5.1 5.5-9.3 6m-23.9-5.1c0 .7 1 .5 1.4.6 2.4.4 4.6 1.9 5.4 4 .2.6.8 1.6 1.6 1.7h.8c0-.5-.7-.5-.9-1-1-2.4-2.7-4.8-5.6-5.4-.8-.2-2-.4-2.3-.3-.4 0-.4.4-.4.4"/><path fill="#d3d2d2" d="M211 243.4c.5.2 1-.3 1.2-.7l-.1-.4c-.5.2-1 .5-1.1 1m-24.6.5c-.2.4 0 1 .2 1 .2.3.3.4.6.3.3-.3.3-.7.4-1.2.2-.5 1-1.4.7-1.6-.4-.2-1.4.8-2 1.5m1.9.8c-.1.5.1.8.3 1 .1.2.5.3.8.2.2-.1.5-1.8 1.3-2.4-.1-.6-.7-.4-1-.2a6 6 0 0 0-1.4 1.4"/><path fill="#d7ab28" d="M182.6 244.9c-.8 3.8 2.7 6.6 5.7 8.7 3 2 4.8 2.4 6 3.2.2.1.5 0 .7-.2-1.1-2.2-3.6-2.7-5.2-4.5-.8-1.1-1.9-2.5-3-3.2h-.5c-.3.5.4 1 0 1.4-.4 0-.6-.3-.7-.5a6.7 6.7 0 0 1-1-5.9c0-.5-.6-.3-1-.3-.5.2-.7.9-1 1.3"/><path fill="#d3d2d2" d="M190.5 245.4c-.3.6.5.8.8 1 1 .3.8-.8 1.3-1.2 0-.3 0-.5-.2-.5-.9-.1-1.5.1-1.9.7"/><path fill="#d7ab28" d="M185.8 246c.6 1.7 2.8 2 3.4 3.8 1.5 2.5 4.7 3.9 6 4.6 1.3.6 3.4 1.6 4.6 1.1v-.2c-.8-.4-1.3-.4-2.7-1.5-1.5-1-3-3.7-5.5-4.4-.8-.2-1.7-.3-2.3-1-.1-.2.2-.3.4-.3 1 .1 2.3.1 3.1.9 3.4 1.3 6.4 3.5 9.4 5.6 1.3.8 3 1.5 4.7.9.1-.1.2-.4 0-.5l-2.8-1.8c-.1 0-.2-.2-.1-.4.3-.3 1.1-.1 2.2.1 1 .3 3.2 1.6 4.8.8-.2-.8-.9-.5-1.8-.8-1-.3-2.3-1.2-3.6-1.5-3.7.3-6.6-1.6-9.7-2.7-3-1.6-6.9-.8-9.7-3-.2 0-.3.2-.4.4m33.9.7c.1.5.8.5 1 .6.3-.4.3-1 0-1.3-.4-.2-.9.3-1 .7"/><path fill="#231f20" d="m221.2 248.4-1 .5a3 3 0 0 0-.2 1.4c.5-.1.4-.6.8-.8.7-.4 1.6-.7 1.8-1.6 0-.4.3-1 .1-1.1-1 0-.6 1.3-1.5 1.6"/><path fill="#d7ab28" d="M217.5 249.4c-1 1.1-1.5 2.7-2.9 3.4-1.5.4-1.3 2-2.6 2.8-1.2.7-1.7.7-3.2 1.5a46 46 0 0 1-9.8 2.8c0 .4.4.4.7.5 1 .2 1.8.5 2.6.5 2-.4 3.5-1 5.6-1.9 2.2-.8 4.1-1.7 5.8-2.4 2-2 3.7-4.3 4.2-7 0-.2-.2-.3-.4-.2m-21.6-52.1.1-1.7c.3-2.2 1.8-4.5 4-5 1.7-.5 3.7-.5 5.2 0 2 .8 3.3 2.5 3.5 4.6v2c0 .3 1 .3 1-.1-.3-.4.2-2-.3-2.2-.5-.3.4-.8 0-1.5 0-1-1.6-.4-.8-1.5 0-.4-.3-1-.9-1.2-.3-.2-.6.5-1 0 .2-.5-.3-.9-.6-1.1-1-.7-1.7 1.1-2.3-.4-.4-.3-.9-.1-1.3.2l-.3.3c-.4.1-.5-.5-.7-.5-.6 0-1.2 0-1.7.4-.2.2 0 .6-.5.7-.1-.5-.7-.4-1.2-.4a2 2 0 0 0-1 1.3c0 .3.3.3.2.5-.5.1-1 .1-1.3.5-.3.3-.4 1-.1 1.2 0 0 .2.2 0 .4 0 .2-.6.3-.8.7-.3 1 .7 2.9.8 2.8"/><path fill="none" stroke="#231f20" stroke-miterlimit="3.9" stroke-width=".9" d="M201.8 181.3h-.1"/><path fill="#d7ab28" d="m325.3 111.3 1 1.7c-3.9 3.1-5 4.8-6 8.4a15 15 0 0 0 1.8 11c2.8 4.8 6.8 6.4 10.5 4.2.8-.4 1.5-1 2.2-2 1.5-2.3 1.5-3.7.3-11.2a32.6 32.6 0 0 1-1-12.3 12 12 0 0 1 5.8-8c6.4-3.8 14.1-1.3 18.4 6 1.5 2.5 2.4 5.5 3 10 .1.8.4 1.6.6 2 .7 1.1 1.7 1.2 3.4.4l.7 1.3-12 7.1-.7-1.4c3.1-3.1 4.2-4.7 4.7-7.8.6-3.3 0-6.7-1.9-9.8-2.4-4.2-6.2-5.8-9.4-4a6 6 0 0 0-2.9 4.4c-.3 1.7 0 3.5 1.1 9.1a33 33 0 0 1 1 11c-.5 3.9-3 7.4-6.6 9.5-6.7 4-14.8 1.2-19.5-6.8a27 27 0 0 1-3.2-10 5 5 0 0 0-.5-2c-.8-1.4-2-1.6-3.8-1.2l-.8-1.5 13.8-8m-13.5-54.5 14.6 14-1.3 1.3-.4-.4a5.8 5.8 0 0 0-1.8-1.4c-1.5-.7-2.7-.1-4.7 2l-16.4 17c-3.4 3.6-4.3 5.2-4.4 7.8-.2 2.5 1 4.8 3.2 7 5.5 5.3 11.8 4.8 17.6-1.2l15.4-16c1.5-1.6 2-2.2 2-3.3 0-1-.4-1.9-1.9-3.3l-.5-.5 1.3-1.3 9.5 9.2-1.2 1.3-.3-.3c-.8-.8-1.5-1.3-2-1.6-1.2-.5-2.4-.5-3.4.2-.5.3-.8.6-1.7 1.5l-15 15.7c-7.6 7.9-15.6 7.9-23.7.2A27.5 27.5 0 0 1 292 99c-1-1.7-1.7-3.9-2-6.1-.2-3.8 1-6.9 4.4-10.4L311 65.3c2.5-2.6 2.5-4.3 0-6.7l-.4-.4 1.2-1.3M284.2 41l18 10.4-.9 1.6-.2-.1c-3.3-2-5-1.5-6.9 1.7l-15.7 27-.6 1.1c-.5.9-.7 1.7-.5 2.6.3 1 1.1 1.9 3 3l.3.2-.9 1.5-17.9-10.4 1-1.6.2.2c1 .6 1.8 1 2.4 1 1 .4 2.3 0 3.1-.8l1.2-2 1.1-1.7 14.7-25.3c1.1-2 1.2-2.5 1-3.7-.2-1.1-.9-1.8-3-3l-.3-.2 1-1.6m-43.5-16.2 36.3 12-3.8 11.3-1.7-.6c.9-2.9 1-4.3.2-6.3a7.7 7.7 0 0 0-5-5l-4.4-1.4-11 34c-.8 2.2-.8 2.8-.4 4 .6 1 1.5 1.5 3.9 2.3l.8.3-.5 1.7s-4.3-1.8-10.4-4c-6.2-2-11-3.1-11-3.1l.5-1.7.7.3c1.4.4 2.2.7 3 .7 1.2 0 2.3-.5 3-1.6l.8-2 .7-2.3 10.4-31.7-3.8-1.3a7.3 7.3 0 0 0-7.1 1.5c-1.2 1-1.9 2.2-3.1 4.9L237 36l3.7-11.4M111 44.5l18.5-8 .8 1.6-.5.2a6 6 0 0 0-2 1.2c-1.2 1-1.2 2.4 0 5l9.3 21.7c2 4.6 3.2 6 5.6 7.2 2.1 1.1 4.8 1 7.7-.3 6.9-3 9-9 5.6-16.7l-8.6-20c-.9-2.1-1.3-2.7-2.2-3.2-1-.5-2-.3-3.8.5l-.6.3-.7-1.7 12.3-4.8.7 1.6-.4.1c-1 .5-1.8.9-2.3 1.3a3 3 0 0 0-1 3c0 .7.2 1.1.7 2.2l8.2 19.3c4.3 10 1.3 17.5-9 22-2.3 1-4.8 1.7-7 2-2 .3-4.2 0-6.4-.6-3.6-1.2-6-3.5-8-8l-9.4-21.9c-1.4-3.3-3-4-6.2-2.6l-.6.2-.7-1.6"/><path fill="#d7ab28" d="M340.5 143c-4 2.3-8.6 2.6-12.8 1 4 2.7 8.9 3 13.2.6 3.8-2 6.3-5.5 7-9.3l.1-2.4a16 16 0 0 1-7.5 10M322.6 122a11 11 0 0 0-.3 3.6l.2-1c1-3.6 2.2-5.2 6.1-8.3l-.8-1.5h-.1c-3.6 3-4.4 4.2-5 7.2m42.1 4.1-7.8 4.7-1.8 1.8.8 1.4 12.2-6.8-.8-1.3c-1.1.5-2 .6-2.6.2m-12-15.8a5.4 5.4 0 0 0-2.6-1.7 3 3 0 0 0-2.3.3c-1 .6-1.6 1.6-1.8 2.7 0 .8-.2 1.7.1 3.5a6.2 6.2 0 0 1 3-4.2 5 5 0 0 1 3.6-.6M328 72.5l-1.2 1.3 1.4 1.3.4.4 1.3-1.3-1.8-1.8v.1m-8.2 1.5-16.4 17c-3.3 3.5-3.7 4.6-3.8 6.4 0 .8.1 1.6.5 2.4.2-2.6 1-4.2 4.7-7.7l16.5-16.8a7 7 0 0 1 2-1.6h-.2l-.4-.4-.8-.8c-.1 0-.5-.2-2.1 1.5m24.5 16.6-.5.6c.5.3 1 .8 1.6 1.4l.2.3 1.3-1.3-1.7-1.8-.9.8m-3.8-.3c-.9-.9-1-1-1.3-1-.2-.2-.6-.2-.9 0l-1.3 1.2-15 15.7c-4.6 4.7-9.6 7-14.5 6.6 5.1 1.6 10.3 0 15.4-5l15.2-15.6c.8-.8 1.2-1 1.7-1.4l.8-.3-.1-.3m-58-.4-.8 1.4-.2.2 1.2.7 1-1.5-.3-.2c-.3-.2-.7-.3-1-.6m17-35.2c-1.5-.8-1.6-.6-1.8-.6 0 0-.6.3-1.5 1.8l-15.7 27-.6 1c-.2.5-.3.7-.2 1l1.2 1c0-.2 16.9-28.9 16.9-28.9.6-1 1.2-1.7 1.8-2.2m4.5-1.8-.8 1.2-.2.5a6 6 0 0 1 2 1l.2.1 1-1.6L304 53m-60.7-15.3c1.3-2.7 2-3.7 3.3-4.7.2-.3.6-.5.9-.7a5 5 0 0 0-4 1.3l-1.3 1.5-.7 2 1.8.6m22.4.5-1.8-.6-10.4 31.8c-.5 1.6-.5 1.8-.3 2.2 0 .2 1.4.8 1.4.8l11.3-34.2h-.2m-7.9 38.1-.4 1.4v.2l1.1.5.6-1.6-.8-.3-.5-.2M279 38l-2.5 7.7c0 1-.3 2.1-.8 3.6l1.5.6 4-11.2-2.1-.7m-76.9-5.2a13 13 0 0 1-4 11.5c4.5-2.2 6.6-6 6.2-11.2-.5-5-3.1-8.5-7.7-10 3 2.1 5 5.4 5.5 9.7M195 46.5l9.3 12c2.1 3 2.6 3.3 3 3.5 1.1.5 2 .5 2 .5l-12.7-16.8-1.5.8M231.6 28h-.1c-2.6-.4-2.4-.1-2.6 2.3l-3.6 31.4-.1 1.4c0 .4 0 .6.2.8 0 .2.7.4 1.5.6l3.9-33.8a7 7 0 0 1 .8-2.8m3.3-3.5-.2 1.5v.5l2.1.1h.3l.2-1.7-2.5-.4m-43.2 40.4h-.8l.2 1.7h1.4l-.1-.8-.7-1m38.4 2.7v1.8l1.3.3.2-1.8h-.3l-1-.3m-99.9-26.7-1 .4c0 .2-.3.5.6 2.6l9.3 21.6c2 4.4 3 5.2 4.5 6 .7.3 1.4.5 2.3.5-2.2-1.2-3.4-2.7-5.2-7.2l-9.2-21.7c-.4-1-.6-1.8-.7-2.5h-.1l-.6.3m23.3-8.3v-1l-.3.2-1.3.7a1 1 0 0 0-.3.8 14543.8 14543.8 0 0 0 8.9 21 19.1 19.1 0 0 1 1 14.7l-.7 1.4c3.6-4.2 4.1-9.7 1.5-16.3l-8.2-19.3a9.6 9.6 0 0 1-.6-2.2m-21.1 4.8v.1a9 9 0 0 1 1.8-.9l.5-.2-.6-1.6-2.4 1 .7 1.6m22.8-9 .3.7 1.9-.9.3-.2-.6-1.6-2.4.8.5 1.2m-48.4 69.6 1.4-1-2.5-7.6-1.4 1 2 6c0 .4.4 1.2.5 1.6M102 83.7l1.3-1-1.4-4.5-2.3-1.5 2.3 7zm-27.2 56.2 1-1.2c-.3 0-17.8-12-17.8-12l-4-.6 20.8 13.8m5.3-4.1-.3.6.2.2 1.4.9.6-1.2-1.5-1-.4.5m-9.3-35.5 17.4 26.5.8-1.4-14.8-22.9-3.4-2.2zm1.1 14.7-1.3-2-25-5.3-.8 1.7 27 5.6zm41.2-19.1-.4.3.1.2 1 1.3 1-.8-1-1.5-.7.5M71.6 80.1l-.3.5c-.7 1-.5 1-.5 1.1-.3.6 1.2 1.6 1.6 1.9l26.3 17.8 1 .5-.3-.9-.4-1.2-25-17.2c-1.2-.8-2-1.6-2.4-2.5m-.4-3.5.8.5 1-1.7.3-.4-1.5-1-1.6 1.9 1 .7m67.1 4.7.2.2 1.2-.5-1-1.5-.3.2-1 .5.9 1m-5.3-1.4c.3 0 .4 0 .7-.2l.6-.9-40.1-22.2-1.5 1.3s39.5 21.8 40.3 22m53.4-16.9-.7-6.3-2.4-3.3.8 7.3c.2 1.7.3 1.8.6 2.1.2.1.6.3 1.7.2M184 42.1 182.5 28l-2 .2 1.6 14.2 2-.2"/><path fill="#d7ab28" d="M6.5 173.7A196 196 0 0 1 62.1 64.2 196.1 196.1 0 0 1 201.7 6.4c52.7 0 102.3 20.5 139.6 57.8a196.1 196.1 0 0 1 55.6 109.5c4.2.2 6.5.5 6.5.5-6.2-43.2-26.1-83-57.6-114.5A202.6 202.6 0 0 0 201.8 0 202.5 202.5 0 0 0 57.5 59.7 202.2 202.2 0 0 0 0 174.2s2.4-.3 6.5-.5"/><path fill="#231f20" d="m345 235.8.4-.4c1.3-1.3 1.6-1.5 1.9-1.4.1 0 .1.2 0 .2l-.4.7-1.9 2-.8 1-.8 1c-5.7 6.8-6.7 8-7.9 10.1h-2.2c0-.8.3-1 2.4-3.6l6.5-6.5.5-.5-.6.3-.4.3-.3.2-1.4 1-.4.2-.5.4c-.9.6-.9.6-1.2.4l.4-.4.2-.1c.2-.3.5-.4 3.5-2.5a22 22 0 0 0 3-2.4m3.4 6.2a7.4 7.4 0 0 0-3.4 2.4l-.5 1c-.3 1.1-.1 2.1.5 2.7.5.5 1.4.8 2.6 1l.8-.1a6 6 0 0 0 2-.7c2.5-1.5 2.8-3.6.8-6.2l-.6-.6c-.7 0-1.5.2-2.2.5m6.3-2.2a4.9 4.9 0 0 0 2.8-2.4c0-.2 0-.3.2-.4.3-.7.2-1.4-.2-1.9-.3-.3-.9-.6-1.7-.6-.3 0-.6 0-1 .2h-.1c-1.4.3-2 .8-2.6 1.7-.8 1.1-.8 1.9 0 3.2.2.4.5.6.8.8l.4-.1 1.4-.4m2.8-.5-.3.1c-.5.4-1 .6-2.5 1l-1 .3-.6.1.3.6c1.8 3 1.5 5-1.4 6.7a8.2 8.2 0 0 1-3.6 1.2c-1.3.2-2.5 0-3.4-.4-1.2-.5-2-1.4-2.3-2.4-.3-1.4.3-2.7 2.3-3.9a9 9 0 0 1 2.2-1l.6-.2h.6l1-.3h.2l.7-.2-.3-.6c-1-2.7-.1-4.9 3.4-6l1.3-.3c1-.1 2 0 2.8.2l.4.2.4.2c1.3.8 1.6 2.3.5 3.6l-.5.5-.8.6m24.4-4.2-1.5 1.3-1.2 1.4c-1.3 1.7-1.6 2.7-1.7 3.5 0 1.4 1 2.2 2.5 1.7l1.6-1h.3c1-.8 1.7-1.4 2.2-2 1.5-1.9 2-3.2 2.1-4.3 0-1.2-.8-2-2-1.7a3 3 0 0 0-1.2.4l-1.1.7m-9 9.7.5.2c.8.2 1 1 .5 1.7a1 1 0 0 1-1 .7h-.5c-.7-.3-.8-1-.2-1.7l.3-.3h.2c-.5 0-1 .1-1.3.6-.8 1-.7 1.9.2 2.5.2.2.7.3 1.4.3l1.1-.3c1-.2 2.5-1 4.5-2.7a26.8 26.8 0 0 0 3.3-3c0-.2.2-.3.3-.4h-.2l-.6.4-1.1.5c-1.2.4-1.7.4-2.5.1-1.3-.4-2-1.5-2-3 .1-.9.6-2 1.7-3.4a8 8 0 0 1 3.3-2.5l1.1-.5c2.8-1 4.3-.5 5.1 1.2.3.4.4 1 .4 1.5v.2c0 1.5-.8 3.3-2.5 5.5l-1.3 1.4-1.7 1.6a17.9 17.9 0 0 1-6.1 3.2c-1.4.4-2.3.6-2.8.6h-.4c-1 0-1.6-.4-2-1-.3-.8-.2-1.5.3-2.3.6-.7 1.4-1.1 2-1m-14.6 0-.2.4c-.2.3-.4.6-.4.9-.3 1 0 1.7.6 2.2.5.4 1.2.6 2.2.5 1.4-.2 2.5-.7 4.5-2.7l1-1c1.3-1.7 1.7-2.7 1.8-4 0-1.4-1-2.2-2.8-1.7-.3 0-.6.2-1 .4l-.7.3c-.6.4-.7.5-.8.4l-.1-.3.4-.5 2-2.6c2.5-3.2 2.4-3.2 3.7-3.3h3.7l.8-.1c.7 0 1.3-.2 2.3-.5h.2c0 .2-.4.8-1.8 1.9l-.7.2-1 .1h-2.9c-2.1.1-2.7.4-3.8 1.7l-.8 1.2-.3.3-.6.8.3-.1h.2l.2-.1.4-.2.5-.1c2.5-.5 4 .3 4.6 1.8.6 1.5-.4 4.1-3.8 6.5a8 8 0 0 1-3.3 1.5c-1.5.4-2.2.5-3.2.3l-1.2-.3c-.3-.1-.6-.4-.8-.7-.4-.7-.5-1.5 0-2.5.2-.3.2-.6.5-.8l.3-.4c.6-.4 1.2-.6 1.7-.5 1 0 1.4.9 1.2 1.6l-.2.3c-.4.7-1 1-1.4.8-.7-.3-.9-1.1-.3-1.8.2-.3.3-.4.6-.5-.6 0-1 0-1.6.6m-307.2-7.2v.3h-.2l.2-.3zM26 235a12.6 12.6 0 0 0-3.8 2.2A9 9 0 0 0 20 240a6.3 6.3 0 0 0-.4 5.6l.3.6h.6l3-1.7 1.7-1 .4-.3.3-.1 1.9-1.2.7-.4 3.5-2.3c1-.6 1-.6.3-2.2 0-.3-.3-.7-.7-1-1.2-1.3-3.2-1.7-5.7-1m0 9-2.8 1.7-1.6.9-.9.5c.6 1 2 1.8 4.4 2h1c2.7 0 4.8-1.4 6.8-4.6 1-1.3 1.5-2.6 2.5-6l.2-1-.5.5-.6.3-.5.4-.6.3c0 .4 0 .8-.2 1.2-.1.7-.5 1.4-.9 1.9l-1.6 1.6c-.3.4-.8.7-1.3 1-.4 0-.8 0-.8-.2v-.4l.6-.2c.8-.2 1.7-.8 2.7-2a4 4 0 0 0 .8-2.3l-1.7 1-.7.5-2 1.3-.4.3L26 244m17.8-13a5.6 5.6 0 0 0 1.3-1.5c.6-.6.7-.8.7-1.2.1-.5-.1-.9-.7-1l-1.3.1c-.4.2-1 .5-1.5 1.2l-.4.4a10.7 10.7 0 0 0-2.7 5.5l.6-.4.8-.5a26 26 0 0 0 3.2-2.5m1.3-.4-1.3 1.2L42 233l-1.4 1-.2.1-1.7 1.2-.4 1.3-.1.7-.6 1.9-.6 1.7c-.6 1.6-1.3 2.7-2.6 4.1-2.6 3-5.7 4.3-8.5 4.5-2.4.1-4.5-.7-5.9-2.3l-1 .2h-1c-1.5.2-2.3-.3-2.7-1.3v-.2l.2-.1.5.6c.1 0 .4.3.9.4.4.3 1 .2 2-.1l.5-.3a6.6 6.6 0 0 1-1-4.2c.1-1.6.6-3 1.8-4.6a8.3 8.3 0 0 1 4.8-3.4l1-.2 1.3-.1c3.2 0 5 1.2 5.8 3.4l.2.7c1-.3 2.6-1.6 2.6-1.6l.4-1.1a15 15 0 0 1 2.4-4.6 12 12 0 0 1 3.3-3.1l1.7-1 1-.2h.3c.7.1 1.2.7 1.3 1.4 0 .5-.2 1.1-1.1 2.4l-.2.3m6.1 3.8c.4 0 .8.2 1 .6l.1.3c.2.5 0 1-.3 1.3l-.3.2c-.2.2-.3.2-.5.2a1 1 0 0 1-1.2-.7c0-.5 0-1 .4-1.4l.8-.5"/><path fill="#231f20" d="M43.7 239.6c.7 0 1 .5 1.1 1.3 0 .7-.2 1.4-1.1 2.2l-1.1.9c-.7.5-1.6.9-2.9 1.2l-.4.1-.4.1-.6.9a4.8 4.8 0 0 0-.6 2c0 .4.4.6.8.5.4 0 .6-.2 1-.3l1-.7.2-.1a20.8 20.8 0 0 0 4.2-4.2v-.2c1.2-1.4 1.3-1.7 1.5-1.7l1.1-1.6h2l-4.4 7-.1.3-.2.4-.2.6c0 .2 0 .4.3.5.4 0 .8-.2 1.5-1l2-2.2c1.2-1.3 1.7-2 2-2.6l.7-1 .3-.3 2.3-3.6h-2.6v-.3l.1-.2h2.9l2.4-3.8h2l-2.2 3.8h3.3l-.3.4H56l-4.8 7.6-1 1.5-.5 1.3-.2.4c.6.1.9 0 1.7-.5l.7-.7a27.9 27.9 0 0 0 3.5-4c1-1.4 1.3-1.7 1.5-1.7l.2.1c0 .3-.4 1-3.6 4.7l-.4.3c-.8 1-1.4 1.4-1.9 1.8l-.7.4c-1 .5-1.8.1-1.9-.7-.2-.7 0-1.6.8-3.2l-1.2 1.5-.2.3a7.5 7.5 0 0 1-2.5 2l-.4.2c-.5.1-1 0-1.3-.5l-.3-.8c0-.6 0-1.3.3-2l.2-.3.5-.8-.7.7-1.5 1.6-.7.5c-2.3 1.8-3.8 2-4.7 1.3-.6-.6-.8-1.6-.3-3.4.3-.7 1-1.8 2-3 .5-.5 1-1 1.6-1.3.8-.7 1.4-1 2-1.3a4 4 0 0 1 1.6-.4m0 1.8.3-.7c0-.2 0-.4-.2-.5a2 2 0 0 0-1.6.8l-1.2 1.3a9.4 9.4 0 0 0-1.7 2.3c1.1-.1 2-.6 3-1.7l.5-.4.8-1 .1-.1M165 235c0 4.8 6.8 13.1 13.8 17.3 6 3.6 18 8.1 23 10a182 182 0 0 0 22.8-10c7.1-4.2 13.8-12.5 13.8-17.2h.4c0 5-6.8 13.4-14 17.6-5.7 3.4-16.7 7.7-23 10-6.4-2.3-17.5-6.6-23.2-10-7.1-4.2-14-12.7-14-17.6h.5"/><path fill="#231f20" d="M238.4 235v-48.2c-7.5-2.3-25-5.4-36.6-5.3a156 156 0 0 0-36.7 5.3V235h-.5v-48.7h.2A157 157 0 0 1 202 181c11.7 0 29 3 36.4 5.3h.4v48.8h-.4"/></svg>