<svg xmlns="http://www.w3.org/2000/svg" version="1.0" viewBox="-2.8 -2.8 207.2 99.7"><path fill="#231f20" fill-rule="evenodd" d="M64.5 80c0-1.2-.7-2.3-2.2-2.6 1.2-.4 2-1.4 2-2.6 0-1.6-1.2-2.6-3.6-2.6h-3.2v11h2.7c3.5 0 4.3-2 4.3-3.3zm-1.8-5c0 1.3-1 2-2.8 2h-1v-3.6h1.5c1.8 0 2.3.7 2.3 1.7zm.2 5c0 1.2-.8 2-2.6 2H59v-4h1c1.7 0 3 .5 3 1.9m22 3.3-3-4-1-1c2-.2 3.3-1.3 3.3-3.2 0-2-1.5-2.8-3.7-2.8H78v11h1.5v-5l3.8 5H85zm-2.2-8c0 1.2-1 2-2.5 2h-.9v-3.8h1c1.6 0 2.4.5 2.4 1.8m23.4 8-4-11h-1.6l-4 11h1.5l1-2.6h4.6l.9 2.6h1.6zm-3-3.8h-3.8l1.4-3.8.5-1.7.5 1.6 1.5 4"/><path fill="#231f20" d="M126.8 79v-6.7h-1.5V79c0 2.2-.9 3-2.8 3-2.2 0-2.7-1.2-2.7-2.7v-7.1h-1.5v7.2c0 2 .7 3.8 4.1 3.8 2.9 0 4.4-1.4 4.4-4.3m19.7 4.3v-1.3h-4.1v-3.8h4V77h-4v-3.4h4.1v-1.2H141v10.9h5.6"/><path fill="#231f20" fill-rule="evenodd" d="m167.2 83.2-3-4-1-1c1.9-.2 3.3-1.3 3.3-3.2 0-2-1.5-2.8-3.7-2.8h-2.7v11h1.5v-5l3.7 5h2zm-2.2-8c0 1.2-1 2-2.5 2h-1v-3.8h1c1.6 0 2.5.5 2.5 1.8"/><path fill="#231f20" d="M185.9 83.2v-1.3h-4.1v-3.8h3.9V77h-4v-3.4h4.2v-1.2h-5.6v10.9h5.6m15.1-.1v-11h-1.5v11h1.5"/><path fill="#d0b907" stroke="#d4d03b" stroke-width=".2" d="M8149 5496.8c0 7.5-4.6 14.9-14.6 16.6v.2a18 18 0 0 1 13 16.8c0 10.8-7.7 17.3-23.5 17.3-8.7 0-16-.2-21.3-.3v-72.2l18.4-.3c22.6 0 28 13.2 28 21.9zm-11.8 32c0-8-6.4-12.6-18.2-12.6h-6.6v23.4l9.8.2c11.6 0 15-4.6 15-11zm1.5-32.3c0-8-5.3-13.6-17-13.6a64 64 0 0 0-9.3.5v25.3h6.8c11.1 0 19.5-3 19.5-12.2zm147.5-21.3-20.5 25.8-6.3 7.7c12.6.8 22 8 22 20.3 0 13.8-10.2 18.8-24.4 18.8-8 0-13.2 0-18.1-.4v-72.2h9.8v32.4h.4l24.6-32.4h12.5zm-15 52.5c0-7.7-6-13-16.4-13-2.9 0-5 .2-6 .3v24.6l6.4.2c10.5 0 16-3.4 16-12zm156.2-52.5-26.6 72.2H8390l-26.3-72.2h10l6 16.9h30.7l6-17h11zm-19.7 24.7h-25.5l9.3 25.7a90 90 0 0 1 3.3 10.9h.2c.9-3.7 1.9-7.2 3.3-10.8l9.4-25.8zm156.6 2.9v44.6h-9.6V5502c0-14.5-5.9-19.8-18.5-19.8-14.6 0-17.9 8-17.9 18v47.2h-9.8v-48c0-12.8 4.5-25.3 27-25.3 18.9 0 28.8 9.7 28.8 28.7zm131.7-27.6v8.2h-27.4v25h26v8h-26v22.9h27.3v8.1h-37.1v-72.2h37.1zm138 0-20.5 25.8-6.3 7.7c12.7.8 22 8 22 20.3 0 13.8-10.2 18.8-24.4 18.8-8 0-13.2 0-18.1-.4v-72.2h9.8v32.4h.5l24.5-32.4h12.5zm-15 52.5c0-7.7-6-13-16.4-13-2.9 0-5 .2-6 .3v24.6l6.5.2c10.4 0 15.9-3.4 15.9-12z" overflow="visible" style="marker:none" transform="matrix(.15 0 0 -.15 -1158.1 904.1)"/><path fill="#d0b907" stroke="#d4d03b" stroke-width=".2" d="M8958.5 5475.2v8.2h-27.3v25h26v8h-26v22.9h27.3v8.1h-37.1v-72.2h37z" style="marker:none" transform="matrix(.15 0 0 -.15 -1158.1 904.1)"/><path fill="#d0b907" d="M200.8 82.8V72h-1.5v10.8h1.5z"/><path fill="#231f20" fill-rule="evenodd" d="M63.6 79.1c0-1.1-.6-2.2-2.1-2.5 1.1-.4 1.9-1.4 1.9-2.5 0-1.7-1.1-2.6-3.5-2.6h-3.2v10.8l2.7.1c3.4 0 4.2-2 4.2-3.3zM62 74.3c0 1.2-1 1.9-2.8 1.9h-1v-3.5h1.5c1.8 0 2.3.6 2.3 1.6zm.2 4.9c0 1.1-.8 2-2.6 2h-1.3v-3.9h1c1.6 0 2.9.5 2.9 1.9m22 3.1-3-3.8-1-1.2c1.9-.1 3.3-1.2 3.3-3 0-2.1-1.5-2.9-3.7-2.9l-2.7.1v10.8h1.5v-4.8l3.7 4.8h2zM82 74.5c0 1.1-1 2-2.5 2l-.9-.1v-3.7h1c1.6 0 2.4.5 2.4 1.8m23.4 7.8-4-10.8h-1.6l-4 10.8h1.5l1-2.5h4.5l1 2.5h1.6zm-3-3.7h-3.8l1.4-3.8.5-1.6.5 1.6 1.4 3.8"/><path fill="#231f20" d="M126 78.2v-6.7h-1.5v6.8c0 2.2-.9 3-2.8 3-2.2 0-2.7-1.2-2.7-2.7v-7h-1.4v7.1c0 2 .6 3.8 4 3.8 2.8 0 4.3-1.5 4.3-4.3m19.8 4.1v-1.2h-4.1v-3.7h3.9v-1.2h-4v-3.5h4.2v-1.2H140v10.8h5.6"/><path fill="#231f20" fill-rule="evenodd" d="m166.4 82.3-3-3.8-1-1.2c1.9-.1 3.3-1.2 3.3-3 0-2.1-1.6-2.9-3.7-2.9l-2.7.1v10.8h1.5v-4.8l3.7 4.8h1.9zm-2.3-7.8c0 1.1-.9 2-2.4 2l-1-.1v-3.7h1c1.6 0 2.4.5 2.4 1.8"/><path fill="#231f20" d="M185 82.3v-1.2h-4v-3.7h3.9v-1.2h-4v-3.5h4.2v-1.2h-5.6v10.8h5.6m15.1 0V71.5h-1.5v10.8h1.5"/><path fill="#231f20" fill-rule="evenodd" d="M113.2 89c-1.6 0-2.6 1.1-2.6 2.6s1 2.4 2.4 2.4c.6 0 1.1 0 1.6-.3v-2.3h-.6v1.9l-.9.1c-1 0-1.8-.7-1.8-1.9 0-1.3.9-2 1.9-2l1.3.3v-.6l-1.3-.2zm16 0c-1.2 0-1.8.6-1.8 1.4 0 1.5 2.2 1.1 2.2 2.2 0 .6-.5.8-1 .8l-1.1-.1v.6l1 .1c1.1 0 1.8-.6 1.8-1.5 0-1.5-2.2-1.2-2.2-2.2 0-.5.3-.8 1-.8.3 0 .6 0 .9.2V89l-.9-.1zm29.6 0c-1 0-1.7.6-1.7 1.4 0 1.5 2.2 1.1 2.2 2.2 0 .6-.5.8-1.1.8l-1-.1v.6l1 .1c1 0 1.8-.6 1.8-1.5 0-1.5-2.3-1.2-2.3-2.2 0-.5.4-.8 1-.8.4 0 .7 0 1 .2V89l-.9-.1zm8.4 0c-1.7 0-2.5 1.1-2.5 2.6 0 1.4.7 2.4 2.3 2.4.5 0 1 0 1.3-.2v-.6l-1.1.2c-1.2 0-1.7-.7-1.7-1.9 0-1 .5-2 1.6-2 .4 0 .7.1 1 .3l.1-.7h-1zM58 89l-1.8 5h.7l.4-1.2h2l.5 1.1h.7L58.8 89h-.7zm7.3 0v5h.7v-2.5l2 2.5h.9l-2.2-2.5 2.1-2.4H68l-2 2.4V89h-.6zm7.8 0v.6h1.4v4.3h.6v-4.3h1.4V89h-3.4zm8.2 0v5h.7v-5h-.7zm6.1 0v5H90v-.6h-1.8v-1.7h1.7v-.6h-1.7v-1.5H90V89h-2.5zm7.7 0v5h.7v-4.1c0 .3.3.7.5 1l1.8 3h1V89h-.7v4l-.6-1-1.8-3h-.9zm24.7 0v5h2.5v-.6h-1.8v-1.7h1.7v-.6h-1.7v-1.5h1.8V89H120zm15.5 0v5h2.5v-.6H136v-1.7h1.8v-.6H136v-1.5h1.9V89h-2.5zm7.7 0v5h2.4v-.6h-1.8V89h-.6zm7.1 0v5h2.5v-.6h-1.8V89h-.7zm23.2 0v5h.7v-2.3h2.5v2.2h.6V89h-.6v2.1H174v-2h-.7zm10.4 0-1.8 5h.7l.4-1.2h2l.5 1.1h.7l-1.7-4.9h-.8zm7.3 0v5h.7v-2.3h1.7v-.5h-1.7v-1.6h1.8V89H191zm7 0v.6h1.4v4.3h.7v-4.3h1.4V89H198zm-139.7.8.3.7.6 1.8h-1.7l.6-1.8.2-.7zm125.8 0c0 .2 0 .5.2.7l.6 1.8h-1.7l.6-1.8.3-.7zm-80 2v.6h1.7v-.5h-1.7z"/><path fill="#231f20" d="m124.7 38.2.5.7V50l-.5-.7c-.2-2-1-9.6-4.7-9.6-2.8 0-3.6 4.7-3.6 10.9 0 4.9 0 11.3 2.7 12.5.3.2.6-.2 1-.2 1 0 4.2-3.5 4.4-9.3l.3-.8.6.8c0 2.7-1.5 10.6-5.6 10.6-3.5 0-6.7-5-6.7-12.8 0-7.2 3.2-12.6 6.4-12.6 2.2 0 3.2 1.6 3.8 2.5l1.4-3.1m6.1 4.2-1.2-2.1h-1.5l-.6-.8 7.8-.8.5.8v.8h-1.4l-.6 1.4V50h5.5v-7.7l-1-2.1h-1l-.6-.8 7.8-.8.6.8v.8h-2l-.7 1.4v17l1.8 4 .3-.7.6.7v.9h-7.8l-.6-.8h1.7l1-2.2v-9.3h-5.6v10.3l1.5.4.5.7v.9h-7.7l-.6-.8h2.3l1-2.2V42.4M4.9 35.2 3.4 32H1.1l-.8-1 10-1 .8 1v1H9.9L9 33.6v14.1l7-10.3-2-5.4h-1.3l-.7-.8 11.4-1 .7.8v1h-3.5l-5.5 8 7.5 22.5 1.4-.9.7 1v1H13.8l-.7-.9 2.6-.2.4-3.4-4.5-13.8-2.6 4V58l2.1 4.3.2-.9.6 1v1H1.1l-.6-.9 3-.2 1.4-2.8V35.2"/><path fill="#231f20" d="M38.3 56.4c0 5.1-3.3 7.8-5.3 7.8-2.6 0-6.4-1-6.4-7.6V42.4l-1-2.1h-1.7l-.7-1 8.5-.8.7 1v.8h-2.2l-.4 1.2V58c0 2.1.8 4.6 3.7 4.6 1.4 0 3.6-.5 3.6-6.5l-.3-13.5-.8-2.3h-1.5l-.7-1 7-.8.7 1v.8h-1.8l-1.4 3.4v12.7m8.2-14.3-.8-1.8h-2.2l-.7-1 9.2-.8.7 1v.8h-2.2l-.8 1.4v17.2l1.9 3.7 2.3.1 2.6-12.5.7 1v12.4H43.5l-.7-1 3.2-.8.5-1V42.1M59 62.7h2l1.2-6-.1-14.5c0-.9.5-2-.3-2h-2l-.7-.8 6.8-.7.6.8L69.4 53 72 38.8l6.1-.3.7 1v.8h-2l-.7 1.2v17.3l1.7 4 .3-1 .7 1v.8h-8.6l-.6-1 2.5.1 1-2.1V42.7c0-1 0-1.4-.2-1.4s.2-1.7-.2-1.4l-5 25.3-4.2-23.3-.2-.4c-.2 0-.4.2-.4.7V57l2.3 5.6.1-.9.7 1v.8h-6.4l-.6-1m25-20.1-1.1-2.1h-1.5l-.6-1 10.4.2c1.4 0 4.2.3 4.2 5.1a6 6 0 0 1-1.4 4.2c-.9 1-2.4 1.4-2.4 1.9 0 .4.2.6.7.8 2 1.1 3.7 2.2 3.7 6.2 0 5.9-3.7 5.9-5.2 5.9h-9.3l-.7-1 2.2.1 1-2.1V42.4zM87 59l1.7 3.8h1.5c2 0 2.5-3.3 2.5-5.4 0-2.3-.4-5.9-2.8-5.9h-3V59zm0-8.5h1.6c.8 0 3.8-.4 3.8-5.2 0-3.8-1.2-5-2.5-5h-2.3l-.7 1.5v8.7m20.9 10.7-1-5.2h-5.7l-.4 1.7 1 5 .2-.9.7 1v.8h-4.8l-.7-1c.8-.4 1.7-1.6 2.2-3.5l5.6-20.5 1-.5.6.7 4.7 23.6s.7-.6 1.3-.6l.7 1v.8h-7.7l-.7-1 2.4.1.6-1.5zm-1.2-6.2-2-9.7-.1-.2s-.5 0-.6.3l-2.5 9.6h5.2M150 42.4l-1-2.1h-1.7l-.6-.8 13.7-.8.5.8v12.2l-3-11.4h-4.1l-.7 1.4v8.4h1.8l2-6.2.5.7v12.2l-2.7-5.7H153v7.7l1.6 4h3l2.9-9.2.6.8v9.2h-13.9l-.6-.8h2.4l1-2.2V42.4m16.5.1-1.2-2.2h-1.9l-.6-.8H174c2.2 0 5.4.8 5.4 5.8 0 4.3-3 5-4.4 5.4-1.2.3-1.4.3-1.4.9 0 .8 1.3.7 2.6.9l.6.8 1 7c.3 2 1 2.5 1.2 2.5l.4-.8.5.8v.7H175l-.6-.7-1-8.9c-.1-1-.7-2.5-2-2.5h-1.7v7.5l2 4 .2-1 .6 1v.6h-9l-.7-.7h2.7l1-2.1V42.5zm3.2 8c3.4 0 6.2 0 6.2-5.2 0-2.5-.5-5-2.8-5h-2.4l-1 1.6v8.6"/><path fill="#d0b907" d="m4.3 34.4-1.4-3H.6l-.6-.7 10-1 .5.7v1h-1l-1 2V47l7-10.4-2-5.1h-1.3l-.5-.8 11.4-1 .5.7v1h-3.1l-6 8.4 7.2 21.9 1.9-.8.5.8v1H13.2l-.5-.7 2.4-.3.4-3.4L11.1 45l-2.6 4v9.3l1.6 3.4.7-.8.6.8v1H.6L0 62l3-.3 1.3-2.9V34.4"/><path fill="#d0b907" d="M37.7 55.6c0 5-2.3 7.8-5.3 7.8-2.5 0-6.4-1-6.4-7.5V41.7l-1-2.2h-1.7l-.6-.7 8.6-.9.6.8v.8h-2l-.7 2v15.8c0 2 1 5.3 2.6 5.3 1.4 0 5-.8 5-6.7v-14l-1.4-2.4H34l-.6-.7 7-.9.6.8v.8h-1.6l-1.7 4.2v12M46 41.4l-.9-1.9H43l-.6-.7 9.3-.9.5.8v.8h-2l-1 1.7V59l1.5 3h2.7L56 49.6l.6.8v12.4H42.9l-.6-.7 3-.1.7-2V41.5M58.6 62h2l1.3-4V41.5c0-.8.1-1.9-.6-1.9h-2.1l-.6-.7 6.6-.9.7.8 3 14.3 2.5-13.5 6.4-1.6.5.8v.8h-1.6l-1 2V59l1.3 3 .8-.7.5.8v.8h-8.5l-.6-.7 2.4-.1 1-2.2V42c0-.9-.2-1.3-.2-1.3s0-1-.2-.4l-4.6 23.3L63 41.2c0-.3-.2-.5-.3-.5-.1 0-.3-1.2-.3-.8v17.3l2 4.8.5-.8.5.8v.8h-6.3l-.6-.8m24.9-20.3-1.1-2.2h-1.4l-.6-.7 10.3-.1c1.4 0 4.2.4 4.2 5.2a6 6 0 0 1-1.4 4.2c-.8 1-2.4 1.3-2.4 1.8s.2.6.7.9c2 1 3.7 2.2 3.7 6.1 0 6-3.7 6-5.1 6h-9.4l-.6-.8 2.1-.1 1-2.2V41.7zm3 17.3 1.4 3h1.8c2 0 2.6-3.4 2.6-5.4 0-2.4-.5-6-2.9-6h-2.8V59zm0-9.3H89c.9 0 3-.4 3-5.2 0-3.9-1.3-5-2.6-5h-2l-.8 2v8.2m20.6 10.7-1-5.1h-5.4l-.7 2.2 1 4.5.3-.8.6.8v.8h-4.8l-.6-.7c.8-.5 2-1.7 2.5-3.6l5.4-20.5.9-.7.6.8 4.7 23.7 1.3-.6.6.8v.8H105l-.5-.7 2.3-.1.5-1.6zm-1.2-6.2-2-9.7v-.2c-.2 0-.3.1-.4.3l-2.6 9.6h5m18.1-16.8.6.8v11l-.7-.8c-.2-2.3-1-9.5-4.6-9.5-2.8 0-3.6 4.8-3.6 11 0 4.8 0 11.2 2.7 12.5.3.1.8-.3 1.2-.3 1.6 0 4.2-3.7 4.4-9.4l.2-.6.5.7c0 2.8-1.5 10.6-5.6 10.6-3.5 0-6.7-5-6.7-12.8 0-7.2 3.3-12.5 6.5-12.5 2.1 0 3.2 1.6 3.7 2.5l1.4-3.2m6.1 4.3-1.1-2.2h-1.6l-.6-.7 7.8-.9.6.8v.8h-1.4l-.7 1.7v8.1h5.6v-7.6l-1-2.2h-1.1l-.6-.7 7.8-.9.6.8v.8h-1.8l-.9 1.7v17.7l1.4 3 .7-.7.6.8v.8h-7.8l-.6-.7 1.8-.1.9-2.2v-9.3h-5.6v11l1.5-.3.6.8v.8h-7.8l-.6-.7 2.3-.1 1-2.2V41.7m19.3 0-1.1-2.2h-1.7l-.5-.7 13.6-.9.6.8v10.9l-3-10h-4l-.8 1.6v8.1h1.7l2-6.2.5.8v11.7l-2.6-5.3h-1.6v8.8l1.1 2.9h3.4l3-9.1.5.7v9.2h-13.9l-.5-.7 2.3-.1 1-2.2V41.7m16.5 0-1.2-2.2h-2l-.5-.7 11.1-.1c2.3 0 5.4.7 5.4 5.8 0 4.2-2.9 5-4.4 5.3-1.2.3-1.3.4-1.3 1 0 .8.9 1.3 2.6 1l.5.7 1 7c.4 2 1 2.5 1.3 2.5l.3-.8.6.8v.8h-5l-.5-.7-1-9c-.2-1.1-.8-2.6-2.1-2.6H169v8.6l1.6 2.9.6-.8.6.8v.8h-9l-.6-.7 2.6-.1 1-2.2V41.7zm3.1 8c3.4 0 6.2 0 6.2-5.3 0-2.4-.5-4.9-2.8-4.9h-2.2l-1.2 1.8v8.4" overflow="visible" style="marker:none"/><path fill="#333c97" d="M0 29.6v1.1h2.3l1.4 3V58l-1.4 2.8H0V62h10.8v-1H9.1L8 58.3v-10l2.6-4L15 57.4l-.3 3.4h-2V62h11v-1H21l-7.1-21.3 6.3-9h3v-1.1H11.7v1.1H13l1.8 5.2L8 46.2V33l1-2.3h1v-1.1H0zm104.2 7.7-5.5 20.5c-.5 2-1.3 3-2 3.4v.9h4.7v-.9h-.9l-.9-4 .7-2.6h5.4l1 5-.6 1.6h-1.7v.9h7.6v-.9c-.4 0-1.8 0-2.3-2.5l-4.3-21.4h-1.2zm14.2 0c-3.2 0-6.4 5.4-6.4 12.6 0 7.8 3.2 12.8 6.6 12.8 4.8 0 5.7-7.9 5.7-10.6h-.4c-.2 5.7-2.3 9.7-4.9 9.7-3.8 0-3.8-7.3-3.8-12.7 0-6.2.8-11 3.6-11 3.7 0 4.8 8.1 5 10l.3.4v-11h-.3l-1.6 2.3c-.6-.8-1.6-2.5-3.8-2.5zm-95.7.6v.9h1.7l1 2.1v14.2c0 6.6 3.9 7.6 6.4 7.6 3.5 0 5.3-2.4 5.3-7.8V43.1l1.9-4.3h1.4v-.9h-7v.9h1.4l1.9 4.3v12.1c0 6-3 6.6-4.4 6.6-2.8 0-3.7-3.2-3.7-5.3V40.9l1-2.1h1.7v-.9h-8.6zm19.6 0v.9h2.3l.8 1.8v18.7l-.7 2h-2.4v.8H56V49.6h-.3l-3 11.6h-3.2l-1-1.9V40.6l1-1.8h2v-.9h-9.2zm16.3 0v.9h2c.8 0 .9 1 .9 1.9v16.6l-1.6 4h-1.3v.7H65v-.8h-1.4L62 57.3V40.7c0-.5.1-.7.2-.7.2 0 .3.1.3.4l4.8 21.7 4-21.1c.2-.7.3-1.2.5-1.2s.3.4.3 1.4V59l-1 2.1h-2v.9h8.7v-.9H76L75 59V40.9l1.2-2.1h1.5v-.9h-6.3l-3 15-3.3-15h-6.6zm21.7 0v.9h1.4l1.1 2.1v18.2l-1 2.1h-1.5v.9h9.4c1.5 0 5.2 0 5.2-6 0-3.9-1.7-5-3.7-6-.6-.3-.8-.5-.8-1 0-.4 1.6-.8 2.5-1.8.8-.8 1.3-2.2 1.3-4.2 0-4.8-2.7-5.2-4.2-5.2h-9.7zm46.6 0v.9h1.6l1 2.1v18.2l-.9 2.1H127v.9h7.8v-.9h-1l-1-2.1v-9.3h5.5V59l-.9 2.1h-1.2v.9h7.8v-.9h-1.7l-1-2.1V40.9l1.2-2.1h1.5v-.9h-7.8v.9h1l1 2.1v7.7h-5.4v-7.7l.9-2.1h1v-.9H127zm19.3 0v.9h1.6l1.1 2.1v18.2l-1 2.1h-1.7v.9H160v-9.3h-.3l-3.2 8.4h-3.7l-.8-2v-9.6h1.8l2.4 4.8V43.1h-.2l-2.3 5.5H152v-7.8l.9-2h3.8l3.1 8.9v-9.8h-13.6zm16 0v.9h2l1.2 2.1v18.2l-1 2.1h-2.1v.9h9v-.9h-1.7l-1-2v-9.5h1.6c1.4 0 2 1.5 2.1 2.6l1.6 9.8h4.9v-.9h-.9c-.3 0-.9-.5-1.2-2.5l-1-7c-2 0-3.2-.7-3.2-1.7 0-.6.2-.6 1.4-1 1.4-.3 4.3-1 4.3-5.3 0-5-3.1-5.8-5.3-5.8h-10.6zm7.6.9h2.1c2.3 0 2.8 2.4 2.8 4.9 0 5.2-2.7 5.2-6.2 5.2v-8.1l1.3-2zm-83 0h2c1.2 0 2.5 1 2.5 4.9 0 4.8-2 5.2-3 5.2H86v-8l1-2.1zm16.5 4.8.2.1 2 9.8h-4.9l2.6-9.7.1-.2zM86 49.9h2.8c2.4 0 2.9 3.6 2.9 6 0 2-.5 5.3-2.5 5.3H87l-1-2.1v-9.2z"/><path fill="#d0b907" d="m130.7 28.5-.9-.5h-80l-1 .5h81.9m-3.2-1.2-.8-.6H52.9l-.9.6h75.5m-3.1-1.3-.9-.5H56.1l-.9.5h69.2"/><path fill="#d4d03b" d="m104 4.6-.7-.8-2.4-2.7-.8-.9-1 .7c-1.4 1-3.1.5-3.6.2-.2 0-3.2-1.5-5.9-.5-2.6-1-5.6.4-5.8.5-.5.3-2.2.8-3.6-.2l-1-.7-.8.9L76 3.8l-.7.8.6 1c.8 1 1.3 2.7 1.4 4.7l-.1 3.1c-.3 5.9-.7 13.2 5.9 16 2 .9 4.5.8 6.5 0 2 .8 4.5.9 6.6 0 6.6-2.8 6.2-10.1 6-16l-.2-3c0-2.1.5-3.8 1.3-4.9l.7-.9"/><path fill="#d0b907" stroke="#231f20" stroke-width=".4" d="m104.1 4.6-.7-.8-2.4-2.7-.8-.9-1 .7a3.8 3.8 0 0 1-3.7.2s-3-1.5-5.8-.5c-2.7-1-5.6.5-5.8.5-.5.3-2.2.8-3.6-.2l-1-.7-.8 1L76 3.7l-.7.8.6 1a8.7 8.7 0 0 1 1.4 4.7l-.1 3.1c-.3 5.9-.7 13.2 5.9 16a8.6 8.6 0 0 0 6.5 0 8.6 8.6 0 0 0 6.6 0c6.6-2.8 6.2-10.1 5.9-16l-.1-3c0-2 .5-3.8 1.3-4.9l.7-.9z"/><path fill="#231f20" d="M89.6 27.9c1.7.9 4 1.1 6 .3 6.9-3 5.1-11.6 5-17.9.1-2.2.6-4.2 1.7-5.6L99.9 2a5.2 5.2 0 0 1-5 .3c-.9-.4-3.4-1.2-5.3-.2-1.8-1-4.3-.2-5.2.2-.9.5-3 1-5-.3L77 4.7a10 10 0 0 1 1.7 5.6c-.1 6.3-1.9 15 5 18 1.9.7 4.3.5 6-.4"/><path fill="none" stroke="#231f20" stroke-width=".1" d="M89.7 27.9a7.2 7.2 0 0 0 6 .3c6.9-3 5-11.6 5-17.8a10 10 0 0 1 1.6-5.7L100 2a5.2 5.2 0 0 1-5 .4c-.8-.5-3.3-1.3-5.2-.3-1.8-1-4.3-.2-5.2.3-.9.4-3.1 1-5-.4l-2.4 2.7a10 10 0 0 1 1.6 5.7c0 6.2-1.8 14.8 5 17.8a7.2 7.2 0 0 0 6-.3z"/><path fill="#fff" d="M84.2 2.9v11.5H79l.1-4.6c0-1.8-.4-3.8-1.4-5l1.9-2.2a6 6 0 0 0 4.7.3m5.3 11.5v12.7c-1 1-4 1.5-5.4.7V14.4h5.4"/><path fill="#244aa5" d="M100.2 9.6c-.1 3.2.4 6.4.1 10-.7 8.6-7.6 9.8-10.7 7.5V2.8c1.1-.8 2.9-.8 4.1-.2 2 .8 4 1.4 6 0l2 2.1c-1 1.1-1.5 3.4-1.5 4.9"/><path fill="none" d="M100.3 9.6c-.1 3.2.4 6.4.1 10.1-.7 8.6-7.6 9.7-10.7 7.5V2.8c1.1-.8 2.9-.7 4.1-.2 2 .8 4 1.4 6 0l2 2.2c-1 1-1.5 3.3-1.5 4.8z"/><path fill="#231f20" d="M94.8 4.5c.2.3 0 .7 0 1l-.1.3h.2c.1 0 .2.2.1.3 0 .2 0 .3-.2.4h.4c0 .3 0 .4.2.4l.1.2c.7.4 1.4 0 2 0 .6 0 1 0 1.5-.2.2-.2.4-.5.3-.8-.3-.5-1.2-.5-1.6-.5-.5.1-.8 1-1.5.7-.2-.2-.7-.3-1-.2 0-.1.1-.4.3-.5.1 0 .2 0 0-.3 0-.2-.4-.2-.4-.2 0-.5.6-.4.7-.4l.2.4c0-.2 0-.4.3-.4.2 0 .3 0 .5.2 0 .1-.4.1-.3.4.1 0 .3.2.4 0 .2 0 .6 0 .6-.5.2-.3.5-.2.3-.5.2 0 .4 0 .5.2.2 0 .1.2 0 .3 0 0-.2.1-.1.3h.2c0-.4.8-.2.5-.7.2 0 .5.1.6.3l-.2.4c-.2.2 0 .2 0 .2 0-.2.5-.1.4-.5.2 0 .2.3.4.3 0 .4-.3.4-.3.6-.1.2.1.6 0 .8 0 .8-.6 1-1.2 1.2.2.3 0 1 .3 1 .2.2-.2.2-.2.3-.2.1-.5.3-.4.5.2.5 1-.1 1.3.3 0 .2-.3.4.2.5l-.2.2.1.2-.2.1.1.2v.3l-.3-.1v.1H99v.3h-.3c0 .2-.2 0-.1.2v.1h-.2c-.1 0-.1 0 0 .1-.4 0-.3-.2-.4-.3h-.2s-.2 0-.1.1c-.1.1-.4 0-.2-.4.1-.2 0-.3 0-.4l-.3.1c0-.2.1-.3.3-.4h.4c.1 0 .2.1.4 0 .1 0 .1-.1 0-.1-.3-.2-1 0-1.1-.3-.2-.4 0-1.1 0-1.1-.2.1-.7.6-.6.9.2.1.1.4 0 .6v.1l-.1.2h-.2v.1c-.1.1-.3.2-.5.1l-.2.3v.1l-.2-.1h-.2l-.4.2v.2c-.2 0-.3-.3-.4-.3l-.1.2-.2-.1h-.3c-.2-.2 0-.4 0-.4.1 0 .2-.1.2-.3h-.2c0-.1-.1 0-.2 0-.1-.1 0-.4.2-.4s.2-.2.4 0c.2-.1.3 0 .4.1l.8-.4-.1-.5c0-.3.3-.4.4-.7l.5-.4c-1.6.6-2.6.4-2.6.4-.1.2-.1.6-.4.7.2.3 0 .6-.3.5 0 0 0 .3-.3.1 0 .3-.4.3-.4.3.1.3-.2.2-.1.5v.2c-.2.2-.4-.2-.5 0l-.3.2s-.1 0 0 .2c-.1 0-.3 0-.3-.3-.2 0-.3 0-.4-.2-.1 0-.2 0-.3.2v-.6c0-.1.4-.1.2-.4h-.3c-.2-.2.3-.4.3-.4.1 0 0-.1 0-.1h.3s.3 0 .4.2l.4-.3.4-1c-.2 0-.5-.2-.5-.5.1.1.3 0 .4 0-.2-.1-.4-.1-.4-.6l.3.1v-.5c-.1 0-.3 0-.3-.2s-.6-.2-.4-.5c0-.2 0-.2-.2-.2l-.2-.3h.3l-.1-.1-.4-.2-.2.1c-.3-.3.2-.6.4-.5l-.2-.4-.3.1c0-.5.5-.5.8-.3v-.3h-.3c0-.2.1-.3.4-.3.3 0 .4.2.5.3v.6l.3.6.4.4h.2s-.2-.1-.2-.3v-.3c.2-.1 0-.3-.1-.4V5c.1-.2 0-.4.2-.6h.3c.3-.2.8-.2 1.3-.1.3 0 .4.4.8.2"/><path fill="#fff" d="m91.3 4.4.3.4c0 .1 0 .4-.2.4l-.3-.2c.3-.2 0-.1 0-.4 0 0 0-.2.2-.2m3.4.3V5h-.3l.3.4s-.2.3-.1.4l.3.2c0 .2-.5.1-.5.1 0 .3.5.1.5.1s-.2.4-.4.3c.1.3.5.2.6.2 0 .3-.5 0-.5.3.1.1.2.1.4 0h.2l-.1.4h-.3s0 .2.2.3h.5c0 .2 0 .3-.2.3s-.5 0-.3.1h-.4v.3l.2.2h-.3v-.2h-.2c0 .2.3.4.3.5-.2 0-.3-.1-.3-.2l-.1-.2c-.2 0 0 .4 0 .5l-.2-.3-.1-.2c-.2 0-.2.2-.1.3l.1.2c-.2 0-.2-.4-.4-.4 0 .2-.2.3-.3.4H93l.4-.3c-.1-.2-.2 0-.3 0h-.3s.3 0 .4-.2v-.3c-.2 0-.2.4-.4.4l.3-.6h-.2c-.2.2 0 .6-.4.6h-.4l.4-.4c0 .1-.1.3 0 .2.2-.1.2-.3.2-.4.1-.2 0 0 0 0h-.1v-.4c-.2 0-.1.4-.2.6l-.4.3c-.1-.1.3-.4.2-.3-.4.1-.6-.2-.6-.2h.6l-.3-.3h.4l-.5-.2c.2 0 .4 0 .2-.3.3.2.4 0 .4-.3 0 0 .3-.4 0-.6.2 0 .5-.4.4-.4l-.2.2c-.1 0-.3-.2-.2-.3.4 0 .5 0 .5-.3l-.4-.2-.1-.2s0 .1.2 0V5h-.2v-.4h.3c.4-.2 1.3-.1 1.5 0l.5.2"/><path fill="#fff" d="M98.3 4.6c0 .1-.4.3-.1.6 0 .2.1 0 .4.2.1 0 .3 0 .1-.1 0 0-.3-.1-.2-.3.2 0 .7-.1.6-.5 0 0 .2 0 .3.3 0 .1-.3.3-.3.5 0 0 .1.2.3.2v-.2c.3 0 .3-.2.4-.3 0 .2.2.2.2.3l-.4.3.2.9c-.1.6-.7 1-1.3 1v.6c0 .2.4.7 0 1-.3 0-.3.4-.2.6.2.2.4.1.7 0 0 .2.3.4.2.6v.1c.2-.2 0-.2 0-.4l-.1-.2h.3v.4l.2.1-.2.2.1.2-.2.1.2.3-.4-.1v.2s-.2-.1-.2 0v.2h-.2l-.1.2h-.2s.1.2-.1.2h-.2v-.2l.2-.1v-.2c.1 0 .2 0 .3-.2l-.2.1-.2.1-.1.1v.2h-.5s-.1 0 0-.2h.1l.2-.1.2-.2H98l-.1.1h-.2c0-.2-.1-.3 0-.4h.8c.1 0 .2-.2.1-.3-.4-.3-1 0-1.2-.2-.1-.2 0-.5 0-.8 0-.6.5-.7.1-1.2-.7-.4-1 .2-1.7.4l-1 .2.4-.3v-.4c.2-.1.5-.2.5-.5l-.1-.2h-.3s.1-.3.3-.2c.6.2 1.2-.1 2-.1.5 0 1.7.1 2-.8 0-.4-.3-.6-.6-.7-.5-.2-1.3-.3-1.7.1-.2.2-.4.4-.7.4-.4 0-.5-.3-1.2-.2 0 0 .1-.3.3-.3l.3.1h.6c-.5 0-.7-.2-.8-.4 0-.2-.3-.3-.5-.4 0-.2.4-.3.6 0l.3.4s.1.1.2 0c0 0-.3-.2-.2-.4.1-.4.6 0 .6 0-.3 0-.4.2-.3.3.4.4.6.1.7 0h.4l.2-.4c0-.2.3-.3.3-.5 0 0 .3 0 .3.2m-7 .7h.2c0 .4.5 1 .7 1 0 0 .4.3 0 .6V7H92c-.2.2-.1.2-.1.4-.3 0-.2-.2-.4-.3l-.3-.2-.1-.6-.3-.2-.2-.2v-.2c.1-.1.5-.1.6.1.1 0 .2.1.2 0l-.3-.3-.5-.2s0-.3.2-.3c.3 0 .2.4.6.4"/><path fill="#fff" d="M94.7 8.2s0 .2.2.2l-.2-.2m2.5.2h.1c.2.7-.5.8-.7 1.2 0 .2-.2.4-.1.5 0 0 .2.3 0 .4v.3l-.2-.1c-.3 0 0 .2 0 .2-.4 0-.2.1-.1.2h-.3c-.2 0-.1.1-.2 0-.1 0 0 .3-.2.4l-.4-.2c-.1.3-.1.3-.3.3h-.2c0-.3.2-.4.3-.5h-.3c0 .2 0 .3-.2.3l-.2.1c-.2.1-.1 0-.2 0s0-.1 0-.2l.2-.2h.3l.2-.1h-.4a.5.5 0 0 0-.4-.2v-.1c.1-.1.2-.2.3 0 .2-.1.3 0 .4.1h.2c.2-.4.7-.2.7-.6 0-.2-.3-.3 0-.7.3-.1.3-.5.6-.6.3 0 .4-.3.8-.6 0 .3.2-.1.3.1m-4.4.6h.6l-.1.5c0 .1-.2.1-.2.3v.4c0-.1-.1-.1-.2 0l-.2.1h-.2l-.1.3s-.1-.1-.2 0c0 0-.5.2 0 .2-.1.1-.5.1-.4.4l-.3-.2-.1.4h-.3l-.1-.2.2-.2.2-.3-.2.2H91c0-.2.1-.3 0-.4l-.2.1v-.5c.4 0 .3.2.4.2h.3c.5-.3.4-.8.8-1.5.2-.1.5.2.6.1"/><path fill="#fff" d="m90.9 11-.1.4-.3-.5h.4m1.5-5.2v-.3l.3.1-.2.1M92 8.5l-.3.1.2.2v-.3"/><path fill="#231f20" d="M93.5 5c-.2-.1-.4-.2-.6 0l.1-.3c.1.2.5 0 .5.2m.2.1c.1-.1.3-.2.5 0v-.3c-.2.2-.5 0-.5.2m.7.7s0 .1-.1 0l.1-.2c.1 0 0 .2 0 .2m0 1.3V7l-.1-.4.1.3M93.8 8v-.2.4V8M93 6.7l-.2.3c0-.1 0-.3.2-.3m.9.4v-.4.4m.4-.1v-.3.2m-1 .4v.3-.3m-.4.3v-.3.3m5.4.2c.1.2.2.4 0 .6.2-.3 0-.6 0-.6m1.4-1.4v.4-.4M94 7.9l-.1.3V8m-.6.3v.3-.3m2.2.1v-.3.3m-.1.3v-.3.3m-2.6-2V7v-.3M96 8.3V8v.2m-.4.2v-.3.3m.4-.1-.1-.2v.2m-2-.7v-.1.1m1.8.8V8v.4m.9-2.3h.3-.3m-3.4 3.4-.3.2c0-.2.4 0 .2-.3v-.2.3m3.3.8c0 .1 0 .2-.2.3H96c.8 0 0-.6.3-.5l.1.2"/><path fill="#231f20" d="M93.3 5.4c-.1.3.2 0 .2.2.1-.1.4.1.3-.1 0-.1.2.1 0 .2h-.2c0 .2.4 0 .5.1v.1c0 .3.2.5 0 .7h-.3c0 .2 0 .4-.3.4h-.2c-.1-.1 0-.4 0-.4H93s-.2 0-.1-.1v-.6c0-.1 0-.2.1-.1l.4-.1h-.3v-.3m-.1-.3.3.1h-.2M93 5s.2.2.3.1c.2 0 0 0 0 0s-.3-.2-.3 0m1 0-.2.1h.3"/><path fill="#231f20" d="M94 5s0 .2-.2.1c-.1 0 0 0 0 0s.3-.2.3 0m-2.5 5.4.2.2h-.1l-.1-.2m.1 0v.1m0-.1h.1s0 .1 0 0m7.2.2h.2-.1m-.1-.1h.2-.2m-3.2.1.1.1h-.1m-.2 0 .2.2-.2-.2m.1 0 .2.1h-.1l-.1-.1m-3.3-3.4v.1-.1M94.7 5v-.2.2M94 8v.2V8m.3-.6.1.2v-.2m-.3.6v.2V8m.4 0v.3l-.1-.1v-.1m-1-.8v.2s-.1 0 0 0v-.2M92.7 5v.2V5m.4 3.2.2-.3c0 .1 0 .3-.2.3m0-.1.1-.2V8m-.8-.7v.3-.2m1.8-1.7.2-.2-.2.2M97.1 9c0-.2.2-.3.2-.3L97 9m1.3-.9V8v.1m-2.3.1v-.1c.1 0 0 .1 0 .1m.8 7.9c-.1-.3-.1-.5.1-.7.3-.2 0-.4 0-.7.2-.4.5-.5 1-.4.3.1 1 .9 2 1-.3.5-1.2.4-1.5.2 0 .3.7.5.7.5-.4 0-.8-.3-.8-.3-.2 0-.2.3 0 .4l.7.2c.3 0 .6.2.5.3 0 .4-.3.7-1.2.3l-.1.1c0 .2.3.4.9.4 0 0-.6.1-1.2-.2.2.7 1.1.5 1.3.8.2.5-.2 1-1.4.2 0 0 .4.6.9.7 0 0-.7-.1-1-.4l.3.4c.2.3 1.1.3 1 1 0 .2-.4.3-.7.2-.4-.2-.8-.4-1.1-1 0 0-.1.3.5.9l-.7-.8s.4 1 1.5 1.7c.4.2.3.6.2.7-1 .7-2.4-1.3-2.5-2.3 0 0-.2 0 0 .5l-.3-.3c0-.1-.1 0-.1 0 0 .6.5.5.6.8.1.5.5.8.7 1h-.4c.3.6.4 1.5.7 1.5.4 0 .1-.3.4-.3 0 0 .2-.3.4-.2l.4.1c.5 0 .4.6.1.6 0 0 0-.2-.2 0 0 0-.2-.2-.4 0h-.2l-.2.1c0 .3.2.3.4.3h.6v.2c.3-.1.5.6 0 .6 0 0 0-.4-.2-.2h-.1c-.4-.3-.7-.3-.7-.3s0 .2.2.3c.2 0 .2.2.2.2.1.1 0 .7-.6.5l.1-.3-.3-.1v-.4c0-.1-.2 0-.3-.2l-.2-.1h-.2c-.1.1-.3.1-.4 0l-.1.3c-.5-.5.1-.8.3-.7.1-.3.5-.2.5-.2 0-.5-.8-.9-.9-1.4 0 0 0 .2-.4.2 0 0 .3-.8-.1-.8 0 .4-.3 1.4.2 1.5.2.1.5-.1.5-.1 0 .3 0 .8-.8.8 0 1.2 1.1 1.3 1.4 1.2 0 .3-.7.7-1.6.2 0 0 1.2.5.7 1.3-.3-.8-.7-.5-.7-.5l.2.5c0 .3-.2.6-.5 1-.2-.4-.4-.7-.4-1l.1-.5s-.4-.3-.7.5c-.5-.8.7-1.3.7-1.3-1 .5-1.5.1-1.6-.2.3 0 1.4 0 1.4-1.2-.7 0-.8-.5-.8-.8 0 0 .3.2.6.1.4-.1.2-1.1.2-1.5-.5 0-.2.8-.2.8a.4.4 0 0 1-.4-.2c0 .5-1 .9-.8 1.4 0 0 .3 0 .4.2.2-.1.9.2.4.7l-.2-.2h-.4a1 1 0 0 1-.2-.1l-.2.1c0 .1-.2 0-.2.2v.4l-.4.1.1.3c-.6.2-.7-.4-.6-.5l.2-.2c.2-.1.2-.3.2-.3s-.3 0-.6.3h-.2c-.1-.2-.1.2-.1.2-.6 0-.4-.7-.1-.6v-.2h.6c.2 0 .3 0 .4-.3 0 0 0-.1-.2 0h-.1c-.2-.3-.5 0-.5 0-.1-.3-.2-.1-.2-.1-.3 0-.3-.5 0-.6h.5c.2-.2.4 0 .4 0 .3.1 0 .4.4.4.3 0 .4-1 .7-1.4 0 0 0-.2-.4 0 .3-.3.6-.6.7-1 .1-.4.6-.3.6-1l-.3.4c.2-.4 0-.6 0-.5 0 1-1.4 3-2.5 2.3 0 0-.2-.5.2-.7 1-.7 1.6-1.7 1.6-1.7l-.8.8c.7-.6.5-.8.5-.8-.2.5-.7.7-1 .9-.4.1-.7 0-.8-.3 0-.6.8-.6 1-1 .2 0 .3-.3.3-.3-.3.3-1 .4-1 .4.6-.1.9-.7.9-.7-1.2.8-1.6.3-1.4-.2.2-.3 1.2 0 1.3-.8-.6.3-1.1.2-1.1.2.6 0 .7-.2.9-.4 0-.1-.1 0-.1 0-1 .3-1.3 0-1.3-.4l.5-.3.7-.2c.2-.1.2-.4 0-.4 0 0-.4.3-.7.3 0 0 .6-.2.6-.5-.3.2-1.1.3-1.4-.2.8-.1 1.6-.9 2-1 .4-.1.7 0 .8.4.2.3-.2.5 0 .7.3.2.3.4.3.7-.1.3 0 .7.6.5-.3 0-.3-.2-.3-.2h.4c-.2 0-.3-.2-.3-.2s.6 0 .6-.2c-.3 0-.4-.2-.4-.2.2 0 .6 0 .7-.3l-.2-.2c-.5-.1 0-.2.2-.2s.3-.3 0-.3H94c0-.2.2-.3.5-.3H94l-.5-.1.5-.2c.2 0 .5 0 .5-.2H94c-.1 0-.2 0-.2.2-.1 0-.5-.9.6-.9 0 0 .2-.2.5-.2.6 0 .7.5 1.2.4 0 0 0 .4-.2.5 0 0 0 .3.5.4 0 0 0 .3-.3.4 0 .1.1.2.3.2l-.5.4c-.3.2 0 .4.2.5 0 0-.2.3-.4.3 0 0 0 .2.3.2 0 0-.2.2-.1.3l.2-.1c.2-.1 1 .3.8-.5"/><path fill="#fff" d="M92.6 14.5c.2.1.2.4 0 .6l.3.6c.2.3-.2.6 0 .9 0 .3.4.2.3.5l.2.4v.7c.2.3.4.6.3.8 0 .3-.2.6-.6.7-.3-.5 0-.9 0-.9-.2.2-.5.2-.5.2-.2-.1-.2-.5 0-.7-.4.2-.4 0-.5 0l.3-.4-.4-.1c-.1 0 0-.5.2-.7-.3 0-.3-.1-.3-.2l.2-.4c-.2 0-.5 0-.5-.2l.3-.7-.3-.1.1-.4c-.1 0-.3-.2-.2-.3.2-.4.8-.6 1-.3"/><path fill="#fff" d="M96.2 20.2c.2.5.3.8.6 1l-.6-.1c-.2 0-.3.4-.4.5 0-.1 0-.7-.2-.8-.3 0-.2.1-.3.4 0 .6-.2.9 0 1.3.3.4.8.1.8.1 0 .2-.3.7-.8.4 0 .4 0 1.4 1.3 1.6 0 0-.6.4-1.4-.2-.2.3.8.7.7 1.2-.1-.2-.5-.5-.8-.4-.1.4.2.4 0 .9l-.2.5-.3-.5c0-.5.2-.5.1-.9-.3-.1-.7.2-.8.4 0-.5 1-.9.7-1.2-.8.6-1.4.2-1.4.2 1.4-.2 1.4-1.2 1.3-1.6-.4.3-.8-.2-.8-.4 0 0 .5.3.8-.1.2-.4 0-.7 0-1.3 0-.3 0-.4-.2-.4-.4 0-.3.7-.3.8 0 0-.2-.5-.4-.5H93c.3-.1.5-.4.6-.9.4 0 .5-.3.5-.5v-.5l-.2.1V19c0-.7-.5-.8-.4-1.3 0 0 .1-.3-.1-.6 0 0-.2-.2-.1-.3.3 0 .4-.1.5-.3.2 0 0-.2 0-.2.4 0 .4-.2.4-.3H94s.5 0 .5-.5l-.3-.2c.2 0 .6 0 .5-.4 0-.1-.2-.2-.1-.3.2-.3 0-.4-.1-.7 0-.1-.2-.3 0-.5.4-.3.7 0 .8 0l.6.3c0 .2-.2.3-.2.3 0 .2.1.5.5.6 0 0-.2.3-.4.3l.3.3s-.6.2-.6.6l.3.2-.3.3c0 .2 0 .2.2.3 0 0-.2.5.2.3.3-.2.7 0 .7 0l-.2.3c-.2.3 0 .6 0 .6 0 .5-.4.6-.4 1.3v.3l-.2-.1c-.1 0-.2.2 0 .5 0 .2 0 .4.4.5"/><path fill="#fff" d="M97.2 14.5c-.2.1-.2.4 0 .6l-.3.6c-.2.3.2.6 0 .9 0 .3-.4.2-.2.5 0 0-.2 0-.2.4l-.1.7c-.2.3-.3.6-.2.8 0 .3.2.6.5.7.3-.5 0-.9 0-.9l.6.2c0-.1.2-.5 0-.7.3.2.4 0 .4 0 0-.1 0-.3-.3-.4l.5-.1s0-.5-.3-.7c.3 0 .3-.1.4-.2l-.2-.4c.1 0 .4 0 .4-.2.1-.2-.3-.7-.3-.7l.3-.1-.1-.4c.1 0 .3-.2.2-.3-.2-.4-.8-.6-1-.3m-7.1.8s.8-.2 1.2-.5v.6c-.3.3-1 .2-1.2 0m3.6 6.1c-.2 0-.2.4-.4.6-.3.2-.5.6-.5.7v.4s.4-.2.4.1h.4l-.1.2c-.1 0-.3.1-.4 0-.3-.1-.3 0-.5.1s-.3.3-.2.5c0 .2-.2.3-.4.2-.2 0-.2-.2 0-.3.2-.1.1-.3.4-.6l-.3.1-.4.1-.4.3s-.1-.2-.3-.2c0-.5.5-.1.7-.2.4 0 .4-.2.6-.4l.3-.4.5-1.2c0-.2.3-.3.4-.2l.2.2"/><path fill="#fff" d="M92 22.6c0 .2.3.4.3.4-.2 0-.3-.2-.5 0-.2-.2-.4-.1-.4-.1l-.1-.4c.1 0 .3-.1.4 0 .2-.1.3 0 .3.1m.8-3.2.2.4s.3 0 .5-.2c0 0 0 .8-1.1 1.7-.6.5-1.1.3-1.2.2 0 0-.2-.3.2-.5a4 4 0 0 0 1.4-1.6m-.6-.9h.2l.1.6s-.3.6-1 .9c-.6.2-.7-.2-.5-.5l.7-.4c.3-.1.4-.3.5-.6m-.4-.9s-.1.4.3.4l-.5.3c-.3.1-1 .5-1 0 0-.3.5-.4.6-.4l.6-.3m0-.6-.3.3.4-.2s-.2 0-.1-.1m0 1.6.2-.3s0 .2-.2.3m.9.4h.2l-.2.2v-.1m-1.2-2.9s-.2.4.4.4l-.1.2h-.5c-.3.2-.8.3-1 0 0-.3.4-.3.4-.4l.8-.2m0-.7.1.1h-.2l.1-.1m8.1-.2s-.8-.2-1.2-.5v.6c.3.3 1.1.2 1.2 0M96 21.5c.3 0 .2.4.5.6.3.2.4.6.5.7l-.1.4s-.3-.2-.4.1H96c0 .1 0 .2.2.2h.3c.3-.1.3 0 .5.1s.3.3.2.5c0 .2.2.3.4.2.2 0 .3-.2 0-.3-.2-.1-.1-.3-.4-.6l.3.1.4.1.4.3.3-.2c0-.5-.5-.1-.7-.2-.3 0-.4-.2-.5-.4l-.4-.4c-.2-.4-.2-.8-.5-1.2 0-.2-.3-.3-.4-.2l-.1.2"/><path fill="#fff" d="M97.8 22.6c0 .2-.3.4-.3.4.2 0 .4-.2.5 0 .2-.2.5-.1.5-.1v-.4s-.2-.1-.4 0c-.2-.1-.3 0-.3.1m-.8-3.2-.2.4s-.3 0-.4-.2c0 0 0 .8 1 1.7.6.5 1.1.3 1.2.2 0 0 .2-.3-.2-.5a4 4 0 0 1-1.4-1.6m.6-.9h-.1c0 .3 0 .5-.2.6 0 0 .3.6 1 .9.6.2.7-.2.5-.5l-.6-.4c-.4-.1-.5-.3-.6-.6m.4-.9s.1.4-.3.4l.5.3c.3.1 1 .5 1 0 0-.3-.4-.4-.6-.4l-.6-.3m0-.6.3.3-.3-.2V17m0 1.6-.2-.3s0 .2.2.3m-1 .4v.2-.1m1.3-2.9s.2.4-.3.4v.2h.5c.3.2.8.3 1 0 0-.3-.3-.3-.4-.4l-.8-.2m0-.7-.1.1h.2l-.1-.1"/><path fill="#231f20" d="M68 2h1c.3.2-.2.4 0 .5.6 0 .8.7 1.5.6.1.4 0 .8-.1 1.2.1.3.4.4.7.4 0 .4-.7.8 0 1.1l.3.7c-.1.2-.4 0-.5.2.4.3.8 1 1.4.6.1.1 0 .3 0 .4l-.1.2.3.1c0 .2-.2.4-.4.6h.1c1-.7 1.1-2.2 2.3-2.4.3-.2 0-.6.2-1 0-.6.7-.7 1-1 .1-.2.3-.2.5-.1l.2.1-.3.6c.2 0 .3.2.3.4l-.1.6c.3 0 .8 0 1 .2.3.1.2.5.3.7 0 .3.2.7-.1.8-.2.2-.3-.3-.5-.3a1 1 0 0 1-.7.3c.4 0 .6.6.8 1 0 .2 0 .5-.2.7-.2 0-.3-.3-.5-.3l-.3.1c0 .4.2.7 0 1 0 0-.2.1-.2 0h-.2c-.1.1 0 .4-.2.4v.5l-.5-.2c0 .3 0 .8-.4.8-.1-.2-.4-.4-.6-.1-.5.2.2.5.2.8 0 .5.3 1 .2 1.4-.4.2-.8 0-1.1-.2h-.2c0 .2.4.4.1.6h-.5c.4.8 1.2 1.4 2 1.7.2 0 .4-.1.5-.3 0-.3.4-.6.7-.8.5.3 1.3-.1 1.5.7-.6 0-.4.6-1 .8.2.2.4 0 .6.1.3.5.9 1 .5 1.6l-.1.1c-.3 0-.6-.6-.8-.2h-.5v1c0 .4-.5 0-.4.4v.3c-.2.2-.3 0-.5 0-.3-.3-.3-.7-.4-1 .2-.3.4-.4.4-.7l-.3.1c-.1.2 0 .5-.2.6l-.6-.2c-.2 0-.2.5-.4.2l-.4-.5c-.2 0-.3.4-.5.2a1 1 0 0 0-.3-.4c-.3 0-.5.4-.8.4-.4-.7-1.3-1-1.9-1.6l-.6.2v-.5c-.3 0-.5.3-.8.3 0-.2 0-.7-.2-.8-.3.4-.8.7-1.3.5 0-.1.2-.3 0-.5-2.4.2-4.5-1.4-7-1 .7.3 1.5.2 2.1.6.7.4 1.4 1.1 2.4 1 .7.1 1.1.9 1.9.8 0 .2-.3.4-.2.6l1.2-.1.4-.4v.5c0 .5-.3.9-.7 1 0 .6-.3 1-.8 1.3l-.4-.8-.6.3c.3.3.3.8.7 1 .4 0 1 0 1.4.2.4 0 .4-.4.7-.5h.7c0 .3.2 0 .5 0 .2 0 .5.2.6.4v.2l-.4.1c.4.3.3.8.7 1 .2.2 0 .5 0 .7l-.2.2c-.2-.1-.2-.4-.5-.4 0 .2-.3.1-.5.2 0 .3 0 .8-.2 1 0 .2-.2.3-.4.3 0-.2 0-.6-.2-.6l-.5-.1c-.2.3-.7.5-.3.8v.1c-.2.2-.5 0-.7 0 0-.6-.6-.3-.7-.7l-.6.3c-.1 0 0-.3-.2-.4-.4 0-.4.6-.7.4a1 1 0 0 1-.4-.8l-.6.3c-.2-.1 0-.8-.5-.7-.2 0-.5.1-.8 0 0-.1.3-.2.3-.4 0-1-1.3-2.2-.2-3.2-1-.5-1.3-2-2.6-2.3-.2.2 0 .6 0 1-.2.2-.3.5-.1.8 0 .8-.3 1.5-.4 2.2-.2 0-.3-.2-.4-.4-.2.1-.2.3-.3.5-.5-.3-1.2-.6-1.1-1.3l-.1-.1-.6.5c.6.4 0 2 1.1 1.4h.6c.2.1.6-.2.8 0l.2.7c-.3 0-.6 0-.6.2-.1.3.2.4.2.7 0 .4.2.8-.1 1-.1.2-.3.3-.4.3 0-.2 0-.4-.2-.5-.3 0-.4.2-.6 0-.3.2-.2.5-.3.7-.2.2-.3.4-.6.5-.1-.3 0-.7-.3-.8-.3 0-.4-.1-.5-.4-.3.4-.7-.3-.8.3-.1 0 0 .3-.2.4-.2 0-.4-.3-.5-.6.1-.5 0-1 .3-1.4-.2 0-.3.4-.5.3-.1-.2-.2-.5-.4-.5-.1.1-.3.4-.5.4-.2-.4-.2-.9-.2-1.3H53c-.2-.6.1-1 .5-1.5 0-.3-.3-.2-.4-.2.3-.7.8-1.2 1.3-1.7-.1 0-.4 0-.3-.3l.2-.1-.1-.1c.1-.3.4-.5.6-.7-.1-.2-.5-.2-.4-.5.2-.1.6-.2.8-.5l.2-.4c-.3-.2-.5 0-.8-.3a3 3 0 0 1-1.4 1.3c-.1-.7-.3-1.3 0-2-.6-.4-.7-1-.6-1.8a3 3 0 0 1 1-1.5c-.1-.7.3-1 .7-1.5l.7.5c.3-.2.6-.3.7-.6-1 0-2-.5-2.5-1.2v-.2c1 .2 2 0 2.8-.7 0-.2-.4-.2-.4-.4l.3-.1c-.4-.3-1-.7-1-1.3l.4.1c.9.3 1.8-.5 2.6.2.5-.1.8-.4 1.3-.3 1.1-.1 1.4 1.3 2.4 1.4.5.4.9 1 .8 1.8-.2 1.2-1.3 2-2.4 2.3-1.7.3-4.1-.3-5.6.8-.4.4-.6 1-.4 1.5.3.5.7-.1 1 0h.8c.5 0 1 .7 1.4.1 1.8-1.5 4-1.8 6.4-1.9 0-.2-.2-.5-.1-.8.4.2.8.4 1.3.3 0-.3-.2-.6-.1-.9.3.1.7.4 1.1.2a2 2 0 0 1-.5-1h.1c.5 0 1-.2 1.3-.7a1 1 0 0 1-.8-.8c0-.2.2-.4 0-.5-.9.3-2 .4-2.8-.1l-.3-.6c0-.2.1-.4.3-.4.6 0 .5.6 1 .6s1 0 1.4-.2c-.4-.5-.8-1-.5-1.7.2-.2 0-.6.4-.7-.4-.7.4-1 .5-1.6.4.4.5-.3.7-.3.2 0 .3-.3.5-.2l.1.2c.3 0 .8-.6.9-.1zm-8 5.9-.2.7c0 .1.3.2.2.3-.3.3-.8 0-1-.2-.3.1-.3.4-.5.5l-.4-.4-.9.5c-.2 0-.1-.3-.2-.4l-1.3.5c0 .2.2.3.3.4.2 0 .2-.2.4-.3.4-.6.3.3.6.3l1.1-.7.4 1c.9 0 1.7-.2 2.3-.8.3-.4.4-.8.3-1.2-.2-.3-.8-.4-1-.2"/><path fill="#d0b907" d="M58.5 5.7c.7-.2 1.3 0 1.8.6l.3.4c.5.1 1 .3 1.2.7.5.8.2 1.6-.2 2.2-2 2.5-6.1-.1-8 2.5 0 .4-.1 1 .1 1.3.3.5.8 0 1.2 0 .7 0 1.3.1 1.8.5l.3-.1c.8-1 1.9-1.4 3-1.7 1.1-.3 2.4-.5 3.6-.3l.6.4c-.2.2-.6 0-.8.1.1.7.6 1 1.3 1 .1.4.5.9.7 1.2.2-.4.7-.8.7-.8.3.5.8 1 .9 1.7-1.2.3-2.2-.2-3.3-.4-1.3-.4-2.9-1-4.2-.4-1.3 1 .6 2.2-.3 3.4.4.6 0 1.4-.1 2l-.3-.3-.4.6a1 1 0 0 1-.8-.8c0-.3-.2-.4-.4-.6l-.7 1c0 .2.2.3.3.5 0 .4-.1 1 .3 1.1l1.1-.2c0 .4.3.6.4 1-.2 0-.5-.2-.6 0 .3.1.6.2.7.4l.1.1c-.4.1-.6.4-.9.7-.3 0-.4-.3-.6-.4-.2.2.2.4 0 .6l-.8.1-.3-.1c0-.2.2-.4 0-.5-.3 0-.3.4-.6.3-.1-.3-.5-.4-.8-.6 0-.4.6-.7.2-1l-.5.4c-.4 0-.2-.8-.6-.6 0 .2-.2.3-.3.4-.3-.3-.2-1 0-1.5l-.5.3c-.1-.4.2-.8.4-1.1.2-.2.4-.3.4-.5h-.6c.2-.4.5-.7.9-1 .1-.3.5-.3.5-.6l-.3-.1.4-.3c0-.2-.2-.2-.2-.2.1-.4.5-.4.6-.7-.2-.2-.4 0-.6-.2.5-.3 1-.7 1.1-1.2-.2-.2-.6 0-.8-.2-.3.1-.6-.5-.7 0a2 2 0 0 1-.8 1c-.3-.5-.4-1 0-1.5-.1-.3-.4-.4-.5-.6a2 2 0 0 1 .3-2.3l.4-.5c0-.5.3-.9.6-1.2.3.1.6.3.7.6.2-.2.4-.6.8-.7.1.2.3.5.5.5.1-.2.2-.5.5-.5 0 .2.1.4.3.5.2-.4.6-.5 1-.7.3.2.1.8.5.8 1.1 0 2.2-.3 2.8-1.2.2-.3.2-.7.1-1-.2-.3-.4-.6-.8-.6-.3 0-.7.2-.8.5 0 .3-.2.6 0 .8-.3 0-.5-.2-.7-.4-.3.1-.4.5-.6.5-.1-.2 0-.3-.3-.5-.2.3-.5.5-.8.6a1 1 0 0 1 0-.5c-.4 0-.6.3-1 .4-1 .4-2.2.2-3-.6 1.2 0 2-.6 3-1 0-.1-.3 0-.5-.3l.4-.3-.8-.4c-.1-.1-.4-.3-.4-.5 1 .3 2-.6 2.8.2l.6-.2"/><path fill="#d0b907" d="m59.7 15-.2.5c.2.1.3-.2.4-.3V15l.7.1c-.3.2-.5.5-.7.9.4 0 .6-.4.9-.7 0-.2.3 0 .4 0 .8.2 1.5.6 2.2 1 .6.2 1.3.2 1.8.6l.8.4c0 .3-.5.2-.4.4.6.3 1.5.3 2 0 0 .3-.1.6-.5.8-.3 0-.3.1-.3.4v.5l-.3.3c-.2-.2-.3-.8-.8-.8-.1.4-.5.3-.7.5.4.4.5 1.1 1 1.2.5 0 1 0 1.4.3.5 0 .6-.7 1.2-.5 0 .3.1.5.4.7.2 0 .5 0 .6.3-.2.3-.4.6-.4 1-.3 0-.4-.5-.7-.3 0 .2.3.2.3.4-.4.1-.6.3-.8.6-.2 0-.3-.4-.6-.4v.6c-.3.2-.8.2-1.1.1-.2-.2.2-.5 0-.7l-.8.7c0-.2 0-.5-.2-.6l-.7.7a.5.5 0 0 1-.3-.5v-.5a2 2 0 0 0-.7.4.8.8 0 0 1-.2-.7v-.3c-.2 0-.2.3-.4.4h-.3v-.8c-.2-.7-1-1.8-.1-2.5l.2-.2-.8-.4c-.6-.7-1.4-1.9-2.5-2.2l-.1-1c0-.1.2-.3.3-.2m9.1-12.8c0 .2-.1.4.1.5.3 0 .5.2.8.3l-.3.2v.1h1c.3.5-.5 1.1.1 1.4l.4.2c0 .2-.2.4-.3.5 0 .3.3.4.4.6l.1.3-.9.5c0 .2.2.4 0 .5-.1.1-.3-.2-.4 0v.5c-.1.1-.4-.2-.5 0v.5c-.2 0-.2-.2-.3-.1l.3.4c.1 0 .2-.1.2-.3 0 0 .1-.1 0-.2.3-.2.5.2.7 0v-.5c.1 0 .4.1.4-.2V7c.3 0 .6.4 1 .6l.5.2c0 .1-.3.1-.3.3.1.2.3.2.4.2l-.4.4.3.2c-.1.1-.3 0-.4.2.1.2.4.2.6.4 0 .1-.3.1-.3.3.4.2.8.3 1 .7l-.5.4c.2.3.6.4.8.6.6.4.9 1.2 1 2H74a2 2 0 0 1-1-.6l.2 1c-.5 0-1-.3-1.4-.8v.5c-.2.1-.5 0-.8-.1v1c-.3 0-.5-.2-.7-.4l-.3-.3c-.3.1 0 .6-.2.8-.3 0-.3-.4-.4-.7-.2.1 0 .4 0 .5.1.3.3.6.6.6l.1-.7c.3.3.8.5 1.1.3v-.8c.5.2 1.1-.2 1.5.4a4 4 0 0 0 2.2 1.8c.2.1.5-.2.7-.4 0-.2.2-.5.5-.6.4 0 .4.6.7.8l-.4.4c0 .4.8 0 .7.6-.2.2-.4.4-.4.8-.2 0-.6-.4-.7 0 0 .4.4 1 0 1.1a.7.7 0 0 0-.7-.2c0-.3.5-.4.3-.8l-.4-.2c-.3 0-.4.5-.5.7-.3.1-.5-.7-.6 0h-.2l-.5-.6c-.3-.1-.2.2-.2.3l-.7-.6c0 .3-.2.5-.4.6-.5-.7-1.6-.7-2-1.6-.1 0-.4.6-.5 0l-.1-.5c-.3 0-.3.4-.6.5-.2-.3-.1-.7-.4-.9-.3.3-.6.7-1.1.7.2-1.2-1-2-1.1-3-.2 0-.2.2-.3.4l-.5.5c-.1-.2-.4-.5-.3-.8-.2-.2-.6 0-.8-.2-.1-.1-.4-.1-.5-.4.4.2.8 0 1.2-.2 0-.3-.4-.1-.5-.2-.5-.2-.9-.7-.9-1.2.4.1 1 .3 1.5 0-.1-.1-.3-.3-.3-.6.4 0 .8.2 1.3 0 .1-.2-.4-.3-.4-.5h.8l-.8-.4c.7 0 .9-1 1.7-1a3 3 0 0 0 1.1-.4h.3l.1-.6c.2.1.3 0 .3-.2h.2l-.2-.6-.2.1v.4h-.2c-.2.2 0 .5-.2.6-.3-.2-.3.3-.5.3-.6.2-1.3.4-1.8 0l-.2-.3c.7 0 1.6 0 2-.7 0-.2-.2-.4-.4-.5-.3-.4-.2-1-.7-1.1-.5 0-1 .7-1.3 0-.2-.2.2-.3 0-.5 0 0-.3.2-.3 0v-.1c-.2 0-.2.2-.2.3l.3.6h-.2c-.3-.1-.3-.5-.3-.8l.6-1-.2-.2c0-.3.3-.5.5-.8.4.1.4-.5.8-.6l.2.3c.3-.1.5-.4.8-.4l.1.3c.3-.1.6-.3 1-.3"/><path fill="#d0b907" d="M75.6 5.1h.6c.2.4-.5.8 0 1h1.1v.2c-.2 0-.5.1-.5.4v.5c-.3.2-.7-.2-.8.2 0 .4.5.3.5.6-.4.3-.2.7-.5 1-.1.3.2.4.1.8l-.6-.6c-.3.2.4.7-.1.8v.4h-.5l-.1.7-.5-.2c-.2.2-.4.4-.7.4-.2-.3-.5-.3-.6-.5.2-.1.4-.4.4-.6l-.8-.6s.2-.1.1-.3l-.4-.3c.8-.7 1.3-1.7 2-2.5.2 0 .6 0 .7-.3 0-.4-.1-1.2.3-1.4l.3.3"/><path fill="#ed1c24" d="M63.8 7c.2 0 .5.3.7.1a1 1 0 0 0-.3-.2c1.1 0 2.3-.5 3.5 0 .1 0 .1.2 0 .2-.2 0-.6 0-.8-.2h-.7c-1 .3-2.4.7-3.2-.1 0-.1-.1-.3 0-.4.4-.3.5.5.8.6m5.8 13.5c0 .2-.3.2-.4.3-.2.1-.2 0-.3-.2l.1-.2.6.1m-10.5 1.1c-.1 0-.4.4-.5 0l.1-.3c.3 0 .4.1.4.3M70 22c.1.2 0 .3 0 .4a1 1 0 0 1-.5-.4c0-.4.5-.2.6 0m-1.3 1.3-.1.2c0-.2-.3-.3-.3-.5.1 0 .3-.2.4-.1v.4m-10 .4c-.1 0-.4-.2-.4-.4.3-.4.6 0 .4.4m-3.7-.2s0 .3-.2.4l-.2-.4v-.3c.2 0 .4.2.4.3m11.9.4s-.2 0-.2-.2c0-.1.3 0 .3.2m-9.9.1c0 .2 0 .3-.2.5-.2 0 0-.4-.2-.5h.4m20-9c0 .2-.2.3-.3.4-.2 0-.2-.2-.3-.4.1-.2.4 0 .6 0m.2 2.5-.4-.2c-.1-.2 0-.3.2-.4.2 0 .2.3.2.6m-1.8 1.2v.5c-.3 0-.3-.2-.4-.3l.1-.2h.3m.6-14.3c-.1.1 0 .5-.3.5l-.3-.2c0-.2.3-.4.6-.3m1.4 2.5-.1.3c-.1-.2-.5-.1-.4-.4 0-.3.5-.2.5 0M77 8.5v.3l-.4-.1.1-.5c.2 0 .2.2.3.3"/><path fill="#231f20" d="m70.2 3.9-.1.2c-.1-.2.1-.4-.1-.5h-.5l.5-.2c.4-.1.2.3.2.5m-13 10.5-.6.6c0 .2.2 0 .4.1 0 .2-.7.4-.2.5h.2c0 .3-.2.4-.3.6l.2.1c0 .2-.5.3-.3.6 0 .2-.3.3-.5.3.1-.2.5-.6.3-.9l.3-.5-.4-.2.1-.3-.2-.1c.2-.4.5-.7 1-.8m3.1.7c0 .3-.3.5-.5.7h-.1c0-.3.3-.6.6-.7m.9.3c-.3.3-.5.6-.9.7.2-.3.5-.7 1-.8v.1m.4.2-1 .8c.2-.4.6-.9 1-1v.2m.3.1v.1l-1 .8c.2-.3.5-.7 1-.9m.4.5L61 17v-.1l1.1-1 .2.1v.2m.5.1c-.3.2-.6.5-1 .5a2 2 0 0 1 1-.6v.1m-6.4 1c-.1.2-.3.3-.5.3l.5-.3m-.4.5s0 .2-.2.2l.3-.2m11.2-14s.1-.2.2 0c0 .3-.3.4-.5.6-.3 0-.4-.2-.5-.3l.1-.5c.2.1.4.3.7.2m1 2.2c-.2 0-.2-.4-.4-.6v-.1c.4 0 .3.5.4.7"/><path fill="#231f20" d="m68 5.6.2 1c-.3-.3-.4-.8-.6-1.1v-.2c.2 0 .2.2.3.3m2 .8c-.2 0-.4-.2-.5-.3V6c.3 0 .4.2.5.4m-.2.4c-.2 0-.3-.3-.4-.5.2 0 .3.3.4.5m-.9 1.5c0 .3-.2.6-.3.8l.2-.8h.1m-.6.7-.3.3c0-.3.2-.6.4-.8.2.1 0 .3-.1.5m-.8-.4c0 .1-.1.4-.3.4 0-.2.1-.4.3-.4m.5 0c0 .3-.2.5-.4.7h-.1c0-.3.2-.6.5-.7m3.5.8H71v-.1l.3.1m.3.6c-.3 0-.5 0-.7-.3.3 0 .5.2.7.4m-.2.6H71c-.1-.3-.6-.4-.5-.7.3.1.6.5.8.7m-.9-.3c.2.2.4.3.5.7-.2-.2-.6-.4-.6-.7m.2.9a.7.7 0 0 1-.4-.6c.2 0 .3.4.4.6m-2.9.4c.1.1 0 .2 0 .4h-.1l.5-.1.2.3c.1 0 .1-.3.4-.3v.6l-.1-.2-.4.2c-.2 0-.1-.2-.3-.4-.2.1-.5.3-.8.1l.3-.3c-.3-.1-.7 0-1-.4.4.1.9.2 1.3.1m4 4.7c-.2-.1-.3-.5-.4-.7v-.3c.3.3.3.7.4 1m.4.1-.3-.4v-.5c.2.2.2.6.4.9m1.6-.3c-.2 0-.4-.3-.5-.5.3 0 .4.3.5.5m-1.6-.4.4.8c-.3-.1-.5-.5-.5-.8h.1m.8.8c-.3 0-.4-.3-.5-.6l.5.7m.5-.2c-.2 0-.5-.4-.5-.6.2 0 .4.4.5.6m1.7-9.4-.4.2V7h.4m-.1.6c-.1.2-.4.1-.6 0 0-.2.4 0 .6 0m-.2.4c-.2.2-.4 0-.6 0 0-.2.4 0 .6 0m-.3.4H74v-.2c.2 0 .4 0 .6.2m-.1.3v.1c-.3 0-.7 0-1-.2 0-.3.4 0 .6 0l.4.1m-.3.5c-.3 0-.7 0-1-.2.4 0 .7 0 1 .3m-.2.3a2 2 0 0 1-1.1-.3c.4 0 .8 0 1 .3"/><path fill="#fff" d="m66.3 6.3-.2-.3h.3v.3m-.9.1-.2-.3h.2v.3m1.5 1h-.3v-.2c.1 0 .2 0 .2.2m-.7-.2.1.3h-.2v-.3M67.2 4c0 .2-.3.1-.4.1V4l.4.1"/><path fill="#231f20" d="M112.2 2.2c.1 0 0 0 0-.2.3 0 .4.2.5.2.3 0 .4.7.7.3.2.5 1 1 .6 1.6.3.1.2.5.4.7.3.6-.1 1.2-.5 1.7.4.2.9.2 1.3.2.6 0 .5-.7 1-.6.3 0 .3.2.4.4l-.3.6c-.8.5-2 .4-2.8.1-.2 0 0 .3 0 .5-.1.4-.5.7-.8.8.2.5.8.7 1.3.7 0 .4-.2.7-.4 1 .4.2.7 0 1-.2.2.3 0 .6 0 .9.5 0 1-.1 1.3-.3 0 .3-.1.6 0 .8 2.4 0 4.5.4 6.3 2 .4.5.9-.2 1.4-.2h.8c.3-.1.7.5 1 0 .2-.6 0-1.1-.5-1.5-1.4-1.1-3.9-.5-5.5-.8-1.1-.3-2.2-1-2.4-2.3-.1-.7.2-1.4.8-1.8 1 0 1.2-1.5 2.4-1.4.5 0 .8.2 1.2.3.8-.7 1.8 0 2.7-.2.2 0 .3-.2.4-.1 0 .6-.6 1-1 1.3 0 0 .1.1.2 0 .1.3-.2.3-.3.5a3 3 0 0 0 2.7.7v.2c-.4.7-1.5 1.2-2.4 1.2.1.3.4.4.7.6l.7-.5c.3.5.8.8.8 1.5.4.4.7 1 .9 1.5 0 .8 0 1.4-.5 1.8.2.7 0 1.3-.1 2-.6-.3-1-.7-1.4-1.3l-.8.3c0 .2 0 .3.2.4.2.3.5.4.8.5 0 .3-.3.3-.4.5.2.2.5.4.6.7h-.1c0 .2.1.2.2.2.1.3-.2.2-.3.3.5.5 1 1 1.3 1.7-.2 0-.4 0-.4.2.4.4.7 1 .5 1.6l-.3-.1c0 .4 0 1-.2 1.3-.3 0-.4-.3-.6-.4l-.3.5c-.3.1-.3-.3-.6-.3.4.4.3.9.4 1.4-.1.3-.3.5-.6.6-.1-.1 0-.3 0-.4-.2-.6-.6 0-1-.3 0 .3-.1.5-.4.4-.3.1-.2.5-.3.8a1 1 0 0 1-.6-.5c0-.2 0-.5-.3-.7-.2.2-.3 0-.6 0-.2.1-.2.3-.2.5-.1 0-.3 0-.4-.2-.3-.3-.1-.7-.1-1.1 0-.3.3-.4.2-.7 0-.2-.4-.2-.6-.2 0-.2 0-.4.2-.6.2-.3.6 0 .8-.1h.6c1.1.6.5-1 1-1.4l-.5-.5c0 .8-.8 1-1.2 1.4 0-.2-.1-.4-.3-.5 0 .2-.2.4-.4.4-.2-.7-.5-1.4-.4-2.2.2-.3 0-.6 0-.9l-.1-.9c-1.3.3-1.6 1.8-2.7 2.3 1.1 1-.2 2.1 0 3.2 0 .2.2.3.1.5l-.7-.1c-.4-.1-.3.6-.6.7 0-.1-.3-.3-.5-.3 0 .3-.1.6-.4.8-.3.2-.3-.4-.7-.4-.2 0 0 .3-.2.4l-.6-.4c-.1.5-.7.2-.7.7-.3.2-.5.3-.8.2V24c.5-.4 0-.6-.2-1l-.6.2c-.2 0-.2.4-.1.6a.5.5 0 0 1-.5-.3c-.1-.2-.2-.7-.1-1-.2 0-.4 0-.5-.2-.3 0-.3.3-.5.4l-.2-.2c0-.2-.2-.5 0-.7.4-.2.3-.7.7-1 0-.1-.3 0-.4 0v-.3c.1-.2.4-.4.6-.4.2 0 .4.3.5 0h.6c.4 0 .4.5.8.5.4-.3 1-.1 1.4-.2.4-.2.4-.7.7-1-.2 0-.4-.4-.7-.3-.2.3-.1.6-.3.8-.5-.2-.8-.7-.8-1.3-.5-.1-.7-.5-.8-1l.1-.5.4.4c.4.1.8.2 1.2 0 .1-.1-.3-.3-.2-.5.7 0 1.2-.7 1.9-.8 1 .1 1.7-.6 2.4-1 .6-.4 1.4-.3 2.1-.6-2.6-.4-4.6 1.2-7 1-.2.2 0 .4 0 .5-.5.2-1-.1-1.3-.5-.3.1-.2.6-.2.8-.3 0-.5-.2-.8-.3v.5l-.7-.2c-.5.7-1.4.9-1.9 1.6l-.7-.4a1 1 0 0 0-.3.4c-.2.2-.3-.2-.5-.2l-.4.5c-.2.3-.2-.2-.4-.2s-.3.3-.6.2c-.2-.1 0-.4-.2-.6 0-.2-.2-.2-.3 0 0 .2.2.3.4.5-.1.4-.1.8-.4 1-.2.1-.4.3-.5.1V19c0-.4-.4 0-.5-.3l.1-1.2c-.2 0-.3.2-.5.1-.3-.4-.6.1-.8.2h-.1c-.4-.7.2-1.2.5-1.7.2 0 .4.1.5-.1-.5-.2-.3-.8-.9-.8.2-.8 1-.4 1.5-.7.3.2.6.5.7.8.1.2.2.3.4.3.8-.3 1.7-.9 2-1.7h-.4c-.3-.2 0-.4 0-.6h-.1c-.4.1-.7.4-1.2.2l.3-1.4c0-.3.7-.6.2-.8-.2-.3-.5 0-.6.1-.4 0-.3-.5-.4-.8l-.5.2v-.5c-.2 0-.1-.3-.2-.4h-.5V9l-.2-.1c-.2 0-.3.3-.5.3l-.2-.8c.2-.3.4-.8.8-.9a1 1 0 0 1-.7-.3c-.2 0-.3.5-.5.3-.3-.1-.1-.5-.1-.8 0-.2 0-.6.2-.7.3-.3.8-.2 1.1-.2l-.1-.6.2-.4-.2-.6.2-.1h.5c.3.4 1 .5 1 1.1.1.4-.1.8.1 1 1.3.2 1.4 1.7 2.4 2.4l-.3-.6h.3l-.1-.3c0-.1-.1-.3 0-.4.6.3 1-.3 1.4-.6-.1-.1-.4 0-.5-.2l.3-.7c.7-.3 0-.7 0-1 .3-.1.5-.2.7-.5-.1-.4-.2-.8-.1-1.2.6.1.8-.6 1.4-.6.3-.1-.2-.3 0-.5h1.2c.1-.4.6.2.9.2zm6 5.8c-.2.4-.1.8.2 1.2.5.6 1.4.7 2.3.7.1-.2.3-.5.3-.9.4.3.9.4 1.2.7.3 0 .2-1 .6-.3.2.1.2.3.4.3 0-.1.3-.2.3-.4l-1.4-.5-.1.4-.9-.5-.4.4c-.2 0-.2-.4-.5-.5-.3.2-.7.5-1 .2l.1-.3-.1-.7c-.3-.2-.9-.1-1 .2"/><path fill="#d0b907" d="M120.8 5.7c-.7-.2-1.4 0-1.8.6l-.3.4c-.5.1-1 .3-1.2.7-.5.8-.2 1.6.2 2.2 2 2.5 6.1-.1 8 2.5 0 .4.1 1-.1 1.3-.3.5-.9 0-1.2 0-.7 0-1.3.1-1.9.5l-.2-.1c-.8-1-1.9-1.4-3-1.7a10 10 0 0 0-3.6-.3l-.6.4c.2.2.6 0 .8.1-.1.7-.7 1-1.4 1 0 .4-.5.9-.6 1.2a3 3 0 0 0-.7-.8c-.3.5-.8 1-.9 1.7 1.2.3 2.2-.2 3.3-.4 1.3-.4 2.9-1 4.2-.4 1.2 1-.6 2.2.3 3.4-.4.6-.1 1.4 0 2 .2 0 .2-.2.4-.3l.4.6c.4-.1.7-.4.8-.8-.1-.3.2-.4.4-.6l.7 1c0 .2-.2.3-.3.5 0 .4.1 1-.3 1.1l-1.1-.2-.4 1c.2 0 .5-.2.5 0l-.7.4v.1c.4.1.6.4.9.7.3 0 .4-.3.6-.4.2.2-.2.4 0 .6l.8.1.3-.1c0-.2-.2-.4 0-.5.3 0 .3.4.6.3.1-.3.5-.4.7-.6 0-.4-.5-.7-.1-1l.5.4c.4 0 .2-.8.5-.6l.4.4c.3-.3.1-1 0-1.5l.5.3c.1-.4-.2-.8-.4-1.1-.2-.2-.4-.3-.4-.5h.6c-.2-.4-.5-.7-.9-1-.1-.3-.6-.3-.6-.6l.3-.1-.4-.3c0-.2.2-.2.3-.2-.1-.4-.5-.4-.7-.7.3-.2.5 0 .7-.2-.5-.3-1-.7-1.1-1.2.2-.2.6 0 .8-.2.3.1.6-.5.7 0 .1.4.5.8.8 1 .3-.5.4-1 0-1.5.1-.3.4-.4.5-.6.4-.8.2-1.8-.4-2.3l-.4-.5c.2-.5-.2-.9-.5-1.2-.3.1-.6.3-.7.6-.2-.2-.4-.6-.8-.7-.1.2-.3.5-.5.5-.2-.2-.2-.5-.5-.5 0 .2-.1.4-.3.5-.2-.4-.6-.5-1-.7-.3.2-.2.8-.5.8-1.2 0-2.2-.3-2.8-1.2-.2-.3-.2-.7-.1-1 .2-.3.4-.6.8-.6.3 0 .6.2.8.5 0 .3.1.6 0 .8.3 0 .5-.2.7-.4.3.1.4.5.6.5.1-.2 0-.3.2-.5l.9.6v-.5c.4 0 .6.3 1 .4 1 .4 2.2.2 3-.6-1.2 0-2-.6-3-1 0-.1.3 0 .4-.3l-.3-.3.8-.4c.1-.1.4-.3.4-.5-1 .3-2-.6-2.8.2l-.6-.2"/><path fill="#d0b907" d="m119.6 15 .2.5c-.2.1-.3-.2-.5-.3V15l-.6.1c.3.2.4.5.6.9-.3 0-.5-.4-.8-.7 0-.2-.3 0-.4 0-.8.2-1.5.6-2.2 1-.6.2-1.3.2-1.8.6l-.8.4c0 .3.5.2.4.4-.6.3-1.5.3-2 0h-.1c.1.3.2.6.6.8.3 0 .3.1.3.4v.5l.3.3c.2-.2.3-.8.8-.8.1.4.5.3.7.5-.5.4-.5 1.1-1 1.2-.6 0-1 0-1.4.3-.5 0-.6-.7-1.2-.5 0 .3-.2.5-.4.7-.3 0-.5 0-.6.3.2.3.4.6.4 1 .3 0 .4-.5.7-.3 0 .2-.3.2-.3.4.3.1.6.3.8.6.1 0 .3-.4.6-.4v.6c.3.2.8.2 1.1.1.1-.2-.2-.5 0-.7l.8.7c0-.2 0-.5.2-.6l.7.7c.2-.1.2-.3.3-.5v-.5l.7.4.2-.7v-.3c.2 0 .2.3.4.4h.3v-.8c.2-.7 1-1.8.1-2.5l-.2-.2.8-.4c.6-.7 1.4-1.9 2.4-2.2.2-.3.2-.7.2-1-.1-.1-.2-.3-.3-.2m-9.1-12.8c0 .2.1.4-.1.5-.3 0-.6.2-.8.3l.3.2v.1h-1c-.3.5.5 1.1-.1 1.4l-.4.2c0 .2.2.4.3.5 0 .3-.4.4-.5.6v.3l.8.5v.5c.2.1.4-.2.5 0l-.1.5c.2.1.4-.2.6 0v.5c.2 0 .1-.2.3-.1l-.3.4c-.2 0-.3-.1-.3-.3v-.2c-.2-.2-.4.2-.6 0v-.5c-.1 0-.4.1-.4-.2V7c-.4 0-.6.4-1 .6l-.5.2c0 .1.3.1.3.3-.1.2-.3.2-.4.2 0 .2.3.2.4.4l-.3.2c.1.1.3 0 .4.2l-.6.4c0 .1.3.1.3.3-.4.2-.9.3-1 .7l.5.4c-.2.3-.6.4-.8.6-.6.4-1 1.2-1 2h.3c.3-.1.7-.3 1-.6l-.1 1c.5 0 1-.3 1.4-.8v.5c.2.1.5 0 .7-.1.2.2.1.6.2 1 .2 0 .4-.2.6-.4l.2-.3c.4.1.1.6.3.8.2 0 .3-.4.4-.7.2.1 0 .4 0 .5-.1.3-.3.6-.6.6l-.1-.7c-.3.3-.8.5-1.2.3l.1-.8c-.5.2-1.1-.2-1.5.4-.6.8-1.3 1.5-2.2 1.8-.3.1-.6-.2-.7-.4 0-.2-.2-.5-.5-.6-.4 0-.4.6-.7.8l.4.4c-.1.4-.8 0-.7.6.2.2.4.4.3.8.2 0 .6-.4.8 0 0 .4-.4 1 0 1.1.1-.2.4-.3.7-.2 0-.3-.5-.4-.3-.8l.4-.2c.3 0 .4.5.4.7.4.1.6-.7.7 0h.2l.5-.6c.2-.1.1.2.2.3.2-.2.4-.5.7-.6 0 .3.2.5.4.6.5-.7 1.6-.7 2-1.6.1 0 .4.6.5 0v-.5c.4 0 .4.4.7.5.2-.3.1-.7.4-.9.3.3.6.7 1 .7 0-1.2 1-2 1.2-3 .2 0 .2.2.3.4l.5.5c.1-.2.3-.5.3-.8.2-.2.6 0 .7-.2.2-.1.5-.1.6-.4-.4.2-.8 0-1.2-.2 0-.3.4-.1.5-.2.5-.2.9-.7.9-1.2-.5.1-1 .3-1.5 0 .1-.1.3-.3.3-.6-.5 0-.9.2-1.3 0-.1-.2.3-.3.4-.5h-.8l.8-.4c-.8 0-.9-1-1.7-1a3 3 0 0 1-1.1-.4h-.3l-.1-.6c-.2.1-.3 0-.3-.2h-.2c0-.3 0-.4.2-.6l.2.1v.4h.2c.2.2 0 .5.2.6.2-.2.3.3.5.3.5.2 1.3.4 1.8 0l.2-.3c-.7 0-1.6 0-2-.7 0-.2.2-.4.4-.5.2-.4.2-1 .7-1.1.5 0 1 .7 1.3 0 .2-.2-.2-.3 0-.5 0 0 .3.2.3 0v-.1c.2 0 .2.2.2.3l-.3.6h.2c.3-.1.3-.5.3-.8l-.6-1 .2-.2c0-.3-.3-.5-.5-.8-.4.1-.4-.5-.8-.6-.2 0-.1.2-.2.3-.3-.1-.5-.4-.8-.4l-.1.3c-.3-.1-.6-.3-1-.3"/><path fill="#d0b907" d="M103.7 5.1h-.7c-.1.4.5.8.1 1H102v.2c.2 0 .5.1.5.4v.5c.3.2.7-.2.8.2 0 .4-.5.3-.5.6.4.3.1.7.5 1 0 .3-.2.4-.1.8l.5-.6c.4.2-.3.7.2.8v.4h.5l.1.7.5-.2c.2.2.4.4.7.4.2-.3.5-.3.6-.5-.2-.1-.5-.4-.4-.6l.8-.6s-.2-.1-.2-.3c.2-.1.4-.1.5-.3-.8-.7-1.4-1.7-2-2.5-.2 0-.6 0-.8-.3.1-.4.2-1.2-.2-1.4l-.3.3"/><path fill="#ed1c24" d="M115.5 7c-.2 0-.5.3-.7.1l.3-.2c-1.1 0-2.3-.5-3.5 0-.1 0-.1.2 0 .2.2 0 .6 0 .8-.2h.7c1 .3 2.3.7 3.2-.1 0-.1.1-.3 0-.4-.4-.3-.5.5-.8.6m-5.8 13.5c0 .2.3.2.4.3.1.1.2 0 .3-.2l-.1-.2-.6.1m10.4 1.1c.2 0 .5.4.6 0 0 0 0-.2-.2-.3-.2 0-.3.1-.4.3m-10.9.4v.4c.3 0 .4-.2.5-.4 0-.4-.4-.2-.5 0m1.3 1.3v.2l.4-.5c-.2 0-.3-.2-.4-.1v.4m10 .4c.1 0 .4-.2.4-.4-.3-.4-.6 0-.4.4m3.7-.2s0 .3.2.4l.2-.4v-.3c-.2 0-.4.2-.4.3m-12 .4c.1 0 .3 0 .3-.2 0-.1-.3 0-.3.2m9.9.1c0 .2 0 .3.2.5.2 0 0-.4.1-.5h-.3m-20-9c0 .2.2.3.3.4.2 0 .2-.2.3-.4-.1-.2-.4 0-.6 0m-.2 2.5.4-.2-.2-.4c-.3 0-.2.3-.2.6m1.8 1.2v.5c.2 0 .3-.2.4-.3-.1-.1 0-.2-.2-.2h-.2M103 4.4c.2.1.1.5.4.5l.3-.2c0-.2-.4-.4-.6-.3m-1.4 2.5.1.3c.1-.2.5-.1.4-.4 0-.3-.5-.2-.5 0m.6 1.7v.3l.4-.1-.1-.5c-.3 0-.2.2-.3.3"/><path fill="#231f20" d="m109 3.9.2.2c.1-.2-.2-.4.1-.5h.5l-.5-.2c-.4-.1-.2.3-.2.5M122 14.4c.3.1.6.4.7.6-.1.2-.2 0-.4.1 0 .2.7.4.2.5h-.2c0 .3.2.4.3.6l-.2.1c0 .2.5.3.3.6 0 .2.3.3.5.3-.1-.2-.5-.6-.3-.9l-.3-.5.4-.2-.2-.3.3-.1c-.2-.4-.6-.7-1-.8m-3.1.7c0 .3.3.5.5.7 0-.3-.2-.6-.5-.7m-1 .3c.4.3.6.6 1 .7-.2-.3-.5-.7-1-.8v.1m-.4.2 1 .8c-.2-.4-.6-.9-1-1v.2m-.3.1v.1l1 .8c-.3-.3-.5-.7-1-.9m-.4.5 1.3.8v-.1l-1.2-1-.2.1.1.2m-.4.1c.3.2.5.5 1 .5a2 2 0 0 0-1-.6v.1m6.5 1c0 .2.2.3.4.3l-.5-.3m.3.5.3.2-.3-.2M112 3.8s-.1-.2-.2 0c0 .3.3.4.5.6.2 0 .4-.2.5-.3 0-.2 0-.3-.2-.5-.1.1-.3.3-.6.2M111 6c.2 0 .2-.4.3-.6v-.1c-.3 0-.3.5-.4.7m.5-.4c0 .4-.3.6-.3 1 .3-.3.4-.8.6-1.1v-.2c-.2 0-.3.2-.3.3m-2 .8c.2 0 .3-.2.5-.3V6c-.3 0-.4.2-.5.4m.2.4c.2 0 .3-.3.4-.5-.3 0-.3.3-.4.5m.9 1.5c0 .3.1.6.3.8l-.2-.8h-.1m.5.7c.1.1.2.3.4.3a3 3 0 0 0-.4-.8c-.2.1 0 .3 0 .5m.8-.4c.1.1.2.4.4.4 0-.2-.1-.4-.4-.4m-.4 0c0 .3.2.5.4.7 0-.3-.1-.6-.4-.7m-3.4.8h.1v-.1l-.2.1m-.2.6c.2 0 .5 0 .7-.3-.3 0-.6.2-.7.4m.3.6h.1c.2-.3.7-.4.6-.7-.3.1-.6.5-.8.7m1-.3c-.2.2-.4.3-.5.7.2-.2.6-.4.6-.7h-.1m-.1.9c.2-.1.4-.3.4-.6-.3 0-.3.4-.4.6m2.9.4c-.1.1 0 .2 0 .4h.1l-.5-.1-.2.3c-.1 0-.2-.3-.4-.3v.6l.1-.2.4.2c.2 0 .1-.2.2-.4.3.1.6.3 1 .1l-.4-.3c.2-.1.7 0 1-.4-.5.1-1 .2-1.3.1m-4 4.7c.2-.1.3-.5.4-.7v-.3c-.3.3-.3.7-.4 1m-.5.1c.2 0 .3-.4.4-.4v-.5c-.2.2-.2.6-.4.9m-1.6-.3c.2 0 .4-.3.4-.5-.2 0-.3.3-.4.5m1.6-.4-.4.8c.2-.1.5-.5.5-.8h-.1m-.8.8c.2 0 .4-.3.5-.6l-.5.7m-.5-.2c.2 0 .5-.4.5-.6-.3 0-.4.4-.5.6m-1.7-9.4.4.2V7h-.4m.1.6c.1.2.4.1.6 0 0-.2-.4 0-.6 0m.2.4c.2.2.4 0 .6 0 0-.2-.4 0-.6 0m.2.4h.7v-.2c-.3 0-.5 0-.7.2m.1.3v.1c.3 0 .6 0 .9-.2 0-.3-.3 0-.5 0l-.4.1m.3.5c.3 0 .7 0 1-.2-.4 0-.7 0-1 .3m.3.3a2 2 0 0 0 1-.3c-.4 0-.8 0-1 .3"/><path fill="#fff" d="m113 6.3.2-.3h-.3v.3m.9.1.2-.3h-.2c-.1 0-.2.1 0 .3m-1.5 1h.2c.1 0 0-.2 0-.2l-.2.2m.8-.2s-.2.1-.1.3h.2v-.3M112.1 4c0 .2.3.1.4.1V4l-.4.1"/><path fill="#ed1c24" d="M91 4.6s0-.1-.2 0c0 0 0-.3.4-.2l-.1.2m-.9.4h.3l.2-.1s-.4 0-.5.2m.1.9s-.1-.4.3-.5v.3l-.3.1m.7.4h-.2s0 .2.3.2v-.2m2.5 4.7s0-.2.2-.2v-.2s-.3 0-.2.4m.2.7.1-.1v-.3s-.3.1 0 .4m.7.1h.1c.1-.1 0 0 0 0m2.6-.8s0-.1.2 0v-.2s-.3 0-.2.2m.3.8v-.3c-.1 0-.3.3 0 .3m.6.2v-.2h-.1l.1.2m-4.4-6.1c0 .2 0 1-.3 1l-.2-.1.1-1c.2 0 .2.1.4 0m-3.5 4.7s-.1-.2.2-.3v.2h-.2m0 1v-.5l.2.3s-.2 0-.2.2m.9.3-.1-.2h.1v.2m.6-.4h.2v-.1l-.2.1m6.7.7v-.2.1"/><path fill="#231f20" d="M92 16.9h.1m-.4-1.6s0 .1.1 0m-.2-.4h.1-.1m1.5 4.6h.1m-.9-1.3h.1m2.5 4.5v-1.3 1.3m0 .2v1.6c-.1-.8 0-1.6 0-1.6M93 20s-.4.8-1.5 1.3c0 0 1-.2 1.5-1.3m-.8-1-1 .7s.7-.2 1-.7m-.4-1.1-1 .3s.6 0 1-.3m-.4-1.4-.8.2s.5 0 .8-.2m-.1-1.4-.7.3s.5 0 .7-.3m6.5 1.8h-.1.1m.3-1.6s0 .1 0 0m-.9 3.5H97m.5-.6h-.1.1m-.6 1.8s.3.8 1.4 1.3c0 0-1-.2-1.4-1.3m.7-1 1 .7s-.7-.2-1-.7m.4-1.1 1 .3s-.6 0-1-.3m.4-1.4.8.2-.8-.2m.1-1.4.8.3s-.6 0-.8-.3m-3.6 10.5v.6-.6m.1-9.8-.2-.1h.2v.1m-.3.4v-.1.1m-.4 2v.1H94s.1-.1.2 0m.8-.1h.1m-.5 2V20m-.9-2v.2h-.2c0-.1 0-.2.2-.2m2.3.7.1-.1M95 15.5l-.1.1h-.1c0-.2.1 0 .1-.1m.3.1v.1H95h.1m0 .4-.1.2h-.1c0-.2.1-.1.2-.2m-.8 1v.2H94c0-.1 0-.2.2-.2m1.2-.1h-.1v-.1m-.3.5c-.1-.1 0 0 0-.1 0 0 0 .1 0 0m1 .2v-.1s0 .1 0 0m-2.4.3c.1 0 0 0 0 0m2.4-.6c.1 0 0 0 0 0m-1.5.6s-.1 0 0-.1v-.2.3m.3 0h-.1v-.1h.1m.9.1s0 .1-.1 0h.1m-1.5 1s0 .1 0 0m.4-.3-.1.2-.1-.1s0-.2.2 0m1.4-.3-.2.1s.2-.3.2 0m-1.2.3v.2h-.2l.2-.2m.2-.2-.2.1.1-.1m.3.4-.2.2.1-.2h.1m-.2.7h.1-.1m.4-.1h.1m-.5.3-.1.1h-.2l.2-.1m-.5.3h-.2v-.1c.1 0 .4 0 .2.2m1.2-.1-.1.3h-.1c.1 0 0-.2.2-.2m-.6.4-.1.2h-.1s-.1-.1 0-.2h.1m-.7-.1-.2.1s.1-.2.2-.1m1.8.2-.1.2v-.3l.2.1m-2.4.2h-.1v-.1.1m1.8-5.8-.1-.2h.1v.1m.3 0v.2c-.1 0-.2 0-.2-.2h.2m-.3.1h-.2.2m-.3.2c.1 0 0 0 0 0m.4-.7c.1 0 0 0 0 0m-.1-.8h-.5c-.1 0-.2-.1-.1-.3h.3l.3.3"/><path fill="#ed1c24" d="M91.2 22.8H91s-.2-.1.2-.3v.3m-.2.9v.3h.1l.1-.1-.2-.2m1.1.7s-.2 0-.3-.2c0 0-.2.4.4.4 0 0-.1 0 0-.2m1.4-.8.2.2s.2-.2 0-.4c0 0 0 .2-.2.2m.1-9.6s-.3-.6.6-.6l.1.5s-.5-.2-.7.2m.8 0c0 .2-.3.1-.3.1-.5 0-.7.2-.7.2h1v-.3m4.1 8.7h.2s.2-.1-.2-.3v.3m.2.9s.2 0 .1.3h-.2v-.2m-1 .6s.2 0 .3-.2c0 0 .2.4-.4.4 0 0 .1 0 0-.2m-1.4-.8-.1.2s-.3-.2 0-.4v.2M94 14.8s0-.3.4-.3l.1.2H94"/><path fill="#fff" d="M94.9 13.5v.1h.1l-.1-.1M94 6l.1.5-.3-.3.2-.3m-.9 0v.6l.2-.3s0-.3-.2-.3"/></svg>