<svg xmlns="http://www.w3.org/2000/svg" viewBox="0 0 370.7 290.2"><path fill="#a7a056" d="M192 150.2c-2.7 0-10.4 4.4-10.3 10.5 0 8.3 9.5 10.6 9.5 18.5l.2 24.7.1 2.8c-.6 5.3-3 9.5-6 10.7 2.3.7 6.6-.7 8.6-3.2 1.4 1.6 3 2.3 4.9 2.3a11.9 11.9 0 0 0 10.8-8.6v6.7l11.7-.9a15.5 15.5 0 0 1-3.1-9l-.2-36.6c0-2.9.9-6.2 3-9.5l-14.9 1.1c2.2 2.9 3.2 6 3.2 8.8l.2 32.4c-2 4.4-4.8 6.2-6.7 6.2-1.7 0-3-1.2-3-4.5l-.2-25.4c0-10.1-10-13-10-20.5 0-2.8 1-5 2.3-6.5zm129.3 6.6c1.7 2.5 2.6 5.4 2.6 7.8l.2 39.7c0 2.4-.7 5-2.5 7.7l12.4.2a13.6 13.6 0 0 1-2.7-7.6L331 157l-9.7-.2zm-278.4 0c-12.8.2-21.7 9.3-25.6 12.9 2 .8 4.4 2.5 4.4 6.2S15 195.2 15 201.4c0 4.8 2.9 7 6.5 6.8a6.2 6.2 0 0 0 5.8-6.2c0-3.4-3.4-5.1-6-4.2 0-13.1 10.1-24.4 20-24.5 9.6 0 15.3 8.6 15.3 20.9v.1c-3.8 1.3-7.9 3-12 5.2v-7.1c0-2.2.8-7.2 2.4-9.2l-17.1 6.6c3.1 1.5 4.6 4.2 4.6 6.4v9.5c-12.3 8.6-22.4 20-22.3 30.7 0 9 4.7 13 11.4 13 3.7 0 7.5-1 11.2-2.7l.1 20.6c0 4.6-3.7 8.4-7.5 9a7 7 0 0 0 2.3-5.5c0-3.4-2.2-6.4-5.3-6.4-3.1 0-6 2.8-6 7.3 0 6.7 5.9 10.4 12 7.5l19.3-8.7c-3.1-1.3-4.6-4.3-4.7-7.7v-22.6a67 67 0 0 0 22.5-43.8l1.9-.2a6 6 0 0 0-.6 2.7c0 3.7 2.3 5.1 4.4 5 2.5-.2 4.6-2.6 4.6-6.2 0-3.5-1.9-5.9-10.1-5.6-.2-22.3-11.9-35.3-24.7-35.2zm292.8.3a14 14 0 0 1 2.6 7.9l.3 39.7c0 2.4-.8 5-2.6 7.6l12.4.4a13.6 13.6 0 0 1-2.6-7.6l-.3-47.6-9.8-.4zm-25.3 18c-6.9 0-12.5 8.2-12.4 19.5 0 12.6 5 18 12 17.9 5.6 0 9.2-3.5 9.3-8 0-3-1.7-5.3-4-5.6 1 1.8.6 8.2-4.2 8.2-3.6 0-5.5-4.2-5.6-11.2a10.5 10.5 0 0 0 14.1-10c.2-4.5-2.4-10.8-9.2-10.8zm-14 .7-12.2.1a13 13 0 0 1 2.6 7.5l.1 17.7c-2.9 5.2-6.6 4.4-6.7-.8v-16.6c0-2.4-.6-5-1.7-7.7H270c2.2 2.5 3 5 3.1 7.5l.1 18c.1 14 10.2 12.7 13.9 5.8v4.2h9.7a13.7 13.7 0 0 1-2.6-7.6l-.1-20.4c0-2.4.7-5 2.5-7.7zm-43.4.1c-4.5 0-10.2 7.8-10.5 19.2-.3 10.4 3.2 17.7 9.8 17.6 3.5 0 6.2-2.9 7.2-5.1v-.1l.3 35.7 9.6-6.7c-1.7-1.2-2.5-3.5-2.6-6l-.3-46.8c0-2.4.8-5 2.6-7.7l-9.8.2v4c-1-2.2-2.8-4.3-6.3-4.3zm-13.2.4a9.4 9.4 0 0 0-7.1 5.1v-4.2l-9.7.5a13 13 0 0 1 2.6 7.6l.1 20.5c0 2.4-.7 5-2.5 7.7l12.2-.6c-1.7-2.4-2.5-5-2.6-7.3v-18c2.8-4.8 6.5-3.7 8 .1l3.3-9.4a5.1 5.1 0 0 0-4.3-2zm70.8 4.3c1.8 0 2.7 1.7 2.6 4.1 0 2.8-.7 6.7-7.6 7.3.5-6.4 2-11.4 5-11.4zm-128.7.5c-3 0-6.2 2.6-8 6.2V183l-9.8 1.7a12 12 0 0 1 2.6 7.3l.1 20.7c0 2.4-.8 5.2-2.5 8l12.3-1.9a11.5 11.5 0 0 1-2.6-7v-18.1c2.8-5.5 6.6-4.8 8.2-1l3.3-10a4.6 4.6 0 0 0-3.6-1.5zm-92 .4-9.7 3c1.8 2 2.6 4.6 2.6 7l.3 42.3c0 2.4-.8 5.3-2.6 8.6l12.4-4.2a9.6 9.6 0 0 1-2.6-6.6l-.4-50.1zm165 1.4c2 0 3.4 1.2 4.5 3.5l.1 11.8v.4c0 3-1.9 7-5 7.1-2.7 0-4.7-4.4-4.5-11.4.2-7.3 2.4-11.4 5-11.4zm-101.1 2.4c-.4 0-.8 0-1.2.2-7 1.2-12 8.8-12 21.4.1 11.6 6.3 17.5 13.1 16.2 5.5-1 8.8-4.6 8.8-9.2 0-3-1.9-5.1-4.3-5.1 1.1 1.7 1 8-4 8.8-3.5.6-5.6-3.6-6-10.6 7 1.6 14-4 14-11.8 0-4.3-2.5-10.2-8.4-9.9zm-22.6 4.5c-3 .2-6.5 3.2-8.3 7.2v-4.3l-9.8 2.6a11 11 0 0 1 2.6 7l.1 21.5c0 2.4-.7 5.3-2.5 8.4l12.4-3.3c-1.8-2-2.7-4.5-2.7-6.9v-18.7c2.9-6 6.7-5.9 6.7-.6l.1 17.4c0 2.4.5 5 1.6 7.3l9.6-2.3c-2.7-1.9-4-4.2-4-6.6l-.1-19.2c0-7-2.7-9.7-5.7-9.5zm22 1.1h.4c1.3.2 2 1.8 2 4 0 2.7-.5 6.7-7.3 8.2.2-6.5 1.7-11.5 4.6-12.1h.4zm-47.4 5.9h-1c-.9 0-1.7.2-2.5.4a10.7 10.7 0 0 0-8.4 10.8c0 7.7 10.5 12.6 10.6 18.3 0 2.8-1.3 4.4-3.4 4.4-4.5 0-4-6.9-2.3-8.1-2.8-.3-5.4 2.7-5.4 5.8 0 4.6 4.1 8.9 9.3 7.5 5-1.4 8.7-5.1 8.7-11 0-9.2-10.3-13.3-10.3-19.2 0-2.4 1.8-3 3-3 1.6 0 3.5 1.6 5 3.7l2.1-8.5c-1-.6-3.2-1-5.4-1.1zm-49.4 2.7a56.2 56.2 0 0 1-11.6 32.2l-.2-26.3c4-2.4 8-4.4 11.8-6zm20.1 6.6-9.7 3.3c1.7 1.9 2.6 4.5 2.6 6.9l.1 22.3c0 2.4-.8 5.3-2.5 8.6l12.3-4.5a9.4 9.4 0 0 1-2.6-6.6l-.2-30zm-42 6.7.2 27.2a13 13 0 0 1-5.2 1.3c-4 0-6.7-2.5-6.8-7.8 0-7.4 5-14.6 11.8-20.7zm259.3 7.8a1366.8 1366.8 0 0 0-24.1.2v9.3c30.6 1 58.5 5.7 63.7 7.9l22.4-15.8c-11.5-.5-33.6-1.5-62-1.6zm-37 .5a644.8 644.8 0 0 0-106.3 11.3 532.6 532.6 0 0 0-85 25c-3.7 1.5-6.5 1.9-7.7-1.7-1.1-3 1.3-5.9 5-7-4.3-3.2-13.2 1.9-10.8 9.5 2 6.3 7.7 8 14.6 5.2 58.4-23.7 111.5-33 189.8-33.5h.4V221z"/><path fill="#005832" d="M190 148.1c-2.8 0-10.4 4.4-10.4 10.5 0 8.3 9.5 10.6 9.6 18.6l.1 24.6c0 1 0 2 .2 2.8-.7 5.3-3.2 9.6-6 10.7 2.2.7 6.6-.7 8.6-3.2a6 6 0 0 0 4.8 2.3c4.3 0 9-3 10.7-8.2l.1-.3v6.6l11.8-.8a15.5 15.5 0 0 1-3.2-9.1l-.2-36.6c0-2.9 1-6.2 3-9.5l-14.8 1.2c2.2 2.8 3.2 5.9 3.2 8.8l.2 32.4c-2 4.3-4.9 6.1-6.8 6.2-1.7 0-3-1.3-3-4.6v-25.3c-.1-10.1-10-13.1-10.1-20.6 0-2.7 1-5 2.3-6.5zm129.2 6.6a14 14 0 0 1 2.6 7.9l.3 39.7c0 2.4-.8 5-2.6 7.6l12.4.3a13.5 13.5 0 0 1-2.6-7.6l-.3-47.7-9.8-.2zm-278.4.1c-12.8.1-21.7 9.3-25.6 12.8 2 .8 4.4 2.6 4.5 6.3 0 3.7-6.9 19.3-6.9 25.5 0 4.7 3 7 6.5 6.7 3.2-.3 5.9-2.7 5.9-6.2 0-3.3-3.5-5-6-4.1 0-13.2 10-24.5 20-24.6 9.6 0 15.2 8.6 15.3 21a83 83 0 0 0-12 5.3v-7.1c0-2.2.8-7.2 2.3-9.2l-17.1 6.5c3.2 1.6 4.7 4.3 4.7 6.4v9.5c-12.3 8.6-22.5 20-22.4 30.8 0 9 4.7 13 11.4 13 3.8 0 7.6-1 11.3-2.7l.1 20.6c0 4.6-3.7 8.3-7.5 9 1.3-1 2.3-3 2.2-5.6 0-3.4-2.1-6.4-5.2-6.4s-6.1 2.8-6 7.4c0 6.6 5.8 10.3 12 7.5l19.3-8.8c-3.2-1.3-4.7-4.3-4.7-7.7l-.1-22.5a67 67 0 0 0 22.5-43.9l2-.2a7 7 0 0 0-.6 2.7c0 3.7 2.2 5.2 4.3 5 2.6-.2 4.6-2.6 4.6-6.1 0-3.5-1.8-6-10.1-5.6-.2-22.4-11.9-35.4-24.7-35.3zm292.8.3c1.8 2.5 2.6 5.4 2.7 7.8l.2 39.7c0 2.4-.8 5-2.5 7.6l12.3.5a13.6 13.6 0 0 1-2.6-7.6l-.3-47.7-9.8-.3zm-25.2 18c-7 0-12.5 8.1-12.5 19.4.1 12.6 5 18 12 18 5.7-.1 9.2-3.6 9.4-8 0-3.1-1.7-5.4-4.1-5.7 1 1.9.6 8.2-4.2 8.3-3.5 0-5.5-4.3-5.6-11.2 6.8 2.4 14-2.3 14.2-10 0-4.6-2.5-10.9-9.2-10.8zm-14 .7h-12.2c1.8 2.5 2.6 5 2.6 7.5l.1 17.7c-3 5.2-6.7 4.4-6.7-.7l-.1-16.7c0-2.4-.6-5-1.6-7.7h-8.7c2.3 2.5 3.1 5.1 3.1 7.5l.2 18c0 14 10.2 12.7 13.8 5.8v4.2l9.8.1a13.8 13.8 0 0 1-2.7-7.7v-20.4c-.1-2.4.7-5 2.4-7.6zm-43.5 0c-4.5 0-10.2 7.8-10.5 19.2-.3 10.5 3.3 17.7 10 17.7 3.4 0 6-3 7-5.1l.1-.2.2 35.8 9.7-6.8c-1.8-1.2-2.6-3.5-2.6-5.9l-.3-46.9c0-2.4.8-5 2.5-7.6l-9.7.2v4c-1-2.3-2.9-4.4-6.4-4.4zm-13.1.5c-2.7.1-5.5 2-7.1 5v-4.1l-9.8.5c1.8 2.3 2.6 5.1 2.7 7.5v20.5c.1 2.4-.7 5-2.4 7.8l12.2-.7a12 12 0 0 1-2.6-7.3l-.1-18c2.9-4.8 6.5-3.6 8 .2l3.4-9.4a5 5 0 0 0-4.3-2zm70.8 4.3c1.7 0 2.6 1.7 2.5 4 0 2.8-.7 6.7-7.5 7.4.4-6.4 2-11.4 5-11.4zm-128.7.4c-3 0-6.3 2.7-8 6.3l-.1-4.4-9.8 1.6c1.8 2.2 2.6 5 2.7 7.3v20.7c.1 2.4-.7 5.2-2.4 8.1l12.3-2a11.4 11.4 0 0 1-2.6-7l-.2-18c3-5.5 6.7-4.9 8.4-1.1l3.3-9.9a4.6 4.6 0 0 0-3.6-1.6zm-92 .4-9.8 3c1.8 2 2.6 4.6 2.7 7l.2 42.3c0 2.5-.8 5.4-2.5 8.6l12.3-4.2a9.7 9.7 0 0 1-2.6-6.6l-.3-50zm165 1.4c2 0 3.3 1.3 4.4 3.5v.1l.1 11.7v.4c0 3-1.8 7.2-4.8 7.2-2.9 0-4.8-4.5-4.6-11.4.2-7.4 2.4-11.5 5-11.5zm-101.2 2.4-1.2.2c-7 1.3-12 8.8-12 21.4.2 11.7 6.4 17.5 13.2 16.3 5.5-1 8.8-4.7 8.7-9.2 0-3.1-1.8-5.2-4.2-5.2 1.1 1.7 1 8-4 8.8-3.5.6-5.6-3.5-6-10.5 7 1.6 14-4 14-11.8 0-4.4-2.6-10.2-8.5-10zm-22.5 4.6c-3 .2-6.5 3.2-8.4 7.1v-4.2l-9.8 2.5c1.8 2 2.6 4.7 2.7 7.1v21.4a17 17 0 0 1-2.4 8.4l12.3-3.3a10 10 0 0 1-2.6-6.8l-.1-18.8c3-6 6.7-5.8 6.8-.6V218c0 2.4.6 5 1.6 7.4l9.7-2.4c-2.8-1.8-4-4.1-4-6.5l-.2-19.2c0-7.1-2.6-9.7-5.6-9.5zm22.3 1c1.4.2 2 1.8 2 4 .1 2.7-.4 6.7-7.3 8.2.3-6.4 1.7-11.5 4.7-12.1h.6zm-47.7 6h-1c-.9 0-1.8.1-2.6.4a10.7 10.7 0 0 0-8.3 10.7c0 7.7 10.5 12.6 10.5 18.3 0 2.9-1.3 4.4-3.4 4.4-4.4 0-4-6.8-2.2-8-2.9-.3-5.5 2.7-5.5 5.8 0 4.6 4.1 8.8 9.4 7.4 5-1.3 8.7-5.1 8.6-11 0-9.2-10.2-13.2-10.3-19.2 0-2.4 1.9-3 3-3 1.7 0 3.5 1.6 5 3.8l2.2-8.5a12 12 0 0 0-5.4-1.2zm-49.5 2.6a56.2 56.2 0 0 1-11.6 32.2l-.1-26.2c3.9-2.4 8-4.5 11.7-6zm20.2 6.7-9.8 3.2c1.8 2 2.6 4.5 2.6 7l.2 22.2c0 2.4-.8 5.4-2.6 8.7l12.4-4.5a9.4 9.4 0 0 1-2.7-6.6l-.1-30zm281.7 1.7a4 4 0 0 0-3.2 1.4 4.6 4.6 0 0 0 0 6.4c1 1 2 1.4 3.2 1.4 1.3 0 2.3-.5 3.2-1.4.9-.9 1.3-2 1.3-3.3 0-1.2-.4-2.3-1.3-3.2-1-.9-2-1.3-3.2-1.3zm0 .6c1 0 2 .4 2.7 1.2.8.7 1.2 1.6 1.2 2.7s-.4 2-1.1 2.9c-.8.7-1.7 1.1-2.8 1.1-1 0-2-.3-2.8-1a4 4 0 0 1-1-2.9c0-1 .3-2 1-2.8.8-.8 1.7-1.2 2.8-1.2zm-1.9 1.4v5h1V211h.6l1 .1c.3.2.5.6.5 1.2v.6h.9l-.1-.3v-.7c0-.3-.1-.5-.3-.8a2 2 0 0 0-.9-.5l.8-.2c.3-.2.4-.6.4-1 0-.6-.2-1-.7-1.3l-1.4-.2h-1.8zm.9.7h.8c.5 0 .8 0 1 .2.3 0 .4.3.4.7 0 .4-.2.6-.5.8h-1.7v-1.7zm-322.7 2.2.1 27.2a13 13 0 0 1-5.2 1.4c-4 0-6.7-2.6-6.7-7.9 0-7.4 4.9-14.6 11.8-20.7zm259.3 7.9a1339 1339 0 0 0-24.1.1v9.3c30.5 1 58.5 5.7 63.6 8l22.5-15.8a1297 1297 0 0 0-62-1.6zm-37 .4a622 622 0 0 0-106.4 11.3 532.3 532.3 0 0 0-84.9 25c-3.7 1.5-6.6 2-7.8-1.6-1-3 1.4-6 5-7-4.3-3.3-13.2 1.8-10.7 9.5 2 6.2 7.7 8 14.6 5.1 58.4-23.6 111.5-33 189.8-33.5h.4V219z"/><path fill="#fff" d="M152.1 23.5c-7-10.7-13.2-6.7-21.8-6.7-13 0-11.3-6.8-21-6.8-10.6 0-23.9 9-28.8 9-13 0-11 15.1-20.1 19.3a26 26 0 0 0-14.1 32.5c0 5.3-3.7 10.3-3.7 23.8 0 16 20 24 20 31.9 0 7.9 14.3 20.1 28 18.6 11.3-1.3 7.8 10.5 25.6 3.6 7-2.1 13 7.2 32.3-1.9 15.3-7.2 8-21.4 23.1-24.6 4.9-1 13-9.5 7-27.6-2.8-8.3 5.1-9.2 5.1-26.4 0-11.8-14.6-16-14.6-25.3 0-12.2-12.1-12-17-19.4"/><path fill="#a6111c" d="M152.1 23.5c-7-10.7-13.2-6.7-21.8-6.7-13 0-11.3-6.8-21-6.8-10.6 0-23.9 9-28.8 9-13 0-11 15.1-20.1 19.3a26 26 0 0 0-14.1 32.5c0 5.3-3.7 10.3-3.7 23.8 0 16 20 24 20 31.9 0 7.9 14.3 20.1 28 18.6 11.3-1.3 7.8 10.5 25.6 3.6 7-2.1 13 7.2 32.3-1.9 15.3-7.2 8-21.4 23.1-24.6 4.9-1 13-9.5 7-27.6-2.8-8.3 5.1-9.2 5.1-26.4 0-11.8-14.6-16-14.6-25.3 0-12.2-12.1-12-17-19.4"/><path d="M162 33c1.6 2 3.7 6 3.7 9.6 0 10.5 14.6 12.2 14.5 24.3-.2 17-7.8 17.3-5 25.5 5.9 17.8-3.8 26.6-7.6 27.4-15 3.2-7.3 16.3-22.4 23.4-19 9-24.3-.3-31.3 1.8a47.4 47.4 0 0 1-12.9 1.8s3.1.5 3.8 1c2.3 1.4 7 .6 10.9-1 7-2 12.1 7.4 31.2-1.5 15.1-7.1 7.7-21.3 22.7-24.5 4.8-.9 12.8-9 6.9-26.8-2.7-8.2 5.3-8.8 5.3-25.8 0-11.6-14.7-15-14.6-24 .1-6.2-2.7-9-5.2-11.1zM71.8 137.9c10.4 7.3 19.9 5.8 19.9 5.8-6.6-.8-19.9-5.8-19.9-5.8z"/><path fill="#fff" d="M117.4 15.9s-6.6-5.6-15.8-1.9c-9.3 3.7-13 5.4-17.2 6.7-4.3 1.1-9.4 0-13 6.8-3.6 6.9-4 8.9-12.4 14.5-8.3 5.6-11.8 12.5-11 18.7.7 6.2 1.3 10.5-.3 18-1.6 7.6-5.3 17.1 3.3 27.3 0 0-5-10.5-2.6-20.7 3.7-15.1 2.9-19.7 2.7-22.4-.1-2.7-2.3-10.4 7.9-17.7C69 38 71.5 36.6 74 30c3.2-8.3 9.3-3.3 23.7-11.8a29 29 0 0 1 19.7-2.3"/><path fill="#a7a056" d="M113 25.1a57.2 57.2 0 1 0 0 114.4A57.2 57.2 0 0 0 113 25zm0 3.5a53.7 53.7 0 1 1-.4 107.4 53.7 53.7 0 0 1 .3-107.4zm-5.7 1.3-2.5 1.4.3.8 2.9-1-.7-1.2zm2.6 1.8-2.3.3-1 3.2-2-2.8-3 .5 3.7 4.6.6 3.7 2.5-.4-.5-3.6 2-5.5zm7.7.1-1.4 8.8 2.7.4.5-3.2 1.4.2c.8.2 1.7.2 2.5-.3.7-.4 1.2-1.1 1.3-2a3 3 0 0 0-1-2.5c-.6-.5-1.6-.7-2.4-.9l-3.6-.5zm-18.1 1.7-2.3.8-1.1 4.3-1.2-3.4-2.4.8 3 8.3 2.3-.9-.6-1.9.4-1.5 2.6 2.6 2.8-1-4.5-4.3 1-3.8zm28.3.2-3.2 8.3 2.6 1 1.2-3.2.8.4v3.5l2.8 1.1-.2-4.1c1.2-.1 2-.6 2.3-1.7.4-.7.3-1.6-.2-2.3a4 4 0 0 0-2-1.3l-4.1-1.7zm-7.8.6.8.1c.6.1 1.2.3 1 1 0 .8-.8.8-1.4.7l-.7-.1.3-1.7zm9.7 2.2 1 .4.7.4c.2.2.2.5.1.8-.3.7-1 .5-1.5.3l-1-.3.7-1.6zm-41 2c-.8 0-1.5.2-2.1.7-.8.4-1.5 1-1.9 1.8-.3.8-.3 1.8.2 2.5 1 1.8 3 1.2 4.6.6.4-.2 1-.5 1.3 0 .3.4-.3.8-.6 1-.6.4-1.3.5-1.9 0l-2 1.7c1.5 1.4 3.3 1.2 4.9.2 1.5-1 2.9-2.8 1.8-4.7a2.4 2.4 0 0 0-2.3-1.2c-.9 0-1.7.4-2.5.7-.3.1-1 .4-1.2 0-.2-.4.2-.8.5-1 .6-.3 1.1-.4 1.7 0l1.5-1.7a3 3 0 0 0-2-.7zm50.7.5-7.1 6 1.8 1.2 1.5-1.2 2 1.3-.5 1.8 2.2 1.4 2.5-9-2.4-1.5zm-.4 2.8-.8 2.6-1.2-.8 2-1.8zm-60.2.7-1 .9v1.4l-1.2-.1-1 .9 2.3.2 1-1-.1-2.3zm2.2.6-1.7 1.5 1.8 1.8 1.8 1.7-5.6-1.5-1.8 1.7 6 6.4 1.6-1.5-2.8-3-1.1-1H79l1.7.6 4.6 1.3 1.7-1.6-6.1-6.4zm32 .1a39 39 0 1 0 0 78.1 39 39 0 0 0 0-78zm33.2.7-1.4 1.4 2.6 2.6-6.4 1-1.2 1.1 5.3 5.1 1.5-1.5-2.8-2.7 6.2-1 1.2-1.2-5-4.8zM112.9 47a35.3 35.3 0 1 1-.1 70.6 35.3 35.3 0 0 1 .1-70.6zm-39.4 3.6L69.7 56l7.3 5.2 3.8-5.5-1.7-1.2-2.3 3.2-1.2-.8 1.8-2.7-1.6-1-1.8 2.5-1-.7 2.2-3.2-1.7-1.2zm79.2 0-7.3 5 2 2.9a4 4 0 0 0 2.8 2c1.1.1 2.4-.2 3.3-.9 1-.7 1.8-1.7 2-3 .2-1.3-.3-2.3-1-3.3l-1.8-2.7zm-.1 3.4.2.2c.3.5.5.8.4 1.5a3.7 3.7 0 0 1-2.9 2.2c-.3 0-.5 0-.8-.2l-.6-.7-.2-.3 3.9-2.7zm-39.3 2v.2c-.2.1-.3.2-.4.5 0 .4 0 .4.2.6v.6l-.4.5c-.1.2.5.1.5.1l.2-.3c0-.2 0-.2.3-.3.1 0 .2 0 .3-.2v-.5l.2-.3-.2-.4c-.3-.1-.5.1-.5.3 0 .1-.1.2-.2 0v-.3l.1-.3v-.1zm-44.7 2-3 6.2 1.9 1 1.6-3.3 2.9 5.7 1.5.7 3.2-6.6-1.9-.9-1.7 3.5-3-5.6-1.5-.7zm42.5.1c-.4 0-.4.6-.4.8l-.1.3c-.1 0-.3.3-.3.5l-.2.6c-.2.2-.2.5-.3.7 0 .3.2.1.3 0l.2-.3s.3-.5.3-.3v.9c0 .2-.2.3-.1.9.1.5 0 .6-.2.7 0 .2-.1.2-.2 0v-.7c0-.2 0-.4-.3-.2s-.6 1-.6 1.2h-.3v.5h-.9v.9h-9.8l-.8-1-.4-.1V63l-.3-.3h-.3v-.4l.3-.4s.2.2.1-.3c0-.5.1-.6.3-1 0-.5-.1-.8-.4-1h-1.3c-.3.2-.5.5-.4 1 .1.4.4.5.3 1-.1.5.1.3.1.3l.3.4v.4h-.3l-.3.3v.6c-.4.2-.7.4-1 .9l.2.7V68l-.5 1h-1.5v.5l.6.8v1.1h.8v4.5c-1 .1-1 .8-1.1 1.1 0 .4.3.6.3.8 0 .6-.5.8-.8 1-.3 0-.5.2-.5.5v.6c-2 .4-2.3 2.1-2.3 2.4l-.1.5H87v17.5h12.7c.7 0 1.2-.6 1.2-1.3 0-.5-.4-1-1-1.2v-4h-.6v-9l.7-.6v-1.5h-1.3s.1-1.4 1-2.6c.7-1 1.4-2.4 4-3l.7.6h1.3l.5-.6s1.9.2 3.3 1.7a6 6 0 0 1 1.9 4.6h3.3a6 6 0 0 1 1.9-4.6 5.7 5.7 0 0 1 3.2-1.7l.5.6h1.4l.6-.6c2.6.6 3.3 2 4.1 3 .8 1.2.8 2.6.8 2.6h-1.1V84l.6.6v9h-.6v4c-.6.2-1 .7-1 1.2 0 .7.5 1.2 1.2 1.3h12.8V82.7H137l-.1-.5c0-.3-.4-2-2.3-2.4v-.6c0-.3-.2-.5-.5-.6-.4 0-.9-.3-.9-1 0 0 .4-.3.4-.7 0-.3-.2-1-1.1-1v-4.6h.7v-1l.6-1v-.5h-1.5l-.4-.9v-2.7l.2-.7c-.3-.5-.7-.7-1-1V63l-.4-.3h-.2v-.4l.2-.4s.2.2.1-.3c0-.5.2-.6.3-1 .1-.5-.1-.8-.4-1h-1.1c-.3.2-.6.5-.4 1 .1.4.3.5.2 1 0 .5.2.3.2.3l.2.4v.4h-.2l-.3.3v.5c-.2 0-.3 0-.4.2-.5.3-.9.9-.9.9h-9.8v-.9h-1v-.5h-.1l-.1-.3a1 1 0 0 0-.2-.3c0-.2-.2-.3-.4-.4-.2 0 0 .2 0 .4v.2c0 .2-.1.3 0 .4h-1.6V63l.3-.2h.7c.2.2.3.2.3 0v-1.5h-.7l-.4-.3c-.2 0-.1.2-.2.3h-.2v-.6c-.2 0-.2.2-.3.5-.2.2-.5.5-1.2.5s-1.2-.5-1.2-1.3.5-1.1.6-1.2c.2-.1.1-.1.2-.4 0-.2 0-.1-.3 0h-.6l-.2.2v.4l-.1.5c-.2.1-.2-.1-.1-.2v-.4h-.2c-.2 0-.2-.1-.1-.2v-.2c.1 0 .3 0 .3-.2v-.4s0-.2-.3-.2zm4.5 0-.2.1c-.2 0-.3.2-.3.3h.3v.6l-.2.1-.4-.1-.5-.4v-.2l-.2-.2h-.4c-.2 0-.2.2 0 .3v.2c0 .2.1.2.3.2.2 0 .3 0 .4.2.2.2.3.5.3.8l.1.5c.1.3.4.3.6.4.2 0 .4 0 .5-.2l.3.2c.2.2.3 0 .3-.2l-.1-.3-.2-.6-.2-.5c-.1 0-.2 0-.2-.2v-.8l-.2-.1zm42.9 1.4-8.2 3.4 1 2.5 3.1-1.2.4.7-2.6 2.5 1.2 2.8 2.9-3c.8.8 1.7 1 2.8.5.8-.3 1.3-.9 1.5-1.8a4 4 0 0 0-.4-2.2l-1.7-4.2zm-.7 3.3.4 1 .2.7c0 .3-.2.6-.5.7-.7.3-1-.3-1.3-.9l-.4-.9 1.6-.6zm-86.6 5.5-.9 3.4-6.4-1.6-.6 2.6 8.5 2.2 1.5-6-2-.6zm87.6 1.5-1 .2c-2.5.4-4.1 2.3-3.6 5 .5 2.6 2.7 3.7 5.2 3.2 2.6-.4 4.2-2.3 3.7-5a4 4 0 0 0-4.3-3.4zm.3 2.9c.9 0 1.9 0 2 1 .3 1.1-1.4 1.5-2.2 1.7-.9.2-2.5.4-2.7-.8-.3-1.3 1.3-1.6 2.2-1.8l.7-.1zm-93.6 3c-1-.1-1.9.4-2.4 1.1a6 6 0 0 0-.7 2.6l-.2 3.6 8.8.6.2-2.8-3.2-.2v-1.4c.1-.8.1-1.7-.4-2.4s-1.3-1-2.1-1.1zm0 2.6c.7.1.7.9.7 1.5v.7l-1.8-.1v-.8c.1-.6.2-1.3 1-1.3zm91.7 1.4H155l-.2 1.8c0 1 .2 1.8 1 2.4.7.6 1.8.5 2.7.5h5.4v-2.6h-5.4c-.4 0-.9 0-1.2-.2-.2-.2-.3-.6-.3-.9 0-.3 0-.7.2-1zM111 84v9.5h-.6v4.2a1.2 1.2 0 0 0 .5 2.3h4.4c.7 0 1.2-.5 1.2-1.2 0-.5-.3-.9-.7-1v-4.3h-.5V84H111zm-43 7.7-2.5 4.5L70 99l2.5-4.5-4.5-2.6zm90.4.3-4.5 2.5 2.5 4.5 4.5-2.5-2.5-4.5zm-82.9 12c-.8 0-1.7.4-2.5 1-2 1.4-2.9 3.8-1.3 6 1.5 2.2 4 2.3 6.1.9 2.2-1.5 2.9-3.8 1.4-6-1-1.4-2.3-2-3.7-2zm74.3 0c-.9 0-1.7.7-2.4 1.6-1 1.6-.8 3.4.6 4.6l1.6-1.6c-.5-.4-1.1-1-.7-1.7.3-.5.9-.5 1.3-.2.6.4.7 1.2.8 2l.2 3.7 1.7 1.2 3.7-5.6-1.8-1.3-1.9 2.8v-2.7a3 3 0 0 0-1.3-2.2c-.6-.4-1.2-.6-1.8-.5zm-73.3 2.6c.4 0 .8 0 1 .4.7 1-.6 2-1.3 2.6-.7.4-2.2 1.3-2.9.2-.7-1 .6-2 1.4-2.4.4-.3 1.2-.8 1.8-.8zm67.8 3.2-2 2 1.4 5.9 1.3 1.3 2.6-2.6 1.4 1.4 1.7-1.8-1.4-1.3.8-.9-1.3-1.3-.9.8-3.6-3.5zm-62.4.1-6 6.4 2.4 2.4c.9.8 1.8 1.4 3.1 1.3a4.7 4.7 0 0 0 4.4-4.9c0-1.2-.6-2-1.5-3l-2.4-2.2zm.6 3.3.2.2c.4.4.8.7.7 1.4 0 .6-.5 1.3-.9 1.7-.4.4-.9.8-1.4 1h-.9l-.8-.6-.2-.2 3.3-3.5zm61.8 0 2 1.9-1.3 1.2-.7-3zm-5.3 2.3c-.7 0-1.4.4-2 .8a4 4 0 0 0-1.6 2c-.3.7-.1 1.5.4 2.2a2 2 0 0 0 2 .9c-.5.8-.6 1.7 0 2.4.5.7 1.3 1 2.1 1 .8-.1 1.5-.5 2.1-1 1.5-1 2.7-2.7 1.5-4.4-.6-.8-1.4-1-2.4-1 .3-.7.4-1.4-.1-2.1-.5-.7-1.2-.9-2-.8zm-.4 2c.3 0 .5.1.7.4.2.3.2.7 0 1l-.6.2c-.4 0-1 .1-1.2-.2-.3-.4 0-.8.3-1.1l.8-.3zm-47.3.4-4 7.9 2.5 1.2 1.5-3 .8.4-.4 3.6 2.7 1.3.3-4.1c1.1 0 2-.4 2.4-1.4.4-.8.4-1.6 0-2.4a4.1 4.1 0 0 0-1.8-1.5l-4-2zm40.3 1.6-1.7.8c-.1 1-1 1.8-1.7 2.4l.8 1.8a7 7 0 0 0 1.4-1.3h.1l1.7 3.7-2 1 .9 1.7 6.2-2.8-.9-1.8-1.8.8-3-6.3zM92.9 121l1 .5.6.5c.2.2.2.5 0 .8-.3.7-1 .5-1.5.2l-.8-.5.7-1.5zm48.2.1c.2 0 .4.1.5.3.3.4 0 1-.4 1.2-.5.3-1.2.6-1.6 0-.3-.4-.2-.8 0-1.2l.8-.2h.7zm-39.3 1.4c-2.1-.1-3.7 1.3-4.3 3.5-.6 2.4.3 4.8 3 5.5 2.5.7 4.5-.9 5.2-3.3.6-2.6-.3-4.8-3-5.5a5 5 0 0 0-.9-.2zm21 .7-2.1.3.7 5.3c.1.5.2 1 0 1.3-.3.2-.7.4-1 .4-.3 0-.7 0-1-.2-.2-.3-.2-.7-.3-1l-.8-5.5-2.7.5.8 5.7c.2 1.1.5 1.9 1.5 2.3.7.4 1.8.4 2.6.3 1-.1 1.8-.4 2.5-1.1.8-.8.8-1.6.6-2.7l-.8-5.6zm-15.4.7-.4 8.9h2.5l.1-2 1-1.2 1.4 3.4 3 .2-2.5-5.8 2.4-3-2.5-.2-2.6 3.5.2-3.7h-2.6zm-5.6.7h.5c1.1.3.8 2 .6 2.8-.2.9-.7 2.5-2 2.1-1.1-.3-.8-1.9-.6-2.7.2-.8.7-2 1.5-2.2z"/><path fill="#a6111c" d="M96.6 66.3c0 .7-.7.7-.7.7v1.4c.9 0 .7.6.7.6H112c0-.8.7-.6.7-.6V67s-.7 0-.7-.7H96.6zm17.8 0c0 .7-.7.7-.7.7v1.4c.9 0 .7.6.7.6h15.3c0-.8.7-.6.7-.6V67s-.7 0-.7-.7h-15.3zm-9.3 7.9a9.3 9.3 0 0 0-9.3 9.3h.8c0-4.7 3.8-8.5 8.5-8.5a8.4 8.4 0 0 1 8 5.6c0-.4.2-.7.4-1a8.5 8.5 0 0 1 16 3.9h.8a9.3 9.3 0 0 0-17.3-4.8 9.3 9.3 0 0 0-8-4.5z"/></svg>