<svg xmlns="http://www.w3.org/2000/svg" version="1.0" viewBox="0 0 800 283.2"><defs><clipPath id="a"><path d="M340.2 294.5h180v-63.7h-180v63.7z"/></clipPath></defs><path fill="#e20025" d="m247.8 78.7-.9.4-60.8 24.8V206l54.5 27.8.6-.7c20.2-23.7 34-45.5 35.8-74.6 1.6-26-17.3-60.6-28.6-79l-.6-.8zm-30 19.5c6.7 6.6 28.5 31.3 28.5 70.3 0 9-1.3 19-4.1 29.5l-24.3-13.5V98.2M35.8 180.6l-.6-.1-.4.5-21.6 28 2 .2c12.7 1.7 45.4 7 77.7 19l1 .4 8.6-15.7 7.6-13.7-1.2-.5c-9.8-4-36.6-14-73-18"/><path fill="#e20025" d="M176.6 73.2c0-22.8-9.9-37.7-33.2-49.9-23.6-12.2-67.1-12.8-89.5-8.5h-.6L30.1 56.3l3-1C46.8 50.4 75 42.6 93 44c33.7 2.6 50 15.2 51.3 39.7v1.6c0 27.7-38.9 39.7-49.7 42.4V58.3l-49 25.6V93L57 87.5V175l1.7-1c8.7-5 25.6-11.4 33.7-14.4l2.2-.9v-25.3h.2l53.5 95.2L176 208l-41.1-71.4 3.2-2.5c28.4-22.1 38.5-34.7 38.5-61m148 18.1h11.8V79.7h-11.8V39.6l-1.7.9L293 56.3v23.4h-13.5v11.5H293v124.6l28.9 17.3 17.4-27.2-14.6-8.4V91.2m60.9 13V35.9l-1.7 1-30.1 16v164.5l28.7 16.6 17.7-27.5-14.6-8.4v-78l11-11.3 13.5 10.3v153.6l31.8-25.2V105.7L410 84.4l-24.4 19.8m163.7 7.9c0-6.3-5.6-12.5-16.6-18.3l-.7-.4a177 177 0 0 0-29-10.8l-3.3-1.2-.5.5-26 22.3-10.2 8.7.2.7c4.6 14.4 20.4 18.2 29.2 19.2-11.2 4.5-35.3 17.7-35.6 47v.5c0 20.5 12.3 38.6 36.7 54l.8.4 18.6-18.8 35.5 17.5 17.5-26.6-16.6-8.7v-86zm-72.1-2.6c4.2-2 22.6-9.2 40.3 4.2V128a97.6 97.6 0 0 1-19.6-3.7 39.7 39.7 0 0 1-20.7-14.7m40.3 27v69.1c-8.3-1.2-35.2-7.3-35.2-33.6l.1-2.6c1.5-23 19.6-32 35.1-32.9m148.3-54.4-1.8.9-30.3 16.3V208L608 195.5v-93.2l-26.6-16.8-17 23.9 10.8 8.9v95.1l40.2 20.7 12.3-19.2c1.7 1 38.6 19.1 38.6 19.1l16.5-25-17.1-9.2V82.2m57.8 64.3-8.9-36.4 2.5.7c9.5 2.8 27.1 8 46 9.7h.6l18.3-19-57.5-17.3-.5.3-38.5 25.3v.7c.7 8.2 3.2 36.6 10.4 60.9l.3 1.1 42.5-14.7 7.4 51.4-29.6-14-21 22.6 1.4.7 35 16.4 43.4-36.8-9.1-64-42.7 12.4"/><g clip-path="url(#a)" transform="matrix(4.38967 0 0 -4.38967 -1488.2 1294.6)"><path d="M388.4 273.2v-20.5l6-3.3c4.2 15-6 23.8-6 23.8m2.7-5.5c2-3.3 4-8.1 2.8-15l-2.8 1.6v13.4"/><path d="M380.6 272c.7 1.8 1 3.8 1 6.2 0 6.1-2.8 10.4-8.8 13.5a38.1 38.1 0 0 1-18.5 2.7l-3.8-2-6.9-12.2s10.3 4.1 16.5 3.7l2.2-.2-13.5-7.1-.4-.2v-4.2l2.6 1.2v-17.8l-1.6.3-3.1-1.5-6.1-7.9s12.4-1.4 22-5.4l5.2 9.5 5.8-10.4 8.7 6.4 13.5-6.9a31.5 31.5 0 0 1 9.1 19c.5 7.2-5 16.6-7.3 20l-16.6-6.7zm-.2-22-7.5 13.2c3.7 3 6.2 5.5 7.5 8.4v-21.5zm-9.5 25.8c.3-4.3-4.6-7-7.9-8.2v16c5.3-1 7.7-3.5 8-7.8m-10.7-32.6c-7.5 2.8-15 4-17.8 4.3l4.6 6c8.1-.9 14.2-3 16.6-4l-3.4-6.3m-4 11.3c2 1 4.5 1.9 5.6 2.3l.9.3v1.6l4.5-8c-.7.4-4.9 2.3-11 3.8m16.6-11.2-12.1 21.5h-.5V259c-1.7-.7-6-2.2-8-3.5v20l-2.6-1.3v1.4l10.6 5.6v-15.7c.1 0 12.3 2.7 11.9 10.4-.3 5.6-4 8.6-12 9.3a42 42 0 0 1-13.7-2.6l4.8 8.7c5.2 1 15 .8 20.3-2 5.2-2.6 7.4-6 7.4-11 0-6-2.5-8.9-8.7-13.7l-.9-.8 9.4-16.2-5.9-4.3m29 15.5a28.9 28.9 0 0 0-8.1-16.8l-12.1 6.2V271l13.7 5.6c2.3-3.8 6.8-12 6.5-17.9"/></g><path d="M396.1 90V40.8l-11.7-9.4-35 18.8v149.3l-14.2-8.1V95.6h10.6V69.9h-10.6V44.3l-11.7-9-35.2 18.4v16.2h-13.1v25.7h13.1v122.7l40.2 24 20.9-32.5v10.1l40 23.3 16.4-25.8v57.4l10.3 6.7 36.3-28.9V100.1l-37.5-25.3L396 90zm-74.6 141.5L294.2 215V90h-13.5v-9h13.5V57l29.3-15.5V81h11.7v9h-11.7v108.3l14.2 8.1-16.2 25.2zm84.3-34L396 192v-68a126 126 0 0 1 5.6-5.8l4 3v76.2zm34.9 49.5-29.4 23.3V118.5l-14.9-11.2-12 12.4v79l14.1 8.2-16.3 25.5-27.3-15.7V53.5L384.4 38v68.8L410 85.9l30.6 20.4V247m34.9-138a40.6 40.6 0 0 0 22 16.4 97.6 97.6 0 0 0 21.2 3.8v-16.1a40.4 40.4 0 0 0-43.2-4m37.6 10.6c-2.4.2-17-2.4-23.7-9.6 6.4-.2 14.6-1.1 23.7 6v3.6m-31.9 49.6c-1.7 26.6 22.6 35.9 37.5 37.7v-71.7c-13 .4-35.7 7.3-37.5 34m11.7.8c1-16 12.5-21.3 20.2-23v47c-8.9-2.4-21.2-8.6-20.2-24"/><path d="m766.8 129.6-34.3 10-5-21.4c12 3.5 38 7 38 7L795 94.3l-64.4-19.6-49.6 32.8s2.9 39.9 11.8 68.6c0 0 9.9 2.6 18.8 2.4l24.4-8.7 3.5 24.6-19.8-9.3-22 23.7v-4.4l-21.4-11.7V87.3l-11.6-9.6-35.4 19v97.6l-10.7-5.3V96.4l-28.3-17.8-13 5-17.4 24.6-.4.5c-2.6-15.2-21.6-23.8-21.7-24a284.6 284.6 0 0 0-26.6-10.4l-13.3 3-38.3 32.7-1 .9v1.2c0 .2.4 15.9 21 22a53 53 0 0 0-27.2 45.7c0 36.6 35 56.6 48 63.7l19.3-19.3 36 17.8 16.4-25.3 50.4 26 12.5-19.3 38.5 19.2 15-23.2 50.3 23.8 47.8-40.8-9.6-66.6-10.2-6.2zm-195.8-9v77l-11.2-5.9v-80l11.2 8.8zm-23 111.3-35.3-17.4-18.6 18.7c-14.7-9.2-36.4-26.6-36.1-53.4.4-37.5 40.2-47.9 40.2-47.9s-27.8.6-33.9-18.6c1.8-1.6 29.3-25 35.6-30.6 12.4 4.1 27.1 8.8 31.4 11.7 0 .2 16.8 7.5 16.8 17.7v86.7l16.1 8.5-16.2 24.6m118 .6-38.7-19-12.3 19-38.5-19.8v-95l-10.5-8.5L581.8 87l25.1 15.8v93.3l28 13.7V100.1l29.7-16v116.4l16.6 8.9-15.2 23.1zm65.8 1-34.4-16.1 19.4-20.8 30.8 14.6-8-55L697 171a319.5 319.5 0 0 1-10.3-60.6l38-25 55.1 16.7-16.5 17.2c-22.6-2-43.7-9-50.3-10.9l9.7 39.6 42.5-12.3 8.8 62-42.2 35.8"/></svg>