<?xml version="1.0" encoding="iso-8859-1"?>
<!-- Generator: Adobe Illustrator 14.0.0, SVG Export Plug-In  -->
<!DOCTYPE svg PUBLIC "-//W3C//DTD SVG 1.0//EN" "http://www.w3.org/TR/2001/REC-SVG-20010904/DTD/svg10.dtd" [
	<!ENTITY ns_flows "http://ns.adobe.com/Flows/1.0/">
]>
<svg version="1.0"
	 xmlns="http://www.w3.org/2000/svg" xmlns:xlink="http://www.w3.org/1999/xlink" xmlns:a="http://ns.adobe.com/AdobeSVGViewerExtensions/3.0/"
	 x="0px" y="0px" width="674px" height="390px" viewBox="-8.9 -12.6 674 390" enable-background="new -8.9 -12.6 674 390"
	 xml:space="preserve">
<defs>
</defs>
<path fill="#C6A148" d="M277.2,13.9c0.3-0.3,0.8-0.7,1.1-0.8c-0.4-0.5-1.1-1.1-1.3-1.4c-0.3,0.1-1.2,0.7-1.4,1
	C275.7,12.8,276.3,13.4,277.2,13.9z"/>
<path fill="#C6A148" d="M274.5,16c0.3-0.6,0.9-1.1,1.2-1.4c-0.3-0.3-0.7-0.7-1.1-1.2c-0.4,0.4-1,1.2-1,1.4c0,0.2,0.5,0.7,0.8,1
	C274.5,15.9,274.5,15.9,274.5,16z"/>
<path fill="#C6A148" d="M273.6,17c-0.2-0.2-0.6-0.7-0.8-1.2c-0.5,0.4-1,1.2-1.1,1.4c0,0.2,0.5,0.9,1,1.5
	C272.9,18.1,273.4,17.3,273.6,17z"/>
<path fill="#C6A148" d="M274.4,18c-0.4,0.5-0.8,1.4-0.8,1.6c0.1,0.2,0.6,0.8,0.9,1.2c0.3-0.5,0.9-1.1,1.2-1.4
	C275.4,19,274.7,18.4,274.4,18z"/>
<path fill="#C6A148" d="M276.8,15.4c-0.8,0.5-1.4,1.5-1.4,1.7c0.1,0.2,0.8,1.1,1.4,1.5c0.4-0.6,1-1.3,1.3-1.6
	C277.8,16.6,277.2,16,276.8,15.4z"/>
<path fill="#C6A148" d="M277.6,23.2c0.2-0.9,0.9-1.8,1.2-2.2c-0.5-0.2-1.4-0.6-1.8-1.1c-0.8,0.5-1.3,1.3-1.3,1.5
	C275.8,21.8,276.8,22.7,277.6,23.2z"/>
<path fill="#C6A148" d="M267.5,48.4c-0.4-0.7-0.5-1.8-0.6-2.5c0-0.1,0-0.2,0-0.3c-1.8-0.6-3,0-3.1,0.2c-0.1,0.3,0,1.9,0.5,2.9
	C265.1,48.2,266.8,48.1,267.5,48.4z"/>
<path fill="#C6A148" d="M260.2,50.1c-0.1,0.3,0.1,2.4,0.5,3c0.8-0.4,2.3-0.6,2.8-0.4c0,0,0,0,0-0.1c-0.3-0.4-0.4-1.9-0.4-2.9
	C261.8,49.2,260.4,49.9,260.2,50.1z"/>
<path fill="#C6A148" d="M257.4,54.8c0,0.3,0.8,1.9,1.4,2.9c0.6-0.4,1.3-0.5,1.8-0.5c-0.6-0.8-0.6-2.3-0.5-3.1
	C258.7,54,257.5,54.6,257.4,54.8z"/>
<path fill="#C6A148" d="M257.1,53.3c0.6-0.3,1.6-0.4,2.1-0.5c-0.1-0.5-0.3-1.5-0.1-2.4c-0.9-0.1-2.2,0.4-2.4,0.6
	C256.7,51.2,256.8,52.2,257.1,53.3z"/>
<path fill="#C6A148" d="M258.5,49c-0.1-0.4-0.2-1.4,0-2.3c-0.7,0.1-2,0.5-2.2,0.7c-0.1,0.2-0.3,1.4,0.1,2.2
	C257.1,49.3,258,49.1,258.5,49z"/>
<path fill="#C6A148" d="M259.8,46.7c-0.1,0.2-0.3,1.4,0.2,2.3c0.7-0.6,1.9-0.7,2.5-0.7c-0.2-0.4-0.4-1.2-0.3-2.2
	C260.9,46,259.9,46.5,259.8,46.7z"/>
<path fill="#C6A148" d="M295,72.5c-0.4-3.1-0.1-4.6,0.1-5.2c-0.1,0.1-0.1,0.2-0.1,0.3c-0.2,0.4-1.9,4.1-2.3,8
	c-0.4,4.2,1.5,7.9,2.4,9.5c0.7-0.1,2.2-0.1,3.4-0.1c-2-2.7-0.9-5.1-1.6-6.7C296,76.3,295.3,74.3,295,72.5z"/>
<path fill="#C6A148" d="M272.9,97.4c-0.1,0.7,0,1.7,0.1,1.9c0.2,0.3,1.3,0.7,2.1,0.9c0-0.5,0-1.6,0.2-2.2c-0.2-0.1-0.6-0.2-0.9-0.2
	C273.7,97.7,273.2,97.5,272.9,97.4z"/>
<path fill="#C6A148" d="M279.4,99.1c-0.8-0.1-2-0.6-2.6-0.8c-0.2,0.6-0.5,2-0.5,2.2c0.1,0.2,1.5,1.1,3.2,1.3
	C279.1,100.8,279.2,99.7,279.4,99.1z"/>
<path fill="#C6A148" d="M281.5,98.7c-0.4,0.9-0.5,2.7-0.5,3.2c0.3,0.1,1.7,0.4,2.5,0.4c-0.2-0.8-0.4-2.2,0.4-3.3
	C283.1,98.9,282,98.8,281.5,98.7z"/>
<path fill="#C6A148" d="M281.2,94.5c-0.7,0-2.1,0-3.6-0.5c-0.4,0.8-0.5,2.6-0.5,2.9c0.2,0.2,1.8,0.8,3.5,0.9
	C280.4,96.5,280.9,95.1,281.2,94.5z"/>
<path fill="#C6A148" d="M273.7,92.7c-0.5,0.8-1,2.5-1,2.8c0.2,0.3,1.9,1.1,3,1.3c-0.2-1.2,0.1-2.5,0.3-3
	C275.6,93.6,274.5,93.2,273.7,92.7z"/>
<path fill="#C6A148" d="M277.2,92.5c0.1-1.3,0.7-2.8,1.3-3.6c-1,0.1-1.9-0.1-3-0.6c-0.4,0.8-0.8,2.8-0.7,3.2
	C274.9,91.7,276.2,92.4,277.2,92.5z"/>
<path fill="#C6A148" d="M298.8,91L298.8,91c0.9,0.7,2,1.4,2.3,1.6l1.9-0.2c-0.2-0.1-0.5-0.3-1-0.6c-1.2-0.7-3-1.1-3.9-1.3
	C298.3,90.7,298.6,90.8,298.8,91z"/>
<path fill="#C6A148" d="M347.8,124.4c-0.7-0.3-1.8-1-3-2.5c-1-1.2-3.4-4-5-5.5c-1.5-1.3-4.5-2.2-6.1-0.6c-0.7,0.7-0.8,1.7-0.7,2.4
	c0.2,1.3,0.9,2.6,1.9,3.2c1.9,1.1,5.2,2.6,9.2,3.3c3.9,0.7,4.4,0.2,4.5,0c0,0,0,0,0,0c-0.1-0.1-0.2-0.1-0.4-0.2
	C348.1,124.5,347.9,124.5,347.8,124.4z M343.2,123.2l-0.2,0c-0.1,0-0.7,0.1-1.5-0.8c-0.2-0.2-0.4-0.4-0.6-0.7
	c-0.6-0.7-1.5-1.7-2.9-3c-0.3-0.2-0.5-0.1-0.6-0.1c-0.2,0.1-0.3,0.3-0.2,0.6c0.2,0.6,0.9,1.3,0.9,1.3l0.3,0.3l-0.4,0.1
	c0,0-1.1,0.3-2.1-0.5c-0.6-0.5-1.3-1.3-1.4-2.1c-0.1-0.5,0.1-0.9,0.4-1.2c0.9-1.1,2.6-0.7,3.7,0.2c1.5,1.1,2.8,2.4,4.1,4.5
	c0.6,1,0.6,1.1,0.6,1.2V123.2z"/>
<path fill="#C6A148" d="M348.5,124.8C348.5,124.8,348.5,124.8,348.5,124.8C348.5,124.8,348.5,124.8,348.5,124.8
	C348.5,124.8,348.5,124.8,348.5,124.8z"/>
<path fill="#C6A148" d="M311.7,119.5c0.1,0.1,0.3,0.2,0.5,0.3c0.3,0.1,0.9,0.2,1.6-0.2l9.1-5.9l-0.8-0.9
	C318.2,115.3,312.5,118.9,311.7,119.5z"/>
<path fill="#C6A148" d="M307.5,122.4c0.5,0.1,1.5,0.2,2.1-0.2c0.8-0.4,1.3-0.8,1.9-1.3l0.1-0.1c-0.5-0.1-0.9-0.4-1.1-0.5
	C309.7,120.9,308.1,121.9,307.5,122.4z"/>
<path fill="#C6A148" d="M319.8,110.3c-1.6,1.1-14.9,9.5-16.5,10.7c-0.8,0.6-0.7,1.2-0.4,1.7c0.3,0.4,0.9,0.7,1.3,0.4
	c1.1-0.7,14.9-9.8,17-11.2L319.8,110.3z"/>
<path fill="#C6A148" d="M317.8,108.3c-1.2,0.8-9.1,5.7-10.6,6.6c-1.1,0.7-1.5,1.7-1.5,2.4c0,0.3,0,0.4,0.1,0.5
	c0.5-0.3,11.4-7.2,13.2-8.3L317.8,108.3z"/>
<path fill="#C6A148" d="M305.1,116.2c0,0-0.5,0.3-0.7,0.6c-0.7,0.8-1.5,1.5-1.3,2.9c0.5-0.3,1.1-0.7,1.4-0.9c-0.1-0.4-0.2-1,0.2-1.7
	C304.8,116.8,305.1,116.2,305.1,116.2z"/>
<path fill="#C6A148" d="M384.8,76.2c-0.8,0.5-2.4,1.3-3.8,1.6c-1.4,0.4-2.4,0.4-4.2,0.4h-0.4c-1.6,0-3.5-0.1-4.5,0.3
	c-1.2,0.4-2.8,1.8-3.4,2.4l-0.6,0.7c0.6-0.2,1.6-0.4,2.7-0.4l0.2,0c1.9,0.1,4.4,0.2,6.6-0.5c2.3-0.7,3.7-1.6,4.9-2.5
	c0.5-0.3,1.1-0.7,1.6-1.1c0.9-0.7,2-1.3,2.2-1.7c0.1,0,0.1-0.1,0.2-0.2c-0.5,0.2-0.8,0.4-1.3,0.7L384.8,76.2z"/>
<path fill="#C6A148" d="M384,72.8c-1.4-0.2-3.4-0.2-4.5,0c-1.1,0.2-2.7,0.9-3.5,1.4c-0.5,0.3-1.2,0.9-1.8,1.5
	c-0.3,0.3-0.6,0.6-0.8,0.7c-0.2,0.1-0.4,0.3-0.6,0.5c0.5-0.1,1.1-0.2,1.7-0.2l0.2,0c1.2,0.1,4.2,0.3,5.3-0.1
	c0.9-0.3,1.8-0.8,2.5-1.3c0.3-0.2,0.6-0.3,0.8-0.5c0.8-0.4,3.3-2.1,4.3-3.1c0-0.1,0.1-0.1,0.2-0.2c0,0.1-0.1,0.1-0.2,0.2
	C386.7,72.1,385.5,73,384,72.8z"/>
<path fill="#C6A148" d="M391.7,62.2c-0.6,0.9-1.7,2.5-2.7,3.6c-1,1.1-2.4,1.4-3.9,1.7l-0.4,0.1c-1.8,0.3-3.4,1.1-4.6,2.2
	c-0.7,0.6-1.5,1.4-2.1,2c0.6-0.3,1.4-0.5,2.1-0.5c2.1-0.1,3.6-0.2,4.4-0.4c1.1-0.3,2.2-1.1,3.1-2.3l0.9-1.1c0.9-1.1,1.8-2.2,2.2-2.9
	l0.3-0.6c0.4-0.8,0.9-1.9,1.1-2.4C392.1,61.7,391.9,61.9,391.7,62.2z"/>
<path fill="#C6A148" d="M385.9,58.4c-0.5,0.5-0.8,0.9-1,1.2c-0.1,0.3-0.2,0.6-0.2,0.9c0,0.1,0,0.2,0,0.3c0,0.3,0,0.7-0.1,1.1
	c0,0.6-0.1,1.3-0.2,1.8c-0.1,0.9-0.5,1.7-0.9,2.2c0.3-0.1,0.6-0.2,0.9-0.2c1-0.1,2.9-0.8,3.9-2.2c1.1-1.6,2.1-3.3,2.9-7
	c0.5-2.8,0.2-5.5,0-7.1c-0.1,0.7-0.2,2-0.9,3.2c-1,1.8-3.3,4.5-4.4,5.7L385.9,58.4z"/>
<path fill="#C6A148" d="M382.1,65.5c0.8-0.9,0.9-1.7,1-2.5c0-0.2,0-0.5,0.1-0.7c0.1-0.3,0.1-0.6,0.1-0.9c0.1-0.6,0.1-1.4,0.6-3.3
	c0.7-2.7,1.4-4.1,1.6-4.7l0,0c0.1-0.1,0.1-0.2,0.1-0.3c0,0,0,0-0.1,0.1c-0.1,0.2-0.5,0.9-1.1,2.3c-0.6,1.4-0.9,1.9-2,3.6
	c-1.1,1.7-2.1,3.5-2.7,4.4c-0.3,0.6-0.4,1.5-0.5,2.5c0,0.5-0.1,1-0.2,1.5c-0.1,0.4-0.1,0.7-0.2,1c0.3-0.3,0.6-0.6,1-0.9
	C380.6,67,381.5,66.2,382.1,65.5z"/>
<path fill="#C6A148" d="M374,73.5c0.8-0.6,1.3-1.2,1.8-1.8c0.1-0.1,0.2-0.3,0.3-0.4c0.5-0.6,1.4-3,1.4-4.7c0.1-1.8,0.3-2.8,0.8-4.2
	c0.3-1.1,0.6-1.5,0.8-1.9c0.1-0.1,0.2-0.3,0.3-0.4c0.1-0.1,0.1-0.2,0.2-0.4c-0.2,0.2-0.5,0.5-0.7,0.8c-0.6,0.7-1,1.6-1.6,2.9
	l-0.2,0.5c-0.5,1.2-1.1,1.8-1.7,2.3c-0.2,0.2-0.4,0.4-0.6,0.6c-0.4,0.4-1.2,1.6-1.4,2.9l-0.1,0.8c-0.1,1-0.2,2.1-0.3,3.1
	c-0.1,0.3-0.2,0.7-0.2,1C373.1,74.2,373.5,73.8,374,73.5z"/>
<path fill="#C6A148" d="M369.4,77.9c0.5-0.6,1.2-1.5,1.6-2.3c0.3-0.6,0.5-2,0.6-3l0-0.4c0.1-1,0.2-1.6,0.5-2.7
	c0.3-1.2,1.1-3.3,1.7-4.5l1.4-2.6c-0.3,0.4-0.6,0.9-0.9,1.4l-0.1,0.2c-0.3,0.5-0.7,1.1-1.1,1.8c-0.5,0.8-1,1.6-1.4,2.1
	c-0.6,1.2-1.7,2.9-2.4,3.9c-0.8,1.3-1.9,3.1-2.3,4.4c-0.4,1.4-0.4,2.4-0.4,3.4c0,0.4-0.1,0.8-0.2,1.1c0.2-0.2,0.3-0.4,0.5-0.5
	c0.2-0.4,0.8-0.9,1.3-1.4C368.8,78.5,369.2,78.1,369.4,77.9z"/>
<path fill="#C6A148" d="M384.4,87.3l-0.4-0.2c-0.6-0.3-1.5-0.5-2-0.6c-0.1,0-0.3,0-0.4-0.1c-0.2,0-0.3-0.1-0.4-0.1
	c-0.4-0.1-0.8-0.3-1.6-0.3l-0.3,0c-1.1-0.1-2.3-0.2-3.2,0.3c-0.5,0.2-0.7,0.5-1.1,0.8c-0.4,0.3-0.8,0.8-1.8,1.4
	c-1.9,1.2-3.6,2.1-6.7,1.9l-1.7-0.1c-1.8-0.1-2.3-0.2-2.9,0.3l-1.2,0.9c-1.3,0.9-3.2,2.3-4.6,3.2c-2,1.4-7.6,4.1-11.5,6
	c-3.3,1.6-12.5,6.5-14.3,7.5l0.8,0.7c1-0.6,7.6-4.4,11.1-6.2c3.5-1.9,10-5.3,15.4-7c6.2-2,10.9-3,15.5-3.4c5.2-0.4,6.2-0.1,6.3-0.1
	l0.2,0.1l0,0.2c0,0.1,0,1.4-2.7,3.1c-2.3,1.4-3.3,1.5-3.3,1.5l-0.1-0.5c0,0,2.2-1,3.5-3c-0.6-0.1-2-0.1-2.2,0
	c-0.1,0-0.3,0.2-0.6,0.5l0,0l0,0c-1.2,1.5-2.8,2.9-4.9,4c-2.1,1.1-3.7,1.8-4.8,2.1c0.4,0,0.8,0,1.2-0.1c1.7-0.2,5.1-0.7,7.8-1.5
	c3.3-1,6-2.6,8.4-4.9c2.8-2.7,3.7-4.9,3.7-5.6C385.5,87.8,384.9,87.5,384.4,87.3z"/>
<path fill="#C6A148" d="M336.9,102.9c2.2-1.1,4.7-2.4,7.3-3.6l3.7-1.8c4.1-2,7.5-4,9.5-5.6l1.8-1.4c1.7-1.3,2.6-2,3-2.1
	c0.4-0.1,1.2,0.1,1.9,0.3c0.2,0,0.4,0.1,0.5,0.1c0.7,0.2,2,0.3,3.2,0.1c1.3-0.2,4.3-1.5,6.3-2.8c1-0.6,2-1.4,3-2.1
	c1-0.8,2.1-1.6,2.9-2.1c0.8-0.5,1.6-1,2.2-1.4c-0.2,0.1-0.3,0.1-0.5,0.2c-0.4,0.1-0.7,0.3-1.2,0.5l-0.7,0.3c-1,0.4-1.5,0.6-3.2,1
	c-1.6,0.4-2.5,0.4-3.9,0.5l-0.1,0c-1.4,0.1-2.4,0.1-3.3,0.1c-0.8,0-1.8,0.2-2.9,0.7c-1.3,0.5-1.9,1-2,1.4c0,0.2,0,0.4,0.2,0.5
	c0.6,0.7,1.4,0,1.4-0.1l0.2-0.1l0.2,0.1l0.3,0.3l0.1,0.1v0.1c0,0,0,0.9-1.1,1.2c-1.2,0.4-2.2,0-2.9-1c-0.3-0.5-0.4-1-0.3-1.5
	c0.1-0.5,0.5-1.1,1-1.3c0.5-0.3,0.7-0.7,1.1-1.4l0.2-0.4c0.5-0.9,0.7-1.8,0.8-3.3c0.1-1.4,0.1-1.8,0.3-2.4c0.2-0.7,0.6-1.9,1.3-3.1
	c1.2-2.1,2-3.5,2.5-4.2c0.6-0.9,1.4-2.4,1.7-3.2c0.1-0.4,0.3-0.9,0.6-1.4c-0.4,0.6-0.9,1.2-1.3,1.8l-0.8,1.2
	c-0.4,0.6-0.9,1.1-1.4,1.6c-0.4,0.5-0.9,1-1.4,1.6l-1.5,1.9c-0.3,0.5-0.6,0.8-0.8,1.1c-0.2,0.2-0.6,0.7-1.1,1.3
	c-0.8,0.8-1.6,1.8-1.9,2.2l0,0c-0.6,0.8-1.8,2.4-2.2,4c-0.5,1.9-0.2,3.3,0,3.8c0,0.1,0.1,0.3,0.1,0.4c0.2,0.7,0.4,1.3,0,1.8
	c-0.3,0.3-1.3,1.4-4.2,3.5c-2.6,1.8-5.1,3.3-9.1,5.5l-5.1,2.6c-2.3,1.2-4.4,2.3-6.4,3.3c-2.9,1.5-6.1,3.3-7,3.9l1.7,1.5
	C330.3,106.6,334.1,104.4,336.9,102.9z"/>
<path fill="#C6A148" d="M326.9,104.7c1.2-0.6,8.9-4.8,8.9-4.8c2.5-1.3,7.3-4.2,9.5-5.6c2.2-1.4,5.5-4.9,6.6-6.6
	c1.1-1.6,2-3.3,2.3-7.6c0.2-3.2-0.4-6.3-0.7-8.2c-0.1,0.8-0.3,1.6-0.6,2.5c-0.5,1.2-1.3,3.1-2.1,4.2c-0.8,1.1-2.1,3.3-3.2,6
	c-0.4,0.9-0.7,1.7-1,2.5c-0.7,1.8-1.4,3.4-2,4.3l-0.1,0.1c-0.9,1.3-2.2,3.1-6.2,5.6c-3.6,2.2-10.8,5.8-12.4,6.6L326.9,104.7z"/>
<path fill="#C6A148" d="M363.4,43.3c-1,2.4-1.4,4-1.5,5.3c-0.1,1.3,0.5,2.9,1,3.8c0.6,0.9,1.8,2.2,2.4,2.7c0.7,0.6,0.8,1,0.7,1.9
	l-0.1,0.3c-0.1,1.1-0.6,3.9-1.4,6.8c-0.8,2.6-1.9,6.2-2.9,8.7c-0.8,1.9-1.9,4-2.8,5.7l-0.5,1c-1,2-2.4,3.9-3.1,4.6
	c-0.3,1.3-0.8,2.5-1.6,3.7c-1,1.5-2.2,2.9-3,3.8c0.1-0.1,0.2-0.1,0.3-0.2c0.9-0.5,3.5-2.1,4.8-3.2c1.2-1,2.3-1.9,2.3-2.6
	c0-0.3-0.1-0.5-0.1-0.8c-0.1-0.5-0.3-1-0.2-2c0.2-1.5,0.6-3.1,1.3-4.4c0.6-1.3,2-3.1,3-4.2l0.1-0.1c0.8-0.9,1.3-1.4,1.6-2.2
	c0.1-0.2,0.2-0.5,0.3-0.9c0.6-1.3,1.5-3.6,2.1-5.5c0.4-1.4,0.9-3.2,1.3-4.8c0.3-1.3,0.6-2.5,0.8-3c0.3-1,0.7-1.5,1.2-1.8l0.1,0
	c1.8-0.9,2.4-1.3,2.6-1.5c0.5-0.5,1.6-1.6,2.5-3c0.7-1.2,1.2-2.8,1.6-4.2c0.1-0.4,0.2-0.7,0.3-1c0.2-0.4,0.3-1,0.5-1.7
	c0.6-1.9,1.3-4.2,1.7-5.2c0.6-1.2,1-2.4,1.3-3.1l0-0.1c0,0,0,0,0,0c-0.1,0.3-0.3,0.7-0.5,1.1c-0.3,0.6-0.6,1.2-0.9,1.8
	c-0.2,0.2-0.3,0.5-0.4,0.8c-0.4,0.8-0.9,1.8-2,2.8c-1.3,1.3-2.8,2.2-3.8,2.7l-0.3,0.2c-1,0.6-2,1.3-2.3,1.7
	c-0.2,0.2-0.2,0.4-0.1,0.7c0,0.1,0,0.2,0.1,0.3c0,0.5,0.1,1.9-0.3,3.1c-0.4,1-1.1,2.2-2.4,2.2c-0.5,0-1-0.2-1.3-0.6
	c-0.4-0.5-0.7-1.1-0.6-1.6c0-0.1,0.1-0.4,0.3-0.5c0.3-0.1,0.4,0.2,0.6,0.4c0.1,0.1,0.1,0.2,0.2,0.3c0.2,0.2,0.5,0.4,0.9,0.4
	c0.3,0,0.5-0.2,0.7-0.6c0.6-1.2,0.6-2.4,0.5-3.4c-0.1-0.9-0.6-2.6-1.1-4.1c-0.3-0.8-0.7-1.6-1.1-2.5c-0.3-0.5-0.5-1-0.8-1.6
	c-0.6-1.4-1-2.6-1.2-4.5c-0.1-1.2-0.1-2-0.2-2.4c-0.1,0.1-0.1,0.3-0.1,0.6c0,1.1,0.1,2.6,0.2,3.5C364.4,37.7,364.4,40.9,363.4,43.3z
	"/>
<path fill="#C6A148" d="M376.6,50.4c-1.6,3.2-2.7,4.7-4.4,5.7c-0.5,0.3-0.9,0.6-1.2,0.7c-0.8,0.4-1.2,0.6-1.4,1.3
	c-0.1,0.4-0.2,0.9-0.4,1.5c-0.2,0.9-0.5,2-0.8,3.2l-0.6,1.8c-0.2,0.6-0.4,1.1-0.5,1.6c0.2-0.3,0.4-0.6,0.8-0.8
	c0.8-0.7,3.4-3.6,4.9-5.4c1.6-1.8,4-5,5.6-7.2c1.6-2.3,4.7-8,5.6-10.3c0.8-2.1,1.5-5.1,1.8-6.4c-0.4,1-1.3,2.7-3.1,4.6
	c-1.6,1.7-3.8,3.5-4.2,3.8C378.6,45,378,47.5,376.6,50.4z"/>
<path fill="#C6A148" d="M374.9,37.4c-1.4,0.9-2.9,2.3-3.2,3.1c-0.3,0.7-0.5,1.7-0.7,2.4l-0.1,0.4c-0.1,0.4-0.3,1.1-0.4,1.6
	c0.4-0.3,0.8-0.7,1.2-0.9c0.2-0.1,0.5-0.3,0.8-0.5c0.8-0.4,1.8-1,2.3-1.5c0.6-0.5,1.4-1.7,2.1-3.2l0.4-1c0.5-1.1,1.1-2.3,1.4-3.5
	c0.2-0.6,0.4-1.5,0.7-2.3c0.1-0.6,0.3-1.2,0.5-1.7c-0.5,0.9-1.6,2.8-2.2,4.1C376.9,35.9,376.1,36.6,374.9,37.4z"/>
<path fill="#C6A148" d="M378.1,28.6c-0.7,0.9-1.5,1.9-3,3.2c-1.5,1.4-2.5,2.4-2.9,3.6c-0.3,0.9-0.6,2.2-0.8,3.1
	c0.1-0.2,0.3-0.4,0.5-0.6c0.5-0.6,1.7-1.4,2.3-1.7c1.1-0.7,2.1-1.8,2.8-3.3c1-2,1.5-3.4,2-5.2l0.2-0.6c0.1-0.2,0.1-0.4,0.2-0.6
	C379,27.3,378.6,28,378.1,28.6L378.1,28.6z"/>
<path fill="#C6A148" d="M374.4,26.8c-0.6,0.9-0.9,2.1-1.1,3.1c-0.1,0.6-0.3,1.7-0.4,2.5l1.7-1.8c1.7-1.5,2.4-2.6,2.9-4.1
	c0.6-1.6,0.8-3.3,1-5c0-0.6,0-1.1,0-1.6c0,0.4-0.1,0.8-0.2,1.2l-0.2,0.5c-0.2,0.9-0.4,1.7-1.2,2.5c-0.3,0.4-0.7,0.7-1,1
	C375.4,25.7,374.8,26.2,374.4,26.8z"/>
<path fill="#C6A148" d="M372.4,16.1c-0.1,0.8-0.3,1.4-0.5,1.9c-0.1,0.4-0.3,0.7-0.3,0.9l0,0.1c-0.1,0.6-0.1,0.9,0.5,2.3
	c0.7,1.5,1,2.3,1.2,3.2c0.2,0.8,0.2,1.3,0.1,1.6c0,0,0,0,0,0.1c0.3-0.6,0.7-1.2,1.3-1.8c0.7-0.8,1.6-1.9,1.5-2.9
	c-0.1-1.1-0.4-2.7-0.8-3.8c-0.2-0.8-0.7-1.6-1.2-2.3c-0.2-0.4-0.5-0.7-0.7-1.1c-0.1-0.1-0.2-0.3-0.4-0.5c-0.1-0.1-0.2-0.2-0.3-0.4
	c-0.6-0.7-1.3-1.6-1.9-2.3c0.2,0.3,0.5,0.7,0.6,1.2C372.3,13.9,372.5,15.2,372.4,16.1z"/>
<path fill="#C6A148" d="M370.7,27.4c0.2,0.2,0.3,0.5,0.4,0.7c0.3,0.6,0.6,1.5,0.7,1.9c0-0.5,0.1-1.1,0.2-1.6
	c0.1-0.7,0.2-1.9,0.2-2.7c0-0.8-0.4-2-1.1-3.4c-0.8-1.5-1-2.6-1-3.5c0-1-0.2-1.9-0.5-2.7c0-0.1-0.1-0.2-0.1-0.3
	c0,0.2,0.1,0.5,0.1,0.8c0.2,1.3,0,2.1-0.1,3c-0.1,0.5-0.2,0.9-0.3,1.5c-0.2,1.8,0.3,3.7,0.5,4.5C370,26.2,370.3,26.8,370.7,27.4z"/>
<path fill="#C6A148" d="M370,36c0.2,0.3,0.3,0.5,0.4,0.8c0.1-0.3,0.1-0.8,0.3-1.2c0-0.2,0.1-0.3,0.1-0.5c0.3-0.8,0.6-1.8,0.4-2.7
	c-0.2-1.1-0.7-2.2-1.5-3.6c-0.1-0.2-0.2-0.4-0.4-0.7c-0.7-1.3-1.6-2.9-1.8-4.7c0-0.5-0.1-0.8-0.1-1.2c-0.2,0.9-0.4,2.3-0.4,3.6
	c0.1,1.8,0.6,5.1,1.1,6.2C368.5,33.1,369.6,35.3,370,36z"/>
<path fill="#C6A148" d="M366.5,38.9c0.3,0.7,0.6,1.3,0.9,1.9c0.3,0.5,0.5,0.9,0.7,1.4c0.4,1,0.7,1.8,0.9,2.6c0,0.2,0.1,0.3,0.1,0.4
	c0.2-0.8,0.5-2.1,0.6-3.5c0.2-1.9-0.3-3.3-0.6-4.4c-0.2-0.6-0.8-1.7-1.4-2.8c-0.4-0.8-0.8-1.6-1-2.1c-0.5-1.2-0.7-3-0.7-3.9
	c0,0,0-0.1,0-0.1c0,0.6,0,1.2-0.1,1.9c-0.1,1.4-0.2,2.9,0,4.6C365.9,36.5,366,37.6,366.5,38.9z"/>
<path fill="#C6A148" d="M361.5,68.7l0.6-1.9c0.6-1.7,1.1-3.5,1.3-4.5l0.1-0.4c0.2-1,0.3-1.6-0.1-2.1c-0.5-0.7-1.1-1.5-2.5-2.6
	c-1.5-1.1-2.9-1.9-4.9-1.8c-1.9,0.1-3.5,0.7-5,2.1c-0.9,0.8-1.5,1.9-1.6,2.8c0.2-0.3,0.4-0.6,0.7-0.9c0.9-0.6,1.9-1.4,4.3,0.1
	c2.6,1.7,4.4,4.4,4.9,7.4c0.4,2.6,0.4,4.8,0.3,6.2C360.3,71.9,361.1,70,361.5,68.7z"/>
<path fill="#C6A148" d="M344.1,42.9c-0.5,1.5-0.7,3.9-0.6,5.4c0-0.1,0-0.1,0-0.2c0.2-0.9,0.5-2.2,2.6-4.2c2.3-2.2,4.2-2.1,5.4-2
	c1.3,0.2,3.4,1.7,4.6,2.9c1,1,2.3,2.9,2.8,4.8L359,50c0.5,1.7,1,3.8,1.1,5.1c0.8,0.5,3.3,2.1,4,3.3c0.1,0.1,0.1,0.3,0.2,0.4
	c0.1-0.7,0.3-1.8,0.3-2.1c0-0.2-0.2-0.4-0.7-0.8c-0.2-0.2-0.4-0.4-0.6-0.6l-0.1-0.1c-1-1-2.8-2.8-2.8-5.9c0-2.4,0.6-4.1,1.2-5.7
	c0.1-0.5,0.3-0.9,0.5-1.4c0.1-0.6-0.8-1.3-1.7-2c-0.1-0.1-0.3-0.2-0.4-0.3c-1.2-0.9-3.3-2.7-7.9-2.6C347.1,37.3,345,40.3,344.1,42.9
	z"/>
<path fill="#C6A148" d="M357.3,53.8c0.5,0.4,1,0.5,1.1,0.4c0.1,0,0.1-0.2,0.1-0.5c-0.1-1.3-0.9-3.7-1.7-5.5c-0.5-1-0.9-1.5-1.2-1.8
	c0,0.6,0.1,1.9,0.3,4.1C356.1,52.8,356.8,53.5,357.3,53.8z"/>
<path fill="#C6A148" d="M356.9,35.5c-0.1-0.4-0.5-0.9-0.8-1.3c-0.1,0.4-0.1,1.1-0.1,1.6c0.4,0.1,0.9,0.3,1.2,0.5
	C357.1,36,357,35.7,356.9,35.5z"/>
<path fill="#C6A148" d="M359.6,19.9c0.2,0.5,1.1,3,1.1,5c0,3-0.5,4.4-0.7,4.8c0.4,0.5,1.5,2.2,2,3c0.3-1,0.5-2.3,0.7-3.5
	c0.1-1.3,0.6-5.8,0.5-8.1c-0.1-2.3-0.7-5.5-1.1-7.6c-0.3-1.3-0.8-2.8-1.6-4.3c0.2,0.9,0.4,3.9,0.1,5.9
	C360.3,16.9,359.7,19.4,359.6,19.9z"/>
<path fill="#C6A148" d="M349.5,9.4c0.9,2.7,0.5,4.3,0,6.1c-0.4,1.7-0.1,2.5,0.2,3.2l0.1,0.2c0.2,0.6,1,1.9,1.5,2.7v0l0-0.1
	c-0.1-0.9,0.3-2.6,0.7-3.9c0.5-1.5,0.9-3.8,0-5.9c-1-2.3-2.7-4.5-3.7-5.7c-0.4-0.4-0.7-0.8-0.9-1.2c0.1,0.2,0.3,0.5,0.5,0.8
	C348.3,6.5,348.9,7.6,349.5,9.4z"/>
<path fill="#C6A148" d="M341.5,11.5c-0.6-0.6-1.5-1.8-2.4-2.1c-0.9-0.4-2.3-0.6-3.6-0.8l-0.7-0.1c-1.2-0.2-2.8-0.8-4.8-1.9
	c-0.8-0.4-1.4-0.8-1.8-0.9c0.3,0.2,0.6,0.4,0.9,0.5c1,0.5,2.9,1.9,4,2.9c1,0.9,2.7,2.5,4.1,3c0.7,0.2,1.5,0.2,2.4,0.2
	c0.7,0,1.3,0,2,0.1c0.4,0.1,0.8,0.2,1.1,0.2c-0.3-0.3-0.6-0.6-0.9-0.9L341.5,11.5z"/>
<path fill="#C6A148" d="M332.1,3.8c1,1,1.9,2.2,2.2,2.7c0.4,0.6,0.5,0.8,0.9,0.8c0.5,0,1.1,0,2.6,0.3c1,0.2,1.6,0.4,2.1,0.7
	c-0.3-0.8-0.5-1.6-0.5-2.2c-0.1-0.6-0.5-1.8-0.6-2c-0.2-0.2-2-1-3.6-1.4c-1.5-0.5-4.5-1-6.8-1.3c-1.8-0.2-3.1-0.4-3.7-0.4
	c0.6,0.1,1.8,0.3,3,0.5C329.8,1.9,331.1,2.8,332.1,3.8z"/>
<path fill="#C6A148" d="M336.6,0.5c1.6,0.6,2.8,1.9,3.4,2.9c0.5,0.9,0.9,2.8,1.2,4.1l0.1,0.3c0.2,1,0.7,2,1.5,2.9
	c0.4,0.5,1,1.1,1.4,1.5c-0.1-0.6-0.2-1.5-0.2-2.1c0-0.2,0-0.4,0-0.6c0-0.9,0-2-0.3-2.8c-0.3-0.9-1.3-2.1-2.6-3.4
	c-0.9-0.9-2.3-1.9-3.7-2.5c-0.7-0.3-1.6-0.5-2.3-0.7c0.2,0.1,0.4,0.1,0.7,0.2L336.6,0.5z"/>
<path fill="#C6A148" d="M343,2.6c0.9,1.2,1.6,2.1,2,3.3c0.4,1.1,0.4,2.7,0.5,4.2v0.4c0,1.5,0.5,2.8,1.2,3.7c0.4,0.6,0.9,1.4,1.2,2
	c0-0.4,0.1-0.8,0.1-1.1c0-0.3,0.1-0.6,0.2-0.9c0.1-0.5,0.3-1.1,0.3-1.8c0-1.2-0.7-3.5-1.9-6c-1.2-2.6-2.6-3.8-3.3-4.4
	c-0.5-0.4-1.6-1.1-2.4-1.5C341.6,1,342.4,1.8,343,2.6z"/>
<path fill-rule="evenodd" clip-rule="evenodd" fill="#C6A148" d="M311.2,13.1c0.8-0.6,1.2-1.1,1.3-1.2l0.1-0.1c0,0,0-0.1,0.1-0.1
	c-1.1,0.7-2.6,0.6-3.6,0.4l-0.8-0.2l0.8-0.2c2-0.6,3.7-2.5,4.2-3.2c0.2-0.3,0.3-0.6,0.4-0.9c-1.1,1.1-2.6,1.4-3.7,1.3l-0.6-0.1
	l0.5-0.3c2.2-1.4,3-2.6,3.7-3.9c0.6-1.2,0.4-2.6,0.2-3c0-0.1-0.1-0.1-0.1-0.1c0,0.1,0,0.2,0,0.3l0,0.1c0,0.6-0.1,1.3-1.4,2.5
	c-1.1,1-2.7,1.5-4.7,2c-0.5,0.2-1.1,0.3-1.7,0.5c-2.4,0.7-5.1,1.6-7.2,2.9c-2.7,1.7-6.2,4.8-7.4,6.2c-1.3,1.5-2.9,3.5-2.9,3.5
	l-0.4,0.5l-0.1-0.6c0,0-0.1-0.8-0.5-1.4c-0.2-0.4-0.6-0.5-1.1-0.7c-0.4-0.1-0.8-0.3-1.2-0.6c-0.8-0.5-0.9-1.2-1-2
	c-0.1-0.6-0.2-1.4-0.6-2.2c-0.9-2-3.3-1.6-3.3-1.6c-0.9,0.2-1.7,0.5-1.9,0.6c0.2,0.4,1.6,1.5,2.4,1.9l0.6,0.3l-0.7,0.2
	c-1.6,0.5-2.3,0.9-2.5,1.4c0.2,0.6,1.3,1.4,1.9,1.6c0.3,0.1,0.5,0.1,0.7,0.1c0.2,0,0.4,0,0.5,0.2c0,0.1,0.1,0.2,0,0.3l-0.1,0.2
	l-0.2,0c-1.4-0.1-2.7,1-2.8,1.7c0.1,0.4,1.6,1,3,1.3l0.9,0.2l-0.8,0.3c0,0-0.7,0.2-1.4,0.9c-0.6,0.6-1.1,2.1-1.1,2.4
	c0.3,0.2,1.9,0.4,2.5,0c2.3-1.3,2.7-2.8,3-3.6v0c0.1-0.3,0.1-0.6,0.2-0.8c0-0.4,0.1-0.8,0.4-0.9c0.3-0.1,0.6-0.1,0.8,0.1
	c0.5,0.4,0.6,1.4,0.5,2.2c-0.1,0.6-1.1,2.4-2.1,4.4c-0.6,1.2-1.3,2.4-1.6,3.3c-1.1,2.3-2.2,5-2.8,6.6l-0.5,1.4c-0.4,1.1-0.7,2-1,2.8
	L278,40c-0.2,0.9-0.5,1.6-0.6,2.5l-0.2,1.4l-0.3-1.4c-0.2-1.3-1.1-2.7-1.7-3.6l-0.2-0.3l-0.1-0.1l0.1-0.1c1.1-1.3,2-3,2.4-4.7
	c0.5-1.8,0.2-3.4-0.1-4.6c-0.3-1.3-1-2.1-1.4-2.2c-0.3-0.1-0.5-0.3-0.7-0.4c0,0.7-0.2,1.2-0.4,1.6l-0.4,0.8l0-0.9
	c-0.1-1.4-1.4-2.3-1.9-2.7c0,0-0.1-0.1-0.1-0.1c-0.2-0.1-0.3-0.2-0.4-0.3c0,0.2-0.1,0.5-0.2,0.8c0,0.1-0.1,0.3-0.1,0.4l-0.1,0.5
	l-0.3-0.4c-0.3-0.4-1-1-1.5-1.4l-0.2-0.2c-0.3-0.2-0.9-0.6-1.3-0.8c-0.1-0.1-0.3-0.1-0.4-0.2c-0.2-0.1-0.3-0.2-0.3-0.3
	c-0.1,0.2-0.1,0.4-0.1,0.6l-0.1,0.4l-0.3-0.2l-1.6-1.1c-1-0.7-1.4-1-1.8-1.6c-0.4-0.6-0.9-1.6-1-1.9c0-0.1,0-0.2,0-0.3
	c0-0.1,0-0.1,0-0.2c-0.4,0.4-0.9,1.7-1.4,3.9c-0.7,2.6-0.5,3.8-0.3,4.7c0.2,0.9,0.3,1.7,0.3,1.7l0,0.3l-0.3,0c0,0-0.5-0.1-0.8-0.1
	c-0.4-0.1-0.8-0.4-1.1-0.6l-0.1-0.1c0,0,0,0,0,0c0,0.2,0,0.4,0,0.6c0,0.8,0.2,2,0.6,2.9c0.4,1,0.9,1.7,0.9,1.7l0.3,0.5l-0.6-0.1
	c0,0-0.5-0.1-0.8-0.1c-0.2-0.1-0.4-0.1-0.6-0.1c0.1,0.1,0.1,0.3,0.3,0.4l0.1,0.1c0.4,0.5,1.4,1.8,2.3,2.6c0.9,0.9,1.7,1.4,1.7,1.4
	l0.6,0.5l-0.8,0c0,0-0.5,0-1-0.1c-0.3-0.1-0.6-0.1-0.8-0.1c0.2,0.2,0.5,0.6,0.9,1l1.2,1.3c1,1,2.2,1.4,4.3,1.4c2,0,3.4-0.8,4.5-1.4
	l0.1-0.1c1.3-0.7,1.5-0.6,2.2,0.5c0.7,1.2,1.2,3.2,1.5,4.3c0.2,0.7,0.3,1.9,0.2,3.4c0,1.2,0.1,2.4,0.2,3.4l0.1,0.5
	c0.1,1.6,0.5,2.8,0.8,3.4c0.1,0.2,0.3,0.7,0.5,1.2c0.3,0.8,0.6,1.7,1,2.6l0.6,1.5l-1-1.2c-0.2-0.3-0.6-0.6-1.2-1.1
	c-0.3-0.3-0.7-0.6-1.2-1c-0.3-0.3-0.6-0.4-0.9-0.6c-0.7-0.5-1.3-0.9-1.7-2.1c-0.6-1.7-0.4-2.4-0.1-3.2c0.1-0.3,0.2-0.7,0.2-1.1
	l0.1-0.5c0.1-1.1,0.1-1.4-0.5-3c-0.7-1.7-1.6-2.2-2.5-2.7c-0.8-0.4-1.7-0.3-2-0.1c-0.2,0.1-0.4,0.1-0.6,0.2c0.1,0.5,0.5,1.9,1,2.9
	c0.4,0.8,0.7,1.1,0.9,1.4c0.2,0.2,0.3,0.3,0.3,0.6c0.1,0.4,0,1.3,0,1.4l0,0.2l-0.2,0l-0.5,0l-0.1,0l-0.1-0.1c0,0-0.2-0.4-0.4-0.8
	c-0.2-0.3-0.5-0.6-0.8-0.9l-0.2-0.2c-1.1-0.5-2.9-0.4-3.4,0c-0.1,0.1-0.4,0.5-0.2,1c0.1,0.6,0.7,1.7,1.4,2.5
	c0.6,0.7,1.3,0.7,1.3,0.6l0.2,0l0.1,0.2l0.3,0.8l0.1,0.2l-0.2,0.1c-0.1,0-1.1,0.5-1.7,0c-0.1-0.1-0.2-0.2-0.4-0.3
	c-0.4-0.3-0.9-0.8-1.6-1.1c-0.7-0.3-1.5-0.3-2.2,0.2c-0.2,0.5-0.3,1.4,0.5,2.5c0.5,0.7,0.8,0.8,1,0.9c0.1,0,0.3,0.1,0.4,0.3
	c0.3,0.4,0.7,0.3,0.7,0.3l0.2,0l0.1,0.2c0.1,0.3,0.1,0.4,0,0.5l-0.1,0.1h-0.1c-0.6,0.1-0.8,0-1.1-0.2c-0.3-0.1-0.5-0.3-1.2-0.3
	c-1.3-0.1-2,0.3-2.5,0.7c0.7,1.2,2.4,3,4.7,3.3c2.2,0.3,4.8-1,5.5-1.9c0.8-1,1.1-1.2,2.5-1.5c1.2-0.2,3,0.9,6.1,3.8
	c1.8,1.8,2.2,3.1,2.7,4.5c0.2,0.6,0.4,1.2,0.7,1.9c0.5,1.1,0.8,1.8,1,2.4c0.3,0.6,0.5,1.1,0.7,1.6c0.6,1,1.7,2.8,2.5,4.1l0.5,0.7
	l-0.8-0.3c-1-0.4-3.8-1-5.3-0.6c-1,0.3-2.1,0.2-2.8-0.2c-0.5-0.3-0.9-0.7-1-1.2c-0.1-0.4-0.2-0.8-0.3-1.2c-0.2-0.9-0.4-2-0.9-3.2
	c-0.6-1.5-1.5-2.7-2.8-3.6l-0.5-0.3c-0.8-0.5-1.3-0.9-1.7-1.2c-0.4-0.3-0.7-0.4-1-0.4c0,0.2,0,0.5,0,0.8c0,0.3,0,0.6,0,1l0,0.7
	l-0.5-0.5c-0.8-1-2.2-1.7-2.8-1.9l-0.1-0.1c-0.4-0.2-0.6-0.3-0.8-0.3c0,0.1,0,0.1,0,0.2c0,0.3,0.1,0.8,0.4,1.3l0.4,0.7l-0.7-0.3
	c-1.9-1-2.9-1.1-3.6-1.2c-0.1,0-0.2,0-0.3,0c-0.5-0.1-1.1-0.1-1.4,0c0.6,0.8,1.8,1.7,2.3,2.1l0.2,0.1l0.5,0.4H262
	c-0.3,0-0.6,0.1-0.9,0.1c-0.2,0-0.4,0.1-0.7,0.1c-0.3,0.1-0.7,0.1-1,0.1c0.1,0.2,0.4,0.4,0.7,0.7c0.7,0.7,1.4,1.4,1.4,1.4l0.7,0.7
	l-0.9-0.3c0,0-0.3-0.1-1.1-0.1c-0.9-0.1-1.6-0.3-2.2-0.5c-0.3-0.1-0.4-0.2-0.6-0.2c0,0-0.1,0-0.1-0.1c0.3,0.6,0.8,1.4,1.1,1.8
	l0.6,0.7l-0.9-0.3c-0.2-0.1-0.8-0.2-1.6-0.4c-0.5-0.1-1.3-0.4-1.9-0.6c-0.2-0.1-0.4-0.1-0.5-0.2c-0.1,0-0.2-0.1-0.2-0.1
	c0.4,0.7,1,1.6,1.4,2l0.6,0.6l-0.8-0.2c-0.2,0-0.5-0.1-0.9-0.2c-0.6-0.2-1.5-0.4-2.3-0.6c-1.2-0.2-2.3-0.8-2.7-1
	c0.2,0.4,0.4,0.9,0.6,1.4c0.2,0.4,0.7,0.9,1,1.3c0.2,0.3,0.4,0.4,0.6,0.6l0.3,0.4l-0.5,0c-0.2,0-0.4,0-0.6-0.1c-0.1,0-0.3,0-0.4-0.1
	c0.3,0.5,1,1.3,1.2,1.6c0.7,0.8,2,1.8,2.6,2.3l0.2,0.2l1.1,0.6l-1.2-0.1c-0.4-0.1-1.1-0.1-1.4-0.1c1.2,1.5,4.3,3.2,5.3,3.7l0.7,0.4
	l-0.8,0.1l-0.1,0c-0.4,0.1-0.9,0.1-1.9-0.1c-0.3-0.1-0.6-0.1-0.8-0.1c0.1,0.1,0.2,0.4,0.7,0.8c1,0.9,4.4,2,4.5,2l0.5,0.2l-0.4,0.3
	c0,0-0.5,0.3-1.4,0.5c-0.5,0.1-0.9,0.1-1.2,0.2c-0.2,0-0.4,0-0.5,0.1c-0.3,0.1-0.4,0.2-0.5,0.2c0.5,0.6,2.7,1.5,3.9,1.8
	c1.3,0.3,2.8,0.3,2.8,0.3l0.6,0l-0.4,0.4c0,0-0.2,0.2-0.5,0.4c-0.6,0.4-0.8,0.6-0.9,0.7c0.2,0.1,0.7,0.3,2,0.3c1.4,0,3.1-1,3.1-1
	L268,91l-0.3,0.7c0,0-0.2,0.4-0.4,0.8c-0.2,0.4-0.7,0.9-1.1,1.3l-0.1,0.1c-0.1,0.1-0.3,0.3-0.4,0.5c0.8,0,3.4-0.2,4.3-0.7
	c0.8-0.4,1.5-0.9,2.1-1.6c0.3-0.3,0.8-0.8,1.2-1c0-0.5,0-0.9,0.1-1.4c0.1-0.7,0.3-1.3,0.9-2c0.1-0.2,0.1-0.3,0.1-0.4
	c0.1-0.4,0.1-0.7,0.7-1.8c0.8-1.4,1.6-1.7,2.6-2.1l0.2-0.1c-0.2-0.9,0-1.8,0.6-2.5c0.9-1.1,2.3-1.7,3.3-1.7c1.8-0.1,4.7,0.7,6.7,2.3
	c2.6,2,4.5,3.6,5,4l0.1,0c-0.3-0.6-0.9-1.9-1.4-3c-0.5-1.2-0.9-2.6-1-2.9c-0.1-0.1-0.4-0.5-1.1-1.2c-0.9-0.9-2.6-2.5-3.4-4.2
	c-1.7-3.5-2.5-5.2-2.6-7.7c-0.2-2.3,0.8-3.9,1.8-5.5l0.2-0.4c1.1-1.7,1.4-1.7,2.6-1.5l0.2,0c0.2,0,0.5,0.1,0.7,0.1
	c1.6,0.3,4.2,0.9,6.2-0.1c3.1-1.4,3.9-2.9,4.2-3.5c0-0.1,0.1-0.1,0.1-0.2c0.2-0.3,0.3-0.6,0.4-1c0,0,0-0.1,0-0.1
	c-0.1,0-0.1,0.1-0.2,0.2c-0.3,0.3-0.8,0.4-1.4,0.4c-0.1,0-0.3,0-0.4,0l-0.6,0.1l0.4-0.5c0.4-0.5,1.1-1.5,1.5-2.6
	c0.4-0.8,0.4-1.4,0.5-2c-0.5,0.3-1.1,0.4-1.6,0.4c-0.1,0-0.3,0-0.4,0l-0.5,0.1l0.3-0.5c0.6-0.8,1.2-2.4,1.3-4.1
	c0-1.2-0.2-2.2-0.6-3.1c-0.1-0.2-0.2-0.4-0.2-0.5c-0.2,0.4-0.4,0.6-0.7,0.8c-0.2,0.2-0.4,0.3-0.5,0.5l-0.6,1l0.2-1.2
	c0.1-0.7,0-1.5,0-2.1c-0.1-0.9-0.6-1.9-0.9-2.6l-0.1-0.3c-0.1-0.2-0.2-0.4-0.3-0.6c-0.1,0.7-0.5,1.2-0.7,1.5
	c-0.1,0.1-0.2,0.2-0.2,0.3c-0.2,0.3-0.5,0.5-0.7,0.7c-0.2,0.1-0.4,0.2-0.5,0.4c-0.4,0.5-0.9,0.5-0.9,0.5l-0.2,0l0-0.2
	c0,0-0.2-0.9-0.3-1.3c0-0.1,0-0.2,0-0.3c-0.3,0.7-0.7,1.1-1.1,1.4c-0.3,0.3-0.7,0.7-0.9,1.1c-0.1,0.1-0.2,0.2-0.2,0.3
	c-0.3,0.3-0.7,0.6-0.7,0.6l-0.3,0.1l-0.1-0.3c0,0-0.1-0.4,0-1c0-0.1,0-0.2,0-0.3c-0.2,0.2-0.4,0.3-0.6,0.4c-0.4,0.3-0.8,0.6-1.3,1.1
	c-0.7,0.8-0.9,1.4-1.1,2.1l-0.1,0.3c0,0-0.1,0.4-0.1,0.4l-0.3-0.3c-0.4-0.4-0.9-0.8-1.3-0.9c-0.3-0.1-0.6-0.3-0.8-0.4
	c-0.2-0.1-0.3-0.2-0.4-0.3c-0.1,0-0.2-0.1-0.2-0.1c0.1,0.2,0.1,0.5,0.1,0.9c0,0.8,0,3.8,0,5.9c0,1.6,0.5,2.5,1.3,3.8
	c0.2,0.3,0.4,0.7,0.6,1c1.1,2.1,1,3.1,0.2,4.3c-0.7,1.2-1.2,2.1-1.7,3.5l-0.2,0.6l-0.2-0.6c-0.2-0.6-0.5-1.3-0.9-2.1
	c-0.6-1.3-1.3-2.9-1.8-4.5c-0.8-2.7-1.4-6.9-1-10.1c0.4-3.1,1-5.1,2.9-8c1.8-2.6,2.8-3,4.5-3.6l0.4-0.1c1.9-0.7,3.5-1.9,5.5-3.6
	c1.6-1.3,3.6-2.5,4.8-3.1c0.3-0.2,0.5-0.3,0.7-0.4c0.5-0.3,0.9-0.5,1.1-0.7c-1.1,0.2-2.4,0.1-3.6,0.1c-0.4,0-0.8,0-1.1-0.1l-0.7,0
	c-1.5,0-2.7-0.1-4.6,0.5c-2.1,0.7-3.2,2.3-3.6,3c-0.2,0.3-0.3,0.6-0.4,0.7c1.2-0.9,2.9-1.4,4.1-1.4l0.8,0l-0.6,0.5
	c-0.3,0.2-1,0.6-1.7,1.1c-0.8,0.5-1.7,1.1-2.1,1.4c-0.9,0.7-1.7,1.4-2.9,2.9l-0.4-0.2c1-4.4,4.4-10.4,5.9-12.5
	c1-1.4,2.4-2.9,4.1-4.6c0.9-0.9,1.4-1,2.6-0.5c0.3,0.1,0.6,0.3,1,0.5c1.3,0.6,3.3,1.6,4.8,1.8c1.7,0.2,3.2-0.1,4.1-0.4
	C306,16.8,308.3,14.6,311.2,13.1z M269.8,39.7c-1.7,1.6-3.1,1-3.9,0.7c-0.1,0-0.1-0.1-0.2-0.1l-0.9-0.4l1-0.1c0.1,0,0.3,0,0.4,0
	c0.8-0.1,1.8-0.2,2.5-0.8c0.9-0.8,0.9-1.3,0.4-2.2c-0.6-0.8-1.1-0.6-1.6-0.2c0,0-0.1,0.1-0.2,0.1c-0.4,0.3-0.9,0.7-1.9,0.6
	c-0.7-0.1-1.1-0.3-1.4-0.4c-0.2-0.1-0.3-0.1-0.5-0.2l-0.6-0.1l0.5-0.3c0.4-0.2,0.7-0.2,0.9-0.1c0.2,0.1,0.4,0.1,0.7,0
	c0.7-0.2,1.2-0.7,1.5-1c0.1-0.1,0.2-0.2,0.3-0.3c-0.3-0.1-0.7-0.4-1.2-0.6c-0.3-0.1-0.5-0.2-0.8-0.2c-0.4-0.1-0.8-0.2-1.4-0.5
	c-0.9-0.5-1.2-0.9-1.3-1.1l-0.7-1l0.9,0.6c0.6,0.2,1.3,0.6,2.2,0.7l0.2,0c0.3,0,0.5,0.1,0.7,0.1c-0.4-0.6-0.9-1.4-1.2-2.2
	c-0.5-1.3-0.6-2.4-0.7-3.7l0.1-1.8L264,27c0.1,0.7,0.6,1.6,1.5,3.1l0.1,0.1c0.9,1.6,1.8,2.7,2.9,3.9l0.3,0.3l0.2,0.2
	C270.1,36,271.7,37.9,269.8,39.7z M273.5,36c0.4,1.5,0.6,2.6,0.6,2.7l0.1,1.2l-0.5-1.1c0,0-0.8-1.3-1.9-2.7l-0.4-0.6
	c-1.2-1.5-3.1-3.8-3.7-4.7c-0.6-0.9-1.1-1.9-1.4-2.8l-0.3-1.3l0.8,1.1c0.6,0.8,1.5,1.7,2.1,2.2c0-0.2,0.1-0.3,0.1-0.4
	c0.1-0.2,0.2-0.5,0.2-0.9c0-0.8,0-1.2-0.2-1.6l-0.3-0.7l0.7,0.4c0.6,0.4,1.1,1,1.3,1.6c0.2,0.6-0.4,2.1-0.5,2.6
	c0.2,0.3,0.7,0.8,1.1,1.3c0-0.3,0.1-0.6,0.3-1c0.1-0.1,0.2-0.2,0.2-0.3c0.4-0.6,0.9-1.3,1-2.2l0-1.4l0.5,1.3
	c0.3,0.8,0.2,1.6,0.1,2.4l0,0.2c-0.1,0.7-0.7,1.6-0.9,1.9l0.8,1.1c0.3-0.3,1-0.9,1.3-1.5c0.9-1.5,1.1-2.1,1.1-2.4l0.1-1.1l0.4,1.1
	c0.2,0.6,0.2,2-0.2,2.8C275.3,34.5,274.5,35.4,273.5,36z M254.5,76.1l-1.1-0.9l1.3,0.5l1.6,0.5c1,0.3,1.9,0.6,2.6,0.7
	c0.3,0.1,0.6,0.2,0.9,0.2c1.1,0.3,2.5,0.7,3.3,0.6c0.4,0,1.1-0.1,1.4-0.1c-0.4-0.5-1.8-1.8-2.7-2.4l-1.3-0.9l-0.8-0.6l1,0.1
	c0.1,0,1.6,0.2,3.1,1.4c1.5,1.1,2.7,2.4,2.9,2.7C267,78,268,78,268.4,78c0.7,0,1.1,0,1.2-0.1c0,0,0,0,0-0.1c-0.4-0.5-2.5-2-3.4-2.4
	l-2-1l-0.9-0.4l1.1,0c0.1,0,1.1,0.1,2.1,0.4c0.4,0.2,0.7,0.3,1,0.5c0.5,0.2,0.8,0.4,1,0.4c0.1,0,0.1,0.1,0.3,0.1
	c0.1,0.1,0.5,0.2,0.7,0.2c0,0-0.3-1.3-0.7-1.9c-0.4-0.5-2.1-1.4-3.1-1.8l-1.8-0.8l-1.3-0.5l1.5,0.1c0.1,0,2.6,0.5,3.4,0.9
	c0,0,0,0,0.1,0c0-0.1-0.1-0.2-0.1-0.3c-0.3-0.4-1-1.3-1-1.3l-0.9-0.9l1.2,0.5c0.1,0,1.5,0.6,2.3,1.5c0.8,0.9,1.9,2.2,2.3,3.7
	c0.2,0.8,0.2,1.4,0.2,1.8c0,0.3,0,0.5,0.1,0.6c0,0,0,0,0,0c0.1,0,0.2-0.2,0.5-0.9c0.3-0.8,0.3-1.8,0.2-3.1c-0.1-1-0.2-1.5-0.3-1.9
	c0-0.2,0-0.3-0.1-0.5l-0.3-1.4l0.8,1.3c0.4,0.7,1.4,2.1,1.6,3.8c0.2,1.6-0.1,3.8-1.6,4.9c-1.2,0.9-3.4,1.2-6.1,0.8
	c-2.4-0.3-5.3-1.1-6.9-1.8C257.2,77.5,255.3,76.6,254.5,76.1z M274.3,81.6c0,0-0.6,0.5-1.1,1.2c-0.1,0.1-0.1,0.2-0.2,0.3
	c-0.4,0.5-0.7,0.9-0.6,1.4c0,0.1,0,0.2,0.1,0.4c0.1,0.7,0.3,1.7-0.1,2.6c-0.5,1-1.1,1.5-1.2,1.6l-0.6,0.5l0.2-0.7
	c0.2-0.7,0.6-1.9,0.4-2.3c-0.1-0.4-0.4-0.7-0.6-0.7c-0.1,0-0.3,0.2-0.3,0.4c-0.1,0.3-0.2,0.7-0.2,0.9c-0.1,0.5-0.2,1-0.7,1.6
	c-0.8,0.9-1.2,1.1-1.2,1.2l-1,0.7l0.6-1c0.4-0.9,1.1-2.4,1.1-2.7c0-0.2,0-0.2,0-0.3c-0.1,0-0.2,0.1-0.4,0.4l-0.2,0.2
	c-0.8,0.9-1.7,1.9-4,2.2c-2.4,0.4-3.2-0.1-3.3-0.2l-0.6-0.4l0.7-0.1c0,0,2.3-0.2,3.6-0.7c1.1-0.5,2.3-1.4,2.9-1.9c0,0,0,0,0,0
	c-0.2,0-0.4,0-0.7,0.1c-0.9,0-2.2-0.1-2.3-0.1l-1.4-0.2l1.4-0.3l1.5-0.4c0.1,0,0.3-0.1,0.5-0.1c0.5-0.1,1-0.3,1.6-0.4
	c0.6-0.1,1.8-0.3,2.5-1c0.2-0.1,0.3-0.3,0.4-0.4c0.1-0.1,0.2-0.2,0.2-0.2c-0.7,0.1-1.7,0.1-3,0.1c-0.5,0-0.9,0-1.2,0
	c-0.6,0-1.1,0-1.2,0.1c-0.3,0.2-2.6,0.9-3.7,1c-1.2,0.1-2.5,0.2-3.3-0.7l-0.5-0.5l0.7,0.1c1.5,0.1,3.4,0.1,4.6-0.5c0,0-0.1,0-0.1,0
	c-0.1,0-0.3,0-0.5-0.1l-0.3,0c-1-0.1-3-0.4-4.6-1.5c-1.8-1.2-1.8-1.6-1.7-1.8l0.1-0.3l0.2,0.2c0,0,1.4,1.1,4,1.7
	c2.8,0.6,5.4,1,7.6,1.1c4.1,0.1,5.7-0.6,5.8-0.6l1.4-0.7L274.3,81.6z M295,45.1c0-0.1,0.2-1.8,0.3-1.9l0.3,1.7
	c0.2,1.4,0,2.5-0.2,3.1c0,0.2-0.1,0.3-0.1,0.5c-0.1,0.3-0.2,0.8-0.2,0.8c0.1,0,0.4-0.1,1.1-0.9c0.7-0.8,1-1.5,1.2-2.1l0.4-1.1
	l0.1,1.3c0,0,0,0.1,0,0.2c0,0.4-0.1,1-0.5,1.9c-0.4,1-1.3,2-2.2,2.6c-0.5,0.4-0.8,0.4-1,0.4c-0.1,0-0.1,0-0.1,0
	c-0.2,0.2-0.8,0.9-1.2,1.5l-0.5,0.7c-0.2,0.2-0.2,0.4-0.2,0.4c0.1,0.1,0.4,0.2,0.8,0.1c0.8-0.2,2.1-0.7,2.7-1
	c0.7-0.4,1.4-0.5,1.5-0.5l0.5-0.1l-0.3,0.5c0,0-0.4,0.6-1.4,1.3c-1,0.7-2.5,1.2-3.2,1.2c-0.2,0-0.5,0-0.7,0c-0.2,0-0.4,0-0.6,0
	c0.6,0.8,2.4,1.4,3,1.5c0.2,0,0.5,0,0.7,0c0.4,0,0.7,0,0.8,0.2l0.1,0.2l-0.2,0.1c-1.6,0.8-3,0.2-3.9-0.1l-0.2-0.1
	c-0.8-0.3-1.4-1.2-1.7-1.5c-0.1,0.1-0.4,0.2-0.7,0.4c-0.3,0.2-0.5,0.4-0.7,0.5c-0.3,0.2-0.5,0.4-0.7,0.5l-0.6,0.2l0.2-0.5
	c0.2-0.5,1-1.6,2.8-3.6l0.8-0.9c0.9-1.1,1.9-2.2,2.7-3.5C294.5,47.4,294.8,45.8,295,45.1z M284.2,49.8c0-0.4-0.1-0.8-0.1-1.2
	c0-0.4-0.1-0.7-0.1-1l0-0.8l0.4,0.7c0.2,0.3,0.3,0.7,0.4,1.1c0.1,0.2,0.1,0.4,0.2,0.6c0.2,0.7,1.1,2.7,2,3.1c0.2,0.1,0.3,0.1,0.5,0
	c0.6-0.4,1-0.9,1.1-1.5c0.1-0.3,0-0.6-0.2-0.8c-0.6-0.6-1.1-1.3-1-2.7c0.1-1.3,0.1-1.6,0.3-2l0.2-0.5l0.3,0.5c0.2,0.5,0.4,1,0.6,1.5
	l0.2,0.4c0.2,0.5,0.7,1.4,1.2,1.5c0.1,0,0.3,0,0.5-0.2c0.7-0.8,0.5-1.4,0.1-2.3l-0.1-0.2c-0.3-0.7-0.1-1.5,0.4-2.2l0.4-0.6l0,0.7
	c0,0.6,0.1,1.3,0.3,1.6c0.2,0.2,0.4,0.4,0.5,0.3c0.1,0,0.2-0.2,0.3-0.4c0.1-0.4,0.1-0.8,0.1-1.1c0-0.4,0-0.9,0.3-1.2
	c0.4-0.4,0.8-0.7,0.9-0.8l0.5-0.4l-0.1,0.6l-0.3,1.6c-0.1,0.4-0.3,1.8-1.5,4c-1,1.9-2.2,3.6-3.2,4.6c-1,1-2.4,1.6-3.6,0.4
	C284.4,52.1,284.2,50.6,284.2,49.8z M300,12.6c-0.8,0.4-1.6,1-1.9,1.2c0.1,0.1,0.2,0.2,0.3,0.3c0.1,0.1,0.2,0.2,0.3,0.4
	c0.3,0.4,0.7,0.9,1.2,1.1l1.1,0.4l-1.3,0.1c-1.4-0.1-1.8-0.4-2.5-0.9l-0.1-0.1c-0.7-0.5-1.6-0.8-2.1-0.6l-0.9,0.4l0.7-0.8
	c0.3-0.4,1.2-1.3,2.7-2.2c1.8-1.1,3.1-1.9,4.1-2.3c1.1-0.5,3-1.2,4.4-1.7c0.6-0.2,1.2-0.5,1.7-0.7c0.7-0.3,1.2-0.5,1.6-0.6l0.6-0.1
	l-0.4,0.5c-0.6,0.6-1,1-2.9,2.1c-1.1,0.6-1.7,0.9-2.1,1.1c0.4,0.1,1,0.1,2.2-0.1l0.3-0.1l0,0.3c0,0.1,0,0.2-0.2,0.4
	c-0.3,0.4-1.3,0.7-2.2,0.8c-1,0-1.7-0.3-2-0.5l-1,0.5c0.5,0.4,1.8,1.4,4.4,1.7l1.6,0.1l-1.6,0.4C304.4,14.4,302.3,14,300,12.6z"/>
<path fill-rule="evenodd" clip-rule="evenodd" fill="#C6A148" d="M362.4,39.9l0-0.5c-0.1-1-0.2-2.2-0.5-3.1
	c-0.5-1.5-1.1-2.8-1.8-3.7l-2-2.9l-0.1-0.2l0.1-0.1c0,0,0.6-0.7,0.8-1.7c0.2-0.8,0.6-3.1,0-4.9c-0.5-1.6-1.4-3.7-2.3-5.8l-0.3-0.7
	c-0.5-1.2-0.9-2.3-1.2-3.2c-0.3-0.9-0.6-1.7-0.8-2.2c-0.6-1.1-1.5-2.5-1.9-3.1c-0.2-0.3-0.4-0.5-0.6-0.7c0,0,0,0.1,0.1,0.1
	c0.4,0.5,0.9,1.5,1.5,3c0.6,1.4,1.3,3.6,0.8,5.9c-0.4,1.9-0.6,2.5-0.9,3.2l-0.1,0.3c-0.3,0.8-0.4,2-0.3,2.6l0.3,1.5
	c0.2,0.1,0.5,0.3,0.7,0.6l0.1,0.1c0.4,0.5,1.1,1.3,1.3,2.2c0.2,0.8,0.2,2.3-0.4,3c-0.3,0.4-0.7,0.6-1.2,0.6c-0.9,0-1.3-0.4-1.4-0.7
	c-0.1-0.3-0.1-0.6,0.1-0.8c0.1-0.1,0.3-0.1,0.4-0.1c0.1,0,0.3,0,0.5-0.1c0.2-0.1,0.5-0.3,0.5-0.9c0.1-1-0.6-1.9-1.3-2.3
	c-0.6-0.4-1.8-0.9-3.4-0.8c-1.6,0-3.1,0-5.1-0.7c-0.4-0.1-0.8-0.3-1.2-0.4c0.2,0.8,0.3,1.7,0.4,2.5c0.7,0.6,1.3,1.3,2.1,2.2
	c1.8,2.1,4,3.4,6.2,3.7c1,0.1,1.9,0,2.5-0.2c0.7-0.2,1.2-0.3,1.6,0.1c0.7,0.5,1.2,1.3,1.7,2.2c0.5,0.8,1.8,3.6,2,4
	c0.2,0.2,1.4,1.1,2.1,1.8l0.1,0.2c0.3,0.2,0.6,0.6,0.8,0.7C362.4,40.1,362.4,40.1,362.4,39.9z"/>
<path fill-rule="evenodd" clip-rule="evenodd" fill="#C6A148" d="M349.4,20.9c-0.5-0.9-1.9-1.4-2.3-1.5c-0.3-0.1-0.8-0.1-1.5-0.1
	c-0.9,0-2.1-0.1-3.4-0.2c-0.4-0.1-0.8-0.2-1.3-0.3c0.5,0.9,1,1.8,1.3,2.7c0.9,0.5,1.9,0.8,2.7,1c1,0.2,2,0.3,3,0.3
	c0.7,0,1.3,0.1,1.7,0.2c0.5,0.1,0.9,0.1,1,0.1C350.5,22.7,350.1,22,349.4,20.9z"/>
<path fill-rule="evenodd" clip-rule="evenodd" fill="#C6A148" d="M339.4,16.7c0.9,0.4,1.9,0.8,2.8,1c0.9,0.2,1.8,0.1,2.6,0.1
	c0.3,0,0.6,0,0.9,0c0.5,0,1,0.1,1.3,0.2c-0.4-0.7-1.2-1.8-2-2.6c-1-0.9-2.8-1.2-4.2-1.3c-1.3,0-3.2-0.3-4.5-0.9
	c-1-0.5-1.8-1.1-2.6-1.6l-0.5-0.3c-0.7-0.5-1.3-0.7-1.7-0.8c0,0,0.1,0,0.1,0.1c0.5,0.4,1.3,1,2.4,1.8c0.7,0.5,1.3,1.1,1.9,1.7
	c1.2,0.7,2.3,1.6,3.2,2.6C339.3,16.5,339.4,16.6,339.4,16.7z"/>
<path fill-rule="evenodd" clip-rule="evenodd" fill="#C6A148" d="M305.9,93.6c-1.6,0-3.1,0.2-5.1,0.6l-0.7,0.1l-0.5,0.1
	c-2.6,0.4-3.8,0.6-4.9,0.4c-0.4-0.1-0.7-0.2-1-0.3c0.2,0.2,0.4,0.4,0.6,0.7c0.7,0.6,2.5,1.6,3.5,1.8l0.5,0.1l-0.4,0.3
	c-0.5,0.4-1.3,1.3-1.2,2.4c0.2-0.3,0.4-0.6,0.8-0.9l0.2-0.1c0.9-0.6,2.2-1.5,4.3-1.4c2.1,0.1,6,0.4,9,2.3c2.8,1.7,3.8,2.9,7.7,7.2
	l0.5,0.5c4.3,4.7,8,8.5,9.6,9.8c1,0.8,2.3,1.9,3,2.5c-0.4-1.2-0.7-3.3,1-4.7c1.2-1,2.4-1.3,3.2-1.3c-0.8-0.5-2-1.2-2.9-1.9
	c-1.8-1.3-6.3-4.7-10-8.3c-0.7-0.7-1.4-1.4-2.1-2.1C314.6,100.8,309.4,98.2,305.9,93.6z M330.1,110.8l0.1,0l0.1,0.1
	c0.3,0.3,0.8,0.6,1.1,0.9l0.2,0.2l0.4,0.4l-0.5,0.1c-0.5,0.1-1.7,0.3-2,1.1l-0.3,0.7l-0.1-0.8C328.7,112,329.2,111.1,330.1,110.8z
	 M327.8,109.2l0.1,0l0.1,0.1c0.1,0.1,0.2,0.2,0.3,0.2c0.2,0.1,0.4,0.3,0.5,0.4l0.2,0.3l-0.4,0.1l0,0c-0.4,0.1-1.1,0.5-1.5,1.1
	c-0.3,0.6-0.3,0.8-0.3,0.8s-0.1-0.5-0.2-0.9C326.7,110.4,327,109.4,327.8,109.2z M325.3,107.2l0.2-0.2l0.2,0.2
	c0.3,0.3,0.7,0.7,0.7,0.7l0.3,0.2l-0.3,0.2c0,0-0.9,0.5-1.2,1.2l-0.4,0.8l-0.1-0.9C324.6,108.5,324.8,107.6,325.3,107.2z"/>
<path fill-rule="evenodd" clip-rule="evenodd" fill="#C6A148" d="M302.5,87.3c-1.6-0.5-3.6-0.8-5.5-0.7c-3.3,0.2-6,0.9-7,1.3
	c-1.3,0.5-2.7,0.2-3.9-1c-1.1-1.1-3-2.5-4.8-2.7c-1.7-0.2-3.2,0.2-4.2,1.2c-0.8,0.8-1.1,1.5-1.2,1.7c0.1,0,0.3,0.1,0.4,0
	c0.2,0,0.5,0.1,0.8,0.2c0.1,0.1,0.3,0.1,0.4,0.2l0.1,0c0.4,0.1,1.3,0.3,2.4,0c1.5-0.4,2.4-0.2,3-0.1c1.1,0.3,1.4,0.9,1.4,0.9
	l0.3,0.4l-0.5-0.1c0,0-1-0.1-2-0.1c-0.9,0-2.3,0.5-2.8,1.4c-0.5,0.8-0.9,2.1-0.9,2.5c0.3,0.2,1.6,0.5,2,0.5c0.4,0,1.2-0.1,1.6-0.2
	c0.2-0.1,0.7-0.3,1.1-0.5c0.3-0.1,0.5-0.2,0.7-0.3c0.7-0.3,1.6-0.3,1.7-0.3h0.3l-0.1,0.3c0,0.2-0.2,0.5-0.7,0.6
	c-0.3,0.1-1.7,0.8-2,1.1c-0.8,0.8-1.1,3.3-1.1,3.8c0.4,0.2,2.6,0.3,3.4,0c1.2-0.6,2-2.8,2-2.8l0.1-0.3l0.3,0.2
	c0.2,0.2,0.6,0.7,0.3,1.4c-0.1,0.1-0.1,0.2-0.1,0.3c-0.2,0.6-0.5,1.3-1.3,1.9c-0.9,0.6-1.4,1.2-1.7,2.4c-0.2,1.1,0,1.6,0.1,1.8
	c0.3,0,1.3-0.3,2.1-0.9l0.2-0.1c1-0.7,2.9-1.9,3-5.3c0-1.6-0.3-2.5-0.5-3.2c-0.3-0.9-0.5-1.6,0.6-2.3c1.2-0.8,3.7-1.2,5.6-1.3
	c1.5-0.1,3.4,0,5.5,0.9c1.1,0.4,1.9,0.8,2.6,1.2c-0.2-0.4-0.5-0.8-0.7-1.2C303.1,89.1,302.8,88.2,302.5,87.3z"/>
<path fill="#C6A148" d="M376,106.9l0.3-7.5c-4.1,2.5-8.7,4.5-19.2,4.6c-5,0-10-0.9-13.9-1.9c1-1.9,2.7-4.7,2.2-7.6
	c-1.8-1-7.7-1.2-13,1.4c-2.4-1.8-5-0.3-7.3,0c-2.1,0-3.9-0.7-5,0.5c-1.4-0.8-3.6-1.7-5.7-2.2c-2.2-0.6-8.6-0.9-9.3-0.4
	c-0.1,1.1-0.3,2.9,0.1,4.3c-8.5,1.4-15,5.2-23.8,5.9c-6.3,0.5-9.1-0.7-9.1-0.7l3.2,7l-2.7,6.5c0,0,4.9,1.2,10.7,0.1
	c6.7-1.3,13.1-4.2,20.4-5.9c1.4-0.3,5.5-1,7.1-1.2c2.9-0.1,5.4-0.3,8.1-0.3c1.4,2.5,3,2.7,4.2,2.6c2.2-0.5,5.7,0.7,7.5,0.7
	c0.7-0.1,1.2-0.4,1.5-0.7c6.1,1.5,11.5,4.6,24.6,4.9c11.9,0.5,21.5-4.1,23.5-5.7L376,106.9z"/>
<path fill="#A90D22" d="M318.9,104.5c-0.4-2.3,0.6-6.5,2.3-7.2c1.4-0.6,2.7,0.1,4.4,0c1.7-0.1,2.3-0.9,4-0.8
	c1.7,0.1,1.5,0.4,1.5,0.4s-1,0.9-1.6,1.8c-0.8,1.2-1.8,3.7-1.5,6.7c0.4,3.2,1.2,4.6,2.3,5.4c0,0,0.5,0.3,1.2,0.3
	c0,0-0.1,0.6-2.1,0.4c-1.9-0.2-3.1-0.9-4-0.9c-0.9,0-2,0.3-3.1,0C320.9,110.3,319.5,108.3,318.9,104.5z"/>
<path fill="#A90D22" d="M376,106.9l0.2-5.5c-4.1,2.5-8.6,3.9-19.1,4c-5.2,0-10.4-0.9-14.2-1.9c-0.3,2.2-0.5,5.4-2.2,6.6
	c-1.3,1-2.3,1.4-4.5,1.5c4.9,1.5,10.5,3.7,20.9,4.1c11.9,0.5,20.4-4.2,22.4-5.4L376,106.9z"/>
<path fill="#A90D22" d="M317.6,104.5c-0.2-1.3-0.1-3,0.5-4.7c-3.5-0.6-8.1-1.2-12.7-0.3c-7.7,1.4-14.8,5.2-23.6,5.9
	c-6.3,0.5-8.7-0.4-8.7-0.4l2.4,5.3l-2.2,5c0,0,4.3,1.4,10.4,0.1c6.5-1.4,13.3-4.1,20.6-5.8c1.4-0.3,5.7-1,7-1.1
	c2.6-0.1,4.8-0.2,7.2-0.2C318.2,107.2,317.8,105.8,317.6,104.5z"/>
<path fill="#A90D22" d="M343.8,95.6c-1.4-0.7-5-0.5-8,0.5c-1.1,0.4-2.2,0.8-3.3,1.4c-0.4,0.3-1,0.8-1.3,1.3
	c-0.8,1.1-1.9,3.7-1.6,6.7c0.2,1.9,0.9,3.4,1.5,4.2c5.8,0.9,7.2,0.3,8.9-1.2c1.1-1.3,1.3-4.7,1.3-5.5
	C341.9,101.7,344.3,97,343.8,95.6z"/>
<path fill="#A90D22" d="M318.6,98.5c0.2-0.3,0.4-0.8,0.6-1.1c-4.1-2-7.7-2.7-12.6-2.5c0,0.8,0,2,0.2,2.9
	C311,97.5,315.3,98,318.6,98.5z"/>
<path fill="#C6A148" d="M320.7,27.2c0,0.3,0.2,0.7,0.3,1.1c0,0,0.1,0.2,0,0.2c0,0-0.2,0.9-0.2,1c0,0-0.1,0-0.1,0l-2.2,7.1
	c-0.4,1.4-0.9,3-1.5,4.2c1,0,2,0,3,0c-0.4-0.9,0.3-2.4,0.5-3.3c0.1-0.2,0.1-0.6,0.3-0.8h4.1c0,0.1,0.1,0.3,0.1,0.3
	c0.2,1.1,1.1,2.6,0.7,3.8c1,0,2.1,0,3.2,0c-0.6-0.9-0.9-2.1-1.2-3.1l-2.1-6.7c-0.1-0.6-0.5-1.5-0.5-2.1c0-0.4,0.1-1.2,0.2-1.6
	L320.7,27.2L320.7,27.2z M323,29.8l1.3,4.3h-2.6L323,29.8z"/>
<path fill="#00291A" stroke="#00291A" stroke-width="2.590000e-002" d="M321.4,17.3c2.8-0.2,5.5,0.4,7.5,1.2c2.8,1,5.1,2.5,8.9,2.3
	c0.2,0,0.5,0.1,0.8,0c0.3-0.2,1.1-1.5,1.5-1.8c0.2,0.4,0.8,0.8,1,1.2c0.8,1.3,1.2,3.6,0.3,4.9c-0.2,0.3-0.3,0.5-0.7,0.7
	c-0.8,0.5-1.7,0.8-3.1,0.8c0.2,0.6,0.5,1.1,0.6,1.8c0.8,2.5,0.6,5.4-2.1,5.9c-1.6,0.3-2.9-0.3-4.1-0.5c0,0-0.1-0.2-0.1-0.1
	c0.5-0.7,0.9-1,1.2-2c0.9-4.2-2.7-7.3-5.6-8.5c-1.3-0.6-2.7-0.7-4.5-0.8c-0.9,0-2,0-2.8,0.2c-4.1,1-7.5,4.1-8.8,7.8
	c-1.3,3.6-1.1,6.7,0.6,9.7c1.8,3.2,5.3,5.7,10.2,6c1.3,0.1,2.8,0,3.9-0.4c1.3-0.5,2-1.3,2.8-2.2c0.4,0.1,0.8,0.1,1.2,0.3
	c1,0.4,2,1.5,2.1,2.8c0.2,1.6-0.7,2.4-1.6,3.1c5.7,2.2,10.6,6.7,12.7,12.4c0.9,2.1,0.8,4.9,1.9,6.8c0.7,1.3,1.5,1.2,3.4,1.2
	c0.2,0.4,0.5,0.9,0.5,1.4c0.3,2.2-1.6,4.8-3.6,4.7c-0.7-0.1-1.3-0.6-1.8-0.9c-0.4,1.6-1.1,2.9-1.8,4.2c-1.7,3-3.7,5.5-6.5,7.5
	c-6.7,4.8-16.9,5.2-24.3,0.7c-1.7-1-5-3.9-7.8-3.4c-1.1,0.2-1.8,1.1-2.8,1.3c-0.6-0.8-1.4-1.6-1.7-2.6c-1-3,0.9-5,3.3-5.6
	c-1.4-5.5,0.3-10.8,4.7-12.6c1.2-0.5,2.6-0.5,4.1-0.7c-0.3,0.7-0.9,1.2-1.3,1.9c-0.7,1.1-1.3,2.6-1.5,4.1c-0.4,3,0.5,5.6,1.5,7.5
	c1,2,2.5,3.8,4.3,4.9c4.6,2.9,12.7,3.4,17.5,0.4c3.1-2,5.5-5.1,6.5-9.1c0.3-1.5,0.7-3.9,0.5-5.5c-1.1-6.7-8.2-15.2-16.9-13.6
	c-1.5,0.3-3,0.8-4.2,1.4c-1.1,0.7-2,1.8-2.8,2.7c0,0-0.1-0.1-0.2-0.1c-0.3-0.6-0.7-1.1-0.8-1.7c-0.8-3.1,0.6-5.5,2.4-6.9
	c-1.3-0.3-2.3-1.1-3.4-1.7c-4.2-2.5-6.7-6.7-7.7-12.4c-1.5,0.4-4,0.6-4.4-0.9c0,0,0-0.1,0-0.2c0-0.1-0.1-0.4,0-0.6
	c0.2-1.2,0.9-2.1,1.4-3c0.3,0.1,0.5,0.3,0.8,0.4c0.9,0.2,2-0.8,2.4-1.2c1.2-1.3,1.7-2.8,2.7-4.4C310.1,21.7,315.2,17.7,321.4,17.3
	L321.4,17.3z"/>
<path fill="#C6A148" d="M318.9,60.6c0.3,0.3,0.5,0.9,0.5,1.5l0,12.3c0,1.2,0.1,2.6-0.3,3.5l3.5,0c-0.3-0.3-0.4-0.5-0.4-0.9v-6.1
	c1,0.1,2.8-0.1,3.8-0.1c0.9,0,2-0.3,2.7-0.6c1.3-0.5,2.1-1.7,2.5-3.2c0.2-1.2,0-2.7-0.4-3.5C328.8,59.9,324.4,60.6,318.9,60.6
	L318.9,60.6z M322.2,63.1c3.4,0,6.4-0.7,6.4,2.8c0,0.5-0.3,1.3-0.7,1.6c-1,0.7-3.8,0.9-5.7,0.7V63.1z"/>
<path fill="#A90D22" d="M212.7,83L212.7,83c-0.5,0-0.7-0.2-0.7-0.6c0-0.4,0.2-0.5,0.6-0.6c1.4-0.3,1.8-0.9,1.8-3V64
	c0-2.1-0.3-2.6-1.9-2.8c-0.6,0-0.9-0.2-0.9-0.7c0-0.5,0.2-0.6,0.8-0.7c2.3-0.4,3.5-0.8,4.7-1.7c0.5-0.3,0.6-0.4,0.8-0.4
	c0.3,0,0.4,0.2,0.4,0.6v0.1c0,0.3,0,0.8,0,1.5v18.7c0,2.1,0.4,2.7,1.8,3c0.5,0.1,0.6,0.3,0.6,0.6c0,0.5-0.2,0.6-0.7,0.6H220
	l-3.7-0.1L212.7,83z"/>
<path fill="#A90D22" d="M226.6,64.8c0-4.3,2.7-7.1,6.7-7.1c3.6,0,6,2.3,6,5.8c0,1.4-0.4,2.7-1.1,3.7c-0.4,0.6-0.8,1-1.7,1.6
	c2.3,1.6,3.4,3.8,3.4,6.6c0,4.7-3,7.9-7.3,7.9c-3.9,0-6.7-2.8-6.7-6.7c0-2.6,1.2-4.6,3.4-6.1C227.5,69.2,226.6,67.3,226.6,64.8z
	 M228.7,76c0,3.2,1.8,5.5,4.5,5.5c2.3,0,4-1.9,4-4.3c0-2-1.2-3.5-3.4-4.5l-2.7-1.1l-0.4-0.2C229.3,72.6,228.7,73.9,228.7,76z
	 M236.9,64.2c0-2.8-1.7-4.8-4-4.8c-1.9,0-3.4,1.6-3.4,3.7c0,2.2,1.5,3.5,5.7,5C236.5,66.9,236.9,65.8,236.9,64.2z"/>
<path fill="#A90D22" d="M405.6,66.1c3.4,0,5.8,3.3,5.8,8.1c0,5.5-2.7,9.2-6.7,9.2c-4.4,0-7.3-4.3-7.3-10.8c0-4.8,1.5-9.1,4.2-12
	c1.7-1.8,3.8-3.1,6.1-3.7c0.6-0.2,1.3-0.3,1.6-0.3c0.5,0,0.8,0.3,0.8,0.8c0,0.3-0.1,0.5-0.7,0.7c-2.5,0.9-4.4,2.5-5.8,4.8
	c-0.9,1.4-1.3,2.5-1.6,4.6C403.3,66.5,404.3,66.1,405.6,66.1z M404.7,81.4c2,0,3-2.1,3-5.9c0-4.3-1.4-7.1-3.5-7.1
	c-1.9,0-3,1.9-3,5.4c0,0.1,0,0.3,0,0.4C401.4,79,402.6,81.4,404.7,81.4z"/>
<path fill="#A90D22" d="M423.1,74.9c-3.4,0-5.8-3.3-5.8-8.1c0-5.5,2.7-9.2,6.7-9.2c4.4,0,7.3,4.3,7.3,10.8c0,4.8-1.5,9-4.2,12
	c-1.7,1.8-3.7,3-6.1,3.7c-0.6,0.1-1.3,0.3-1.6,0.3c-0.5,0-0.8-0.3-0.8-0.8c0-0.4,0.2-0.5,0.7-0.7c2.3-0.9,4.4-2.6,5.7-4.8
	c0.9-1.4,1.3-2.5,1.6-4.6C425.5,74.5,424.4,74.9,423.1,74.9z M424,59.6c-2,0-3,2.1-3,5.9c0,4.3,1.4,7.1,3.5,7.1c1.9,0,3-1.9,3-5.4
	v-0.5C427.3,61.9,426.2,59.6,424,59.6z"/>
<path fill="#C6A148" enable-background="new    " d="M573.4,156.4c-0.2,2-0.3,3.4-0.3,3.4l4.5-1.2l19.3-5.2l0.2-2.3
	c0-0.2,1.7-24.2,2.6-29.3c1.3-7.2,4.7-14.6,8.6-20.4c0.3-3,0.5-5.6,0.7-7.2c-5.1,5.9-10.5,15.7-12.1,25c-0.9,5.1-2.6,29.1-2.6,29.3
	l-0.2,2.3l-19.3,5.2L573.4,156.4z M284.7,235.2c4.5,1.8,9.9,1.2,13.8-0.9c5.5-2.9,10.4-7.1,15.6-13c2.6-3,5.2-6.3,7.9-9.7
	c0.2-2.5,0.4-5,0.6-7.2c-3.7,5.1-7.5,10-11.3,14.4c-5.2,5.9-10.1,10.1-15.6,13c-4,2.1-9.3,2.8-13.8,0.9c-0.6,6.7-1.7,18.8-2.2,24.6
	c0.9-0.3,2-0.6,3.1-0.9C283.4,250.1,284.2,240.8,284.7,235.2z M554.4,102.2c-2.4,3.1-4.1,7.3-5.7,11.5l0,0c-0.6,1.6-1,3.3-1.5,5
	c2.4-2.9,4-5.6,4.9-7.4C553.5,108.5,554.1,105.6,554.4,102.2z M286.7,217.2c-0.5-2.1-0.3-4.6-0.2-6.1l0-0.1
	c1.2-14.7,2.1-22.7,9.1-30.6c0.5-0.7,1.3-1.3,2-1.8c-0.1-0.6-0.1-1.3-0.2-1.7c0,0-0.2-0.7-0.2-0.8c-0.1-0.2-0.2-0.5-0.4-0.6
	c-0.3-0.1-1-0.1-1.8,0.4c-0.8,0.5-1.6,1.2-2.2,2c-7,7.9-7.9,15.9-9.1,30.6l0,0.1c-0.2,2.1-0.4,5.9,1,8.2
	C285.1,217.5,285.5,217.9,286.7,217.2z M59.1,218.2l3.6,0.7c2.8,0.8,5.7,1.3,8.8,1.5c0.1-1,0.2-1.8,0.2-2.4
	c-4.3-0.1-8.1-0.6-11.8-1.6l-0.1,0L59.1,218.2z M87.6,287.2c-3.8,2.2-8.3,2.7-12.1,1.5c-0.8-0.3-1.6-0.7-2.3-1.1
	c1.3,1.6,3.1,2.9,5.1,3.6c3.7,1.2,8.3,0.7,12.1-1.5c4.6-2.7,8.8-6.6,12.4-10.9c-1-0.7-2-1.6-2.8-2.6
	C96.5,280.5,92.2,284.5,87.6,287.2z M429.6,198.3l24-6.4l2.6-29.5c1.8-9.9,3.8-16.8,7.4-22.6c0.3-3.5,0.5-6,0.6-7.1
	c-6.1,6.7-8.6,14.5-10.9,27.2l-2.6,29.5l-20.8,5.6C429.7,196.6,429.6,198.3,429.6,198.3z M462.3,189.5l23.8-6.4l2.4-30.1
	c0.5-5.9,3.1-13.7,6.8-20.3c0.3-3,0.5-5.8,0.7-7.8c-5.6,7.1-9.6,18.1-10.3,25.6l-2.4,30.1l-20.7,5.6
	C462.4,188.3,462.3,189.5,462.3,189.5z M358.4,177.9c1.5,0.9,3.2,1,4.7,0.5c0.3-1.7,0.7-3.4,1.2-5.1c-1.2,1-2.2,1.7-2.9,2.1
	c-1.5,1-3.4,1.1-5.1,0.3C356.8,176.6,357.5,177.4,358.4,177.9z M385.6,181.2c0.1,2.1,0.5,3,0.7,3.3c0.3-0.1,1-0.4,2.1-1.3
	c0,0,0-0.1,0-0.1v-0.4c0-4.9,0.9-10.1,2.6-15.6c1.6-5.2,4-10.6,7.3-16.3c1.3-2.2,3.3-3.7,4.9-4.3c0-0.8-0.1-1.4-0.2-2
	c-0.2-0.8-0.4-0.8-0.6-0.8c-1.6-0.2-4.9,1.4-6.8,4.7c-3.3,5.7-5.7,11-7.3,16.3c-1.7,5.4-2.6,10.7-2.6,15.6v0.4c0,0,0.1,0.1,0.1,0.1
	L385.6,181.2z M323.6,227l24-6.5l2.3-28.2c0.6-7.1,2.2-12.9,4.6-17.7c-1.1-1.1-1.7-2.5-2.1-4c-2.8,5-4.7,11.4-5.3,19.3l-2.3,28.2
	l-20.8,5.6C323.7,225.6,323.6,227,323.6,227z M224.8,234c0.4,0.1,1.1-0.2,1.7-0.8c-0.4-2.6-0.7-5.4-0.7-8.4c0-3.2,0.3-6.6,0.8-9.9
	c1-5.7,3.5-11.7,6-16.3c-1-0.9-1.9-1.9-2.5-3.1c-2.7,4.6-5.3,10.9-6.3,16.8c-0.6,3.3-0.8,6.7-0.8,9.9c0,4.1,0.4,7.9,1.3,11.1
	C224.4,233.9,224.6,234,224.8,234z M99,173.5c-0.6,6.3-1.6,18-2,23.2c1.1-0.6,2.2-1.3,3.2-1.9c0.7-8.9,2-23,2-23L99,173.5z
	 M626.8,180c0.9,0.6,1.8,1.2,2.7,1.9c0,0,0,0,0,0c-0.3-3.2-0.4-6.3-0.4-9.3c0-7.7,0.8-14.9,1.5-22.3l0.9-9.5l4.5-53.4
	c0.1-0.9,0.2-1.7,0.2-2.5c0-4.8-1.8-7.9-3.4-9.7c-0.7-0.8-1.5-1.4-2.4-2c1.5,1.9,3,4.8,3,9.2c0,0.8,0,1.6-0.1,2.5l-4.6,53.4
	l-0.9,9.5c-0.8,7.4-1.5,14.6-1.5,22.3c0,3,0.1,6,0.4,9.3C626.7,179.3,626.8,179.8,626.8,180z M154.3,267.4c-3.4,3-9.1,5.8-14,4.2
	c-0.5-0.1-1-0.4-1.5-0.6c1.3,1.8,2.9,2.7,4.3,3.2c5,1.6,10.7-1.2,14-4.2c1.4-1.3,2.6-2.6,3.7-3.9c0.2-2,0.5-5.8,0.6-6.6
	C159.3,262.3,157.1,264.9,154.3,267.4z M198.5,220.8c1,0.6,2,0.8,3,0.8c0.2-1.3,0.5-2.6,0.7-4c-0.3,0.2-0.6,0.5-0.8,0.6
	c-1.5,1-3.4,1.1-5.1,0.3C196.8,219.4,197.5,220.2,198.5,220.8z M108.7,280.9c-2-0.2-3.7-0.8-5.3-1.7c2,2.4,4.7,3.9,8.1,4.2
	c6.1,0.5,13.5-2.8,19.3-8.7c2.2-2.3,3.8-4.3,5.2-6.3c-0.7-1-1.4-2.3-1.8-4c-1.6,2.4-3.5,4.9-6.2,7.7
	C122.2,278.1,114.8,281.5,108.7,280.9z M216.1,254.6c6.8,1.8,15.4-0.6,22-6.1c0,0,0,0,0,0c0,0,2.9-2.6,2.9-2.6
	c8.3-8.8,14.3-18.4,18.1-28.8c0.5-1.3,0.9-2.5,1.3-3.8c0.6-6.4,1.1-11.9,1.3-15.1c-0.7,0.4-1.3,0.7-2,0.9
	c-0.4,5.2-1.4,10.1-3.5,15.4c-3.7,10.5-9.7,20.1-18.1,28.8c0,0-2.9,2.6-2.9,2.6l0,0c-6.6,5.5-15.2,7.9-22,6.1
	c-1.7-0.4-3.2-1.2-4.6-2.1C210.6,252.3,213.1,253.8,216.1,254.6z M136.7,216.3c-0.2-0.8-0.5-0.9-0.7-0.9c-1.6-0.2-4.9,1.4-6.8,4.6
	c-3.4,5.7-5.8,11.1-7.5,16.4c-1.8,5.4-2.7,10.7-2.7,15.7c0,0.1,0,0.3,0,0.4c0,0,0,0.1,0,0.1l0,0.5c0.1,2.1,0.5,3,0.7,3.4
	c0.3-0.1,1-0.4,2.1-1.3l0-0.1c0,0,0-0.1,0-0.1c0-0.1,0-0.3,0-0.4c0-5,0.9-10.2,2.7-15.7c1.7-5.3,4.1-10.7,7.4-16.4
	c1.3-2.2,3.3-3.6,4.9-4.3C136.8,217.5,136.8,216.8,136.7,216.3z M163.7,269.8l24-6.5l2.3-28.2c0.6-7.2,2.2-13,4.6-17.7
	c-1.1-1.1-1.7-2.5-2.1-4.1c-2.9,5-4.7,11.3-5.3,19.3l-2.3,28.2l-20.9,5.6C163.8,268.2,163.7,269.8,163.7,269.8z M150.4,173.6
	L150.4,173.6L150.4,173.6L150.4,173.6z M160.9,240.5c1.4-15.9,3.9-43.7,3.9-43.7l-3.1,0.8c-0.9,9.8-3.5,38.5-4.3,48.1
	C158.6,244.1,159.8,242.3,160.9,240.5z M209.6,193.8c0,0,0,0.5,0.1,1c0.7-0.6,1.5-1.4,2.3-2.3c-0.2-1.3-0.5-2.7-0.9-4.1
	c-0.5-1.9-1.8-3.2-3.4-3.9c0.3,0.4,0.5,0.9,0.6,1.4C209.2,188.7,209.4,191.4,209.6,193.8z M260.7,181.5c-1.2-2.4-2.8-4.3-4.9-5.7
	c1.6,1.9,2.8,4.3,3.5,7.1C259.7,182.4,260.2,182,260.7,181.5z M147.5,171.1L147.5,171.1L147.5,171.1L147.5,171.1z M650.8,208.9
	c-0.2-2.6-1-5.3-2.4-8.1c-2.4-4.6-5.8-8.4-10.1-12c3,2.9,5.5,5.9,7.3,9.5c1.3,2.8,2.1,5.5,2.4,8.1c0.1,0.6,0.1,1.2,0.1,1.8
	c0,3.2-1.1,6-3.3,7.9c-2.2,2-5.3,2.6-8.5,1.8c-3.8-1.1-7.5-3.2-11-6c4.2,4.1,9,7.1,13.8,8.5c3.2,0.9,6.3,0.2,8.5-1.7
	c2.1-1.8,3.3-4.7,3.3-7.9C651,210.1,650.9,209.5,650.8,208.9z M609.3,187.7c-6.6-1.6-13.3-1.4-22.2,0.8c-11,2.7-19.2,5.2-30.4,8.8
	l-14.5,4.9c0,0-22.2,7.4-22.2,7.4c0,0-61.5,20.5-61.5,20.5l-79.1,26.1l-32.3,10.7L49.6,365.4l-3.4,4.6L350,269.3l32.3-10.7
	l79.1-26.1c0,0,61.5-20.5,61.5-20.5c0,0,22.2-7.4,22.2-7.4l14.5-4.9c11.2-3.6,19.4-6.1,30.4-8.8c8-2,14.3-2.3,20.3-1.2
	c-0.2-0.5-0.5-1.1-0.7-1.6C609.5,188.1,609.3,187.8,609.3,187.7z M321.3,176.3c0,0.8,0,1.7-0.1,2.6c-0.2,2.5-0.4,4.8-0.7,7
	c1.8-3,2.9-5.3,3.6-7.3c0-5-1-9.8-2.8-14c-0.8-2-2-3.5-3.5-4.9c-0.4-0.4-0.9-0.7-1.4-1c0.8,1,1.6,2.1,2.1,3.4
	C320.3,166.3,321.3,171.2,321.3,176.3z M67.2,273.2c0-0.1,0-0.2,0-0.4c0-2.2,0.2-4.5,0.4-6.7c0,0,0.4-4.4,0.9-10.6
	c-0.3-3.4-0.9-6.8-1.8-9.9c-1.2-4.2-2.9-8.4-4.9-12.7c-2.5-5.6-5.4-11.3-8.3-16.8l-4.4-8.5c0,0-3.4-6.9-3.4-6.9
	c-6.6-13.7-9.9-25.3-11-37.6c-0.5-4.2-0.5-8.1-0.2-11.4c0-0.1,0.5-4.1,0.5-4.1l0.3-2.5c3.2-18.2,12.1-34.6,23.7-43.5
	c9.4-7.2,20.8-11.3,32.1-11.6c2.9-0.1,5.9,0.1,8.7,0.6c7.4,1.2,13.2,3.5,17.8,7.1c-5-5-11.6-8.1-20.7-9.6c-2.8-0.4-5.8-0.6-8.8-0.6
	C77,87.8,65.6,91.9,56.2,99.1c-11.6,8.9-20.5,25.3-23.7,43.5l-0.3,2.5c0,0-0.5,3.9-0.5,4c-0.3,3.4-0.3,7.2,0.1,11.4
	c1.1,12.3,4.5,23.9,11,37.6c0,0,3.4,6.9,3.4,6.9l4.4,8.5c2.9,5.5,5.9,11.2,8.3,16.9c2,4.2,3.7,8.5,4.9,12.7
	c5.1,17.7,1.5,41.9-18.5,53.1c-13.9,7.6-31.1,7.2-45.3-0.9L0,296.2l1.7,1.1c14.4,8.8,32.2,9.4,46.4,1.6
	C58.7,293,64.6,283.5,67.2,273.2z M111.4,207c-4.7,2.8-10.3,5.4-16,7.4c-0.8,8.6-3.9,43.1-4.7,51.3c1.5-1.1,2.4-2.1,3.4-3.4
	c1.2-12.9,3.5-38.2,4.2-45.4c5.6-2,11.2-4.5,16-7.4c14.5-8.7,27.7-21.8,36.2-35.8h0c0,0,0,0,0,0c0,0,0.8-1.4,0.8-1.4l0.4-0.7
	c3.3-6,5.7-12.4,7.3-19.2c1.1-4.9,1.6-9.9,1.6-14.9c0-19.6-8.4-38.8-23.3-51.5c-0.1-0.1-0.2-0.2-0.4-0.3
	c13.3,12.7,20.8,30.8,20.8,49.3c0,4.9-0.5,9.9-1.6,14.9c-1.6,6.8-4,13.2-7.3,19.2l-0.4,0.7c0,0-0.8,1.4-0.9,1.4c0,0,0,0,0,0
	c0,0,0,0,0,0C139.1,185.2,125.9,198.3,111.4,207z M502.3,177.1c0,0,2.6,0.6,2.6,0.6l4-0.3c7-1.6,12.4-7.9,17.2-14.1
	c-0.9-0.8-1.8-1.7-2.6-2.8c-4.8,6.2-10.3,12.8-17.4,14.4c0,0-4,0.2-4,0.2c0,0-2.6-0.6-2.6-0.6c-0.3-0.1-0.5-0.3-0.7-0.4
	C499.8,175.5,500.9,176.5,502.3,177.1z M410,202.4c5,1.6,10.7-1.3,14-4.3c0,0,1.3-1.4,2.8-2.9c0.2-1.6,0.6-5.8,0.6-6.2
	c-2,2.1-6.2,6.6-6.3,6.6c-3.3,3-9,5.9-14,4.3c-0.4-0.1-1-0.4-1.6-0.7C407.1,201.2,408.8,202,410,202.4z M369.6,150.9
	c0,0,0.1,0.5,0.1,1.1c0.7-0.6,1.5-1.4,2.3-2.2c-0.2-1.3-0.4-2.7-0.9-4c-0.5-1.9-1.8-3.2-3.4-3.9c0.2,0.4,0.5,0.9,0.6,1.4
	C369.2,145.9,369.4,148.5,369.6,150.9z M530,166.8c9.1,6.7,22.9-1.8,26.9-4.6c4.8-3.1,9.5-7.6,14.1-13.3c0.2-2.5,0.5-5.1,0.6-7
	c-5.7,8-11.5,13.9-17.5,17.9c-4,2.8-17.6,11.1-26.7,4.7C528.2,165.4,529,166.2,530,166.8z M378.1,212c5.9,0.5,12.8-2.7,18.5-8.6
	c2.6-2.6,4.4-4.9,5.9-7.1c-0.7-1.1-1.3-2.4-1.7-4.1c-1.8,2.8-3.8,5.4-7,8.7c-5.7,5.9-12.7,9.1-18.5,8.6c-2-0.2-3.7-0.8-5.2-1.7
	C372,210.2,374.7,211.7,378.1,212z M430.8,129.8l0.4-4.7l-3.1,0.8l-0.1,1.3c-0.1,1.7-3.1,36.3-4.2,47.4c1.4-1.6,2.6-3.3,3.5-5
	C428.6,155.2,430.7,131.1,430.8,129.8z M517,149.3c1.2-1.6,2.3-3.3,2.8-4.8c0.5-1.3,0.6-2.8,0.8-4.6c0,0,0.7-4.7,0.7-4.7
	c0-0.2,0.1-0.4,0.1-0.6c0.8-8.8,1.6-17.1,1.6-17.1c0,0.2,0.2-4.7,0.2-4.7c-0.4-5.6-2.7-8.6-5.4-10.1c1.3,1.7,2.2,4.1,2.5,7.5
	c0,0-0.2,4.9-0.2,4.7C520.2,115,517.9,140.3,517,149.3z M546.4,144.5c0.3,0.1,0.8,0.1,1.4,0c-0.2-1.2-0.3-2.5-0.3-4.1
	c9.5-5.4,16.5-11.2,21.9-18.5c0.7-1.3,1.4-2.7,2.1-4.1c0,0,2.2-4.3,2.7-5.3c0-0.4,0.1-0.7,0.1-0.8l1.6-17.5
	c-1.1-2.1-2.5-3.7-4.3-4.8c0.8,1,1.5,2.1,2.1,3.5c0.8,2.1,1.2,4.5,1.2,7c0,4-1,8.1-2.9,11.5c0,0-3.6,5.5-3.6,5.5
	c-5.8,8.5-13.2,15-23.7,21c0,2,0.1,3.6,0.5,5C545.6,144.3,546.2,144.5,546.4,144.5z"/>
<path fill="#00291A" d="M620.4,71.9c-3,0.1-8.9,2.6-13.2,7c-4.5,4.6-8.1,9.5-11.4,16.1l1.2-14.3l-17,4.6l-2.5,26.8l-0.1,1.4
	c-6.9,13.3-9.7,22.5-24.3,32.3c-5,3.3-9.5,2.9-11-1.7c-0.7-2.5-0.7-5-0.7-7.9c10.1-5.5,18.1-11.8,24.3-21c0.9-1.3,2.7-3.8,3.4-5.3
	c3.8-6.7,3.7-18.4-3.5-20.8c-7-2.5-16.2,3.5-21.7,8.6c-4.6,4.4-8.4,9.4-11.4,14.8c-4.2,7.3-6,15-7.9,23.4c-0.8,3.6-0.5,6.7-1.6,9.7
	c-1.1,3-3.6,6.6-6.2,9c-2.2,2.1-3.5,0.8-3.3-2.4l3.5-37.6c0.2-1.6,0.2-3.1,0.1-4.3c-0.4-5.5-2.9-8.4-8.1-8.4
	c-3.1,0.2-9,2.1-13.3,6.4c-0.2,0.1-0.3,0.4-0.4,0.5c-4.4,4.5-7.8,9.3-10.6,15.4l0.1-1.6c0.6-5.6-1.8-11.6-8.3-11.4
	c-3.1-0.1-8.4,1.7-12.7,5.9c-4.7,4.8-8.3,8.8-11.3,15.3l1.2-13.3l-17.1,4.6l-3.2,38.8c-0.4,3.7-3.2,11.3-9,16.3
	c-1.7,1.5-4.9,3.6-4.1-1.5c0.5-3.8,4.5-50.5,4.5-50.5l-15.6,4.2c-0.1,1.3-0.4,3.2-0.7,4.8c-3.1-6.1-10.5-4-14.6-2
	c-2.6,1.3-5.3,3.1-7.8,5.4c-2.1,2-4.4,4.3-6.4,6.7c0-0.1-5,6.3-8.5,9c-2,1.5-3.9,1.6-4.4-0.2c-0.6-3-0.4-7-1.6-10.8
	c-1-3.4-5.2-2.4-8.4,0.9c-5.2,5.4-7.5,9.6-10.3,15.8l1.1-12.9l-17.2,4.6c0,0-1.6,20.2-1.9,21.8c-0.8,4.8-2.2,11.4-13.9,24.9
	c1.4-5.3,2.8-12.5,3.3-20.5c0.3-5.5-0.5-10.7-2.5-15.3c-0.7-1.6-1.6-2.8-2.7-3.8c-3.1-2.5-8.4-3.1-12.9-1.2c-0.6,0.2-1.3,0.6-2,1
	c-5.1,2.9-10.3,8.5-14.2,15.3l0.8-9.9l-17,4.7c0,0-0.6,5.3-0.8,7c-0.9,6.5-5.9,10.2-9.8,11.6c0-0.7-0.1-1.4-0.4-2.8
	c-2-14.2-18.1-14.7-30.4-3c-2.1,2-4.4,4.3-6.5,6.7c0-0.1-5,6.3-8.5,9c-2,1.5-3.9,1.5-4.4-0.2c-0.5-3-0.4-7-1.6-10.8
	c-1-3.4-5.2-2.4-8.3,0.9c-5.2,5.4-7.5,9.6-10.4,15.8l1.1-12.9l-16.9,4.6l-3.5,38.2c-0.6,5-6.2,13.8-10.3,17.6
	c-1.4,1.3-3.6,1.6-3.2-2.1l4.6-50.4l-15.5,4.1c-0.2,0.8-0.7,4.4-0.7,4.9c-0.3-0.7-0.9-1.3-1.2-1.8c-3.3-3.5-9.4-2.1-13-0.5
	c-0.4,0.1-0.7,0.4-1,0.5c-9.5,4.7-18.5,17.5-23.2,29.2c0,0.1-0.2,0.4-0.2,0.5c-2.6,7.7-5.4,17.4-5.2,26.2c-2,3.5-3.4,5-6.6,7.4
	c-3.1,2.3-4.6,1-4.4-1.8l5.1-55.3c5.7-1.9,11.9-4.6,17.4-7.9c14.4-8.6,27.1-21.4,35.1-34.7c0.4-0.6,0.7-1.3,1.2-2.1
	c3.2-5.8,5.5-12,7-18.3c5.1-22.8-2.5-47.7-20.6-63.2l-0.1-0.1C111.1,67.9,76.1,69.5,56.5,80c-0.4,0.2-0.8,0.5-1.3,0.7
	c-25.7,14-43.5,32.7-49.9,58.7c-0.7,2.4-1.1,4.9-1.6,7.5c-0.4,1.8-0.5,3.7-0.8,5.6L2.8,158c-0.2,13.9,3,27.3,8.1,39.7
	c5,11.8,11.7,22.7,18.4,32.5c1,1.3,1.8,2.5,2.7,3.8c6.9,9.4,21,29.3,11.1,43c-8.7,11.9-25.8,10.3-40.1-10.2
	c-0.8,8.5-1.5,16.9-2.3,25.3c14.5,8.9,30.9,8.2,43.1,1.5c17.5-9.8,22-31.6,16.9-49.4c-1.2-4.1-2.8-8.2-4.7-12.2
	c-3.7-8.5-8.5-17-12.7-25.3c-1.2-2.3-2.4-4.7-3.4-7.1c-5.9-12.3-10.1-24.5-11.3-38.7c-0.4-3.9-0.6-8.1-0.1-12.1
	c0.1-2.1,0.5-4.4,0.8-6.6c3-17.2,11.3-35.2,25-45.7c10-7.6,21.9-12,34-12.3c3.1-0.1,6.3,0.1,9.3,0.6c10.7,1.8,20.2,5.9,26.7,15.7
	c8,12.4,10.2,30.2,7.6,47.2c-1.1,6.4-2.7,12.6-5,18.4c-1.3,3.1-2.7,6.3-4.2,9.1c-6.2,11.5-16.6,21.8-29.6,27.2l2.4-27.4L78,184.6
	l-1.9,21.6c-4.3,0.5-8.2,0.1-12.3-0.6c-0.9,2.2-2.3,5.3-3.1,7.7c4.9,1.4,9.5,1.7,14.6,1.5l-4.5,51.7c-0.4,4.9-0.8,10.4,1.1,14.8
	c2.2,5.1,8.8,6.1,14.1,3.1c5.6-3.2,11-8.3,14.9-13.9c0.6,1.2,1.2,2.6,1.8,3.7c4.4,6.4,15.2,3.8,23-4.2c5.7-6,7.5-9.8,11.5-16.9
	c0,4.3-0.8,6.6,0,10.1c1.9,8.3,10,6.2,15,1.8c5.3-4.9,9-10.5,13.5-16.2l-1.2,14.1l17.2-4.6l2.1-25.9c0.6-7.3,2.3-15.8,7-22.8
	c0,0,0-0.1,0.1-0.1c2.3-4,3.8-2.2,4.3,0.3c0.1,0.5,0.2,1.1,0.2,1.8c-0.2,2.6,2.4,5.2,4.3,3.9c1.4-0.7,3.9-2.9,5.9-4.7
	c1.3-1.2,2.6-3,3.8-4.2c-0.6,1.3-1.1,2.7-1.8,4c-3.4,9.3-4.6,18.9-2.2,28.9c0.2,0.8,0.4,1.6,0.8,2.3c4,10.6,17.9,9.3,27,1.8
	c1-0.8,2-1.8,2.9-2.6c8.5-8.9,13.8-18.3,17.1-27.4c2.3-6,3.3-11.1,3.5-16.9c2.8-0.3,6.4-2.4,9-6.6l-6.8,76.5L87.1,314l-34.9,47.1
	l293.9-97.4c10.8-3.6,21.6-7.2,32.3-10.7c26.4-8.7,52.7-17.4,79.1-26.1c20.5-6.8,40.9-13.7,61.4-20.5c12.2-3.9,24.5-8.2,36.7-12.2
	c11.1-3.6,19.5-6.1,30.7-8.9c8.6-2.1,16.7-2.9,25.3-0.5c2.2,5.1,3.9,9.1,6.1,12.9c5.1,8.8,12.5,14.8,19.6,16.9
	c4.7,1.3,8.2-2.3,7.5-7.9c-0.2-2.6-1-4.9-2.1-7.1c-3.6-7-10.1-12.1-19-17.8c-0.1-0.7-0.2-1.5-0.2-2.2c-1.3-15.6,0.9-27.9,2-41.8
	l4.6-53.4C631,76.6,626.8,71.8,620.4,71.9z M545.6,112.5c2.1-5.8,4.3-10.7,7.6-14.1c1.9-1.9,4.8-0.6,4.6,2.8
	c-0.1,3.7-0.8,7.5-2.8,11.5c-2.5,5.2-6.8,10.8-13,15C542.7,122.1,543.9,117,545.6,112.5z M137.7,234.9c-0.7,3.8-2.5,7.7-4.7,11
	c-2.9,4.3-5.7,9.4-8.1,11.1c-5.6,5-8.7,3.1-9.1-3.7c-0.1-0.2-0.1-0.4-0.1-0.7c-0.1-5.9,1-11.8,2.8-17.2c2-6.3,4.8-12.1,7.7-17.1
	c3.7-6.2,12.2-8.9,13.6-2.8C141,220.4,138.5,230.4,137.7,234.9z M237.7,212.9c-1.3,8.4-3.8,16.5-8.3,22.1c-2.7,3.5-7.3,3-8.3-0.6
	c-1.6-6-1.9-14.3-0.5-22.5c1.6-9.3,7-20.3,11.2-24.1c-1,5.6,2.4,9.4,7.6,11.2C239.3,203.4,238.4,208.2,237.7,212.9z M382.2,180.8
	c-0.1-5.9,1-11.7,2.8-17.1c1.9-6.3,4.7-12,7.6-16.9c3.6-6.2,12.1-9.1,13.5-3c1.1,4.8-0.8,13.4-1.7,17.8c-0.7,3.8-3.1,9.8-5.2,13
	c-2.8,4.3-5.6,8.7-8,10.5c-5.5,4.9-8.5,3.1-8.9-3.7C382.2,181.3,382.2,181,382.2,180.8z M280.4,208.3c1.2-14.6,2.2-23.8,9.9-32.5
	c0.7-1,2-2,3-2.6c2.6-1.5,5.8-1.4,6.9,1.9c0.1,0.3,0.2,0.7,0.3,1.1c1.4,7.5-1.2,30.3-7.1,39.1c-1,1.5-2.2,2.7-3.5,3.7
	c-3.2,2.4-5.8,2.8-8,0C279.9,215.4,280.2,210.8,280.4,208.3z M634.7,198.9c1.2,1.5,2.2,3,3.1,5.3c0.7,1.9,0.1,3.6-2.2,2.4
	c-3.3-1.4-5.1-3.4-7.1-7.1c-1.6-2.9-2.3-6.1-3-8.7C628.2,192.8,630.9,194.2,634.7,198.9z M612.7,90.8l-2.6,26.8l-2.1,21.5
	c-1.1,12.8-1.4,24.3,1.2,37.2c-8.4-2-16.4-1-26.9,0.9c-0.8,0.1-1.5,0.3-2.2,0.4c-17.9,3.9-36.9,9.6-55.6,14.6
	c-2.6,0.8-5.3,1.5-7.9,2.1l-105.4,29.6l-64.2,18l-26.7,7.3L276,261.7l3.1-35.1c3.8,4.9,10.9,4.4,15,2.2c5.9-3.2,10.7-7.7,14.7-12.3
	c5.5-6.4,12.2-15,18.1-24.1l-2.4,27.6l17.2-4.6l2.1-25.9c0.6-7.3,2.3-15.8,6.9-22.7c0,0,0-0.1,0.1-0.1c2.3-4,3.8-2.2,4.3,0.3
	c0.1,0.6,0.2,1.1,0.1,1.8c-0.2,2.6,2.3,5.2,4.3,3.9c1.4-0.7,3.9-2.9,5.9-4.7c1.3-1.2,2.6-3,3.8-4.2l2.6-2.9c-0.4,0.8-0.8,2-1.1,2.5
	c0,0.1-0.1,0.3-0.2,0.4c-2,5.5-4,11.8-4.8,18c-1.2,7.6-0.6,15,3.3,20.7c4.4,6.4,14.5,4.2,22.3-3.9c5.2-5.3,7.2-8.9,10.3-14.5
	c0.5-0.9,0.9-1.8,1.5-2.7c-0.1,1.1,0,2-0.1,2.8c0,2.7,0.3,4.6,0.7,7.3c1.9,8.2,10,6.2,15,1.7c2.5-2.4,4.9-4.9,7-7.5
	c2.2-2.7,3.7-5.2,5.9-7.8l-1.4,13.5l17.2-4.6l2.4-27.2c2.5-13.9,5.2-23.3,13.7-31.4c1-0.6,4.5-2.3,4,1.6l-4.6,52.9l17.1-4.6
	c0,0,1.8-22.6,2.2-27.8c0.7-8.6,5.7-23.1,13.7-30.7c0.8-0.8,3.9-2,3.5,1.8l-3.2,37.3c-0.3,4.4,0.2,11.1,4.5,13
	c0.4,0.2,0.9,0.3,1.5,0.4c1.1,0.1,2.1,0,3.2-0.2c7.3-1.6,13.2-10.4,18.6-17.3c1,2.9,2.5,5.5,4.8,7c6.4,4.7,16.7,0,23.3-4.5
	c10.2-6.7,18.1-18.1,23.8-27.9l-2.1,23.7l17.1-4.6c0,0,1.7-24.3,2.6-29.7c2-11.4,9.2-23.8,15.5-29.5
	C609.9,88.4,612.9,87.1,612.7,90.8z"/>
</svg>
