<svg xmlns="http://www.w3.org/2000/svg" xml:space="preserve" version="1.0" viewBox="-8.9 -12.6 674 390"><path fill="#C6A148" d="m277.2 13.9 1.1-.8-1.3-1.4c-.3.1-1.2.7-1.4 1 .1.1.7.7 1.6 1.2zm-2.7 2.1c.3-.6.9-1.1 1.2-1.4l-1.1-1.2c-.4.4-1 1.2-1 1.4 0 .2.5.7.8 1l.1.2zm-.9 1c-.2-.2-.6-.7-.8-1.2-.5.4-1 1.2-1.1 1.4 0 .2.5.9 1 1.5.2-.6.7-1.4.9-1.7zm.8 1c-.4.5-.8 1.4-.8 1.6l.9 1.2 1.2-1.4-1.3-1.4zm2.4-2.6c-.8.5-1.4 1.5-1.4 1.7a6 6 0 0 0 1.4 1.5l1.3-1.6-1.3-1.6zm.8 7.8c.2-.9.9-1.8 1.2-2.2-.5-.2-1.4-.6-1.8-1.1-.8.5-1.3 1.3-1.3 1.5.1.4 1.1 1.3 1.9 1.8zm-10.1 25.2c-.4-.7-.5-1.8-.6-2.5v-.3c-1.8-.6-3 0-3.1.2a6 6 0 0 0 .5 2.9c.8-.5 2.5-.6 3.2-.3zm-7.3 1.7a7 7 0 0 0 .5 3c.8-.4 2.3-.6 2.8-.4v-.1c-.3-.4-.4-1.9-.4-2.9-1.3-.5-2.7.2-2.9.4zm-2.8 4.7c0 .3.8 1.9 1.4 2.9.6-.4 1.3-.5 1.8-.5-.6-.8-.6-2.3-.5-3.1-1.4-.1-2.6.5-2.7.7zm-.3-1.5c.6-.3 1.6-.4 2.1-.5a6 6 0 0 1-.1-2.4c-.9-.1-2.2.4-2.4.6 0 .2.1 1.2.4 2.3zm1.4-4.3c-.1-.4-.2-1.4 0-2.3a7 7 0 0 0-2.2.7c-.1.2-.3 1.4.1 2.2l2.1-.6zm1.3-2.3c-.1.2-.3 1.4.2 2.3.7-.6 1.9-.7 2.5-.7-.2-.4-.4-1.2-.3-2.2-1.3-.1-2.3.4-2.4.6zM295 72.5c-.4-3.1-.1-4.6.1-5.2l-.1.3c-.2.4-1.9 4.1-2.3 8-.4 4.2 1.5 7.9 2.4 9.5l3.4-.1c-2-2.7-.9-5.1-1.6-6.7-.9-2-1.6-4-1.9-5.8zm-22.1 24.9c-.1.7 0 1.7.1 1.9.2.3 1.3.7 2.1.9 0-.5 0-1.6.2-2.2l-.9-.2-1.5-.4zm6.5 1.7c-.8-.1-2-.6-2.6-.8l-.5 2.2a6 6 0 0 0 3.2 1.3c-.4-1-.3-2.1-.1-2.7zm2.1-.4c-.4.9-.5 2.7-.5 3.2.3.1 1.7.4 2.5.4-.2-.8-.4-2.2.4-3.3l-2.4-.3zm-.3-4.2c-.7 0-2.1 0-3.6-.5-.4.8-.5 2.6-.5 2.9.2.2 1.8.8 3.5.9a6 6 0 0 1 .6-3.3zm-7.5-1.8c-.5.8-1 2.5-1 2.8.2.3 1.9 1.1 3 1.3-.2-1.2.1-2.5.3-3-.4-.2-1.5-.6-2.3-1.1zm3.5-.2c.1-1.3.7-2.8 1.3-3.6-1 .1-1.9-.1-3-.6-.4.8-.8 2.8-.7 3.2a5 5 0 0 0 2.4 1zm21.6-1.5 2.3 1.6 1.9-.2-1-.6c-1.2-.7-3-1.1-3.9-1.3l.7.5zm49 33.4c-.7-.3-1.8-1-3-2.5-1-1.2-3.4-4-5-5.5-1.5-1.3-4.5-2.2-6.1-.6-.7.7-.8 1.7-.7 2.4.2 1.3.9 2.6 1.9 3.2a29 29 0 0 0 9.2 3.3c3.9.7 4.4.2 4.5 0l-.4-.2-.4-.1zm-4.6-1.2h-.2c-.1 0-.7.1-1.5-.8l-.6-.7c-.6-.7-1.5-1.7-2.9-3-.3-.2-.5-.1-.6-.1-.2.1-.3.3-.2.6.2.6.9 1.3.9 1.3l.3.3-.4.1s-1.1.3-2.1-.5c-.6-.5-1.3-1.3-1.4-2.1-.1-.5.1-.9.4-1.2.9-1.1 2.6-.7 3.7.2 1.5 1.1 2.8 2.4 4.1 4.5l.6 1.2v.2zm5.3 1.6zm-36.8-5.3.5.3c.3.1.9.2 1.6-.2l9.1-5.9-.8-.9-10.4 6.7zm-4.2 2.9c.5.1 1.5.2 2.1-.2a9 9 0 0 0 1.9-1.3l.1-.1c-.5-.1-.9-.4-1.1-.5l-3 2.1zm12.3-12.1c-1.6 1.1-14.9 9.5-16.5 10.7-.8.6-.7 1.2-.4 1.7.3.4.9.7 1.3.4l17-11.2-1.4-1.6zm-2-2-10.6 6.6c-1.1.7-1.5 1.7-1.5 2.4l.1.5 13.2-8.3-1.2-1.2zm-12.7 7.9-.7.6c-.7.8-1.5 1.5-1.3 2.9a38 38 0 0 0 1.4-.9c-.1-.4-.2-1 .2-1.7l.4-.9zm79.7-40c-.8.5-2.4 1.3-3.8 1.6-1.4.4-2.4.4-4.2.4h-.4c-1.6 0-3.5-.1-4.5.3-1.2.4-2.8 1.8-3.4 2.4l-.6.7a9 9 0 0 1 2.7-.4h.2c1.9.1 4.4.2 6.6-.5 2.3-.7 3.7-1.6 4.9-2.5l1.6-1.1c.9-.7 2-1.3 2.2-1.7l.2-.2-1.3.7-.2.3z"/><path fill="#C6A148" d="M384 72.8a17 17 0 0 0-4.5 0c-1.1.2-2.7.9-3.5 1.4l-1.8 1.5-.8.7-.6.5 1.7-.2h.2c1.2.1 4.2.3 5.3-.1.9-.3 1.8-.8 2.5-1.3l.8-.5c.8-.4 3.3-2.1 4.3-3.1l.2-.2-.2.2c-.9.4-2.1 1.3-3.6 1.1zm7.7-10.6c-.6.9-1.7 2.5-2.7 3.6-1 1.1-2.4 1.4-3.9 1.7l-.4.1a9 9 0 0 0-4.6 2.2l-2.1 2a5 5 0 0 1 2.1-.5c2.1-.1 3.6-.2 4.4-.4a6 6 0 0 0 3.1-2.3l.9-1.1c.9-1.1 1.8-2.2 2.2-2.9l.3-.6 1.1-2.4-.4.6zm-5.8-3.8-1 1.2-.2.9v.3l-.1 1.1-.2 1.8c-.1.9-.5 1.7-.9 2.2l.9-.2a6 6 0 0 0 3.9-2.2c1.1-1.6 2.1-3.3 2.9-7 .5-2.8.2-5.5 0-7.1-.1.7-.2 2-.9 3.2-1 1.8-3.3 4.5-4.4 5.7v.1zm-3.8 7.1a4 4 0 0 0 1-2.5l.1-.7.1-.9c.1-.6.1-1.4.6-3.3.7-2.7 1.4-4.1 1.6-4.7l.1-.3-.1.1-1.1 2.3c-.6 1.4-.9 1.9-2 3.6l-2.7 4.4c-.3.6-.4 1.5-.5 2.5l-.2 1.5-.2 1 1-.9c.8-.6 1.7-1.4 2.3-2.1zm-8.1 8c.8-.6 1.3-1.2 1.8-1.8l.3-.4c.5-.6 1.4-3 1.4-4.7.1-1.8.3-2.8.8-4.2.3-1.1.6-1.5.8-1.9l.3-.4.2-.4-.7.8c-.6.7-1 1.6-1.6 2.9l-.2.5a5.5 5.5 0 0 1-1.7 2.3l-.6.6a6 6 0 0 0-1.4 2.9l-.1.8-.3 3.1-.2 1c.3-.4.7-.8 1.2-1.1zm-4.6 4.4c.5-.6 1.2-1.5 1.6-2.3.3-.6.5-2 .6-3v-.4l.5-2.7c.3-1.2 1.1-3.3 1.7-4.5l1.4-2.6-.9 1.4-.1.2-1.1 1.8-1.4 2.1c-.6 1.2-1.7 2.9-2.4 3.9-.8 1.3-1.9 3.1-2.3 4.4-.4 1.4-.4 2.4-.4 3.4l-.2 1.1.5-.5c.2-.4.8-.9 1.3-1.4.6-.3 1-.7 1.2-.9zm15 9.4-.4-.2a9 9 0 0 0-2-.6l-.4-.1-.4-.1c-.4-.1-.8-.3-1.6-.3h-.3c-1.1-.1-2.3-.2-3.2.3-.5.2-.7.5-1.1.8-.4.3-.8.8-1.8 1.4a10 10 0 0 1-6.7 1.9l-1.7-.1c-1.8-.1-2.3-.2-2.9.3l-1.2.9-4.6 3.2c-2 1.4-7.6 4.1-11.5 6-3.3 1.6-12.5 6.5-14.3 7.5l.8.7c1-.6 7.6-4.4 11.1-6.2 3.5-1.9 10-5.3 15.4-7 6.2-2 10.9-3 15.5-3.4 5.2-.4 6.2-.1 6.3-.1l.2.1v.2c0 .1 0 1.4-2.7 3.1a9.5 9.5 0 0 1-3.3 1.5l-.1-.5s2.2-1 3.5-3a8 8 0 0 0-2.2 0l-.6.5a15.3 15.3 0 0 1-4.9 4 26.8 26.8 0 0 1-4.8 2.1l1.2-.1a52 52 0 0 0 7.8-1.5c3.3-1 6-2.6 8.4-4.9 2.8-2.7 3.7-4.9 3.7-5.6-.1-.3-.7-.6-1.2-.8z"/><path fill="#C6A148" d="m336.9 102.9 7.3-3.6 3.7-1.8c4.1-2 7.5-4 9.5-5.6l1.8-1.4c1.7-1.3 2.6-2 3-2.1.4-.1 1.2.1 1.9.3l.5.1c.7.2 2 .3 3.2.1 1.3-.2 4.3-1.5 6.3-2.8l3-2.1 2.9-2.1 2.2-1.4-.5.2-1.2.5-.7.3c-1 .4-1.5.6-3.2 1-1.6.4-2.5.4-3.9.5h-.1l-3.3.1c-.8 0-1.8.2-2.9.7-1.3.5-1.9 1-2 1.4 0 .2 0 .4.2.5.6.7 1.4 0 1.4-.1l.2-.1.2.1.3.3.1.1v.1s0 .9-1.1 1.2c-1.2.4-2.2 0-2.9-1-.3-.5-.4-1-.3-1.5.1-.5.5-1.1 1-1.3.5-.3.7-.7 1.1-1.4l.2-.4c.5-.9.7-1.8.8-3.3.1-1.4.1-1.8.3-2.4.2-.7.6-1.9 1.3-3.1l2.5-4.2a20 20 0 0 0 2.3-4.6l-1.3 1.8-.8 1.2-1.4 1.6-1.4 1.6-1.5 1.9-.8 1.1-1.1 1.3-1.9 2.2c-.6.8-1.8 2.4-2.2 4a6.5 6.5 0 0 0 0 3.8l.1.4c.2.7.4 1.3 0 1.8-.3.3-1.3 1.4-4.2 3.5a97.8 97.8 0 0 1-9.1 5.5l-5.1 2.6-6.4 3.3c-2.9 1.5-6.1 3.3-7 3.9l1.7 1.5 7.3-4.2z"/><path fill="#C6A148" d="m326.9 104.7 8.9-4.8a170 170 0 0 0 9.5-5.6c2.2-1.4 5.5-4.9 6.6-6.6 1.1-1.6 2-3.3 2.3-7.6.2-3.2-.4-6.3-.7-8.2l-.6 2.5c-.5 1.2-1.3 3.1-2.1 4.2s-2.1 3.3-3.2 6l-1 2.5c-.7 1.8-1.4 3.4-2 4.3l-.1.1c-.9 1.3-2.2 3.1-6.2 5.6-3.6 2.2-10.8 5.8-12.4 6.6l1 1z"/><path fill="#C6A148" d="M363.4 43.3c-1 2.4-1.4 4-1.5 5.3-.1 1.3.5 2.9 1 3.8.6.9 1.8 2.2 2.4 2.7.7.6.8 1 .7 1.9l-.1.3c-.1 1.1-.6 3.9-1.4 6.8-.8 2.6-1.9 6.2-2.9 8.7-.8 1.9-1.9 4-2.8 5.7l-.5 1a21 21 0 0 1-3.1 4.6 11 11 0 0 1-1.6 3.7c-1 1.5-2.2 2.9-3 3.8l.3-.2c.9-.5 3.5-2.1 4.8-3.2 1.2-1 2.3-1.9 2.3-2.6l-.1-.8c-.1-.5-.3-1-.2-2 .2-1.5.6-3.1 1.3-4.4.6-1.3 2-3.1 3-4.2l.1-.1c.8-.9 1.3-1.4 1.6-2.2l.3-.9a53.7 53.7 0 0 0 4.2-13.3c.3-1 .7-1.5 1.2-1.8h.1c1.8-.9 2.4-1.3 2.6-1.5.5-.5 1.6-1.6 2.5-3 .7-1.2 1.2-2.8 1.6-4.2l.3-1 .5-1.7 1.7-5.2 1.3-3.1v-.1l-.5 1.1-.9 1.8-.4.8c-.4.8-.9 1.8-2 2.8a15 15 0 0 1-3.8 2.7l-.3.2c-1 .6-2 1.3-2.3 1.7-.2.2-.2.4-.1.7l.1.3c0 .5.1 1.9-.3 3.1-.4 1-1.1 2.2-2.4 2.2-.5 0-1-.2-1.3-.6-.4-.5-.7-1.1-.6-1.6 0-.1.1-.4.3-.5.3-.1.4.2.6.4l.2.3c.2.2.5.4.9.4.3 0 .5-.2.7-.6a6 6 0 0 0 .5-3.4c-.1-.9-.6-2.6-1.1-4.1l-1.1-2.5-.8-1.6a14 14 0 0 1-1.2-4.5l-.2-2.4-.1.6.2 3.5c.3.8.3 4-.7 6.4z"/><path fill="#C6A148" d="M376.6 50.4c-1.6 3.2-2.7 4.7-4.4 5.7l-1.2.7c-.8.4-1.2.6-1.4 1.3l-.4 1.5-.8 3.2-.6 1.8-.5 1.6c.2-.3.4-.6.8-.8a112.9 112.9 0 0 0 10.5-12.6c1.6-2.3 4.7-8 5.6-10.3.8-2.1 1.5-5.1 1.8-6.4a15 15 0 0 1-3.1 4.6 43.2 43.2 0 0 1-4.2 3.8c-.1.5-.7 3-2.1 5.9zm-1.7-13a9.5 9.5 0 0 0-3.2 3.1l-.7 2.4-.1.4-.4 1.6 1.2-.9.8-.5c.8-.4 1.8-1 2.3-1.5.6-.5 1.4-1.7 2.1-3.2l.4-1c.5-1.1 1.1-2.3 1.4-3.5l.7-2.3.5-1.7-2.2 4.1a7.4 7.4 0 0 1-2.8 3zm3.2-8.8c-.7.9-1.5 1.9-3 3.2-1.5 1.4-2.5 2.4-2.9 3.6l-.8 3.1.5-.6c.5-.6 1.7-1.4 2.3-1.7a7.7 7.7 0 0 0 2.8-3.3c1-2 1.5-3.4 2-5.2l.2-.6.2-.6c-.4.8-.8 1.5-1.3 2.1zm-3.7-1.8c-.6.9-.9 2.1-1.1 3.1l-.4 2.5 1.7-1.8a8.7 8.7 0 0 0 2.9-4.1c.6-1.6.8-3.3 1-5v-1.6l-.2 1.2-.2.5c-.2.9-.4 1.7-1.2 2.5l-1 1-1.5 1.7zm-2-10.7c-.1.8-.3 1.4-.5 1.9l-.3.9v.1c-.1.6-.1.9.5 2.3.7 1.5 1 2.3 1.2 3.2.2.8.2 1.3.1 1.6v.1c.3-.6.7-1.2 1.3-1.8.7-.8 1.6-1.9 1.5-2.9-.1-1.1-.4-2.7-.8-3.8-.2-.8-.7-1.6-1.2-2.3l-.7-1.1-.4-.5-.3-.4-1.9-2.3c.2.3.5.7.6 1.2a7 7 0 0 1 .9 3.8zm-1.7 11.3.4.7.7 1.9.2-1.6.2-2.7c0-.8-.4-2-1.1-3.4-.8-1.5-1-2.6-1-3.5 0-1-.2-1.9-.5-2.7l-.1-.3.1.8c.2 1.3 0 2.1-.1 3l-.3 1.5c-.2 1.8.3 3.7.5 4.5l1 1.8zM370 36l.4.8.3-1.2.1-.5a5 5 0 0 0 .4-2.7c-.2-1.1-.7-2.2-1.5-3.6l-.4-.7c-.7-1.3-1.6-2.9-1.8-4.7l-.1-1.2a18 18 0 0 0-.4 3.6c.1 1.8.6 5.1 1.1 6.2a38 38 0 0 0 1.9 4zm-3.5 2.9a34.4 34.4 0 0 0 1.6 3.3l.9 2.6.1.4c.2-.8.5-2.1.6-3.5.2-1.9-.3-3.3-.6-4.4l-1.4-2.8-1-2.1a12 12 0 0 1-.7-3.9v-.1l-.1 1.9c-.1 1.4-.2 2.9 0 4.6 0 1.6.1 2.7.6 4zm-5 29.8.6-1.9a38 38 0 0 0 1.3-4.5l.1-.4c.2-1 .3-1.6-.1-2.1-.5-.7-1.1-1.5-2.5-2.6-1.5-1.1-2.9-1.9-4.9-1.8-1.9.1-3.5.7-5 2.1-.9.8-1.5 1.9-1.6 2.8l.7-.9c.9-.6 1.9-1.4 4.3.1 2.6 1.7 4.4 4.4 4.9 7.4.4 2.6.4 4.8.3 6.2.7-1.2 1.5-3.1 1.9-4.4z"/><path fill="#C6A148" d="M344.1 42.9c-.5 1.5-.7 3.9-.6 5.4v-.2c.2-.9.5-2.2 2.6-4.2 2.3-2.2 4.2-2.1 5.4-2a11.7 11.7 0 0 1 7.4 7.7l.1.4c.5 1.7 1 3.8 1.1 5.1a15 15 0 0 1 4 3.3l.2.4.3-2.1c0-.2-.2-.4-.7-.8l-.6-.6-.1-.1c-1-1-2.8-2.8-2.8-5.9 0-2.4.6-4.1 1.2-5.7l.5-1.4c.1-.6-.8-1.3-1.7-2l-.4-.3c-1.2-.9-3.3-2.7-7.9-2.6-5 0-7.1 3-8 5.6z"/><path fill="#C6A148" d="M357.3 53.8c.5.4 1 .5 1.1.4l.1-.5c-.1-1.3-.9-3.7-1.7-5.5-.5-1-.9-1.5-1.2-1.8l.3 4.1c.2 2.3.9 3 1.4 3.3zm-.4-18.3c-.1-.4-.5-.9-.8-1.3l-.1 1.6 1.2.5-.3-.8zm2.7-15.6c.2.5 1.1 3 1.1 5 0 3-.5 4.4-.7 4.8l2 3 .7-3.5c.1-1.3.6-5.8.5-8.1-.1-2.3-.7-5.5-1.1-7.6-.3-1.3-.8-2.8-1.6-4.3.2.9.4 3.9.1 5.9l-1 4.8zM349.5 9.4a9 9 0 0 1 0 6.1c-.4 1.7-.1 2.5.2 3.2l.1.2c.2.6 1 1.9 1.5 2.7v-.1c-.1-.9.3-2.6.7-3.9.5-1.5.9-3.8 0-5.9-1-2.3-2.7-4.5-3.7-5.7l-.9-1.2.5.8c.4.9 1 2 1.6 3.8zm-8 2.1c-.6-.6-1.5-1.8-2.4-2.1-.9-.4-2.3-.6-3.6-.8l-.7-.1a16 16 0 0 1-4.8-1.9l-1.8-.9.9.5c1 .5 2.9 1.9 4 2.9 1 .9 2.7 2.5 4.1 3 .7.2 1.5.2 2.4.2a13.4 13.4 0 0 1 3.1.3l-.9-.9-.3-.2zm-9.4-7.7c1 1 1.9 2.2 2.2 2.7.4.6.5.8.9.8a11.4 11.4 0 0 1 4.7 1c-.3-.8-.5-1.6-.5-2.2l-.6-2c-.2-.2-2-1-3.6-1.4-1.5-.5-4.5-1-6.8-1.3l-3.7-.4 3 .5a8 8 0 0 1 4.4 2.3z"/><path fill="#C6A148" d="M336.6.5c1.6.6 2.8 1.9 3.4 2.9.5.9.9 2.8 1.2 4.1l.1.3c.2 1 .7 2 1.5 2.9l1.4 1.5a15 15 0 0 1-.2-2.1v-.6c0-.9 0-2-.3-2.8-.3-.9-1.3-2.1-2.6-3.4-.9-.9-2.3-1.9-3.7-2.5l-2.3-.7.7.2.8.2z"/><path fill="#C6A148" d="M343 2.6c.9 1.2 1.6 2.1 2 3.3.4 1.1.4 2.7.5 4.2v.4a6 6 0 0 0 1.2 3.7l1.2 2 .1-1.1.2-.9c.1-.5.3-1.1.3-1.8a17 17 0 0 0-1.9-6c-1.2-2.6-2.6-3.8-3.3-4.4L340.9.5c.7.5 1.5 1.3 2.1 2.1z"/><path fill="#C6A148" fill-rule="evenodd" d="M311.2 13.1c.8-.6 1.2-1.1 1.3-1.2l.1-.1.1-.1c-1.1.7-2.6.6-3.6.4l-.8-.2.8-.2c2-.6 3.7-2.5 4.2-3.2l.4-.9a4.7 4.7 0 0 1-3.7 1.3l-.6-.1.5-.3c2.2-1.4 3-2.6 3.7-3.9a4 4 0 0 0 .2-3l-.1-.1v.4c0 .6-.1 1.3-1.4 2.5-1.1 1-2.7 1.5-4.7 2l-1.7.5c-2.4.7-5.1 1.6-7.2 2.9a42 42 0 0 0-7.4 6.2l-2.9 3.5-.4.5-.1-.6s-.1-.8-.5-1.4c-.2-.4-.6-.5-1.1-.7l-1.2-.6c-.8-.5-.9-1.2-1-2-.1-.6-.2-1.4-.6-2.2-.9-2-3.3-1.6-3.3-1.6l-1.9.6c.2.4 1.6 1.5 2.4 1.9l.6.3-.7.2c-1.6.5-2.3.9-2.5 1.4.2.6 1.3 1.4 1.9 1.6l.7.1c.2 0 .4 0 .5.2v.3l-.1.2h-.2c-1.4-.1-2.7 1-2.8 1.7.1.4 1.6 1 3 1.3l.9.2-.8.3s-.7.2-1.4.9c-.6.6-1.1 2.1-1.1 2.4.3.2 1.9.4 2.5 0 2.3-1.3 2.7-2.8 3-3.6l.2-.8c0-.4.1-.8.4-.9.3-.1.6-.1.8.1.5.4.6 1.4.5 2.2-.1.6-1.1 2.4-2.1 4.4-.6 1.2-1.3 2.4-1.6 3.3a91 91 0 0 0-2.8 6.6l-.5 1.4-1 2.8h-.1c-.2.9-.5 1.6-.6 2.5l-.2 1.4-.3-1.4a10 10 0 0 0-1.7-3.6l-.2-.3-.1-.1.1-.1c1.1-1.3 2-3 2.4-4.7.5-1.8.2-3.4-.1-4.6-.3-1.3-1-2.1-1.4-2.2l-.7-.4c0 .7-.2 1.2-.4 1.6l-.4.8V28c-.1-1.4-1.4-2.3-1.9-2.7l-.1-.1-.4-.3-.2.8-.1.4-.1.5-.3-.4-1.5-1.4-.2-.2-1.3-.8-.4-.2-.3-.3-.1.6-.1.4-.3-.2-1.6-1.1c-1-.7-1.4-1-1.8-1.6a12 12 0 0 1-1-1.9V19c-.4.4-.9 1.7-1.4 3.9a8.8 8.8 0 0 0-.3 4.7l.3 1.7v.3h-.3l-.8-.1c-.4-.1-.8-.4-1.1-.6l-.1-.1v.6a9 9 0 0 0 1.5 4.6l.3.5-.6-.1-.8-.1-.6-.1.3.4.1.1c.4.5 1.4 1.8 2.3 2.6.9.9 1.7 1.4 1.7 1.4l.6.5h-.8l-1-.1-.8-.1.9 1 1.2 1.3c1 1 2.2 1.4 4.3 1.4 2 0 3.4-.8 4.5-1.4l.1-.1c1.3-.7 1.5-.6 2.2.5.7 1.2 1.2 3.2 1.5 4.3.2.7.3 1.9.2 3.4l.2 3.4.1.5c.1 1.6.5 2.8.8 3.4l.5 1.2 1 2.6.6 1.5-1-1.2-1.2-1.1-1.2-1-.9-.6c-.7-.5-1.3-.9-1.7-2.1-.6-1.7-.4-2.4-.1-3.2l.2-1.1.1-.5c.1-1.1.1-1.4-.5-3-.7-1.7-1.6-2.2-2.5-2.7-.8-.4-1.7-.3-2-.1l-.6.2c.1.5.5 1.9 1 2.9l.9 1.4c.2.2.3.3.3.6v1.6h-.8l-.1-.1-.4-.8-.8-.9-.2-.2c-1.1-.5-2.9-.4-3.4 0a1 1 0 0 0-.2 1c.1.6.7 1.7 1.4 2.5.6.7 1.3.7 1.3.6h.2l.1.2.3.8.1.2-.2.1c-.1 0-1.1.5-1.7 0l-.4-.3c-.4-.3-.9-.8-1.6-1.1-.7-.3-1.5-.3-2.2.2-.2.5-.3 1.4.5 2.5.5.7.8.8 1 .9l.4.3c.3.4.7.3.7.3h.2l.1.2v.5l-.1.1h-.1c-.6.1-.8 0-1.1-.2-.3-.1-.5-.3-1.2-.3-1.3-.1-2 .3-2.5.7.7 1.2 2.4 3 4.7 3.3 2.2.3 4.8-1 5.5-1.9.8-1 1.1-1.2 2.5-1.5 1.2-.2 3 .9 6.1 3.8 1.8 1.8 2.2 3.1 2.7 4.5l.7 1.9a26 26 0 0 1 1 2.4l.7 1.6 2.5 4.1.5.7-.8-.3c-1-.4-3.8-1-5.3-.6-1 .3-2.1.2-2.8-.2-.5-.3-.9-.7-1-1.2l-.3-1.2c-.2-.9-.4-2-.9-3.2a7.7 7.7 0 0 0-2.8-3.6l-.5-.3-1.7-1.2c-.4-.3-.7-.4-1-.4v2.5l-.5-.5a7 7 0 0 0-2.8-1.9l-.1-.1-.8-.3v.2c0 .3.1.8.4 1.3l.4.7-.7-.3c-1.9-1-2.9-1.1-3.6-1.2h-1.7c.6.8 1.8 1.7 2.3 2.1l.2.1.5.4h-.8l-.9.1-.7.1-1 .1.7.7 1.4 1.4.7.7-.9-.3-1.1-.1c-.9-.1-1.6-.3-2.2-.5l-.6-.2-.1-.1 1.1 1.8.6.7-.9-.3-1.6-.4-1.9-.6-.5-.2-.2-.1 1.4 2 .6.6-.8-.2-.9-.2-2.3-.6c-1.2-.2-2.3-.8-2.7-1l.6 1.4 1 1.3.6.6.3.4h-.5l-.6-.1-.4-.1 1.2 1.6c.7.8 2 1.8 2.6 2.3l.2.2 1.1.6-1.2-.1-1.4-.1c1.2 1.5 4.3 3.2 5.3 3.7l.7.4-.8.1h-.1c-.4.1-.9.1-1.9-.1l-.8-.1c.1.1.2.4.7.8 1 .9 4.4 2 4.5 2l.5.2-.4.3s-.5.3-1.4.5l-1.2.2-.5.1-.5.2c.5.6 2.7 1.5 3.9 1.8 1.3.3 2.8.3 2.8.3h.6l-.4.4-.5.4-.9.7c.2.1.7.3 2 .3 1.4 0 3.1-1 3.1-1l.6-.6-.3.7-.4.8c-.2.4-.7.9-1.1 1.3l-.1.1-.4.5c.8 0 3.4-.2 4.3-.7.8-.4 1.5-.9 2.1-1.6.3-.3.8-.8 1.2-1l.1-1.4c.1-.7.3-1.3.9-2l.1-.4c.1-.4.1-.7.7-1.8.8-1.4 1.6-1.7 2.6-2.1l.2-.1c-.2-.9 0-1.8.6-2.5a4.7 4.7 0 0 1 3.3-1.7 11 11 0 0 1 6.7 2.3l5 4h.1l-1.4-3-1-2.9-1.1-1.2c-.9-.9-2.6-2.5-3.4-4.2a18.3 18.3 0 0 1-2.6-7.7c-.2-2.3.8-3.9 1.8-5.5l.2-.4c1.1-1.7 1.4-1.7 2.6-1.5h.2l.7.1c1.6.3 4.2.9 6.2-.1 3.1-1.4 3.9-2.9 4.2-3.5l.1-.2.4-1v-.1l-.2.2c-.3.3-.8.4-1.4.4h-.4l-.6.1.4-.5a10 10 0 0 0 1.5-2.6c.4-.8.4-1.4.5-2-.5.3-1.1.4-1.6.4h-.4l-.5.1.3-.5a7.5 7.5 0 0 0 .7-7.2l-.2-.5c-.2.4-.4.6-.7.8l-.5.5-.6 1 .2-1.2v-2.1c-.1-.9-.6-1.9-.9-2.6l-.1-.3-.3-.6c-.1.7-.5 1.2-.7 1.5l-.2.3-.7.7-.5.4c-.4.5-.9.5-.9.5h-.2v-.2l-.3-1.3v-.3c-.3.7-.7 1.1-1.1 1.4l-.9 1.1-.2.3-.7.6-.3.1-.1-.3v-1.3l-.6.4-1.3 1.1c-.7.8-.9 1.4-1.1 2.1l-.1.3-.1.4-.3-.3c-.4-.4-.9-.8-1.3-.9l-.8-.4-.4-.3-.2-.1.1.9v5.9c0 1.6.5 2.5 1.3 3.8l.6 1c1.1 2.1 1 3.1.2 4.3a19 19 0 0 0-1.7 3.5l-.2.6-.2-.6-.9-2.1a27.8 27.8 0 0 1-2.8-14.6c.4-3.1 1-5.1 2.9-8 1.8-2.6 2.8-3 4.5-3.6l.4-.1c1.9-.7 3.5-1.9 5.5-3.6 1.6-1.3 3.6-2.5 4.8-3.1l.7-.4 1.1-.7c-1.1.2-2.4.1-3.6.1l-1.1-.1h-.7c-1.5 0-2.7-.1-4.6.5a6.7 6.7 0 0 0-3.6 3l-.4.7a7.5 7.5 0 0 1 4.1-1.4h.8l-.6.5-1.7 1.1-2.1 1.4c-.9.7-1.7 1.4-2.9 2.9l-.4-.2c1-4.4 4.4-10.4 5.9-12.5a39 39 0 0 1 4.1-4.6c.9-.9 1.4-1 2.6-.5l1 .5c1.3.6 3.3 1.6 4.8 1.8 1.7.2 3.2-.1 4.1-.4 1.3-2.6 3.6-4.8 6.5-6.3zm-41.4 26.6c-1.7 1.6-3.1 1-3.9.7l-.2-.1-.9-.4 1-.1h.4c.8-.1 1.8-.2 2.5-.8.9-.8.9-1.3.4-2.2-.6-.8-1.1-.6-1.6-.2l-.2.1c-.4.3-.9.7-1.9.6l-1.4-.4-.5-.2-.6-.1.5-.3c.4-.2.7-.2.9-.1h.7c.7-.2 1.2-.7 1.5-1l.3-.3-1.2-.6-.8-.2-1.4-.5c-.9-.5-1.2-.9-1.3-1.1l-.7-1 .9.6c.6.2 1.3.6 2.2.7h.2l.7.1c-.4-.6-.9-1.4-1.2-2.2-.5-1.3-.6-2.4-.7-3.7l.1-1.8.4 1.8c.1.7.6 1.6 1.5 3.1l.1.1c.9 1.6 1.8 2.7 2.9 3.9l.3.3.2.2c1.1 1.4 2.7 3.3.8 5.1zm3.7-3.7.6 2.7.1 1.2-.5-1.1-1.9-2.7-.4-.6-3.7-4.7c-.6-.9-1.1-1.9-1.4-2.8l-.3-1.3.8 1.1c.6.8 1.5 1.7 2.1 2.2l.1-.4.2-.9c0-.8 0-1.2-.2-1.6l-.3-.7.7.4c.6.4 1.1 1 1.3 1.6.2.6-.4 2.1-.5 2.6l1.1 1.3.3-1 .2-.3c.4-.6.9-1.3 1-2.2v-1.4l.5 1.3c.3.8.2 1.6.1 2.4v.2c-.1.7-.7 1.6-.9 1.9l.8 1.1c.3-.3 1-.9 1.3-1.5.9-1.5 1.1-2.1 1.1-2.4l.1-1.1.4 1.1c.2.6.2 2-.2 2.8a7 7 0 0 1-2.5 2.8zm-19 40.1-1.1-.9 1.3.5 1.6.5 2.6.7.9.2c1.1.3 2.5.7 3.3.6l1.4-.1c-.4-.5-1.8-1.8-2.7-2.4l-1.3-.9-.8-.6 1 .1c.1 0 1.6.2 3.1 1.4a16 16 0 0 1 2.9 2.7l1.7.1 1.2-.1v-.1c-.4-.5-2.5-2-3.4-2.4l-2-1-.9-.4h1.1c.1 0 1.1.1 2.1.4l1 .5 1 .4.3.1.7.2s-.3-1.3-.7-1.9a11 11 0 0 0-3.1-1.8l-1.8-.8-1.3-.5 1.5.1c.1 0 2.6.5 3.4.9h.1l-.1-.3-1-1.3-.9-.9 1.2.5c.1 0 1.5.6 2.3 1.5.8.9 1.9 2.2 2.3 3.7.2.8.2 1.4.2 1.8l.1.6.5-.9a12.5 12.5 0 0 0-.1-5l-.1-.5-.3-1.4.8 1.3c.4.7 1.4 2.1 1.6 3.8.2 1.6-.1 3.8-1.6 4.9-1.2.9-3.4 1.2-6.1.8a36.7 36.7 0 0 1-11.9-4.1zm19.8 5.5s-.6.5-1.1 1.2l-.2.3c-.4.5-.7.9-.6 1.4l.1.4c.1.7.3 1.7-.1 2.6-.5 1-1.1 1.5-1.2 1.6l-.6.5.2-.7c.2-.7.6-1.9.4-2.3-.1-.4-.4-.7-.6-.7-.1 0-.3.2-.3.4l-.2.9c-.1.5-.2 1-.7 1.6l-1.2 1.2-1 .7.6-1c.4-.9 1.1-2.4 1.1-2.7v-.3l-.4.4-.2.2c-.8.9-1.7 1.9-4 2.2-2.4.4-3.2-.1-3.3-.2l-.6-.4.7-.1s2.3-.2 3.6-.7c1.1-.5 2.3-1.4 2.9-1.9l-.7.1-2.3-.1-1.4-.2 1.4-.3 1.5-.4.5-.1 1.6-.4c.6-.1 1.8-.3 2.5-1l.4-.4.2-.2-3 .1h-1.2l-1.2.1c-.3.2-2.6.9-3.7 1-1.2.1-2.5.2-3.3-.7l-.5-.5.7.1c1.5.1 3.4.1 4.6-.5h-.1l-.5-.1h-.3c-1-.1-3-.4-4.6-1.5-1.8-1.2-1.8-1.6-1.7-1.8l.1-.3.2.2s1.4 1.1 4 1.7c2.8.6 5.4 1 7.6 1.1 4.1.1 5.7-.6 5.8-.6l1.4-.7-1.3.8zM295 45.1l.3-1.9.3 1.7a7 7 0 0 1-.2 3.1l-.1.5-.2.8c.1 0 .4-.1 1.1-.9.7-.8 1-1.5 1.2-2.1l.4-1.1.1 1.3v.2a6.2 6.2 0 0 1-2.7 4.5c-.5.4-.8.4-1 .4h-.1l-1.2 1.5-.5.7-.2.4c.1.1.4.2.8.1a17 17 0 0 0 2.7-1 4 4 0 0 1 1.5-.5l.5-.1-.3.5s-.4.6-1.4 1.3a7 7 0 0 1-3.2 1.2h-1.3c.6.8 2.4 1.4 3 1.5h.7c.4 0 .7 0 .8.2l.1.2-.2.1c-1.6.8-3 .2-3.9-.1l-.2-.1c-.8-.3-1.4-1.2-1.7-1.5l-.7.4-.7.5-.7.5-.6.2.2-.5c.2-.5 1-1.6 2.8-3.6l.8-.9c.9-1.1 1.9-2.2 2.7-3.5.6-1.7.9-3.3 1.1-4zm-10.8 4.7-.1-1.2-.1-1v-.8l.4.7.4 1.1.2.6c.2.7 1.1 2.7 2 3.1h.5c.6-.4 1-.9 1.1-1.5.1-.3 0-.6-.2-.8a3 3 0 0 1-1-2.7c.1-1.3.1-1.6.3-2l.2-.5.3.5.6 1.5.2.4c.2.5.7 1.4 1.2 1.5.1 0 .3 0 .5-.2.7-.8.5-1.4.1-2.3l-.1-.2c-.3-.7-.1-1.5.4-2.2l.4-.6v.7c0 .6.1 1.3.3 1.6.2.2.4.4.5.3l.3-.4.1-1.1c0-.4 0-.9.3-1.2l.9-.8.5-.4-.1.6-.3 1.6c-.1.4-.3 1.8-1.5 4-1 1.9-2.2 3.6-3.2 4.6-1 1-2.4 1.6-3.6.4a4.1 4.1 0 0 1-1.5-3.3zM300 12.6l-1.9 1.2.3.3.3.4c.3.4.7.9 1.2 1.1l1.1.4-1.3.1c-1.4-.1-1.8-.4-2.5-.9l-.1-.1c-.7-.5-1.6-.8-2.1-.6l-.9.4.7-.8c.3-.4 1.2-1.3 2.7-2.2 1.8-1.1 3.1-1.9 4.1-2.3l4.4-1.7 1.7-.7 1.6-.6.6-.1-.4.5c-.6.6-1 1-2.9 2.1l-2.1 1.1c.4.1 1 .1 2.2-.1l.3-.1v.3l-.2.4c-.3.4-1.3.7-2.2.8-1 0-1.7-.3-2-.5l-1 .5c.5.4 1.8 1.4 4.4 1.7l1.6.1-1.6.4c-1.6.7-3.7.3-6-1.1zm62.4 27.3v-.5c-.1-1-.2-2.2-.5-3.1-.5-1.5-1.1-2.8-1.8-3.7l-2-2.9-.1-.2.1-.1s.6-.7.8-1.7c.2-.8.6-3.1 0-4.9-.5-1.6-1.4-3.7-2.3-5.8l-.3-.7a47.3 47.3 0 0 1-2-5.4 48 48 0 0 0-1.9-3.1l-.6-.7.1.1c.4.5.9 1.5 1.5 3 .6 1.4 1.3 3.6.8 5.9a15 15 0 0 1-.9 3.2l-.1.3c-.3.8-.4 2-.3 2.6l.3 1.5.7.6.1.1c.4.5 1.1 1.3 1.3 2.2.2.8.2 2.3-.4 3-.3.4-.7.6-1.2.6-.9 0-1.3-.4-1.4-.7-.1-.3-.1-.6.1-.8l.4-.1.5-.1c.2-.1.5-.3.5-.9.1-1-.6-1.9-1.3-2.3-.6-.4-1.8-.9-3.4-.8-1.6 0-3.1 0-5.1-.7l-1.2-.4.4 2.5 2.1 2.2c1.8 2.1 4 3.4 6.2 3.7 1 .1 1.9 0 2.5-.2.7-.2 1.2-.3 1.6.1.7.5 1.2 1.3 1.7 2.2l2 4 2.1 1.8.1.2.8.7.1-.7z" clip-rule="evenodd"/><path fill="#C6A148" fill-rule="evenodd" d="M349.4 20.9c-.5-.9-1.9-1.4-2.3-1.5l-1.5-.1-3.4-.2-1.3-.3c.5.9 1 1.8 1.3 2.7a11.2 11.2 0 0 0 5.7 1.3l1.7.2 1 .1c-.1-.4-.5-1.1-1.2-2.2zm-10-4.2c.9.4 1.9.8 2.8 1 .9.2 1.8.1 2.6.1h.9l1.3.2a14 14 0 0 0-2-2.6c-1-.9-2.8-1.2-4.2-1.3a12 12 0 0 1-4.5-.9l-2.6-1.6-.5-.3a5 5 0 0 0-1.7-.8l.1.1 2.4 1.8 1.9 1.7c1.2.7 2.3 1.6 3.2 2.6.2-.2.3-.1.3 0zm-33.5 76.9a25 25 0 0 0-5.1.6l-.7.1-.5.1c-2.6.4-3.8.6-4.9.4l-1-.3.6.7c.7.6 2.5 1.6 3.5 1.8l.5.1-.4.3c-.5.4-1.3 1.3-1.2 2.4l.8-.9.2-.1c.9-.6 2.2-1.5 4.3-1.4 2.1.1 6 .4 9 2.3 2.8 1.7 3.8 2.9 7.7 7.2l.5.5a131.6 131.6 0 0 0 12.6 12.3c-.4-1.2-.7-3.3 1-4.7 1.2-1 2.4-1.3 3.2-1.3l-2.9-1.9a98.4 98.4 0 0 1-10-8.3l-2.1-2.1a20.6 20.6 0 0 1-15.1-7.8zm24.2 17.2h.1l.1.1 1.1.9.2.2.4.4-.5.1c-.5.1-1.7.3-2 1.1l-.3.7-.1-.8c-.4-1.5.1-2.4 1-2.7zm-2.3-1.6h.1l.1.1.3.2.5.4.2.3-.4.1c-.4.1-1.1.5-1.5 1.1l-.3.8-.2-.9c.1-.9.4-1.9 1.2-2.1zm-2.5-2 .2-.2.2.2.7.7.3.2-.3.2s-.9.5-1.2 1.2l-.4.8-.1-.9c-.1-.9.1-1.8.6-2.2z" clip-rule="evenodd"/><path fill="#C6A148" fill-rule="evenodd" d="M302.5 87.3c-1.6-.5-3.6-.8-5.5-.7-3.3.2-6 .9-7 1.3-1.3.5-2.7.2-3.9-1a9.2 9.2 0 0 0-4.8-2.7c-1.7-.2-3.2.2-4.2 1.2-.8.8-1.1 1.5-1.2 1.7.1 0 .3.1.4 0l.8.2.4.2h.1c.4.1 1.3.3 2.4 0 1.5-.4 2.4-.2 3-.1 1.1.3 1.4.9 1.4.9l.3.4-.5-.1-2-.1c-.9 0-2.3.5-2.8 1.4a7 7 0 0 0-.9 2.5c.3.2 1.6.5 2 .5l1.6-.2 1.1-.5.7-.3c.7-.3 1.6-.3 1.7-.3h.3l-.1.3c0 .2-.2.5-.7.6-.3.1-1.7.8-2 1.1-.8.8-1.1 3.3-1.1 3.8.4.2 2.6.3 3.4 0 1.2-.6 2-2.8 2-2.8l.1-.3.3.2c.2.2.6.7.3 1.4l-.1.3c-.2.6-.5 1.3-1.3 1.9-.9.6-1.4 1.2-1.7 2.4-.2 1.1 0 1.6.1 1.8.3 0 1.3-.3 2.1-.9l.2-.1c1-.7 2.9-1.9 3-5.3 0-1.6-.3-2.5-.5-3.2-.3-.9-.5-1.6.6-2.3 1.2-.8 3.7-1.2 5.6-1.3a16.2 16.2 0 0 1 8.1 2.1l-.7-1.2-1-2.8z" clip-rule="evenodd"/><path fill="#C6A148" d="m376 106.9.3-7.5a33.2 33.2 0 0 1-19.2 4.6c-5 0-10-.9-13.9-1.9 1-1.9 2.7-4.7 2.2-7.6-1.8-1-7.7-1.2-13 1.4-2.4-1.8-5-.3-7.3 0-2.1 0-3.9-.7-5 .5a23.4 23.4 0 0 0-15-2.6c-.1 1.1-.3 2.9.1 4.3-8.5 1.4-15 5.2-23.8 5.9-6.3.5-9.1-.7-9.1-.7l3.2 7-2.7 6.5s4.9 1.2 10.7.1c6.7-1.3 13.1-4.2 20.4-5.9l7.1-1.2 8.1-.3c1.4 2.5 3 2.7 4.2 2.6 2.2-.5 5.7.7 7.5.7.7-.1 1.2-.4 1.5-.7 6.1 1.5 11.5 4.6 24.6 4.9a42 42 0 0 0 23.5-5.7l-4.4-4.4z"/><path fill="#A90D22" d="M318.9 104.5c-.4-2.3.6-6.5 2.3-7.2 1.4-.6 2.7.1 4.4 0 1.7-.1 2.3-.9 4-.8 1.7.1 1.5.4 1.5.4s-1 .9-1.6 1.8c-.8 1.2-1.8 3.7-1.5 6.7.4 3.2 1.2 4.6 2.3 5.4 0 0 .5.3 1.2.3 0 0-.1.6-2.1.4-1.9-.2-3.1-.9-4-.9-.9 0-2 .3-3.1 0-1.4-.3-2.8-2.3-3.4-6.1zm57.1 2.4.2-5.5c-4.1 2.5-8.6 3.9-19.1 4-5.2 0-10.4-.9-14.2-1.9-.3 2.2-.5 5.4-2.2 6.6a6.8 6.8 0 0 1-4.5 1.5c4.9 1.5 10.5 3.7 20.9 4.1 11.9.5 20.4-4.2 22.4-5.4l-3.5-3.4zm-58.4-2.4a10 10 0 0 1 .5-4.7c-3.5-.6-8.1-1.2-12.7-.3-7.7 1.4-14.8 5.2-23.6 5.9-6.3.5-8.7-.4-8.7-.4l2.4 5.3-2.2 5s4.3 1.4 10.4.1c6.5-1.4 13.3-4.1 20.6-5.8a92 92 0 0 1 7-1.1l7.2-.2c-.3-1.1-.7-2.5-.9-3.8z"/><path fill="#A90D22" d="M343.8 95.6c-1.4-.7-5-.5-8 .5-1.1.4-2.2.8-3.3 1.4-.4.3-1 .8-1.3 1.3-.8 1.1-1.9 3.7-1.6 6.7.2 1.9.9 3.4 1.5 4.2 5.8.9 7.2.3 8.9-1.2 1.1-1.3 1.3-4.7 1.3-5.5.6-1.3 3-6 2.5-7.4zm-25.2 2.9.6-1.1c-4.1-2-7.7-2.7-12.6-2.5 0 .8 0 2 .2 2.9 4.2-.3 8.5.2 11.8.7z"/><path fill="#C6A148" d="m320.7 27.2.3 1.1s.1.2 0 .2l-.2 1h-.1l-2.2 7.1a26 26 0 0 1-1.5 4.2h3c-.4-.9.3-2.4.5-3.3.1-.2.1-.6.3-.8h4.1l.1.3c.2 1.1 1.1 2.6.7 3.8h3.2c-.6-.9-.9-2.1-1.2-3.1l-2.1-6.7c-.1-.6-.5-1.5-.5-2.1l.2-1.6-4.6-.1zm2.3 2.6 1.3 4.3h-2.6l1.3-4.3z"/><path fill="#00291A" d="M321.4 17.3c2.8-.2 5.5.4 7.5 1.2 2.8 1 5.1 2.5 8.9 2.3.2 0 .5.1.8 0 .3-.2 1.1-1.5 1.5-1.8.2.4.8.8 1 1.2.8 1.3 1.2 3.6.3 4.9-.2.3-.3.5-.7.7-.8.5-1.7.8-3.1.8.2.6.5 1.1.6 1.8.8 2.5.6 5.4-2.1 5.9-1.6.3-2.9-.3-4.1-.5l-.1-.1c.5-.7.9-1 1.2-2 .9-4.2-2.7-7.3-5.6-8.5a12 12 0 0 0-4.5-.8c-.9 0-2 0-2.8.2-4.1 1-7.5 4.1-8.8 7.8a11 11 0 0 0 .6 9.7c1.8 3.2 5.3 5.7 10.2 6 1.3.1 2.8 0 3.9-.4 1.3-.5 2-1.3 2.8-2.2l1.2.3c1 .4 2 1.5 2.1 2.8.2 1.6-.7 2.4-1.6 3.1a21.9 21.9 0 0 1 12.7 12.4c.9 2.1.8 4.9 1.9 6.8.7 1.3 1.5 1.2 3.4 1.2.2.4.5.9.5 1.4.3 2.2-1.6 4.8-3.6 4.7-.7-.1-1.3-.6-1.8-.9-.4 1.6-1.1 2.9-1.8 4.2-1.7 3-3.7 5.5-6.5 7.5a22.9 22.9 0 0 1-24.3.7c-1.7-1-5-3.9-7.8-3.4-1.1.2-1.8 1.1-2.8 1.3-.6-.8-1.4-1.6-1.7-2.6-1-3 .9-5 3.3-5.6-1.4-5.5.3-10.8 4.7-12.6 1.2-.5 2.6-.5 4.1-.7-.3.7-.9 1.2-1.3 1.9-.7 1.1-1.3 2.6-1.5 4.1-.4 3 .5 5.6 1.5 7.5 1 2 2.5 3.8 4.3 4.9a18.4 18.4 0 0 0 17.5.4 15 15 0 0 0 6.5-9.1c.3-1.5.7-3.9.5-5.5-1.1-6.7-8.2-15.2-16.9-13.6-1.5.3-3 .8-4.2 1.4-1.1.7-2 1.8-2.8 2.7l-.2-.1c-.3-.6-.7-1.1-.8-1.7-.8-3.1.6-5.5 2.4-6.9-1.3-.3-2.3-1.1-3.4-1.7-4.2-2.5-6.7-6.7-7.7-12.4-1.5.4-4 .6-4.4-.9v-.8c.2-1.2.9-2.1 1.4-3l.8.4c.9.2 2-.8 2.4-1.2 1.2-1.3 1.7-2.8 2.7-4.4 2.4-4.4 7.5-8.4 13.7-8.8z"/><path fill="#C6A148" d="M318.9 60.6c.3.3.5.9.5 1.5v12.3c0 1.2.1 2.6-.3 3.5h3.5c-.3-.3-.4-.5-.4-.9v-6.1c1 .1 2.8-.1 3.8-.1.9 0 2-.3 2.7-.6 1.3-.5 2.1-1.7 2.5-3.2.2-1.2 0-2.7-.4-3.5-2-3.6-6.4-2.9-11.9-2.9zm3.3 2.5c3.4 0 6.4-.7 6.4 2.8 0 .5-.3 1.3-.7 1.6-1 .7-3.8.9-5.7.7v-5.1z"/><path fill="#A90D22" d="M212.7 83c-.5 0-.7-.2-.7-.6 0-.4.2-.5.6-.6 1.4-.3 1.8-.9 1.8-3V64c0-2.1-.3-2.6-1.9-2.8-.6 0-.9-.2-.9-.7 0-.5.2-.6.8-.7 2.3-.4 3.5-.8 4.7-1.7l.8-.4c.3 0 .4.2.4.6v20.3c0 2.1.4 2.7 1.8 3 .5.1.6.3.6.6 0 .5-.2.6-.7.6l-3.7-.1-3.6.3zm13.9-18.2c0-4.3 2.7-7.1 6.7-7.1 3.6 0 6 2.3 6 5.8 0 1.4-.4 2.7-1.1 3.7-.4.6-.8 1-1.7 1.6a7.6 7.6 0 0 1 3.4 6.6c0 4.7-3 7.9-7.3 7.9a6.5 6.5 0 0 1-6.7-6.7 7 7 0 0 1 3.4-6.1 6.6 6.6 0 0 1-2.7-5.7zm2.1 11.2c0 3.2 1.8 5.5 4.5 5.5 2.3 0 4-1.9 4-4.3 0-2-1.2-3.5-3.4-4.5l-2.7-1.1-.4-.2c-1.4 1.2-2 2.5-2 4.6zm8.2-11.8c0-2.8-1.7-4.8-4-4.8-1.9 0-3.4 1.6-3.4 3.7 0 2.2 1.5 3.5 5.7 5a4.7 4.7 0 0 0 1.7-3.9zm168.7 1.9c3.4 0 5.8 3.3 5.8 8.1 0 5.5-2.7 9.2-6.7 9.2-4.4 0-7.3-4.3-7.3-10.8 0-4.8 1.5-9.1 4.2-12a13 13 0 0 1 7.7-4c.5 0 .8.3.8.8 0 .3-.1.5-.7.7a11 11 0 0 0-5.8 4.8 10 10 0 0 0-1.6 4.6c1.3-1 2.3-1.4 3.6-1.4zm-.9 15.3c2 0 3-2.1 3-5.9 0-4.3-1.4-7.1-3.5-7.1-1.9 0-3 1.9-3 5.4v.4c.2 4.8 1.4 7.2 3.5 7.2zm18.4-6.5c-3.4 0-5.8-3.3-5.8-8.1 0-5.5 2.7-9.2 6.7-9.2 4.4 0 7.3 4.3 7.3 10.8 0 4.8-1.5 9-4.2 12-1.7 1.8-3.7 3-6.1 3.7l-1.6.3c-.5 0-.8-.3-.8-.8 0-.4.2-.5.7-.7a11.6 11.6 0 0 0 7.3-9.4 5 5 0 0 1-3.5 1.4zm.9-15.3c-2 0-3 2.1-3 5.9 0 4.3 1.4 7.1 3.5 7.1 1.9 0 3-1.9 3-5.4v-.5c-.2-4.8-1.3-7.1-3.5-7.1z"/><path fill="#C6A148" d="m573.4 156.4-.3 3.4 4.5-1.2 19.3-5.2.2-2.3c0-.2 1.7-24.2 2.6-29.3a56.1 56.1 0 0 1 8.6-20.4l.7-7.2a56.3 56.3 0 0 0-12.1 25c-.9 5.1-2.6 29.1-2.6 29.3l-.2 2.3-19.3 5.2-1.4.4zm-288.7 78.8a17 17 0 0 0 13.8-.9 55.3 55.3 0 0 0 15.6-13c2.6-3 5.2-6.3 7.9-9.7l.6-7.2c-3.7 5.1-7.5 10-11.3 14.4a55.3 55.3 0 0 1-15.6 13c-4 2.1-9.3 2.8-13.8.9l-2.2 24.6 3.1-.9 1.9-21.2zm269.7-133a45.7 45.7 0 0 0-5.7 11.5c-.6 1.6-1 3.3-1.5 5a40 40 0 0 0 4.9-7.4c1.4-2.8 2-5.7 2.3-9.1zm-267.7 115c-.5-2.1-.3-4.6-.2-6.1v-.1c1.2-14.7 2.1-22.7 9.1-30.6.5-.7 1.3-1.3 2-1.8l-.2-1.7-.2-.8c-.1-.2-.2-.5-.4-.6-.3-.1-1-.1-1.8.4s-1.6 1.2-2.2 2c-7 7.9-7.9 15.9-9.1 30.6v.1c-.2 2.1-.4 5.9 1 8.2.4.7.8 1.1 2 .4zm-227.6 1 3.6.7c2.8.8 5.7 1.3 8.8 1.5l.2-2.4c-4.3-.1-8.1-.6-11.8-1.6h-.1l-.7 1.8zm28.5 69a15.3 15.3 0 0 1-12.1 1.5l-2.3-1.1c1.3 1.6 3.1 2.9 5.1 3.6 3.7 1.2 8.3.7 12.1-1.5 4.6-2.7 8.8-6.6 12.4-10.9-1-.7-2-1.6-2.8-2.6a47.9 47.9 0 0 1-12.4 11zm342-88.9 24-6.4 2.6-29.5a63 63 0 0 1 7.4-22.6l.6-7.1c-6.1 6.7-8.6 14.5-10.9 27.2l-2.6 29.5-20.8 5.6-.3 3.3zm32.7-8.8 23.8-6.4 2.4-30.1c.5-5.9 3.1-13.7 6.8-20.3l.7-7.8a54.9 54.9 0 0 0-10.3 25.6l-2.4 30.1-20.7 5.6-.3 3.3zm-103.9-11.6c1.5.9 3.2 1 4.7.5a47 47 0 0 1 1.2-5.1c-1.2 1-2.2 1.7-2.9 2.1a5.1 5.1 0 0 1-5.1.3c.5.9 1.2 1.7 2.1 2.2zm27.2 3.3c.1 2.1.5 3 .7 3.3a7 7 0 0 0 2.1-1.3v-.5a53 53 0 0 1 2.6-15.6 79 79 0 0 1 7.3-16.3c1.3-2.2 3.3-3.7 4.9-4.3l-.2-2c-.2-.8-.4-.8-.6-.8-1.6-.2-4.9 1.4-6.8 4.7-3.3 5.7-5.7 11-7.3 16.3a52.5 52.5 0 0 0-2.6 15.6v.4l.1.1-.2.4zm-62 45.8 24-6.5 2.3-28.2c.6-7.1 2.2-12.9 4.6-17.7a8.6 8.6 0 0 1-2.1-4c-2.8 5-4.7 11.4-5.3 19.3l-2.3 28.2-20.8 5.6-.4 3.3zm-98.8 7c.4.1 1.1-.2 1.7-.8a54.9 54.9 0 0 1 .1-18.3c1-5.7 3.5-11.7 6-16.3-1-.9-1.9-1.9-2.5-3.1a52.7 52.7 0 0 0-5.8 37.8c.1.6.3.7.5.7zM99 173.5l-2 23.2 3.2-1.9 2-23-3.2 1.7zm527.8 6.5 2.7 1.9c-.3-3.2-.4-6.3-.4-9.3 0-7.7.8-14.9 1.5-22.3l.9-9.5 4.5-53.4.2-2.5c0-4.8-1.8-7.9-3.4-9.7-.7-.8-1.5-1.4-2.4-2 1.5 1.9 3 4.8 3 9.2l-.1 2.5-4.6 53.4-.9 9.5c-.8 7.4-1.5 14.6-1.5 22.3a100.7 100.7 0 0 0 .5 9.9zm-472.5 87.4c-3.4 3-9.1 5.8-14 4.2l-1.5-.6a8.8 8.8 0 0 0 4.3 3.2c5 1.6 10.7-1.2 14-4.2 1.4-1.3 2.6-2.6 3.7-3.9l.6-6.6a52.3 52.3 0 0 1-7.1 7.9zm44.2-46.6c1 .6 2 .8 3 .8l.7-4-.8.6a5.1 5.1 0 0 1-5.1.3 6 6 0 0 0 2.2 2.3zm-89.8 60.1c-2-.2-3.7-.8-5.3-1.7 2 2.4 4.7 3.9 8.1 4.2 6.1.5 13.5-2.8 19.3-8.7a52 52 0 0 0 5.2-6.3c-.7-1-1.4-2.3-1.8-4a53.6 53.6 0 0 1-6.2 7.7c-5.8 6-13.2 9.4-19.3 8.8zm107.4-26.3c6.8 1.8 15.4-.6 22-6.1l2.9-2.6a83.6 83.6 0 0 0 19.4-32.6l1.3-15.1c-.7.4-1.3.7-2 .9a51.1 51.1 0 0 1-3.5 15.4 79 79 0 0 1-18.1 28.8l-2.9 2.6c-6.6 5.5-15.2 7.9-22 6.1-1.7-.4-3.2-1.2-4.6-2.1 2 2.4 4.5 3.9 7.5 4.7zm-79.4-38.3c-.2-.8-.5-.9-.7-.9-1.6-.2-4.9 1.4-6.8 4.6a78.7 78.7 0 0 0-7.5 16.4 49.8 49.8 0 0 0-2.7 15.7v1a8 8 0 0 0 .7 3.4 7 7 0 0 0 2.1-1.3v-.6c0-5 .9-10.2 2.7-15.7a83.5 83.5 0 0 1 7.4-16.4c1.3-2.2 3.3-3.6 4.9-4.3l-.1-1.9zm27 53.5 24-6.5 2.3-28.2c.6-7.2 2.2-13 4.6-17.7a8.5 8.5 0 0 1-2.1-4.1c-2.9 5-4.7 11.3-5.3 19.3l-2.3 28.2-20.9 5.6-.3 3.4zm-13.3-96.2zm10.5 66.9 3.9-43.7-3.1.8-4.3 48.1c1.2-1.6 2.4-3.4 3.5-5.2zm48.7-46.7.1 1 2.3-2.3-.9-4.1a5.8 5.8 0 0 0-3.4-3.9c.3.4.5.9.6 1.4.9 2.8 1.1 5.5 1.3 7.9zm51.1-12.3a14.4 14.4 0 0 0-4.9-5.7c1.6 1.9 2.8 4.3 3.5 7.1l1.4-1.4zm-113.2-10.4zm503.3 37.8a22 22 0 0 0-2.4-8.1 39.5 39.5 0 0 0-10.1-12 35 35 0 0 1 7.3 9.5 26.5 26.5 0 0 1 2.5 9.9c0 3.2-1.1 6-3.3 7.9a9 9 0 0 1-8.5 1.8 32.3 32.3 0 0 1-11-6 34 34 0 0 0 13.8 8.5 9 9 0 0 0 8.5-1.7c2.1-1.8 3.3-4.7 3.3-7.9.1-.7 0-1.3-.1-1.9zm-41.5-21.2a44.7 44.7 0 0 0-22.2.8c-11 2.7-19.2 5.2-30.4 8.8l-14.5 4.9-22.2 7.4-61.5 20.5-79.1 26.1-32.3 10.7-297.5 98.5-3.4 4.6L350 269.3l32.3-10.7 79.1-26.1 61.5-20.5 22.2-7.4 14.5-4.9c11.2-3.6 19.4-6.1 30.4-8.8 8-2 14.3-2.3 20.3-1.2l-.7-1.6-.3-.4zm-288-11.4-.1 2.6-.7 7a40 40 0 0 0 3.6-7.3c0-5-1-9.8-2.8-14-.8-2-2-3.5-3.5-4.9l-1.4-1a13 13 0 0 1 2.1 3.4c1.8 4.2 2.8 9.1 2.8 14.2zM67.2 273.2v-.4c0-2.2.2-4.5.4-6.7l.9-10.6c-.3-3.4-.9-6.8-1.8-9.9a87 87 0 0 0-4.9-12.7c-2.5-5.6-5.4-11.3-8.3-16.8l-4.4-8.5-3.4-6.9a105.3 105.3 0 0 1-11-37.6 55.2 55.2 0 0 1 .3-15.5l.3-2.5A71.1 71.1 0 0 1 59 101.6a55.8 55.8 0 0 1 40.8-11 38 38 0 0 1 17.8 7.1c-5-5-11.6-8.1-20.7-9.6a55.7 55.7 0 0 0-40.7 11 71.1 71.1 0 0 0-23.7 43.5l-.3 2.5-.5 4c-.3 3.4-.3 7.2.1 11.4 1.1 12.3 4.5 23.9 11 37.6l3.4 6.9 4.4 8.5a220.2 220.2 0 0 1 13.2 29.6c5.1 17.7 1.5 41.9-18.5 53.1a46.5 46.5 0 0 1-45.3-.9v.9l1.7 1.1a46.4 46.4 0 0 0 46.4 1.6 39.4 39.4 0 0 0 19.1-25.7zm44.2-66.2a90.6 90.6 0 0 1-16 7.4l-4.7 51.3c1.5-1.1 2.4-2.1 3.4-3.4l4.2-45.4a90 90 0 0 0 16-7.4 109.7 109.7 0 0 0 36.2-35.8l.8-1.4.4-.7a68 68 0 0 0 8.9-34.1 68 68 0 0 0-23.7-51.8 68.5 68.5 0 0 1 11.9 83.4l-.4.7-.9 1.4c-8.4 14-21.6 27.1-36.1 35.8zm390.9-29.9 2.6.6 4-.3c7-1.6 12.4-7.9 17.2-14.1-.9-.8-1.8-1.7-2.6-2.8-4.8 6.2-10.3 12.8-17.4 14.4l-4 .2-2.6-.6-.7-.4c1 1.4 2.1 2.4 3.5 3zM410 202.4c5 1.6 10.7-1.3 14-4.3l2.8-2.9.6-6.2-6.3 6.6c-3.3 3-9 5.9-14 4.3l-1.6-.7c1.6 2 3.3 2.8 4.5 3.2zm-40.4-51.5.1 1.1 2.3-2.2c-.2-1.3-.4-2.7-.9-4a5.8 5.8 0 0 0-3.4-3.9c.2.4.5.9.6 1.4.9 2.6 1.1 5.2 1.3 7.6zM530 166.8c9.1 6.7 22.9-1.8 26.9-4.6 4.8-3.1 9.5-7.6 14.1-13.3l.6-7a69.5 69.5 0 0 1-17.5 17.9c-4 2.8-17.6 11.1-26.7 4.7.8.9 1.6 1.7 2.6 2.3zM378.1 212c5.9.5 12.8-2.7 18.5-8.6 2.6-2.6 4.4-4.9 5.9-7.1a13 13 0 0 1-1.7-4.1 53.2 53.2 0 0 1-7 8.7c-5.7 5.9-12.7 9.1-18.5 8.6-2-.2-3.7-.8-5.2-1.7 1.9 2.4 4.6 3.9 8 4.2zm52.7-82.2.4-4.7-3.1.8-.1 1.3c-.1 1.7-3.1 36.3-4.2 47.4 1.4-1.6 2.6-3.3 3.5-5l3.5-39.8zm86.2 19.5c1.2-1.6 2.3-3.3 2.8-4.8.5-1.3.6-2.8.8-4.6l.7-4.7.1-.6 1.6-17.1.2-4.7c-.4-5.6-2.7-8.6-5.4-10.1a14 14 0 0 1 2.5 7.5l-.2 4.7c.1.1-2.2 25.4-3.1 34.4zm29.4-4.8h1.4c-.2-1.2-.3-2.5-.3-4.1a67.5 67.5 0 0 0 21.9-18.5l2.1-4.1 2.7-5.3.1-.8 1.6-17.5a11.9 11.9 0 0 0-4.3-4.8c.8 1 1.5 2.1 2.1 3.5.8 2.1 1.2 4.5 1.2 7 0 4-1 8.1-2.9 11.5l-3.6 5.5a67.8 67.8 0 0 1-23.7 21c0 2 .1 3.6.5 5s1 1.6 1.2 1.6z"/><path fill="#00291A" d="M620.4 71.9c-3 .1-8.9 2.6-13.2 7A61 61 0 0 0 595.8 95l1.2-14.3-17 4.6-2.5 26.8-.1 1.4c-6.9 13.3-9.7 22.5-24.3 32.3-5 3.3-9.5 2.9-11-1.7-.7-2.5-.7-5-.7-7.9a65.3 65.3 0 0 0 24.3-21c.9-1.3 2.7-3.8 3.4-5.3 3.8-6.7 3.7-18.4-3.5-20.8-7-2.5-16.2 3.5-21.7 8.6a62.3 62.3 0 0 0-11.4 14.8c-4.2 7.3-6 15-7.9 23.4-.8 3.6-.5 6.7-1.6 9.7-1.1 3-3.6 6.6-6.2 9-2.2 2.1-3.5.8-3.3-2.4l3.5-37.6c.2-1.6.2-3.1.1-4.3-.4-5.5-2.9-8.4-8.1-8.4a23 23 0 0 0-13.3 6.4l-.4.5a52.8 52.8 0 0 0-10.6 15.4l.1-1.6c.6-5.6-1.8-11.6-8.3-11.4-3.1-.1-8.4 1.7-12.7 5.9a51.2 51.2 0 0 0-11.3 15.3l1.2-13.3-17.1 4.6-3.2 38.8a28.4 28.4 0 0 1-9 16.3c-1.7 1.5-4.9 3.6-4.1-1.5.5-3.8 4.5-50.5 4.5-50.5l-15.6 4.2-.7 4.8c-3.1-6.1-10.5-4-14.6-2a34.2 34.2 0 0 0-7.8 5.4c-2.1 2-4.4 4.3-6.4 6.7 0-.1-5 6.3-8.5 9-2 1.5-3.9 1.6-4.4-.2-.6-3-.4-7-1.6-10.8-1-3.4-5.2-2.4-8.4.9a48.9 48.9 0 0 0-10.3 15.8l1.1-12.9-17.2 4.6s-1.6 20.2-1.9 21.8c-.8 4.8-2.2 11.4-13.9 24.9 1.4-5.3 2.8-12.5 3.3-20.5.3-5.5-.5-10.7-2.5-15.3-.7-1.6-1.6-2.8-2.7-3.8-3.1-2.5-8.4-3.1-12.9-1.2l-2 1a41.6 41.6 0 0 0-14.2 15.3l.8-9.9-17 4.7-.8 7a14.7 14.7 0 0 1-9.8 11.6l-.4-2.8c-2-14.2-18.1-14.7-30.4-3-2.1 2-4.4 4.3-6.5 6.7 0-.1-5 6.3-8.5 9-2 1.5-3.9 1.5-4.4-.2-.5-3-.4-7-1.6-10.8-1-3.4-5.2-2.4-8.3.9a51 51 0 0 0-10.4 15.8l1.1-12.9-16.9 4.6-3.5 38.2c-.6 5-6.2 13.8-10.3 17.6-1.4 1.3-3.6 1.6-3.2-2.1l4.6-50.4-15.5 4.1-.7 4.9c-.3-.7-.9-1.3-1.2-1.8-3.3-3.5-9.4-2.1-13-.5l-1 .5c-9.5 4.7-18.5 17.5-23.2 29.2l-.2.5a80.9 80.9 0 0 0-5.2 26.2c-2 3.5-3.4 5-6.6 7.4-3.1 2.3-4.6 1-4.4-1.8l5.1-55.3a89.9 89.9 0 0 0 17.4-7.9 105 105 0 0 0 35.1-34.7l1.2-2.1a65.1 65.1 0 0 0-13.6-81.5l-.1-.1C111.1 67.9 76.1 69.5 56.5 80l-1.3.7c-25.7 14-43.5 32.7-49.9 58.7-.7 2.4-1.1 4.9-1.6 7.5-.4 1.8-.5 3.7-.8 5.6l-.1 5.5c-.2 13.9 3 27.3 8.1 39.7a189 189 0 0 0 18.4 32.5L32 234c6.9 9.4 21 29.3 11.1 43-8.7 11.9-25.8 10.3-40.1-10.2L.7 292.1a42.8 42.8 0 0 0 43.1 1.5c17.5-9.8 22-31.6 16.9-49.4A82.8 82.8 0 0 0 56 232c-3.7-8.5-8.5-17-12.7-25.3a92.4 92.4 0 0 1-3.4-7.1 108.3 108.3 0 0 1-11.3-38.7c-.4-3.9-.6-8.1-.1-12.1.1-2.1.5-4.4.8-6.6 3-17.2 11.3-35.2 25-45.7a59 59 0 0 1 43.3-11.7 37.1 37.1 0 0 1 26.7 15.7c8 12.4 10.2 30.2 7.6 47.2a92.4 92.4 0 0 1-9.2 27.5 61 61 0 0 1-29.6 27.2l2.4-27.4-17.5 9.6-1.9 21.6a42 42 0 0 1-12.3-.6c-.9 2.2-2.3 5.3-3.1 7.7 4.9 1.4 9.5 1.7 14.6 1.5l-4.5 51.7a32 32 0 0 0 1.1 14.8c2.2 5.1 8.8 6.1 14.1 3.1a48 48 0 0 0 14.9-13.9l1.8 3.7c4.4 6.4 15.2 3.8 23-4.2 5.7-6 7.5-9.8 11.5-16.9 0 4.3-.8 6.6 0 10.1 1.9 8.3 10 6.2 15 1.8 5.3-4.9 9-10.5 13.5-16.2l-1.2 14.1 17.2-4.6 2.1-25.9a48 48 0 0 1 7-22.8l.1-.1c2.3-4 3.8-2.2 4.3.3l.2 1.8c-.2 2.6 2.4 5.2 4.3 3.9 1.4-.7 3.9-2.9 5.9-4.7 1.3-1.2 2.6-3 3.8-4.2-.6 1.3-1.1 2.7-1.8 4a49 49 0 0 0-1.4 31.2c4 10.6 17.9 9.3 27 1.8l2.9-2.6a77.6 77.6 0 0 0 17.1-27.4c2.3-6 3.3-11.1 3.5-16.9 2.8-.3 6.4-2.4 9-6.6l-6.8 76.5L87.1 314l-34.9 47.1 293.9-97.4 32.3-10.7 79.1-26.1 61.4-20.5c12.2-3.9 24.5-8.2 36.7-12.2 11.1-3.6 19.5-6.1 30.7-8.9a48.3 48.3 0 0 1 25.3-.5c2.2 5.1 3.9 9.1 6.1 12.9a36 36 0 0 0 19.6 16.9c4.7 1.3 8.2-2.3 7.5-7.9-.2-2.6-1-4.9-2.1-7.1a50 50 0 0 0-19-17.8l-.2-2.2c-1.3-15.6.9-27.9 2-41.8l4.6-53.4c.9-7.8-3.3-12.6-9.7-12.5zm-74.8 40.6a39.2 39.2 0 0 1 7.6-14.1c1.9-1.9 4.8-.6 4.6 2.8-.1 3.7-.8 7.5-2.8 11.5a38.6 38.6 0 0 1-13 15c.7-5.6 1.9-10.7 3.6-15.2zM137.7 234.9c-.7 3.8-2.5 7.7-4.7 11-2.9 4.3-5.7 9.4-8.1 11.1-5.6 5-8.7 3.1-9.1-3.7l-.1-.7c-.1-5.9 1-11.8 2.8-17.2 2-6.3 4.8-12.1 7.7-17.1 3.7-6.2 12.2-8.9 13.6-2.8 1.2 4.9-1.3 14.9-2.1 19.4zm100-22a47.3 47.3 0 0 1-8.3 22.1c-2.7 3.5-7.3 3-8.3-.6-1.6-6-1.9-14.3-.5-22.5 1.6-9.3 7-20.3 11.2-24.1-1 5.6 2.4 9.4 7.6 11.2-.1 4.4-1 9.2-1.7 13.9zm144.5-32.1c-.1-5.9 1-11.7 2.8-17.1 1.9-6.3 4.7-12 7.6-16.9 3.6-6.2 12.1-9.1 13.5-3 1.1 4.8-.8 13.4-1.7 17.8-.7 3.8-3.1 9.8-5.2 13-2.8 4.3-5.6 8.7-8 10.5-5.5 4.9-8.5 3.1-8.9-3.7l-.1-.6zm-101.8 27.5c1.2-14.6 2.2-23.8 9.9-32.5.7-1 2-2 3-2.6 2.6-1.5 5.8-1.4 6.9 1.9l.3 1.1c1.4 7.5-1.2 30.3-7.1 39.1-1 1.5-2.2 2.7-3.5 3.7-3.2 2.4-5.8 2.8-8 0-2-3.6-1.7-8.2-1.5-10.7zm354.3-9.4a19 19 0 0 1 3.1 5.3c.7 1.9.1 3.6-2.2 2.4-3.3-1.4-5.1-3.4-7.1-7.1-1.6-2.9-2.3-6.1-3-8.7 2.7 2 5.4 3.4 9.2 8.1zm-22-108.1-2.6 26.8-2.1 21.5a125.7 125.7 0 0 0 1.2 37.2c-8.4-2-16.4-1-26.9.9l-2.2.4c-17.9 3.9-36.9 9.6-55.6 14.6-2.6.8-5.3 1.5-7.9 2.1l-105.4 29.6-64.2 18-26.7 7.3-44.3 12.5 3.1-35.1c3.8 4.9 10.9 4.4 15 2.2a53.8 53.8 0 0 0 14.7-12.3 232 232 0 0 0 18.1-24.1l-2.4 27.6 17.2-4.6 2.1-25.9c.6-7.3 2.3-15.8 6.9-22.7l.1-.1c2.3-4 3.8-2.2 4.3.3.1.6.2 1.1.1 1.8-.2 2.6 2.3 5.2 4.3 3.9 1.4-.7 3.9-2.9 5.9-4.7 1.3-1.2 2.6-3 3.8-4.2l2.6-2.9-1.1 2.5-.2.4c-2 5.5-4 11.8-4.8 18-1.2 7.6-.6 15 3.3 20.7 4.4 6.4 14.5 4.2 22.3-3.9 5.2-5.3 7.2-8.9 10.3-14.5l1.5-2.7-.1 2.8c0 2.7.3 4.6.7 7.3 1.9 8.2 10 6.2 15 1.7 2.5-2.4 4.9-4.9 7-7.5 2.2-2.7 3.7-5.2 5.9-7.8l-1.4 13.5 17.2-4.6 2.4-27.2c2.5-13.9 5.2-23.3 13.7-31.4 1-.6 4.5-2.3 4 1.6l-4.6 52.9 17.1-4.6 2.2-27.8c.7-8.6 5.7-23.1 13.7-30.7.8-.8 3.9-2 3.5 1.8l-3.2 37.3c-.3 4.4.2 11.1 4.5 13l1.5.4c1.1.1 2.1 0 3.2-.2 7.3-1.6 13.2-10.4 18.6-17.3 1 2.9 2.5 5.5 4.8 7 6.4 4.7 16.7 0 23.3-4.5a83.5 83.5 0 0 0 23.8-27.9l-2.1 23.7 17.1-4.6s1.7-24.3 2.6-29.7c2-11.4 9.2-23.8 15.5-29.5.9-.7 3.9-2 3.7 1.7z"/></svg>