<?xml version="1.0" encoding="UTF-8" standalone="no"?>
<!DOCTYPE svg PUBLIC "-//W3C//DTD SVG 1.0//EN" "http://www.w3.org/TR/2001/REC-SVG-20010904/DTD/svg10.dtd">
<!-- Created with Inkscape (http://www.inkscape.org/) -->
<svg
   xmlns:svg="http://www.w3.org/2000/svg"
   xmlns="http://www.w3.org/2000/svg"
   version="1.0"
   width="800"
   height="800"
   id="svg2">
  <defs
     id="defs4" />
  <g
     id="layer1">
    <path
       d="M 445.09211,368.20861 L 449.70219,389.21016 L 436.89638,401.50375 L 430.74959,395.61308 L 445.09211,368.20861 z"
       id="path3237"
       style="fill:#ffffff;fill-rule:evenodd;stroke:#000000;stroke-width:4.30275488;stroke-linecap:butt;stroke-linejoin:round;stroke-miterlimit:4;stroke-dasharray:none;stroke-opacity:1" />
    <path
       d="M 401.04008,54.722174 C 220.97346,54.722174 74.389986,178.26897 70.265795,331.8465 C 74.79869,192.96651 221.23601,81.345471 401.04008,81.345471 C 580.84416,81.345471 727.28149,192.96651 731.81438,331.8465 C 727.69019,178.26897 581.10671,54.722174 401.04008,54.722174 z"
       id="path3278"
       style="opacity:1;fill:#b2b2b2;fill-opacity:1;fill-rule:evenodd;stroke:#b4b4b4;stroke-width:1.43425167;stroke-linecap:round;stroke-linejoin:miter;stroke-miterlimit:4;stroke-dasharray:none;stroke-dashoffset:0;stroke-opacity:1" />
    <path
       d="M 26.085723,447.09247 L 782.46938,447.09247 M 26.189003,485.86329 L 356.98806,449.1414 M 26.189003,525.29265 L 400.01561,447.09247 M 26.189003,583.51167 L 413.33367,449.1414 M 26.189003,673.95581 L 408.21134,446.068 M 124.252,742.92445 L 397.96668,456.31266 M 251.46813,742.92445 L 406.16241,451.19033 M 338.54769,742.92445 L 404.11349,465.53285 M 472.39046,742.92445 L 408.21134,450.16587 M 559.16998,742.92445 L 400.01561,437.87228 M 685.47929,742.92445 L 401.04008,445.04354 M 782.46938,672.83709 L 395.91776,440.94567 M 782.46938,583.34638 L 383.62417,441.97014 M 782.46938,525.2519 L 382.59971,441.97014 M 782.46938,486.02216 L 426.65172,449.1414"
       id="path3303"
       style="fill:#b2b2b2;fill-opacity:1;fill-rule:evenodd;stroke:#b4b4b4;stroke-width:4.30275488;stroke-linecap:butt;stroke-linejoin:miter;stroke-miterlimit:4;stroke-dasharray:none;stroke-opacity:1" />
    <path
       d="M 363.76242,354.28037 L 300.01465,485.03573 L 303.63668,511.11437 L 361.22699,511.11437 L 391.28987,392.3117 L 363.76242,354.28037 z"
       id="path3219"
       style="fill:#ffffff;fill-rule:evenodd;stroke:#000000;stroke-width:4.30275488;stroke-linecap:butt;stroke-linejoin:miter;stroke-miterlimit:4;stroke-dasharray:none;stroke-opacity:1" />
    <path
       d="M 167.46196,446.32411 L 149.02158,541.5994 L 177.70661,541.5994 L 214.84348,448.11693 L 167.46196,446.32411 z"
       id="path3195"
       style="fill:#ffffff;fill-rule:evenodd;stroke:#000000;stroke-width:4.30275488;stroke-linecap:butt;stroke-linejoin:miter;stroke-miterlimit:4;stroke-dasharray:none;stroke-opacity:1" />
    <path
       d="M 144.99166,429.98085 L 100.80286,545.16148 L 140.28302,585.00383 L 168.53488,438.67372 L 144.99166,429.98085 z"
       id="path3191"
       style="fill:#ffffff;fill-rule:evenodd;stroke:#000000;stroke-width:4.30275488;stroke-linecap:butt;stroke-linejoin:miter;stroke-miterlimit:4;stroke-dasharray:none;stroke-opacity:1" />
    <path
       d="M 218.94135,541.85552 L 244.8091,541.85552 L 241.99181,497.03517 L 218.94135,541.85552 z"
       id="path3199"
       style="fill:#ffffff;fill-rule:evenodd;stroke:#000000;stroke-width:4.30275488;stroke-linecap:butt;stroke-linejoin:miter;stroke-miterlimit:4;stroke-dasharray:none;stroke-opacity:1" />
    <path
       d="M 309.60654,541.85552 L 276.56753,541.85552 L 277.59199,376.91657 L 298.08131,366.67193 L 309.60654,541.85552 z"
       id="path3203"
       style="fill:#ffffff;fill-rule:evenodd;stroke:#000000;stroke-width:4.30275488;stroke-linecap:butt;stroke-linejoin:miter;stroke-miterlimit:4;stroke-dasharray:none;stroke-opacity:1" />
    <path
       d="M 427.148,421.65017 L 454.67543,411.50847 L 475.68323,510.38997 L 435.47866,510.38997 L 427.148,421.65017 z"
       id="path3227"
       style="fill:#ffffff;fill-rule:evenodd;stroke:#000000;stroke-width:4.30275488;stroke-linecap:butt;stroke-linejoin:miter;stroke-miterlimit:4;stroke-dasharray:none;stroke-opacity:1" />
    <path
       d="M 401.79377,460.94922 L 386.58122,510.57106 L 418.09291,510.57106 L 401.79377,460.94922 z"
       id="path3223"
       style="fill:#ffffff;fill-rule:evenodd;stroke:#000000;stroke-width:4.30275488;stroke-linecap:butt;stroke-linejoin:miter;stroke-miterlimit:4;stroke-dasharray:none;stroke-opacity:1" />
    <path
       d="M 453.22662,339.79223 L 500.67526,433.60288 L 493.79339,542.26385 L 484.3761,548.42131 L 440.54952,346.6741 L 453.22662,339.79223 z"
       id="path3231"
       style="fill:#ffffff;fill-rule:evenodd;stroke:#000000;stroke-width:4.30275488;stroke-linecap:butt;stroke-linejoin:miter;stroke-miterlimit:4;stroke-dasharray:none;stroke-opacity:1" />
    <path
       d="M 630.77647,434.28666 L 664.83995,585.1392 L 701.72071,543.90446 L 654.85142,416.61462 L 630.77647,434.28666 z"
       id="path3269"
       style="fill:#ffffff;fill-rule:evenodd;stroke:#000000;stroke-width:4.30275488;stroke-linecap:butt;stroke-linejoin:miter;stroke-miterlimit:4;stroke-dasharray:none;stroke-opacity:1" />
    <path
       d="M 401.39865,59.338671 C 400.69847,59.353981 399.96137,59.972773 399.91958,61.131486 L 394.40667,213.83448 C 386.38192,216.0539 379.59908,221.88028 375.49248,229.70089 L 384.23245,229.70089 C 388.48652,224.27182 394.68147,220.82646 401.62275,220.82646 C 408.56403,220.82644 414.75897,224.27182 419.01305,229.70089 L 427.75302,229.70089 C 423.7614,222.09924 417.24231,216.36648 409.51113,214.01376 L 402.8329,61.176306 C 402.77775,59.911083 402.09882,59.323362 401.39865,59.338671 z"
       id="path3256"
       style="opacity:1;fill:#000000;fill-opacity:1;fill-rule:evenodd;stroke:none;stroke-width:5;stroke-linecap:round;stroke-linejoin:miter;stroke-miterlimit:4;stroke-dasharray:none;stroke-dashoffset:0;stroke-opacity:1" />
    <path
       d="M 406.68134,39.855241 C 406.0002,39.639048 405.08868,40.007423 404.67442,41.139442 L 350.07767,190.32297 C 341.61158,189.86637 333.18103,193.38693 326.69155,199.76378 L 335.13225,202.65144 C 340.99243,198.68825 348.08695,197.32801 354.79054,199.62135 C 361.49412,201.91473 366.36523,207.36856 368.72182,214.14279 L 377.16252,217.03044 C 375.76039,208.1945 371.31433,200.37161 364.60705,195.49072 L 407.47352,42.146315 C 407.82851,40.876939 407.36248,40.071437 406.68134,39.855241 z"
       id="path3268"
       style="opacity:1;fill:#000000;fill-opacity:1;fill-rule:evenodd;stroke:none;stroke-width:5;stroke-linecap:round;stroke-linejoin:miter;stroke-miterlimit:4;stroke-dasharray:none;stroke-dashoffset:0;stroke-opacity:1" />
    <path
       d="M 395.57871,40.431786 C 396.25985,40.215587 397.17138,40.58396 397.58563,41.715986 L 452.18239,190.89951 C 460.64847,190.44291 469.07902,193.96347 475.56851,200.34033 L 467.12781,203.22798 C 461.26763,199.26479 454.1731,197.90455 447.46951,200.19789 C 440.76593,202.49127 435.89482,207.9451 433.53823,214.71933 L 425.09753,217.60698 C 426.49966,208.77104 430.94572,200.94815 437.653,196.06726 L 394.78653,42.72286 C 394.43154,41.453475 394.89757,40.647985 395.57871,40.431786 z"
       id="path3270"
       style="opacity:1;fill:#000000;fill-opacity:1;fill-rule:evenodd;stroke:none;stroke-width:5;stroke-linecap:round;stroke-linejoin:miter;stroke-miterlimit:4;stroke-dasharray:none;stroke-dashoffset:0;stroke-opacity:1" />
    <path
       d="M 196.06231,490.10658 L 160.2042,595.14553 L 131.95234,635.71229 L 194.97571,635.71229 L 193.16469,594.42113 L 242.06213,492.2798 L 244.95975,492.2798 L 247.13297,596.23214 L 228.29841,632.45246 L 284.07771,632.45246 L 282.9911,594.05892 L 284.07771,488.65777 L 196.06231,490.10658 z"
       id="path3363"
       style="fill:#b2b2b2;fill-opacity:1;fill-rule:evenodd;stroke:#000000;stroke-width:2.86850333;stroke-linecap:butt;stroke-linejoin:miter;stroke-miterlimit:4;stroke-dasharray:none;stroke-opacity:1" />
    <path
       d="M 133.76335,424.5478 L 153.68453,443.02016 L 219.96773,438.67373 L 193.16469,492.64201 L 284.43991,492.64201 L 286.61313,439.03592 L 282.9911,429.98085 L 282.9911,418.02814 C 291.90244,407.75805 288.03909,393.22972 289.14855,380.35901 L 343.47903,302.84751 C 349.34007,294.48577 349.49265,284.2544 346.01446,274.95786 L 322.47125,275.32006 C 321.59681,281.23605 322.16542,286.71687 316.31379,293.06802 L 286.61313,325.30411 L 181.21198,347.03631 L 133.76335,424.5478 z"
       id="path3357"
       style="fill:#f00d0b;fill-opacity:1;fill-rule:evenodd;stroke:#000000;stroke-width:2.86850333;stroke-linecap:butt;stroke-linejoin:miter;stroke-miterlimit:4;stroke-dasharray:none;stroke-opacity:1" />
    <path
       d="M 398.99116,267.04265 C 411.93512,262.9774 417.40553,266.38568 422.29775,270.37217 C 435.23919,266.61579 443.14847,262.85943 450.72667,259.10305 L 469.16704,304.17953 L 440.48201,313.91195 C 440.16541,321.85156 437.38362,329.79116 432.28629,337.73078 L 366.97661,337.47465 L 398.99116,267.04265 z"
       id="path3207"
       style="fill:#000000;fill-rule:evenodd;stroke:none;stroke-width:1px;stroke-linecap:butt;stroke-linejoin:miter;stroke-opacity:1" />
    <path
       d="M 366.66005,461.13033 L 343.11684,548.0591 L 326.45548,585.00383 L 373.90411,585.00383 L 374.62851,545.16148 L 398.89614,463.66575 L 405.05359,463.66575 L 430.40782,545.52369 L 426.42359,585.00383 L 477.13204,585.00383 L 457.57307,544.79928 L 435.11646,456.05949 L 366.66005,461.13033 z"
       id="path3367"
       style="fill:#b2b2b2;fill-opacity:1;fill-rule:evenodd;stroke:#000000;stroke-width:2.86850333;stroke-linecap:butt;stroke-linejoin:miter;stroke-miterlimit:4;stroke-dasharray:none;stroke-opacity:1" />
    <path
       d="M 366.66005,293.06802 C 353.63025,329.30444 352.76745,361.1955 369.55767,386.87866 C 373.85812,393.45684 378.34145,409.59656 374.62851,420.92577 L 360.5026,464.02796 L 446.34477,464.02796 L 432.58104,420.92577 C 429.04032,409.83771 431.168,398.8113 435.11646,388.32748 L 456.12426,332.54817 L 381.51038,332.54817 L 387.66784,291.257 L 366.66005,293.06802 z"
       id="path3359"
       style="fill:#f00d0b;fill-opacity:1;fill-rule:evenodd;stroke:#000000;stroke-width:2.86850333;stroke-linecap:butt;stroke-linejoin:miter;stroke-miterlimit:4;stroke-dasharray:none;stroke-opacity:1" />
    <path
       d="M 506.1083,362.24884 L 494.5178,541.17725 L 524.94287,541.17725 L 526.39169,378.18579 L 506.1083,362.24884 z"
       id="path3255"
       style="fill:#ffffff;fill-rule:evenodd;stroke:#000000;stroke-width:4.30275488;stroke-linecap:butt;stroke-linejoin:miter;stroke-miterlimit:4;stroke-dasharray:none;stroke-opacity:1" />
    <path
       d="M 618.2102,542.62606 L 653.70612,542.62606 L 634.69046,441.93355 L 578.00565,445.73669 L 618.2102,542.62606 z"
       id="path3265"
       style="fill:#ffffff;fill-rule:evenodd;stroke:#000000;stroke-width:4.30275488;stroke-linecap:butt;stroke-linejoin:miter;stroke-miterlimit:4;stroke-dasharray:none;stroke-opacity:1" />
    <path
       d="M 519.50982,489.38219 L 521.68304,594.42113 L 518.78541,633.17688 L 576.37573,633.17688 L 555.73014,593.69672 L 558.47775,490.08085 L 562.09978,490.08085 L 611.14724,595.14553 L 608.61182,637.5233 L 675.61943,637.5233 L 643.02112,593.33451 L 606.07639,489.01998 L 519.50982,489.38219 z"
       id="path3369"
       style="fill:#b2b2b2;fill-opacity:1;fill-rule:evenodd;stroke:#000000;stroke-width:2.86850333;stroke-linecap:butt;stroke-linejoin:miter;stroke-miterlimit:4;stroke-dasharray:none;stroke-opacity:1" />
    <path
       d="M 456.12426,277.49328 C 453.8818,290.25672 455.87461,301.79024 462.64391,310.81597 L 515.88779,381.80782 C 513.90522,391.94951 515.95685,402.09119 516.61219,412.23288 C 522.98887,422.149 521.14343,429.8227 516.97439,436.86271 L 519.50982,492.64201 L 611.50945,492.64201 L 579.63556,427.08323 L 608.97402,397.02035 L 650.62739,439.39813 L 670.54857,422.01237 L 624.54876,347.7607 L 518.78541,327.47733 L 496.32881,305.38293 C 487.21827,296.41933 479.85124,285.96452 480.02966,275.32006 L 456.12426,277.49328 z"
       id="path3361"
       style="fill:#f00d0b;fill-opacity:1;fill-rule:evenodd;stroke:#000000;stroke-width:2.86850333;stroke-linecap:butt;stroke-linejoin:miter;stroke-miterlimit:4;stroke-dasharray:none;stroke-opacity:1" />
    <path
       d="M 193.16469,594.42113 L 160.2042,595.14553 L 131.95234,635.71229 L 194.97571,635.71229 L 193.16469,594.42113 z M 282.9911,594.05892 L 247.13297,596.23214 L 228.29841,632.45246 L 284.07771,632.45246 L 282.9911,594.05892 z"
       id="path3365"
       style="fill:#000000;fill-rule:evenodd;stroke:#000000;stroke-width:2.86850333;stroke-linecap:butt;stroke-linejoin:miter;stroke-miterlimit:4;stroke-dasharray:none;stroke-opacity:1" />
    <path
       d="M 643.02112,593.33451 L 611.14724,595.14553 L 608.61182,637.5233 L 675.61943,637.5233 L 643.02112,593.33451 z M 555.73014,593.69672 L 521.68304,594.42113 L 518.78541,633.17688 L 576.37573,633.17688 L 555.73014,593.69672 z"
       id="path3371"
       style="fill:#000000;fill-rule:evenodd;stroke:#000000;stroke-width:2.86850333;stroke-linecap:butt;stroke-linejoin:miter;stroke-miterlimit:4;stroke-dasharray:none;stroke-opacity:1" />
    <path
       d="M 457.57307,544.79928 L 430.40782,545.52369 L 426.42359,585.00383 L 477.13204,585.00383 L 457.57307,544.79928 z M 374.62851,545.16148 L 344.56565,544.79928 L 326.45548,585.00383 L 373.90411,585.00383 L 374.62851,545.16148 z"
       id="path3373"
       style="fill:#000000;fill-rule:evenodd;stroke:#000000;stroke-width:2.86850333;stroke-linecap:butt;stroke-linejoin:miter;stroke-miterlimit:4;stroke-dasharray:none;stroke-opacity:1" />
    <path
       d="M 136.47186,642.76538 L 182.57282,642.76538 L 139.80138,700.39156 L 139.80138,718.06359 L 97.798307,718.06359 L 97.798307,712.94126 C 97.798307,707.86614 107.33099,703.53151 114.44587,701.41603 C 118.17904,700.30605 119.35284,696.60752 120.59267,692.70807 L 136.47186,642.76538 z"
       id="path3375"
       style="fill:#000000;fill-rule:evenodd;stroke:none;stroke-width:1px;stroke-linecap:butt;stroke-linejoin:miter;stroke-opacity:1" />
    <path
       d="M 241.22347,640.20421 L 279.38481,640.20421 L 268.11569,675.03604 C 267.00955,678.455 266.17479,682.24644 270.67685,682.46342 C 286.6471,683.23309 293.97518,688.93038 294.23955,698.59875 L 244.55298,698.59875 L 241.22347,640.20421 z"
       id="path3377"
       style="fill:#000000;fill-rule:evenodd;stroke:none;stroke-width:1px;stroke-linecap:butt;stroke-linejoin:miter;stroke-opacity:1" />
    <path
       d="M 334.70594,591.28598 L 366.46438,591.28598 C 365.13509,599.48171 362.74909,607.63711 356.73195,615.87316 C 347.87276,627.9993 345.29561,641.88934 343.92613,656.08342 L 343.92613,665.0475 L 309.86265,665.0475 C 310.50812,662.29165 309.75899,659.86873 313.19217,656.08342 L 323.18071,645.07042 C 325.45085,642.56747 326.33443,640.70492 326.76634,638.15528 L 334.70594,591.28598 z"
       id="path3379"
       style="fill:#000000;fill-rule:evenodd;stroke:none;stroke-width:1px;stroke-linecap:butt;stroke-linejoin:miter;stroke-opacity:1" />
    <path
       d="M 436.64026,591.28598 L 469.16704,591.28598 C 474.71643,601.16472 475.60109,611.72142 476.3383,622.27606 C 477.45673,638.28875 483.08166,652.84252 496.05926,659.41294 L 496.31537,665.55974 L 462.2519,665.55974 L 462.2519,653.52227 C 462.2519,647.83196 461.59864,642.13425 458.41015,635.85024 C 450.78355,620.81935 441.85443,605.63012 436.64026,591.28598 z"
       id="path3381"
       style="fill:#000000;fill-rule:evenodd;stroke:none;stroke-width:1px;stroke-linecap:butt;stroke-linejoin:miter;stroke-opacity:1" />
    <path
       d="M 521.67089,639.94809 L 561.36894,639.94809 L 559.83224,698.08652 L 509.37732,698.08652 C 509.37732,683.79464 528.22148,682.38176 537.03788,680.92672 C 530.35884,667.26717 524.94044,653.60763 521.67089,639.94809 z"
       id="path3383"
       style="fill:#000000;fill-rule:evenodd;stroke:none;stroke-width:1px;stroke-linecap:butt;stroke-linejoin:miter;stroke-opacity:1" />
    <path
       d="M 622.32464,643.27761 L 668.68169,643.27761 C 674.80377,659.24219 678.96899,675.18373 682.25587,691.17137 C 682.90531,694.33034 684.10708,697.19572 688.65878,699.11098 C 699.99123,703.87942 711.00748,708.89325 704.28187,719.08807 L 666.37665,719.08807 L 664.83995,703.20885 L 622.32464,643.27761 z"
       id="path3385"
       style="fill:#000000;fill-rule:evenodd;stroke:none;stroke-width:2;stroke-linecap:butt;stroke-linejoin:miter;stroke-miterlimit:4;stroke-dasharray:none;stroke-opacity:1" />
    <path
       d="M 175.65767,415.33404 C 178.21884,413.02899 195.12252,397.91812 195.12252,397.91812 L 214.58736,416.10238 C 237.93754,416.01343 261.03548,416.93337 285.01936,414.30957 L 282.20209,419.68801 L 282.97043,426.09093 L 283.73879,431.9816 L 286.55606,436.33558 C 271.80955,434.12662 256.90449,433.0275 241.47958,435.56723 C 241.47958,435.56723 175.9138,424.81034 175.9138,423.78588 C 175.9138,422.76141 175.40156,416.10238 175.65767,415.33404 z"
       id="path3215"
       style="fill:#000000;fill-rule:evenodd;stroke:#000000;stroke-width:1.43425167px;stroke-linecap:butt;stroke-linejoin:miter;stroke-opacity:1" />
    <path
       d="M 208.19612,454.79176 L 219.42442,439.39813 C 225.88372,437.29255 232.343,437.94358 238.80229,438.67373 L 250.2117,426.53992 L 229.02281,412.77619 C 225.88372,410.71464 222.74461,409.40866 219.60552,412.59509 L 206.38511,425.81551 L 173.96792,415.31162 C 153.68222,423.88703 153.36787,444.53524 155.49555,457.32719 C 173.06241,456.05253 190.62927,453.00962 208.19612,454.79176 z"
       id="path3387"
       style="fill:#b2b2b2;fill-opacity:1;fill-rule:evenodd;stroke:#000000;stroke-width:2.86850333;stroke-linecap:butt;stroke-linejoin:round;stroke-miterlimit:4;stroke-dasharray:none;stroke-opacity:1" />
    <path
       d="M 235.84503,256.02965 L 212.02621,260.89587 C 194.95077,265.47121 192.83724,269.3966 191.02466,278.56788 C 191.02466,278.56788 140.82585,278.322 140.82585,306.48457 C 140.82585,328.02028 171.81593,333.37679 171.81593,333.37679 C 180.19877,335.53972 189.75087,336.87729 186.9268,346.95097 L 250.44366,334.40127 C 239.5547,331.27615 241.35883,324.31655 248.65084,321.59545 C 263.79268,315.94508 261.07173,307.68834 251.46813,279.08011 C 260.46549,275.94689 269.57867,276.3922 279.38482,277.03118 C 282.0698,277.20615 283.18095,274.71316 280.52509,273.86616 C 272.51399,271.31129 258.28153,270.79395 246.08968,272.16498 L 235.84503,256.02965 z"
       id="path2413"
       style="fill:#000000;fill-rule:evenodd;stroke:none;stroke-width:1px;stroke-linecap:butt;stroke-linejoin:miter;stroke-opacity:1" />
    <path
       d="M 213.81027,286.36726 C 213.81027,286.36726 150.0625,283.20364 150.0625,307.19394 C 150.0625,324.49506 182.47969,325.30411 182.47969,325.30411 L 192.62138,299.22547 L 213.81027,286.36726 z"
       id="path2415"
       style="fill:#018b00;fill-opacity:1;fill-rule:evenodd;stroke:#ffffff;stroke-width:5.73700666;stroke-linecap:butt;stroke-linejoin:miter;stroke-miterlimit:4;stroke-dasharray:none;stroke-opacity:1" />
    <path
       d="M 244.59755,285.09954 C 235.35438,295.29694 227.91423,309.21162 227.91423,322.54365 C 227.91423,328.77154 231.0379,329.91323 233.70948,331.59872 C 234.49453,332.09401 237.17884,331.24736 235.15829,328.3389 C 234.75141,327.75322 234.48253,327.06013 234.45587,325.8474 C 234.29479,318.52166 242.28988,315.99164 249.30619,313.5325 C 253.95836,311.90197 253.60136,305.05339 244.59755,285.09954 z"
       id="path3187"
       style="fill:#ffffff;fill-rule:evenodd;stroke:none;stroke-width:1px;stroke-linecap:butt;stroke-linejoin:miter;stroke-opacity:1" />
    <path
       d="M 167.46196,349.51213 C 175.47386,367.91947 193.89071,380.34398 229.186,383.06337 L 234.56444,342.08475 L 259.91996,377.1727 C 277.96924,366.80177 284.69561,348.59188 285.01936,325.94942 L 167.46196,349.51213 z"
       id="path3189"
       style="fill:#ffffff;fill-rule:evenodd;stroke:#000000;stroke-width:4.30275488;stroke-linecap:butt;stroke-linejoin:miter;stroke-miterlimit:4;stroke-dasharray:none;stroke-opacity:1" />
    <path
       d="M 145.94818,443.50683 L 108.81131,543.64833 L 135.70352,570.54055 L 156.19284,464.25226 C 144.54862,466.91526 147.42193,452.2856 145.94818,443.50683 z"
       id="path3193"
       style="fill:#018b00;fill-opacity:1;fill-rule:evenodd;stroke:none;stroke-width:1px;stroke-linecap:butt;stroke-linejoin:miter;stroke-opacity:1" />
    <path
       d="M 171.81593,462.45945 L 159.52234,534.94039 L 174.88933,534.94039 L 186.15845,497.80351 L 182.06059,497.29128 L 198.19592,462.45945 L 171.81593,462.45945 z"
       id="path3197"
       style="fill:#018b00;fill-opacity:1;fill-rule:evenodd;stroke:none;stroke-width:1px;stroke-linecap:butt;stroke-linejoin:miter;stroke-opacity:1" />
    <path
       d="M 236.35725,522.6468 L 230.21047,535.1965 L 237.38173,535.1965 L 236.35725,522.6468 z"
       id="path3201"
       style="fill:#018b00;fill-opacity:1;fill-rule:evenodd;stroke:none;stroke-width:1px;stroke-linecap:butt;stroke-linejoin:miter;stroke-opacity:1" />
    <path
       d="M 293.47121,411.23618 C 292.15102,414.91941 291.35736,419.07065 288.60499,421.48082 L 288.86112,431.21325 L 292.70286,435.82334 L 291.67839,534.42815 L 301.41082,534.42815 L 293.47121,411.23618 z"
       id="path3205"
       style="fill:#018b00;fill-opacity:1;fill-rule:evenodd;stroke:none;stroke-width:1px;stroke-linecap:butt;stroke-linejoin:miter;stroke-opacity:1" />
    <path
       d="M 425.42753,282.65467 C 431.0648,289.31094 436.50283,297.04122 439.73456,304.65853 C 444.11118,301.75096 448.4878,298.95282 452.86442,297.23335 L 450.329,287.18221 C 439.25926,289.3977 437.1478,284.11749 437.83299,276.49721 L 425.42753,282.65467 z"
       id="path3211"
       style="fill:#018b00;fill-opacity:1;fill-rule:evenodd;stroke:#ffffff;stroke-width:2.86850333;stroke-linecap:butt;stroke-linejoin:miter;stroke-miterlimit:4;stroke-dasharray:none;stroke-opacity:1" />
    <path
       d="M 399.50338,332.86456 C 399.50338,332.86456 399.99692,328.01176 399.75951,325.94942 C 399.55913,324.20881 398.81243,321.96477 398.22281,320.31486 C 396.89174,316.59024 392.84437,315.6742 392.84437,308.27739 C 392.84437,299.0724 398.12709,290.86147 406.93077,290.86147 C 420.03061,290.86147 421.01716,301.1443 421.01716,307.50905 C 421.01716,315.54192 417.42184,316.46001 415.50156,319.63705 C 414.61284,321.10743 414.22355,322.99277 413.8459,324.66883 C 413.01815,328.34243 414.10203,337.21854 414.10203,337.21854 L 399.50338,332.86456 z"
       id="path3209"
       style="fill:#ffffff;fill-rule:evenodd;stroke:none;stroke-width:1px;stroke-linecap:butt;stroke-linejoin:miter;stroke-opacity:1" />
    <path
       d="M 383.11194,332.09621 L 377.47738,358.22008 L 393.61271,371.28201 L 403.60126,336.45019 L 406.93077,336.45019 L 416.15096,374.86764 C 438.78662,370.82371 449.04858,353.3301 456.10511,332.35234 L 383.11194,332.09621 z"
       id="path3213"
       style="fill:#ffffff;fill-rule:evenodd;stroke:#000000;stroke-width:4.30275488;stroke-linecap:butt;stroke-linejoin:miter;stroke-miterlimit:4;stroke-dasharray:none;stroke-opacity:1" />
    <path
       d="M 184.36563,413.28511 L 203.83048,421.22471 L 208.18446,417.12685 L 195.63476,403.80879 L 184.36563,413.28511 z"
       id="path3217"
       style="fill:#018b00;fill-opacity:1;fill-rule:evenodd;stroke:#ffffff;stroke-width:2.86850333;stroke-linecap:butt;stroke-linejoin:miter;stroke-miterlimit:4;stroke-dasharray:none;stroke-opacity:1" />
    <path
       d="M 358.52478,381.78279 L 312.93605,476.03362 L 314.98498,503.43807 L 346.4873,503.43807 L 354.88942,474.69397 C 357.79179,464.7648 350.87839,470.62665 354.17079,460.92275 L 368.76942,417.89519 C 370.40619,411.7867 371.55689,404.65783 368.25719,398.94259 L 358.52478,381.78279 z"
       id="path3221"
       style="fill:#018b00;fill-opacity:1;fill-rule:evenodd;stroke:none;stroke-width:1px;stroke-linecap:butt;stroke-linejoin:miter;stroke-opacity:1" />
    <path
       d="M 401.97487,481.95701 L 395.63631,503.68921 L 409.21893,503.68921 L 401.97487,481.95701 z"
       id="path3225"
       style="fill:#018b00;fill-opacity:1;fill-rule:evenodd;stroke:none;stroke-width:1px;stroke-linecap:butt;stroke-linejoin:miter;stroke-opacity:1" />
    <path
       d="M 440.73062,424.7289 L 455.94315,468.37439 L 446.70697,470.3665 L 455.76205,503.5081 L 465.54154,503.5081 L 448.28822,422.04978 L 440.73062,424.7289 z"
       id="path3229"
       style="fill:#018b00;fill-opacity:1;fill-rule:evenodd;stroke:none;stroke-width:1px;stroke-linecap:butt;stroke-linejoin:miter;stroke-opacity:1" />
    <path
       d="M 450.98278,359.50067 L 454.05618,357.19561 L 493.24199,436.84781 L 486.83907,526.48854 L 450.98278,359.50067 z"
       id="path3233"
       style="fill:#018b00;fill-opacity:1;fill-rule:evenodd;stroke:none;stroke-width:1px;stroke-linecap:butt;stroke-linejoin:miter;stroke-opacity:1" />
    <path
       d="M 374.66011,399.71093 C 383.82384,397.91846 393.41982,396.45018 407.95523,398.68648 C 416.36732,393.48463 425.58263,389.88925 435.35968,387.41735 L 432.03018,397.66201 L 430.49348,411.49229 L 431.77405,419.68801 C 421.38506,415.05335 383.59859,415.11242 374.66011,420.9686 L 376.45292,410.72394 L 374.66011,399.71093 z"
       id="path3235"
       style="fill:#000000;fill-rule:evenodd;stroke:#000000;stroke-width:1.43425167px;stroke-linecap:butt;stroke-linejoin:miter;stroke-opacity:1" />
    <path
       d="M 421.27329,397.91812 L 415.89484,399.71093 C 410.59014,401.47917 405.85095,404.07959 413.8459,410.46782 C 415.73488,411.97719 417.96877,412.88336 421.01716,413.28511 C 426.24079,413.97353 429.02439,416.54109 432.28629,418.66355 L 450.47055,410.72394 L 446.11656,395.86919 L 439.45755,402.27211 C 438.30203,403.38318 436.90668,403.92839 434.33522,402.52822 C 430.40481,400.38809 428.63449,395.46439 421.27329,397.91812 z"
       id="path3239"
       style="fill:#b2b2b2;fill-opacity:1;fill-rule:evenodd;stroke:#000000;stroke-width:1.43425167px;stroke-linecap:butt;stroke-linejoin:miter;stroke-opacity:1" />
    <path
       d="M 566.44477,255.93803 L 590.26359,260.80425 C 607.33903,265.37959 609.45256,269.30498 611.26514,278.47626 C 611.26514,278.47626 661.46395,278.23038 661.46395,306.39294 C 661.46395,327.92865 630.47387,333.28516 630.47387,333.28516 C 622.09103,335.44808 612.53893,336.78565 615.363,346.85933 L 551.84614,334.30963 C 562.7351,331.18451 560.93097,324.22492 553.63896,321.50381 C 538.49712,315.85345 541.21807,307.59671 550.82167,278.98849 C 541.82431,275.85527 532.71113,276.30058 522.90498,276.93956 C 520.22,277.11453 519.10885,274.62154 521.76471,273.77454 C 529.77581,271.21967 544.00827,270.70233 556.20012,272.07336 L 566.44477,255.93803 z"
       id="path3241"
       style="fill:#000000;fill-rule:evenodd;stroke:none;stroke-width:1px;stroke-linecap:butt;stroke-linejoin:miter;stroke-opacity:1" />
    <path
       d="M 588.47953,286.27564 C 588.47953,286.27564 652.2273,283.11202 652.2273,307.10231 C 652.2273,324.40343 619.81011,325.21247 619.81011,325.21247 L 609.66842,299.13383 L 588.47953,286.27564 z"
       id="path3243"
       style="fill:#018b00;fill-opacity:1;fill-rule:evenodd;stroke:#ffffff;stroke-width:5.73700666;stroke-linecap:butt;stroke-linejoin:miter;stroke-miterlimit:4;stroke-dasharray:none;stroke-opacity:1" />
    <path
       d="M 557.69225,285.00792 C 566.93542,295.2053 574.37557,309.11998 574.37557,322.45201 C 574.37557,328.67991 571.2519,329.8216 568.58032,331.50709 C 567.79527,332.00238 565.11096,331.15573 567.13151,328.24726 C 567.53839,327.66159 567.80727,326.9685 567.83393,325.75577 C 567.99501,318.43003 559.99992,315.90001 552.9836,313.44087 C 548.33144,311.81034 548.68844,304.96176 557.69225,285.00792 z"
       id="path3245"
       style="fill:#ffffff;fill-rule:evenodd;stroke:none;stroke-width:1px;stroke-linecap:butt;stroke-linejoin:miter;stroke-opacity:1" />
    <path
       d="M 519.36585,327.23001 C 518.11908,344.33911 521.17098,361.06892 542.92855,376.14823 L 570.58913,336.96242 L 571.61359,381.52667 C 612.35716,380.59811 623.83742,364.26954 636.92327,349.51213 L 519.36585,327.23001 z"
       id="path3247"
       style="fill:#ffffff;fill-rule:evenodd;stroke:#000000;stroke-width:4.30275488;stroke-linecap:butt;stroke-linejoin:miter;stroke-miterlimit:3;stroke-dasharray:none;stroke-opacity:1" />
    <path
       d="M 517.1555,411.50847 C 534.43675,420.45232 552.76282,419.64455 571.48598,415.13052 L 567.50175,436.1383 C 551.20341,433.33669 534.87117,430.72722 517.1555,435.9572 L 519.87203,431.24855 L 520.95863,424.18559 L 519.32872,417.12262 L 517.1555,411.50847 z"
       id="path3251"
       style="fill:#000000;fill-rule:evenodd;stroke:#000000;stroke-width:1.43425167px;stroke-linecap:butt;stroke-linejoin:miter;stroke-opacity:1" />
    <path
       d="M 508.10042,409.69746 L 501.39965,535.20089 L 512.99016,535.20089 L 509.73033,435.23279 C 509.73033,435.23279 514.07677,430.27887 514.07677,422.91789 C 514.07677,416.57446 508.10042,409.69746 508.10042,409.69746 z"
       id="path3257"
       style="fill:#018b00;fill-opacity:1;fill-rule:evenodd;stroke:none;stroke-width:1px;stroke-linecap:butt;stroke-linejoin:miter;stroke-opacity:1" />
    <path
       d="M 557.7833,541.85552 L 584.41942,541.85552 L 559.84511,493.15857 L 557.7833,541.85552 z"
       id="path3259"
       style="fill:#ffffff;fill-rule:evenodd;stroke:#000000;stroke-width:4.30275488;stroke-linecap:butt;stroke-linejoin:miter;stroke-miterlimit:2;stroke-dasharray:none;stroke-opacity:1" />
    <path
       d="M 565.85098,520.98204 L 565.33874,535.70873 L 572.76612,535.70873 L 565.85098,520.98204 z"
       id="path3263"
       style="fill:#018b00;fill-opacity:1;fill-rule:evenodd;stroke:none;stroke-width:1px;stroke-linecap:butt;stroke-linejoin:miter;stroke-opacity:1" />
    <path
       d="M 604.44648,462.03583 L 631.24953,462.03583 L 644.46995,534.65758 L 628.89521,534.65758 L 616.21808,496.44514 L 621.28894,496.44514 L 604.44648,462.03583 z"
       id="path3267"
       style="fill:#018b00;fill-opacity:1;fill-rule:evenodd;stroke:none;stroke-width:1px;stroke-linecap:butt;stroke-linejoin:miter;stroke-opacity:1" />
    <path
       d="M 667.65723,571.30891 L 693.01275,542.11165 L 656.64423,443.76296 C 655.81721,455.51501 653.97654,465.13838 646.39957,462.71556 L 667.65723,571.30891 z"
       id="path3271"
       style="fill:#018b00;fill-opacity:1;fill-rule:evenodd;stroke:none;stroke-width:1px;stroke-linecap:butt;stroke-linejoin:miter;stroke-opacity:1" />
    <path
       d="M 348.914,205.04969 C 342.31611,205.04969 336.94698,210.41884 336.94696,217.01673 C 336.94696,221.1985 339.11493,224.87547 342.37023,227.01167 L 313.77483,281.82698 L 358.68484,281.82698 L 355.09921,227.23577 C 358.55484,225.13991 360.88102,221.35071 360.88104,217.01673 C 360.88104,210.41884 355.51189,205.04969 348.914,205.04969 z"
       id="path3341"
       style="opacity:1;fill:#b2b2b2;fill-opacity:1;fill-rule:evenodd;stroke:#000000;stroke-width:2.86850333;stroke-linecap:round;stroke-linejoin:miter;stroke-miterlimit:4;stroke-dasharray:none;stroke-dashoffset:0;stroke-opacity:1" />
    <path
       d="M 400.72634,228.22182 C 394.12845,228.22182 388.7593,233.59097 388.7593,240.18886 C 388.7593,244.13979 390.68734,247.64869 393.64472,249.82524 L 357.25059,298.14159 L 389.83499,298.14159 L 406.50817,250.632 C 410.18556,248.59303 412.64856,244.68892 412.64856,240.18886 C 412.64856,233.59097 407.32422,228.22182 400.72634,228.22182 z"
       id="path3346"
       style="opacity:1;fill:#b2b2b2;fill-opacity:1;fill-rule:evenodd;stroke:#000000;stroke-width:2.86850333;stroke-linecap:round;stroke-linejoin:miter;stroke-miterlimit:4;stroke-dasharray:none;stroke-dashoffset:0;stroke-opacity:1" />
    <path
       d="M 452.49386,205.40825 C 445.89598,205.40825 440.57166,210.77739 440.57165,217.37529 C 440.57165,222.63795 443.9571,227.12043 448.68413,228.71484 L 443.79871,281.46841 L 489.82923,281.46841 L 459.97887,226.69793 C 462.70703,224.50666 464.46092,221.14419 464.4609,217.37529 C 464.4609,210.7774 459.09175,205.40824 452.49386,205.40825 z"
       id="path3348"
       style="opacity:1;fill:#b2b2b2;fill-opacity:1;fill-rule:evenodd;stroke:#000000;stroke-width:2.86850333;stroke-linecap:round;stroke-linejoin:miter;stroke-miterlimit:4;stroke-dasharray:none;stroke-dashoffset:0;stroke-opacity:1" />
    <path
       d="M 597.02131,425.99661 L 628.17079,414.58721 C 648.62479,423.57271 647.3763,439.62412 647.72977,455.15397 L 591.76937,454.24846 L 585.24971,439.94144 C 582.34707,437.31057 579.8078,437.08025 577.28123,437.22491 C 569.60903,437.6642 564.43824,437.37463 560.25768,434.32729 C 552.30396,428.52957 555.29803,424.4034 560.61989,421.28796 C 569.95526,415.823 579.53873,410.00189 588.50955,418.20924 L 597.02131,425.99661 z"
       id="path3253"
       style="fill:#b2b2b2;fill-opacity:1;fill-rule:evenodd;stroke:#000000;stroke-width:2.86850333;stroke-linecap:butt;stroke-linejoin:miter;stroke-miterlimit:4;stroke-dasharray:none;stroke-opacity:1" />
    <path
       d="M 592.31268,418.02814 L 608.97402,401.09513 L 621.65113,413.95334 L 597.56462,422.73678 L 592.31268,418.02814 z"
       id="path3273"
       style="fill:#018b00;fill-opacity:1;fill-rule:evenodd;stroke:#ffffff;stroke-width:2.86850333;stroke-linecap:butt;stroke-linejoin:miter;stroke-miterlimit:4;stroke-dasharray:none;stroke-opacity:1" />
  </g>
</svg>
