<svg xmlns="http://www.w3.org/2000/svg" version="1.0" viewBox="0 0 800 800"><g fill-rule="evenodd"><path fill="#fff" stroke="#000" stroke-linejoin="round" stroke-width="4.3" d="m445 368.2 4.7 21-12.8 12.3-6.2-5.9 14.4-27.4z"/><path fill="#b2b2b2" stroke="#b4b4b4" stroke-linecap="round" stroke-width="1.4" d="M401 54.7c-180 0-326.6 123.6-330.7 277.1C74.8 193 221.3 81.3 401 81.3c179.8 0 326.3 111.7 330.8 250.5-4.1-153.5-150.7-277-330.8-277z"/><path fill="#b2b2b2" stroke="#b4b4b4" stroke-width="4.3" d="M26 447h756.5M26.2 486 357 449M26.2 525.3 400 447M26.2 583.5l387.1-134.4M26.2 674l382-228m-284 297L398 456.2M251.5 743l154.7-291.7M338.5 743l65.6-277.4M472.4 743l-64.2-292.7m151 292.7L400 438m285.5 305L401 445m381.5 227.8L395.9 441m386.6 142.4L383.6 442m398.9 83.3L382.6 442m399.9 44-355.8-36.9"/><path fill="#fff" stroke="#000" stroke-width="4.3" d="M363.8 354.3 300 485l3.6 26.1h57.6l30-118.8-27.4-38zm-196.3 92L149 541.6h28.7l37.1-93.5-47.3-1.8zM145 430l-44.2 115.2 39.5 39.8 28.2-146.3L145 430zm74 111.9h25.8L242 497l-23 45z"/><path fill="#fff" stroke="#000" stroke-width="4.3" d="M309.6 541.9h-33l1-165 20.5-10.2 11.5 175.2zm117.5-120.2 27.6-10.2 21 98.9h-40.2l-8.4-88.7zM401.8 461l-15.2 49.6H418l-16.3-49.7z"/><path fill="#fff" stroke="#000" stroke-width="4.3" d="m453.2 339.8 47.5 93.8-7 108.7-9.3 6.1-43.9-201.7 12.7-7zm177.6 94.5 34 150.8 37-41.2-47-127.3-24 17.7z"/><path d="M401.4 59.3c-.7 0-1.4.7-1.5 1.8l-5.5 152.7c-8 2.3-14.8 8-19 15.9h8.8a22.1 22.1 0 0 1 17.4-8.9 22 22 0 0 1 17.4 8.9h8.8a31.3 31.3 0 0 0-18.3-15.7l-6.7-152.8c0-1.3-.7-1.9-1.4-1.9z"/><path d="M406.7 39.9c-.7-.3-1.6.1-2 1.2L350 190.3a31 31 0 0 0-23.4 9.5l8.4 2.9a22 22 0 0 1 19.7-3 22.8 22.8 0 0 1 14 14.4l8.4 3a32.7 32.7 0 0 0-12.6-21.6l43-153.5c.3-1.2-.1-2-.8-2.2z"/><path d="M395.6 40.4c.7-.2 1.6.2 2 1.3L452.2 191c8.4-.5 16.9 3 23.4 9.4l-8.5 3a22 22 0 0 0-19.6-3.1 22.8 22.8 0 0 0-14 14.5l-8.4 3a32.7 32.7 0 0 1 12.6-21.6l-43-153.4c-.3-1.2.2-2 .9-2.3z"/><path fill="#b2b2b2" stroke="#000" stroke-width="2.9" d="m196 490.1-35.8 105-28.2 40.6h63l-1.8-41.3L242 492.3h2.9l2.1 104-18.8 36.2H284l-1-38.5 1-105.4-88 1.4z"/><path fill="#f00d0b" stroke="#000" stroke-width="2.9" d="m133.8 424.5 19.9 18.5 66.3-4.3-26.8 54h91.2l2.2-53.7-3.6-9v-12c8.9-10.2 5-24.8 6.1-37.6l54.4-77.6c5.8-8.3 6-18.5 2.5-27.8l-23.5.3c-.9 6-.3 11.4-6.2 17.8l-29.7 32.2L181.2 347l-47.4 77.5z"/><path d="M399 267c13-4 18.4-.6 23.3 3.4a154 154 0 0 0 28.4-11.3l18.5 45-28.7 9.8a47 47 0 0 1-8.2 23.8l-65.3-.2 32-70.5z"/><path fill="#b2b2b2" stroke="#000" stroke-width="2.9" d="m366.7 461.1-23.6 87-16.6 36.9h47.4l.7-39.8 24.3-81.5h6.2l25.3 81.8-4 39.5h50.7l-19.5-40.2-22.5-88.7-68.4 5z"/><path fill="#f00d0b" stroke="#000" stroke-width="2.9" d="M366.7 293c-13 36.3-14 68.2 2.9 93.9a47.2 47.2 0 0 1 5 34L360.5 464h85.8l-13.7-43a48.8 48.8 0 0 1 2.5-32.7l21-55.8h-74.6l6.2-41.2-21 1.8z"/><path fill="#fff" stroke="#000" stroke-width="4.3" d="m506.1 362.2-11.6 179H525l1.5-163-20.3-16zm112.1 180.4h35.5l-19-100.7-56.7 3.8 40.2 97z"/><path fill="#b2b2b2" stroke="#000" stroke-width="2.9" d="m519.5 489.4 2.2 105-3 38.8h57.7l-20.7-39.5 2.8-103.6h3.6l49 105-2.5 42.4h67L643 593.3 606 489l-86.5.4z"/><path fill="#f00d0b" stroke="#000" stroke-width="2.9" d="M456.1 277.5a42 42 0 0 0 6.5 33.3l53.3 71c-2 10.1 0 20.3.7 30.4 6.4 10 4.5 17.6.4 24.7l2.5 55.7h92l-31.9-65.5 29.4-30 41.6 42.3 20-17.4-46-74.2-105.8-20.3-22.5-22.1c-9-9-16.4-19.4-16.3-30l-23.9 2z"/><path stroke="#000" stroke-width="2.9" d="m193.2 594.4-33 .7-28.2 40.6h63l-1.8-41.3zm89.8-.3-35.9 2.1-18.8 36.3h55.8L283 594zm360-.8-31.9 1.8-2.5 42.4h67L643 593.3zm-87.3.4-34 .7-3 38.8h57.7l-20.7-39.5zm-98.1-48.9-27.2.7-4 39.5h50.7l-19.5-40.2zm-83 .4-30-.4-18.1 40.2h47.4l.7-39.8z"/><path d="M136.5 642.8h46l-42.7 57.6V718h-42v-5.2c0-5 9.5-9.4 16.6-11.5 3.8-1 5-4.8 6.2-8.7l15.9-50zm104.7-2.6h38.2L268 675c-1 3.5-2 7.2 2.6 7.5 16 .7 23.3 6.4 23.5 16.1h-49.6l-3.4-58.4zm93.5-48.9h31.8a54.3 54.3 0 0 1-9.8 24.6A78 78 0 0 0 344 656v9h-34c.6-2.8-.1-5.2 3.3-9l10-11c2.3-2.5 3.1-4.4 3.6-7l8-46.8zm101.9 0h32.6a70.6 70.6 0 0 1 7.1 31c1.2 16 6.8 30.5 19.8 37.1l.2 6.2h-34v-12a37 37 0 0 0-3.9-17.7c-7.6-15-16.5-30.3-21.8-44.6zm85.1 48.7h39.7l-1.6 58h-50.4c0-14.2 18.8-15.6 27.6-17a200.5 200.5 0 0 1-15.3-41zm100.6 3.3h46.4c6.1 16 10.3 31.9 13.6 47.9.6 3.1 1.8 6 6.4 8 11.3 4.7 22.3 9.7 15.6 19.9h-38l-1.5-15.9-42.5-60z"/><path stroke="#000" stroke-width="1.4" d="M175.7 415.3 195 398l19.5 18.2c23.3 0 46.4.8 70.4-1.8l-2.8 5.4.8 6.4.7 5.9 2.9 4.3a143.2 143.2 0 0 0-45.1-.7s-65.6-10.8-65.6-11.8-.5-7.7-.2-8.5z"/><path fill="#b2b2b2" stroke="#000" stroke-linejoin="round" stroke-width="2.9" d="m208.2 454.8 11.2-15.4a44 44 0 0 1 19.4-.7l11.4-12.2-21.2-13.7c-3.1-2-6.3-3.4-9.4-.2l-13.2 13.2-32.4-10.5c-20.3 8.6-20.6 29.2-18.5 42 17.6-1.2 35.1-4.3 52.7-2.5z"/><path d="m235.8 256-23.8 5c-17 4.6-19.2 8.5-21 17.7 0 0-50.2-.3-50.2 27.9 0 21.5 31 26.9 31 26.9 8.4 2.1 18 3.5 15.1 13.6l63.5-12.6c-10.8-3.1-9-10-1.7-12.8 15-5.7 12.4-14 2.8-42.5a69 69 0 0 1 27.9-2c2.7.1 3.8-2.4 1.1-3.2a96 96 0 0 0-34.4-1.7L235.8 256z"/><path fill="#018b00" stroke="#fff" stroke-width="5.7" d="M213.8 286.4s-63.7-3.2-63.7 20.8c0 17.3 32.4 18.1 32.4 18.1l10.1-26 21.2-13z"/><path fill="#fff" d="M244.6 285.1a59.4 59.4 0 0 0-16.7 37.4c0 6.3 3.1 7.4 5.8 9.1.8.5 3.5-.4 1.5-3.3-.4-.5-.7-1.2-.7-2.5-.2-7.3 7.8-9.8 14.8-12.3 4.7-1.6 4.3-8.4-4.7-28.4z"/><path fill="#fff" stroke="#000" stroke-width="4.3" d="M167.5 349.5c8 18.4 26.4 30.8 61.7 33.6l5.4-41 25.3 35c18-10.3 24.8-28.5 25.1-51.2l-117.5 23.6z"/><path fill="#018b00" d="m146 443.5-37.2 100.1 26.9 27 20.5-106.3c-11.7 2.6-8.8-12-10.3-20.8zm25.8 19-12.3 72.4H175l11.3-37.1-4.1-.5 16.1-34.8h-26.4zm64.6 60.1-6.2 12.6h7.2l-1-12.6zm57.1-111.4c-1.3 3.7-2.1 7.9-4.9 10.3l.3 9.7 3.8 4.6-1 98.6h9.7l-8-123.2z"/><path fill="#018b00" stroke="#fff" stroke-width="2.9" d="M425.4 282.7a85.6 85.6 0 0 1 14.3 22c4.4-3 8.8-5.7 13.2-7.5l-2.6-10c-11 2.2-13.2-3-12.5-10.7l-12.4 6.2z"/><path fill="#fff" d="M399.5 332.9s.5-4.9.3-7c-.2-1.7-1-4-1.6-5.6-1.3-3.7-5.4-4.6-5.4-12 0-9.2 5.3-17.4 14.1-17.4 13.1 0 14.1 10.2 14.1 16.6 0 8-3.6 9-5.5 12.1-.9 1.5-1.3 3.4-1.7 5a57 57 0 0 0 .3 12.6l-14.6-4.3z"/><path fill="#fff" stroke="#000" stroke-width="4.3" d="m383.1 332.1-5.6 26.1 16.1 13 10-34.7h3.3l9.3 38.4c22.6-4 32.8-21.6 40-42.5l-73-.3z"/><path fill="#018b00" stroke="#fff" stroke-width="2.9" d="m184.4 413.3 19.4 8 4.4-4.2-12.6-13.3-11.2 9.5z"/><path fill="#018b00" d="M358.5 381.8 313 476l2 27.4h31.6l8.4-28.7c2.9-10-4-4-.7-13.8l14.6-43c1.6-6.1 2.8-13.2-.5-19l-9.8-17.1zM402 482l-6.4 21.7h13.6L402 482zm38.7-57.3 15.2 43.7-9.2 2 9 33.1h9.8L448.3 422l-7.6 2.7zm10.3-65.2 3-2.3 39.2 79.6-6.4 89.7-35.8-167z"/><path stroke="#000" stroke-width="1.4" d="M374.7 399.7a87.8 87.8 0 0 1 33.3-1 96.7 96.7 0 0 1 27.4-11.3l-3.4 10.3-1.5 13.8 1.3 8.2c-10.4-4.6-48.2-4.6-57.1 1.3l1.8-10.3-1.8-11z"/><path fill="#b2b2b2" stroke="#000" stroke-width="1.4" d="m421.3 398-5.4 1.7c-5.3 1.8-10 4.4-2 10.8 1.8 1.5 4 2.4 7.1 2.8 5.2.7 8 3.2 11.3 5.4l18.2-8L446 396l-6.6 6.4c-1.2 1-2.6 1.6-5.2.2-3.9-2.1-5.7-7-13-4.6z"/><path d="m566.4 256 23.9 4.8c17 4.6 19.2 8.5 21 17.7 0 0 50.2-.3 50.2 27.9 0 21.5-31 26.9-31 26.9-8.4 2.1-18 3.5-15.1 13.6l-63.6-12.6c11-3.1 9.1-10 1.8-12.8-15.1-5.6-12.4-13.9-2.8-42.5a69 69 0 0 0-27.9-2c-2.7.1-3.8-2.4-1.1-3.2a96 96 0 0 1 34.4-1.7l10.2-16.2z"/><path fill="#018b00" stroke="#fff" stroke-width="5.7" d="M588.5 286.3s63.7-3.2 63.7 20.8c0 17.3-32.4 18.1-32.4 18.1l-10.1-26-21.2-13z"/><path fill="#fff" d="M557.7 285a59.4 59.4 0 0 1 16.7 37.5c0 6.2-3.1 7.3-5.8 9-.8.5-3.5-.3-1.5-3.3.4-.5.7-1.2.7-2.4.2-7.4-7.8-9.9-14.8-12.4-4.7-1.6-4.3-8.4 4.7-28.4z"/><path fill="#fff" stroke="#000" stroke-miterlimit="3" stroke-width="4.3" d="M519.4 327.2a49 49 0 0 0 23.5 49l27.7-39.2 1 44.5c40.8-.9 52.2-17.2 65.3-32l-117.5-22.3z"/><path stroke="#000" stroke-width="1.4" d="M517.2 411.5c17.2 9 35.6 8.1 54.3 3.6l-4 21c-16.3-2.8-32.6-5.4-50.3-.1l2.7-4.8 1-7-1.6-7-2.1-5.7z"/><path fill="#018b00" d="m508.1 409.7-6.7 125.5H513l-3.3-100s4.4-5 4.4-12.3c0-6.3-6-13.2-6-13.2z"/><path fill="#fff" stroke="#000" stroke-miterlimit="2" stroke-width="4.3" d="M557.8 541.9h26.6l-24.6-48.7-2 48.7z"/><path fill="#018b00" d="m565.9 521-.6 14.7h7.5l-7-14.7zm38.5-59h26.8l13.3 72.7h-15.6l-12.7-38.3h5L604.5 462zm63.3 109.3 25.3-29.2-36.4-98.3c-.8 11.7-2.6 21.3-10.2 19l21.3 108.5z"/><path fill="#b2b2b2" stroke="#000" stroke-linecap="round" stroke-width="2.9" d="M349 205a12 12 0 0 0-6.6 22l-28.6 54.8h44.9l-3.6-54.6a12 12 0 0 0-6.2-22.2zm51.7 23.2a12 12 0 0 0-7 21.6l-36.4 48.3h32.5l16.7-47.5a12 12 0 0 0-5.8-22.4zm51.8-22.8a12 12 0 0 0-3.8 23.3l-4.9 52.8h46L460 226.7a12 12 0 0 0-7.5-21.3z"/><path fill="#b2b2b2" stroke="#000" stroke-width="2.9" d="m597 426 31.2-11.4c20.4 9 19.2 25 19.5 40.6l-56-1-6.5-14.3a9.8 9.8 0 0 0-8-2.7c-7.6.5-12.8.2-17-2.9-7.9-5.8-4.9-9.9.4-13 9.4-5.5 19-11.3 28-3l8.4 7.7z"/><path fill="#018b00" stroke="#fff" stroke-width="2.9" d="m592.3 418 16.7-16.9 12.7 12.9-24.1 8.7-5.3-4.7z"/></g></svg>