<svg xmlns="http://www.w3.org/2000/svg" viewBox="0 0 500 500"><svg xmlns="http://www.w3.org/2000/svg" xmlns:xlink="http://www.w3.org/1999/xlink" xml:space="preserve" viewBox="0 0 500 500"><path fill="#3DABB5" d="M250 500c138.07 0 250-111.93 250-250S388.07 0 250 0 0 111.93 0 250s111.93 250 250 250z"/><path fill="none" d="M361.23 130.87zm2.19-2.2-.34.31.34-.3zm-24.04 131.55c35-34.07 52.45-63.32 56.58-94.85 2.52-19.24-7.95-29.92-16.2-31.35-6.36-1.12-11.29 2.9-13.5 11.04-.73 2.7-3.6 4.37-6.49 3.87-4.85 49.28-16.06 89.08-28.8 120.2 2.49-2.89 5.28-5.86 8.41-8.9z"/><path fill="none" d="M250 0C111.93 0 0 111.93 0 250c0 113.28 75.36 208.95 178.67 239.66v-38.08h7.37v-4.55h12.34a7.5 7.5 0 0 1-4.46-6.74 7.58 7.58 0 0 1 5.21-7.04c8.45-31.6 28.76-35.7 31.75-46.47 1.78-6.4-1.36-13.36-4.27-18.02a5.73 5.73 0 0 1-4.36-5.43 5.68 5.68 0 0 1 3.83-5.26h-.32s-18.36-16.56-38.07-52.78c2.02 14.4-3.93 22.8-4.39 23.42a5.9 5.9 0 0 1-7.84 1.34 5.04 5.04 0 0 1-1.44-7.3c.54-.79 13.8-20.84-21.54-55.25-36.3-35.34-55.24-67.38-59.63-100.86-3.2-24.47 10.65-40.4 25.31-42.96 7.75-1.35 17.63 1.08 23.4 11.14l-.15-2.28a30.6 30.6 0 0 1 32.29-48.88 47.23 47.23 0 0 1 45.32-34.03 47.17 47.17 0 0 1 39.39 21.19 32.98 32.98 0 0 1 28.17-2.55 47.18 47.18 0 0 1 70.54 13.63 31.63 31.63 0 0 1 13.6 42.6 22.95 22.95 0 0 1 11.12-.82c14.67 2.56 28.52 18.49 25.31 42.96-4.39 33.48-23.33 65.52-59.63 100.86-35.86 34.91-21.69 55.04-21.54 55.24a5.04 5.04 0 0 1-1.44 7.31 5.9 5.9 0 0 1-7.84-1.34c-.42-.57-5.62-7.9-4.7-20.53-19.5 34.14-37.22 49.9-37.22 49.9h-.86a5.68 5.68 0 0 1 3.83 5.25 5.73 5.73 0 0 1-4.36 5.43c-2.9 4.66-6.05 11.62-4.27 18.02 3 10.78 23.3 14.88 31.75 46.47a7.58 7.58 0 0 1 5.21 7.04c0 2.95-1.82 5.5-4.46 6.74h12.34v4.55h7.37v38.08C424.64 458.96 500 363.28 500 250 500 111.93 388.07 0 250 0z"/><path fill="none" d="M140.59 148.86c-3.02.72-6.08-.99-6.85-3.8-2.2-8.13-7.13-12.15-13.5-11.04-8.25 1.43-18.72 12.11-16.2 31.35 4.13 31.53 21.58 60.78 56.58 94.85a134.6 134.6 0 0 1 11.82 13.01c-13.18-31.85-24.93-73.3-29.81-125.29-.6.42-1.28.74-2.04.92z"/><path fill="#FBB900" d="m343.6 126.1.2.03-.2-.03zm-71.64 143.74a13.05 13.05 0 1 0-26.08 0 13.05 13.05 0 0 0 26.08 0zm38.76-68.34c6.53 0 11.85-5.32 11.85-11.85 0-6.54-5.32-11.86-11.85-11.86a11.87 11.87 0 0 0 0 23.7zm-21.49 55.85a5.08 5.08 0 1 0 0-10.15 5.08 5.08 0 0 0 0 10.15z"/><path fill="#FBB900" d="M301.62 447.03a7.51 7.51 0 0 0 4.46-6.74 7.58 7.58 0 0 0-5.2-7.04c-8.46-31.6-28.76-35.7-31.76-46.47-1.78-6.4 1.36-13.36 4.27-18.02a5.73 5.73 0 0 0 4.36-5.43 5.68 5.68 0 0 0-3.83-5.26h.86s17.72-15.75 37.22-49.89c-.92 12.63 4.28 19.96 4.7 20.53a5.9 5.9 0 0 0 7.84 1.34 5.04 5.04 0 0 0 1.44-7.3c-.15-.2-14.32-20.34 21.54-55.25 36.3-35.34 55.24-67.38 59.63-100.86 3.2-24.47-10.64-40.4-25.3-42.96-3.47-.6-7.36-.44-11.12.81l-.01.03a21.3 21.3 0 0 0-7.3 4.15l-.34.31c-.26.24-.52.47-.77.72-.37.38-.73.76-1.08 1.17l.14-2.16s-5.93-1.08-16.56-2.45a25 25 0 0 1 .27 3.47 24.9 24.9 0 0 1-45.5 13.97 33 33 0 0 1-38.92.22 46.96 46.96 0 0 1-4.62 4.9v25.9a13.35 13.35 0 0 1-25.03 6.56v43.76a8.4 8.4 0 1 1-16.77 0v-.4a8.38 8.38 0 0 1-4.8-7.57v-57.72a47.28 47.28 0 0 1-20.47-13.13 27.44 27.44 0 0 1-12.81 5.08c19.6 134 62.67 210.04 73.84 227.98 1.72 2.77 2.69 4.15 2.69 4.15s-.96-1.07-2.69-3.21c-13.12-16.22-70.6-93.91-91.69-232.8a27.65 27.65 0 0 1-8.08-7.61 30.73 30.73 0 0 1-8.82-7.27l.15 2.28c-5.77-10.06-15.65-12.49-23.4-11.14-14.66 2.56-28.52 18.49-25.31 42.96 4.39 33.48 23.33 65.52 59.63 100.86 35.35 34.41 22.08 54.46 21.54 55.24a5.04 5.04 0 0 0 1.44 7.31 5.9 5.9 0 0 0 7.84-1.34c.46-.61 6.41-9.03 4.39-23.42 19.7 36.22 38.07 52.78 38.07 52.78h.32a5.68 5.68 0 0 0-3.83 5.26 5.73 5.73 0 0 0 4.36 5.43c2.9 4.66 6.05 11.62 4.27 18.02-3 10.78-23.3 14.88-31.75 46.47a7.58 7.58 0 0 0-5.2 7.04 7.5 7.5 0 0 0 4.45 6.74h103.24zm58.15-298.1c2.9.5 5.76-1.17 6.5-3.87 2.2-8.13 7.13-12.16 13.5-11.04 8.24 1.43 18.71 12.11 16.19 31.35-4.13 31.53-21.58 60.78-56.58 94.85a142.18 142.18 0 0 0-8.42 8.9c12.75-31.1 23.96-70.9 28.81-120.19zm-49.05 24.36a16.36 16.36 0 0 1 0 32.71 16.37 16.37 0 0 1-16.36-16.35c0-9.02 7.34-16.36 16.36-16.36zm-21.49 69.42a9.58 9.58 0 0 1 0 19.15 9.59 9.59 0 0 1 0-19.15zm-20.48-10.66a4.53 4.53 0 1 1 0 9.06 4.53 4.53 0 0 1 0-9.06zm-27.39 37.79c0-9.68 7.88-17.56 17.55-17.56 9.68 0 17.56 7.88 17.56 17.56 0 9.67-7.88 17.55-17.56 17.55a17.57 17.57 0 0 1-17.55-17.55zm-80.74-9.62c-35-34.07-52.45-63.32-56.58-94.85-2.52-19.24 7.95-29.92 16.2-31.35 6.37-1.11 11.3 2.9 13.5 11.04.77 2.81 3.83 4.52 6.85 3.8.76-.18 1.45-.5 2.04-.92 4.88 52 16.63 93.44 29.8 125.3a134.6 134.6 0 0 0-11.81-13.02z"/><path fill="#3A3A39" d="M313.96 451.58v-4.55H186.04v4.55h-7.37v38.08A250 250 0 0 0 250 500a250 250 0 0 0 71.33-10.34v-38.08h-7.37z"/><path fill="#F5D661" d="M252.69 383.43s-.97-1.38-2.69-4.15v.94a92.76 92.76 0 0 0 2.69 3.21z"/><path fill="#FFDC93" d="M158.31 147.42C179.4 286.3 236.88 364 250 380.22v-.94c-11.17-17.94-54.24-93.97-73.84-227.98a27.32 27.32 0 0 1-17.84-3.89z"/><path fill="#D49F00" d="M184.18 138.24a27.38 27.38 0 0 1-16.21 5.32c-.46 0-.9-.05-1.35-.07-.57.03-1.13.07-1.71.07a30.45 30.45 0 0 1-14.68-3.75 27.65 27.65 0 0 0 22.53 11.72 27.44 27.44 0 0 0 16.2-5.31 47.28 47.28 0 0 0 20.49 13.13v-6.68a47.22 47.22 0 0 1-25.27-14.43zM343.6 126.1c-1.16-.14-2.38-.3-3.64-.44a24.88 24.88 0 0 1-45.16 10.06 33 33 0 0 1-38.93.22 46.97 46.97 0 0 1-4.61 4.92v25.88a13.4 13.4 0 0 1-14.95 13.3 8.83 8.83 0 0 1-9.55-5.78 13.4 13.4 0 0 1-.52-.84l-.01 43.65a8.4 8.4 0 0 1-12 7.57v.4a8.4 8.4 0 1 0 16.79 0v-43.77a13.35 13.35 0 0 0 25.02-6.56v-25.88a46.96 46.96 0 0 0 4.62-4.91 33 33 0 0 0 38.93-.22 24.9 24.9 0 0 0 45.5-13.97 25 25 0 0 0-.28-3.47l-1-.13-.21-.03z"/><path fill="#D9DADA" d="M150.23 139.8a30.45 30.45 0 0 0 14.68 3.76c.58 0 1.14-.04 1.7-.07A27.51 27.51 0 1 1 175 89.42a47.17 47.17 0 0 1 83.4-9.03 32.99 32.99 0 0 1 16.79-4.59c14.65 0 27.06 9.5 31.46 22.67a24.9 24.9 0 0 1 33.64 23.28c0 1.34-.13 2.63-.33 3.9l3.64.45.2.03 1.01.13a357.31 357.31 0 0 1 16.56 2.45l-.14 2.16c.35-.4.71-.8 1.08-1.17.25-.25.51-.48.77-.72l.34-.3a21.3 21.3 0 0 1 7.3-4.16v-.03a31.63 31.63 0 0 0-13.6-42.6 47.18 47.18 0 0 0-70.54-13.62 32.98 32.98 0 0 0-28.17 2.54 47.17 47.17 0 0 0-39.39-21.18 47.23 47.23 0 0 0-45.32 34.03 30.56 30.56 0 0 0-39.39 29.3 30.73 30.73 0 0 0 15.92 26.85zm93.69 31.5a8.83 8.83 0 0 1-7.61 8.74 13.4 13.4 0 0 0 14.95-13.3v-25.88a48.01 48.01 0 0 1-7.34 5.68v24.76zm-17.68 2.12c.17.28.34.57.52.84a8.8 8.8 0 0 1-.52-2.96v2.12z"/><path fill="#FFF" d="m226.23 217.07.01-43.65v-2.12a8.83 8.83 0 1 0 17.67 0v-24.76a48.01 48.01 0 0 0 7.35-5.68 46.97 46.97 0 0 0 4.61-4.92 33 33 0 0 0 38.93-.22 24.86 24.86 0 0 0 45.16-10.06 24.9 24.9 0 0 0-33.3-27.18 33.18 33.18 0 0 0-31.47-22.68c-6.13 0-11.85 1.7-16.78 4.59A47.17 47.17 0 0 0 175 89.42c-2.25-.6-4.6-.94-7.03-.94a27.51 27.51 0 0 0-1.35 55c.45.03.9.08 1.35.08 6.07 0 11.66-2 16.2-5.32a47.22 47.22 0 0 0 25.28 14.43v64.4a8.38 8.38 0 0 0 16.78 0zm-3.35-132.7a11.97 11.97 0 1 1-11.96 11.96c0-6.58 5.37-11.95 11.96-11.95zm-24.2 14.42a8.38 8.38 0 0 1 0 16.74 8.38 8.38 0 0 1 0-16.74zm13.02 19.06a4.53 4.53 0 1 1 9.06 0 4.53 4.53 0 0 1-9.06 0z"/><path fill="#FFF" d="M198.68 111.02a3.87 3.87 0 1 0 0-7.74 3.87 3.87 0 0 0 0 7.74zm24.2-7.22a7.47 7.47 0 1 0-.01-14.94 7.47 7.47 0 0 0 .01 14.93z"/><path fill="#ECECED" d="M220.76 117.85a4.53 4.53 0 1 0-9.06 0 4.53 4.53 0 0 0 9.06 0z"/><path fill="#FFDC93" d="M268.75 241.11a4.53 4.53 0 1 0 0-9.06 4.53 4.53 0 0 0 0 9.06z"/><path fill="#ECECED" d="M198.68 115.53a8.38 8.38 0 0 0 0-16.74 8.38 8.38 0 0 0 0 16.74zm0-12.24a3.87 3.87 0 1 1 0 7.75 3.87 3.87 0 0 1 0-7.75zm24.2 5.01a11.97 11.97 0 1 0-.01-23.9 11.97 11.97 0 0 0 .01 23.9zm0-19.42a7.47 7.47 0 0 1 0 14.91 7.46 7.46 0 0 1 0-14.9z"/><path fill="#FFDC93" d="M310.72 206a16.36 16.36 0 0 0 0-32.71 16.38 16.38 0 0 0-16.36 16.36c0 9.02 7.34 16.35 16.36 16.35zm0-28.2a11.86 11.86 0 0 1 0 23.7 11.87 11.87 0 0 1 0-23.7zm-21.49 84.06a9.58 9.58 0 0 0 0-19.15 9.59 9.59 0 0 0 0 19.15zm0-14.65a5.08 5.08 0 1 1 0 10.15 5.08 5.08 0 0 1 0-10.15zm-12.76 22.63c0-9.68-7.88-17.56-17.56-17.56a17.57 17.57 0 0 0-17.55 17.56c0 9.67 7.88 17.55 17.55 17.55 9.68 0 17.56-7.88 17.56-17.55zm-30.6 0a13.06 13.06 0 0 1 26.09 0 13.05 13.05 0 0 1-26.09 0z"/></svg></svg>