<svg xmlns="http://www.w3.org/2000/svg" version="1.0" viewBox="0 0 2000 2000"><path d="M952 2a1001 1001 0 0 0-56 1995c17 2 25 2 96 3 82 0 90 0 128-5a970 970 0 0 0 423-152 1008 1008 0 0 0 452-718c5-42 5-51 5-124s0-84-6-128A1001 1001 0 0 0 952 2zm-55 198a190 190 0 0 1 138 83l10-4c30-14 59-17 91-9l12 3 11-8a188 188 0 0 1 268 57c3 5 5 7 10 10a127 127 0 0 1 52 159l-4 8 8-2c11-3 30-3 41 0 51 12 88 57 96 117 2 14 2 38 0 53-11 89-51 180-117 268-32 43-60 75-115 130l-38 39c-19 23-36 48-47 70-14 29-18 46-18 71 0 21 1 28 9 44 5 10 5 12 5 17-1 11-10 19-22 19-11 0-18-5-25-20-8-16-12-33-13-55v-14l-13 21c-39 65-88 130-126 168l-11 10 4 3a22 22 0 0 1-4 37c-3 2-5 4-8 9-9 15-14 30-15 45-1 25 4 34 39 65a267 267 0 0 1 86 130c4 10 4 11 8 13 9 5 15 13 17 23 1 7-2 16-8 22l-7 7-210 1H793l-4-4c-10-7-14-20-11-32 2-6 9-14 15-17l4-2 6-18a253 253 0 0 1 90-128c23-20 31-32 33-48 2-15-2-34-12-53-5-9-6-11-10-13-14-6-18-24-8-34l6-6c2-1 1-2-9-13-41-41-89-108-129-178l-12-20 1 11c2 29-5 61-17 79-9 14-28 15-38 4-6-8-7-16 0-26 10-16 13-45 8-71-5-28-19-57-42-89-13-18-29-36-64-71l-50-52a637 637 0 0 1-178-339c-2-18-2-46 1-61 5-32 18-58 39-79 22-23 48-35 77-35 30 0 57 13 74 38l4 6v-3c0-3-2-6-6-12-16-22-24-48-23-76a120 120 0 0 1 68-105c28-13 59-16 87-8a304 304 0 0 1 30-56c9-12 33-36 45-45a189 189 0 0 1 129-34z"/><path d="m1362 507-4 12a100 100 0 0 1-174 30l-3-4-9 5c-11 7-23 12-38 16-11 3-13 3-30 3l-28-1c-15-4-29-9-43-17l-8-5-9 9-8 9-1 57c0 51-1 57-2 62-6 18-18 30-35 36-6 2-8 3-22 3-15 0-16 0-22-4-8-3-12-7-16-15l-3-5v179l-3 5c-3 8-11 16-18 19-10 3-15 3-26 0-2 0-2 0-2 5 2 12 11 23 22 27 8 3 19 3 27-1 6-3 14-12 17-19 1-4 2-7 2-94l1-90 3 5c5 6 12 11 20 15 20 9 43 5 59-10 7-7 11-13 14-23 2-5 2-7 3-62v-57l9-10 9-10 7 5c13 8 32 15 48 18 11 2 37 2 47 0 17-4 36-12 49-20l5-4 3 4c4 6 17 18 25 24 10 6 20 10 32 13s33 3 45 0a100 100 0 0 0 76-109 285 285 0 0 1-16-4c-3 0-3 0-4 3zm-878 30c-18 2-37 16-49 34-22 34-25 74-9 140 21 86 71 172 152 262 16 19 50 55 61 65a664 664 0 0 1 51 55l-4-11a1637 1637 0 0 1-113-475l-2-14-3 2-9 2c-5 0-7 0-12-3-6-3-9-6-13-17-6-20-17-34-31-38-5-2-15-3-20-2zm1020 0c-11 3-19 9-26 19-4 7-9 17-11 24-2 10-12 17-22 17-5 0-4-1-6 16a1660 1660 0 0 1-111 462l40-41c64-65 97-104 131-154 39-58 64-112 78-169 15-65 13-104-8-138-6-10-18-22-28-28-12-7-26-10-37-8zm-771 21c-14 9-31 15-47 17-13 1-44 0-55-3a141 141 0 0 1-29-11c0 1 18 20 25 25 38 27 87 28 128 2 2-1 2-1 9 5a180 180 0 0 0 73 45l1-13v-13h-3l-16-5c-28-9-52-24-75-46l-7-6-5 3z"/></svg>